<svg width="43" height="30" viewBox="0 0 43 30" fill="none" xmlns="http://www.w3.org/2000/svg">
<g clip-path="url(#clip0_123_2)">
<path d="M1.91281 26.2332C2.11066 26.704 2.83612 26.9058 3.29777 26.9731C3.82538 27.0404 4.35299 26.9731 4.8806 26.9058C5.34225 26.8386 5.54011 26.6368 5.86986 26.3677C6.26557 26.0314 6.79317 25.8969 7.25483 25.6951C7.65054 25.4933 8.11219 25.426 8.44195 25.0897C8.83765 24.6861 9.43121 24.4843 9.89287 24.2152C10.4864 23.8789 11.08 23.5426 11.6735 23.139C12.0692 22.9372 12.465 22.6682 12.8607 22.3991C12.9926 22.3318 13.3223 22.1973 13.3883 21.9955C13.4542 21.7937 13.5202 21.5919 13.5861 21.3901C13.6521 21.3901 13.718 21.3901 13.718 21.4574C13.9159 21.5247 14.0478 21.5247 14.2456 21.5919C14.5754 21.6592 14.9051 21.7265 15.1689 21.861C15.4987 21.9955 15.8285 22.13 16.1582 22.2646C16.2242 22.3318 16.3561 22.3318 16.422 22.3991C16.6199 22.6009 16.488 23.139 16.488 23.4081C16.488 24.0135 16.488 24.6188 16.6199 25.2242C16.7518 25.7623 16.6199 26.2332 16.6199 26.7713C16.6199 27.1076 16.422 27.3767 16.2901 27.713C16.2242 27.9148 16.0263 27.9148 15.8285 27.9821C15.5646 28.1166 15.3668 28.2511 15.1689 28.3857C14.7732 28.722 14.2456 29.1928 14.1797 29.7309C14.1137 30.1345 17.2134 29.6637 17.4772 29.5964C18.0048 29.4619 18.5984 29.3274 18.7962 28.7892C19.06 28.1166 19.126 27.3767 19.1919 26.704C19.2579 26.0987 19.3238 25.5605 19.3238 24.9552C19.3238 24.417 19.3898 23.8789 19.3898 23.4081C19.3898 22.9372 19.3239 22.3318 19.5217 21.861C19.7196 21.3229 20.511 21.5247 20.9726 21.3901C21.3683 21.3229 21.6981 21.1883 22.0938 21.0538C23.215 20.6502 24.4021 20.2466 25.5232 19.8431C26.5785 19.4395 27.6996 18.9686 28.8208 18.8341C29.5462 18.6996 29.9419 19.6413 30.4036 20.0448C30.7993 20.4484 31.3929 20.7848 31.6567 21.2556C31.9205 21.7265 31.7226 22.13 31.5907 23.139C31.5248 23.7444 31.1291 24.2152 30.6015 24.4843C30.3377 24.6188 29.9419 24.6861 29.7441 24.8206C29.4143 25.0897 29.0186 25.8969 29.1505 26.2332C29.1505 26.5695 30.3377 26.3677 30.6015 26.3677C31.9205 26.435 32.6459 24.7534 33.1076 23.8117C33.6352 22.6682 34.1628 21.5919 34.5585 20.3812C34.7564 19.7085 34.5585 19.1704 34.0309 18.7668C33.8331 18.6323 33.6352 18.4305 33.4373 18.296C34.0309 18.2287 34.8883 18.3632 35.4818 18.4978C36.1413 18.565 37.7901 18.8341 38.1858 18.9686C38.7134 19.1704 39.7686 20.3812 40.1643 21.3229C40.3622 21.7937 40.56 23.7444 41.0877 24.0135C41.3515 24.148 42.0769 23.8117 42.3407 23.6771C43.0002 23.3408 42.8024 23.0718 42.8024 22.8027C42.8024 22.5336 42.8683 22.3318 42.8024 21.7265C42.7364 21.1883 42.2088 20.5157 41.8131 20.1121C41.4174 19.6413 40.6919 17.7578 40.0984 16.4798C39.4389 15.2018 38.7794 15.7399 38.4496 15.8744C37.988 16.0762 37.3944 15.5381 37.1306 15.2018C36.8668 14.7982 36.603 14.2601 36.6689 13.7892C36.7349 12.5112 35.6137 11.6368 35.284 10.4933C35.0861 9.88789 35.284 9.28251 35.5478 8.74439C35.6797 8.47534 35.9435 8.20628 36.2073 7.93722C36.537 7.53363 36.9327 7.13004 37.2625 6.65919C37.922 5.78475 38.1199 4.97758 37.922 3.90135C37.8561 3.29596 37.7242 2.69058 37.6582 2.0852C37.5923 1.81614 37.5263 1.54709 37.4604 1.27803C37.4604 1.21076 37.3944 1.1435 37.3284 1.07623C37.2625 0.941704 37.2625 0.941704 37.1966 0.807175C37.1966 0.73991 37.1306 0.672646 37.0646 0.538117C37.0646 0.73991 37.0646 0.874439 37.0646 0.941704C37.0646 1.00897 37.1306 1.07623 37.1306 1.21076C37.1306 1.27803 37.1306 1.34529 37.1306 1.41256C37.1306 1.54709 37.1306 1.74888 37.1966 1.88341C37.1966 2.01794 37.1966 2.0852 37.1966 2.15247C37.1966 2.42152 37.1306 2.55605 37.1306 2.69058C36.7349 4.57399 36.2073 5.38117 36.2073 5.38117C35.8116 5.98655 35.4159 6.39013 34.5585 7.06278C33.8331 7.6009 33.1735 8.13901 32.3821 8.47534C31.3929 8.87892 30.2058 8.74439 29.1505 8.74439C28.4251 8.67713 27.6337 8.7444 26.8423 8.81166C25.3254 8.94619 23.8085 9.21525 22.2916 9.48431C20.9726 9.75336 19.7196 10.157 18.3346 10.2242C17.2794 10.2915 16.2242 10.8969 15.1689 10.426C14.4435 9.75336 14.1137 8.81166 13.5861 7.93722C12.8607 6.79372 12.1352 5.5157 11.014 4.77578C10.8821 4.70852 10.6843 4.57399 10.5524 4.50673C10.4205 4.3722 10.3545 4.1704 10.2886 4.10314C10.2226 4.03587 10.0907 3.83408 10.0248 3.76682C9.43121 3.02691 8.9036 2.15247 8.17814 1.47982C7.78244 1.1435 7.32078 0.807175 6.85912 0.538117C6.39747 0.538117 6.00176 0.134529 5.60606 0C5.67201 0.134529 5.73796 0.201794 5.86986 0.336323C6.33152 0.874439 6.46342 1.68161 6.59532 2.35426C6.59532 2.48879 6.79317 3.2287 6.85912 3.76682C6.66127 3.63229 6.59532 3.49776 6.46342 3.36323C5.93581 2.75785 5.34225 2.35426 4.61679 2.01794C4.55084 2.01794 4.48489 2.0852 4.55084 2.0852C4.8806 2.35426 5.1444 2.75785 5.34225 3.09417C5.54011 3.43049 5.73796 3.76682 5.86986 4.1704C5.93581 4.3722 6.00176 4.50673 6.00176 4.64126C5.2763 5.04484 4.48489 5.5157 3.95728 6.18834C3.29777 6.99552 2.90207 8.5426 2.83612 8.81166C2.77017 9.08072 2.70422 9.55157 2.57231 9.75336C2.44041 9.95516 0.527836 11.9058 0.264032 12.2422C0.00022839 12.5785 -0.0657225 12.9148 0.13213 13.2511C0.593787 13.8565 1.3852 14.5291 2.11066 14.7982C2.57231 15 3.23182 15.3363 3.75943 15.2018C4.28704 15.0673 4.68274 14.5964 5.2763 14.5964C5.93581 14.5291 6.52937 14.3946 7.18888 14.2601C7.65054 14.1256 7.71649 14.1928 7.98029 14.5964C8.17814 14.8655 8.31004 15.2018 8.5079 15.4709C8.7717 15.8744 8.9036 16.278 9.16741 16.6816C9.36526 17.0852 9.76097 17.287 9.95882 17.6906C10.3545 18.4305 10.2226 19.6413 9.62906 20.1794C9.16741 20.583 8.6398 20.852 8.17814 21.2556C7.78244 21.6592 7.38673 22.13 6.85912 22.3991C6.26557 22.7354 6.06771 23.2735 5.73796 23.8117C5.34225 24.5516 4.61679 24.4843 3.89133 24.6861C3.36373 24.8206 2.96802 25.0897 2.50636 25.3587C2.30851 25.4933 2.17661 25.5605 1.97876 25.6951L1.91281 25.7623C1.649 26.0314 1.7809 25.9641 1.91281 26.2332ZM8.7717 15.8744C8.7717 15.8744 8.7717 15.9417 8.83765 15.9417V16.009C8.83765 15.9417 8.7717 15.9417 8.7717 15.8744Z" fill="#1F3773"/>
</g>
<defs>
<clipPath id="clip0_123_2">
<rect width="43" height="30" fill="white"/>
</clipPath>
</defs>
</svg>
