<svg width="44" height="27" viewBox="0 0 44 27" fill="none" xmlns="http://www.w3.org/2000/svg">
<g clip-path="url(#clip0_123_10)">
<path d="M43.9999 20.0753C43.9999 19.8212 43.8701 19.6306 43.6754 19.44L43.6105 19.3765C43.4807 19.2494 43.3509 19.0588 43.1562 18.9318C42.637 18.4235 42.1828 17.8518 41.7285 17.3435C41.5338 17.0894 41.2742 16.8353 41.0146 16.6447C40.4305 16.2 39.8465 15.7553 39.2624 15.3741C38.873 15.12 38.4836 14.9294 38.0294 14.6753C37.5751 14.4212 37.1857 14.1035 36.8612 13.7224C36.6665 13.5318 36.4718 13.3412 36.2772 13.0871C35.4335 12.1976 34.6547 11.3082 33.876 10.3553C33.7462 10.1647 33.6164 10.0376 33.4866 9.84706C33.227 9.40235 33.0323 8.95765 32.9025 8.51294C32.8376 8.13176 32.7727 7.75059 32.7727 7.36941C32.7078 6.28941 33.0323 5.27294 33.6164 4.32C34.0058 3.74824 34.46 3.17647 34.9143 2.66824C35.2388 2.28706 35.6282 1.90588 35.9527 1.58824C36.1474 1.27059 36.2771 1.08 36.342 0.889412C36.4069 0.762353 36.4069 0.635294 36.4069 0.444706C36.4069 0.190588 36.2123 0 35.9527 0C35.8878 0 35.8229 0 35.6931 0C35.3037 0 34.9792 0.0635294 34.5898 0.190588C34.0058 0.381176 33.4866 0.635294 33.0323 0.952941C32.5131 1.27059 32.0589 1.58824 31.6046 2.03294C31.2152 2.41412 30.8907 2.85882 30.5662 3.30353C30.2418 3.81176 29.9173 4.25647 29.5928 4.76471C29.3981 5.08235 29.1385 5.4 28.8789 5.65412C28.6842 5.84471 28.4895 6.03529 28.23 6.16235C27.9704 6.28941 27.6459 6.35294 27.3214 6.35294C26.4777 6.35294 25.6341 6.35294 24.7255 6.35294C23.6223 6.28941 22.5839 6.41647 21.4807 6.60706C20.7019 6.79765 19.9881 6.98824 19.2093 7.30588C18.755 7.49647 18.3007 7.62353 17.7816 7.68706C17.3922 7.75059 17.0028 7.75059 16.6134 7.81412C15.8996 7.87765 15.2506 7.87765 14.5367 7.87765C14.1474 7.87765 13.758 7.81412 13.3686 7.68706C13.109 7.62353 12.7845 7.49647 12.5249 7.43294C11.0972 6.92471 9.66948 6.79765 8.17686 6.92471C7.3332 6.98824 6.55444 7.17882 5.77568 7.36941C5.3863 7.49647 4.93202 7.62353 4.54264 7.81412C3.82877 8.13177 3.17981 8.44941 2.46594 8.76706C2.33615 8.83059 2.27125 8.83059 2.14146 8.83059C1.81697 8.83059 1.49249 8.83059 1.10311 8.83059C0.843524 8.83059 -0.00013396 8.83059 -0.194824 9.21177V9.27529C-0.194824 9.33882 -0.194824 9.46588 -0.129927 9.52941C-0.0650307 9.59294 -0.00013396 9.65647 -0.00013396 9.65647C0.0647628 9.72 0.12966 9.72 0.194556 9.78353C0.454143 9.91059 0.71373 10.1012 1.03821 10.2282C1.2329 10.3553 1.3627 10.4824 1.55739 10.6094C1.68718 10.6729 1.75208 10.8635 1.75208 10.9906C1.75208 11.1812 1.81697 11.3718 1.81697 11.6259C1.88187 12.0706 2.01167 12.5153 2.20636 12.96C2.33615 13.2776 2.46594 13.5953 2.66063 13.9129C2.66063 13.9765 2.72553 14.04 2.72553 14.1035C2.72553 14.1671 2.72553 14.2306 2.66063 14.2941C2.66063 14.2941 2.59574 14.2941 2.59574 14.3576C2.72553 14.3576 2.72553 14.3576 2.79043 14.2941C2.85532 14.2941 2.92022 14.2941 2.98512 14.2306C2.98512 14.3576 2.98512 14.5482 3.05001 14.7388C3.05001 14.8024 3.11491 14.9294 3.17981 14.9929C3.2447 15.3741 3.3745 15.7553 3.63408 16.0729C3.76388 16.2635 3.82877 16.4541 3.89367 16.6447C3.89367 16.8353 3.95857 17.0894 4.08836 17.28C4.41285 17.8518 4.93202 18.1059 5.58099 18.1059C5.84057 18.1059 6.10016 18.1059 6.35975 18.1059C6.48954 18.1059 6.55444 18.1059 6.68423 18.0424C6.87892 18.0424 7.00872 17.9788 7.20341 17.9153C7.65768 17.8518 8.11196 17.7882 8.56624 17.5976C8.76093 17.5341 8.89072 17.4706 9.08541 17.4706C9.2152 17.4706 9.345 17.4071 9.47479 17.4071C9.47479 17.4706 9.47479 17.5341 9.47479 17.5976C9.47479 17.7247 9.53969 17.8518 9.53969 17.9788C9.53969 18.2329 9.53969 18.4871 9.53969 18.7412C9.53969 18.8047 9.47479 18.9318 9.47479 18.9953C9.345 19.2494 9.15031 19.44 8.95562 19.6306C8.56624 19.8847 8.24175 20.2024 7.91727 20.4565C7.52789 20.7741 7.2683 21.1553 7.00872 21.6C6.81403 21.9812 6.68423 22.3624 6.48954 22.7435C6.29485 23.2518 6.10016 23.76 5.84057 24.2047C5.64588 24.6494 5.3863 25.0306 5.06181 25.4118C5.19161 25.4118 5.12671 25.4753 5.06181 25.6024C4.93202 25.7929 4.93202 25.92 4.93202 26.1106C4.93202 26.2376 4.99692 26.3647 5.06181 26.4918C5.06181 26.5553 5.19161 26.6824 5.3214 26.6824C5.3863 26.7459 5.51609 26.7459 5.58099 26.8094L5.64588 26.8729C5.84057 27 5.97037 27 6.16506 27C6.35975 27 6.55444 26.9365 6.74913 26.8094C6.81402 26.8094 6.81403 26.7459 6.87892 26.7459C6.87892 26.7459 6.87892 26.7459 6.94382 26.6824C7.00872 26.6188 7.07361 26.5553 7.07361 26.5553C7.20341 26.3647 7.3332 26.1741 7.52789 26.0471C7.59279 26.0471 7.59279 25.9835 7.65768 25.92C7.72258 25.7929 7.78748 25.6659 7.85237 25.5388C8.04706 25.1576 8.24175 24.7765 8.50134 24.3953C8.82582 23.9506 9.15031 23.5694 9.53969 23.1882C9.66948 23.0612 9.79928 22.9341 9.92907 22.8706C10.3184 22.5529 10.7727 22.2988 11.227 22.1082C11.6813 21.8541 12.0707 21.6 12.5249 21.2824C12.9143 21.0282 13.2388 20.7741 13.6282 20.52C13.9527 20.3294 14.2123 20.0753 14.4718 19.8212C14.6016 19.7576 14.6665 19.6306 14.7314 19.5035C14.7963 19.5035 14.7963 19.5035 14.8612 19.5035C15.2506 19.6941 15.7049 19.7576 16.1592 19.7576C16.6134 19.7576 17.0677 19.7576 17.5869 19.7576C17.6518 19.7576 17.6518 19.7576 17.7167 19.7576C18.1061 19.7576 18.4305 19.7576 18.755 19.6941V19.7576C18.6901 19.9482 18.6901 20.0753 18.6901 20.2659C18.6901 20.6471 18.6252 21.0918 18.6252 21.4729C18.6252 22.3624 18.5603 23.2518 18.4954 24.1412C18.4954 24.2047 18.4954 24.3318 18.4305 24.3953C18.3656 24.5859 18.3007 24.7129 18.1061 24.7765C18.0412 24.7765 18.0412 24.84 17.9763 24.84C17.8465 24.9035 17.7167 24.9671 17.5869 25.0306C17.3922 25.1576 17.1975 25.2847 17.0677 25.4753C16.873 25.6659 16.8081 25.92 16.873 26.1741C16.9379 26.3647 17.0028 26.4918 17.1975 26.5553C17.3922 26.6824 17.7816 26.6824 18.1061 26.4918C18.2359 26.5553 18.3656 26.5553 18.4954 26.5553C18.6901 26.5553 18.8848 26.4918 19.0795 26.4282C19.3391 26.5553 19.7285 26.4918 20.1179 26.2376C20.637 25.92 21.0264 25.5388 21.286 24.9671C21.4807 24.4588 21.6754 23.9506 21.7403 23.3788C21.8052 22.8706 21.8701 22.3624 21.935 21.8541C21.9999 21.3459 22.0648 20.9012 22.1297 20.3929C22.1946 20.1388 22.1946 19.8212 22.2595 19.5671C22.3243 19.5671 22.3243 19.5671 22.3892 19.5035C22.8435 19.44 23.3627 19.44 23.817 19.3765C24.0766 19.3765 24.3361 19.3129 24.5957 19.3129C24.7904 19.3129 24.9202 19.2494 25.1149 19.2494C25.3745 19.6306 25.699 19.8847 26.1533 20.0753C26.4128 20.2024 26.6075 20.3294 26.8022 20.3929C26.9969 20.4565 26.9969 20.6471 26.932 20.7741C26.8671 20.8376 26.8022 20.9647 26.7373 21.0282C26.4128 21.3459 26.1533 21.6635 25.7639 21.8541C25.699 21.9176 25.6341 21.9176 25.5692 21.9812C25.3745 22.1082 25.1798 22.1718 24.9851 22.1718C24.7255 22.1718 24.5308 22.2988 24.3361 22.4259C24.0766 22.5529 23.8819 22.8071 23.817 23.0612C23.7521 23.3788 23.8819 23.6329 24.2064 23.76C24.2712 24.1412 24.4659 24.1412 24.6606 24.1412C24.6606 24.1412 24.6606 24.1412 24.7255 24.1412C24.9202 24.2682 25.2447 24.2047 25.5043 24.0776C25.5692 24.0776 25.5692 24.0776 25.6341 24.0776C26.2182 23.9506 26.7373 23.76 27.3214 23.6329C27.581 23.5694 27.9055 23.4424 28.1651 23.3153C28.6193 23.0612 29.0736 22.7435 29.3981 22.3624C29.6577 22.0447 29.8524 21.7271 30.0471 21.3459C30.3066 20.9012 30.3715 20.3929 30.3066 19.9482C30.2418 19.7576 30.1769 19.5035 30.112 19.3129C29.9822 19.0588 29.8524 18.7412 29.6577 18.4871C29.463 18.1694 29.3332 17.8518 29.2034 17.5341C29.1385 17.3435 29.1385 17.2165 29.2034 17.0259C29.2034 16.9624 29.2683 16.8988 29.2683 16.7718C29.3332 16.7718 29.3981 16.7718 29.3981 16.7718C29.5928 16.8353 29.8524 16.8988 30.0471 16.9624C30.6311 17.2165 31.2801 17.3435 31.9291 17.4071C32.7078 17.4706 33.4866 17.5341 34.2653 17.5976C34.9792 17.6612 35.758 17.6612 36.4718 17.7247C37.0559 17.7882 37.7049 17.9153 38.2241 18.1059C38.6134 18.2329 39.0028 18.4871 39.2624 18.8047C39.522 19.1224 39.8465 19.44 40.0412 19.8212C40.2359 20.2024 40.4954 20.52 40.6901 20.9012C40.8848 21.1553 41.0795 21.3459 41.404 21.4094C41.5338 21.4729 41.7285 21.4729 41.8583 21.4094C42.053 21.3459 42.2477 21.2188 42.3125 21.0282C42.5072 21.0282 42.637 21.0918 42.8317 21.0282C42.9615 21.0282 43.0913 20.9647 43.2211 20.9647C43.3509 20.9012 43.4158 20.8376 43.4158 20.7106C43.5456 20.7106 43.6754 20.6471 43.7403 20.52C43.8052 20.4565 43.8052 20.3929 43.8701 20.3294C43.935 20.2659 43.935 20.2024 43.935 20.0753C43.9999 20.1388 43.9999 20.0753 43.9999 20.0753Z" fill="#1F3773"/>
</g>
<defs>
<clipPath id="clip0_123_10">
<rect width="44" height="27" fill="white"/>
</clipPath>
</defs>
</svg>
