<svg width="41" height="43" viewBox="0 0 41 43" fill="none" xmlns="http://www.w3.org/2000/svg">
<g clip-path="url(#clip0_123_4)">
<path d="M38.1645 39.0563C38.1645 39.1321 38.1645 39.1321 38.1645 39.0563C38.1645 39.1321 38.1645 39.1321 38.1645 39.0563ZM40.9234 37.0087C40.8467 36.5536 40.7701 36.0986 40.6168 35.7194C40.5402 35.5677 40.5402 35.4161 40.5402 35.1886C40.6168 34.7335 40.6935 34.2785 40.8467 33.8235C41.0766 32.9893 40.9234 32.2309 40.5402 31.4725C40.3869 31.245 40.3103 31.0175 40.157 30.79C40.0037 30.4866 39.7738 30.1833 39.5439 29.8799C39.3907 29.6524 39.314 29.4249 39.314 29.0457C39.314 28.0598 39.2374 27.0739 39.0075 26.1639C38.7776 25.2538 38.471 24.4954 37.9346 23.7371C37.7047 23.3579 37.4748 22.9787 37.1682 22.6753C37.0916 22.5237 37.015 22.372 36.9383 22.2961C36.8617 22.1445 36.785 21.9928 36.785 21.7653C36.7084 21.1586 36.6318 20.476 36.5551 19.8693C36.4785 19.111 36.2486 18.3526 35.7888 17.67C35.4056 16.9875 34.9458 16.305 34.4093 15.6224C34.1028 15.2432 33.7963 14.864 33.4131 14.6365C33.1832 14.409 32.8766 14.2573 32.6467 14.0298C32.5701 13.954 32.4935 13.8782 32.4168 13.8023C32.4168 13.4231 32.4935 13.1198 32.4935 12.8164C32.5701 11.603 32.4935 10.3896 32.4168 9.17621C32.3402 8.41784 32.3402 7.65946 32.2635 6.82524C32.2635 6.67357 32.2635 6.59773 32.2635 6.44605C32.4935 5.15681 32.7234 3.94341 32.8 2.65417C32.8766 2.04746 32.8766 1.44076 32.8 0.834061C32.8 0.682386 32.7234 0.53071 32.6467 0.379035C32.4935 0.0756836 32.2636 -0.000154153 31.957 0.151521C31.8037 0.227359 31.6505 0.379035 31.5738 0.53071C31.4972 0.758223 31.3439 0.985736 31.2673 1.21325C31.0374 1.81995 30.9607 2.50249 30.8841 3.18503C30.8075 4.24676 30.7308 5.23265 30.7308 6.29438C30.7308 6.97692 30.7308 7.58362 30.6542 8.26616C30.6542 8.72119 30.5776 9.10038 30.5009 9.5554C30.4243 10.0863 30.1944 10.5413 29.8879 11.0722C29.5813 11.603 29.2748 12.2097 28.8916 12.7406L28.815 12.8164C28.7383 12.8164 28.6617 12.8164 28.6617 12.7406C28.4318 12.6647 28.2785 12.5889 28.1252 12.5131C26.9757 12.2097 25.7495 12.2097 24.6 12.4372C23.757 12.5889 22.914 12.9681 22.1477 13.499C22.071 13.5748 21.9944 13.5748 21.8411 13.5748C21.4579 13.5748 21.0748 13.499 20.7682 13.499C20.615 13.499 20.4617 13.4231 20.3084 13.3473C19.772 12.8923 19.0822 12.5889 18.4692 12.2097C18.3159 12.1339 18.1626 12.058 18.0093 12.058L17.9327 12.1339C17.9327 12.058 17.8561 11.9822 17.8561 11.9822C17.8561 11.9064 17.9327 11.9064 17.9327 11.8305C18.2393 11.5272 18.2393 11.148 18.086 10.7688C18.0093 10.6171 17.9327 10.4655 17.7794 10.3896C17.7028 10.3138 17.5495 10.3138 17.4729 10.2379C17.3963 10.2379 17.3196 10.1621 17.243 10.1621C17.0897 9.32789 16.6299 8.72119 15.8636 8.26616C15.6336 8.11448 15.4037 8.03865 15.0972 7.88697C14.4841 7.65946 13.871 7.58362 13.2579 7.50778C12.9514 7.50778 12.5682 7.43194 12.2617 7.43194C12.0318 7.05276 11.572 6.82524 11.1888 6.7494H11.1122C10.6523 6.59773 10.1159 6.44605 9.65608 6.29438C9.42617 6.21854 9.19626 6.1427 8.96636 6.1427C8.04673 5.91519 7.05047 5.83935 6.13084 6.1427C6.05421 6.06687 5.97757 5.99103 5.8243 5.91519C5.13458 5.61184 4.44486 5.61184 3.75514 5.91519C3.29533 6.1427 2.83551 6.44605 2.3757 6.7494C2.22243 6.90108 2.06916 7.05276 1.99252 7.20443C1.83925 7.35611 1.76262 7.43194 1.53271 7.50778C1.0729 7.65946 0.766355 7.96281 0.459813 8.342C0.153271 8.79702 0 9.32789 0 9.85875C0 10.1621 0.153271 10.4655 0.306542 10.7688C0.459813 11.0722 0.613084 11.3755 0.766355 11.603C0.919626 11.8305 0.996262 12.058 1.14953 12.2856C1.37944 12.7406 1.37944 13.1956 1.22617 13.7265C1.14953 13.8782 1.14953 13.954 1.0729 14.1057C0.996262 14.2573 0.919626 14.4849 0.919626 14.6365C0.842991 14.864 0.842991 15.0916 0.996262 15.3191C1.14953 15.3949 1.3028 15.3191 1.45607 15.2432C1.53271 15.1674 1.68598 15.0157 1.76262 14.864C1.83925 14.7882 1.91589 14.6365 1.99252 14.5607C1.99252 14.6365 2.06916 14.7124 2.06916 14.864C2.29907 15.2432 2.29907 15.2432 2.06916 15.6983C2.06916 15.7741 1.99252 15.8499 1.99252 15.9258C1.76262 16.4566 1.53271 16.9117 1.37944 17.4425C1.22617 17.8217 1.14953 18.2009 1.14953 18.5801C1.14953 18.9593 1.14953 19.3385 1.3028 19.7177C1.45607 20.0968 1.76262 20.4002 2.14579 20.476C2.29907 20.5519 2.52897 20.5519 2.75888 20.476C2.91215 20.476 3.06542 20.476 3.21869 20.5519C3.4486 20.6277 3.75514 20.7794 3.98505 20.8552C4.44486 21.0069 4.90467 21.0827 5.36449 21.0827C6.05421 21.0069 6.66729 20.7794 7.28037 20.476C7.35701 20.4002 7.51028 20.4002 7.58692 20.3244C7.74019 20.4002 7.89346 20.4002 8.04673 20.476C8.27664 20.5519 8.58318 20.5519 8.81308 20.4002C8.81308 20.476 8.88972 20.5519 8.88972 20.6277C8.88972 21.0069 8.88972 21.3861 8.96636 21.7653C9.11963 22.2961 9.2729 22.7512 9.5028 23.282C9.73271 23.6612 9.88598 24.0404 10.1159 24.4196C10.5757 25.2538 11.0355 26.088 11.4187 26.9222C11.4187 26.9981 11.4953 27.0739 11.4953 27.1498C11.7252 27.6806 11.9551 28.2873 12.185 28.894C12.5682 30.0316 12.8748 31.245 13.1047 32.4584C13.2579 33.0651 13.4112 33.6718 13.4879 34.3543C13.5645 34.8094 13.6411 35.3402 13.7178 35.7953C13.7944 36.1744 13.7944 36.6295 13.871 37.0087C13.9477 37.767 13.4879 38.3737 12.7981 38.6771C12.6449 38.7529 12.415 38.8288 12.2617 38.9046C11.8785 39.0563 11.572 39.2838 11.2654 39.5872C11.1888 39.7388 11.0355 39.8905 10.9589 40.0422C10.8056 40.4214 10.9589 40.8006 11.3421 40.9522C11.572 41.0281 11.8785 41.1039 12.185 41.0281C12.3383 41.0281 12.4916 41.0281 12.5682 41.0281C12.6449 41.1039 12.6449 41.1039 12.6449 41.1039C12.8748 41.3314 13.1813 41.4073 13.4879 41.3314C13.6411 41.3314 13.871 41.2556 14.0243 41.2556C14.1776 41.2556 14.2542 41.2556 14.4075 41.1797C14.714 41.1797 14.9439 41.1797 15.2505 41.1797C16.0168 41.1039 16.5533 40.7247 16.9364 40.118C17.3196 39.5113 17.3963 38.9046 17.243 38.2221C17.1664 37.767 17.0131 37.3879 16.9364 37.0087C16.9364 36.857 16.8598 36.7053 16.8598 36.5536C16.8598 36.0986 16.9364 35.6436 16.9364 35.1886C16.9364 34.7335 16.9364 34.2785 16.8598 33.8235C16.7832 32.9893 16.6299 32.2309 16.5533 31.4725C16.4766 30.9416 16.4 30.3349 16.4 29.8041C16.4 29.7282 16.4 29.5766 16.4766 29.4249C16.6299 29.5007 16.7065 29.5766 16.8598 29.5766C17.243 29.7282 17.5495 29.8799 17.9327 30.0316C18.6224 30.2591 19.3888 30.3349 20.0785 30.1074C20.5383 29.9558 20.9215 29.8041 21.3813 29.6524C21.4579 29.5766 21.6112 29.5007 21.7645 29.5766C21.9178 29.8041 22.071 30.1074 22.2243 30.3349C22.6075 30.8658 22.8374 31.4725 22.9907 32.0792C23.1439 32.5342 23.2972 32.9893 23.3738 33.4443C23.4505 33.7476 23.5271 34.051 23.5271 34.3543C23.6037 34.8094 23.6037 35.1886 23.6804 35.6436C23.8336 36.402 24.0636 37.1603 24.2935 37.9187C24.4467 38.2979 24.4467 38.6013 24.6 38.9804C24.6766 39.2838 24.6766 39.663 24.4467 39.9663C24.2935 40.2697 24.0636 40.4972 23.9103 40.8006C23.757 41.0281 23.6037 41.3314 23.5271 41.6348C23.4505 41.8623 23.3738 42.014 23.4505 42.2415C23.5271 42.7723 23.757 42.9998 24.2935 42.9998C24.2935 42.9998 24.2935 42.9998 24.3701 42.9998C24.6 42.9998 24.7533 42.9998 24.9065 43.0757C25.2897 43.1515 25.7495 43.2274 26.2093 43.2274C26.5159 43.2274 26.8224 43.1515 27.129 43.2274C27.2056 43.2274 27.2822 43.2274 27.3589 43.2274C27.8187 43.2274 28.2019 42.924 28.2785 42.469C28.3551 42.2415 28.3551 41.9381 28.3551 41.7106C28.3551 41.0281 28.2785 40.4214 28.2785 39.7388C28.2785 39.663 28.2785 39.5871 28.2785 39.5113C28.2019 39.2838 28.2019 39.1321 28.2785 38.9046C28.2785 38.6013 28.3551 38.2979 28.3551 37.9946C28.4318 37.1603 28.5084 36.3261 28.4318 35.4919C28.3551 34.6577 28.2019 33.8993 27.8187 33.1409C27.7421 33.0651 27.7421 32.9134 27.6654 32.8376C27.7421 32.6859 27.7421 32.6101 27.8187 32.4584C28.0486 32.0034 28.3551 31.5483 28.585 31.0933C29.0449 30.3349 29.5047 29.5766 29.9645 28.8182C30.1178 28.5907 30.1944 28.3632 30.3477 28.1356C30.5009 27.8323 30.5009 27.5289 30.4243 27.1498C30.3477 26.8464 30.271 26.6189 30.1944 26.3155C30.1944 26.2397 30.1944 26.1639 30.1944 26.088C30.6542 25.7847 31.957 25.178 32.2635 25.1021C32.2635 25.178 32.3402 25.2538 32.3402 25.2538C32.5701 25.633 32.8 26.0122 33.1832 26.2397C33.4897 26.4672 33.7963 26.6947 34.1028 26.9222C34.4093 27.1498 34.7159 27.3014 35.0991 27.4531C35.2523 27.5289 35.329 27.6048 35.329 27.7565C35.329 27.8323 35.329 27.8323 35.329 27.9081C35.4822 28.5907 35.7122 29.2732 36.2486 29.8041C36.3252 29.8799 36.4019 29.9558 36.4785 30.0316C36.4019 30.2591 36.3252 30.4866 36.3252 30.7141C36.172 31.3967 36.2486 32.0792 36.8617 32.6101C37.1682 32.8376 37.3215 33.1409 37.3215 33.5201C37.3981 33.8993 37.4748 34.3543 37.5514 34.7335C37.628 35.4919 37.5514 36.1744 37.015 36.7812C36.8617 36.9328 36.7084 37.0845 36.6318 37.312C36.5551 37.4637 36.4785 37.6154 36.4019 37.767C36.172 38.2979 36.4019 38.7529 36.9383 38.9046C37.0916 38.9804 37.2449 38.9804 37.3981 38.9804C37.4748 39.0563 37.4748 39.1321 37.5514 39.208C37.9346 39.663 38.7776 39.8905 39.314 39.663C39.6206 39.5871 39.8505 39.4355 40.157 39.4355H40.2336C40.5402 39.3596 40.7701 39.1321 40.9234 38.7529C41 38.0704 41 37.5395 40.9234 37.0087ZM23.1439 33.1409C22.8374 33.2168 22.6075 33.3685 22.5308 33.6718C22.3776 34.1268 22.3776 34.506 22.6075 34.961C22.6841 35.0369 22.7607 35.1886 22.914 35.2644C23.0673 35.4161 23.2972 35.4161 23.4505 35.3402C23.4505 35.0369 23.3738 34.1268 23.2972 33.596C23.2972 33.4443 23.2972 33.2926 23.1439 33.1409Z" fill="#1F3773"/>
</g>
<defs>
<clipPath id="clip0_123_4">
<rect width="41" height="43" fill="white"/>
</clipPath>
</defs>
</svg>
