<svg width="51" height="43" viewBox="0 0 51 43" fill="none" xmlns="http://www.w3.org/2000/svg">
<g clip-path="url(#clip0_123_6)">
<path d="M3.39981 38.7528C3.55092 38.9804 3.70203 39.132 3.77759 39.2837C4.07981 39.6629 4.53314 39.7387 4.98647 39.6629C5.59092 39.5112 6.19536 39.2837 6.72425 38.9804C7.17758 38.677 7.3287 38.222 7.55536 37.6911C7.78203 37.6153 7.93314 37.5395 8.15981 37.4636C8.31092 37.3878 8.61314 37.3119 8.6887 37.1603C8.99092 36.6294 9.51981 36.5536 10.0487 36.5536C11.4087 36.4777 12.6176 36.1744 13.902 35.5677C14.4309 35.3402 14.8087 35.0368 15.0354 34.5059C15.1109 34.2784 15.262 34.1268 15.4131 33.9751C15.7909 33.52 16.3198 33.3684 16.9243 33.5201C17.1509 33.5959 17.4531 33.6717 17.6798 33.7476C18.2843 33.8992 18.8131 34.0509 19.4176 33.9751C19.7954 33.8992 20.1731 33.9751 20.4754 33.9751C21.382 34.1268 22.2887 33.9751 23.1954 33.6717C23.3465 33.5959 23.4976 33.5201 23.6487 33.5201C24.2531 33.3684 24.782 33.6717 25.0087 34.2026C25.2354 34.6576 25.3109 35.0368 25.3109 35.5677C25.3109 36.4019 25.3109 37.2361 25.3109 38.0703C25.2354 39.2079 24.6309 40.0421 23.7243 40.7246C23.5731 40.8763 23.3465 40.9521 23.1198 40.9521C22.5154 41.028 22.062 41.3313 21.6843 41.7105C21.2309 42.0897 21.382 42.6206 21.9109 42.7723C22.2131 42.8481 22.5909 42.9239 22.9687 42.9239C23.5731 42.9239 24.2531 42.8481 24.8576 42.7723C25.6131 42.6964 26.0665 42.3172 26.3687 41.6347C26.4443 41.4072 26.5198 41.1038 26.6709 40.8763C26.9731 40.4213 27.2754 39.8904 27.9554 39.9663C28.3331 39.4354 28.4087 38.9045 28.4087 38.2978C28.4843 36.9327 28.7109 35.5677 28.9376 34.2026C29.0887 33.52 29.0887 32.9133 29.1643 32.3066C30.7509 31.2449 32.262 30.1832 33.7731 29.1973C35.2843 28.2114 36.8709 27.1497 38.2309 25.7846C38.382 26.0879 38.4576 26.3155 38.5331 26.543C38.8354 27.453 39.2887 28.2872 40.0443 28.9698C40.6487 29.5006 41.2531 30.0315 41.782 30.5624C42.2354 30.9416 42.6131 31.3966 42.9909 31.8516C43.2931 32.155 43.2931 32.61 43.142 32.9892C42.9909 33.2925 42.9154 33.5201 42.6887 33.7476C42.0843 34.6576 41.4043 35.4918 40.4976 36.1744C40.0443 36.5536 39.6665 36.9327 39.3643 37.3878C39.2131 37.6911 39.062 37.9945 38.9109 38.2978C39.1376 38.7529 39.4398 39.0562 39.8176 39.132C40.3465 39.2079 40.8754 39.2079 41.3287 38.9045C41.6309 38.7529 41.8576 38.5253 42.1598 38.3737C42.462 38.1461 42.6887 37.8428 42.7643 37.4636C42.9909 36.7811 43.4443 36.1744 43.8976 35.6435C44.8043 34.6576 45.7109 33.7476 46.6176 32.6858C46.6931 32.7617 46.8443 32.8375 46.9198 32.9133C47.5998 33.8992 47.902 35.1126 48.1287 36.2502C48.2043 36.6294 47.9776 36.8569 47.7509 37.0844C47.1465 37.6911 47.1465 38.0703 47.4487 39.0562C47.7509 39.132 48.1287 39.132 48.5065 39.2079C48.8087 39.2079 49.1865 39.132 49.4131 38.9804C49.4887 38.9045 49.6398 38.7528 49.7154 38.7528C50.4709 38.5253 50.622 37.9945 50.7731 37.3119C50.7731 37.1603 50.8487 36.9327 50.8487 36.7052C50.6976 36.0985 50.5465 35.4918 50.3198 34.8851C49.7909 33.5201 49.3376 32.2308 49.1865 30.7899C49.1865 30.6382 49.1109 30.5624 49.1109 30.4107C49.0354 29.6523 48.6576 29.1215 47.9776 28.8181C47.6754 28.6664 47.3731 28.4389 47.0709 28.2114C46.8443 27.9839 46.542 27.6805 46.3909 27.3772C46.0887 26.8463 46.0887 26.3155 46.542 25.7846C46.9198 25.3296 47.2976 24.8745 47.6754 24.4195C48.2798 23.6611 48.7331 22.7511 48.9598 21.7652C49.1865 20.6276 49.0354 19.4901 48.7331 18.4283C48.5065 17.7458 48.2798 17.1391 47.9776 16.4566C47.902 16.3049 47.8265 16.0774 47.8265 15.9257C47.6754 15.2432 47.6754 14.5606 48.0531 13.8781C48.7331 12.5888 49.1109 11.2238 49.3376 9.85867C49.6398 7.73521 49.3376 5.76343 48.4309 3.86749C47.222 1.13733 44.5776 -0.379423 41.5554 -0.15191C39.9687 -0.000234693 38.5331 0.606467 37.3243 1.51652C36.7954 1.89571 36.342 2.42657 36.1909 3.10911C36.1909 3.18495 36.1909 3.33663 36.1909 3.41246C36.342 3.79165 36.5687 3.71581 36.7954 3.79165C36.9465 3.86749 37.0976 3.86749 37.2487 3.86749C37.9287 3.79165 38.6087 3.79165 39.3643 3.79165C39.8931 3.79165 40.4976 3.71581 41.0265 3.71581C43.8976 3.71581 46.0887 6.2943 45.7109 9.17613C45.5598 10.3137 45.0309 11.3754 44.4265 12.3613C44.1998 12.7405 43.8976 12.968 43.4443 12.968C43.0665 12.968 42.6887 13.0439 42.3865 13.0439C40.3465 12.8922 38.3065 13.1955 36.342 13.6506C34.3776 14.1056 32.4131 14.7881 30.4487 15.3948C29.0887 15.8499 27.6531 16.229 26.2176 16.3049C25.7643 16.3049 25.3865 16.3049 24.9331 16.3049C24.0265 16.3049 23.1198 16.3049 22.2887 16.6841C21.3065 17.1391 20.3243 17.0633 19.342 16.6841C19.1154 16.6082 18.8887 16.4566 18.662 16.3807C17.7554 15.9257 16.8487 15.4707 15.7909 15.319C15.6398 15.319 15.5643 15.2432 15.4131 15.1673C16.0176 14.7123 16.5465 14.3331 16.8487 13.5747C16.6976 13.4989 16.622 13.3472 16.4709 13.3472C15.942 13.1197 15.4131 12.8922 15.0354 12.513C15.262 11.8305 15.4131 11.2238 15.6398 10.617C15.7154 10.4654 15.7154 10.3137 15.7154 10.162C15.7154 9.85867 15.5643 9.63116 15.3376 9.78283C14.5065 10.0862 13.5998 10.0862 12.6931 10.2379C12.0131 10.3137 11.3331 10.617 10.8043 10.9962C10.4265 11.2238 10.1243 11.5271 9.74647 11.7546C9.14203 12.2096 8.53759 12.513 7.78203 12.513C7.55536 12.513 7.3287 12.5888 7.10203 12.513C5.74203 12.513 4.6087 13.1197 3.70203 14.1056C3.02203 14.7881 2.5687 15.6223 2.26647 16.5324C2.03981 17.1391 2.03981 17.67 2.26647 18.2767C2.34203 18.4283 2.34203 18.58 2.41759 18.8075C1.81314 19.3384 1.13314 19.7934 0.302029 20.0968C-0.0757484 20.0209 -0.000192832 20.2484 0.0753627 20.476C0.679807 21.841 1.58647 22.9028 3.17314 23.1303C3.39981 23.1303 3.55092 23.2061 3.77759 23.2061C4.38203 23.1303 4.98647 23.0544 5.51536 23.3578C5.74203 23.4336 5.9687 23.282 6.19536 23.2061C6.79981 23.0544 7.02647 23.1303 7.3287 23.6611C7.55536 23.9645 7.70647 24.3437 7.93314 24.7229C8.23536 25.4054 8.6887 25.9363 9.21758 26.4671C9.59536 26.7705 9.89758 27.0738 10.1998 27.3772C10.8043 27.9839 11.2576 28.6664 11.6354 29.4248C11.862 29.8798 11.862 30.3349 11.7109 30.7899C11.6354 30.9416 11.6354 31.0174 11.5598 31.1691C10.9554 32.6858 11.1065 32.4583 9.89758 32.9133C9.59536 33.065 9.21758 33.2167 8.91536 33.3684C8.08425 33.7476 7.3287 34.2784 6.79981 35.1126C6.34647 35.7193 5.81759 36.326 5.21314 36.7052C4.45759 37.1603 4.00425 37.9186 3.39981 38.7528Z" fill="#1F3773"/>
</g>
<defs>
<clipPath id="clip0_123_6">
<rect width="51" height="43" fill="white"/>
</clipPath>
</defs>
</svg>
