<svg width="65" height="51" viewBox="0 0 65 51" fill="none" xmlns="http://www.w3.org/2000/svg">
<g clip-path="url(#clip0_123_12)">
<path d="M63.3534 1.73694C62.9614 1.10536 62.2557 0.552729 62.2557 0.552729C61.7069 0.0790444 61.3148 9.70261e-05 61.158 9.70261e-05C61.0012 9.70261e-05 60.4523 -0.0788503 60.0603 0.315887C59.9035 0.473781 59.8251 0.710623 59.8251 0.789571C59.7467 1.26326 59.9035 1.73694 60.1387 2.13168C60.5308 2.92115 60.8444 3.47378 60.9228 3.71062C61.3148 4.42115 61.4716 5.05273 61.6285 5.68431C61.8637 6.47378 62.0989 7.57904 62.0205 9.0001C61.9421 10.1843 61.7069 11.0527 61.3932 12.0001C61.0796 12.8685 60.4524 14.6843 59.041 16.658C58.8058 16.9738 57.1592 19.2633 54.2581 21.0001C53.082 21.7896 52.0627 22.1843 51.6707 22.2633C51.2002 22.4212 50.4946 22.7369 49.5537 22.8948C48.7696 23.0527 48.0639 23.0527 47.6719 23.1317C47.2014 23.2106 46.8094 23.2106 46.339 23.1317C45.7901 23.0527 45.3197 22.9738 44.8492 22.7369C44.5356 22.658 44.222 22.5001 43.8299 22.4212C43.2027 22.2633 42.497 22.0264 41.8697 21.8685C41.2425 21.7106 40.6152 21.5527 40.0663 21.3948C39.2823 21.158 38.4198 20.9212 37.5573 20.6843C36.93 20.5264 36.3028 20.3685 35.6755 20.2896C34.8914 20.2106 34.1858 20.1317 33.4017 20.1317C32.6176 20.1317 31.9119 20.1317 31.1279 20.2106C30.187 20.2896 29.1677 20.5264 28.3052 20.9212C26.8938 21.5527 25.5609 22.3422 24.228 23.2896C23.9144 23.5264 23.6791 23.7633 23.3655 23.9212C22.9735 24.158 22.6598 24.3948 22.2678 24.6317C21.7973 24.8685 21.3269 25.0264 20.778 25.0264C20.2292 25.1054 19.7587 25.1054 19.2883 25.1843C18.4258 25.4212 17.6417 25.7369 16.8577 26.2896C16.3088 26.6843 15.8384 27.079 15.2895 27.5527C15.1327 27.7106 14.8975 27.9475 14.7407 28.1054C14.1918 28.579 13.6429 28.8948 12.9373 29.1317C12.5452 29.2896 12.1532 29.4475 11.7612 29.6054C11.3691 29.7633 10.9771 29.9212 10.585 30.079C10.0362 30.3159 9.48733 30.5527 8.93848 30.7896C8.23281 31.1054 7.52714 31.4212 6.82147 31.579C6.58625 31.658 6.42943 31.658 6.27262 31.8159C6.03739 31.8948 5.88058 31.9738 5.64536 31.9738C5.48854 31.9738 5.33172 31.9738 5.17491 32.0527C4.93969 32.1317 4.78287 32.2106 4.54765 32.2896C4.31242 32.3685 4.0772 32.5264 3.84198 32.6054C3.21472 32.8422 2.58745 33.158 1.88179 33.3159C1.72497 33.3948 1.56815 33.3948 1.41134 33.4738C1.33293 33.4738 1.33293 33.5527 1.25452 33.5527C1.0193 33.7896 1.0193 34.0264 1.17612 34.2633C1.25452 34.3422 1.33293 34.4212 1.41134 34.5001C1.56815 34.579 1.72497 34.658 1.88179 34.7369C2.35223 34.8948 2.90109 35.0527 3.37153 35.2106C3.60676 35.2896 3.84198 35.2896 3.99879 35.4475C4.15561 35.5264 4.15561 35.6054 4.0772 35.7633C4.0772 35.9212 4.0772 36.079 4.23402 36.158C4.31242 36.2369 4.46924 36.158 4.54765 36.3159C4.62606 36.3948 4.62606 36.5527 4.62606 36.6317C4.62606 36.7106 4.70446 36.7896 4.70446 36.9475C4.86128 37.579 5.01809 38.2896 5.33173 38.9212C5.64536 39.5527 6.03739 39.9475 6.58625 40.2633C6.74306 40.3422 6.82147 40.4212 6.97829 40.4212C7.1351 40.5001 7.29192 40.658 7.37033 40.8948C7.44873 41.0527 7.44873 41.2896 7.52714 41.4475C7.60555 41.6054 7.60555 41.7633 7.76236 41.9212C7.44873 42.158 7.29192 42.3948 7.05669 42.7106C6.97829 42.8685 6.89988 43.1054 6.82147 43.2633C6.89988 43.1054 6.97829 42.8685 7.05669 42.7106C7.21351 42.3948 7.44873 42.158 7.76236 42.0001L7.84077 42.079C7.60555 42.3159 7.52714 42.5527 7.37033 42.8685C7.29192 43.0264 7.29192 43.1843 7.29192 43.3422C7.29192 43.1843 7.37033 42.9475 7.37033 42.8685C7.44873 42.5527 7.60555 42.3159 7.84077 42.079C8.1544 42.2369 8.38963 42.2369 8.70326 42.158C8.70326 42.158 8.78166 42.158 8.86007 42.158C9.01689 42.2369 9.25211 42.3159 9.40893 42.3159C9.48733 42.3159 9.64415 42.2369 9.64415 42.3159C9.64415 42.3948 9.56574 42.3948 9.48733 42.4738C9.0953 42.7896 8.62485 43.1054 8.23281 43.4212C7.44873 44.1317 6.66466 44.8422 5.88058 45.5527C5.0965 46.3422 4.31242 47.0527 3.44994 47.6843C3.29312 47.7633 3.21472 47.8422 3.0579 47.9212C3.37153 48.079 3.21472 48.158 2.90109 48.158C2.58745 48.158 2.27382 48.158 1.96019 48.2369C1.25452 48.3159 0.784077 48.6317 0.313631 49.1054C0.235223 49.1843 0.156815 49.3422 0.0784077 49.4212C0 49.658 0 49.8159 0 50.0527C0 50.2106 0.0784077 50.3685 0.156815 50.4475C0.392039 50.6054 0.548854 50.6843 0.862485 50.7633C0.862485 50.7633 0.862485 50.7633 0.940893 50.6843C0.940893 50.6054 1.09771 50.6843 1.09771 50.6843C1.25452 50.8422 1.41134 50.9212 1.56815 50.9212C2.0386 50.9212 2.50905 50.9212 2.90109 50.9212C3.13631 50.9212 3.29312 50.9212 3.44994 50.7633C3.76357 50.6054 4.15561 50.4475 4.46924 50.3685C5.0965 50.1317 5.72376 49.8948 6.35103 49.5001C7.29192 48.8685 8.1544 48.158 9.0953 47.4475C9.33052 47.2896 9.56574 47.0527 9.80096 46.8948C10.2714 46.5001 10.8203 46.1843 11.2123 45.7896L11.2907 45.7106C11.2907 45.7106 11.3691 45.7106 11.3691 45.6317C11.4475 45.5527 11.6043 45.4738 11.6827 45.3948C12.5452 44.6843 13.3293 44.0527 14.2702 43.4212C14.8191 43.0264 15.2895 42.6317 15.8384 42.2369C16.7008 41.5264 17.6417 40.8159 18.5826 40.1843C18.8179 40.0264 19.0531 39.9475 19.2883 39.8685C19.6803 39.7896 19.994 39.7106 20.386 39.7106C20.5428 39.7106 20.778 39.7106 20.9349 39.7106C21.0133 39.7106 21.0917 39.7896 21.1701 39.8685C21.3269 40.2633 21.4053 40.579 21.4053 40.9738C21.4053 41.2896 21.3269 41.6054 21.2485 41.8422C21.1701 42.5527 21.0133 43.3422 20.778 44.0527C20.5428 44.6054 20.3076 45.158 19.994 45.7106C19.9156 45.8685 19.7587 45.9475 19.6019 46.0264C19.4451 46.1054 19.2099 46.1843 19.0531 46.2633C18.7394 46.4212 18.4258 46.658 18.1906 46.9738C18.0338 47.1317 17.9554 47.3685 17.9554 47.6054C17.9554 47.7633 17.9554 47.9212 18.0338 48.079C18.1122 48.4738 18.4258 48.6317 18.7394 48.7106C18.9747 48.9475 19.1315 49.0264 19.5235 49.1054C19.6803 49.1054 20.0724 49.1054 20.3076 49.1054C20.6212 49.2633 20.8565 49.3422 21.1701 49.3422C21.7189 49.3422 22.111 49.1843 22.503 48.7896C22.5814 48.7106 22.6598 48.6317 22.7382 48.5527C23.1303 48.079 23.4439 47.5264 23.6791 46.9738C24.0712 45.9475 24.4632 44.9212 24.8552 43.8948C25.0905 43.2633 25.3257 42.6317 25.5609 42.0001C25.953 41.0527 26.2666 40.1054 26.5802 39.079C26.6586 38.8422 26.6586 38.6843 26.8938 38.5264C26.8938 38.3685 27.0507 38.2896 27.2075 38.2106C28.3836 37.658 29.4813 37.1054 30.579 36.5527C31.2063 36.2369 31.8335 35.9212 32.4608 35.6054C32.7744 35.4475 33.0096 35.3685 33.3233 35.3685C33.7153 35.3685 34.1074 35.2896 34.4994 35.2896C34.813 35.2896 35.0482 35.3685 35.3619 35.4475C35.6755 35.5264 36.0676 35.6843 36.3812 35.7633C37.0084 35.9212 37.5573 36.079 38.1846 36.158C39.2039 36.3159 40.1448 36.4738 41.1641 36.5527C41.2425 36.5527 41.3209 36.5527 41.3209 36.5527H41.3993C41.4777 36.5527 41.5561 36.6317 41.4777 36.7106C41.4777 36.7896 41.3993 36.9475 41.3209 36.9475C41.2425 37.0264 41.1641 37.1054 41.0856 37.1054C40.4584 37.4212 39.9095 37.7369 39.2039 37.9738C38.655 38.1317 38.1062 38.2896 37.5573 38.3685C37.1653 38.4475 36.7732 38.5264 36.4596 38.6843C36.2244 38.7633 36.0676 38.9212 35.9107 39.079C35.7539 39.3159 35.5971 39.4738 35.5971 39.7896C35.5971 40.4212 35.8323 40.7369 36.3812 40.9738C36.6948 41.0527 37.0084 41.0527 37.3221 41.0527C38.0277 41.0527 38.655 41.0527 39.3607 41.1317C39.5959 41.1317 39.7527 41.2106 39.9879 41.1317C40.0663 41.1317 40.1448 41.1317 40.1448 41.1317C40.6152 41.2106 40.9288 41.2106 41.3209 40.9738C41.5561 40.8159 41.7129 40.658 41.9481 40.579C42.497 40.1843 42.9674 39.7896 43.4379 39.3159C43.8299 38.9212 44.3788 38.6054 44.8492 38.4475C45.006 38.3685 45.2413 38.2896 45.3981 38.2106C45.8685 37.8948 46.1821 37.579 46.1821 36.9475C46.1821 36.5527 46.1821 36.2369 46.1037 35.8422C46.1037 35.6054 46.0253 35.4475 46.1037 35.2106C46.1821 34.8159 46.339 34.5001 46.5742 34.2633C46.6526 34.1054 46.8094 34.0264 46.9662 33.9475C47.0446 33.8685 47.2014 33.8685 47.2799 33.7896C47.9071 33.3159 48.3776 32.7633 48.6128 31.9738C48.6912 31.579 48.7696 31.1843 48.848 30.7896C49.0048 29.8422 48.848 28.9738 48.6128 28.1054C48.5344 27.9475 48.456 27.7896 48.5344 27.7106C48.6128 27.5527 48.7696 27.6317 48.9264 27.5527C50.2593 27.158 51.5923 26.8422 52.8468 26.3685C54.415 25.8159 55.7479 25.1054 57.1592 24.079C59.9819 22.1054 61.6285 19.8159 61.8637 19.4212C64.2943 15.9475 64.6864 12.5527 64.9216 10.8948C64.9216 10.9738 65.5489 5.28957 63.3534 1.73694Z" fill="#1F3773"/>
</g>
<defs>
<clipPath id="clip0_123_12">
<rect width="65" height="51" fill="white"/>
</clipPath>
</defs>
</svg>
