<svg width="60" height="59" viewBox="0 0 60 59" fill="none" xmlns="http://www.w3.org/2000/svg">
<path d="M59.6681 48.2348C59.6681 47.9844 59.5853 47.7341 59.5853 47.4003C59.5853 47.3168 59.5853 47.3168 59.5853 47.2334V47.1499C59.5853 46.5658 59.5024 46.0651 59.2538 45.5644C58.2593 43.1443 58.0107 40.8076 57.9278 38.2206C57.9278 36.8854 57.5963 35.4668 57.3477 34.1315C57.3477 33.8812 57.2648 33.7143 57.1819 33.4639C57.0991 32.7129 57.0991 31.7949 57.0162 31.0438C56.9333 29.8755 56.9333 28.7907 56.8505 27.7058C56.7676 26.454 56.8505 25.2857 56.7676 24.1174C56.6847 23.0325 56.519 21.9477 56.3532 20.8628C56.1875 20.0283 56.1875 19.1938 56.1046 18.2758C56.6018 17.6082 57.5963 16.5233 57.9278 15.8557C59.1709 13.1018 60.0825 10.7652 59.8339 7.67751C59.751 6.09194 58.9223 4.33946 57.9278 3.00424C57.3477 2.25318 56.519 1.75248 55.7731 1.25177C55.0273 0.751061 54.1157 0.417256 53.2869 0.166902C53.3698 0.333805 53.3698 0.500707 53.3698 0.66761C53.1212 0.333805 52.2924 0 51.2151 0C50.8007 0 50.3864 0.0834512 50.0549 0.0834512C50.1378 0.0834512 50.2206 0.166902 50.2206 0.166902C50.3035 0.166902 50.3035 0.250354 50.3864 0.250354C49.8063 0.250354 49.309 0.250354 48.9775 0.250354C48.5632 0.250354 48.3145 0.333805 48.1488 0.333805C47.9002 0.417256 47.7344 0.417256 47.6516 0.500707C47.7344 0.500707 47.7344 0.584158 47.8173 0.66761C47.8173 0.751061 47.6516 0.917963 47.4029 1.00141C47.0715 1.16832 46.9057 1.33522 46.5742 1.41867C46.74 1.58557 46.9057 1.66902 47.0714 1.66902C46.5742 2.08628 46.077 2.50354 45.4969 2.67044C45.7455 2.75389 45.9941 2.75389 46.2427 2.67044C45.9112 3.00424 45.6626 3.33805 45.414 3.7553C45.2482 4.00566 45.0825 4.25601 44.9168 4.42291C46.4085 3.7553 47.6516 3.08769 49.2262 2.92079C50.9665 2.92079 52.0438 3.08769 53.867 4.17256C57.2648 6.09194 57.5963 10.4314 55.193 13.1853C54.1985 14.3536 52.9554 15.1881 51.6295 16.0226C49.8063 15.6888 47.6516 15.6888 45.9112 15.8557C43.7565 16.0226 41.7676 16.273 39.7786 16.6068C37.7897 16.9406 36.1322 17.5248 34.2261 17.942C32.4858 18.3593 30.7455 18.5262 28.9223 18.86C27.9278 19.0269 26.9333 19.2772 25.9389 19.5276C24.7786 19.4441 23.6184 19.1938 22.5411 19.611C19.8063 20.6124 18.4803 22.9491 17.0715 25.2857C16.5742 26.0368 16.2427 26.8713 15.7455 27.6223C15.414 28.0396 15.1654 28.4569 14.9168 28.9576C14.4195 29.7921 13.7565 30.5431 13.0107 31.1273C12.6792 31.4611 12.2648 31.7115 12.0162 32.0453C11.6847 32.4625 11.3532 32.8798 11.0217 33.2136C10.4416 33.9646 9.86151 34.7157 9.36427 35.4668C9.03278 35.884 8.78416 36.3013 8.53554 36.802C8.3698 37.0523 8.28692 37.3861 8.12118 37.6365C7.70681 37.553 7.29245 37.553 6.87808 37.553C6.29797 37.553 5.71786 37.7199 5.05488 37.553C3.97753 37.3027 3.1488 36.4682 1.98858 36.3013C1.24272 36.2178 -0.248988 36.4682 0.0825033 37.553C0.331122 38.5545 1.73996 38.8883 2.48582 39.4724C3.23167 40.14 3.81178 40.7242 4.64051 41.3083C4.64051 41.4753 4.55764 41.6422 4.55764 41.7256C4.55764 42.0594 4.3919 42.3098 4.3919 42.6436C4.30902 43.2277 4.3919 43.8119 4.47477 44.396C4.55764 44.9802 4.55764 45.5644 4.47477 46.1485C4.3919 46.4823 4.30902 46.7327 4.3919 47.0665C4.47477 47.3168 4.64051 47.5672 4.80626 47.7341C5.05488 48.0679 5.38637 48.4017 5.63499 48.6521C5.38637 50.1542 5.22062 51.4059 4.72339 52.9081C4.30902 54.2433 3.48029 55.5785 4.88913 56.7468C5.38637 57.1641 5.88361 56.9137 6.38085 56.7468C7.04383 56.8303 7.70681 57.0806 8.3698 56.8303C8.94991 56.6634 9.61289 56.2461 10.0273 55.8289C10.6074 55.3282 10.7731 54.5771 11.1046 53.9929C11.519 53.3253 11.7676 52.5743 12.182 51.9067C12.4306 51.5728 12.7621 51.3225 12.7621 50.9052C12.7621 50.7383 12.6792 50.5714 12.5963 50.4045C13.3422 49.57 14.3366 49.2362 15.0825 48.4017C15.9941 47.4837 16.5742 46.3989 16.9057 45.2306C17.0715 44.7298 16.8228 44.396 16.74 43.8953C16.9057 43.7284 17.1543 43.5615 17.3201 43.4781C17.7344 43.2277 18.0659 42.8939 18.4803 42.727C19.3919 42.3098 20.3035 42.1429 21.298 41.8925C21.3808 41.8925 21.5466 41.8091 21.6295 41.8091C21.7123 42.2263 21.8781 42.727 22.0438 43.0608C22.2096 43.645 22.3753 44.0622 22.3753 44.6464C22.4582 45.7313 22.4582 46.8161 22.5411 47.901C22.5411 48.3182 22.6239 48.7355 22.7068 49.0693C22.5411 49.4031 22.3753 49.7369 22.2096 50.0707C21.8781 50.6549 21.5466 51.239 21.1322 51.8232C20.8007 52.3239 20.4692 52.9081 19.972 53.3253C19.0604 54.2433 18.0659 54.9109 16.9057 55.3282C16.4913 55.3282 16.077 55.2447 15.6626 55.4116C15.1654 55.662 14.8339 56.0792 14.5024 56.4965C14.3366 56.6634 14.3366 56.9137 14.2538 57.1641C14.088 57.331 13.6737 57.5813 13.9223 57.8317C14.088 57.9986 14.5024 57.8317 14.751 57.7482C14.751 57.9986 14.6681 58.1655 14.9996 58.2489C15.1654 58.2489 15.414 58.082 15.5797 57.9986C15.9112 58.082 16.2427 58.2489 16.5742 58.2489C16.5742 58.4993 16.5742 58.6662 16.9057 58.6662C17.0715 58.6662 17.3201 58.4993 17.4858 58.4158C18.2317 58.4993 18.7289 58.4993 19.3919 58.1655C19.7234 57.9986 20.0549 57.9151 20.3035 57.6648C20.5521 57.4144 20.635 57.0806 20.8836 56.7468C20.9665 56.5799 21.1322 56.4965 21.2151 56.3296C21.7952 56.5799 22.2096 56.0792 22.5411 55.662C22.6239 55.495 22.7068 55.4116 22.7897 55.3282C23.0383 55.2447 23.2869 55.3281 23.5355 55.2447C24.1157 54.9943 24.3643 55.2447 24.6129 54.4102C24.8615 53.826 25.0273 52.5743 25.3587 51.9067C25.6902 51.3225 26.0217 50.9052 26.4361 50.3211C26.6847 49.9873 26.9333 49.6535 27.0991 49.3197C27.4306 48.9024 27.8449 48.5686 28.1764 48.1513C28.8394 47.4003 29.3366 46.6492 29.9168 45.8982C30.4969 45.0637 30.9112 44.396 31.6571 43.645C32.3201 42.9774 33.0659 42.5601 33.3974 41.5587C33.5632 40.9745 33.9775 40.0566 34.0604 39.389C34.4748 39.1386 34.7234 39.1386 35.1378 38.8883C35.635 38.6379 36.0494 38.471 36.6295 37.9703C37.7897 37.0523 39.0328 35.8006 40.3587 34.7992C40.6902 34.5488 41.3532 34.215 41.7676 33.9646C42.0162 33.7977 42.2648 33.7143 42.5134 33.5474C42.5134 33.5474 42.5134 33.5474 42.5134 33.6308C42.5963 34.0481 42.7621 34.3819 42.9278 34.7992C43.2593 35.5502 43.5908 36.3847 43.9223 37.1358C44.5853 38.6379 45.2482 40.14 46.077 41.5587C46.4085 42.0594 46.74 42.5601 46.9886 43.1443C46.9886 43.3112 47.0714 43.4781 47.0714 43.7284C47.2372 45.0637 47.3201 46.3989 47.2372 47.7341C47.2372 48.4017 47.1543 48.9859 47.1543 49.6535C47.1543 49.9873 47.1543 50.2376 47.0714 50.5714C46.9886 50.8218 46.8228 50.9887 46.74 51.239C46.5742 51.4059 46.2427 51.6563 46.077 51.8232C45.5797 52.4074 45.414 52.9081 45.2482 53.6591C45.1654 53.9095 45.1654 54.2433 45.1654 54.4936C45.0825 54.744 44.9996 55.3282 45.414 55.3282C45.5797 55.3282 45.6626 54.9943 45.8284 54.9109L45.9112 54.8274C45.9112 55.0778 45.9112 55.4951 46.2427 55.4951C46.4085 55.4951 46.5742 55.2447 46.5742 55.0778C46.9057 55.0778 47.2372 55.0778 47.5687 54.9109C47.6516 55.1613 47.6516 55.4116 47.9002 55.1612C47.9831 55.0778 48.0659 54.9109 48.1488 54.8274C48.4803 54.744 48.7289 54.744 48.9775 54.4102C49.2261 54.0764 49.2261 53.7426 49.309 53.3253C49.3919 52.5743 49.5576 51.7397 49.5576 50.9887C49.5576 50.7383 49.4748 50.4045 49.3919 50.1542C49.8063 49.57 49.7234 49.0693 49.7234 48.4017C49.7234 47.6506 49.7234 46.8996 49.7234 46.1485C49.7234 45.3975 49.972 44.5629 50.2206 43.8119C50.4692 42.9774 50.3035 42.3932 49.972 41.5587C49.8891 41.3083 49.7234 41.058 49.5576 40.8076C49.3919 40.2235 49.2261 39.7228 49.1433 39.1386C49.0604 38.3876 49.0604 37.6365 49.1433 36.8854C49.2261 36.2178 49.3919 35.4668 49.4748 34.7992C49.5576 34.1315 49.7234 33.4639 49.8891 32.8798C49.972 32.4625 50.0549 32.1287 50.2206 31.7949C50.5521 32.4625 50.8007 33.1301 50.9665 33.7977C51.298 34.8826 51.7123 35.884 52.2096 36.8854C53.204 39.0552 53.9499 41.3918 55.0273 43.4781C55.2759 43.9788 55.6074 44.396 55.856 44.8967C56.0217 45.1471 56.1046 45.314 56.2703 45.5644C56.2703 45.5644 56.2703 45.3975 56.2703 45.6478C56.2703 45.8982 56.4361 46.3154 56.4361 46.6492C56.519 47.4003 56.4361 48.1513 56.3532 48.9859C56.2703 49.7369 56.2703 50.5714 56.1875 51.3225C56.1046 52.0736 55.9389 52.8246 55.856 53.5757C55.7731 54.1598 55.5245 54.744 55.3587 55.2447C55.0273 55.4116 54.6129 55.5785 54.4471 55.9958C54.2814 56.3296 54.3643 56.6634 54.2814 56.9137C54.1985 57.2475 54.1157 57.4144 54.1157 57.7482C54.2814 57.7482 54.4471 57.7482 54.6129 57.6648C54.6129 57.8317 54.6129 58.082 54.8615 58.1655C55.0272 58.2489 55.193 57.9986 55.3587 57.9151C55.6902 58.082 56.1046 58.1655 56.4361 58.082C56.6018 58.5827 56.9333 58.2489 57.2648 57.9986C57.5963 58.082 58.0107 58.1655 58.2593 57.8317C58.5079 57.4979 58.5079 56.9972 58.5908 56.6634C58.7565 56.2461 59.0051 55.9123 59.0051 55.4116C59.0051 54.9943 59.088 54.4936 59.088 54.0764C59.088 53.7426 59.0052 53.4088 58.9223 53.075C59.0052 52.7412 59.088 52.4908 59.1709 52.157C59.2538 51.7397 59.3366 51.239 59.4195 50.8218C59.5853 50.0707 59.6681 49.1528 59.6681 48.2348ZM26.2703 43.3112C26.3532 42.6436 26.519 41.976 26.6018 41.3083C26.9333 41.2249 27.2648 41.1414 27.5963 41.058C26.9333 41.7256 26.6018 42.4767 26.2703 43.3112Z" fill="#1F3773"/>
</svg>
