<svg width="92" height="92" viewBox="0 0 92 92" fill="none" xmlns="http://www.w3.org/2000/svg">
<circle opacity="0.2" cx="46" cy="46" r="45.5" stroke="#1F3773"/>
<g clip-path="url(#clip0_214_68)">
<path d="M46.7116 56.6269C46.7116 56.474 46.8631 56.474 46.7116 56.6269C46.5602 56.6269 46.5602 56.6269 46.7116 56.6269ZM71.0916 34.6085C70.7888 35.0673 70.6374 35.0673 70.0316 34.9143C70.0316 35.2202 69.8802 35.3731 69.8802 35.6789C69.7288 36.4434 69.4259 36.7492 68.6688 36.5963V36.7492C68.6688 37.3608 68.5174 37.8195 68.0631 38.1254C68.0631 38.1254 68.0631 38.2783 67.9116 38.2783C67.6088 38.5841 67.4574 38.8899 66.8516 38.737C66.8516 39.1957 66.7002 39.6544 66.3973 39.9602C66.0945 40.1131 65.9431 40.4189 65.6402 40.7247C65.3373 41.0306 65.0345 41.1835 64.5802 41.0306C64.7316 41.7951 64.1259 42.2538 63.6716 42.7125C63.3688 43.0183 63.0659 43.3241 62.6116 43.0183C62.6116 43.1712 62.6116 43.3241 62.6116 43.3241C62.6116 43.6299 62.4602 43.9358 62.1573 44.2416C61.8545 44.5474 61.5516 44.7003 61.4002 45.0061C61.0974 45.3119 60.7945 45.6177 60.3402 45.3119C60.4916 45.9235 60.1888 46.2293 59.7345 46.5351C59.2802 46.841 58.9773 47.2997 58.5231 47.6055C58.0688 48.0642 57.9174 48.0642 57.4631 47.6055C57.4631 47.7584 57.4631 47.7584 57.4631 47.9113C57.4631 48.37 57.3116 48.6758 57.0088 48.8287C56.7059 48.9816 56.4031 49.2874 56.1002 49.4403C56.2516 49.5932 56.2516 49.7462 56.1002 49.8991C56.1002 49.8991 55.4945 50.6636 54.5859 50.3578C54.5859 50.6636 54.4345 51.1223 54.1316 51.4281C53.8288 52.0397 53.2231 52.6514 52.7688 53.1101C52.4659 53.263 52.3145 53.4159 52.0116 53.5688C51.8602 53.5688 51.7088 53.5688 51.5574 53.5688C51.4059 54.0275 51.2545 54.6391 50.9516 54.9449L50.8002 55.2507C50.1945 55.8624 49.1345 57.2385 48.2259 57.5443C47.7716 57.6972 47.3174 57.8501 47.0145 57.5443C47.0145 58.3088 46.7116 59.0734 46.2573 59.685L43.9859 62.1315C43.8345 62.2844 43.5316 62.2844 43.2288 62.1315C43.0774 61.9786 43.0774 61.6728 43.2288 61.3669L45.5002 58.9205C46.1059 58.3088 46.1059 57.0856 45.9545 56.474C45.9545 56.0153 45.9545 55.7095 46.2573 55.5565C46.7116 55.4036 46.8631 55.7095 47.1659 56.3211C47.3174 56.6269 47.4688 56.6269 47.7716 56.474C48.5288 56.1682 49.4373 54.9449 49.8916 54.3333L50.0431 54.1804C50.3459 53.7217 50.4973 52.8043 50.4973 52.3455C50.4973 51.8868 50.4973 51.7339 50.8002 51.581H50.9516C51.4059 51.4281 51.5574 51.7339 51.7088 52.3455V52.4984C51.8602 52.4984 51.8602 52.3455 52.0116 52.3455C52.4659 52.0397 52.9202 51.4281 53.2231 50.9694C53.6773 50.2049 53.5259 49.5932 53.3745 49.4403C53.2231 49.2874 53.2231 48.9816 53.5259 48.8287C53.6773 48.6758 54.1316 48.6758 54.2831 48.8287C54.8888 49.5932 55.0402 49.4403 55.0402 49.4403C55.1916 49.1345 55.4945 49.1345 55.7973 49.2874L56.1002 48.6758C56.8573 47.1468 57.4631 45.6177 58.3716 44.0887C60.3402 40.5718 62.4602 37.2079 64.8831 33.9969C65.1859 33.5382 65.4888 33.2324 65.7916 32.7737C65.7916 32.7737 65.7916 32.7737 65.6402 32.7737C65.3373 32.9266 65.0345 33.2324 64.7316 33.3853C64.2774 33.6911 64.1259 33.6911 63.8231 33.2324C63.6716 33.5382 63.6716 33.844 63.5202 34.1498C63.5202 34.3027 63.3688 34.3027 63.3688 34.4556C63.0659 34.6085 62.7631 34.9143 62.6116 35.0673C62.3088 35.2202 62.1573 35.0673 62.0059 34.7614C62.0059 34.6085 62.0059 34.6085 61.8545 34.3027C61.5516 34.6085 61.4002 34.9143 61.4002 35.2202C61.2488 35.8318 60.7945 36.2905 60.1888 36.5963C59.8859 36.7492 59.5831 36.7492 59.5831 36.2905C59.5831 36.1376 59.5831 36.1376 59.4316 35.9847C59.2802 36.2905 59.2802 36.4434 59.1288 36.5963C58.8259 37.2079 58.6745 37.8195 57.9174 38.1254C57.6145 38.2783 57.3116 38.2783 57.1602 37.9725C57.0088 37.8195 57.0088 37.6666 56.8573 37.3608C56.7059 37.8195 56.5545 38.1254 56.5545 38.4312C56.5545 39.0428 56.1002 39.5015 55.6459 39.8073C55.3431 39.9602 55.0402 39.9602 54.8888 39.6544C54.7374 39.5015 54.7374 39.3486 54.5859 39.1957C54.4345 39.6544 54.4345 40.1131 54.2831 40.5718C54.2831 40.7247 54.1316 40.8777 54.1316 40.8777C53.8288 41.1835 53.3745 41.4893 53.0716 41.7951C52.7688 41.948 52.6174 41.948 52.4659 41.6422C52.4659 41.4893 52.3145 41.4893 52.1631 41.1835C52.1631 41.4893 52.0116 41.7951 52.0116 41.948C52.0116 42.5596 51.7088 43.0183 51.2545 43.3241C50.9516 43.477 50.8002 43.6299 50.4973 43.3241C50.3459 43.1712 50.0431 43.0183 49.7402 42.7125C49.8916 43.1712 49.8916 43.477 49.8916 43.9358C49.8916 44.2416 49.8916 44.3945 49.5888 44.7003C49.1345 45.159 48.6802 45.6177 48.0745 46.0764C47.7716 46.3822 47.6202 46.3822 47.1659 46.2293L46.8631 46.0764C46.8631 45.7706 47.0145 45.6177 47.3174 45.4648C47.6202 45.3119 47.7716 45.159 48.0745 45.0061C47.9231 45.0061 47.7716 45.0061 47.6202 45.0061C47.1659 45.0061 47.0145 44.7003 47.1659 44.3945C47.1659 43.7829 47.3173 43.3241 47.4688 42.7125C47.4688 42.4067 47.6202 42.2538 47.7716 42.1009C48.0745 41.7951 48.2259 41.6422 48.5288 41.3364C47.7716 41.3364 47.7716 41.1835 47.7716 40.5718C47.7716 40.1131 47.9231 39.6544 47.9231 39.1957C47.9231 39.0428 48.0745 38.737 48.2259 38.5841C48.3773 38.4312 48.5288 38.1254 48.8316 37.9725C48.5288 37.9725 48.2259 37.8195 48.2259 37.5137C48.3773 36.7492 48.2259 35.8318 48.9831 35.2202C48.9831 35.2202 48.9831 35.2202 48.9831 35.0673C48.6802 34.9143 48.5288 34.6085 48.6802 34.3027C49.1345 33.5382 49.2859 33.2324 49.2859 32.7737C49.2859 32.315 49.2859 32.0092 49.7402 31.7033C49.2859 31.2446 49.5888 30.7859 49.5888 30.1743C49.5888 29.7156 49.7402 29.2569 50.1945 28.7981C49.7402 28.4923 49.8916 28.0336 49.8916 27.7278C49.8916 27.2691 50.3459 27.1162 50.4973 26.6575C49.8916 26.5046 50.0431 26.0458 50.1945 25.5871C49.8916 26.1988 49.8916 26.1988 49.2859 26.1988C49.2859 26.5046 49.2859 26.8104 49.2859 27.1162C49.2859 27.7278 48.8316 28.1865 48.3773 28.1865V28.3394C48.5288 28.951 48.3773 29.4098 48.0745 29.8685C48.0745 30.0214 47.9231 30.0214 47.9231 30.1743C47.7716 30.4801 47.6202 30.7859 47.1659 30.633C47.3174 31.0917 47.1659 31.3975 47.0145 31.8562C46.8631 32.1621 46.5602 32.6208 46.4088 32.9266C46.1059 33.3853 46.1059 33.3853 45.6516 33.3853C45.6516 33.5382 45.6516 33.6911 45.6516 33.9969C45.6516 34.1498 45.6516 34.3027 45.6516 34.4556C45.5002 34.9143 45.1974 35.2202 45.0459 35.6789C44.8945 35.9847 44.5916 35.9847 44.2888 35.8318C44.2888 35.8318 44.2888 35.8318 44.1374 35.8318C44.1374 36.1376 44.2888 36.4434 44.2888 36.7492C44.2888 36.9021 44.2888 37.055 44.2888 37.055C43.9859 37.6666 43.6831 38.1254 43.3802 38.5841C43.2288 38.8899 42.9259 38.8899 42.6231 38.737C42.6231 38.737 42.4716 38.5841 42.3202 38.5841C42.3202 39.0428 42.4716 39.5015 42.4716 39.9602C42.4716 40.1131 42.4716 40.266 42.4716 40.266C42.3202 40.7247 42.0174 41.0306 41.8659 41.4893L41.5631 41.1835V41.0306C41.4116 39.8073 41.5631 38.4312 41.5631 37.2079C41.5631 36.9021 41.7145 36.7492 41.8659 36.5963C42.1688 36.4434 42.3202 36.1376 42.6231 35.8318C42.4716 35.8318 42.3202 35.8318 42.3202 35.8318C42.0174 35.8318 41.7145 35.6789 41.7145 35.2202C41.7145 34.7614 41.7145 34.1498 41.8659 33.5382C41.8659 33.3853 42.0174 33.2324 42.0174 33.0795C42.1688 32.9266 42.3202 32.7737 42.4716 32.6208C42.0174 32.4679 41.8659 32.315 41.8659 31.8562C41.8659 31.5504 41.8659 31.0917 42.0174 30.7859C42.0174 30.3272 42.0174 29.7156 42.6231 29.4098C42.1688 29.2569 42.1688 28.951 42.1688 28.6452C42.1688 28.3394 42.1688 27.8807 42.1688 27.5749C42.1688 27.2691 42.1688 26.9633 42.4716 26.8104C42.0174 26.3517 42.0174 25.1284 42.3202 24.6697C41.8659 24.0581 41.8659 23.4465 42.0174 22.8348C41.5631 22.3761 41.7145 21.7645 41.4116 21.3058C41.4116 21.4587 41.4116 21.4587 41.4116 21.4587C41.2602 21.9174 41.2602 22.2232 41.1088 22.6819C40.9574 22.9877 40.8059 23.1406 40.5031 22.9877H40.3516C40.5031 23.2936 40.5031 23.7523 40.6545 24.0581C40.6545 24.211 40.6545 24.3639 40.6545 24.5168C40.5031 24.8226 40.3516 25.1284 39.7459 24.9755C40.0488 25.5871 39.8974 26.1988 39.5945 26.6575C39.5945 26.6575 39.5945 26.8104 39.4431 26.8104C39.1402 27.2691 38.9888 27.422 38.5345 27.2691C38.6859 27.2691 38.6859 27.422 38.6859 27.7278C38.6859 27.8807 38.6859 28.0336 38.6859 28.0336C38.5345 28.4923 38.2316 29.104 38.0802 29.5627C37.9288 29.8685 37.7774 29.8685 37.4745 29.8685H37.3231C37.3231 30.0214 37.3231 30.0214 37.3231 30.1743C37.6259 30.7859 37.4745 31.5504 37.3231 32.1621C37.1716 32.7737 37.1716 32.9266 36.5659 32.9266C36.5659 33.0795 36.7174 33.3853 36.7174 33.5382C36.8688 33.9969 36.8688 34.3027 36.7174 34.7614C36.5659 35.0673 36.5659 35.526 36.4145 35.9847C36.2631 36.4434 36.1116 36.5963 35.6574 36.4434C35.5059 36.4434 35.3545 36.2905 35.2031 36.2905C35.5059 36.7492 35.8088 37.2079 35.9602 37.5137C36.1116 37.6666 36.1116 37.8195 35.9602 38.1254C35.8088 38.4312 35.8088 38.5841 35.6574 38.8899C35.8088 38.8899 35.8088 38.8899 35.8088 38.8899C35.9602 38.8899 35.9602 38.8899 36.1116 38.8899C36.1116 39.0428 36.1116 39.1957 36.1116 39.1957C35.9602 39.3486 35.8088 39.6544 35.8088 39.8073C35.9602 39.9602 35.9602 40.1131 35.9602 40.266C35.9602 40.266 35.8088 41.948 37.0202 41.4893C37.3231 41.3364 37.6259 41.4893 37.6259 41.7951C37.7774 42.1009 37.6259 42.2538 37.3231 42.4067C37.3231 42.4067 36.7174 42.8654 36.8688 43.7829C36.8688 44.3945 37.0202 45.159 37.1716 45.6177C37.1716 45.7706 37.3231 45.9235 37.3231 45.9235L37.4745 45.7706C37.9288 45.3119 38.2316 45.3119 38.5345 45.4648C38.8374 45.7706 38.6859 45.9235 38.5345 46.3822C38.3831 46.841 37.9288 47.6055 37.9288 48.2171V48.37C38.0802 49.1345 38.3831 50.6636 38.8374 51.2752C38.9888 51.4281 39.1402 51.581 39.4431 51.4281C40.0488 50.9694 40.3516 50.8165 40.6545 51.1223C40.9574 51.4281 40.6545 51.7339 40.5031 52.0397C40.2002 52.6514 39.5945 53.7217 39.7459 54.4862C39.7459 54.792 39.5945 55.0978 39.4431 55.0978C39.1402 55.0978 38.8374 54.9449 38.8374 54.792C38.6859 54.0275 38.8374 53.263 39.1402 52.4984C38.6859 52.4984 38.3831 52.1926 38.0802 51.8868C37.4745 51.1223 37.1716 49.4403 37.0202 48.5229V48.37C36.8688 47.9113 37.0202 47.2997 37.1716 46.841C37.0202 46.841 36.8688 46.688 36.7174 46.688C36.5659 46.5351 36.4145 46.2293 36.2631 45.9235C35.9602 45.3119 35.8088 44.3945 35.8088 43.7829C35.8088 43.3241 35.9602 42.8654 36.1116 42.5596C34.7488 42.2538 35.0516 40.266 35.0516 40.266C35.0516 39.9602 35.2031 39.8073 35.5059 39.8073L35.6574 39.5015C34.9002 39.6544 34.5974 39.5015 34.2945 38.8899C34.1431 38.5841 33.9916 38.2783 33.9916 37.9725C33.8402 37.6666 33.8402 37.3608 33.9916 37.055C33.9916 36.5963 34.1431 36.4434 34.1431 36.2905C33.6888 36.2905 33.3859 36.2905 33.2345 35.9847C32.9316 35.526 32.7802 34.9143 33.0831 34.3027C33.2345 34.1498 33.2345 33.9969 33.2345 33.844C33.2345 33.6911 33.3859 33.5382 33.3859 33.3853C32.9316 33.6911 32.6288 33.6911 32.4774 33.3853C32.1745 32.9266 32.0231 32.4679 32.1745 32.0092C32.1745 31.7033 32.3259 31.3975 32.4774 30.9388V30.7859C32.3259 30.7859 32.3259 30.7859 32.1745 30.9388C31.8716 31.0917 31.7202 31.0917 31.5688 30.633C31.4174 30.1743 31.2659 29.7156 31.2659 29.4098C31.2659 29.2569 31.2659 28.951 31.2659 28.7981C31.2659 28.4923 31.4174 28.1865 31.5688 27.8807C31.1145 27.8807 30.9631 27.7278 30.8116 27.2691C30.8116 27.1162 30.8116 26.8104 30.6602 26.6575C30.5088 26.3517 30.6602 26.0458 30.6602 25.74C30.9631 25.5871 30.9631 25.2813 31.1145 24.9755C30.6602 25.1284 30.5088 24.9755 30.5088 24.5168C30.5088 24.0581 30.3574 23.5994 30.6602 23.1406C30.6602 22.9877 30.6602 22.9877 30.8116 22.8348C30.2059 22.8348 30.2059 22.6819 30.2059 22.3761C30.2059 22.0703 30.2059 21.7645 30.2059 21.4587C28.2374 31.3975 28.8431 41.3364 31.1145 51.2752V51.581C30.9631 51.581 30.9631 51.581 30.8116 51.4281C30.3574 51.1223 29.9031 50.8165 29.4488 50.5107C29.2974 50.3578 29.2974 50.2049 29.1459 50.052C29.1459 49.8991 29.1459 49.8991 29.1459 49.7462C28.8431 50.052 28.3888 49.8991 28.0859 49.7462C27.9345 49.5932 27.7831 49.5932 27.7831 49.4403C27.4802 49.2874 27.0259 48.9816 27.1774 48.5229C26.8745 48.8287 26.5716 48.8287 26.2688 48.5229C26.1174 48.37 25.9659 48.2171 25.6631 48.0642C25.5116 47.9113 25.3602 47.7584 25.3602 47.4526C25.3602 47.1468 25.3602 46.9939 25.3602 46.688C25.2088 46.9939 24.9059 47.1468 24.6031 46.9939C24.3002 46.841 23.8459 46.5351 23.8459 46.0764C23.8459 45.7706 23.8459 45.4648 23.6945 45.159C23.3916 45.4648 23.2402 45.4648 22.9374 45.3119C22.4831 45.0061 22.1802 44.7003 22.0288 44.0887C22.0288 43.9358 22.0288 43.6299 22.0288 43.3241C21.5745 43.477 21.4231 43.477 21.2716 43.1712C20.9688 42.7125 20.5145 42.2538 20.6659 41.4893C20.6659 41.4893 20.6659 41.4893 20.6659 41.3364C20.0602 41.3364 19.9088 41.0306 19.9088 40.4189C19.9088 40.1131 19.9088 39.9602 19.9088 39.6544C19.3031 39.8073 19.1516 39.3486 19.0002 39.0428C18.6974 45.0061 19.9088 50.6636 22.9374 55.8624C25.5116 60.2966 29.1459 63.8134 33.5374 66.2599L34.1431 67.3302C34.4459 68.0948 35.0516 68.5535 35.8088 69.0122C38.3831 70.2355 40.9573 70.6942 43.8345 70.8471C44.5916 70.8471 45.5002 71 46.1059 70.5413C46.8631 70.0825 47.4688 69.7767 48.2259 69.318C50.3459 67.789 52.1631 66.107 54.1316 64.4251C55.4945 63.2018 56.7059 61.9786 57.7659 60.6024C62.0059 54.9449 65.6402 49.1345 68.6688 42.7125C69.8802 39.9602 70.9402 37.055 71.8488 33.9969C71.8488 33.844 72.0002 33.5382 72.0002 33.3853C71.5459 33.844 71.3945 34.1498 71.0916 34.6085Z" fill="#1F3773"/>
</g>
<defs>
<clipPath id="clip0_214_68">
<rect width="53" height="50" fill="white" transform="translate(19 21)"/>
</clipPath>
</defs>
</svg>
