<svg width="60" height="60" viewBox="0 0 60 60" fill="none" xmlns="http://www.w3.org/2000/svg">
<g clip-path="url(#clip0_55_237)">
<path d="M55.0227 16.6518C62.353 30.4979 57.1041 47.6925 43.3485 55.0228C29.5023 62.3531 12.3077 57.1042 4.97743 43.3486C-2.44338 29.5024 2.80548 12.3079 16.6516 4.97755C30.4978 -2.44326 47.6924 2.80561 55.0227 16.6518Z" fill="#F4D67E"/>
<path d="M44.0722 56.4706C29.502 64.2534 11.312 58.6426 3.52918 44.0724C-4.25362 29.5023 1.26674 11.3122 15.9274 3.52943C30.4975 -4.25338 48.6876 1.26698 56.4704 15.9276C64.2532 30.4978 58.6423 48.6878 44.0722 56.4706ZM17.4658 6.42536C4.43416 13.3032 -0.543213 29.5023 6.42511 42.534C13.3029 55.5656 29.502 60.543 42.5337 53.5747C55.5654 46.6064 60.4523 30.4073 53.5744 17.4661C46.6061 4.4344 30.407 -0.542969 17.4658 6.42536Z" fill="white"/>
<path d="M42.8959 47.4206H29.3213V46.6061H42.8959V47.4206ZM42.8959 13.2124H29.3213V12.3979H42.8959V13.2124ZM32.0362 40.3617L36.1086 47.0586L40.181 40.3617H32.0362ZM32.0362 19.3663L36.1086 12.6694L40.181 19.3663H32.0362ZM36.5611 41.4477H35.7466V18.2803H36.5611V41.4477ZM24.7964 12.3979H19.457C18.0091 12.3979 16.9231 13.4839 16.9231 14.8414V44.9771C16.9231 46.3346 18.0996 47.4206 19.457 47.4206H24.7964C26.2444 47.4206 27.3303 46.3346 27.3303 44.9771V14.8414C27.3303 13.4839 26.2444 12.3979 24.7964 12.3979ZM27.3303 43.1672H21.991V42.4432H27.3303V43.1672ZM27.3303 40.2713H24.2534V39.5473H27.3303V40.2713ZM27.3303 37.4658H24.2534V36.7418H27.3303V37.4658ZM27.3303 34.5699H21.991V33.8459H27.3303V34.5699ZM27.3303 31.674H24.2534V30.95H27.3303V31.674ZM27.3303 28.8685H24.2534V28.1446H27.3303V28.8685ZM27.3303 25.9726H21.991V25.2486H27.3303V25.9726ZM27.3303 23.0767H24.2534V22.3527H27.3303V23.0767ZM27.3303 20.2713H24.2534V19.5473H27.3303V20.2713ZM27.3303 17.3753H21.991V16.6513H27.3303V17.3753Z" fill="#1F3773"/>
</g>
<defs>
<clipPath id="clip0_55_237">
<rect width="60" height="60" fill="white"/>
</clipPath>
</defs>
</svg>
