<svg width="61" height="60" viewBox="0 0 61 60" fill="none" xmlns="http://www.w3.org/2000/svg">
<g clip-path="url(#clip0_55_225)">
<path d="M55.1726 16.6518C62.5029 30.4979 57.254 47.6925 43.4984 55.0228C29.6522 62.3531 12.4576 57.1042 5.12733 43.3486C-2.29348 29.5024 2.95539 12.3079 16.8015 4.97755C30.6477 -2.44326 47.8423 2.80561 55.1726 16.6518Z" fill="#F4D67E"/>
<path d="M44.2222 56.4706C29.6521 64.2534 11.462 58.6426 3.67921 44.0724C-4.1036 29.5023 1.41676 11.3122 16.0774 3.52943C30.6475 -4.25338 48.8376 1.26698 56.6204 15.9276C64.4032 30.5883 58.7923 48.6878 44.2222 56.4706ZM17.6159 6.42536C4.58419 13.3032 -0.393189 29.5023 6.57514 42.534C13.453 55.5656 29.6521 60.543 42.6837 53.5747C55.7154 46.6064 60.6023 30.4073 53.7245 17.4661C46.7561 4.4344 30.557 -0.542969 17.6159 6.42536Z" fill="white"/>
<path d="M23.4983 29.9546C25.2177 30.0451 25.3987 31.493 25.8512 32.036C27.1182 33.7555 30.1046 32.398 30.6476 30.2261C30.7381 29.7736 30.8286 28.2351 30.0141 27.1491C29.3806 26.2442 29.1996 25.4297 29.1091 24.5247C29.0186 22.7147 29.3806 22.5338 32.367 15.2034C33.272 12.941 35.3535 8.86859 37.1634 5.70117H32.6385C30.4666 10.95 26.9372 18.8233 23.7698 22.7147C23.2268 23.3482 22.6838 23.8912 22.0503 24.4342C19.6069 26.6061 20.4213 30.2261 23.4983 29.9546ZM22.0503 31.131C20.5118 30.4071 19.5164 28.2351 19.6974 26.0632C19.7879 25.2487 18.7019 24.9772 18.3399 25.7012C16.6204 29.2306 18.7924 33.7555 21.8693 33.122C22.8648 32.941 22.9553 31.5835 22.0503 31.131ZM33.9055 33.9365C33.815 33.2125 33.453 32.4885 32.8195 32.1265C30.3761 30.4071 29.1091 35.5654 24.5842 32.8505C23.1363 32.036 21.9598 34.027 22.2313 36.1989C22.5028 38.3709 24.2223 39.3663 25.1272 38.8233C27.1182 37.0134 33.1815 47.6016 35.7155 52.8505L40.2404 51.131C36.7109 46.3347 33.272 39.7283 32.91 38.2804C32.4575 36.5609 33.996 35.5654 33.9055 33.9365ZM35.625 36.7419C35.987 36.5609 35.987 35.7464 35.3535 35.2939C34.9915 35.0224 34.539 34.8414 34.2675 34.9319C33.815 36.7419 32.548 37.1944 33.996 39.5473C36.349 43.4387 36.8014 45.7917 40.6928 51.0405L41.6883 50.6785C39.6069 46.6966 34.6295 37.0134 35.625 36.7419Z" fill="#1F3773"/>
</g>
<defs>
<clipPath id="clip0_55_225">
<rect width="60" height="60" fill="white" transform="translate(0.149902)"/>
</clipPath>
</defs>
</svg>
