<svg width="60" height="60" viewBox="0 0 60 60" fill="none" xmlns="http://www.w3.org/2000/svg">
<g clip-path="url(#clip0_55_231)">
<path d="M55.0227 16.6518C62.353 30.4979 57.1041 47.6925 43.3485 55.0228C29.5023 62.3531 12.3077 57.1042 4.97743 43.3486C-2.44338 29.5024 2.80548 12.3079 16.6516 4.97755C30.4978 -2.44326 47.6924 2.80561 55.0227 16.6518Z" fill="#F4D67E"/>
<path d="M44.0727 56.4711C29.5025 64.2539 11.3125 58.643 3.52967 44.0729C-4.25313 29.5028 1.26723 11.3127 15.9279 3.52992C30.498 -4.25289 48.688 1.26747 56.4709 15.9281C64.2537 30.4982 58.6428 48.6883 44.0727 56.4711ZM17.4663 6.42584C4.43465 13.3037 -0.542725 29.5028 6.4256 42.5344C13.3034 55.5661 29.5025 60.5435 42.5342 53.5752C55.5659 46.6068 60.4528 30.4077 53.5749 17.4666C46.6066 4.43489 30.4075 -0.542481 17.4663 6.42584Z" fill="white"/>
<path d="M29.9548 9.0498C18.4616 9.0498 9.0498 18.4616 9.0498 29.9548C9.0498 41.448 18.4616 50.8598 29.9548 50.8598C41.5385 50.8598 50.8598 41.448 50.8598 29.9548C50.8598 18.4616 41.5385 9.0498 29.9548 9.0498ZM36.1086 18.2806C36.7421 17.5566 37.5566 16.9231 39.0046 16.9231C40.4525 16.9231 41.3575 17.5566 41.9005 18.2806C42.8055 19.457 42.896 21.1765 42.896 23.7104C42.896 26.2444 42.8055 28.0543 41.9005 29.1403C41.267 29.8643 40.4525 30.4978 39.0046 30.4978C37.5566 30.4978 36.6516 29.8643 36.1086 29.1403C35.2037 27.9638 35.1132 26.2444 35.1132 23.7104C35.1132 21.1765 35.1132 19.457 36.1086 18.2806ZM18.9141 42.9865H17.2851L15.6561 35.2941H17.3756L18.1901 40.724L19.0046 35.2941H20.724L18.9141 42.9865ZM19.7285 25.5204V30.3168H17.1041V17.1041H20.8145C23.7104 17.1041 24.5249 18.7331 24.5249 21.3575C24.5249 23.9819 23.7104 25.6109 20.8145 25.6109H19.7285V25.5204ZM22.715 42.9865H21.267V37.4661H22.715V42.9865ZM22.8055 36.7421H21.267V35.2037H22.8055V36.7421ZM26.1539 38.4616H25.4299V40.9955C25.4299 41.448 25.6109 41.629 26.1539 41.629V42.896C25.5204 42.896 25.0679 42.8055 24.7059 42.534C24.2534 42.2625 24.0724 41.81 24.0724 40.9955V38.3711H23.5294V37.2851H24.0724V35.7466H25.5204V37.2851H26.2444V38.4616H26.1539ZM30.4978 42.9865H29.1403V42.534C29.0498 42.715 28.9593 42.8055 28.7783 42.896C28.5973 42.9865 28.4163 43.077 28.1448 43.077C27.6018 43.077 27.2398 42.896 26.9684 42.534C26.6969 42.2625 26.6064 41.81 26.6064 41.267C26.6064 40.724 26.7874 40.2715 27.1494 40C27.4208 39.7285 27.7828 39.5475 28.5973 39.5475H29.0498V38.9141C29.0498 38.5521 28.8688 38.3711 28.5973 38.3711C28.4163 38.3711 28.3258 38.4616 28.3258 38.5521C28.2353 38.6426 28.2353 38.8236 28.2353 38.9141H26.7874C26.7874 38.4616 26.9684 38.0091 27.3303 37.6471C27.6018 37.3756 28.1448 37.1041 28.6878 37.1041C29.1403 37.1041 29.6833 37.1946 30.0453 37.5566C30.4073 37.9186 30.5883 38.3711 30.5883 39.0046V42.9865H30.4978ZM29.6833 25.1584H28.7783V30.3168H26.1539V17.1041H29.9548C32.8507 17.1041 33.6652 18.6426 33.6652 21.1765C33.6652 22.6245 33.4842 23.8914 32.1267 24.7059L34.0272 30.4073H31.3122L29.6833 25.1584ZM37.0136 42.9865H35.4751V39.0046L34.6607 41.629H33.8462L33.0317 39.0046V42.9865H31.4932V35.2941H32.8507L34.2082 39.0951L35.5656 35.2941H36.9231V42.9865H37.0136ZM39.5475 42.9865H38.0996V37.4661H39.5475V42.9865ZM39.638 36.7421H38.0996V35.2037H39.638V36.7421ZM44.3439 42.9865H42.896V38.9141C42.896 38.5521 42.715 38.3711 42.4435 38.3711C42.172 38.3711 41.991 38.5521 41.991 38.9141V42.9865H40.543V37.1946H41.9005V37.6471C41.991 37.4661 42.172 37.3756 42.353 37.2851C42.534 37.1041 42.715 37.1041 42.896 37.1041C43.4389 37.1041 43.7104 37.2851 43.9819 37.5566C44.1629 37.8281 44.3439 38.1901 44.3439 38.9141V42.9865ZM39.0046 28.1448C39.457 28.1448 39.7285 27.9638 39.9095 27.6018C40.2715 26.9684 40.2715 25.3394 40.2715 23.7104C40.2715 22.0815 40.2715 20.4525 39.9095 19.819C39.7285 19.5475 39.457 19.276 39.0046 19.276C38.5521 19.276 38.2806 19.457 38.0996 19.819C37.8281 20.4525 37.7376 22.0815 37.7376 23.7104C37.7376 25.3394 37.7376 26.9684 38.0996 27.6018C38.2806 27.8733 38.4616 28.1448 39.0046 28.1448ZM28.2353 40.6335C28.1448 40.724 28.0543 40.9955 28.0543 41.086C28.0543 41.5385 28.2353 41.7195 28.5068 41.7195C28.7783 41.7195 28.9593 41.5385 28.9593 41.086V40.4525H28.6878C28.5973 40.543 28.4163 40.543 28.2353 40.6335ZM29.9548 19.457H28.8688V22.8055H29.9548C30.9503 22.8055 31.0408 21.9005 31.0408 21.086C31.0408 20.362 30.9503 19.457 29.9548 19.457ZM20.724 19.457H19.7285V23.1675H20.724C21.81 23.1675 21.9005 22.172 21.9005 21.3575C21.9005 20.4525 21.9005 19.457 20.724 19.457Z" fill="#1F3773"/>
</g>
<defs>
<clipPath id="clip0_55_231">
<rect width="60" height="60" fill="white"/>
</clipPath>
</defs>
</svg>
