<svg width="61" height="60" viewBox="0 0 61 60" fill="none" xmlns="http://www.w3.org/2000/svg">
<g clip-path="url(#clip0_55_218)">
<path d="M58.4304 32.3075C57.1635 47.8731 43.4078 59.5473 27.8422 58.2804C12.1861 57.0134 0.602392 43.2577 1.86936 27.6921C3.13633 12.036 16.8015 0.452307 32.4576 1.71928C48.0232 2.98624 59.6974 16.6514 58.4304 32.3075Z" fill="#F4D67E"/>
<path d="M58.4304 32.3075C57.1635 47.8731 43.4078 59.5473 27.8422 58.2804C12.1861 57.0134 0.602392 43.2577 1.86936 27.6921C3.13633 12.036 16.8015 0.452307 32.4576 1.71928C48.0232 2.98624 59.6974 16.6514 58.4304 32.3075Z" stroke="#1A1A18" stroke-width="0.567" stroke-miterlimit="22.926"/>
<path d="M27.661 59.9091C11.1904 58.5517 -1.11732 44.072 0.240149 27.5109C1.59761 11.0403 16.0773 -1.26734 32.5478 0.0901243C49.0184 1.44759 61.4166 15.9272 60.0591 32.3978C58.7017 48.8684 44.222 61.2666 27.661 59.9091ZM32.2763 3.34804C17.6157 2.17157 4.67454 13.1218 3.49807 27.7824C2.3216 42.5336 13.2718 55.3842 27.9325 56.6512C42.5931 57.8277 55.5343 46.8775 56.7107 32.2168C57.9777 17.4657 47.0275 4.52451 32.2763 3.34804Z" fill="white"/>
<path d="M47.9327 25.6106C47.2992 23.5292 44.1318 15.7464 38.7019 18.0088C37.5255 18.4613 37.254 19.0948 36.4395 19.0948C36.2585 19.0948 35.444 19.0948 34.1771 17.4658C32.0051 14.7509 31.9146 12.398 31.4621 12.036C30.9191 11.7645 30.4666 11.7645 30.0142 11.9455C29.3807 12.1265 28.7472 12.6695 28.3852 13.2124C28.2947 13.3934 28.2042 13.5744 28.1137 13.7554C28.1137 13.8459 28.1137 13.8459 28.1137 13.9364C28.1137 14.0269 28.1137 14.0269 28.1137 14.1174C28.0232 14.8414 29.7427 18.7328 31.7336 20.7238C32.6386 21.7192 33.0911 21.9002 33.4531 22.7147C33.8151 23.4387 33.9056 24.0722 33.9961 24.9772C33.9961 25.5201 33.9961 26.0631 33.9961 26.6061C33.7246 30.407 31.9146 33.1219 31.9146 33.1219C31.2811 34.0269 30.7381 34.8414 29.7427 35.2939C28.2947 36.0179 26.7562 35.7464 26.3942 35.6559C25.0368 35.3844 24.6748 34.8414 23.4078 34.9319C22.8648 34.9319 22.5028 35.1129 22.0504 34.9319C21.3264 34.6604 21.0549 34.1174 20.6024 33.7554C19.0639 32.579 16.6205 33.3934 16.4395 33.4839C14.4485 34.1174 13.5436 35.8369 13.1816 36.3799C13.0006 36.8324 12.8196 37.2848 12.5481 38.1898C12.1861 39.3663 12.0051 40.1808 11.9146 40.8143C11.9146 41.1762 11.9146 41.4477 11.9146 41.7192C12.0956 42.4432 15.082 44.1627 15.8965 43.6197C16.711 43.0767 16.711 40.8143 17.797 40.1808C17.978 40.0903 18.4304 39.9093 18.8829 39.9998C19.4259 40.0903 19.6069 40.5428 20.0594 41.1762C20.0594 41.1762 20.1499 41.2667 21.4169 42.9862C22.6838 44.7057 24.4938 45.5201 25.3083 45.7916C26.2133 46.1536 26.8467 46.3346 27.6612 46.5156C28.7472 46.7871 31.0096 47.2396 33.8151 46.9681C34.901 46.8776 36.9825 46.6061 39.3354 45.5201C39.8784 45.2486 42.3218 44.0722 44.5843 41.3572C46.2132 39.4568 47.0277 37.5563 47.3897 36.4704C47.5707 35.9274 48.2042 34.1174 48.3852 31.5835C48.7472 28.6876 48.2042 26.4251 47.9327 25.6106Z" fill="#1F3773"/>
</g>
<defs>
<clipPath id="clip0_55_218">
<rect width="60" height="60" fill="white" transform="translate(0.149902)"/>
</clipPath>
</defs>
</svg>
