<svg width="92" height="92" viewBox="0 0 92 92" fill="none" xmlns="http://www.w3.org/2000/svg">
<circle opacity="0.2" cx="46" cy="46" r="45.5" stroke="#1F3773"/>
<g clip-path="url(#clip0_123_28)">
<path d="M36.8455 47.5607C39.2115 47.6855 39.4606 49.6816 40.0832 50.4302C41.8266 52.8006 45.936 50.9292 46.6832 47.935C46.8077 47.3112 46.9323 45.1903 45.8115 43.6931C44.9398 42.4455 44.6907 41.3227 44.5662 40.0751C44.4417 37.5799 44.9398 37.3304 49.0492 27.2248C50.2945 24.1058 53.1587 18.4916 55.6492 14.125H49.4228C46.4341 21.3611 41.5775 32.2152 37.219 37.5799C36.4719 38.4532 35.7247 39.2018 34.853 39.9503C31.6153 42.8198 32.6115 47.935 36.8455 47.5607ZM34.9775 49.1826C32.8606 48.1845 31.4907 45.1903 31.6153 42.196C31.7398 41.0732 30.2455 40.6989 29.7474 41.697C27.3813 46.5626 30.37 52.8006 34.604 51.9273C35.9738 51.553 36.0983 49.8064 34.9775 49.1826ZM51.1662 52.9254C51.0417 51.9273 50.5436 50.9292 49.6719 50.4302C46.3096 48.0597 44.5662 55.1711 38.3398 51.4283C36.4719 50.3054 34.853 53.0501 35.2266 56.1692C35.6002 59.1634 37.9662 60.5358 39.2115 59.7872C41.9511 57.292 50.2945 71.8889 53.7813 79.125L60.0077 76.7546C55.1511 70.1423 50.419 61.0348 49.9209 59.0386C49.1738 56.6682 51.4153 55.2958 51.1662 52.9254ZM53.5323 56.793C54.0304 56.5434 54.0304 55.4206 53.1587 54.7968C52.6606 54.4225 52.0379 54.173 51.6643 54.2977C51.0417 56.793 49.2983 57.4168 51.2907 60.6605C54.5285 66.0252 55.1511 69.269 60.5058 76.505L61.8757 76.006C59.0115 70.6413 52.1624 57.292 53.5323 56.793Z" fill="#1F3773"/>
</g>
<defs>
<clipPath id="clip0_123_28">
<rect width="33" height="65" fill="white" transform="translate(29 14)"/>
</clipPath>
</defs>
</svg>
