<svg width="92" height="92" viewBox="0 0 92 92" fill="none" xmlns="http://www.w3.org/2000/svg">
<circle opacity="0.2" cx="46" cy="46" r="45.5" stroke="#1F3773"/>
<g clip-path="url(#clip0_123_31)">
<path d="M28.8329 66.431C27.1358 66.8226 25.9608 67.0837 24.6554 67.3448C24.3943 67.3448 24.0026 66.8227 23.611 66.5616C23.8721 66.3005 24.1332 65.7783 24.3943 65.7783C25.5692 65.6477 26.6136 65.6477 27.7885 65.7783C28.0496 65.7783 28.3107 66.0394 28.8329 66.431ZM28.4413 60.1647C28.0496 60.2952 27.658 60.5563 27.3969 60.5563C26.2219 60.4258 24.9164 60.2952 23.7415 60.1647C23.7415 60.1647 23.611 59.3814 23.7415 59.2508C24.0026 58.9897 24.3943 58.8592 24.7859 58.8592C25.9608 59.1203 27.1358 59.3814 28.3107 59.6425C28.4413 59.9036 28.4413 60.0341 28.4413 60.1647ZM27.9191 62.2535V64.0811C25.9608 64.0811 23.8721 64.0811 21.7833 64.0811C21.5222 64.0811 21.2611 63.4284 21 63.1673C21.3916 62.9062 21.7833 62.384 22.0444 62.384C24.0026 62.1229 25.8303 62.2535 27.9191 62.2535ZM58.9896 43.1934C59.6423 43.585 60.0339 43.7156 60.5561 44.1072C59.1201 45.5433 56.7702 45.5433 55.3342 44.1072C55.8564 43.8461 56.3786 43.585 56.9008 43.1934C56.6397 40.5824 56.3786 37.8409 56.248 35.23C56.248 34.5772 56.6397 33.6634 57.1619 33.2717C57.5535 33.0106 58.5979 33.0106 58.9896 33.4023C59.3812 33.7939 59.6423 34.5772 59.6423 35.23C59.5118 37.8409 59.2507 40.5824 58.9896 43.1934ZM48.6762 55.3344C47.7624 55.2038 46.9791 55.2038 46.3264 54.9427C46.0653 54.8122 45.6736 54.5511 45.5431 54.29C44.4987 50.1125 44.6292 44.6294 48.8068 41.3657C49.8512 40.5824 50.3734 40.5824 51.6789 41.3657C47.893 45.4127 48.4151 50.3736 48.6762 55.3344ZM66.4308 57.9454C67.8668 52.0707 68.389 46.4571 64.342 41.3657C65.3864 40.4519 66.3003 40.713 67.0836 41.4963C69.3029 43.1934 70.6084 45.5433 70.8695 48.4153C71.1306 51.5485 70.8695 54.5511 68.9112 57.1621C68.2585 58.0759 67.4752 58.5981 66.4308 57.9454ZM55.3342 41.1046C55.0731 41.6268 55.0731 42.149 54.6815 42.5407C53.376 43.8461 53.5065 44.8905 54.9426 46.0655C55.2037 46.3266 55.5953 46.8488 55.5953 47.2404C55.5953 50.243 55.5953 53.2456 55.5953 56.3788C54.1593 56.1177 52.7232 55.9871 51.1567 55.726C50.8956 55.726 50.5039 55.3344 50.5039 55.0733C49.9817 50.6347 49.7206 46.3266 52.9843 42.6712C53.5065 42.0185 54.2898 41.4963 54.812 40.9741C54.9426 40.9741 55.0731 41.1046 55.3342 41.1046ZM57.2924 46.9793C58.5979 46.7182 59.7729 46.5877 60.8172 46.0655C62.5144 45.2822 62.7755 43.8461 61.3394 42.5407C60.9478 42.149 60.9478 41.4963 60.9478 40.9741C62.906 41.8879 64.2115 43.3239 64.8642 45.1516C66.3003 48.9375 66.1697 52.854 64.9948 56.6399C64.7337 57.4232 64.4726 57.6843 63.5587 57.5537C61.9922 57.1621 60.4256 57.0315 58.859 56.901C57.9452 56.7704 57.423 56.3788 57.423 55.4649C57.2924 52.5929 57.2924 49.7208 57.2924 46.9793ZM34.3159 54.1595C34.1854 54.1595 33.7937 54.29 33.2715 54.5511C32.6188 52.854 32.0966 51.1568 31.4439 49.4597C31.3133 49.0681 30.9217 48.6764 30.6606 48.5459C27.3969 47.5015 26.6136 46.4571 27.3969 43.1934C25.047 41.1046 24.7859 40.1908 26.2219 37.4493C25.3081 36.4049 24.1332 35.6216 23.4804 34.5772C21.9138 31.9662 23.2193 28.572 26.0914 27.2665C26.483 27.136 27.0052 26.8749 27.0052 26.4832C27.658 24.3944 28.9634 23.3501 31.3133 23.6112C32.0966 21.914 33.2715 20.7391 35.2298 21.0002C37.188 21.2613 38.1018 22.5668 38.3629 24.525H40.5822C39.0157 25.3083 38.3629 27.2665 36.4047 27.5276C35.6214 27.6582 34.7076 28.3109 34.3159 28.9636C33.5326 30.3997 32.3577 31.3135 31.1828 32.2273C28.0496 34.8383 28.0496 39.4075 31.0522 42.2796C31.4439 42.8018 31.705 43.1934 31.5744 43.9767C31.0522 45.6738 31.5744 47.1099 32.6188 48.4153C32.8799 48.807 33.0104 49.3292 33.141 49.8514C33.5326 51.2874 33.7937 52.7234 34.3159 54.1595ZM47.2402 34.4467C46.8486 34.055 46.5875 33.6634 46.0653 33.1412C44.7598 34.9689 43.5849 36.666 42.4099 38.3631C41.3655 36.2743 40.1906 34.1856 39.0157 31.8357C38.4935 32.0968 38.1018 32.3579 37.5796 32.619C38.4935 34.3161 39.4073 36.0132 40.3211 37.8409C38.3629 37.7104 36.6658 37.4493 34.7076 37.3187C34.8381 38.102 34.8381 38.4937 34.9687 39.0159C37.188 39.1464 39.6684 38.8853 41.235 40.5824C42.2794 41.7574 42.671 43.7156 43.3238 45.4127C41.235 44.8905 39.4073 44.4989 37.4491 44.1072C37.4491 44.8905 37.4491 45.2822 37.3185 45.6738C39.0157 46.196 40.7128 46.5877 42.2794 47.1099C43.0627 47.3709 43.3238 47.8931 43.3238 48.807C43.1932 50.6347 43.3238 52.4623 43.3238 54.5511C41.235 54.1595 39.0157 54.0289 36.7963 53.3762C34.8381 52.854 34.3159 51.0263 35.0992 48.4153C32.6188 46.196 32.4883 45.2822 34.0548 42.4101C33.6632 42.149 33.4021 42.0185 33.0104 41.7574C31.3133 40.5824 30.3995 39.0159 30.53 36.9271C30.6606 34.8383 31.8355 33.5328 33.6632 32.619C34.1854 32.3579 34.7076 31.8357 34.9687 31.3135C35.6214 29.7469 36.6658 28.9636 38.3629 28.8331C38.7546 28.8331 39.2768 28.572 39.4073 28.3109C40.3211 26.8749 41.4961 26.0916 43.1932 26.3527C44.8903 26.6138 45.8042 27.7887 46.0653 29.4858C46.0653 29.6164 46.1958 29.7469 46.3264 30.008C48.2846 29.6164 49.9817 29.8775 51.0261 31.8357C51.8094 33.5328 51.1567 34.9689 49.9817 36.1438C50.5039 37.0576 51.0261 37.9715 51.6789 39.1464C48.0235 39.1464 46.5875 41.7574 44.8903 44.1072C42.671 41.1046 43.846 38.4937 47.2402 34.4467ZM37.8407 55.3344C40.7128 55.726 43.9765 56.2482 47.2402 56.7704C54.1593 57.8148 61.0783 58.8592 67.9974 60.0341C69.8251 60.2952 71 61.6007 71 63.1673C71 64.7339 69.8251 66.0394 67.9974 66.3005C58.2063 67.867 48.2846 69.3031 38.4935 70.8696C34.1854 71.5224 30.1384 68.1281 29.7467 63.5589C29.2245 59.2508 32.8799 55.3344 37.8407 55.3344ZM36.6658 67.3448H38.1018V58.9897H36.6658V67.3448ZM45.0209 58.9897H43.5849V67.3448H45.0209V58.9897ZM51.94 58.8592H50.3734V67.2143H51.94V58.8592ZM58.7285 65.6477V60.5563C58.2063 60.5563 57.6841 60.5563 57.2924 60.6869V65.6477H58.7285ZM65.6475 61.4702H64.0809V64.7339H65.517V61.4702H65.6475Z" fill="#1F3773"/>
</g>
<defs>
<clipPath id="clip0_123_31">
<rect width="50" height="50" fill="white" transform="translate(21 21)"/>
</clipPath>
</defs>
</svg>
