<svg width="91" height="92" viewBox="0 0 91 92" fill="none" xmlns="http://www.w3.org/2000/svg">
<path fill-rule="evenodd" clip-rule="evenodd" d="M32.7986 43.5618C32.9594 43.3993 33.6025 42.424 33.7632 42.0989C33.924 41.9364 34.0848 41.6113 34.2456 41.4488C34.2456 41.2862 34.4064 40.7986 34.5671 40.636C34.7279 40.311 35.2103 37.3852 35.2103 36.8975C35.2103 36.4099 34.7279 35.4346 34.4064 34.947C33.6025 33.8092 32.477 33.159 31.03 32.9965C29.583 32.8339 27.9753 33.4841 27.1714 34.4594C26.8498 34.7845 23.7951 38.8481 23.7951 39.0106C24.1166 39.1731 28.9399 40.1484 29.2615 40.311L30.2262 41.1237C30.3869 41.2862 30.5477 41.2862 30.7085 41.4488C30.8693 41.6113 31.03 41.6113 31.1908 41.7739C31.6732 42.2615 31.3516 41.9364 31.6731 42.2615C31.6731 42.424 32.6378 43.3993 32.7986 43.5618ZM36.3357 40.1484C36.6572 40.1484 37.4611 39.9859 37.6219 39.8233L40.1943 39.1731C40.5159 39.1731 41.3198 38.8481 41.4806 38.8481C42.1237 38.8481 46.3039 40.1484 46.947 40.1484L46.4647 37.0601C46.4647 36.5724 45.9823 34.4594 45.8215 34.1343C44.6961 31.2085 40.9982 30.3958 38.7474 32.1837C38.1042 32.6714 37.6219 33.3216 37.1396 34.2968C37.1396 34.4594 36.1749 39.6608 36.3357 40.1484ZM57.8799 25.0318C58.6837 25.0318 58.523 25.1943 59.1661 24.8693L62.0601 23.2438C62.864 22.7562 63.6679 22.2686 64.1502 22.4311C64.4717 22.5936 64.7933 22.9187 64.4717 23.4064C64.311 23.894 63.1855 24.3816 62.7032 24.5442C62.5424 24.7067 61.8993 24.8693 61.8993 25.0318L65.2756 25.3569C67.0442 25.5194 68.4911 25.8445 70.2597 26.1696C70.9028 26.3322 72.5106 26.8198 73.1537 26.9823C73.636 27.1449 74.1184 27.3074 74.1184 27.9576C74.1184 28.2827 73.7968 28.7703 73.3145 28.7703C72.9929 28.7703 72.189 28.4452 71.7067 28.2827C71.3852 28.1201 71.2244 28.1201 70.9028 28.1201C70.0989 27.9576 67.2049 27.3074 66.8834 27.47C67.0442 27.6325 67.6873 28.6078 67.848 28.9329C68.4911 29.7456 67.8481 30.3958 67.3657 30.3958C66.7226 30.3958 66.4011 29.7456 65.9187 28.9329C65.7579 28.6078 65.5972 28.4452 65.2756 28.1201C64.6325 27.1449 64.7933 27.1449 64.1502 27.1449L62.2208 26.9823C61.7385 26.9823 61.417 26.9823 60.9346 26.9823L59.0053 26.8198C58.6837 26.8198 58.523 26.8198 58.3622 26.8198L51.9311 26.4947C51.4488 26.4947 50.9664 26.4947 50.6449 26.4947C50.4841 26.4947 49.6802 26.3322 49.5194 26.4947C49.5194 26.6572 49.5194 26.4947 49.6802 26.6572C50.3233 27.1449 53.0565 29.0954 53.8604 29.4205C54.0212 29.4205 54.0212 29.583 54.3428 29.583L55.1466 30.0707C56.5936 30.7208 58.2014 31.5336 59.8092 31.8587C61.417 32.3463 63.6678 32.8339 65.2756 32.8339C65.7579 32.8339 66.0795 32.8339 66.5618 32.8339C67.0442 32.8339 68.1696 32.8339 68.9735 32.8339C71.3852 32.6714 73.1537 32.1837 75.4046 31.5336C76.0477 31.371 76.6908 31.0459 77.3339 30.8834C77.977 30.7208 80.5495 29.4205 80.871 29.0954C80.7102 28.7703 79.7456 27.6325 79.424 27.3074C78.9417 26.8198 78.4594 26.3322 77.6555 25.682C77.0124 25.1943 75.083 23.894 74.2791 23.4064C74.1184 23.2438 73.9576 23.2438 73.7968 23.0813C72.5106 22.4311 71.7067 22.106 70.4205 21.6184L69.1343 21.2933C68.6519 21.1307 68.3304 20.9682 67.848 20.9682C64.7933 20.318 63.9894 20.318 60.9346 20.318C60.7739 20.318 60.2915 20.4806 59.97 20.4806C59.6484 20.4806 59.4876 20.4806 59.0053 20.6431L57.3975 20.9682C55.7897 21.2933 54.5035 21.6184 52.8958 22.4311L51.6095 23.0813C51.1272 23.2438 49.3586 24.3816 49.3586 24.5442L57.8799 25.0318ZM31.9947 45.3498C32.1555 45.0247 31.9947 45.0247 31.8339 44.8622L29.7438 42.9117C28.6184 41.9364 28.9399 41.7739 27.8145 41.6113L23.7951 40.636C22.0265 40.311 22.6696 40.1484 21.5442 40.7986C20.2579 41.4488 18.6502 42.7491 17.6855 43.7244L16.0777 45.3498C15.4346 46.1625 14.6307 47.3004 13.9876 48.2756C13.3445 49.2509 12.7014 50.3887 12.2191 51.5265C11.576 52.9894 11.4152 53.6396 10.9329 55.1025C10.7721 55.4276 10.6113 55.9152 10.6113 56.4028C10.2898 57.5406 10.129 59.4912 10.129 60.7915C10.129 62.417 10.2898 63.5548 10.6113 65.0177C11.576 68.4311 14.3092 70.8693 18.1678 70.2191C20.258 69.894 21.0618 69.2438 22.6696 68.2686L23.6343 67.6184C23.7951 67.4558 23.9558 67.2933 24.1166 67.2933C24.5989 66.9682 25.8852 65.6678 26.2067 65.3428C27.0106 64.3675 27.6537 63.7173 28.4576 62.5795C28.6184 62.417 28.9399 61.9293 29.1007 61.6042C29.583 60.9541 29.9046 60.3039 30.2262 59.4912C30.3869 59.1661 30.3869 59.1661 30.2262 58.841C30.2262 58.5159 30.2262 58.5159 30.2262 58.1908C30.0654 56.2403 30.0654 55.4276 30.0654 53.477C30.0654 52.5018 30.2262 52.0141 30.2262 51.364L30.5477 49.2509C30.7085 48.4382 31.03 47.4629 31.1908 46.8127C31.1908 46.6502 31.3516 46.4876 31.3516 46.1625L31.9947 45.3498ZM19.9364 45.1873C20.0972 45.0247 20.7403 45.0247 21.0618 45.6749C21.2226 46.1625 20.9011 46.4876 20.7403 46.8127C20.2579 47.4629 19.7756 48.1131 19.2933 48.7633C17.8463 50.7138 16.8816 53.1519 16.0777 55.4276C15.917 56.0777 15.5954 57.3781 15.4346 58.0283C15.2739 58.841 15.1131 59.9788 15.1131 60.9541C15.1131 61.6042 15.1131 63.0671 15.1131 63.3922C14.9523 63.8799 14.47 63.8799 13.9876 63.7173C13.8269 63.5548 13.6661 63.3922 13.6661 63.2297C13.5053 62.9046 13.6661 60.629 13.6661 60.1413L14.47 55.9152C14.9523 53.8021 15.917 52.0141 16.8816 50.0636C17.0424 49.0883 19.1325 45.5124 19.9364 45.1873ZM42.1237 71.682C42.4452 71.682 43.2491 71.5194 43.4099 71.3569C45.6608 70.7067 48.0724 67.9435 49.0371 65.8304C50.1625 63.5548 50.9664 61.1166 51.288 58.5159C51.288 58.0283 51.4488 57.5406 51.4488 57.053C51.4488 56.5654 51.4488 56.0777 51.4488 55.5901C51.6095 54.9399 51.4488 54.6148 51.4488 54.1272C51.4488 52.9894 51.288 51.0389 50.9664 49.7385C50.3233 46.9753 49.5194 44.6996 47.9117 42.424C47.7509 42.2615 47.7509 42.0989 47.5901 41.9364C47.4293 41.7739 41.8021 40.1484 41.4806 40.311L36.4965 41.6113C35.8533 41.7739 35.6926 41.7739 35.371 42.0989C34.8887 42.7491 34.5671 43.2368 34.2456 44.0495C34.0848 44.212 34.0848 44.3746 33.924 44.5371C33.7633 44.6996 33.7632 44.8622 33.7632 45.0247C33.2809 46.1625 32.7986 47.4629 32.477 48.6007C32.3162 49.4134 31.9947 51.2014 31.8339 51.8516C31.6731 53.3145 31.6731 55.5901 31.8339 57.053L32.1555 59.1661C32.1555 59.4912 32.1555 59.6537 32.3163 59.8163C32.3163 59.9788 32.3162 60.3039 32.477 60.4664C33.1201 63.2297 33.4417 63.7173 34.5671 66.1555C35.371 67.7809 37.1396 69.5689 38.9081 70.5442C40.0336 71.682 40.9982 71.682 42.1237 71.682ZM35.371 53.9647C35.371 53.477 35.371 52.9894 35.371 52.5018C35.371 52.1767 35.371 52.0141 35.371 51.8516C35.371 51.689 35.371 51.5265 35.5318 51.2014C35.5318 50.8763 35.5318 50.7138 35.6926 50.5512C35.8533 49.4134 36.0141 48.6007 36.3357 47.4629C36.6572 46.4876 36.9788 44.3746 37.9435 44.6996C38.265 44.8622 38.5866 45.1873 38.5866 45.5124C38.5866 45.5124 37.1396 49.576 37.1396 51.5265C37.1396 51.8516 37.1396 51.8516 36.9788 52.1767L36.818 55.5901C36.818 55.7527 36.818 55.9152 36.818 56.0777C36.818 56.2403 36.818 56.4028 36.818 56.7279C36.818 57.5406 37.1396 59.0035 37.3003 59.6537C37.4611 59.9788 37.4611 60.3039 37.4611 60.629C37.4611 60.9541 37.6219 61.2792 37.7827 61.6042C38.1042 62.7421 38.4258 62.7421 38.4258 63.7173C38.4258 63.8799 38.1042 64.3675 37.7827 64.3675H37.4611C36.6572 64.3675 36.1749 61.6042 35.8534 60.7915C35.8534 60.629 35.6926 60.4664 35.6926 60.3039C35.6926 60.1413 35.5318 59.9788 35.5318 59.8163C35.371 59.3286 35.2103 57.053 35.2103 56.4028V53.9647H35.371ZM33.7632 22.106C34.2456 22.2686 36.6572 23.0813 36.9788 23.4064C36.9788 23.5689 36.6572 24.0565 36.4965 24.2191C34.8887 28.2827 34.4064 26.1696 33.1201 30.5583C32.7986 32.1837 32.477 32.1837 33.4417 32.6714C33.7633 32.8339 33.924 32.9965 34.2456 32.9965C34.5671 32.6714 34.5671 31.8587 34.5671 31.371C35.2102 28.7703 36.4965 28.2827 37.6219 25.682C37.7827 25.1943 38.1043 24.5442 38.4258 24.0565C38.4258 23.894 38.4258 23.894 38.5866 23.894C38.9081 23.894 39.2297 24.0565 39.3905 24.2191C39.712 26.4947 39.8728 27.6325 40.0336 29.4205C40.3551 29.4205 40.6767 29.4205 40.9982 29.4205C41.159 29.4205 41.3198 29.4205 41.4806 29.4205C41.6413 29.4205 41.6413 29.4205 41.8021 29.258C41.6413 28.1201 41.3198 25.682 41.3198 24.5442C43.8922 25.0318 46.3039 25.5194 48.7155 25.8445V24.3816C46.7862 24.0565 45.0177 23.7315 43.2491 23.2438C42.7668 23.0813 42.2844 23.0813 41.8021 22.9187C39.8728 22.2686 37.7827 21.7809 35.8534 20.9682C35.6926 20.9682 35.6926 20.9682 35.5318 20.8057L33.7632 22.106ZM91 46C91 71.5194 70.5813 92 45.5 92C20.258 92 0 71.3569 0 46C0 20.6431 20.258 0 45.5 0C70.5813 0 91 20.6431 91 46Z" fill="#1F3773"/>
</svg>
