<svg width="91" height="92" viewBox="0 0 91 92" fill="none" xmlns="http://www.w3.org/2000/svg">
<path fill-rule="evenodd" clip-rule="evenodd" d="M54.3428 68.106C54.182 67.9435 53.0566 67.7809 52.735 67.7809L50.8057 67.4558C50.4841 67.4558 50.1625 67.2933 49.841 67.2933C49.6802 67.2933 49.5194 67.2933 49.3587 67.2933L48.0724 67.1307C47.7509 67.1307 47.5901 67.1307 47.2685 67.1307C46.6254 67.1307 45.5 67.1307 44.8569 67.2933C43.4099 67.4558 41.159 67.9435 39.8728 68.5936C38.9082 69.0813 38.4258 69.4064 37.6219 70.2191C37.1396 70.7067 36.4965 71.3569 36.1749 71.8445L35.6926 72.3322C35.5318 72.4947 35.6926 72.4947 35.5318 72.4947C35.371 72.6572 35.371 72.8198 35.2102 72.8198L34.7279 73.6325C34.5671 73.9576 34.4064 74.1201 34.2456 74.4452C34.0848 74.7703 33.924 75.0954 33.7632 75.4205C33.6025 75.7456 33.4417 76.0707 33.2809 76.3958C33.1202 76.7209 32.6378 78.1837 32.477 78.5088C32.477 78.6714 32.477 78.6714 32.3163 78.8339L31.9947 79.9717C31.9947 80.2968 31.6731 80.2968 32.1555 80.4594C32.7986 80.6219 32.7986 80.7845 33.6025 80.947L34.2456 81.1096C34.4064 81.1096 34.2456 81.1096 34.4063 81.1096C34.7279 81.2721 35.3711 81.2721 35.8534 81.4346L37.9435 81.5972C38.5866 81.5972 39.0689 81.5972 39.5512 81.5972C40.1944 81.5972 41.159 81.4346 41.9629 81.2721C43.5707 80.947 44.6961 80.4594 46.1431 79.4841L46.947 78.8339L47.1078 78.6714L47.4293 78.3463C47.4293 78.3463 47.4293 78.3463 47.5901 78.1837C47.7509 78.0212 48.0724 77.8587 48.2332 77.5336C48.394 77.371 48.7155 77.0459 48.8763 76.8834C49.0371 76.7208 49.0371 76.7208 49.1979 76.5583C49.6802 75.9081 50.1625 75.4205 50.6449 74.7703L51.4488 73.6325C51.6095 73.47 52.0919 72.6572 52.2526 72.3322C52.4134 72.0071 52.5742 71.682 52.735 71.5194C53.0566 70.8693 53.3781 70.2191 53.6996 69.5689C53.8604 69.0813 54.0212 68.7562 54.3428 68.106ZM27.3322 77.5336C27.9753 78.0212 28.2968 78.3463 29.2615 78.9965C29.9046 79.4841 29.9046 79.3216 30.0654 78.9965L30.5477 78.3463C30.5477 78.3463 30.5477 78.1837 30.7085 78.1837C30.8693 78.0212 30.7085 78.1837 31.0301 77.6961C31.1908 77.5336 31.1908 77.5336 31.3516 77.2085L32.7986 74.4452C32.9594 74.1201 33.1202 73.7951 33.2809 73.47C33.4417 72.9823 33.6025 72.4947 33.7632 72.0071L33.924 71.3569C34.0848 70.8693 34.4063 69.0813 34.4063 68.7562C34.4063 68.2686 34.4063 67.9435 34.4063 67.2933C34.4063 66.8057 34.4064 66.4806 34.2456 65.9929C34.2456 65.8304 34.2456 65.6679 34.2456 65.6679C34.0848 65.0177 33.6025 63.5548 33.2809 63.0671C33.2809 62.9046 33.1201 62.9046 33.1201 62.7421C32.9594 62.417 32.6378 61.9293 32.477 61.7668C32.477 61.6042 32.3163 61.6042 32.3163 61.4417C32.3163 61.2792 32.3162 61.2792 32.1555 61.2792C31.6731 60.629 31.03 59.8163 30.5477 59.1661L28.6184 57.053C28.4576 56.8905 28.136 56.5654 27.9753 56.4028C27.8145 56.2403 27.4929 56.0777 27.3322 55.7527C26.689 55.265 26.2067 54.7774 25.5636 54.2898C25.4028 54.2898 25.4028 54.1272 25.2421 53.9647C24.9205 54.6148 24.7597 54.9399 24.4382 55.5901C24.1166 56.4028 23.6343 57.2156 23.3127 58.0283C23.3127 58.1908 23.1519 58.3534 23.1519 58.5159L21.8657 62.7421C21.5442 64.2049 21.3834 66.318 21.5442 67.9435C21.5442 68.106 21.5442 68.2686 21.5442 68.2686C21.8657 70.0565 22.6696 72.1696 23.6343 73.6325C23.6343 73.7951 23.6343 73.6325 23.7951 73.7951C24.1166 74.2827 24.5989 74.9329 25.0813 75.4205L25.4029 75.7456C25.5636 75.9081 25.5636 75.9081 25.7244 76.0707C25.8852 76.3958 26.8498 77.2085 27.3322 77.5336ZM31.9947 39.3357C31.6731 39.9859 31.5124 40.4735 31.1908 41.1237L30.7085 42.424C30.7085 42.5866 30.7085 42.7491 30.5477 42.9117L30.2262 43.8869C30.0654 44.5371 29.7438 45.3498 29.583 46.1625L29.1007 49.576V49.7385C29.1007 50.3887 29.1007 51.2014 29.1007 51.8516C29.1007 52.0141 29.1007 52.0141 29.1007 52.1767C29.1007 52.5018 29.2615 52.6643 29.2615 52.9894C29.2615 53.1519 29.2615 53.1519 29.4223 53.3145C29.4223 53.3145 29.4223 53.3145 29.4223 53.477V53.6396C29.4223 53.8021 29.4223 53.8021 29.4223 53.8021C29.7438 54.7774 30.2262 56.0777 30.7085 56.8905L31.3516 57.8657C31.3516 58.0283 31.5124 58.0283 31.5124 58.1908L31.9947 58.841C32.1555 59.0035 32.1555 59.0035 32.3163 59.1661L33.4417 60.3039L35.371 61.9293C35.5318 62.0919 35.8534 62.2544 36.1749 62.417C36.3357 62.5795 36.4965 62.5795 36.6573 62.7421L37.3004 63.2297C37.3004 63.0671 37.4611 62.9046 37.6219 62.7421L38.265 61.9293C38.265 61.9293 38.265 61.7668 38.4258 61.6042C38.4258 61.4417 38.5866 61.4417 38.5866 61.4417C38.7473 61.1166 39.8728 59.0035 40.1943 58.5159C40.3551 58.3534 40.3551 58.1908 40.3551 58.0283C40.5159 57.7032 40.8375 56.8905 40.9982 56.4028C41.159 56.0777 41.3198 55.7527 41.3198 55.4276C41.4806 54.4523 41.8021 53.477 41.8021 52.5018V52.0141C41.8021 51.364 41.8021 50.7138 41.6413 50.0636C41.4805 49.2509 41.3198 48.4382 40.9982 47.788L40.5159 46.6502C40.0336 45.6749 39.3905 44.6996 38.5866 43.7244C38.4258 43.5618 38.4258 43.5618 38.265 43.3993L37.4612 42.5866C37.1396 42.2615 36.9788 41.9364 36.6573 41.7739L35.371 40.4735C34.8887 40.1484 34.5672 39.6608 34.0848 39.3357C33.924 39.1731 33.924 39.1731 33.924 39.1731L33.2809 38.6855C32.6378 38.1979 32.6378 38.0353 32.3163 38.6855C32.3163 38.6855 32.1555 38.8481 31.9947 39.3357ZM17.364 21.1307L20.9011 17.5548L36.818 33.6466V33.4841C36.818 33.4841 36.818 33.4841 36.818 33.3216V32.8339C36.818 32.8339 36.818 32.8339 36.818 32.6714L36.9788 30.8834L37.7827 27.47C37.7827 27.3074 37.9435 27.1449 37.9435 26.9823L38.265 26.0071C38.4258 25.682 38.4258 25.682 38.5866 25.0318L39.5512 22.7562C39.712 22.2686 39.8728 22.106 40.0336 21.7809C40.1943 21.6184 40.1944 21.2933 40.3551 21.4558L41.8021 22.5936C41.8021 22.5936 41.9629 22.5936 41.9629 22.7562L43.0884 23.7315C43.8923 24.3816 44.3746 24.8693 45.0177 25.682C45.6608 26.3322 46.7862 27.7951 47.1078 28.6078C47.2686 28.9329 47.4293 29.0954 47.5901 29.4205C47.5901 29.583 47.5901 29.4205 47.7509 29.583C47.7509 29.583 47.7509 29.7456 47.9117 29.7456C47.9117 29.9081 48.0724 29.9081 48.0724 30.0707C48.394 30.7208 48.5548 31.371 48.8763 32.0212C49.3586 33.159 49.5194 34.7845 49.3587 35.9223L49.1979 36.8975C49.1979 37.0601 49.1979 37.2226 49.1979 37.3852C49.1979 37.5477 49.1979 37.5477 49.1979 37.7103L49.0371 38.6855V38.8481C49.0371 39.0106 49.0371 39.0106 48.8763 39.1731C48.7155 39.6608 48.5548 39.9859 48.394 40.4735C48.2332 41.1237 48.0725 41.1237 47.9117 41.6113C47.9117 41.7739 47.7509 41.9364 47.7509 42.0989C47.5901 42.424 47.2686 43.2368 46.7862 43.8869L48.0724 45.1873L48.5548 44.0495C48.5548 43.8869 48.7155 43.5618 48.8763 43.3993C49.0371 43.2368 49.0371 43.0742 49.1979 42.7491C49.6802 41.9364 50.1625 40.9611 50.6449 40.1484L51.288 39.1731C51.288 39.0106 51.288 39.1731 51.4488 39.0106C51.7703 38.6855 51.9311 38.3604 52.2526 38.0353C52.5742 37.7102 53.0565 37.2226 53.3781 36.8975L54.6643 36.0848C55.1466 35.7597 55.7897 35.5972 56.2721 35.2721C56.5936 35.1095 57.076 34.947 57.3975 34.947C57.8799 34.7845 58.523 34.6219 59.0053 34.6219C59.3269 34.6219 59.8092 34.4594 60.1307 34.4594C61.2562 34.4594 61.8993 34.2968 63.1855 34.2968C64.311 34.2968 65.2756 34.4594 66.4011 34.6219L67.8481 34.7845C68.4912 34.947 69.1343 35.1095 69.7774 35.1095C70.0989 35.1095 69.7774 35.5972 69.6166 35.9223C69.6166 36.0848 69.6166 36.2474 69.4558 36.4099L68.3304 38.6855C68.1696 39.0106 68.0088 39.1731 67.8481 39.4982C67.6873 39.8233 67.5265 39.9859 67.3657 40.311L65.7579 42.5866C65.5972 42.9117 65.2756 43.0742 65.1148 43.3993L63.3463 45.3498C63.1855 45.5124 63.1855 45.5124 63.0247 45.6749L61.7385 46.6502C61.4169 46.9753 60.9346 47.1378 60.4523 47.4629L59.4876 47.9505C59.3268 47.9505 59.3269 47.9505 59.1661 48.1131L58.523 48.2756C57.7191 48.4382 56.7544 48.6007 55.9506 48.7633H54.8251C54.6643 48.7633 54.5035 48.7633 54.5035 48.7633C54.3427 48.7633 54.3428 48.7633 54.3428 48.7633C54.182 48.7633 54.3428 48.7633 54.182 48.7633C53.5389 48.7633 53.0565 48.7633 52.4134 48.6007L54.3428 50.5512H54.5035L58.523 50.7138H58.6837L59.8092 50.8763C59.97 50.8763 60.1307 50.8763 60.2915 50.8763L60.9346 51.0389C60.9346 51.0389 60.9346 51.0389 61.0954 51.0389L61.7385 51.2014C61.8993 51.2014 61.8993 51.2014 61.8993 51.2014C62.0601 51.2014 62.2209 51.2014 62.3816 51.364C62.5424 51.364 62.5424 51.5265 62.3816 51.689L62.0601 52.6643C61.417 53.9647 60.7738 55.265 60.1307 56.4028L74.2792 70.7067L70.742 74.2827L57.076 60.4664L55.7898 61.7668L55.629 61.9293C54.9859 62.417 54.8251 62.5795 54.182 63.0671C54.182 63.0671 54.182 63.0671 54.0212 63.2297C53.5389 63.5548 52.8958 63.7173 52.4134 64.0424C52.2527 64.205 51.9311 64.2049 51.7703 64.3675C50.3233 64.8551 48.394 65.1802 46.7862 65.1802H46.1431C45.6608 65.1802 45.1785 65.1802 44.6961 65.0177H44.3746C44.2138 65.0177 44.2138 65.0177 44.2138 65.0177L40.8374 64.2049C40.1943 63.8799 40.3551 64.0424 40.5159 63.3922C40.5159 63.2297 40.5159 63.2297 40.6767 63.0671C40.6767 62.9046 40.6767 62.9046 40.8374 62.7421C40.8374 62.5795 40.8375 62.5795 40.9982 62.417C40.9982 62.2544 41.159 62.2544 41.159 62.0919L41.8021 60.1413C41.9629 59.9788 41.9629 59.6537 42.1237 59.4912C42.1237 59.3286 42.2844 59.1661 42.4452 58.841L42.9276 57.8657C43.2491 57.3781 43.5707 56.5654 44.053 56.0777L45.0177 54.7774C45.5 54.2898 45.9823 53.8021 46.4646 53.3145C46.6254 53.3145 46.6254 53.1519 46.7862 53.1519C47.4293 52.6643 47.9117 52.3392 48.7156 51.8516L49.1979 51.689L17.364 21.1307ZM50.8057 21.2933C50.6449 21.6184 50.4841 21.9435 50.3233 22.2686C50.1626 22.5936 50.0018 23.7315 49.841 24.0565C49.841 24.2191 49.841 24.3816 49.841 24.5442C49.841 24.7067 49.841 24.8693 49.841 25.0318V25.1943L50.0018 27.7951C50.0018 28.1201 50.1626 28.6078 50.1626 28.9329L50.3233 29.7456C50.3233 30.0707 50.4841 30.2332 50.4841 30.5583L50.8057 31.371C50.8057 31.5336 50.9664 31.5336 50.9664 31.6961C51.1272 32.1837 51.9311 33.9717 52.2526 34.1343C52.4134 34.2968 54.3428 33.8092 54.9859 33.6466L56.5937 32.9965L58.6837 32.0212C58.8445 32.0212 58.8445 32.0212 58.8445 31.8587C59.4876 31.5336 59.97 31.0459 60.4523 30.7208L60.6131 30.5583C61.0954 30.2332 61.4169 29.7456 61.7385 29.258C61.8993 29.0954 61.7385 29.258 61.8993 29.0954C62.3816 28.4452 62.5424 28.2827 62.864 27.3074L63.3463 26.1696L63.8286 24.3816C63.9894 23.7315 64.1502 23.0813 64.1502 22.2686V22.106L64.3109 20.4806C64.3109 19.9929 64.3109 19.5053 64.3109 18.8551C64.3109 18.6926 64.3109 18.53 64.3109 18.3675V17.8799C64.3109 17.2297 64.3109 16.7421 64.1502 16.0919C64.1502 15.9293 64.1502 15.9293 64.1502 15.7668L63.9894 14.7915C63.9894 14.629 63.9894 14.4664 63.9894 14.3039C63.9894 14.1413 63.9894 13.9788 63.9894 13.8163L63.6678 11.7032C63.6678 11.3781 63.507 10.5654 63.3463 10.5654C63.1855 10.7279 61.8993 11.3781 61.5778 11.5406L58.6837 13.3286C58.0406 13.8163 57.2368 14.3039 56.5937 14.7915L55.4682 15.7668C54.9859 16.0919 54.6643 16.417 54.3428 16.9046L53.8604 17.3922C53.3781 17.8799 52.8958 18.3675 52.5742 18.8551L52.4134 19.0177L51.6095 20.318L50.8057 21.2933ZM91 46C91 71.5194 70.5813 92 45.5 92C20.258 92 0 71.3569 0 46C0 20.6431 20.258 0 45.5 0C70.7421 0 91 20.6431 91 46Z" fill="#1F3773"/>
</svg>
