<svg width="92" height="92" viewBox="0 0 92 92" fill="none" xmlns="http://www.w3.org/2000/svg">
<circle opacity="0.2" cx="46" cy="46" r="45.5" stroke="#1F3773"/>
<g clip-path="url(#clip0_123_32)">
<path d="M54.4999 34.1002C54.3999 34.2002 54.3999 34.4002 54.2999 34.5002C54.1999 34.6002 54.1999 34.8002 54.1999 34.9002C53.9999 35.8002 53.9999 36.6002 54.4999 37.4002C54.8999 38.0002 55.3999 38.4002 56.0999 38.7002C56.3999 38.9002 56.3999 38.9002 56.3999 39.3002C56.1999 40.1002 55.9999 40.9002 55.8999 41.7002C55.6999 43.1002 56.1999 44.3002 57.1999 45.3002C58.1999 46.3002 59.3999 46.8002 60.6999 47.1002C61.6999 47.3002 62.7999 47.3002 63.7999 47.0002C63.9999 46.9002 64.0999 47.0002 64.1999 47.2002C64.2999 47.8002 64.3999 48.5002 64.3999 49.1002C64.5999 51.9002 64.2999 54.7002 63.4999 57.5002C63.0999 58.8002 62.4999 60.0002 61.6999 61.1002C60.0999 63.2002 58.0999 64.6002 55.7999 65.7002C53.7999 66.6002 51.6999 67.2002 49.4999 67.5002C46.3999 67.9002 43.3999 68.0002 40.2999 67.4002C38.8999 67.2002 37.4999 66.8002 36.1999 66.2002C34.8999 65.6002 33.5999 64.8002 32.6999 63.7002C32.1999 63.1002 31.6999 62.5002 31.2999 61.8002C30.7999 60.9002 30.0999 60.2002 29.3999 59.4002C27.9999 58.4002 26.9999 57.0002 25.9999 55.6002C25.1999 54.4002 24.4999 53.2002 24.0999 51.9002C23.8999 51.2002 23.8999 50.6002 24.5999 50.2002C24.7999 50.1002 24.8999 49.9002 25.0999 49.8002C25.2999 49.7002 25.3999 49.5002 25.2999 49.3002C24.7999 47.9002 24.4999 46.4002 24.2999 44.9002C23.9999 43.1002 23.9999 41.3002 24.3999 39.4002C24.4999 38.8002 24.6999 38.7002 25.1999 38.6002C25.2999 38.6002 25.3999 38.6002 25.4999 38.6002C26.2999 38.7002 27.1999 38.8002 27.9999 38.9002C29.4999 39.2002 30.8999 39.8002 32.2999 40.4002C33.9999 41.2002 35.4999 42.1002 36.9999 43.3002C37.0999 43.4002 37.2999 43.4002 37.3999 43.4002C38.5999 42.8002 39.8999 42.3002 41.0999 41.7002C42.7999 40.9002 44.5999 40.1002 46.2999 39.2002C46.7999 39.0002 47.1999 38.7002 47.4999 38.3002C47.7999 37.8002 48.1999 37.3002 48.4999 36.8002C49.4999 35.0002 50.4999 33.2002 51.5999 31.4002C52.3999 30.1002 53.2999 29.0002 54.3999 28.0002C54.5999 27.9002 54.5999 27.7002 54.5999 27.5002C54.5999 27.2002 54.5999 27.0002 54.5999 26.7002C54.6999 26.1002 54.7999 25.6002 55.0999 25.1002C55.6999 24.0002 56.6999 23.8002 57.7999 23.9002C58.9999 24.1002 59.9999 24.9002 60.0999 26.2002C60.0999 26.3002 60.1999 26.3002 60.1999 26.4002C60.2999 26.4002 60.2999 26.3002 60.2999 26.3002C60.5999 26.1002 60.8999 25.8002 61.2999 25.6002C62.0999 25.2002 62.8999 25.3002 63.6999 25.6002C64.7999 26.0002 65.5999 27.1002 65.5999 28.3002C65.5999 29.3002 65.1999 30.1002 64.4999 30.8002C64.2999 31.0002 64.2999 31.1002 64.4999 31.3002C65.1999 31.9002 65.9999 32.5002 66.6999 33.1002C67.0999 33.4002 67.3999 33.8002 67.7999 34.3002C67.9999 34.6002 67.9999 34.8002 67.5999 34.9002C67.1999 35.1002 66.7999 35.2002 66.2999 35.4002C65.2999 35.7002 64.2999 36.0002 63.2999 36.3002C63.0999 36.4002 62.9999 36.5002 63.0999 36.7002C63.1999 37.0002 63.3999 37.2002 63.5999 37.5002C64.0999 38.2002 64.5999 38.8002 64.9999 39.5002C65.6999 40.8002 65.6999 42.1002 64.8999 43.3002C64.0999 44.6002 62.7999 45.0002 61.3999 44.8002C59.4999 44.6002 58.1999 43.1002 58.1999 41.2002C58.1999 40.1002 58.1999 39.0002 58.1999 37.9002C58.1999 37.7002 58.0999 37.6002 57.8999 37.5002C57.5999 37.5002 57.1999 37.4002 56.8999 37.3002C55.5999 36.9002 54.6999 35.8002 54.5999 34.4002C54.5999 34.3002 54.5999 34.2002 54.5999 34.1002C54.4999 34.1002 54.4999 34.1002 54.4999 34.1002ZM57.9999 32.6002C57.9999 33.4002 58.6999 34.1002 59.3999 34.1002C60.1999 34.1002 60.8999 33.5002 60.8999 32.6002C60.8999 31.8002 60.1999 31.1002 59.4999 31.1002C58.6999 31.1002 57.9999 31.7002 57.9999 32.6002Z" fill="#1F3773"/>
</g>
<defs>
<clipPath id="clip0_123_32">
<rect width="44" height="44" fill="white" transform="translate(24 24)"/>
</clipPath>
</defs>
</svg>
