<svg width="91" height="92" viewBox="0 0 91 92" fill="none" xmlns="http://www.w3.org/2000/svg">
<path fill-rule="evenodd" clip-rule="evenodd" d="M60.7739 59.8163C58.8445 59.8163 57.2367 58.1908 57.2367 55.9152C57.2367 53.6396 58.8445 52.0141 60.7739 52.0141C62.3816 52.0141 63.3463 52.9894 63.6678 53.9647L66.8834 53.8021C66.2403 51.2014 63.9894 48.9258 60.9347 48.9258C57.3976 48.9258 54.3428 51.8516 54.3428 55.7527C54.3428 59.6537 57.2368 62.5795 60.9347 62.5795C64.1502 62.5795 66.4011 60.3039 67.0442 57.7032L63.8286 57.5406C63.5071 58.841 62.5424 59.8163 60.7739 59.8163ZM42.9276 36.5724V32.8339H45.9823C47.1078 32.8339 47.9117 33.6466 47.9117 34.7845C47.9117 35.7597 47.1078 36.735 45.9823 36.735H42.9276V36.5724ZM42.9276 26.6572H45.6608C46.6254 26.6572 47.4293 27.47 47.4293 28.2827C47.4293 29.0954 46.6254 29.9081 45.6608 29.9081H42.9276V26.6572ZM49.0371 31.0459C49.0371 31.0459 50.9664 30.2332 50.9664 27.9576C50.9664 25.5194 49.0371 23.5689 46.1431 23.5689H39.3905V39.4982H46.4647C49.5194 39.4982 51.6095 37.3852 51.6095 34.7845C51.6095 32.1837 49.0371 31.0459 49.0371 31.0459ZM35.5318 63.5548L36.4965 66.318H39.8728L34.8887 52.0141H31.5124L26.5283 66.318H29.9046L30.8693 63.5548H35.5318ZM31.5124 60.629L33.1201 55.9152L34.7279 60.629H31.5124ZM33.1201 43.7244C41.4806 43.7244 48.2332 50.5512 48.2332 59.0035C48.2332 67.4558 41.4806 74.2827 33.1201 74.2827C24.7597 74.2827 18.0071 67.4558 18.0071 59.0035C18.0071 50.5512 24.7597 43.7244 33.1201 43.7244ZM60.2915 43.3993C67.2049 43.3993 72.8322 49.0883 72.8322 56.0777C72.8322 63.0671 67.2049 68.7562 60.2915 68.7562C55.7897 68.7562 51.7703 66.318 49.6802 62.7421C50.0018 61.6042 50.0018 60.3039 50.0018 59.1661C50.0018 56.5654 49.5194 54.1272 48.394 52.0141C50.0018 46.9753 54.8251 43.3993 60.2915 43.3993ZM45.5 16.5795C55.629 16.5795 63.6678 24.8693 63.6678 34.947C63.6678 37.2226 63.3463 39.3357 62.5424 41.2862C61.7385 41.1237 61.0954 41.1237 60.2915 41.1237C54.5035 41.1237 49.5194 44.5371 47.1078 49.4134C44.053 44.8622 38.9081 41.7739 33.1201 41.7739C31.6731 41.7739 30.2262 41.9364 28.9399 42.2615C27.9753 39.9859 27.3322 37.3852 27.3322 34.7845C27.1714 24.8693 35.371 16.5795 45.5 16.5795ZM91 46C91 71.5194 70.5813 92 45.5 92C20.258 92 0 71.3569 0 46C0 20.4806 20.4187 0 45.5 0C70.5813 0 91 20.6431 91 46Z" fill="#1F3773"/>
</svg>
