<svg width="91" height="92" viewBox="0 0 91 92" fill="none" xmlns="http://www.w3.org/2000/svg">
<path fill-rule="evenodd" clip-rule="evenodd" d="M48.7901 62.9559C48.7901 63.4427 48.6296 63.9295 49.2716 64.4162C49.7531 64.903 50.3951 64.7407 50.8765 64.254C51.679 63.4427 51.1975 62.1446 50.0741 62.1446C49.4321 61.9824 48.7901 62.4691 48.7901 62.9559ZM44.2963 43.8095C44.2963 44.2963 44.2963 44.6208 44.7778 44.9453C45.4198 45.5944 46.8642 45.2698 46.8642 43.8095C46.7037 42.3492 44.2963 42.3492 44.2963 43.8095ZM58.2593 55.1675C58.2593 55.6543 58.2593 55.8166 58.5802 56.1411C59.3827 57.1146 60.8272 56.1411 60.8272 55.1675C60.8272 53.7072 58.2593 53.7072 58.2593 55.1675ZM30.9753 55.1675C30.9753 56.6279 32.4198 56.9524 33.2222 56.1411C34.0247 55.1675 33.2222 54.0317 32.2593 54.0317C31.6173 54.0317 30.9753 54.5185 30.9753 55.1675ZM45.5802 71.8801C48.1481 71.8801 50.5556 71.5555 52.642 71.0688C55.0494 70.4198 59.0617 69.1217 60.9877 67.8236L63.3951 66.3633C64.679 65.552 67.5679 63.1182 68.5309 61.8201C68.6914 61.6578 68.8519 61.4956 69.0123 61.3333L70.7778 59.224C71.4198 58.4127 72.8642 56.1411 73.3457 55.0053L74.6296 52.2469C75.2716 50.4621 76.0741 48.0282 76.3951 46.0811L76.8765 40.4021C76.8765 36.3457 70.4568 34.0741 67.2469 33.1005L60.3457 31.6402C59.8642 31.6402 59.8642 31.478 59.3827 31.478C58.4198 31.478 57.6173 31.1534 56.6543 31.1534L52.963 30.5044L52.1605 26.9347C51.5185 25.3122 50.716 24.1764 49.5926 22.8783L48.6296 21.7425C47.9877 21.0935 47.0247 20.2822 46.0617 20.1199C43.0123 19.4709 38.5185 26.7725 38.358 29.6931C38.358 30.8289 38.1975 30.6667 37.2346 30.8289L28.7284 31.9647C25.679 32.6138 24.5556 32.9383 21.9877 33.7496C21.6667 33.9118 21.5062 33.9118 21.1852 34.0741C20.7037 34.2363 20.2222 34.5608 19.7407 34.7231L18.2963 35.3721C16.6914 36.1834 14.4444 38.1305 14.4444 40.2399C14.4444 42.1869 14.4444 42.836 14.7654 44.7831L15.4074 48.0282C16.2099 51.1111 16.6914 52.2469 18.1358 55.1675L20.3827 58.7372C21.5062 60.3598 22.6296 61.6578 23.9136 62.9559C26.963 66.0388 30.6543 68.3104 34.5062 69.933C37.716 71.231 41.7284 71.8801 45.5802 71.8801ZM40.6049 30.6667C40.6049 29.6931 40.9259 28.7196 41.2469 28.0705C41.4074 27.5838 41.5679 27.4215 41.7284 26.9347C41.8889 26.6102 42.0494 26.2857 42.3704 25.9612L43.4938 24.5009C43.8148 24.0141 45.0988 22.716 45.4198 22.716C46.2222 22.716 48.4691 25.6367 48.7901 26.448C49.4321 27.746 49.4321 27.5838 50.0741 29.2063C51.358 33.1005 47.1852 37.157 43.1728 35.0476C41.7284 34.2363 40.6049 32.4515 40.6049 30.6667ZM22.3086 40.0776C22.3086 40.5644 22.3086 40.8889 22.4691 41.2134C23.2716 42.9982 26.642 43.6473 28.2469 43.9718C29.0494 44.134 30.0123 44.2963 30.9753 44.4586C32.0988 44.6208 35.6296 45.1076 36.5926 45.1076C37.5556 45.1076 38.679 45.2698 39.4815 45.2698C41.5679 45.5944 41.8889 42.836 40.1235 42.6737C38.037 42.5115 35.4691 42.5115 33.2222 42.1869L29.0494 41.5379C27.7654 41.3757 26.1605 40.8889 25.1975 40.4021C25.5185 39.9153 26.642 39.7531 27.1235 39.5908C28.4074 39.2663 30.3333 38.9418 31.7778 38.7795C32.2593 38.7795 32.5802 38.7795 33.0617 38.6173C33.5432 38.455 33.8642 38.6173 34.5062 38.455C34.9877 38.455 35.3086 38.2928 35.6296 38.2928C36.1111 38.2928 36.5926 38.2928 36.9136 38.2928C37.716 38.2928 38.679 38.1305 39.4815 38.1305C39.963 38.1305 40.4444 38.1305 40.9259 38.1305C41.5679 38.1305 41.5679 37.9683 42.2099 37.9683C42.6914 37.9683 43.1728 37.9683 43.4938 38.1305C44.6173 38.455 45.9012 38.455 47.0247 38.1305C47.8272 37.9683 48.7901 38.1305 49.5926 38.1305C50.0741 38.1305 50.5556 38.1305 51.037 38.1305C51.8395 38.1305 52.8025 38.2928 53.6049 38.2928C54.0864 38.2928 54.5679 38.2928 55.0494 38.2928C55.3704 38.2928 55.8519 38.455 56.1728 38.455C56.6543 38.455 57.1358 38.455 57.4568 38.455C57.9383 38.6173 58.0988 38.6173 58.7407 38.6173C60.6667 38.7795 64.037 39.4286 65.642 40.2399C65.1605 40.8889 61.9506 41.5379 60.9877 41.7002C60.5062 41.7002 60.3457 41.8624 59.8642 41.8624C58.4198 42.1869 56.9753 42.1869 55.5309 42.3492L50.8765 42.6737C50.3951 42.6737 50.2346 42.6737 50.0741 42.9982C49.4321 43.6473 49.4321 44.4586 50.0741 44.9453C50.3951 45.2698 50.716 45.2698 51.358 45.2698L61.7901 44.134C62.1111 44.134 62.2716 44.134 62.5926 43.9718C64.358 43.6473 70.2963 42.3492 68.2099 39.1041C67.5679 38.1305 66.6049 37.806 65.642 37.4815C64.358 36.9947 62.7531 36.6702 61.1481 36.3457C59.0617 36.0212 57.1358 35.8589 55.0494 35.5344L52.4815 35.3721C51.8395 35.3721 51.679 35.3721 51.1975 35.2099C51.358 34.8854 51.679 34.5608 51.8395 34.2363C52 33.9118 52.1605 33.425 52.4815 33.1005L52.8025 32.9383C53.284 32.9383 52.8025 32.9383 53.1235 32.9383L55.6914 33.2628C56.1728 33.2628 56.8148 33.425 57.2963 33.425L59.7037 33.7496C60.1852 33.9118 60.0247 33.9118 60.5062 33.9118C60.9877 33.9118 61.6296 34.0741 62.1111 34.2363L63.5556 34.5608C65.963 35.0476 68.3704 35.8589 70.4568 36.8325C73.5062 38.2928 76.2346 40.2399 72.2222 42.6737C72.0617 42.836 71.7407 42.9982 71.5802 43.1605C71.2593 43.3228 71.0988 43.3228 70.9383 43.485C68.0494 44.9453 64.8395 45.7566 61.6296 46.2434C59.8642 46.5679 56.3333 47.2169 54.7284 47.2169C53.9259 47.2169 53.4444 47.3792 52.8025 47.3792C48.7901 47.5414 44.4568 47.866 40.4444 47.5414C39.8025 47.5414 39.1605 47.3792 38.358 47.3792L31.4568 46.5679C31.1358 46.5679 30.8148 46.4056 30.4938 46.4056C27.284 46.0811 21.6667 44.4586 18.7778 42.6737C14.7654 40.2399 17.3333 38.2928 20.5432 36.8325C22.6296 35.8589 25.037 35.2099 27.284 34.7231L30.3333 34.0741C31.1358 33.9118 31.1358 33.9118 31.9383 33.9118L38.358 33.1005C38.5185 33.425 38.5185 33.2628 38.679 33.5873L39.642 35.2099C38.679 35.6967 36.9136 35.3721 35.7901 35.5344C35.4691 35.5344 34.8272 35.6966 34.6667 35.6966C34.1852 35.6966 33.8642 35.6966 33.3827 35.6966L29.6914 36.1834C29.3704 36.1834 29.0494 36.3457 28.5679 36.3457C28.2469 36.3457 27.9259 36.5079 27.4444 36.6702C26 37.157 22.3086 38.1305 22.3086 40.0776ZM45.5802 69.4462C42.8519 69.4462 41.7284 69.284 39.4815 68.7972L36.9136 67.9859C33.5432 66.6878 31.6173 65.8765 28.7284 63.7672L27.284 62.7937C25.5185 61.4956 25.358 61.0088 23.9136 59.5485C23.1111 58.7372 22.3086 57.7637 21.6667 56.7901C21.1852 56.1411 20.8642 55.4921 20.3827 54.6808L17.6543 48.1905L16.8519 44.7831C17.1728 44.7831 18.7778 45.7566 19.5802 46.0811C21.3457 46.8924 23.9136 47.7037 25.8395 48.1905L30.9753 49.164C31.2963 49.164 31.4568 49.164 31.7778 49.3263C33.8642 49.6508 34.6667 49.6508 36.4321 49.8131C37.0741 49.8131 37.5556 49.9753 38.1975 49.9753C40.1235 49.9753 42.0494 50.1376 44.2963 50.1376L49.7531 49.9753C52.642 49.813 56.3333 49.4885 59.2222 49.164C62.9136 48.6772 68.8519 47.2169 72.0617 45.4321C72.3827 45.2698 72.5432 45.2698 72.7037 45.1076C73.0247 44.9453 73.0247 44.7831 73.5062 44.7831L72.8642 47.3792C72.3827 49.164 72.2222 49.4885 71.5802 51.1111L71.0988 52.2469C70.4568 53.7072 69.1728 56.1411 68.0494 57.4392C66.7654 59.0617 66.6049 59.3862 65 61.0088C63.5556 62.4691 60.6667 64.5785 58.9012 65.552C58.7407 65.7143 58.5802 65.7143 58.4198 65.8765C57.6173 66.2011 56.9753 66.5256 56.1728 67.0123C53.7654 68.1481 51.679 68.4727 49.1111 68.9594C48.7901 68.9594 48.6296 68.9594 48.3086 68.9594C47.8272 69.284 46.7037 69.4462 45.5802 69.4462ZM91 45.9189C91 71.3933 70.6173 92 45.4198 92C20.3827 92 0 71.3933 0 45.9189C0 20.4444 20.3827 0 45.4198 0C70.6173 0 91 20.6067 91 45.9189Z" fill="#1F3773"/>
</svg>
