<svg width="92" height="92" viewBox="0 0 92 92" fill="none" xmlns="http://www.w3.org/2000/svg">
<circle opacity="0.2" cx="46" cy="46" r="45.5" stroke="#1F3773"/>
<g clip-path="url(#clip0_123_30)">
<path d="M50.8571 62.9458C50.4286 62.6585 50 62.3713 49.8571 61.7967C49.5714 61.3659 49.4286 60.7913 49.4286 60.0732C49.4286 59.6423 49.4286 59.2114 49.5714 58.7805C49.7143 58.3496 49.8571 57.9187 50 57.4878C50 57.3442 50 57.3442 50.1429 57.2005C50.1429 57.0569 50.1429 57.0569 50.2857 57.0569L52.4286 52.4607H54.7143L52.1429 57.7751L51.5714 57.4878C51.7143 57.2005 51.8571 57.0569 52.1429 56.9133C52.4286 56.7696 52.7143 56.7696 53 56.7696C53.5714 56.7696 54.1429 56.9133 54.4286 57.2005C54.8571 57.4878 55.1429 57.7751 55.4286 58.3496C55.7143 58.7805 55.7143 59.355 55.7143 60.0732C55.7143 60.7913 55.5714 61.3659 55.2857 61.7967C55 62.2276 54.7143 62.6585 54.2857 62.9458C53.8571 63.2331 53.2857 63.3767 52.5714 63.3767C51.8571 63.2331 51.2857 63.0894 50.8571 62.9458ZM53.2857 61.0786C53.4286 60.935 53.5714 60.6477 53.5714 60.2168C53.5714 59.7859 53.4286 59.4986 53.2857 59.2114C53.1429 58.9241 52.8571 58.9241 52.4286 58.9241C52.1429 58.9241 51.8571 59.0677 51.5714 59.355C51.4286 59.6423 51.2857 59.9295 51.2857 60.3604C51.2857 60.7913 51.4286 61.0786 51.5714 61.2222C51.7143 61.3659 52 61.5095 52.4286 61.5095C52.8571 61.3659 53.1429 61.2222 53.2857 61.0786ZM37.1429 62.9458C36.5714 62.6585 36.2857 62.3713 36 61.9404C35.7143 61.5095 35.5714 60.935 35.5714 60.3604H37.5714C37.5714 60.6477 37.7143 60.7913 37.7143 60.935C37.8571 61.0786 38 61.2222 38.1429 61.2222C38.2857 61.3659 38.4286 61.3659 38.7143 61.3659C39.1429 61.3659 39.4286 61.2222 39.5714 61.0786C39.7143 60.935 39.8571 60.5041 39.8571 60.2168V59.9295C39.8571 59.4986 39.7143 59.2114 39.5714 58.9241C39.4286 58.6369 39.1429 58.6369 38.8571 58.6369H38V56.7696H38.8571C39.1429 56.7696 39.2857 56.626 39.4286 56.4824C39.5714 56.3388 39.5714 56.0515 39.5714 55.6206V55.477C39.5714 55.1897 39.4286 54.9024 39.2857 54.7588C39.1429 54.6152 38.8571 54.4715 38.5714 54.4715C38.4286 54.4715 38.2857 54.4715 38.1429 54.6152C38 54.7588 37.8571 54.9024 37.7143 55.0461C37.5714 55.1897 37.5714 55.477 37.4286 55.6206H35.4286C35.4286 54.9024 35.7143 54.4715 36 53.897C36.2857 53.4661 36.7143 53.0352 37.1429 52.748C37.5714 52.4607 38.1429 52.3171 38.7143 52.3171C39.7143 52.3171 40.4286 52.6043 40.8571 53.0352C41.4286 53.4661 41.5714 54.1843 41.5714 55.0461V55.3333C41.5714 55.7642 41.4286 56.1951 41.1429 56.626C40.8571 57.0569 40.5714 57.2005 40.1429 57.4878C40.7143 57.6314 41 57.9187 41.2857 58.3496C41.5714 58.7805 41.7143 59.355 41.7143 59.9295V60.2168C41.7143 60.7913 41.5714 61.3659 41.2857 61.7967C41 62.2276 40.7143 62.5149 40.2857 62.8022C39.8571 63.0894 39.2857 63.0894 38.5714 63.0894C38.1429 63.2331 37.5714 63.2331 37.1429 62.9458ZM44 57.2005H47.5714V58.6369H44V57.2005ZM45.7143 20C45.7143 20 40.5714 24.5962 40.5714 28.9051C40.5714 31.7778 42.8571 34.0759 45.7143 34.0759C48.5714 34.0759 50.8571 31.7778 50.8571 28.9051C51 24.4526 45.7143 20 45.7143 20ZM44.4286 33.0705C44.2857 32.9268 44.1429 32.9268 44 32.9268C43.8571 32.9268 43.7143 32.7832 43.5714 32.6396C43.4286 32.6396 43.4286 32.4959 43.2857 32.4959C43.1429 32.4959 43.1429 32.3523 43 32.2087C42.8571 32.065 42.7143 31.7778 42.4286 31.6341C42.4286 31.4905 42.4286 31.4905 42.2857 31.3469L42.1429 31.2033C42.1429 31.2033 42.1429 31.0596 42 31.0596C41.8571 30.7724 41.7143 30.4851 41.7143 30.1978C41.7143 30.0542 41.7143 29.9106 41.5714 29.7669V29.6233V29.336V29.1924V28.9051C41.5714 28.7615 41.5714 28.7615 41.5714 28.6179V28.3306C41.5714 28.187 41.5714 28.187 41.5714 28.0434C41.5714 27.8997 41.5714 27.8997 41.5714 27.7561C41.5714 27.6125 41.7143 27.4688 41.7143 27.3252C41.7143 27.3252 41.7143 27.1816 41.8571 27.1816V27.0379C41.8571 26.8943 42 26.7507 42 26.7507C42 26.7507 42 26.607 42.1429 26.607C42.1429 26.607 42.1429 26.4634 42.2857 26.4634C42.2857 26.3198 42.4286 26.1762 42.4286 26.1762C42.5714 26.0325 42.7143 25.7453 42.8571 25.6016C43 25.458 43.1429 25.3144 43.1429 25.1707C43.2857 25.0271 43.2857 25.0271 43.4286 24.8835L43.5714 24.7398C43.5714 24.7398 43.5714 24.8835 43.4286 25.0271C43.4286 25.1707 43.2857 25.3144 43.2857 25.458C43.2857 25.6016 43.1429 25.7453 43 26.0325C42.8571 26.1762 42.8571 26.4634 42.7143 26.7507C42.7143 26.8943 42.5714 27.0379 42.5714 27.1816C42.5714 27.3252 42.5714 27.4688 42.4286 27.6125C42.4286 27.7561 42.4286 27.8997 42.2857 28.0434C42.2857 28.187 42.2857 28.3306 42.2857 28.4743V28.6179V28.9051V29.1924C42.2857 29.1924 42.2857 29.336 42.2857 29.4797V29.7669V29.9106C42.2857 30.0542 42.2857 30.1978 42.2857 30.3415C42.2857 30.4851 42.2857 30.6287 42.4286 30.7724C42.4286 30.916 42.5714 31.0596 42.5714 31.2033V31.3469C42.5714 31.3469 42.5714 31.4905 42.7143 31.4905C42.7143 31.6341 42.8571 31.7778 42.8571 31.7778C42.8571 31.9214 43 31.9214 43 32.065C43 32.065 43 32.2087 43.1429 32.2087C43.1429 32.2087 43.1429 32.3523 43.2857 32.3523C43.2857 32.4959 43.4286 32.4959 43.4286 32.6396C43.4286 32.7832 43.5714 32.7832 43.5714 32.7832C43.7143 32.9268 43.8571 33.0705 43.8571 33.0705C44.4286 32.9268 44.4286 32.9268 44.4286 33.0705ZM67.8571 28.6179H53V30.7724H67.8571C69.5714 30.7724 71 32.2087 71 33.9322V63.0894C71 65.9621 68.5714 68.4038 65.7143 68.4038H52.7143C52.5714 68.4038 52.4286 68.4038 52.2857 68.4038L46.5714 70.5583C45.8571 70.8455 45 70.8455 44.2857 70.5583L38.5714 68.4038C38.4286 68.4038 38.2857 68.4038 38.1429 68.4038H25.2857C22.4286 68.4038 20 66.1057 20 63.0894V33.9322C20 32.2087 21.4286 30.7724 23.1429 30.7724H38.4286V28.6179H23.2857C20.2857 28.6179 18 31.0596 18 33.9322V63.0894C18 67.1111 21.2857 70.4146 25.2857 70.4146H38.1429L43.5714 72.5691C44.1429 72.8564 44.8571 72.8564 45.4286 72.8564C46 72.8564 46.7143 72.7127 47.2857 72.5691L52.7143 70.4146H65.5714C69.5714 70.4146 72.8571 67.1111 72.8571 63.0894V33.9322C73 31.0596 70.7143 28.6179 67.8571 28.6179ZM56.4286 47.4336L58.2857 37.8103H60.7143L62.5714 47.4336H60.5714L60.2857 45.4228H58.8571L58.5714 47.4336H56.4286ZM59 44.1301H60L59.4286 40.3957L59 44.1301ZM52.2857 47.5772C51.8571 47.5772 51.4286 47.4336 51 47.29C50.7143 47.1463 50.4286 46.8591 50.1429 46.5718C50 46.2846 49.8571 45.9973 49.7143 45.5664C49.5714 45.1355 49.5714 44.7046 49.5714 44.2737V41.1138C49.5714 40.6829 49.5714 40.252 49.7143 39.9648C49.7143 39.6775 49.8571 39.3902 50 39.103C50.1429 38.8157 50.2857 38.5285 50.5714 38.3848C50.8571 38.2412 51 38.0976 51.4286 37.9539C51.8571 37.8103 52.1429 37.8103 52.5714 37.8103C53 37.8103 53.2857 37.8103 53.7143 37.9539C54 38.0976 54.2857 38.0976 54.5714 38.3848C54.7143 38.5285 55 38.6721 55.1429 38.9593C55.2857 39.2466 55.4286 39.3902 55.4286 39.6775C55.4286 39.9648 55.5714 40.252 55.5714 40.6829V41.2575H53.5714V40.5393C53.5714 40.3957 53.5714 40.252 53.5714 40.252C53.5714 40.1084 53.5714 40.1084 53.5714 39.9648C53.5714 39.8211 53.5714 39.8211 53.4286 39.6775L53.2857 39.5339C53.1429 39.5339 53.1429 39.5339 53 39.5339C52.8571 39.5339 52.7143 39.5339 52.7143 39.6775C52.5714 39.6775 52.5714 39.8211 52.4286 39.8211C52.4286 39.9648 52.2857 39.9648 52.2857 40.1084C52.2857 40.252 52.2857 40.3957 52.2857 40.3957C52.2857 40.5393 52.2857 40.6829 52.2857 40.8266V45.2791C52.2857 45.71 52.2857 45.9973 52.4286 46.1409C52.5714 46.4282 52.7143 46.4282 53 46.4282C53.5714 46.4282 53.8571 45.9973 53.8571 45.1355V44.1301H53V42.8374H55.7143V47.8645H54.2857L54.1429 47.0027C53.5714 47.29 53.1429 47.5772 52.2857 47.5772ZM44.4286 47.4336V37.8103H48.7143V39.2466H46.5714V41.5447H48.2857V42.981H46.5714V45.8537H48.7143V47.29H44.4286V47.4336ZM35.8571 47.4336L36 37.8103H38.2857L39.2857 43.4119L40.4286 37.8103H42.5714L42.7143 47.4336H41.1429L41 41.1138L39.8571 47.4336H38.5714L37.4286 40.9702L37.2857 47.4336H35.8571ZM31.4286 47.5772C30.8571 47.5772 30.4286 47.5772 30.1429 47.4336C29.7143 47.29 29.4286 47.0027 29.2857 46.7154C29 46.4282 28.8571 46.1409 28.8571 45.71C28.7143 45.2791 28.7143 44.8482 28.7143 44.4173V40.8266C28.7143 40.252 28.7143 39.8211 28.8571 39.5339C29 39.103 29.1429 38.8157 29.2857 38.5285C29.5714 38.2412 29.8571 38.0976 30.1429 37.9539C30.5714 37.8103 31 37.8103 31.4286 37.8103C32.4286 37.8103 33.1429 38.0976 33.7143 38.6721C34.1429 39.2466 34.4286 39.9648 34.4286 40.9702V44.4173C34.4286 45.4228 34.1429 46.2846 33.7143 46.7154C33.2857 47.29 32.4286 47.5772 31.4286 47.5772ZM31.1429 45.9973C31.2857 45.9973 31.2857 45.9973 31.4286 45.9973C31.5714 45.9973 31.7143 45.9973 31.7143 45.9973C31.8571 45.9973 31.8571 45.8537 31.8571 45.8537C31.8571 45.8537 32 45.71 32 45.5664C32 45.4228 32 45.4228 32 45.2791C32 45.1355 32 45.1355 32 44.9919V40.3957C32 40.252 32 40.1084 32 40.1084C32 40.1084 32 39.9648 32 39.8211C32 39.6775 32 39.6775 31.8571 39.5339C31.7143 39.3902 31.7143 39.3902 31.7143 39.3902C31.5714 39.3902 31.5714 39.3902 31.4286 39.3902C31.2857 39.3902 31.1429 39.3902 31.1429 39.3902C31 39.3902 31 39.5339 31 39.5339C31 39.5339 30.8571 39.6775 30.8571 39.8211C30.8571 39.9648 30.8571 39.9648 30.8571 40.1084C30.8571 40.252 30.8571 40.252 30.8571 40.3957V44.9919C30.8571 45.1355 30.8571 45.2791 30.8571 45.2791C30.8571 45.4228 30.8571 45.4228 30.8571 45.5664C30.8571 45.71 30.8571 45.71 31 45.8537C31 45.8537 31 45.9973 31.1429 45.9973Z" fill="#1F3773"/>
</g>
<defs>
<clipPath id="clip0_123_30">
<rect width="55" height="53" fill="white" transform="translate(18 20)"/>
</clipPath>
</defs>
</svg>
