<svg width="92" height="92" viewBox="0 0 92 92" fill="none" xmlns="http://www.w3.org/2000/svg">
<circle opacity="0.2" cx="46" cy="46" r="45.5" stroke="#1F3773"/>
<g clip-path="url(#clip0_123_29)">
<path d="M70.9531 40.877C70.1679 38.0001 65.4568 26.6231 57.6049 29.8924C55.9037 30.5462 55.5111 31.4616 54.3333 31.4616C54.0716 31.4616 52.8938 31.4616 51.0617 29.1078C47.921 25.1847 47.7901 21.7847 47.1358 21.2616C46.4815 21.0001 45.8272 20.8693 45.1728 21.1308C44.2568 21.3924 43.3407 22.177 42.8173 22.9616C42.6864 23.3539 42.5556 23.6155 42.4247 23.877C42.4247 24.0078 42.4247 24.0078 42.4247 24.1385C42.4247 24.2693 42.4247 24.2693 42.4247 24.4001C42.2938 25.4462 44.7802 31.0693 47.6593 33.9462C48.9679 35.3847 49.6222 35.6462 50.1457 36.8231C50.6691 37.8693 50.8 38.7847 50.9309 40.0924C50.9309 40.877 50.9309 41.6616 50.9309 42.4462C50.4074 47.8078 47.7901 51.8616 47.7901 51.8616C46.8741 53.1693 46.0889 54.3462 44.6494 55.0001C42.5556 56.0462 40.3309 55.6539 39.8074 55.5232C37.8444 55.1308 37.321 54.3462 35.4889 54.477C34.7037 54.477 34.1802 54.7385 33.5259 54.477C32.479 54.0847 32.0864 53.3001 31.4321 52.777C29.4691 51.077 25.9358 52.1231 25.5432 52.2539C22.6642 53.1693 21.3556 55.6539 20.8321 56.4385C20.5704 57.0924 20.3086 57.7462 19.916 59.0539C19.3926 60.8847 19.1309 61.9308 19 62.8462C19 63.3693 19 63.7616 19 64.1539C19.2617 65.2001 23.5802 67.6847 24.758 66.9001C25.9358 66.1155 25.9358 62.8462 27.5062 61.9308C27.7679 61.8001 28.4222 61.5385 29.0765 61.6693C29.8617 61.8001 30.1235 62.4539 30.7778 63.3693C30.7778 63.3693 30.9086 63.5001 32.7407 65.9847C34.5728 68.4693 37.1901 69.6462 38.3679 70.0385C39.6765 70.5616 40.5926 70.8232 41.7704 71.0847C43.3407 71.477 46.6123 72.1308 50.6691 71.7385C52.2395 71.6078 55.2494 71.2155 58.6519 69.6462C59.437 69.2539 62.9704 67.5539 66.242 63.6308C68.5975 60.8847 69.7753 58.1385 70.2988 56.5693C70.5605 55.7847 71.4765 53.1693 71.7383 49.5078C72.2617 45.4539 71.3457 42.1847 70.9531 40.877Z" fill="#1F3773"/>
</g>
<defs>
<clipPath id="clip0_123_29">
<rect width="53" height="51" fill="white" transform="translate(19 21)"/>
</clipPath>
</defs>
</svg>
