<svg width="91" height="92" viewBox="0 0 91 92" fill="none" xmlns="http://www.w3.org/2000/svg">
<path fill-rule="evenodd" clip-rule="evenodd" d="M28.136 29.0954C28.136 31.0459 27.9753 30.2332 26.5283 30.8834C25.5636 31.371 24.7597 31.8587 24.1166 32.8339C23.4735 33.8092 23.4735 33.8092 23.152 34.7845C22.9912 35.1095 22.8304 35.4346 22.8304 35.9223V69.894C22.8304 70.3816 22.9912 70.5442 23.152 71.0318C23.3128 71.8445 23.6343 72.4947 24.1166 72.9823C25.7244 74.7703 25.4028 74.1201 26.5283 74.9329C26.8498 75.0954 28.4576 75.583 28.9399 75.583H62.7032C66.8834 75.583 68.8127 71.0318 66.7226 71.3569C65.9187 71.5194 65.4364 73.7951 63.0247 73.7951H58.8445C58.523 73.7951 58.2014 73.6325 58.2014 73.3074V66.8057C58.2014 66.4806 58.2014 66.4806 58.523 66.4806H63.6678C64.1502 66.4806 64.6325 66.8057 64.9541 66.9682C65.758 67.6184 65.758 67.7809 66.2403 68.4311C66.4011 68.5936 66.5618 68.7562 66.8834 68.7562C67.0442 68.7562 67.3657 68.7562 67.5265 68.5936C68.0088 68.2686 67.848 67.6184 67.5265 67.1307L67.0442 66.4806L66.7226 66.1555C66.4011 65.9929 66.4011 65.8304 66.2403 65.3428C66.8834 65.0177 67.3657 64.3675 67.8481 63.7173C69.1343 61.6042 68.0088 59.6537 68.3304 58.6784C68.6519 57.8657 68.8127 57.7032 68.8127 56.5654C68.8127 53.477 67.205 52.5018 64.9541 50.2262C64.1502 49.4134 63.1855 48.6007 62.3816 47.6254L61.0954 46.3251C58.6837 43.8869 59.1661 45.0247 59.1661 40.4735C59.1661 38.6855 59.4877 35.7597 58.523 34.1343C58.3622 33.9717 58.3622 33.9717 58.3622 33.6466C58.2014 33.159 58.2014 33.3216 57.8799 32.8339C57.7191 32.6714 57.7191 32.5088 57.5583 32.5088L57.3975 32.3463C57.2368 32.1837 57.3975 32.3463 57.2368 32.1837C56.1113 31.2085 55.4682 30.7209 53.8604 30.3958C53.6996 27.6325 53.6996 29.258 55.629 28.2827C56.1113 27.9576 56.5937 27.47 56.7544 26.8198C56.9152 26.0071 56.9152 25.1943 56.4329 24.7067C55.9505 24.0565 55.3074 23.894 54.9859 23.5689C54.9859 21.9435 55.3074 19.0177 54.6643 17.8799C54.182 16.9046 53.5389 16.417 52.4134 16.417C49.5194 16.417 30.3869 16.2544 29.7438 16.417C29.4223 16.417 28.94 16.7421 28.7792 17.0671C28.6184 17.2297 28.6184 17.2297 28.4576 17.5548L28.2968 17.8799C27.6537 18.8551 27.9753 21.4558 27.9753 22.9187C27.9753 23.7315 27.9753 23.7314 27.3322 23.894C26.5283 24.2191 26.2067 25.0318 25.8852 25.8445C25.5636 26.9823 26.5283 28.4452 27.6537 28.7703C27.4929 28.7703 28.136 28.6078 28.136 29.0954ZM28.7792 19.3428C28.7792 18.2049 29.4223 17.8799 30.5477 17.8799H50.9664C51.7703 17.8799 52.4134 18.2049 52.4134 19.0177V22.7562C52.4134 23.0813 52.2527 23.5689 51.9311 23.5689H29.4223C29.1007 23.5689 29.1007 23.5689 28.9399 23.4064C28.6184 22.7562 28.7792 20.6431 28.7792 19.3428ZM26.6891 26.0071C26.6891 25.5194 27.493 25.1943 27.9753 25.1943H53.2173C53.8604 25.1943 54.182 25.682 54.3428 26.0071C54.3428 26.3322 54.0212 26.8198 53.6997 26.8198H27.3322C26.8498 26.9823 26.6891 26.4947 26.6891 26.0071ZM29.7438 29.0954C29.7438 28.7703 29.7438 28.7703 30.0654 28.7703H50.9664C51.6096 28.7703 51.4488 30.0707 51.1272 30.5583H29.7438C29.7438 29.7456 29.7438 29.9081 29.7438 29.0954ZM24.4382 35.9223C24.4382 35.4346 24.7597 34.6219 24.9205 34.2968C25.4028 33.4841 26.2067 32.8339 27.1714 32.3463C27.3322 32.3463 28.6184 32.0212 28.9399 32.0212H52.0919C52.735 32.0212 53.5389 32.1837 54.0212 32.3463C55.4682 32.6714 56.9152 34.7845 56.9152 36.2473C56.9152 37.5477 57.076 41.2862 56.7544 42.2615C56.1113 42.0989 56.1113 41.6113 54.9859 40.9611L54.6643 40.7986C54.5035 40.636 54.6643 40.7986 54.5036 40.636L52.735 40.1484H42.606C42.1237 40.1484 41.8021 40.4735 41.8021 40.9611C41.8021 41.9364 42.4452 41.7739 42.9276 41.7739C44.2138 41.7739 47.4293 41.6113 48.394 41.9364C48.394 42.424 48.2332 42.424 48.0725 42.9117C47.9117 43.2368 47.7509 43.3993 47.5901 43.7244C46.947 45.5124 47.1078 47.4629 48.2332 48.9258C48.394 49.2509 48.5548 49.4134 48.8764 49.7385C49.5195 50.5512 51.4488 52.1767 51.4488 52.5018C51.4488 56.2403 51.7703 55.7527 50.3233 55.7527H47.4293C46.7862 55.7527 46.947 55.9152 46.3039 55.5901C46.3039 53.6396 45.8215 52.5018 45.0177 51.0389C44.8569 50.8763 44.8569 50.8763 44.8569 50.7138L41.9629 45.3498C40.3551 42.9117 39.2297 46 38.4258 47.4629C38.2651 47.788 38.265 47.6254 38.1043 48.1131L36.0142 52.1767C34.728 54.2898 34.8887 57.2155 36.6573 59.0035C37.1396 59.6537 38.9082 60.7915 39.8728 60.7915H41.6414C42.1237 60.7915 42.4452 60.4664 42.606 60.9541C42.7668 61.2792 42.606 61.7668 42.606 62.0919C42.606 62.9046 43.0884 63.0671 43.0884 63.8799C41.9629 64.2049 32.477 64.0424 30.5477 64.0424C30.2261 64.0424 29.9046 63.8799 29.9046 63.5548V42.9117C29.9046 41.9364 30.7085 42.0989 31.6732 42.0989H39.2297C39.5513 41.4488 39.5512 40.4735 38.5866 40.4735H30.387C29.9046 40.4735 29.2615 40.7986 28.9399 41.1237C28.6184 41.4488 28.7792 41.2862 28.4576 41.7739C28.2968 42.0989 28.136 42.2615 28.136 42.5866V63.3922C28.136 64.53 28.9399 65.8304 30.5477 65.8304C33.1201 65.8304 43.2491 65.6678 44.3746 65.9929C44.2138 66.318 44.053 66.6431 43.7315 66.8057C43.2491 67.4558 42.9276 67.7809 42.7668 68.5936C42.4452 69.5689 42.2845 71.0318 42.7668 72.0071C42.9276 72.3322 42.9276 72.4947 43.0884 72.6572C43.2491 72.8198 43.4099 73.1449 43.4099 73.3074L43.7315 73.9576C43.4099 73.9576 43.4099 74.1201 42.9276 74.1201H28.4576C27.8145 74.1201 27.3322 73.9576 26.8498 73.6325C26.3675 73.47 26.0459 73.1449 25.7244 72.8198C25.4028 72.4947 25.0813 72.3322 24.9205 71.682C24.7597 71.3569 24.4382 70.7067 24.4382 70.2191V35.9223ZM49.5195 43.7244C50.6449 41.9364 52.8958 41.4488 54.8251 42.9117L57.8799 45.8375L58.2014 46.1625C58.2014 46.9753 58.0406 46.8127 57.076 47.788L54.5036 50.5512C54.0212 51.0389 53.6996 51.5265 53.0565 51.689C52.4134 51.364 51.288 49.9011 50.6449 49.2509C49.1979 47.788 48.8764 47.3004 48.8764 45.3498L49.5195 43.7244ZM54.6643 52.9894C54.6643 52.6643 55.1466 52.3392 55.629 51.8516L55.7898 51.689C55.9505 51.5265 55.9506 51.5265 56.1113 51.364L56.9152 50.5512C57.2368 50.2262 57.3975 50.2262 57.5583 49.9011L59.3269 48.1131C59.97 48.2756 59.8092 48.2756 60.2915 48.6007C61.2562 49.576 61.2562 49.2509 59.6484 50.8763C58.6838 51.8516 56.4329 54.2898 55.7898 54.6148C55.4682 54.1272 54.6643 53.477 54.6643 52.9894ZM54.0212 54.9399C54.3428 55.265 54.3428 55.265 54.5036 55.5901L53.3781 55.7527C53.2173 55.5901 53.2173 55.265 53.2173 54.9399C53.2173 54.9399 53.3781 54.6148 53.3781 54.4523C53.6997 54.6148 53.6996 54.6148 54.0212 54.9399ZM36.6573 54.7774C36.6573 53.9647 38.1043 51.5265 38.4258 50.7138L39.8728 47.788C40.3551 46.9753 40.0336 46.9753 40.5159 46.9753C40.8375 46.9753 41.4806 48.6007 41.8021 48.9258C41.9629 49.0883 41.9629 49.2509 41.9629 49.4134L43.0884 51.5265C43.2491 51.8516 43.0884 51.5265 43.2491 51.8516L44.053 53.477C44.2138 53.8021 44.3746 55.1025 44.3746 55.5901L44.053 56.7279C44.053 56.8905 43.7315 57.3781 43.5707 57.5406C43.2491 58.1908 42.7668 58.3534 42.2845 58.6784C41.159 59.1661 40.6767 59.3286 39.3905 59.0035C39.3905 59.0035 39.0689 59.0035 38.9081 58.841L38.265 58.5159C37.4612 58.1908 36.9788 57.3781 36.6573 56.5654C36.818 56.0777 36.6573 55.4276 36.6573 54.7774ZM57.3975 55.7527C57.3975 55.4276 60.7738 52.1767 61.0954 51.8516L61.5778 51.364C61.5778 51.2014 61.5778 51.364 61.7385 51.2014C62.0601 50.8763 62.0601 50.8763 62.2209 50.8763C62.7032 50.8763 65.1149 53.477 65.758 54.1272C65.758 54.1272 65.7579 54.1272 65.9187 54.2898C66.2403 54.7774 66.4011 54.9399 66.5619 55.5901C66.7226 56.7279 66.8834 57.5406 66.0795 58.6784L65.1148 59.6537C63.5071 60.629 63.0248 60.4664 61.7385 59.9788C60.7739 59.6537 59.3269 58.0283 58.523 57.2156C58.0407 56.7279 57.3975 56.2403 57.3975 55.7527ZM48.394 64.8551C46.947 64.8551 46.1431 64.53 45.3392 63.8799C44.8569 63.5548 44.6961 63.3922 44.5354 62.7421C43.7315 61.1166 44.053 58.841 45.6608 57.8657C45.8216 57.7032 46.1431 57.5406 46.3039 57.5406C47.1078 57.053 50.8057 57.2156 51.9311 57.2156C52.2527 57.2156 52.4134 57.3781 52.4134 57.7032V64.2049C52.4134 64.53 52.0919 64.6926 51.7703 64.6926H48.394V64.8551ZM57.8799 59.6537C57.8799 58.6785 59.3269 60.4664 59.97 60.9541C60.6131 61.6042 62.0601 61.9293 63.0247 61.9293C64.7933 61.9293 64.9541 61.6042 65.4364 61.2792C65.758 61.1166 65.9187 61.2792 66.2403 61.1166C66.2403 61.6042 66.0795 62.417 65.9187 62.7421C65.7579 62.9046 65.758 63.0671 65.5972 63.3922C65.4364 63.7173 65.4364 63.7173 65.2756 63.8799C64.7933 64.2049 64.6325 64.3675 64.1502 64.6926C63.6679 64.8551 63.5071 65.0177 62.7032 65.0177C61.5777 65.0177 58.2014 65.3428 58.2014 64.53V59.6537H57.8799ZM54.182 57.7032C54.182 57.3781 54.182 57.3781 54.5036 57.3781C55.1467 57.3781 56.2721 57.2155 56.2721 57.8657V64.3675C56.2721 65.0177 54.182 65.1802 54.182 64.53V57.7032ZM47.5901 73.9576C46.1431 73.9576 44.5353 72.6572 44.2138 71.1944C43.8922 69.5689 44.2138 67.9435 45.8215 66.9682C46.4647 66.6431 46.6255 66.4806 47.7509 66.4806C49.3587 66.4806 50.8057 66.4806 52.4134 66.4806C52.735 67.6184 52.5742 72.0071 52.5742 73.3074C52.5742 73.6325 52.4135 73.7951 52.0919 73.7951H47.5901V73.9576ZM54.182 66.9682C54.182 66.6431 54.182 66.6431 54.5036 66.6431C55.4682 66.6431 56.2721 66.4806 56.2721 67.1307V73.6325C56.2721 73.9576 55.9505 74.1201 55.629 74.1201C54.6643 74.1201 54.182 74.2827 54.182 73.7951V66.9682ZM91 46C91 71.5194 70.5813 92 45.5 92C20.258 92 0 71.3569 0 46C0 20.4806 20.4188 0 45.5 0C70.5813 0 91 20.6431 91 46Z" fill="#1F3773"/>
</svg>
