<svg width="92" height="92" viewBox="0 0 92 92" fill="none" xmlns="http://www.w3.org/2000/svg">
<circle opacity="0.2" cx="46" cy="46" r="45.5" stroke="#1F3773"/>
<g clip-path="url(#clip0_166_117)">
<path d="M37.4386 27.1716C37.2358 26.7486 36.7289 26.5794 36.3141 26.7862C34.8671 27.5288 33.7611 28.7226 33.1252 30.1608C32.3971 27.1998 29.798 24.9907 26.6736 24.9907H25.8994C25.6598 24.9907 25.4293 25.0941 25.2634 25.2821C25.1068 25.4701 25.033 25.7145 25.0699 25.9589C25.5307 29.2584 28.3234 31.7965 31.6782 31.7965H32.4524C32.5169 31.7965 32.5814 31.7683 32.6459 31.7495C32.5722 32.1725 32.5169 32.6049 32.5169 33.0467V36.0547C32.5169 36.5247 32.8948 36.9101 33.3556 36.9101C33.8164 36.9101 34.1943 36.5247 34.1943 36.0547V33.0467C34.1943 31.0256 35.3003 29.202 37.0699 28.2996C37.4846 28.1022 37.6505 27.5946 37.4386 27.1716Z" fill="#1F3773"/>
<path d="M58.2576 42.5127C53.5111 37.6716 45.7968 37.6716 41.0502 42.5127L37.806 45.8215C33.0595 50.6626 33.0595 58.5306 37.806 63.3717C42.5525 68.2127 50.2668 68.2127 55.0134 63.3717L58.2576 60.0628C62.9949 55.2217 62.9949 47.3443 58.2576 42.5127ZM43.1701 61.2848C43.1701 61.9052 42.6724 62.4128 42.0641 62.4128C41.4558 62.4128 40.9581 61.9052 40.9581 61.2848V60.1568H39.8521C39.2438 60.1568 38.7461 59.6492 38.7461 59.0288C38.7461 58.4084 39.2438 57.9007 39.8521 57.9007H42.0641C42.6724 57.9007 43.1701 58.4084 43.1701 59.0288V61.2848ZM43.1701 54.5167C43.1701 55.1371 42.6724 55.6447 42.0641 55.6447C41.4558 55.6447 40.9581 55.1371 40.9581 54.5167V53.3887H39.8521C39.2438 53.3887 38.7461 52.8811 38.7461 52.2606C38.7461 51.6402 39.2438 51.1326 39.8521 51.1326H42.0641C42.6724 51.1326 43.1701 51.6402 43.1701 52.2606V54.5167ZM49.806 61.2848C49.806 61.9052 49.3083 62.4128 48.7 62.4128C48.0917 62.4128 47.594 61.9052 47.594 61.2848V60.1568H46.488C45.8797 60.1568 45.382 59.6492 45.382 59.0288C45.382 58.4084 45.8797 57.9007 46.488 57.9007H48.7C49.3083 57.9007 49.806 58.4084 49.806 59.0288V61.2848ZM49.806 54.5167C49.806 55.1371 49.3083 55.6447 48.7 55.6447C48.0917 55.6447 47.594 55.1371 47.594 54.5167V53.3887H46.488C45.8797 53.3887 45.382 52.8811 45.382 52.2606C45.382 51.6402 45.8797 51.1326 46.488 51.1326H48.7C49.3083 51.1326 49.806 51.6402 49.806 52.2606V54.5167ZM49.806 47.7486C49.806 48.369 49.3083 48.8766 48.7 48.8766C48.0917 48.8766 47.594 48.369 47.594 47.7486V46.6205H46.488C45.8797 46.6205 45.382 46.1129 45.382 45.4925C45.382 44.8721 45.8797 44.3645 46.488 44.3645H48.7C49.3083 44.3645 49.806 44.8721 49.806 45.4925V47.7486ZM56.4419 54.5167C56.4419 55.1371 55.9443 55.6447 55.336 55.6447C54.7277 55.6447 54.23 55.1371 54.23 54.5167V53.3887H53.124C52.5157 53.3887 52.018 52.8811 52.018 52.2606C52.018 51.6402 52.5157 51.1326 53.124 51.1326H55.336C55.9443 51.1326 56.4419 51.6402 56.4419 52.2606V54.5167ZM56.4419 47.7486C56.4419 48.369 55.9443 48.8766 55.336 48.8766C54.7277 48.8766 54.23 48.369 54.23 47.7486V46.6205H53.124C52.5157 46.6205 52.018 46.1129 52.018 45.4925C52.018 44.8721 52.5157 44.3645 53.124 44.3645H55.336C55.9443 44.3645 56.4419 44.8721 56.4419 45.4925V47.7486Z" fill="#1F3773"/>
<path d="M36.212 44.9849L39.9171 41.206C41.7972 39.2883 44.0922 38.0381 46.5069 37.4553C45.788 32.7458 43.2166 30.1138 39.1982 30.1138C38.424 30.1138 37.6866 30.2266 36.9862 30.4334C36.2765 31.1008 35.8618 32.0502 35.8618 33.0654V35.4813C36.0092 35.4155 36.1751 35.3873 36.3226 35.3121C36.7373 35.1053 37.235 35.2745 37.447 35.6975C37.6498 36.1205 37.4839 36.6281 37.0691 36.8443C35.9078 37.4365 34.6359 37.7373 33.3548 37.7373C32.0737 37.7373 30.8018 37.4459 29.6406 36.8443C29.2258 36.6375 29.0599 36.1205 29.2627 35.6975C29.4654 35.2745 29.9724 35.1053 30.3871 35.3121C30.5346 35.3873 30.7005 35.4155 30.8479 35.4813V33.432C28.6544 33.2064 26.6728 32.116 25.2995 30.4522C21.9171 31.4768 20 34.9455 20 40.3224C20 47.0717 24.6359 54.056 29.1797 54.056C30.4147 54.056 31.1429 53.6612 32.1382 53.1254C32.1935 53.0972 32.2396 53.069 32.2857 53.0408C32.6912 50.0986 33.9908 47.2503 36.212 44.9849Z" fill="#1F3773"/>
<path d="M71.6674 42.3809C70.4324 41.1213 68.9577 40.4633 67.5384 40.1343C66.46 41.5349 64.4877 43.4995 62.543 44.8626C63.0314 45.8872 63.4093 46.9588 63.649 48.0586C65.0591 47.363 66.2665 46.4888 67.225 45.7462C68.6628 44.637 69.8149 43.6969 70.0914 43.979C70.5245 44.4208 71.225 44.4208 71.6582 43.979C72.1006 43.5371 72.1006 42.8227 71.6674 42.3809Z" fill="#1F3773"/>
<path d="M58.3774 28.826C57.9442 28.3842 57.2437 28.3842 56.8105 28.826C56.3774 29.2678 56.3774 29.9822 56.8105 30.424C57.087 30.706 56.1562 31.881 55.0778 33.3475C54.3497 34.3251 53.5018 35.5565 52.8105 36.9947C53.8981 37.2391 54.9488 37.634 55.9442 38.1228C57.2806 36.1393 59.2069 34.1371 60.5801 33.0373C60.2576 31.5896 59.6124 30.0856 58.3774 28.826Z" fill="#1F3773"/>
<path d="M69.7133 30.8187C69.2801 30.3769 68.5797 30.3769 68.1465 30.8187L66.6073 32.3885C64.5981 32.9337 60.7917 34.9735 57.8516 39.2506C58.5428 39.7394 59.1972 40.294 59.8055 40.9145C60.4138 41.5349 60.9483 42.2117 61.4276 42.9167C65.6304 39.9274 67.6304 36.0358 68.1649 33.9865L69.7041 32.4167C70.1465 31.9749 70.1465 31.2605 69.7133 30.8187Z" fill="#1F3773"/>
</g>
<defs>
<clipPath id="clip0_166_117">
<rect width="52" height="42" fill="white" transform="translate(20 25)"/>
</clipPath>
</defs>
</svg>
