<svg width="200" height="62" viewBox="0 0 200 62" fill="none" xmlns="http://www.w3.org/2000/svg">
<g clip-path="url(#clip0_121_205)">
<path fill-rule="evenodd" clip-rule="evenodd" d="M131.556 34.9327C126.617 36.475 121.443 33.9302 119.875 29.3033C118.385 24.5994 121.129 19.5869 126.068 18.0446C131.008 16.5023 141.278 22.5944 141.278 22.5944C141.278 22.5944 136.496 33.3904 131.556 34.9327Z" fill="#FBBA00"/>
<path fill-rule="evenodd" clip-rule="evenodd" d="M155.076 32.7736C156.644 37.6318 154.057 42.7213 149.275 44.1865C144.492 45.6517 139.396 42.9527 137.828 38.0945C136.26 33.2363 142.532 23.1343 142.532 23.1343C142.532 23.1343 153.587 27.9154 155.076 32.7736Z" fill="#0096D7"/>
<path fill-rule="evenodd" clip-rule="evenodd" d="M146.609 6.47779C145.041 1.61958 139.867 -1.07942 135.163 0.462869C130.459 1.92804 127.871 7.09471 129.439 11.9529C131.007 16.8111 142.062 21.5151 142.062 21.5151C142.062 21.5151 148.177 11.2589 146.609 6.47779Z" fill="#00773A"/>
<path fill-rule="evenodd" clip-rule="evenodd" d="M153.038 9.63947C157.977 8.09718 163.152 10.642 164.72 15.2688C166.209 19.8957 163.465 24.9852 158.526 26.5275C153.587 28.0698 143.316 21.9778 143.316 21.9778C143.316 21.9778 148.099 11.1818 153.038 9.63947Z" fill="#E11F21"/>
<path d="M117.758 47.8111C116.895 49.122 116.425 51.0499 116.425 52.9006C116.425 54.7513 116.817 56.6792 117.758 57.913C118.62 59.224 120.188 60.3036 122.305 60.3036C123.951 60.3036 125.676 59.6867 126.931 57.913C128.107 56.2165 128.342 54.4429 128.342 52.9006C128.342 51.3583 128.107 49.2762 127.009 47.7339C126.147 46.5001 124.579 45.3434 122.383 45.3434C119.796 45.3434 118.385 46.8086 117.758 47.8111ZM131.713 52.8235C131.713 55.831 130.694 58.0673 128.499 59.7638C126.303 61.3832 124.187 61.6145 122.383 61.6145C120.58 61.6145 118.385 61.3832 116.268 59.7638C114.073 58.0673 113.054 55.831 113.054 52.8235C113.054 49.816 114.151 47.5797 116.268 45.8832C118.463 44.1867 120.58 44.0324 122.383 44.0324C124.579 44.0324 126.46 44.3409 128.499 45.9603C130.615 47.6568 131.713 49.7389 131.713 52.8235ZM198.275 51.6668C198.118 52.4379 197.648 52.8235 197.413 52.9777L196.237 53.826C196.08 53.9031 195.923 54.2115 195.923 54.3658L195.845 54.4429H195.766L195.688 54.3658C195.688 54.1344 195.61 53.3633 196.707 52.5921L197.726 51.8981C197.883 51.821 198.04 51.5897 198.04 51.4354H198.118L198.197 51.5125L198.275 51.6668ZM199.216 55.214V55.3683C199.059 55.5225 198.981 55.6767 198.981 55.9081V60.2265C198.981 60.612 199.059 60.8434 199.765 60.8434C199.843 60.8434 199.922 60.8434 199.922 60.9205V60.9976C199.922 61.0747 199.843 61.0747 199.765 61.0747C199.608 61.0747 199.373 61.0747 199.138 60.9976C198.824 60.9976 198.667 60.9205 198.51 60.9205C198.354 60.9205 198.197 60.9205 197.883 60.9976C197.57 60.9976 197.413 61.0747 197.256 61.0747C197.178 61.0747 197.099 61.0747 197.099 60.9976V60.9205C197.099 60.8434 197.178 60.8434 197.256 60.8434C197.883 60.8434 198.04 60.6892 198.04 60.2265V56.6792H197.962C196.629 58.1444 195.296 59.6867 194.042 61.229L193.963 61.3061H193.806L193.728 61.229V56.2936C193.728 55.9081 193.65 55.6767 192.944 55.6767C192.866 55.6767 192.787 55.6767 192.787 55.5996V55.5225C192.787 55.4454 192.866 55.4454 192.944 55.4454C193.101 55.4454 193.336 55.4454 193.571 55.5225C193.885 55.5225 194.042 55.5996 194.198 55.5996C194.277 55.5996 194.512 55.5996 194.826 55.5225C195.139 55.5225 195.296 55.4454 195.453 55.4454C195.531 55.4454 195.61 55.4454 195.61 55.5225V55.5996C195.61 55.6767 195.531 55.6767 195.453 55.6767C194.826 55.6767 194.669 55.831 194.669 56.2936V59.6096H194.747C195.374 58.7613 195.923 58.1444 196.707 57.219C198.275 55.5225 198.746 55.214 199.059 55.1369L199.216 55.214ZM191.376 55.1369V55.2911C191.219 55.4454 191.141 55.5996 191.141 55.831V60.1494C191.141 60.5349 191.219 60.7663 191.925 60.7663C192.003 60.7663 192.082 60.7663 192.082 60.8434V60.9205C192.082 60.9976 192.003 60.9976 191.925 60.9976C191.768 60.9976 191.533 60.9976 191.298 60.9205C190.984 60.9205 190.827 60.8434 190.67 60.8434C190.514 60.8434 190.357 60.8434 190.043 60.9205C189.73 60.9205 189.573 60.9976 189.416 60.9976C189.338 60.9976 189.259 60.9976 189.259 60.9205C189.259 60.8434 189.338 60.8434 189.416 60.8434C190.043 60.8434 190.2 60.6892 190.2 60.2265V56.6792H190.122C188.789 58.1444 187.456 59.6867 186.201 61.229L186.123 61.3061H185.966L185.888 61.229V56.2936C185.888 55.9081 185.809 55.6767 185.104 55.6767C185.025 55.6767 184.947 55.6767 184.947 55.5996V55.5225C184.947 55.4454 185.025 55.4454 185.104 55.4454C185.261 55.4454 185.496 55.4454 185.731 55.5225C186.045 55.5225 186.201 55.5996 186.358 55.5996C186.437 55.5996 186.672 55.5996 186.985 55.5225C187.299 55.5225 187.456 55.4454 187.613 55.4454C187.691 55.4454 187.77 55.4454 187.77 55.5225C187.77 55.5996 187.691 55.5996 187.613 55.5996C186.985 55.5996 186.829 55.7538 186.829 56.2165V59.5324H186.907C187.534 58.6842 188.083 58.0673 188.867 57.1419C190.435 55.4454 190.906 55.1369 191.219 55.0598L191.376 55.1369ZM181.889 56.2936C181.889 55.9081 181.811 55.6767 181.105 55.6767C181.027 55.6767 180.949 55.6767 180.949 55.5996V55.5225C180.949 55.4454 181.027 55.4454 181.105 55.4454C181.262 55.4454 181.497 55.4454 181.733 55.5225C182.046 55.5225 182.203 55.5996 182.36 55.5996C182.517 55.5996 182.673 55.5996 182.987 55.5225C183.301 55.5225 183.457 55.4454 183.614 55.4454C183.693 55.4454 183.771 55.4454 183.771 55.5225C183.771 55.5996 183.693 55.5996 183.614 55.5996C182.987 55.5996 182.83 55.7538 182.83 56.2165V60.1494C182.83 60.5349 182.909 60.7663 183.614 60.7663C183.693 60.7663 183.771 60.7663 183.771 60.8434V60.9205C183.771 60.9976 183.693 60.9976 183.614 60.9976C183.457 60.9976 183.222 60.9976 182.987 60.9205C182.673 60.9205 182.517 60.8434 182.36 60.8434C182.203 60.8434 182.046 60.8434 181.733 60.9205C181.419 60.9205 181.262 60.9976 181.105 60.9976C181.027 60.9976 180.949 60.9976 180.949 60.9205C180.949 60.8434 181.027 60.8434 181.105 60.8434C181.733 60.8434 181.889 60.6892 181.889 60.2265V58.2215H178.44V60.1494C178.44 60.5349 178.518 60.7663 179.224 60.7663C179.302 60.7663 179.381 60.7663 179.381 60.8434V60.9205C179.381 60.9976 179.302 60.9976 179.224 60.9976C179.067 60.9976 178.832 60.9976 178.597 60.9205C178.283 60.9205 178.126 60.8434 177.969 60.8434C177.891 60.8434 177.656 60.8434 177.342 60.9205C177.029 60.9205 176.872 60.9976 176.715 60.9976C176.637 60.9976 176.558 60.9976 176.558 60.9205C176.558 60.8434 176.637 60.8434 176.715 60.8434C177.342 60.8434 177.499 60.6892 177.499 60.2265V56.2936C177.499 55.9081 177.421 55.6767 176.715 55.6767C176.637 55.6767 176.558 55.6767 176.558 55.5996V55.5225C176.558 55.4454 176.637 55.4454 176.715 55.4454C176.872 55.4454 177.107 55.4454 177.342 55.5225C177.656 55.5225 177.813 55.5996 177.969 55.5996C178.126 55.5996 178.283 55.5996 178.597 55.5225C178.91 55.5225 179.067 55.4454 179.224 55.4454C179.302 55.4454 179.381 55.4454 179.381 55.5225C179.381 55.5996 179.302 55.5996 179.224 55.5996C178.597 55.5996 178.44 55.7538 178.44 56.2165V57.6817H181.889V56.2936ZM172.011 58.6071C171.697 58.6842 171.462 58.8384 171.227 58.9926C170.913 59.3011 170.835 59.6096 170.835 59.7638C170.835 59.9951 170.913 60.2265 171.07 60.3807C171.227 60.5349 171.462 60.6892 171.697 60.6892C172.011 60.6892 172.481 60.5349 172.795 60.3807C173.109 60.2265 173.501 59.8409 173.501 59.6096V58.1444L172.011 58.6071ZM174.52 60.1494C174.52 60.3036 174.52 60.4578 174.598 60.612C174.677 60.6892 174.833 60.7663 174.99 60.7663C175.069 60.7663 175.225 60.6892 175.382 60.6892C175.461 60.6892 175.539 60.7663 175.539 60.8434C175.382 60.9976 174.912 61.229 174.598 61.229C174.285 61.229 173.971 61.0747 173.814 60.9205C173.657 60.7663 173.501 60.4578 173.501 60.2265C173.265 60.4578 173.03 60.6892 172.795 60.7663C172.325 61.0747 171.854 61.1518 171.384 61.1518C170.992 61.1518 170.6 61.0747 170.286 60.8434C170.051 60.612 169.816 60.3036 169.816 59.8409C169.816 59.3782 169.973 59.0698 170.286 58.7613C170.521 58.53 170.992 58.3757 171.305 58.2215L173.579 57.6046C173.579 57.219 173.579 56.525 173.344 56.1394C173.187 55.831 172.795 55.5225 172.168 55.5225C171.854 55.5225 171.619 55.5996 171.305 55.7538C171.619 55.831 171.697 56.1394 171.697 56.2936C171.697 56.6021 171.462 56.9106 171.07 56.9106C170.678 56.9106 170.443 56.6021 170.443 56.2165C170.443 55.9081 170.6 55.5996 170.913 55.3683C171.305 55.1369 171.776 55.0598 172.168 55.0598C172.717 55.0598 173.344 55.214 173.736 55.5225C174.441 56.0623 174.52 56.6792 174.52 57.3732V60.1494ZM163.309 55.831V60.1494C163.309 60.5349 163.387 60.7663 164.093 60.7663C164.171 60.7663 164.249 60.7663 164.249 60.8434V60.9205C164.249 60.9976 164.171 60.9976 164.093 60.9976C163.936 60.9976 163.701 60.9976 163.465 60.9205C163.152 60.9205 162.995 60.8434 162.838 60.8434C162.681 60.8434 162.524 60.8434 162.211 60.9205C161.897 60.9205 161.74 60.9976 161.584 60.9976C161.505 60.9976 161.427 60.9976 161.427 60.9205C161.427 60.8434 161.505 60.8434 161.584 60.8434C162.211 60.8434 162.368 60.6892 162.368 60.2265V56.2936C162.368 55.9081 162.289 55.6767 161.584 55.6767C161.505 55.6767 161.427 55.6767 161.427 55.5996V55.5225C161.427 55.4454 161.427 55.4454 161.584 55.4454H168.561C168.64 55.4454 168.718 55.5225 168.718 55.5225C168.718 55.5996 168.64 55.5996 168.561 55.5996C167.934 55.5996 167.777 55.7538 167.777 56.2165V60.1494C167.777 60.5349 167.856 60.7663 168.561 60.7663C168.64 60.7663 168.718 60.7663 168.718 60.8434V60.9205C168.718 60.9976 168.64 60.9976 168.561 60.9976C168.405 60.9976 168.169 60.9976 167.934 60.9205C167.621 60.9205 167.464 60.8434 167.307 60.8434C167.229 60.8434 166.993 60.8434 166.68 60.9205C166.366 60.9205 166.209 60.9976 166.053 60.9976C165.974 60.9976 165.896 60.9976 165.896 60.9205C165.896 60.8434 165.974 60.8434 166.053 60.8434C166.68 60.8434 166.837 60.6892 166.837 60.2265V55.9081H163.309V55.831ZM160.172 60.9976C160.172 61.0747 160.094 61.0747 160.016 61.0747C159.545 61.0747 159.31 60.9976 158.761 60.9976C158.604 60.9976 158.369 60.9976 158.134 61.0747C157.82 61.0747 157.664 61.1518 157.507 61.1518C157.428 61.1518 157.35 61.1518 157.35 61.0747V60.9205C157.35 60.8434 157.428 60.8434 157.507 60.8434C158.291 60.8434 158.291 60.612 158.291 60.2265L158.369 56.0623H158.291L155.86 60.9976L155.782 61.0747H155.704L155.625 60.9976L153.43 56.0623H153.352L153.43 60.2265C153.43 60.5349 153.43 60.8434 154.292 60.8434C154.371 60.8434 154.449 60.8434 154.449 60.9205V60.9976C154.449 61.0747 154.371 61.0747 154.292 61.0747C153.744 61.0747 154.136 60.9976 153.195 60.9976C153.038 60.9976 152.881 60.9976 152.646 61.0747C152.411 61.0747 152.254 61.1518 152.019 61.1518C151.94 61.1518 151.94 61.1518 151.862 61.0747L151.784 60.9976C151.784 60.9205 151.784 60.9205 151.94 60.9205C152.803 60.9205 152.803 60.5349 152.803 60.3036L152.881 56.3708C152.881 55.7538 152.489 55.7538 152.097 55.7538C152.019 55.7538 151.94 55.7538 151.94 55.6767V55.5996C151.94 55.5225 152.019 55.5225 152.097 55.5225C152.332 55.5225 152.881 55.5996 153.352 55.5996C153.665 55.5996 153.979 55.5225 154.214 55.5225L156.017 59.6096H156.096L158.056 55.5225C158.291 55.5996 158.448 55.5996 158.683 55.5996C159.232 55.5996 159.31 55.5225 159.937 55.5225C160.016 55.5225 160.094 55.5225 160.094 55.5996V55.5225C160.094 55.5996 160.016 55.5996 159.937 55.5996C159.545 55.5996 159.153 55.5996 159.153 56.2165V60.1494C159.153 60.3807 159.153 60.8434 159.937 60.7663C160.016 60.7663 160.172 60.7663 160.172 60.8434V60.9976ZM145.982 56.525C145.668 56.9877 145.512 57.6046 145.512 58.2986C145.512 58.9155 145.668 59.6096 145.982 59.9951C146.296 60.4578 146.844 60.8434 147.55 60.8434C148.099 60.8434 148.726 60.612 149.196 59.9951C149.588 59.4553 149.667 58.7613 149.667 58.2986C149.667 57.7588 149.588 57.0648 149.196 56.525C148.883 56.0623 148.334 55.6767 147.55 55.6767C146.766 55.5996 146.217 56.1394 145.982 56.525ZM150.843 58.2215C150.843 59.224 150.451 60.0722 149.745 60.612C148.961 61.1518 148.256 61.229 147.628 61.229C147.001 61.229 146.217 61.1518 145.512 60.612C144.728 59.9951 144.414 59.224 144.414 58.2215C144.414 57.219 144.806 56.3708 145.512 55.831C146.296 55.214 147.001 55.214 147.628 55.214C148.412 55.214 149.04 55.2912 149.745 55.9081C150.451 56.4479 150.843 57.1419 150.843 58.2215ZM139.396 57.8359H139.553C139.71 57.8359 140.024 57.7588 140.18 57.4504L140.729 56.2936C141.2 55.3683 141.827 55.2911 142.219 55.2911C142.924 55.2911 143.238 55.6767 143.238 56.1394C143.238 56.6021 142.924 56.7563 142.689 56.7563C142.376 56.7563 142.14 56.4479 142.14 56.1394C142.14 56.0623 142.14 55.9081 142.297 55.7538C142.219 55.6767 142.14 55.6767 141.984 55.7538C141.827 55.9081 141.67 56.1394 141.513 56.6021C141.2 57.1419 140.964 57.6817 140.337 57.9902V58.0673C140.808 58.1444 141.278 58.3757 141.592 58.6071C141.748 58.7613 142.062 59.0698 142.376 59.6867C142.532 60.0722 142.768 60.4578 143.081 60.6892C143.316 60.8434 143.552 60.7663 143.787 60.612H143.865L143.944 60.6892V60.7663C143.787 60.9976 143.395 61.1518 143.081 61.1518C142.611 61.1518 141.984 60.9976 141.435 60.1494C141.2 59.7638 140.964 59.0698 140.572 58.6842C140.337 58.4528 139.945 58.2215 139.396 58.2215V60.1494C139.396 60.5349 139.475 60.7663 140.18 60.7663C140.259 60.7663 140.337 60.7663 140.337 60.8434V60.9205C140.337 60.9976 140.259 60.9976 140.18 60.9976C140.024 60.9976 139.788 60.9976 139.553 60.9205C139.24 60.9205 139.083 60.8434 138.926 60.8434C138.848 60.8434 138.612 60.8434 138.299 60.9205C137.985 60.9205 137.828 60.9976 137.671 60.9976C137.593 60.9976 137.515 60.9976 137.515 60.9205C137.515 60.8434 137.593 60.8434 137.671 60.8434C138.299 60.8434 138.456 60.6892 138.456 60.2265V56.2936C138.456 55.9081 138.377 55.6767 137.671 55.6767C137.593 55.6767 137.515 55.6767 137.515 55.5996V55.5225C137.515 55.4454 137.593 55.4454 137.671 55.4454C137.828 55.4454 138.063 55.4454 138.299 55.5225C138.612 55.5225 138.769 55.5996 138.926 55.5996C139.475 55.5996 139.24 55.5225 140.18 55.5225C140.259 55.5225 140.337 55.5225 140.337 55.5996V55.5225C140.337 55.5996 140.259 55.5996 140.18 55.5996C139.553 55.5996 139.396 55.7538 139.396 56.2165V57.8359ZM196.55 47.1941C196.237 47.2712 195.923 47.4255 195.766 47.5797C195.453 47.8882 195.374 48.1966 195.374 48.3509C195.374 48.5822 195.453 48.8135 195.61 48.9678C195.766 49.122 196.002 49.2762 196.237 49.2762C196.55 49.2762 197.021 49.122 197.334 48.9678C197.648 48.8135 198.04 48.428 198.04 48.1966V46.7314L196.55 47.1941ZM198.981 48.8135C198.981 48.9678 198.981 49.122 199.138 49.2762C199.216 49.3533 199.373 49.4305 199.53 49.4305C199.608 49.4305 199.765 49.3533 199.922 49.3533C200 49.3533 200.078 49.4305 200.078 49.5076C199.922 49.6618 199.451 49.8931 199.138 49.8931C198.824 49.8931 198.51 49.7389 198.354 49.5847C198.197 49.4305 198.04 49.122 198.04 48.8907C197.805 49.122 197.57 49.3533 197.334 49.5076C196.864 49.816 196.394 49.8931 195.923 49.8931C195.531 49.8931 195.139 49.816 194.826 49.5847C194.59 49.3533 194.355 49.0449 194.355 48.5822C194.355 48.1195 194.512 47.811 194.826 47.5026C195.061 47.2712 195.531 47.117 195.845 46.9628L198.118 46.3459C198.118 45.9603 198.118 45.2663 197.883 44.8807C197.726 44.5722 197.334 44.2638 196.707 44.2638C196.394 44.2638 196.158 44.3409 195.845 44.4951C196.158 44.5722 196.237 44.8807 196.237 45.0349C196.237 45.3434 196.002 45.6518 195.61 45.6518C195.218 45.6518 194.982 45.3434 194.982 44.9578C194.982 44.6494 195.139 44.3409 195.453 44.1096C195.845 43.8782 196.315 43.8011 196.707 43.8011C197.256 43.8011 197.883 43.9553 198.275 44.2638C198.981 44.8036 199.059 45.4205 199.059 46.1145V48.8135H198.981ZM187.77 44.4951V48.8135C187.77 49.1991 187.848 49.4305 188.553 49.4305C188.632 49.4305 188.71 49.4305 188.71 49.5076V49.5847C188.71 49.6618 188.632 49.6618 188.553 49.6618C188.397 49.6618 188.161 49.6618 187.926 49.5847C187.613 49.5847 187.456 49.5076 187.299 49.5076C187.142 49.5076 186.985 49.5076 186.672 49.5847C186.358 49.5847 186.201 49.6618 186.045 49.6618C185.966 49.6618 185.888 49.6618 185.888 49.5847V49.5076C185.888 49.4305 185.966 49.4305 186.045 49.4305C186.672 49.4305 186.829 49.2762 186.829 48.8135V44.8807C186.829 44.4951 186.75 44.2638 186.045 44.2638C185.966 44.2638 185.888 44.2638 185.888 44.1867V44.1096C185.888 44.0324 185.888 44.0324 186.045 44.0324H193.022C193.101 44.0324 193.179 44.1096 193.179 44.1096V44.1867C193.179 44.2638 193.101 44.2638 193.022 44.2638C192.395 44.2638 192.238 44.418 192.238 44.8807V48.8135C192.238 49.1991 192.317 49.4305 193.022 49.4305C193.101 49.4305 193.179 49.4305 193.179 49.5076V49.5847C193.179 49.6618 193.101 49.6618 193.022 49.6618C192.866 49.6618 192.63 49.6618 192.395 49.5847C192.082 49.5847 191.925 49.5076 191.768 49.5076C191.69 49.5076 191.454 49.5076 191.141 49.5847C190.827 49.5847 190.67 49.6618 190.514 49.6618C190.435 49.6618 190.357 49.6618 190.357 49.5847V49.5076C190.357 49.4305 190.435 49.4305 190.514 49.4305C191.141 49.4305 191.298 49.2762 191.298 48.8135V44.4951H187.77ZM179.302 44.4951V48.8135C179.302 49.1991 179.381 49.4305 180.086 49.4305C180.165 49.4305 180.243 49.4305 180.243 49.5076V49.5847C180.243 49.6618 180.165 49.6618 180.086 49.6618C179.929 49.6618 179.694 49.6618 179.459 49.5847C179.145 49.5847 178.989 49.5076 178.832 49.5076C178.753 49.5076 178.518 49.5076 178.205 49.5847C177.891 49.5847 177.734 49.6618 177.577 49.6618C177.499 49.6618 177.421 49.6618 177.421 49.5847V49.5076C177.421 49.4305 177.499 49.4305 177.577 49.4305C178.205 49.4305 178.361 49.2762 178.361 48.8135V44.8807C178.361 44.4951 178.283 44.2638 177.577 44.2638C177.499 44.2638 177.421 44.2638 177.421 44.1867V44.1096C177.421 44.0324 177.421 44.0324 177.577 44.0324H184.555C184.633 44.0324 184.712 44.1096 184.712 44.1096V44.1867C184.712 44.2638 184.633 44.2638 184.555 44.2638C183.928 44.2638 183.771 44.418 183.771 44.8807V48.8135C183.771 49.1991 183.849 49.4305 184.555 49.4305C184.633 49.4305 184.712 49.4305 184.712 49.5076V49.5847C184.712 49.6618 184.633 49.6618 184.555 49.6618C184.398 49.6618 184.163 49.6618 183.928 49.5847C183.614 49.5847 183.457 49.5076 183.301 49.5076C183.222 49.5076 182.987 49.5076 182.673 49.5847C182.36 49.5847 182.203 49.6618 182.046 49.6618C181.968 49.6618 181.889 49.6618 181.889 49.5847V49.5076C181.889 49.4305 181.968 49.4305 182.046 49.4305C182.673 49.4305 182.83 49.2762 182.83 48.8135V44.4951H179.302ZM174.52 45.5747C174.598 45.3434 174.677 45.0349 174.677 44.8807C174.677 44.7265 174.677 44.418 174.206 44.3409C174.049 44.3409 173.814 44.3409 173.814 44.1867V44.1096C173.814 44.0324 173.814 44.0324 173.971 44.0324C174.206 44.0324 174.441 44.1096 174.755 44.1096C174.833 44.1096 175.147 44.1096 175.304 44.1096C175.539 44.1096 175.696 44.1096 175.853 44.0324C176.009 44.0324 176.088 43.9553 176.245 43.9553C176.401 43.9553 176.48 44.0324 176.48 44.0324V44.1096C176.48 44.1867 176.401 44.1867 176.323 44.1867C176.166 44.1867 175.931 44.2638 175.696 44.4951C175.461 44.7265 175.382 44.9578 175.304 45.2663L172.952 51.127C172.717 51.821 172.403 52.2837 172.011 52.6693C171.697 52.9777 171.384 53.1319 170.913 53.1319C170.129 53.1319 169.737 52.5921 169.737 52.2066C169.737 51.7439 170.129 51.5125 170.443 51.5125C170.835 51.5125 171.149 51.821 171.149 52.1295C171.149 52.3608 170.992 52.515 170.913 52.5921C170.992 52.6693 170.992 52.6693 171.149 52.6693C171.462 52.6693 171.697 52.4379 171.933 52.1295C172.325 51.6668 172.638 50.6643 172.717 50.0474L170.443 45.3434C170.286 45.0349 170.129 44.6494 169.894 44.418C169.424 43.9553 169.11 44.2638 169.11 44.0324V43.9553C169.11 43.8782 169.11 43.8782 169.345 43.8782C169.737 43.8782 170.365 43.9553 170.757 43.9553C171.305 43.9553 171.07 43.8782 171.933 43.8782C172.011 43.8782 172.089 43.8782 172.089 43.9553V44.0324C172.089 44.1096 172.011 44.1867 171.933 44.1867C171.776 44.1867 171.462 44.1867 171.462 44.5722C171.462 44.7265 171.541 45.0349 171.541 45.0349L173.344 49.0449L174.52 45.5747ZM163.936 48.6593C164.249 49.2762 165.033 49.4305 165.425 49.4305C166.053 49.4305 166.601 49.122 166.915 48.5051C167.307 47.8882 167.307 47.2712 167.307 46.7314C167.307 46.1916 167.307 45.729 166.993 45.112C166.68 44.4951 166.209 44.1867 165.425 44.1867C164.563 44.1867 164.092 44.5722 163.857 44.8036V48.6593H163.936ZM163.936 52.1295C163.936 52.2066 163.936 52.515 164.093 52.5921C164.249 52.7464 164.563 52.6693 164.877 52.6693C164.955 52.6693 165.033 52.6693 165.033 52.7464V52.8235C165.033 52.9006 164.955 52.9006 164.877 52.9006C164.171 52.9006 164.249 52.8235 163.465 52.8235C162.838 52.8235 162.76 52.9006 162.211 52.9006C162.132 52.9006 162.054 52.9006 162.054 52.8235V52.7464C162.054 52.6693 162.132 52.6693 162.211 52.6693C162.368 52.6693 162.681 52.6693 162.838 52.5921C162.995 52.515 162.995 52.2837 162.995 52.1295V44.9578C162.995 44.8807 162.995 44.5722 162.76 44.418C162.603 44.2638 162.368 44.2638 162.132 44.2638C162.054 44.2638 161.976 44.2638 161.976 44.1867V44.1096C161.976 43.9553 162.054 44.0324 162.132 44.0324H162.917C163.309 44.0324 163.465 43.8782 163.622 43.8782C163.936 43.8011 163.936 44.0324 163.936 44.1867V44.418C164.641 43.9553 165.347 43.8782 165.817 43.8782C166.523 43.8782 167.307 44.1867 167.856 44.7265C168.326 45.2663 168.561 45.8832 168.561 46.5001C168.561 47.1941 168.405 47.811 168.013 48.428C167.385 49.2762 166.445 49.816 165.504 49.816C164.955 49.816 164.406 49.5847 163.936 49.3533V52.1295ZM158.056 48.8135C158.056 49.2762 158.134 49.4305 158.996 49.4305C159.075 49.4305 159.153 49.4305 159.153 49.5076V49.5847C159.153 49.6618 159.075 49.6618 158.996 49.6618C158.291 49.6618 158.369 49.5847 157.585 49.5847C156.958 49.5847 156.88 49.6618 156.331 49.6618C156.252 49.6618 156.174 49.6618 156.174 49.5847V49.5076C156.174 49.4305 156.252 49.4305 156.331 49.4305C156.958 49.4305 157.115 49.2762 157.115 48.8135V44.8807C157.115 44.4951 157.036 44.2638 156.331 44.2638C156.252 44.2638 156.174 44.2638 156.174 44.1867V44.1096C156.174 44.0324 156.174 44.0324 156.331 44.0324H160.408C160.486 44.0324 160.643 44.0324 160.643 43.8011L160.721 43.724H160.8L160.878 43.8011L161.035 45.8061L160.956 45.8832H160.878L160.8 45.8061C160.721 45.4976 160.564 45.1892 160.329 44.9578C160.016 44.5722 159.702 44.418 159.31 44.418H158.134V48.8135H158.056ZM100.039 51.7439H100.431C100.98 51.7439 101.764 51.5897 102.313 50.5872L104.038 47.1941C105.37 44.4951 107.252 44.2638 108.271 44.2638C110.231 44.2638 111.094 45.4205 111.094 46.6543C111.094 47.8882 110.231 48.428 109.447 48.428C108.506 48.428 107.722 47.5797 107.722 46.6543C107.722 46.3459 107.801 45.8832 108.114 45.4976C107.958 45.1892 107.566 45.2663 107.252 45.5747C106.703 46.0374 106.468 46.7314 105.841 47.9653C105.057 49.5847 104.273 51.0499 102.391 51.9752V52.2066C103.802 52.4379 105.057 52.9777 105.919 53.7489C106.468 54.2115 107.33 55.0598 108.271 56.8334C108.82 57.8359 109.369 59.0698 110.388 59.6867C111.172 60.0722 111.721 59.918 112.348 59.4553L112.583 59.5324L112.818 59.7638L112.74 59.9951C112.27 60.6892 111.25 61.0747 110.31 61.0747C108.898 61.0747 107.174 60.612 105.606 58.2215C104.9 57.1419 104.273 55.214 103.175 54.1344C102.47 53.4404 101.45 52.7464 99.804 52.8235V58.2986C99.804 59.5324 100.118 60.0722 101.999 60.0722C102.156 60.0722 102.391 60.0722 102.391 60.3807V60.612C102.391 60.8434 102.078 60.9205 101.999 60.9205C101.45 60.9205 100.902 60.8434 100.118 60.7663C99.2552 60.6892 98.7064 60.612 98.3928 60.612C98.0792 60.612 97.5304 60.6892 96.668 60.7663C95.884 60.8434 95.3352 60.9205 94.7864 60.9205C94.6296 60.9205 94.3944 60.8434 94.3944 60.612V60.3807C94.3944 60.0722 94.6296 60.0722 94.7864 60.0722C96.668 60.1494 96.9816 59.5324 96.9816 58.2986V47.1941C96.9816 45.9603 96.668 45.4205 94.7864 45.4205C94.6296 45.4205 94.3944 45.4205 94.3944 45.112V44.8807C94.3944 44.6494 94.708 44.5722 94.7864 44.5722C95.3352 44.5722 95.884 44.6494 96.668 44.7265C97.5304 44.8036 98.0792 44.8807 98.3928 44.8807C99.8824 44.8807 99.412 44.6494 101.999 44.5722C102.156 44.5722 102.548 44.5722 102.548 44.8807V45.112C102.548 45.4205 102.313 45.4205 102.156 45.4205C100.274 45.3434 99.9608 45.9603 99.9608 47.1941V51.7439H100.039ZM86.7895 47.1941C86.7895 45.9603 86.4759 45.4205 84.5943 45.4205C84.4375 45.4205 84.2023 45.4205 84.2023 45.112V44.8807C84.2023 44.6494 84.5159 44.5722 84.5943 44.5722C85.1431 44.5722 85.6919 44.6494 86.4759 44.7265C87.3383 44.8036 87.8871 44.8807 88.2007 44.8807C88.5143 44.8807 89.0631 44.8036 89.9255 44.7265C90.7095 44.6494 91.2583 44.5722 91.8071 44.5722C91.9639 44.5722 92.1991 44.6494 92.1991 44.8807V45.112C92.1991 45.4205 91.9639 45.4205 91.8071 45.4205C89.9255 45.3434 89.6119 45.9603 89.6119 47.1941V58.53C89.6119 59.7638 89.9255 60.3036 91.8071 60.3036C91.9639 60.3036 92.1991 60.3036 92.1991 60.612V60.8434C92.1991 61.0747 91.8855 61.1518 91.8071 61.1518C91.2583 61.1518 90.7095 61.0747 89.9255 60.9976C89.0631 60.9205 88.5143 60.8434 88.2007 60.8434C87.8871 60.8434 87.3383 60.9205 86.4759 60.9976C85.6919 61.0747 85.1431 61.1518 84.5943 61.1518C84.4375 61.1518 84.2023 61.0747 84.2023 60.8434V60.612C84.2023 60.3036 84.4375 60.3036 84.5943 60.3036C86.4759 60.3807 86.7895 59.7638 86.7895 58.53V52.7464H76.911V58.53C76.911 59.7638 77.2246 60.3036 79.1062 60.3036C79.263 60.3036 79.4982 60.3036 79.4982 60.612V60.8434C79.4982 61.0747 79.1846 61.1518 79.1062 61.1518C78.5574 61.1518 78.0086 61.0747 77.2246 60.9976C76.3622 60.9205 75.8134 60.8434 75.4998 60.8434C75.1862 60.8434 74.6374 60.9205 73.775 60.9976C72.991 61.0747 72.4422 61.1518 71.8934 61.1518C71.7366 61.1518 71.5014 61.0747 71.5014 60.8434V60.612C71.5014 60.3036 71.7366 60.3036 71.8934 60.3036C73.775 60.3807 74.0886 59.7638 74.0886 58.53V47.1941C74.0886 45.9603 73.775 45.4205 71.8934 45.4205C71.7366 45.4205 71.5014 45.4205 71.5014 45.112V44.8807C71.5014 44.6494 71.815 44.5722 71.8934 44.5722C72.4422 44.5722 72.991 44.6494 73.775 44.7265C74.6374 44.8036 75.1862 44.8807 75.4998 44.8807C75.8134 44.8807 76.3622 44.8036 77.2246 44.7265C78.0086 44.6494 78.5574 44.5722 79.1062 44.5722C79.263 44.5722 79.4982 44.6494 79.4982 44.8807V45.112C79.4982 45.4205 79.263 45.4205 79.1062 45.4205C77.2246 45.3434 76.911 45.9603 76.911 47.1941V51.5125H86.7895V47.1941ZM59.4277 53.9031C58.5653 54.2115 57.7029 54.52 57.1541 55.0598C56.2132 55.9081 56.0564 56.9106 56.0564 57.3732C56.0564 58.0673 56.2916 58.6842 56.6837 59.1469C57.0757 59.6096 57.7029 59.9951 58.5653 59.9951C59.5845 59.9951 60.8389 59.5324 61.7013 58.9926C62.6421 58.4528 63.6613 57.5275 63.6613 56.6792V52.4379L59.4277 53.9031ZM66.6405 58.4528C66.6405 58.8384 66.7189 59.3782 66.9541 59.6867C67.1893 59.9951 67.6597 60.0722 68.0517 60.0722C68.3653 60.0722 68.7573 59.918 69.1493 59.7638C69.3846 59.8409 69.5414 59.9951 69.5414 60.3036C69.0709 60.8434 67.7381 61.5374 66.7973 61.5374C65.8565 61.5374 65.0725 61.1518 64.5237 60.612C64.0533 60.0722 63.7397 59.3011 63.6613 58.6842C63.0341 59.3011 62.2501 59.918 61.6229 60.3807C60.2901 61.229 58.8789 61.6145 57.6245 61.6145C56.4484 61.6145 55.2724 61.3061 54.3316 60.612C53.5476 59.9951 52.9204 58.9926 52.9204 57.6046C52.9204 56.3708 53.3908 55.2912 54.1748 54.5971C54.8804 53.9031 56.1348 53.3633 57.1541 53.1319L63.6613 51.3583C63.7397 50.2016 63.5829 48.1966 62.8773 47.0399C62.4069 46.2688 61.3877 45.2663 59.5061 45.2663C58.6437 45.2663 57.8597 45.4976 57.0757 45.9603C57.8597 46.2688 58.1733 46.9628 58.1733 47.6568C58.1733 48.5051 57.4677 49.4305 56.37 49.4305C55.1156 49.4305 54.4884 48.5051 54.4884 47.5026C54.4884 46.6543 55.0372 45.729 55.8996 45.112C56.9189 44.418 58.4869 44.1867 59.6629 44.1867C61.2309 44.1867 62.9557 44.6494 64.2101 45.5747C66.1701 47.0399 66.5621 48.9678 66.5621 50.8956V58.4528H66.6405ZM39.9843 57.7588C39.9843 58.7613 40.3763 59.7638 42.9635 59.7638C46.8836 59.7638 47.354 57.7588 47.354 56.2936C47.354 55.3683 47.2756 54.2887 46.0996 53.4404C45.0804 52.7464 43.9043 52.7464 42.8067 52.7464H42.0227L41.7091 52.4379V52.1295L42.0227 51.821C43.1987 51.6668 44.3748 51.6668 45.1588 50.8956C45.786 50.3558 46.178 49.4305 46.178 48.428C46.178 47.811 46.0212 47.0399 45.2372 46.423C44.3748 45.729 43.2771 45.729 42.4147 45.729C41.3955 45.729 40.6899 45.8061 39.8275 45.8832V57.7588H39.9843ZM37.1619 47.1941C37.1619 45.9603 36.8483 45.4205 34.9667 45.4205C34.8099 45.4205 34.5747 45.4205 34.5747 45.112V44.8807C34.5747 44.6494 34.8883 44.5722 34.9667 44.5722C35.5155 44.5722 36.0643 44.6494 36.8483 44.7265C37.7107 44.8036 38.2595 44.8807 38.6515 44.8807C42.5715 44.8807 41.0035 44.5722 43.9044 44.5722C46.57 44.5722 47.746 45.2663 48.138 45.5747C48.922 46.1916 49.5492 47.1941 49.5492 48.2737C49.5492 49.816 48.2948 51.4354 46.2564 52.0523V52.2837C47.4324 52.3608 48.53 52.8235 49.3924 53.5175C50.49 54.3658 50.8036 55.4454 50.8036 56.525C50.8036 58.0673 49.8628 59.3011 48.6868 59.9951C47.4324 60.6892 45.2372 61.0747 43.7475 61.0747C42.8851 61.0747 42.4147 60.9976 40.8467 60.9205C39.7491 60.8434 39.2003 60.7663 38.5731 60.7663C37.3971 60.7663 35.8291 61.0747 34.8883 61.0747C34.7315 61.0747 34.4963 60.9976 34.4963 60.7663V60.5349C34.4963 60.2265 34.7315 60.2265 34.8883 60.2265C36.7699 60.3036 37.0835 59.6867 37.0835 58.4528V47.1941H37.1619ZM7.91846 55.2911L24.6962 34.4703C26.6562 32.0026 28.1458 31.4628 29.165 31.2314L29.557 31.3857L29.7138 31.7712L29.557 32.1568C28.6162 32.928 28.0674 33.7762 28.0674 35.2414V56.9106C28.0674 58.1444 28.2242 58.9926 29.4002 59.4553C30.1842 59.7638 31.0466 59.7638 31.8307 59.7638C32.3795 59.7638 32.3795 60.0722 32.3795 60.2265V60.4578C32.3795 60.6892 32.3011 60.9976 31.8307 60.9976C31.2818 60.9976 30.8114 60.9205 29.557 60.8434C28.0674 60.6892 27.1266 60.612 26.2642 60.612C25.4018 60.612 24.461 60.6892 22.9714 60.8434C21.717 60.9205 21.2466 60.9976 20.6978 60.9976C20.2274 60.9976 20.149 60.6892 20.149 60.4578V60.2265C20.149 59.9951 20.2274 59.7638 20.6978 59.7638C21.4818 59.7638 22.3442 59.8409 23.1282 59.4553C24.3042 58.9926 24.461 58.1444 24.461 56.9106V38.0175L5.17444 61.7688L4.86084 62.0001H4.62564L4.31203 61.6145V36.0897C4.31203 34.8558 4.15523 34.0076 2.97922 33.5449C2.19522 33.1593 1.33281 33.1593 0.548804 33.1593C0.0784006 33.1593 0 32.928 0 32.6966V32.4653C0 32.2339 0.0784006 31.9255 0.548804 31.9255C1.09761 31.9255 1.56801 32.0026 2.82242 32.0797C4.31203 32.2339 5.25284 32.311 6.11525 32.311C6.97766 32.311 7.91846 32.2339 9.40808 32.0797C10.6625 32.0026 11.1329 31.9255 11.6817 31.9255C12.1521 31.9255 12.2305 32.2339 12.2305 32.4653V32.6966C12.2305 32.928 12.1521 33.1593 11.6817 33.1593C10.8977 33.1593 10.0353 33.0822 9.25127 33.4678C8.07526 33.9305 7.91846 34.7787 7.91846 36.0125V55.2911Z" fill="#D7B46A"/>
<path d="M135.241 46.8854C133.908 38.7884 135.006 36.2436 135.241 35.3954C135.241 35.3183 135.319 35.3183 135.319 35.3183C135.319 35.2411 135.319 35.164 135.319 35.164C135.319 35.0869 135.241 35.0869 135.163 35.0869C135.084 35.0869 135.006 35.164 135.006 35.2411C135.006 35.2411 135.006 35.2411 135.006 35.3183C134.535 36.0894 132.34 38.7113 133.751 47.0397C135.084 54.9824 133.987 60.6118 133.751 61.3829C133.751 61.4601 133.673 61.4601 133.673 61.4601C133.594 61.5372 133.673 61.6143 133.673 61.6914C133.673 61.7685 133.751 61.7685 133.83 61.7685C133.908 61.7685 133.986 61.6914 133.986 61.6143C133.986 61.6143 133.986 61.6143 133.986 61.5372C134.457 60.6118 136.574 54.9053 135.241 46.8854Z" fill="#00773A"/>
</g>
<defs>
<clipPath id="clip0_121_205">
<rect width="200" height="62" fill="white"/>
</clipPath>
</defs>
</svg>
