<svg width="38" height="46" viewBox="0 0 38 46" fill="none" xmlns="http://www.w3.org/2000/svg">
<g clip-path="url(#clip0_55_373)">
<path fill-rule="evenodd" clip-rule="evenodd" d="M22.8 38.5547V39.2638C22.8 41.391 25.9294 41.8341 26.6447 39.8842C26.7341 39.707 26.8235 39.1752 26.8235 39.0865C26.8235 36.8707 24.6776 36.3389 23.5153 37.2253C23.2471 37.4025 22.8 38.1116 22.8 38.5547ZM0 18.1694C0 19.7648 0 20.1193 0.178824 21.8033L0.536471 23.31C0.715294 24.1077 0.894118 24.9054 1.25176 25.7031L1.96706 27.4757H3.66588C3.66588 27.0326 2.77176 25.6145 2.41412 24.6395C2.32471 24.3736 2.32471 24.3736 2.23529 24.1077C1.69882 22.7783 1.25176 19.0557 1.43059 17.7262C1.52 17.1058 1.43059 16.3967 1.87765 14.89C2.41412 12.7628 2.77176 12.1424 3.66588 10.2811C4.11294 9.39482 4.82824 8.5085 5.45412 7.71081L6.52706 6.5586C7.06353 6.20407 7.33176 5.93818 7.77882 5.58365C8.04706 5.40638 8.13647 5.31775 8.40471 5.14049C9.29882 4.43143 9.47765 4.3428 10.3718 3.81101C11.8024 2.92469 13.5012 2.3929 15.1106 1.94974C17.2565 1.41794 19.6706 1.41794 21.9059 1.77247C23.4259 2.03837 24.8565 2.48153 26.1082 3.01332C26.3765 3.19058 26.5553 3.19058 26.8235 3.36785C27.0024 3.45648 27.0024 3.45648 27.1812 3.54511C27.36 3.63374 27.36 3.63374 27.5388 3.72238C28.3435 4.16554 29.4165 4.87459 30.1318 5.49502C31.4729 6.64723 32.1882 7.44492 33.2612 8.86303C33.6188 9.30619 33.7976 9.66072 34.0659 10.1039C34.8706 11.4334 35.6753 13.2946 35.9435 14.8014C36.6588 18.3467 36.48 19.1443 36.0329 22.3351C35.9435 22.7783 35.8541 23.0441 35.7647 23.4873C35.4071 25.1713 34.2447 26.944 34.2447 27.3871H35.9435L36.6588 25.7031C37.8212 23.2214 38.3576 18.5239 37.8212 15.865L37.4635 13.9151C37.1059 12.3197 35.8541 9.66072 34.96 8.33124C34.0659 7.09039 34.1553 7.26765 33.44 6.38134C32.5459 5.14049 29.7741 3.01332 28.2541 2.21563C26.0188 1.06342 25.7506 0.886152 23.2471 0.265729C22.8894 0.177097 22.6212 0.177096 22.2635 0.0884645C21.9953 -0.000167459 21.6376 -0.000167459 21.28 -0.0887994C20.5647 -0.177431 17.5247 -0.177431 16.8094 -0.0887994C13.1435 0.531624 12.7859 0.708888 9.83529 2.21563C7.95765 3.19058 5.36471 5.31775 4.11294 7.00176C2.68235 8.95166 2.50353 9.21756 1.52 11.3447C1.43059 11.6106 1.25176 11.8765 1.16235 12.1424C0.536471 14.0037 0 16.2195 0 18.1694ZM0.178824 37.6684C0.178824 39.4411 0.178824 40.2388 0.268235 41.9228C0.357647 42.5432 -0.625883 45.9998 3.66588 45.9998H34.3341C36.2118 45.9998 36.9271 45.5567 37.5529 44.3158C37.9106 43.6068 37.8212 33.9459 37.8212 31.8187C37.8212 30.0461 36.6588 28.8939 35.2282 28.8939H2.77176C2.05647 28.8939 1.25176 29.337 0.804706 29.8688C-0.0894118 31.021 0.178824 33.3255 0.178824 35.1867L0.268235 37.1366C0.268235 37.4025 0.178824 37.2253 0.178824 37.6684ZM5.63294 32.3505C5.63294 31.9073 5.54353 31.3756 5.72235 31.021C6.08 30.4892 7.42118 30.312 7.68941 31.4642C7.77882 31.996 7.77882 36.1617 7.77882 36.8707C8.31529 36.7821 9.9247 34.9208 10.64 34.9208C11.3553 34.9208 11.8024 35.4526 11.8024 35.9844C11.8024 36.8707 9.29882 38.023 8.76235 38.732L10.4612 40.2388C11.0871 40.7705 11.9812 41.3023 11.9812 41.9228C11.9812 42.4546 11.7129 43.075 10.9976 43.075C10.1929 43.075 9.20941 41.9228 8.58353 41.391C8.58353 41.391 8.58353 41.391 8.49412 41.391C8.31529 41.3023 8.31529 41.2137 8.22588 41.1251C7.33176 40.2388 7.77882 40.9478 7.68941 41.8341C7.6 42.5432 7.51059 43.075 6.70588 43.075C5.45412 43.075 5.45412 42.4546 5.45412 40.5933L5.63294 32.3505ZM11.7129 38.8206C11.7129 35.8958 15.0212 33.5027 18.24 35.1867C20.2071 36.2503 19.1341 37.5798 18.5976 37.5798C16.8094 37.5798 17.2565 36.3389 15.3788 36.8707C14.1271 37.2253 13.1435 39.1752 14.4847 40.416C16.3624 42.2773 17.7035 39.8842 18.5976 39.8842C19.5812 39.8842 20.2965 40.9478 19.0447 42.1C18.9553 42.1887 18.5976 42.4546 18.4188 42.5432C15.7365 44.3158 11.7129 42.5432 11.7129 38.8206ZM30.3106 31.5528C30.3106 31.021 30.7576 30.5779 31.4729 30.5779C32.1882 30.6665 32.4565 30.8438 32.4565 31.7301C32.4565 33.68 32.3671 38.023 32.5459 39.8842C32.5459 40.3274 32.4565 40.3274 32.4565 40.8592C32.4565 41.7455 32.7247 43.075 31.5624 43.075C30.8471 43.075 30.3106 42.8977 30.3106 42.0114V31.5528ZM20.5647 38.8206C20.5647 37.6684 21.1906 36.4276 21.7271 35.8958C24.2306 33.3255 26.6447 35.364 27.0024 35.364C27.0918 34.389 28.9694 34.389 28.9694 35.8072V42.0114C28.9694 43.3409 27.1812 43.6068 26.9129 42.3659C26.4659 42.4546 26.5553 42.7204 26.0188 42.8977C23.3365 43.9613 20.5647 41.8341 20.5647 38.8206ZM3.21882 22.601C3.66588 24.0191 3.66588 24.1964 4.29176 25.7031L5.27529 27.4757H32.6353C33.2612 26.3235 33.44 26.2349 33.9765 24.9054C35.5859 20.8283 35.5859 16.8399 33.9765 12.7628C32.8141 9.92661 30.6682 7.26766 28.1647 5.58365C25.0353 3.45648 21.0118 2.3929 17.2565 2.83606C15.2 3.10195 13.0541 3.72238 11.2659 4.78596C9.83529 5.49502 8.85176 6.11544 7.68941 7.26765C3.75529 11.1675 1.69882 17.1944 3.21882 22.601ZM22.5318 5.49502C24.0518 5.49502 23.4259 8.7744 23.6941 10.6357L23.9624 13.5605C23.9624 14.0923 23.9624 14.5355 24.0518 14.9786C24.1412 15.5104 24.1412 16.0422 24.1412 16.4854C23.7835 16.6626 23.3365 16.6626 23.3365 17.2831V22.6896H21.9059C21.9059 18.0808 21.9953 11.522 21.9059 7.17902C21.9059 6.8245 21.9059 6.11544 22.0847 5.84954C22.1741 5.76091 22.4424 5.49502 22.5318 5.49502ZM17.1671 10.547H17.7035V7.35629C17.7035 7.00176 17.8824 6.64723 18.24 6.64723C19.2235 6.64723 18.9553 8.33124 18.9553 9.74935C18.9553 10.4584 19.3129 12.4969 18.9553 13.2946C18.5976 14.3582 17.2565 13.3833 17.2565 14.1809V22.601H15.5576V16.8399C15.5576 15.6877 15.6471 14.9786 15.6471 13.8264C14.7529 13.6492 14.1271 14.0923 13.7694 13.206C13.68 12.9401 13.7694 11.6993 13.7694 11.1675C13.7694 10.6357 13.8588 10.6357 13.8588 10.1925L13.9482 6.8245C14.2165 6.64723 14.1271 6.5586 14.4847 6.5586C15.3788 6.64723 15.2 7.97671 15.2 8.86303C15.2 9.30619 15.2 9.48345 15.1106 9.83798C15.0212 10.6357 15.1106 10.547 16.0047 10.547V7.35629C16.0047 6.38134 16.8094 6.73586 16.9882 6.8245C17.1671 7.53355 17.0776 8.68577 16.9882 9.30619C16.8988 9.66072 16.72 10.547 17.1671 10.547ZM15.5576 24.1964C15.5576 23.4873 15.3788 23.6646 17.0776 23.6646C17.4353 23.6646 17.3459 23.9305 17.3459 24.6395C17.4353 25.7917 15.5576 25.7917 15.5576 24.1964ZM21.9059 24.9054V23.5759H23.3365C23.3365 24.1077 23.5153 25.6145 22.6212 25.6145C22.4424 25.5258 21.9059 25.1713 21.9059 24.9054Z" fill="#1F3773"/>
</g>
<defs>
<clipPath id="clip0_55_373">
<rect width="38" height="46" fill="white"/>
</clipPath>
</defs>
</svg>
