<svg width="33" height="65" viewBox="0 0 33 65" fill="none" xmlns="http://www.w3.org/2000/svg">
<g clip-path="url(#clip0_55_205)">
<path d="M7.84534 33.5607C10.2114 33.6855 10.4604 35.6816 11.0831 36.4302C12.8265 38.8006 16.9359 36.9292 17.6831 33.935C17.8076 33.3112 17.9321 31.1903 16.8114 29.6931C15.9397 28.4455 15.6906 27.3227 15.5661 26.0751C15.4416 23.5799 15.9397 23.3304 20.0491 13.2248C21.2944 10.1058 24.1585 4.4916 26.6491 0.125H20.4227C17.434 7.36109 12.5774 18.2152 8.21893 23.5799C7.47176 24.4532 6.72459 25.2018 5.85289 25.9503C2.61515 28.8198 3.61138 33.935 7.84534 33.5607ZM5.97742 35.1826C3.86044 34.1845 2.49063 31.1903 2.61515 28.196C2.73968 27.0732 1.24534 26.6989 0.74723 27.697C-1.61881 32.5626 1.36987 38.8006 5.60383 37.9273C6.97364 37.553 7.09817 35.8064 5.97742 35.1826ZM22.1661 38.9254C22.0416 37.9273 21.5435 36.9292 20.6718 36.4302C17.3095 34.0597 15.5661 41.1711 9.33968 37.4283C7.47176 36.3054 5.85289 39.0501 6.22647 42.1692C6.60006 45.1634 8.9661 46.5358 10.2114 45.7872C12.951 43.292 21.2944 57.8889 24.7812 65.125L31.0076 62.7546C26.151 56.1423 21.4189 47.0348 20.9208 45.0386C20.1736 42.6682 22.4152 41.2958 22.1661 38.9254ZM24.5321 42.793C25.0302 42.5434 25.0302 41.4206 24.1585 40.7968C23.6604 40.4225 23.0378 40.173 22.6642 40.2977C22.0416 42.793 20.2982 43.4168 22.2906 46.6605C25.5284 52.0252 26.151 55.269 31.5057 62.505L32.8755 62.006C30.0114 56.6413 23.1623 43.292 24.5321 42.793Z" fill="white"/>
</g>
<defs>
<clipPath id="clip0_55_205">
<rect width="33" height="65" fill="white"/>
</clipPath>
</defs>
</svg>
