<svg width="44" height="44" viewBox="0 0 44 44" fill="none" xmlns="http://www.w3.org/2000/svg">
<g clip-path="url(#clip0_55_213)">
<path d="M30.5001 10.1002C30.4001 10.2002 30.4001 10.4002 30.3001 10.5002C30.2001 10.6002 30.2001 10.8002 30.2001 10.9002C30.0001 11.8002 30.0001 12.6002 30.5001 13.4002C30.9001 14.0002 31.4 14.4002 32.1 14.7002C32.4 14.9002 32.4001 14.9002 32.4001 15.3002C32.2001 16.1002 32 16.9002 31.9001 17.7002C31.7001 19.1002 32.2001 20.3002 33.2001 21.3002C34.2001 22.3002 35.4001 22.8002 36.7001 23.1002C37.7001 23.3002 38.8 23.3002 39.8 23.0002C40 22.9002 40.1001 23.0002 40.2001 23.2002C40.3 23.8002 40.4001 24.5002 40.4001 25.1002C40.6001 27.9002 40.3 30.7002 39.5 33.5002C39.1 34.8002 38.5 36.0002 37.7001 37.1002C36.1001 39.2002 34.1001 40.6002 31.8001 41.7002C29.8001 42.6002 27.7001 43.2002 25.5001 43.5002C22.4001 43.9002 19.4001 44.0002 16.3001 43.4002C14.9001 43.2002 13.5001 42.8002 12.2001 42.2002C10.9001 41.6002 9.60005 40.8002 8.70005 39.7002C8.20005 39.1002 7.70005 38.5002 7.30005 37.8002C6.80005 36.9002 6.10005 36.2002 5.40005 35.4002C4.00005 34.4002 3.00005 33.0002 2.00005 31.6002C1.20005 30.4002 0.500051 29.2002 0.100051 27.9002C-0.099949 27.2002 -0.099949 26.6002 0.600051 26.2002C0.800051 26.1002 0.900051 25.9002 1.10005 25.8002C1.30005 25.7002 1.40005 25.5002 1.30005 25.3002C0.800051 23.9002 0.500051 22.4002 0.300051 20.9002C5.0962e-05 19.1002 5.0962e-05 17.3002 0.400051 15.4002C0.500051 14.8002 0.700051 14.7002 1.20005 14.6002C1.30005 14.6002 1.40005 14.6002 1.50005 14.6002C2.30005 14.7002 3.20005 14.8002 4.00005 14.9002C5.50005 15.2002 6.90005 15.8002 8.30005 16.4002C10.0001 17.2002 11.5001 18.1002 13.0001 19.3002C13.1001 19.4002 13.3 19.4002 13.4001 19.4002C14.6 18.8002 15.9001 18.3002 17.1001 17.7002C18.8001 16.9002 20.6 16.1002 22.3001 15.2002C22.8001 15.0002 23.2001 14.7002 23.5001 14.3002C23.8001 13.8002 24.2001 13.3002 24.5001 12.8002C25.5001 11.0002 26.5001 9.20019 27.6001 7.40019C28.4001 6.10019 29.3001 5.00019 30.4001 4.00019C30.6001 3.90019 30.6001 3.70019 30.6001 3.50019C30.6001 3.20019 30.6001 3.00019 30.6001 2.70019C30.7001 2.10019 30.8001 1.60019 31.1001 1.10019C31.7001 0.00019002 32.7001 -0.19981 33.8 -0.09981C35 0.10019 36 0.90019 36.1 2.20019C36.1 2.30019 36.2001 2.30019 36.2001 2.40019C36.3 2.40019 36.3 2.30019 36.3 2.30019C36.6 2.10019 36.9 1.80019 37.3 1.60019C38.1 1.20019 38.9001 1.30019 39.7001 1.60019C40.8 2.00019 41.6 3.10019 41.6 4.30019C41.6 5.30019 41.2001 6.10019 40.5 6.80019C40.3 7.00019 40.3 7.10019 40.5 7.30019C41.2001 7.90019 42 8.50019 42.7001 9.10019C43.1001 9.40019 43.4 9.80019 43.8 10.3002C44 10.6002 44 10.8002 43.6 10.9002C43.2 11.1002 42.8 11.2002 42.3 11.4002C41.3 11.7002 40.3 12.0002 39.3 12.3002C39.1 12.4002 39 12.5002 39.1 12.7002C39.2 13.0002 39.4 13.2002 39.6 13.5002C40.1 14.2002 40.6 14.8002 41 15.5002C41.7001 16.8002 41.7001 18.1002 40.9001 19.3002C40.1001 20.6002 38.8001 21.0002 37.4001 20.8002C35.5 20.6002 34.2001 19.1002 34.2001 17.2002C34.2001 16.1002 34.2001 15.0002 34.2001 13.9002C34.2001 13.7002 34.1001 13.6002 33.9001 13.5002C33.6001 13.5002 33.2001 13.4002 32.9001 13.3002C31.6001 12.9002 30.7001 11.8002 30.6001 10.4002C30.6001 10.3002 30.6001 10.2002 30.6001 10.1002C30.5001 10.1002 30.5001 10.1002 30.5001 10.1002ZM34 8.60019C34 9.40019 34.7001 10.1002 35.4001 10.1002C36.2001 10.1002 36.9001 9.50019 36.9001 8.60019C36.9001 7.80019 36.2001 7.10019 35.5 7.10019C34.7001 7.10019 34 7.70019 34 8.60019Z" fill="white"/>
</g>
<defs>
<clipPath id="clip0_55_213">
<rect width="44" height="44" fill="white"/>
</clipPath>
</defs>
</svg>
