<svg width="55" height="53" viewBox="0 0 55 53" fill="none" xmlns="http://www.w3.org/2000/svg">
<g clip-path="url(#clip0_55_209)">
<path d="M32.8571 42.9458C32.4286 42.6585 32 42.3713 31.8571 41.7967C31.5714 41.3659 31.4286 40.7913 31.4286 40.0732C31.4286 39.6423 31.4286 39.2114 31.5714 38.7805C31.7143 38.3496 31.8571 37.9187 32 37.4878C32 37.3442 32 37.3442 32.1429 37.2005C32.1429 37.0569 32.1429 37.0569 32.2857 37.0569L34.4286 32.4607H36.7143L34.1429 37.7751L33.5714 37.4878C33.7143 37.2005 33.8571 37.0569 34.1429 36.9133C34.4286 36.7696 34.7143 36.7696 35 36.7696C35.5714 36.7696 36.1429 36.9133 36.4286 37.2005C36.8571 37.4878 37.1429 37.7751 37.4286 38.3496C37.7143 38.7805 37.7143 39.355 37.7143 40.0732C37.7143 40.7913 37.5714 41.3659 37.2857 41.7967C37 42.2276 36.7143 42.6585 36.2857 42.9458C35.8571 43.2331 35.2857 43.3767 34.5714 43.3767C33.8571 43.2331 33.2857 43.0894 32.8571 42.9458ZM35.2857 41.0786C35.4286 40.935 35.5714 40.6477 35.5714 40.2168C35.5714 39.7859 35.4286 39.4986 35.2857 39.2114C35.1429 38.9241 34.8571 38.9241 34.4286 38.9241C34.1429 38.9241 33.8571 39.0677 33.5714 39.355C33.4286 39.6423 33.2857 39.9295 33.2857 40.3604C33.2857 40.7913 33.4286 41.0786 33.5714 41.2222C33.7143 41.3659 34 41.5095 34.4286 41.5095C34.8571 41.3659 35.1429 41.2222 35.2857 41.0786ZM19.1429 42.9458C18.5714 42.6585 18.2857 42.3713 18 41.9404C17.7143 41.5095 17.5714 40.935 17.5714 40.3604H19.5714C19.5714 40.6477 19.7143 40.7913 19.7143 40.935C19.8571 41.0786 20 41.2222 20.1429 41.2222C20.2857 41.3659 20.4286 41.3659 20.7143 41.3659C21.1429 41.3659 21.4286 41.2222 21.5714 41.0786C21.7143 40.935 21.8571 40.5041 21.8571 40.2168V39.9295C21.8571 39.4986 21.7143 39.2114 21.5714 38.9241C21.4286 38.6369 21.1429 38.6369 20.8571 38.6369H20V36.7696H20.8571C21.1429 36.7696 21.2857 36.626 21.4286 36.4824C21.5714 36.3388 21.5714 36.0515 21.5714 35.6206V35.477C21.5714 35.1897 21.4286 34.9024 21.2857 34.7588C21.1429 34.6152 20.8571 34.4715 20.5714 34.4715C20.4286 34.4715 20.2857 34.4715 20.1429 34.6152C20 34.7588 19.8571 34.9024 19.7143 35.0461C19.5714 35.1897 19.5714 35.477 19.4286 35.6206H17.4286C17.4286 34.9024 17.7143 34.4715 18 33.897C18.2857 33.4661 18.7143 33.0352 19.1429 32.748C19.5714 32.4607 20.1429 32.3171 20.7143 32.3171C21.7143 32.3171 22.4286 32.6043 22.8571 33.0352C23.4286 33.4661 23.5714 34.1843 23.5714 35.0461V35.3333C23.5714 35.7642 23.4286 36.1951 23.1429 36.626C22.8571 37.0569 22.5714 37.2005 22.1429 37.4878C22.7143 37.6314 23 37.9187 23.2857 38.3496C23.5714 38.7805 23.7143 39.355 23.7143 39.9295V40.2168C23.7143 40.7913 23.5714 41.3659 23.2857 41.7967C23 42.2276 22.7143 42.5149 22.2857 42.8022C21.8571 43.0894 21.2857 43.0894 20.5714 43.0894C20.1429 43.2331 19.5714 43.2331 19.1429 42.9458ZM26 37.2005H29.5714V38.6369H26V37.2005ZM27.7143 0C27.7143 0 22.5714 4.59621 22.5714 8.90515C22.5714 11.7778 24.8571 14.0759 27.7143 14.0759C30.5714 14.0759 32.8571 11.7778 32.8571 8.90515C33 4.45257 27.7143 0 27.7143 0ZM26.4286 13.0705C26.2857 12.9268 26.1429 12.9268 26 12.9268C25.8571 12.9268 25.7143 12.7832 25.5714 12.6396C25.4286 12.6396 25.4286 12.4959 25.2857 12.4959C25.1429 12.4959 25.1429 12.3523 25 12.2087C24.8571 12.065 24.7143 11.7778 24.4286 11.6341C24.4286 11.4905 24.4286 11.4905 24.2857 11.3469L24.1429 11.2033C24.1429 11.2033 24.1429 11.0596 24 11.0596C23.8571 10.7724 23.7143 10.4851 23.7143 10.1978C23.7143 10.0542 23.7143 9.91057 23.5714 9.76694V9.62331V9.33604V9.19241V8.90515C23.5714 8.76152 23.5714 8.76152 23.5714 8.61789V8.33062C23.5714 8.18699 23.5714 8.18699 23.5714 8.04336C23.5714 7.89973 23.5714 7.89973 23.5714 7.7561C23.5714 7.61247 23.7143 7.46883 23.7143 7.3252C23.7143 7.3252 23.7143 7.18157 23.8571 7.18157V7.03794C23.8571 6.89431 24 6.75068 24 6.75068C24 6.75068 24 6.60705 24.1429 6.60705C24.1429 6.60705 24.1429 6.46341 24.2857 6.46341C24.2857 6.31978 24.4286 6.17615 24.4286 6.17615C24.5714 6.03252 24.7143 5.74526 24.8571 5.60163C25 5.45799 25.1429 5.31436 25.1429 5.17073C25.2857 5.0271 25.2857 5.0271 25.4286 4.88347L25.5714 4.73984C25.5714 4.73984 25.5714 4.88347 25.4286 5.0271C25.4286 5.17073 25.2857 5.31436 25.2857 5.45799C25.2857 5.60163 25.1429 5.74526 25 6.03252C24.8571 6.17615 24.8571 6.46341 24.7143 6.75068C24.7143 6.89431 24.5714 7.03794 24.5714 7.18157C24.5714 7.3252 24.5714 7.46883 24.4286 7.61247C24.4286 7.7561 24.4286 7.89973 24.2857 8.04336C24.2857 8.18699 24.2857 8.33062 24.2857 8.47425V8.61789V8.90515V9.19241C24.2857 9.19241 24.2857 9.33604 24.2857 9.47967V9.76694V9.91057C24.2857 10.0542 24.2857 10.1978 24.2857 10.3415C24.2857 10.4851 24.2857 10.6287 24.4286 10.7724C24.4286 10.916 24.5714 11.0596 24.5714 11.2033V11.3469C24.5714 11.3469 24.5714 11.4905 24.7143 11.4905C24.7143 11.6341 24.8571 11.7778 24.8571 11.7778C24.8571 11.9214 25 11.9214 25 12.065C25 12.065 25 12.2087 25.1429 12.2087C25.1429 12.2087 25.1429 12.3523 25.2857 12.3523C25.2857 12.4959 25.4286 12.4959 25.4286 12.6396C25.4286 12.7832 25.5714 12.7832 25.5714 12.7832C25.7143 12.9268 25.8571 13.0705 25.8571 13.0705C26.4286 12.9268 26.4286 12.9268 26.4286 13.0705ZM49.8571 8.61789H35V10.7724H49.8571C51.5714 10.7724 53 12.2087 53 13.9322V43.0894C53 45.9621 50.5714 48.4038 47.7143 48.4038H34.7143C34.5714 48.4038 34.4286 48.4038 34.2857 48.4038L28.5714 50.5583C27.8571 50.8455 27 50.8455 26.2857 50.5583L20.5714 48.4038C20.4286 48.4038 20.2857 48.4038 20.1429 48.4038H7.28571C4.42857 48.4038 2 46.1057 2 43.0894V13.9322C2 12.2087 3.42857 10.7724 5.14286 10.7724H20.4286V8.61789H5.28571C2.28571 8.61789 0 11.0596 0 13.9322V43.0894C0 47.1111 3.28571 50.4146 7.28571 50.4146H20.1429L25.5714 52.5691C26.1429 52.8564 26.8571 52.8564 27.4286 52.8564C28 52.8564 28.7143 52.7127 29.2857 52.5691L34.7143 50.4146H47.5714C51.5714 50.4146 54.8571 47.1111 54.8571 43.0894V13.9322C55 11.0596 52.7143 8.61789 49.8571 8.61789ZM38.4286 27.4336L40.2857 17.8103H42.7143L44.5714 27.4336H42.5714L42.2857 25.4228H40.8571L40.5714 27.4336H38.4286ZM41 24.1301H42L41.4286 20.3957L41 24.1301ZM34.2857 27.5772C33.8571 27.5772 33.4286 27.4336 33 27.29C32.7143 27.1463 32.4286 26.8591 32.1429 26.5718C32 26.2846 31.8571 25.9973 31.7143 25.5664C31.5714 25.1355 31.5714 24.7046 31.5714 24.2737V21.1138C31.5714 20.6829 31.5714 20.252 31.7143 19.9648C31.7143 19.6775 31.8571 19.3902 32 19.103C32.1429 18.8157 32.2857 18.5285 32.5714 18.3848C32.8571 18.2412 33 18.0976 33.4286 17.9539C33.8571 17.8103 34.1429 17.8103 34.5714 17.8103C35 17.8103 35.2857 17.8103 35.7143 17.9539C36 18.0976 36.2857 18.0976 36.5714 18.3848C36.7143 18.5285 37 18.6721 37.1429 18.9593C37.2857 19.2466 37.4286 19.3902 37.4286 19.6775C37.4286 19.9648 37.5714 20.252 37.5714 20.6829V21.2575H35.5714V20.5393C35.5714 20.3957 35.5714 20.252 35.5714 20.252C35.5714 20.1084 35.5714 20.1084 35.5714 19.9648C35.5714 19.8211 35.5714 19.8211 35.4286 19.6775L35.2857 19.5339C35.1429 19.5339 35.1429 19.5339 35 19.5339C34.8571 19.5339 34.7143 19.5339 34.7143 19.6775C34.5714 19.6775 34.5714 19.8211 34.4286 19.8211C34.4286 19.9648 34.2857 19.9648 34.2857 20.1084C34.2857 20.252 34.2857 20.3957 34.2857 20.3957C34.2857 20.5393 34.2857 20.6829 34.2857 20.8266V25.2791C34.2857 25.71 34.2857 25.9973 34.4286 26.1409C34.5714 26.4282 34.7143 26.4282 35 26.4282C35.5714 26.4282 35.8571 25.9973 35.8571 25.1355V24.1301H35V22.8374H37.7143V27.8645H36.2857L36.1429 27.0027C35.5714 27.29 35.1429 27.5772 34.2857 27.5772ZM26.4286 27.4336V17.8103H30.7143V19.2466H28.5714V21.5447H30.2857V22.981H28.5714V25.8537H30.7143V27.29H26.4286V27.4336ZM17.8571 27.4336L18 17.8103H20.2857L21.2857 23.4119L22.4286 17.8103H24.5714L24.7143 27.4336H23.1429L23 21.1138L21.8571 27.4336H20.5714L19.4286 20.9702L19.2857 27.4336H17.8571ZM13.4286 27.5772C12.8571 27.5772 12.4286 27.5772 12.1429 27.4336C11.7143 27.29 11.4286 27.0027 11.2857 26.7154C11 26.4282 10.8571 26.1409 10.8571 25.71C10.7143 25.2791 10.7143 24.8482 10.7143 24.4173V20.8266C10.7143 20.252 10.7143 19.8211 10.8571 19.5339C11 19.103 11.1429 18.8157 11.2857 18.5285C11.5714 18.2412 11.8571 18.0976 12.1429 17.9539C12.5714 17.8103 13 17.8103 13.4286 17.8103C14.4286 17.8103 15.1429 18.0976 15.7143 18.6721C16.1429 19.2466 16.4286 19.9648 16.4286 20.9702V24.4173C16.4286 25.4228 16.1429 26.2846 15.7143 26.7154C15.2857 27.29 14.4286 27.5772 13.4286 27.5772ZM13.1429 25.9973C13.2857 25.9973 13.2857 25.9973 13.4286 25.9973C13.5714 25.9973 13.7143 25.9973 13.7143 25.9973C13.8571 25.9973 13.8571 25.8537 13.8571 25.8537C13.8571 25.8537 14 25.71 14 25.5664C14 25.4228 14 25.4228 14 25.2791C14 25.1355 14 25.1355 14 24.9919V20.3957C14 20.252 14 20.1084 14 20.1084C14 20.1084 14 19.9648 14 19.8211C14 19.6775 14 19.6775 13.8571 19.5339C13.7143 19.3902 13.7143 19.3902 13.7143 19.3902C13.5714 19.3902 13.5714 19.3902 13.4286 19.3902C13.2857 19.3902 13.1429 19.3902 13.1429 19.3902C13 19.3902 13 19.5339 13 19.5339C13 19.5339 12.8571 19.6775 12.8571 19.8211C12.8571 19.9648 12.8571 19.9648 12.8571 20.1084C12.8571 20.252 12.8571 20.252 12.8571 20.3957V24.9919C12.8571 25.1355 12.8571 25.2791 12.8571 25.2791C12.8571 25.4228 12.8571 25.4228 12.8571 25.5664C12.8571 25.71 12.8571 25.71 13 25.8537C13 25.8537 13 25.9973 13.1429 25.9973Z" fill="white"/>
</g>
<defs>
<clipPath id="clip0_55_209">
<rect width="55" height="53" fill="white"/>
</clipPath>
</defs>
</svg>
