<svg width="53" height="51" viewBox="0 0 53 51" fill="none" xmlns="http://www.w3.org/2000/svg">
<g clip-path="url(#clip0_55_207)">
<path d="M51.9531 19.877C51.1679 17.0001 46.4568 5.62315 38.6049 8.89238C36.9037 9.54623 36.5111 10.4616 35.3333 10.4616C35.0716 10.4616 33.8938 10.4616 32.0617 8.10776C28.921 4.18469 28.7901 0.784688 28.1358 0.261611C27.4815 7.2699e-05 26.8272 -0.130697 26.1728 0.130842C25.2568 0.39238 24.3407 1.177 23.8173 1.96161C23.6864 2.35392 23.5556 2.61546 23.4247 2.877C23.4247 3.00777 23.4247 3.00777 23.4247 3.13853C23.4247 3.2693 23.4247 3.2693 23.4247 3.40007C23.2938 4.44623 25.7802 10.0693 28.6593 12.9462C29.9679 14.3847 30.6222 14.6462 31.1457 15.8231C31.6691 16.8693 31.8 17.7847 31.9309 19.0924C31.9309 19.877 31.9309 20.6616 31.9309 21.4462C31.4074 26.8078 28.7901 30.8616 28.7901 30.8616C27.8741 32.1693 27.0889 33.3462 25.6494 34.0001C23.5556 35.0462 21.3309 34.6539 20.8074 34.5232C18.8444 34.1308 18.321 33.3462 16.4889 33.477C15.7037 33.477 15.1802 33.7385 14.5259 33.477C13.479 33.0847 13.0864 32.3001 12.4321 31.777C10.4691 30.077 6.9358 31.1231 6.54321 31.2539C3.6642 32.1693 2.35556 34.6539 1.8321 35.4385C1.57037 36.0924 1.30864 36.7462 0.916049 38.0539C0.392593 39.8847 0.130864 40.9308 0 41.8462C0 42.3693 0 42.7616 0 43.1539C0.261728 44.2001 4.58025 46.6847 5.75803 45.9001C6.9358 45.1155 6.9358 41.8462 8.50617 40.9308C8.7679 40.8001 9.42222 40.5385 10.0765 40.6693C10.8617 40.8001 11.1235 41.4539 11.7778 42.3693C11.7778 42.3693 11.9086 42.5001 13.7407 44.9847C15.5728 47.4693 18.1901 48.6462 19.3679 49.0385C20.6765 49.5616 21.5926 49.8232 22.7704 50.0847C24.3407 50.477 27.6123 51.1308 31.6691 50.7385C33.2395 50.6078 36.2494 50.2155 39.6519 48.6462C40.437 48.2539 43.9704 46.5539 47.242 42.6308C49.5975 39.8847 50.7753 37.1385 51.2988 35.5693C51.5605 34.7847 52.4765 32.1693 52.7383 28.5078C53.2617 24.4539 52.3457 21.1847 51.9531 19.877Z" fill="white"/>
</g>
<defs>
<clipPath id="clip0_55_207">
<rect width="53" height="51" fill="white"/>
</clipPath>
</defs>
</svg>
