<svg width="56" height="56" viewBox="0 0 56 56" fill="none" xmlns="http://www.w3.org/2000/svg">
<g clip-path="url(#clip0_55_211)">
<path d="M8.77285 50.8827C6.87206 51.3213 5.55614 51.6137 4.09399 51.9062C3.80157 51.9062 3.36292 51.3213 2.92428 51.0289C3.21671 50.7365 3.50914 50.1516 3.80157 50.1516C5.11749 50.0054 6.28721 50.0054 7.60313 50.1516C7.89556 50.1516 8.18799 50.444 8.77285 50.8827ZM8.3342 43.8644C7.89556 44.0106 7.45692 44.303 7.16449 44.303C5.84856 44.1568 4.38642 44.0106 3.0705 43.8644C3.0705 43.8644 2.92428 42.9871 3.0705 42.8409C3.36292 42.5485 3.80157 42.4022 4.24021 42.4022C5.55614 42.6947 6.87206 42.9871 8.18799 43.2795C8.3342 43.572 8.3342 43.7182 8.3342 43.8644ZM7.74935 46.2038V48.2508C5.55614 48.2508 3.21671 48.2508 0.877285 48.2508C0.584856 48.2508 0.292428 47.5197 0 47.2273C0.438642 46.9349 0.877285 46.35 1.16971 46.35C3.36292 46.0576 5.40992 46.2038 7.74935 46.2038ZM42.5483 24.8566C43.2794 25.2952 43.718 25.4414 44.3029 25.8801C42.6945 27.4884 40.0627 27.4884 38.4543 25.8801C39.0392 25.5876 39.624 25.2952 40.2089 24.8566C39.9165 21.9323 39.624 18.8618 39.4778 15.9375C39.4778 15.2064 39.9165 14.1829 40.5013 13.7443C40.9399 13.4518 42.1097 13.4519 42.5483 13.8905C42.9869 14.3291 43.2794 15.2064 43.2794 15.9375C43.1332 18.8618 42.8407 21.9323 42.5483 24.8566ZM30.9974 38.4545C29.9739 38.3082 29.0966 38.3082 28.3655 38.0158C28.0731 37.8696 27.6345 37.5772 27.4883 37.2847C26.3185 32.6059 26.4648 26.4649 31.1436 22.8096C32.3133 21.9323 32.8982 21.9323 34.3603 22.8096C30.1201 27.3422 30.705 32.8983 30.9974 38.4545ZM50.8825 41.3787C52.4909 34.7991 53.0757 28.5119 48.5431 22.8096C49.7128 21.7861 50.7363 22.0785 51.6136 22.9558C54.0992 24.8566 55.5614 27.4884 55.8538 30.7051C56.1462 34.2143 55.8538 37.5772 53.6606 40.5015C52.9295 41.525 52.0522 42.1098 50.8825 41.3787ZM38.4543 22.5171C38.1619 23.102 38.1619 23.6868 37.7232 24.1255C36.2611 25.5876 36.4073 26.7573 38.0157 28.0733C38.3081 28.3657 38.7467 28.9505 38.7467 29.3892C38.7467 32.7521 38.7467 36.115 38.7467 39.6242C37.1384 39.3317 35.53 39.1855 33.7755 38.8931C33.483 38.8931 33.0444 38.4545 33.0444 38.162C32.4595 33.1908 32.1671 28.3657 35.8225 24.2717C36.4073 23.5406 37.2846 22.9558 37.8695 22.3709C38.0157 22.3709 38.1619 22.5171 38.4543 22.5171ZM40.6475 29.0968C42.1097 28.8043 43.4256 28.6581 44.5953 28.0733C46.4961 27.196 46.7885 25.5876 45.1802 24.1255C44.7415 23.6868 44.7415 22.9558 44.7415 22.3709C46.9347 23.3944 48.3969 25.0028 49.1279 27.0498C50.7363 31.29 50.5901 35.6764 49.2742 39.9166C48.9817 40.7939 48.6893 41.0863 47.6658 40.9401C45.9112 40.5015 44.1567 40.3552 42.4021 40.209C41.3786 40.0628 40.7937 39.6242 40.7937 38.6007C40.6475 35.384 40.6475 32.1673 40.6475 29.0968ZM14.9138 37.1385C14.7676 37.1385 14.329 37.2848 13.7441 37.5772C13.0131 35.6764 12.4282 33.7756 11.6971 31.8748C11.5509 31.4362 11.1123 30.9975 10.8198 30.8513C7.16449 29.6816 6.28721 28.5119 7.16449 24.8566C4.53264 22.5171 4.24021 21.4936 5.84856 18.4231C4.82507 17.2534 3.50914 16.3761 2.77807 15.2064C1.0235 12.2821 2.48564 8.48057 5.70235 7.01843C6.14099 6.87222 6.72585 6.57979 6.72585 6.14115C7.45692 3.80172 8.91906 2.63201 11.5509 2.92444C12.4282 1.02365 13.7441 -0.292275 15.9373 0.000153635C18.1305 0.292582 19.154 1.75472 19.4465 3.94793H21.9321C20.1775 4.82522 19.4465 7.01843 17.2533 7.31086C16.376 7.45707 15.3525 8.18814 14.9138 8.91921C14.0366 10.5276 12.7206 11.5511 11.4047 12.5746C7.89556 15.4988 7.89556 20.6163 11.2585 23.8331C11.6971 24.4179 11.9896 24.8566 11.8433 25.7338C11.2585 27.6346 11.8433 29.243 13.0131 30.7051C13.3055 31.1438 13.4517 31.7286 13.5979 32.3135C14.0366 33.9218 14.329 35.5302 14.9138 37.1385ZM29.389 15.0602C28.9504 14.6216 28.658 14.1829 28.0731 13.5981C26.611 15.6451 25.295 17.5458 23.9791 19.4466C22.8094 17.1072 21.4935 14.7678 20.1775 12.1359C19.5927 12.4284 19.154 12.7208 18.5692 13.0132C19.5927 14.914 20.6162 16.8148 21.6397 18.8618C19.4465 18.7156 17.5457 18.4231 15.3525 18.2769C15.4987 19.1542 15.4987 19.5928 15.6449 20.1777C18.1305 20.3239 20.9086 20.0315 22.6632 21.9323C23.8329 23.2482 24.2715 25.4414 25.0026 27.3422C22.6632 26.7573 20.6162 26.3187 18.423 25.8801C18.423 26.7573 18.423 27.196 18.2768 27.6346C20.1775 28.2195 22.0783 28.6581 23.8329 29.243C24.7102 29.5354 25.0026 30.1203 25.0026 31.1438C24.8564 33.1908 25.0026 35.2378 25.0026 37.5772C22.6632 37.1385 20.1775 36.9923 17.6919 36.2612C15.4987 35.6764 14.9138 33.6294 15.7911 30.7051C13.0131 28.2195 12.8668 27.196 14.6214 23.9793C14.1828 23.6868 13.8903 23.5406 13.4517 23.2482C11.5509 21.9323 10.5274 20.1777 10.6736 17.8383C10.8198 15.4988 12.1358 14.0367 14.1828 13.0132C14.7676 12.7208 15.3525 12.1359 15.6449 11.5511C16.376 9.7965 17.5457 8.91921 19.4465 8.773C19.8851 8.773 20.47 8.48057 20.6162 8.18814C21.6397 6.57979 22.9556 5.7025 24.8564 5.99493C26.7572 6.28736 27.7807 7.60329 28.0731 9.50407C28.0731 9.65028 28.2193 9.7965 28.3655 10.0889C30.5587 9.65028 32.4595 9.94271 33.6292 12.1359C34.5065 14.0367 33.7755 15.6451 32.4595 16.961C33.0444 17.9845 33.6292 19.008 34.3603 20.3239C30.2663 20.3239 28.658 23.2482 26.7572 25.8801C24.2715 22.5171 25.5875 19.5928 29.389 15.0602ZM18.8616 38.4545C22.0783 38.8931 25.7337 39.478 29.389 40.0628C37.1384 41.2325 44.8877 42.4022 52.6371 43.7182C54.6841 44.0106 56 45.4727 56 47.2273C56 48.9819 54.6841 50.444 52.6371 50.7365C41.671 52.491 30.5587 54.0994 19.5927 55.8539C14.7676 56.585 10.235 52.7834 9.79634 47.666C9.21149 42.8409 13.3055 38.4545 18.8616 38.4545ZM17.5457 51.9062H19.154V42.5485H17.5457V51.9062ZM26.9034 42.5485H25.295V51.9062H26.9034V42.5485ZM34.6527 42.4022H32.8982V51.76H34.6527V42.4022ZM42.2559 50.0054V44.303C41.671 44.303 41.0862 44.303 40.6475 44.4492V50.0054H42.2559ZM50.0052 45.3265H48.2507V48.9819H49.859V45.3265H50.0052Z" fill="white"/>
</g>
<defs>
<clipPath id="clip0_55_211">
<rect width="56" height="56" fill="white"/>
</clipPath>
</defs>
</svg>
