<svg width="101" height="30" viewBox="0 0 101 30" fill="none" xmlns="http://www.w3.org/2000/svg">
<g clip-path="url(#clip0_55_13)">
<path d="M54.1138 3.30946H98.7809V0H54.1138V3.30946ZM44.1082 3.30946H48.5663V0H44.1082V3.30946Z" fill="#1F3773"/>
<path d="M7.51147 19.6416V25.9883C7.51147 27.2204 7.58314 28.0084 7.71216 28.3236C7.84117 28.6387 8.08486 28.8966 8.42889 29.0972C8.77293 29.2834 9.40366 29.3837 10.3211 29.3837V29.9998H5.25406e-05V29.3837C0.946147 29.3837 1.57688 29.2834 1.90658 29.0829C2.23628 28.8823 2.47997 28.6244 2.60898 28.3092C2.73799 27.994 2.80967 27.2204 2.80967 25.9883V11.1459C2.80967 9.91381 2.73799 9.12585 2.60898 8.81066C2.47997 8.49548 2.23628 8.2376 1.89224 8.03702C1.54821 7.85078 0.917478 7.75049 -0.0142822 7.75049V7.12012H8.8446C11.7689 7.12012 13.8618 7.70751 15.1232 8.86797C16.399 10.0428 17.0298 11.5041 17.0298 13.2519C17.0298 14.7419 16.614 16.0026 15.797 17.0628C14.9799 18.123 13.8474 18.8393 12.414 19.2261C11.4679 19.5127 9.81937 19.6416 7.51147 19.6416ZM7.51147 8.43817V18.3236C7.84117 18.3522 8.08486 18.3522 8.25688 18.3522C9.47533 18.3522 10.4214 17.9511 11.0808 17.1344C11.7402 16.3178 12.0699 15.0571 12.0699 13.3522C12.0699 11.6473 11.7402 10.4152 11.0808 9.62728C10.4214 8.83931 9.43233 8.4525 8.12786 8.4525H7.51147V8.43817Z" fill="#1D1D1B"/>
<path d="M26.1323 19.57V25.974C26.1323 27.2061 26.204 27.994 26.333 28.3092C26.462 28.6244 26.7057 28.8823 27.0498 29.0829C27.3938 29.2691 28.0245 29.3694 28.9563 29.3694V29.9855H18.5492V29.3694C19.4953 29.3694 20.1261 29.2691 20.4558 29.0685C20.7855 28.868 21.0292 28.6101 21.1582 28.2949C21.2872 27.9797 21.3589 27.2061 21.3589 25.974V11.1459C21.3589 9.91381 21.2872 9.12585 21.1582 8.81066C21.0292 8.49548 20.7855 8.2376 20.4414 8.03702C20.0974 7.85078 19.4667 7.75049 18.5349 7.75049V7.12012H27.9815C30.4328 7.12012 32.2389 7.30636 33.3857 7.69318C34.5325 8.08 35.4499 8.78201 36.181 9.81353C36.8977 10.845 37.2561 12.0485 37.2561 13.4382C37.2561 15.1287 36.7114 16.5184 35.6363 17.6216C34.9482 18.3236 33.9878 18.8393 32.7407 19.1832L37.6288 26.9195C38.2739 27.9224 38.7183 28.5385 38.9906 28.7963C39.4063 29.1402 39.8794 29.3408 40.4098 29.3694V29.9855H34.0021L27.4511 19.5556H26.1323V19.57ZM26.1323 8.36654V18.3809H26.9924C28.3829 18.3809 29.415 18.2376 30.1174 17.9511C30.8055 17.6645 31.3502 17.1488 31.7516 16.4038C32.1529 15.6588 32.3393 14.6846 32.3393 13.4811C32.3393 11.7333 31.9809 10.4439 31.2498 9.61295C30.5188 8.78201 29.3577 8.36654 27.7522 8.36654H26.1323Z" fill="#1D1D1B"/>
<path d="M51.4045 29.3841V30.0001H40.7681V29.3841H41.4419C42.0296 29.3841 42.5026 29.2694 42.861 29.0259C43.119 28.8683 43.3197 28.5961 43.4631 28.2236C43.5777 27.9514 43.6207 27.2494 43.6207 26.1032V11.0603C43.6207 9.88548 43.5634 9.15482 43.4631 8.86829C43.3484 8.58176 43.1334 8.32388 42.7893 8.09465C42.4596 7.87975 42.0009 7.76514 41.4275 7.76514H40.7538V7.13477H51.3902V7.76514H50.7164C50.1287 7.76514 49.6557 7.87975 49.2973 8.1233C49.0393 8.2809 48.8386 8.5531 48.6809 8.93992C48.5662 9.21213 48.5089 9.91413 48.5089 11.0603V26.1032C48.5089 27.278 48.5662 28.0087 48.6809 28.2952C48.7956 28.5818 49.0249 28.8396 49.3546 29.0689C49.6843 29.2838 50.1431 29.3984 50.7164 29.3984H51.4045V29.3841Z" fill="#1D1D1B"/>
<path d="M66.7427 22.2061L72.2616 7.12012H80.5327V7.75049H79.8733C79.2713 7.75049 78.7982 7.8651 78.4398 8.10866C78.1961 8.26625 77.9955 8.52413 77.8378 8.89662C77.7231 9.16883 77.6801 9.87083 77.6801 11.0026V26.0886C77.6801 27.2634 77.7374 27.994 77.8378 28.2806C77.9525 28.5671 78.1675 28.825 78.5115 29.0542C78.8555 29.2691 79.2999 29.3837 79.8733 29.3837H80.5327V29.9998H69.9107V29.3837H70.57C71.1721 29.3837 71.6452 29.2691 72.0035 29.0256C72.2472 28.868 72.4479 28.5958 72.6056 28.2089C72.7203 27.9367 72.7776 27.2347 72.7776 26.0886V9.14017L64.9795 29.9998H64.6211L56.7083 9.28344V25.3866C56.7083 26.5041 56.737 27.2061 56.78 27.464C56.909 28.0227 57.1957 28.4811 57.6258 28.8393C58.0558 29.1975 58.7439 29.3694 59.6756 29.3694V29.9854H52.7233V29.3694H52.9383C53.3827 29.3837 53.8127 29.2978 54.1997 29.1258C54.5868 28.9539 54.8878 28.7247 55.0885 28.4238C55.2892 28.1373 55.4469 27.7218 55.5472 27.1917C55.5616 27.0628 55.5759 26.4897 55.5759 25.4726V11.0026C55.5759 9.84218 55.5185 9.12585 55.4039 8.83931C55.2892 8.55278 55.0742 8.2949 54.7301 8.08C54.3861 7.8651 53.9417 7.75049 53.3683 7.75049H52.7233V7.12012H61.0231L66.7427 22.2061Z" fill="#1D1D1B"/>
<path d="M89.4634 8.43817V17.7505H89.8647C91.1549 17.7505 92.0866 17.292 92.6743 16.3895C93.2477 15.4726 93.6204 14.1402 93.7781 12.3637H94.3515V24.3407H93.7781C93.6634 23.037 93.4054 21.9625 93.0184 21.1316C92.6313 20.3006 92.187 19.7419 91.6709 19.4554C91.1549 19.1688 90.4238 19.0256 89.449 19.0256V25.4726C89.449 26.7333 89.492 27.5069 89.5924 27.7791C89.6927 28.0657 89.8647 28.2949 90.1228 28.4668C90.3808 28.6531 90.7965 28.739 91.3842 28.739H92.6027C94.5092 28.739 96.0287 28.2519 97.1755 27.2491C98.3222 26.2605 99.1393 24.7562 99.641 22.7218H100.2L99.2827 29.9855H81.7083V29.3694H82.382C82.9697 29.3694 83.4428 29.2548 83.8011 29.0112C84.0591 28.8536 84.2598 28.5814 84.4032 28.2089C84.5179 27.9367 84.5609 27.2347 84.5609 26.0886V11.0456C84.5609 10.0141 84.5322 9.3694 84.4892 9.14017C84.3889 8.75336 84.2025 8.43817 83.9301 8.22327C83.5431 7.90808 83.027 7.75049 82.3676 7.75049H81.7083V7.12012H98.7236V13.8966H98.1502C97.8635 12.2491 97.4478 11.0599 96.9318 10.3436C96.4014 9.62728 95.6703 9.09719 94.7099 8.75335C94.1508 8.55278 93.1044 8.4525 91.5562 8.4525H89.4634V8.43817Z" fill="#1D1D1B"/>
</g>
<defs>
<clipPath id="clip0_55_13">
<rect width="100.2" height="30" fill="white"/>
</clipPath>
</defs>
</svg>
