<svg width="92" height="92" viewBox="0 0 92 92" fill="none" xmlns="http://www.w3.org/2000/svg">
<circle opacity="0.2" cx="46" cy="46" r="45.5" stroke="#1F3773"/>
<g clip-path="url(#clip0_166_40)">
<path d="M58.943 34.3958C58.9806 34.5852 58.9806 34.7746 58.9806 34.9262C59.0182 35.4187 59.0558 35.9112 59.2438 36.3279C59.3942 36.631 59.6574 36.8962 59.9207 37.1614C60.1087 37.3508 60.2967 37.5403 60.4847 37.7676C61.8008 39.4345 61.876 40.7984 60.7855 42.6548C60.5975 42.9958 60.0711 44.0566 60.4471 44.4354C60.8231 44.8521 61.9512 44.6627 62.4401 44.6248C62.7409 44.6248 63.0041 44.6248 63.2298 44.6248C63.7186 44.1702 64.3579 43.7535 64.8843 43.4504C65.0347 43.3367 65.1852 43.261 65.298 43.1852C65.6364 42.9579 65.9748 42.7684 66.2757 42.6169C67.1405 42.1623 67.855 41.7455 68.1182 40.8363C68.5319 39.4345 69.1711 37.8433 70.5249 36.6689C70.8633 36.3658 71.2769 36.1006 71.7282 35.9112C69.5472 32.2742 64.5083 30.8345 61.124 31.4028C59.8454 31.6301 58.943 31.8195 58.3789 32.0847C58.6421 32.8425 58.8678 33.6002 58.943 34.3958Z" fill="#1F3773"/>
<path d="M73.196 37.4645C72.9328 36.9719 72.632 36.7446 72.2936 36.7446C71.8799 36.9341 71.5415 37.1235 71.2407 37.3887C70.0749 38.4116 69.5109 39.8512 69.1349 41.1015C68.7212 42.3896 67.7435 42.9578 66.8034 43.4504C66.5026 43.6019 66.1642 43.7913 65.9009 43.9808C65.7881 44.0565 65.6377 44.1702 65.4497 44.2459C65.2241 44.3596 64.5848 44.9279 64.6224 44.9658C64.5472 45.0415 64.4344 45.0794 64.3592 45.1552C63.9832 45.4962 64.096 46.0266 64.3968 46.6327C65.2241 46.5948 66.089 46.6327 66.7282 46.7843C67.0667 46.86 67.4051 47.0116 67.7059 47.1252C68.3076 47.3526 68.8716 47.5799 69.4357 47.5799C70.1502 47.5799 70.7518 47.2389 71.4287 46.8979C72.4064 46.4054 73.4593 45.8371 74.8506 46.2539C75.5651 42.8063 74.0609 39.1693 73.196 37.4645Z" fill="#1F3773"/>
<path d="M52.1748 37.3507L52.2124 37.5401C52.3252 38.3357 52.4756 39.1692 52.8517 39.7754C53.0773 40.1542 53.3781 40.4952 53.679 40.8362C54.0926 41.3287 54.5438 41.8591 54.8447 42.5031C55.4087 43.6776 56.1608 46.3674 56.3112 46.3295C56.6496 46.178 57.2513 45.9128 57.2889 45.8749C58.0034 45.3824 58.229 44.511 59.0563 44.208C59.5075 44.0564 59.6579 43.7533 59.6203 43.3366C59.6203 42.4273 60.2972 41.7454 60.4852 40.9119C60.6732 39.9648 60.2596 39.1692 59.6955 38.4494C59.5451 38.2599 59.3947 38.1084 59.2443 37.9569C58.9435 37.6538 58.605 37.3128 58.3794 36.8582C58.0786 36.252 58.041 35.6458 58.0034 35.0776C58.0034 34.926 57.9658 34.7366 57.9658 34.5851C57.8906 33.8273 57.6649 33.1075 57.4393 32.3877C56.0856 32.4635 54.8823 33.0696 53.679 33.6379C52.4756 34.2062 52.1748 34.5472 52.1372 35.2291C52.0996 35.1533 52.062 36.5551 52.1748 37.3507Z" fill="#1F3773"/>
<path d="M71.8416 47.8449C71.0896 48.2238 70.2999 48.6405 69.3598 48.6405C68.6077 48.6405 67.9309 48.3753 67.2916 48.148C66.9908 48.0344 66.6899 47.9207 66.3891 47.8449C65.7499 47.6555 64.697 47.6555 63.8697 47.7692C63.3056 48.1101 62.9672 48.6405 63.0048 49.3225C63.0424 49.7771 63.3056 50.2696 63.4936 50.7621C63.9449 50.5727 64.3961 50.4211 64.885 50.3833C65.6746 50.3454 66.3891 50.6106 66.9908 51.1788C67.5924 51.7471 68.2317 52.3154 68.9086 52.5806C69.2846 52.7322 69.811 52.77 70.2999 52.8458C71.1648 52.9595 72.0673 53.0352 72.5937 53.5656C74.7747 50.7621 75.0003 48.4511 74.5115 47.3145C73.5714 46.9357 72.7817 47.3524 71.8416 47.8449Z" fill="#1F3773"/>
<path d="M70.2617 53.8308C69.6976 53.755 69.0959 53.7171 68.6071 53.5277C67.7046 53.1867 66.9901 52.5048 66.3509 51.9365C65.9372 51.5577 65.486 51.3682 64.9596 51.4061C64.5083 51.444 64.0571 51.6334 63.6434 51.8608C63.117 52.3533 62.7033 53.111 62.2521 54.096C61.7632 55.2326 61.4624 56.407 61.3496 57.3541C61.9889 57.7709 62.6281 58.4528 63.1922 59.5515C64.2451 61.6731 65.0348 61.5215 66.4261 61.2185C66.7269 61.1427 67.103 61.0669 67.4414 61.029C69.4344 59.4 70.7505 56.5964 71.6906 54.7022C71.8034 54.5885 71.9162 54.4748 72.029 54.3233C71.7658 53.9823 70.9761 53.9066 70.2617 53.8308Z" fill="#1F3773"/>
<path d="M65.2232 62.3554C64.2455 62.3554 63.2678 61.9007 62.2902 59.9686C61.7261 58.8699 61.1244 58.3016 60.5604 57.9985C58.9058 58.3774 57.4017 59.4003 56.048 60.4232C54.5814 61.5219 53.2277 62.7721 52.0244 64.1739C51.3851 64.9316 50.7459 65.6514 50.5578 66.6364C50.2946 67.8109 52.4004 66.9395 52.8141 66.7501C53.1525 66.5985 54.0926 66.0681 54.5062 66.2576C54.9575 66.447 54.5814 67.1668 54.6566 67.5078C54.7694 68.1518 55.8599 67.9624 56.3112 67.8109C57.2137 67.4699 59.9587 66.106 60.5604 65.8029C62.2149 64.8937 63.7567 63.7571 65.336 62.6963C65.5617 62.5448 65.7121 62.4311 65.8625 62.2796C65.6369 62.3554 65.4489 62.3554 65.2232 62.3554Z" fill="#1F3773"/>
<path d="M53.942 42.9197C53.6788 42.3893 53.3028 41.9347 52.9267 41.4801C52.6259 41.1012 52.2875 40.7223 52.0243 40.3056C51.5354 39.51 51.385 38.525 51.2346 37.6915L51.197 37.5021C51.0466 36.6307 51.009 35.7972 51.009 34.9638C49.016 34.9259 46.9478 34.7743 44.9924 35.1532C43.0746 35.532 41.1568 35.6078 39.239 36.214C37.2085 36.858 35.2907 37.7673 33.2977 38.4871C31.5303 39.1312 24.4232 41.5179 26.9051 42.7682C28.6348 43.6395 30.6278 44.0941 32.4704 44.5867C36.682 45.7232 41.0064 46.4809 45.218 47.6175C48.0383 48.3752 51.573 48.6404 54.3557 47.5038C54.6189 47.3902 54.8821 47.2765 55.1454 47.0871C54.9197 45.5717 54.5061 44.1699 53.942 42.9197ZM38.7126 39.3963C38.3366 39.3963 37.9981 39.0933 37.9981 38.6765C37.9981 38.2977 38.299 37.9567 38.7126 37.9567C39.0886 37.9567 39.4271 38.2598 39.4271 38.6765C39.4271 39.0554 39.1262 39.3963 38.7126 39.3963Z" fill="#1F3773"/>
<path d="M56.2749 45.9127C56.2373 46.6325 56.6134 46.5567 55.5605 49.2466C54.1691 52.6942 53.3794 53.9065 53.9435 53.414C54.5076 52.9215 57.8167 48.9814 57.403 45.1929L56.2749 45.9127Z" fill="#1F3773"/>
<path d="M57.4394 44.5488C57.5146 45.2686 57.853 45.1171 57.1762 47.9585C56.2737 51.5955 55.672 52.8836 56.1609 52.3153C56.6497 51.747 59.3572 47.3902 58.4171 43.7153L57.4394 44.5488Z" fill="#1F3773"/>
<path d="M58.3042 43.2231C58.4922 43.905 58.8307 43.7156 58.6427 46.6328C58.417 50.3456 58.041 51.7473 58.3794 51.1033C58.7555 50.4592 60.6732 45.6857 59.0939 42.2002L58.3042 43.2231Z" fill="#1F3773"/>
<path d="M62.3658 43.4503C62.3282 43.867 62.253 44.4353 62.065 45.2309C61.3129 48.8679 60.7488 50.2318 61.2001 49.6256C61.5385 49.171 63.1931 46.3296 63.3435 43.3745L62.3658 43.4503Z" fill="#1F3773"/>
<path d="M61.3125 43.526C61.2749 43.6775 61.2373 43.829 61.1997 44.0185C60.4476 47.6555 59.8836 49.0194 60.3348 48.4132C60.6357 48.0343 61.8766 45.9128 62.3278 43.4502L61.3125 43.526Z" fill="#1F3773"/>
<path d="M60.5984 43.3365C59.9591 46.4431 59.4703 47.5418 59.9215 46.9735C60.1848 46.6325 61.0497 45.155 61.6137 43.2607L60.5984 43.3365Z" fill="#1F3773"/>
<path d="M42.5869 46.1402C42.5869 46.1402 37.5857 46.6706 36.1943 48.2618C34.803 49.853 33.1484 52.9975 33.1484 52.1261C33.1484 51.2547 34.5774 48.1481 35.6303 47.3525C36.6832 46.5569 42.3613 44.3975 42.3613 44.3975L42.5869 46.1402Z" fill="#1F3773"/>
<path d="M40.2549 45.5337C40.2549 45.5337 35.2536 46.0641 33.8623 47.6553C32.471 49.2465 30.8164 52.391 30.8164 51.5196C30.8164 50.6483 32.2453 47.5417 33.2982 46.7461C34.3511 45.9505 40.0293 43.791 40.0293 43.791L40.2549 45.5337Z" fill="#1F3773"/>
<path d="M36.2315 44.5108C36.2315 44.5108 31.2302 45.0412 29.8389 46.6324C28.4475 48.2236 26.793 51.3681 26.793 50.4967C26.793 49.6253 28.2219 46.5187 29.2748 45.7231C30.3277 44.9275 36.0058 42.7681 36.0058 42.7681L36.2315 44.5108Z" fill="#1F3773"/>
<path d="M37.4717 45.1929C37.4717 45.1929 32.4704 45.7233 31.0791 47.3145C29.6878 48.9057 28.0332 52.0502 28.0332 51.1788C28.0332 50.3075 29.4621 47.2009 30.515 46.4053C31.5679 45.6097 37.2461 43.4502 37.2461 43.4502L37.4717 45.1929Z" fill="#1F3773"/>
<path d="M22.9959 45.496C21.567 45.496 20.2508 45.2687 19.3484 44.6247C18.5587 44.0564 18.145 43.2608 18.145 42.1621C18.0698 36.0247 26.3426 33.259 34.1266 31.1374C34.841 30.948 35.5555 30.7586 36.3076 30.5313C42.5122 28.8643 50.1457 26.7806 52.4771 25.1894C52.6651 25.0758 53.0412 25 53.0412 25C53.0412 25 52.8531 25.3789 52.6651 25.4925C50.2209 27.1216 42.9258 29.0916 36.4204 30.8344C35.6683 31.0238 34.9538 31.2132 34.2394 31.4405C26.5682 33.5242 18.4083 36.252 18.4835 42.2C18.4835 43.185 18.8595 43.867 19.5364 44.3595C22.7703 46.6326 32.1336 43.3366 32.2088 43.2987L32.3216 43.6018C32.0584 43.7154 26.9819 45.496 22.9959 45.496Z" fill="#1F3773"/>
<path d="M20.8514 45.496C19.4224 45.496 18.1063 45.2687 17.2038 44.6247C16.4141 44.0943 16.0005 43.2608 16.0005 42.2C15.9253 36.0247 24.1981 33.2211 31.982 31.0996C32.6965 30.9101 33.411 30.7207 34.163 30.4934C40.33 28.8264 47.8883 26.7806 50.295 25.1894C50.483 25.1137 50.8966 25 50.8966 25C50.8966 25 50.7086 25.3789 50.483 25.4925C48.0387 27.1216 40.7437 29.0916 34.2382 30.8344C33.4862 31.0238 32.7717 31.2132 32.0572 31.4405C24.4237 33.5242 16.2637 36.252 16.3389 42.2C16.3389 43.185 16.715 43.867 17.3918 44.3595C20.6257 46.6326 29.989 43.3366 30.0642 43.2987L30.1771 43.6018C29.9138 43.7154 24.8373 45.496 20.8514 45.496Z" fill="#1F3773"/>
</g>
<defs>
<clipPath id="clip0_166_40">
<rect width="59" height="43" fill="white" transform="translate(16 25)"/>
</clipPath>
</defs>
</svg>
