<svg width="154" height="33" viewBox="0 0 154 33" fill="none" xmlns="http://www.w3.org/2000/svg">
<g clip-path="url(#clip0_219_327)">
<path fill-rule="evenodd" clip-rule="evenodd" d="M44.1416 0.124929C43.8885 0.187469 43.6354 0.291701 43.3824 0.395934C42.4122 0.875403 42.2224 1.29233 41.9061 2.25127C41.6741 3.91899 42.0959 7.37951 43.4456 10.0479C43.9729 10.8192 44.3947 11.2778 44.7321 11.3612C45.1328 11.2153 45.0485 11.2361 45.639 10.7983C46.2506 10.3606 48.3385 4.62777 47.6215 2.02196C47.516 1.73011 47.3684 1.45911 47.1575 1.16725C46.5881 0.375087 45.8921 -0.0209961 45.0274 -0.0209961C44.7743 -0.000149598 44.458 0.0415434 44.1416 0.124929ZM70.4832 27.0794H72.8031C73.2038 27.0794 73.5201 27.1628 73.7732 27.3505C74.0052 27.5172 74.1317 27.7882 74.1317 28.1635C74.1317 28.3719 74.0685 28.5596 73.963 28.7263C73.8576 28.8931 73.6889 28.9973 73.499 29.0807V29.1016C73.7732 29.1641 73.9841 29.2892 74.1107 29.4768C74.2583 29.6644 74.3216 29.9146 74.3216 30.2064C74.3216 30.3732 74.3005 30.54 74.2372 30.6859C74.1739 30.8318 74.0685 30.9569 73.9419 31.0611C73.8154 31.1654 73.6467 31.2487 73.4358 31.3113C73.2249 31.3738 72.9929 31.3947 72.6976 31.3947H70.4832V27.0794ZM71.4533 28.8514H72.5078C72.6976 28.8514 72.8452 28.8097 72.9718 28.7055C73.0983 28.6221 73.1616 28.4762 73.1616 28.3094C73.1616 28.1218 73.0983 27.9758 72.9929 27.8925C72.8874 27.8091 72.7187 27.7674 72.5078 27.7674H71.4533V28.8514ZM71.4533 30.6859H72.6133C72.8452 30.6859 73.0351 30.6234 73.1616 30.5191C73.2881 30.4149 73.3514 30.2481 73.3514 30.0605C73.3514 29.8729 73.2881 29.7061 73.1616 29.6019C73.0351 29.4976 72.8452 29.4559 72.6133 29.4559H71.4533V30.6859ZM67.404 31.5198C67.0455 31.5198 66.7291 31.4572 66.4549 31.353C66.1808 31.2487 65.9488 31.082 65.759 30.8735C65.5692 30.665 65.4215 30.4357 65.3161 30.1439C65.2106 29.8729 65.1684 29.5602 65.1684 29.2266C65.1684 28.8931 65.2106 28.6012 65.3161 28.3094C65.4215 28.0384 65.5692 27.7882 65.759 27.5798C65.9488 27.3713 66.1808 27.2254 66.4549 27.1003C66.7291 26.9961 67.0455 26.9335 67.404 26.9335C67.7625 26.9335 68.0789 26.9961 68.3531 27.1003C68.6272 27.2045 68.8592 27.3713 69.049 27.5798C69.2388 27.7882 69.3865 28.0175 69.4919 28.3094C69.5974 28.5804 69.6396 28.8931 69.6396 29.2266C69.6396 29.5602 69.5974 29.8729 69.4919 30.1439C69.3865 30.4149 69.2388 30.665 69.049 30.8735C68.8592 31.082 68.6272 31.2279 68.3531 31.353C68.0789 31.4781 67.7625 31.5198 67.404 31.5198ZM67.404 30.7693C67.6149 30.7693 67.8047 30.7276 67.9734 30.6442C68.1422 30.5608 68.2687 30.4357 68.3741 30.2898C68.4796 30.1439 68.5429 29.9771 68.6061 29.7895C68.6483 29.6019 68.6694 29.4143 68.6694 29.2266C68.6694 29.039 68.6483 28.8514 68.6061 28.6638C68.564 28.4762 68.4796 28.3094 68.3741 28.1635C68.2687 28.0175 68.1422 27.9133 67.9734 27.8091C67.8047 27.7257 67.6149 27.684 67.404 27.684C67.1931 27.684 67.0033 27.7257 66.8346 27.8091C66.6658 27.8925 66.5393 28.0175 66.4339 28.1635C66.3284 28.3094 66.2651 28.4762 66.2019 28.6638C66.1597 28.8514 66.1386 29.039 66.1386 29.2266C66.1386 29.4143 66.1597 29.6019 66.2019 29.7895C66.244 29.9771 66.3284 30.1439 66.4339 30.2898C66.5393 30.4357 66.6658 30.5608 66.8346 30.6442C67.0033 30.7276 67.1931 30.7693 67.404 30.7693ZM64.7677 27.7882H63.3125V31.4155H62.3424V27.7882H60.8239V27.0794H64.7888V27.7882H64.7677ZM57.2597 29.4976C57.2597 29.6644 57.2807 29.8312 57.3229 29.9771C57.3651 30.1439 57.4495 30.269 57.5338 30.394C57.6393 30.5191 57.7447 30.6025 57.8924 30.665C58.04 30.7276 58.2087 30.7693 58.4196 30.7693C58.7149 30.7693 58.9258 30.7067 59.1156 30.5817C59.2843 30.4566 59.4108 30.2898 59.4952 30.0397H60.4232C60.381 30.269 60.2755 30.4774 60.149 30.665C60.0225 30.8527 59.8748 30.9986 59.685 31.1237C59.5163 31.2487 59.3054 31.353 59.0945 31.4155C58.8836 31.4781 58.6516 31.5198 58.3985 31.5198C58.04 31.5198 57.7447 31.4572 57.4706 31.353C57.1964 31.2487 56.9855 31.082 56.7957 30.8735C56.6059 30.665 56.4793 30.4357 56.3739 30.1439C56.2895 29.8729 56.2262 29.5602 56.2262 29.2266C56.2262 28.9139 56.2684 28.6221 56.3739 28.3511C56.4793 28.0801 56.6269 27.8299 56.7957 27.6215C56.9855 27.413 57.1964 27.2462 57.4706 27.1211C57.7236 26.9961 58.04 26.9335 58.3563 26.9335C58.7149 26.9335 59.0101 26.9961 59.2843 27.142C59.5585 27.2879 59.7905 27.4755 59.9803 27.7048C60.1701 27.9342 60.2966 28.2052 60.381 28.5179C60.4654 28.8306 60.4864 29.1433 60.4443 29.4559H57.2597V29.4976ZM59.5374 28.8514C59.5163 28.7055 59.4952 28.5596 59.4319 28.4136C59.3687 28.2677 59.3054 28.1426 59.1999 28.0592C59.1156 27.955 58.989 27.8716 58.8625 27.8091C58.736 27.7465 58.5883 27.7048 58.4196 27.7048C58.2509 27.7048 58.1033 27.7257 57.9556 27.7882C57.808 27.8508 57.7025 27.9342 57.5971 28.0384C57.4916 28.1426 57.4073 28.2677 57.3651 28.3928C57.3018 28.5387 57.2807 28.6846 57.2597 28.8514H59.5374ZM51.9239 27.0794H52.894V28.8306L54.6656 27.0794H55.8677L54.1805 28.6638L56.0364 31.3947H54.8343L53.4845 29.2892L52.894 29.852V31.3947H51.9239V27.0794ZM46.6935 27.0794H47.6215V27.6632H47.6426C47.7691 27.413 47.98 27.2254 48.212 27.1211C48.4651 27.0169 48.7182 26.9544 49.0134 26.9544C49.372 26.9544 49.6672 27.0169 49.9203 27.142C50.1734 27.2671 50.4054 27.4338 50.5741 27.6423C50.7428 27.8508 50.8694 28.1009 50.9537 28.3719C51.0381 28.6429 51.0803 28.9556 51.0803 29.2683C51.0803 29.5602 51.0381 29.8312 50.9748 30.123C50.8904 30.394 50.785 30.6442 50.6163 30.8527C50.4686 31.0611 50.2577 31.2279 50.0257 31.353C49.7938 31.4781 49.4985 31.5406 49.1821 31.5406C49.0345 31.5406 48.8869 31.5198 48.7603 31.4989C48.6127 31.4781 48.4862 31.4364 48.3596 31.3738C48.2331 31.3113 48.1065 31.2487 48.0011 31.1654C47.8956 31.082 47.7902 30.9777 47.7269 30.8527H47.6637V33.0207H46.6935V27.0794ZM50.089 29.2475C50.089 29.0599 50.0679 28.8722 50.0047 28.6846C49.9625 28.497 49.8781 28.3302 49.7727 28.1843C49.6672 28.0384 49.5407 27.9342 49.393 27.8299C49.2454 27.7465 49.0556 27.7048 48.8658 27.7048C48.444 27.7048 48.1487 27.8508 47.9378 28.1218C47.7269 28.3928 47.6215 28.768 47.6215 29.2266C47.6215 29.4351 47.6426 29.6436 47.7058 29.8312C47.7691 30.0188 47.8324 30.1856 47.9589 30.3107C48.0644 30.4357 48.1909 30.5608 48.3385 30.6234C48.4862 30.7067 48.6549 30.7484 48.8658 30.7484C49.0978 30.7484 49.2665 30.7067 49.4352 30.6234C49.5829 30.54 49.7094 30.4149 49.8148 30.269C49.9203 30.123 49.9836 29.9563 50.0257 29.7895C50.0679 29.6227 50.089 29.4351 50.089 29.2475ZM45.5968 30.4357C45.5968 30.5608 45.6179 30.6442 45.639 30.6859C45.6812 30.7276 45.7234 30.7693 45.8288 30.7693H45.9343C45.9764 30.7693 46.0186 30.7693 46.0819 30.7484V31.4155C46.0397 31.4364 45.9975 31.4364 45.9554 31.4572C45.8921 31.4781 45.8499 31.4781 45.7866 31.4989C45.7234 31.5198 45.6812 31.5198 45.6179 31.5198C45.5546 31.5198 45.5125 31.5198 45.4703 31.5198C45.2594 31.5198 45.1118 31.4781 44.9641 31.3947C44.8376 31.3113 44.7532 31.1862 44.711 30.9777C44.5212 31.1654 44.2681 31.2904 43.994 31.3738C43.7198 31.4572 43.4456 31.4989 43.1715 31.4989C42.9816 31.4989 42.7707 31.4781 42.602 31.4155C42.4122 31.353 42.2646 31.2904 42.117 31.1862C41.9693 31.082 41.8639 30.9569 41.7795 30.7901C41.6952 30.6234 41.653 30.4357 41.653 30.2273C41.653 29.9563 41.6952 29.7478 41.8006 29.581C41.9061 29.4143 42.0326 29.2892 42.2013 29.1849C42.37 29.0807 42.5388 29.0182 42.7497 28.9765C42.9606 28.9348 43.1504 28.8931 43.3613 28.8722C43.53 28.8306 43.6987 28.8097 43.8674 28.8097C44.0362 28.7889 44.1627 28.768 44.2892 28.7472C44.4158 28.7055 44.5001 28.6638 44.5845 28.6012C44.6478 28.5387 44.6899 28.4345 44.6899 28.2885C44.6899 28.1635 44.6689 28.0592 44.6056 27.9967C44.5423 27.9133 44.479 27.8508 44.3736 27.8091C44.2892 27.7674 44.1838 27.7465 44.0783 27.7257C43.9729 27.7048 43.8674 27.7048 43.762 27.7048C43.4878 27.7048 43.2558 27.7674 43.0871 27.8716C42.9184 27.9758 42.8129 28.1635 42.7918 28.3928H41.8217C41.8428 28.1218 41.9061 27.8925 42.0326 27.7048C42.1591 27.5172 42.3068 27.3713 42.4966 27.2671C42.6864 27.1628 42.8973 27.0794 43.1293 27.0378C43.3613 26.9961 43.5933 26.9752 43.8463 26.9752C44.0572 26.9752 44.2681 26.9961 44.479 27.0378C44.6899 27.0794 44.8798 27.1628 45.0485 27.2462C45.2172 27.3505 45.3437 27.4755 45.4492 27.6423C45.5546 27.8091 45.5968 27.9967 45.5968 28.226V30.4357ZM44.6267 29.2475C44.479 29.3517 44.2892 29.3934 44.0783 29.4143C43.8674 29.4351 43.6354 29.4559 43.4245 29.4976C43.3191 29.5185 43.2136 29.5393 43.1293 29.5602C43.0238 29.581 42.9395 29.6227 42.8762 29.6853C42.7918 29.7478 42.7497 29.8103 42.7075 29.8937C42.6653 29.9771 42.6442 30.0813 42.6442 30.2064C42.6442 30.3107 42.6653 30.394 42.7286 30.4774C42.7918 30.54 42.8762 30.6025 42.9606 30.6442C43.0449 30.6859 43.1504 30.7067 43.2558 30.7276C43.3613 30.7484 43.4667 30.7484 43.5511 30.7484C43.6565 30.7484 43.7831 30.7276 43.9096 30.7067C44.0362 30.6859 44.1627 30.6234 44.2681 30.5608C44.3736 30.4983 44.479 30.4149 44.5423 30.3107C44.6056 30.2064 44.6478 30.0813 44.6478 29.9354V29.2475H44.6267ZM36.0219 27.0794H37.6248L38.4473 30.1647H38.4684L39.2487 27.0794H40.8305V31.4155H39.8603V28.1426L38.9534 31.3947H37.9411L37.0342 28.1426H37.0131V31.3947H36.043V27.0794H36.0219ZM32.9428 31.5198C32.5842 31.5198 32.2679 31.4572 31.9937 31.353C31.7195 31.2487 31.4875 31.082 31.2977 30.8735C31.1079 30.665 30.9603 30.4357 30.8548 30.1439C30.7494 29.8729 30.7072 29.5602 30.7072 29.2266C30.7072 28.8931 30.7494 28.6012 30.8548 28.3094C30.9603 28.0384 31.1079 27.7882 31.2977 27.5798C31.4875 27.3713 31.7195 27.2254 31.9937 27.1003C32.2679 26.9961 32.5842 26.9335 32.9428 26.9335C33.3013 26.9335 33.6176 26.9961 33.8918 27.1003C34.166 27.2045 34.398 27.3713 34.5878 27.5798C34.7776 27.7882 34.9252 28.0175 35.0307 28.3094C35.1361 28.5804 35.1783 28.8931 35.1783 29.2266C35.1783 29.5602 35.1361 29.8729 35.0307 30.1439C34.9252 30.4149 34.7776 30.665 34.5878 30.8735C34.398 31.082 34.166 31.2279 33.8918 31.353C33.6176 31.4781 33.3013 31.5198 32.9428 31.5198ZM32.9428 30.7693C33.1537 30.7693 33.3435 30.7276 33.5122 30.6442C33.6809 30.5608 33.8074 30.4357 33.9129 30.2898C34.0184 30.1439 34.0816 29.9771 34.1449 29.7895C34.1871 29.6019 34.2082 29.4143 34.2082 29.2266C34.2082 29.039 34.1871 28.8514 34.1449 28.6638C34.1027 28.4762 34.0184 28.3094 33.9129 28.1635C33.8074 28.0175 33.6809 27.9133 33.5122 27.8091C33.3435 27.7257 33.1537 27.684 32.9428 27.684C32.7319 27.684 32.542 27.7257 32.3733 27.8091C32.2046 27.8925 32.0781 28.0175 31.9726 28.1635C31.8672 28.3094 31.8039 28.4762 31.7406 28.6638C31.6984 28.8514 31.6773 29.039 31.6773 29.2266C31.6773 29.4143 31.6984 29.6019 31.7406 29.7895C31.7828 29.9771 31.8672 30.1439 31.9726 30.2898C32.0781 30.4357 32.2046 30.5608 32.3733 30.6442C32.542 30.7276 32.7319 30.7693 32.9428 30.7693ZM27.86 31.5198C27.5015 31.5198 27.1852 31.4572 26.911 31.353C26.6368 31.2487 26.4048 31.082 26.215 30.8735C26.0252 30.665 25.8776 30.4357 25.7721 30.1439C25.6667 29.8729 25.6245 29.5602 25.6245 29.2266C25.6245 28.8931 25.6667 28.6012 25.7721 28.3094C25.8776 28.0384 26.0252 27.7882 26.215 27.5798C26.4048 27.3713 26.6368 27.2254 26.911 27.1003C27.1852 26.9961 27.5015 26.9335 27.86 26.9335C28.2186 26.9335 28.5349 26.9961 28.8091 27.1003C29.0833 27.2045 29.3153 27.3713 29.5051 27.5798C29.6949 27.7882 29.8425 28.0175 29.948 28.3094C30.0534 28.5804 30.0956 28.8931 30.0956 29.2266C30.0956 29.5602 30.0534 29.8729 29.948 30.1439C29.8425 30.4149 29.6949 30.665 29.5051 30.8735C29.3153 31.082 29.0833 31.2279 28.8091 31.353C28.5349 31.4781 28.2186 31.5198 27.86 31.5198ZM27.86 30.7693C28.0709 30.7693 28.2608 30.7276 28.4295 30.6442C28.5982 30.5608 28.7247 30.4357 28.8302 30.2898C28.9356 30.1439 28.9989 29.9771 29.0622 29.7895C29.1044 29.6019 29.1254 29.4143 29.1254 29.2266C29.1254 29.039 29.1044 28.8514 29.0622 28.6638C29.02 28.4762 28.9356 28.3094 28.8302 28.1635C28.7247 28.0175 28.5982 27.9133 28.4295 27.8091C28.2608 27.7257 28.0709 27.684 27.86 27.684C27.6491 27.684 27.4593 27.7257 27.2906 27.8091C27.1219 27.8925 26.9953 28.0175 26.8899 28.1635C26.7844 28.3094 26.7212 28.4762 26.6579 28.6638C26.6157 28.8514 26.5946 29.039 26.5946 29.2266C26.5946 29.4143 26.6157 29.6019 26.6579 29.7895C26.7001 29.9771 26.7844 30.1439 26.8899 30.2898C26.9953 30.4357 27.1219 30.5608 27.2906 30.6442C27.4593 30.7276 27.6491 30.7693 27.86 30.7693ZM21.1323 28.2469C21.2167 27.8091 21.4065 27.4755 21.7228 27.2671C22.0392 27.0586 22.461 26.9544 22.9882 26.9544C23.2413 26.9544 23.4733 26.9752 23.7053 27.0378C23.9373 27.1003 24.1271 27.1837 24.2958 27.2879C24.4645 27.3921 24.6122 27.5381 24.6965 27.684C24.802 27.8508 24.8442 28.0175 24.8442 28.226C24.8442 28.4762 24.7809 28.6638 24.6543 28.8306C24.5278 28.9973 24.3591 29.1016 24.1482 29.1641V29.1849C24.3802 29.2266 24.5911 29.3517 24.7598 29.5185C24.9285 29.7061 25.0129 29.9354 25.0129 30.2064C25.0129 30.4566 24.9496 30.665 24.8442 30.8318C24.7387 30.9986 24.5911 31.1445 24.4013 31.2279C24.2114 31.3321 24.0216 31.4155 23.7896 31.4572C23.5577 31.4989 23.3468 31.5198 23.1148 31.5198C22.4821 31.5198 21.9759 31.3947 21.6174 31.1862C21.2377 30.9569 21.0058 30.5817 20.9214 30.0397H21.8915C21.9126 30.1856 21.9548 30.3107 22.0181 30.394C22.0813 30.4983 22.1657 30.5608 22.2501 30.6234C22.3344 30.6859 22.461 30.7276 22.5664 30.7484C22.693 30.7693 22.8195 30.7901 22.946 30.7901C23.2624 30.7901 23.5155 30.7276 23.7053 30.6234C23.8951 30.5191 24.0005 30.3315 24.0005 30.1022C24.0005 29.8937 23.9373 29.7478 23.8107 29.6644C23.6842 29.5602 23.4733 29.5185 23.1991 29.5185H22.4821V28.768H23.1991C23.41 28.768 23.5787 28.7263 23.7053 28.6638C23.8318 28.6012 23.8951 28.4553 23.8951 28.2677C23.8951 28.0592 23.8107 27.9133 23.6209 27.8299C23.4522 27.7465 23.2202 27.7048 22.925 27.7048C22.6297 27.7048 22.4188 27.7465 22.2922 27.8299C22.1446 27.9133 22.0603 28.0384 22.0181 28.2469H21.1323ZM14.1936 27.0794H15.1638V28.7472H16.4714C16.8088 28.7472 17.0619 28.7889 17.2728 28.8722C17.4837 28.9556 17.6313 29.0807 17.7579 29.2058C17.8633 29.3309 17.9477 29.4768 17.9899 29.6436C18.032 29.7895 18.0531 29.9354 18.0531 30.0813C18.0531 30.2064 18.032 30.3523 17.9899 30.5191C17.9477 30.665 17.8633 30.811 17.7579 30.9569C17.6524 31.082 17.4837 31.2071 17.2728 31.2904C17.0619 31.3738 16.8088 31.4155 16.4714 31.4155H14.1936V27.0794ZM15.1638 30.6859H16.4292C16.5979 30.6859 16.7456 30.6442 16.8721 30.54C16.9986 30.4357 17.0619 30.269 17.0619 30.0605C17.0619 29.8312 16.9986 29.6853 16.8721 29.6019C16.7456 29.5185 16.5979 29.4768 16.4292 29.4768H15.1638V30.6859ZM13.5609 27.7882H12.1057V31.4155H11.1356V27.7882H9.61709V27.0794H13.582V27.7882H13.5609ZM6.03177 29.4976C6.03177 29.6644 6.05286 29.8312 6.09504 29.9771C6.13722 30.1439 6.22158 30.269 6.30594 30.394C6.41139 30.5191 6.51684 30.6025 6.66448 30.665C6.81211 30.7276 6.98083 30.7693 7.19173 30.7693C7.48699 30.7693 7.69789 30.7067 7.8877 30.5817C8.05642 30.4566 8.18296 30.2898 8.26732 30.0397H9.19529C9.15311 30.269 9.04766 30.4774 8.92112 30.665C8.79458 30.8527 8.64695 30.9986 8.45714 31.1237C8.28841 31.2487 8.07751 31.353 7.86661 31.4155C7.65571 31.4781 7.42372 31.5198 7.17064 31.5198C6.81211 31.5198 6.51684 31.4572 6.24267 31.353C5.9685 31.2487 5.7576 31.082 5.56779 30.8735C5.37798 30.665 5.25144 30.4357 5.14599 30.1439C5.06163 29.8729 4.99836 29.5602 4.99836 29.2266C4.99836 28.9139 5.04054 28.6221 5.14599 28.3511C5.25144 28.0801 5.39907 27.8299 5.56779 27.6215C5.7576 27.413 5.9685 27.2462 6.24267 27.1211C6.49575 26.9961 6.81211 26.9335 7.12846 26.9335C7.48699 26.9335 7.78225 26.9961 8.05642 27.142C8.3306 27.2879 8.56259 27.4755 8.7524 27.7048C8.94221 27.9342 9.06875 28.2052 9.15311 28.5179C9.23747 28.8306 9.25856 29.1433 9.21638 29.4559H6.03177V29.4976ZM8.3095 28.8514C8.28841 28.7055 8.26732 28.5596 8.20405 28.4136C8.14078 28.2677 8.07751 28.1426 7.97206 28.0592C7.8877 27.955 7.76116 27.8716 7.63462 27.8091C7.50808 27.7465 7.36045 27.7048 7.19173 27.7048C7.02301 27.7048 6.87538 27.7257 6.72775 27.7882C6.58011 27.8508 6.47466 27.9342 6.36921 28.0384C6.26376 28.1426 6.1794 28.2677 6.13722 28.3928C6.07395 28.5387 6.05286 28.6846 6.03177 28.8514H8.3095ZM3.50096 28.5179C3.45878 28.2469 3.35333 28.0384 3.16352 27.9133C2.97371 27.7674 2.7628 27.7048 2.48863 27.7048C2.36209 27.7048 2.23555 27.7257 2.08792 27.7674C1.94029 27.8091 1.81375 27.8925 1.68721 27.9967C1.56067 28.1009 1.47631 28.2677 1.39195 28.4762C1.30759 28.6846 1.26541 28.9556 1.26541 29.2683C1.26541 29.4559 1.2865 29.6227 1.32868 29.8103C1.37086 29.998 1.43413 30.1439 1.53958 30.2898C1.62394 30.4357 1.75048 30.54 1.89811 30.6234C2.04574 30.7067 2.23555 30.7484 2.44645 30.7484C2.74171 30.7484 2.97371 30.665 3.14243 30.4983C3.33224 30.3315 3.43769 30.0813 3.47987 29.7686H4.45001C4.36565 30.3315 4.13366 30.7693 3.79622 31.0611C3.45878 31.353 2.9948 31.5198 2.42536 31.5198C2.06683 31.5198 1.77157 31.4572 1.4974 31.353C1.22323 31.2487 1.01233 31.082 0.822514 30.8944C0.632703 30.6859 0.506163 30.4566 0.400712 30.1856C0.316352 29.9146 0.253081 29.6227 0.253081 29.2892C0.253081 28.9556 0.295262 28.6638 0.379622 28.3719C0.463982 28.0801 0.611613 27.8299 0.780334 27.6215C0.970145 27.413 1.18105 27.2462 1.45522 27.1211C1.72939 26.9961 2.04574 26.9335 2.40427 26.9335C2.65735 26.9335 2.91044 26.9752 3.14243 27.0378C3.37442 27.1003 3.58532 27.2045 3.75404 27.3296C3.94385 27.4547 4.07039 27.6215 4.19693 27.8091C4.30238 27.9967 4.38674 28.2469 4.40783 28.497H3.50096V28.5179ZM88.241 19.9708C87.6927 21.4509 87.1022 22.7434 86.4695 23.8065C85.8368 24.8906 85.0142 25.7661 84.0019 26.4541C82.9896 27.142 81.7453 27.4755 80.269 27.4755C79.0879 27.4755 78.0545 27.1837 77.1265 26.6C76.1986 26.0163 75.7346 25.1616 75.7346 24.0567C75.7346 23.3271 75.9877 22.7225 76.4727 22.2014C76.9578 21.6802 77.5694 21.43 78.3076 21.43C78.9192 21.43 79.3832 21.5551 79.6995 21.8261C80.0159 22.0971 80.2479 22.4307 80.3955 22.8268C80.5431 23.2228 80.6908 23.5981 80.8384 23.9316C80.986 24.2652 81.1758 24.4528 81.4289 24.4528C81.7875 24.4528 82.0616 24.3069 82.2514 24.0359C82.4413 23.7649 82.5467 23.4313 82.5467 23.0561C82.5467 22.5766 82.2303 21.7011 81.6187 20.4711L77.5905 12.0908C77.464 11.8407 77.3164 11.653 77.1476 11.5488C76.9789 11.4446 76.7047 11.2987 76.3673 11.1319C76.0299 10.9651 75.7768 10.8192 75.6291 10.6524C75.4815 10.4856 75.3972 10.2563 75.3972 9.96447C75.3972 9.58924 75.5448 9.25569 75.84 8.96384C76.1353 8.65115 76.768 8.40099 77.7382 8.19252C78.7083 7.98406 80.1424 7.85898 81.9984 7.85898C82.9263 7.85898 83.7699 7.96321 84.5292 8.19252C85.3095 8.42183 85.6891 8.88046 85.6891 9.58924C85.6891 9.75601 85.668 9.90193 85.6048 10.027C85.5626 10.1521 85.4571 10.298 85.3306 10.4856C85.2041 10.6733 85.1197 10.8192 85.0775 10.9026C85.0353 10.986 85.0142 11.111 85.0142 11.2778C85.0142 11.6113 85.1197 12.0283 85.3517 12.5077C85.5626 13.0081 85.8157 13.425 86.1109 13.8002C86.4062 14.1755 86.6171 14.3631 86.7858 14.3631C87.1654 14.3631 87.5029 14.0295 87.7981 13.3625C88.0934 12.6954 88.241 12.1534 88.241 11.6947C88.241 11.4029 88.1988 11.1736 88.1145 10.986C88.0301 10.7983 87.9036 10.6316 87.756 10.4648C87.6083 10.298 87.5029 10.1521 87.4185 10.027C87.3552 9.90193 87.3131 9.73516 87.3131 9.5267C87.3131 8.88046 87.7138 8.42183 88.5363 8.19252C89.3588 7.96321 90.2024 7.83813 91.0671 7.83813C91.8263 7.83813 92.5223 7.94236 93.1761 8.15083C93.8299 8.35929 94.1463 8.73453 94.1463 9.29739C94.1463 9.69347 94.0619 9.96447 93.8932 10.1312C93.7245 10.298 93.4714 10.4648 93.0918 10.6316C92.7121 10.7775 92.3958 10.9443 92.1216 11.1319C91.8474 11.2987 91.6154 11.5697 91.4045 11.924C90.9617 12.612 90.4766 13.7377 89.9072 15.3012L88.241 19.9708ZM154 14.6758V14.6341C154 13.4667 153.768 12.3201 153.325 11.2153C152.861 10.0896 152.207 9.19315 151.343 8.48437C150.478 7.77559 149.445 7.4212 148.242 7.4212C147.546 7.4212 146.935 7.52543 146.365 7.75475C145.796 7.98406 145.269 8.23422 144.763 8.54691C144.256 8.85961 143.982 9.00554 143.877 9.00554C143.666 9.00554 143.56 8.79707 143.56 8.40099C143.56 8.06744 143.518 7.83813 143.413 7.71305C143.307 7.58797 143.096 7.52543 142.759 7.52543C142.19 7.52543 141.451 7.60882 140.545 7.81729C139.659 8.0049 138.752 8.25506 137.866 8.56776C136.959 8.88046 136.221 9.25569 135.631 9.69347C135.04 10.1104 134.745 10.569 134.745 11.0276C134.745 11.5071 134.85 11.8615 135.082 12.0491C135.314 12.2367 135.609 12.3827 135.989 12.4452C136.348 12.5286 136.58 12.612 136.664 12.6745C136.875 12.883 136.98 14.1755 136.98 16.552V18.1571C136.98 20.7213 136.854 22.2848 136.58 22.8476C136.432 23.1395 136.179 23.4105 135.778 23.6189C135.399 23.8482 135.145 23.9942 135.04 24.0984C134.935 24.1818 134.871 24.4111 134.871 24.7863C134.871 25.2658 135.167 25.7453 135.799 26.2039C136.411 26.6625 137.254 27.0169 138.288 27.2879C139.342 27.5589 140.481 27.7048 141.704 27.7048C142.59 27.7048 143.434 27.5798 144.235 27.3296C145.037 27.0795 145.437 26.6 145.437 25.8703C145.437 25.5577 145.374 25.3492 145.248 25.2033C145.121 25.0782 144.91 24.9114 144.594 24.7238C144.277 24.5153 144.045 24.3069 143.898 24.0567C143.75 23.8065 143.666 23.4313 143.666 22.931C143.666 22.3056 143.813 22.0137 144.13 22.0137C144.172 22.0137 144.404 22.0971 144.805 22.2431C145.205 22.389 145.564 22.5141 145.944 22.5975C146.302 22.6808 146.682 22.7434 147.082 22.7434C148.074 22.7434 149.002 22.5141 149.866 22.0554C150.731 21.5968 151.448 20.9923 152.06 20.2001C152.671 19.4288 153.156 18.5532 153.473 17.5943C153.831 16.5937 154 15.6347 154 14.6758ZM0 20.8672V20.9089C0 21.2633 0.105451 21.5551 0.295262 21.8053C0.485073 22.0346 0.906875 22.2431 1.56067 22.389C2.21446 22.5349 3.18461 22.6183 4.4711 22.6183C7.29718 22.6183 8.71022 22.0346 8.71022 20.8463C8.71022 20.492 8.62586 20.2626 8.47823 20.1167C8.3306 19.9708 8.07751 19.8457 7.76116 19.7415C7.44481 19.6372 7.23391 19.5539 7.08628 19.4496C6.95974 19.3662 6.87538 19.1995 6.87538 18.9493C6.87538 18.6158 6.95974 18.178 7.14955 17.6568C7.33936 17.1148 7.52917 16.6145 7.74007 16.1142C7.95097 15.6139 8.22514 15.051 8.52041 14.4256C8.81567 13.8002 8.98439 13.4667 9.00548 13.425C9.15311 13.0289 9.3851 12.5911 9.68036 12.0908C9.97562 11.6113 10.292 11.3612 10.5661 11.3612C10.8403 11.3612 11.0723 11.5071 11.2621 11.7781C11.4519 12.0491 11.6839 12.4244 11.937 12.9038C12.0846 13.1748 12.5275 14.1755 13.2235 15.9266C13.9195 17.6985 14.278 18.6783 14.278 18.8868C14.278 19.1161 14.2147 19.2829 14.0671 19.3662C13.9406 19.4705 13.7086 19.5747 13.4133 19.6789C13.118 19.7832 12.9071 19.9291 12.7595 20.075C12.6119 20.221 12.5275 20.4711 12.5275 20.763C12.5275 21.3258 12.7806 21.7636 13.2868 22.0137C13.7929 22.2848 14.4467 22.4307 15.2903 22.4932C16.1339 22.5558 17.3993 22.5766 19.0866 22.5766C20.0567 22.5766 20.9214 22.5349 21.6806 22.4515C22.4399 22.3681 23.1148 22.1805 23.7053 21.8887C24.2747 21.5968 24.57 21.1382 24.57 20.5545C24.57 20.1793 24.5067 19.9291 24.3591 19.804C24.2114 19.6789 24.0005 19.5747 23.6631 19.4705C23.3257 19.3662 23.0304 19.2412 22.7773 19.0327C22.5242 18.8451 22.2922 18.5115 22.0603 18.0112C21.7017 17.1565 21.0901 15.8015 20.2676 13.9878C19.424 12.1534 18.6437 10.4231 17.8844 8.77622C17.1252 7.12935 16.6612 6.17041 16.5136 5.89941C15.7332 4.54439 14.9529 3.46037 14.1726 2.64736C13.3922 1.8135 12.4432 1.39657 11.3254 1.39657C10.1233 1.39657 9.23747 1.70926 8.68913 2.3555C8.14078 2.9809 7.86661 3.83561 7.86661 4.91962C7.86661 5.6284 7.76116 6.37888 7.57135 7.12935C7.38154 7.87983 7.14955 8.58861 6.89647 9.214C6.64339 9.8394 6.28485 10.6941 5.79978 11.7781L3.98603 15.7598C3.22679 17.4067 2.67844 18.449 2.31991 18.8659C2.10901 19.1369 1.75048 19.3871 1.24432 19.5956C0.738154 19.804 0.400712 19.9708 0.210901 20.0959C0.0843604 20.221 0 20.4711 0 20.8672ZM69.3654 1.75096C68.817 1.87603 68.3952 2.06365 68.0789 2.33466C67.7625 2.58482 67.4673 3.00175 67.172 3.54375C66.8767 4.10661 66.5815 4.64862 66.2862 5.19063C66.1175 5.50332 65.8012 6.19126 65.295 7.27528C64.8099 8.33845 64.4092 9.13061 64.0928 9.65178C63.7765 10.1729 63.4812 10.4231 63.2071 10.4231C62.8274 10.3397 62.4056 9.90194 61.9627 9.15146C61.5199 8.40099 60.9715 7.37951 60.381 6.08703C59.7694 4.79454 59.3687 3.98153 59.1789 3.66883C58.8414 3.06429 58.6094 2.6682 58.504 2.52228C58.3985 2.37635 58.2509 2.20958 58.0189 2.06365C57.7869 1.91773 57.4284 1.79265 56.9644 1.73011C56.5004 1.64672 55.8466 1.60503 55.0241 1.60503C53.6532 1.60503 52.4722 1.75096 51.5231 2.06365C50.5741 2.37635 50.089 2.91836 50.089 3.66883C50.089 4.00238 50.1945 4.27338 50.4054 4.461C50.6163 4.64862 50.9115 4.85708 51.3122 5.0864C51.713 5.31571 51.945 5.50333 52.0082 5.6701C52.3035 6.29549 52.4511 7.40036 52.4511 8.98469C52.4511 10.9026 52.4089 12.5494 52.3246 13.9462C52.2402 15.3429 52.1137 16.8021 51.966 18.3656C51.9028 18.9076 51.7973 19.2829 51.6286 19.4913C51.4599 19.6998 51.2068 19.8666 50.8904 19.9708C50.5741 20.075 50.3632 20.2001 50.2156 20.3252C50.0679 20.4503 50.0047 20.6796 50.0047 21.034C50.0047 22.0971 51.2068 22.6391 53.6111 22.6391C56.395 22.6391 57.7869 22.0763 57.7869 20.9089C57.7869 20.5128 57.576 20.2001 57.1542 19.9916C56.7535 19.7832 56.4371 19.5747 56.2473 19.3454C56.0575 19.1161 55.9521 18.5532 55.9521 17.6777C55.9521 17.5943 55.9521 17.3233 55.931 16.823C55.9099 16.3435 55.9099 15.9474 55.9099 15.6139C55.9099 13.8002 56.1419 12.883 56.5637 12.883C56.7957 12.883 56.9644 12.9872 57.112 13.2374C57.2597 13.4667 57.4073 13.7585 57.576 14.1338L59.2421 17.9278C59.8116 19.1995 60.2334 20.1167 60.5075 20.6379C60.7817 21.1799 60.9926 21.4926 61.1402 21.6177C61.2879 21.7427 61.4355 21.8053 61.6253 21.847C61.8995 21.847 62.1947 21.5968 62.49 21.1173C62.7853 20.617 63.1227 19.9083 63.5023 18.9702C63.882 18.0321 64.1139 17.4692 64.1983 17.3233C64.4936 16.6562 64.7677 16.0308 65.0419 15.4263C65.295 14.8217 65.5902 14.3214 65.8644 13.9045C66.1386 13.4875 66.4339 13.2791 66.708 13.2791C67.0876 13.2791 67.2775 13.9878 67.2775 15.4263C67.2775 16.0517 67.2353 16.7187 67.172 17.4484C67.1087 18.1571 67.0666 18.6158 67.0244 18.7825C66.9822 18.9702 66.8978 19.1369 66.7924 19.262C66.6869 19.3871 66.4971 19.5539 66.244 19.7623C65.991 19.9708 65.8222 20.1584 65.6957 20.3252C65.5902 20.492 65.527 20.6796 65.527 20.9089C65.527 21.6385 66.0121 22.0971 66.9822 22.3264C67.9523 22.5349 69.1756 22.66 70.6308 22.66C72.0649 22.66 73.2881 22.5349 74.3005 22.3056C75.3128 22.0763 75.819 21.576 75.819 20.7838C75.819 20.5128 75.7557 20.2835 75.6291 20.1584C75.5026 20.0333 75.2917 19.8457 74.9964 19.6372C74.7012 19.4288 74.4692 19.1786 74.3005 18.9285C74.1317 18.6575 74.0474 18.3031 74.0263 17.8236C73.8365 13.4667 73.731 11.3612 73.731 11.4863C73.731 10.7358 73.7732 9.71432 73.8787 8.42183C73.963 7.10851 74.0685 6.29549 74.1528 5.9411C74.2372 5.6701 74.4481 5.3574 74.8277 5.00301C75.2073 4.64862 75.4393 4.39846 75.5448 4.25254C75.6502 4.10661 75.7135 3.8773 75.7135 3.54375C75.7135 2.27212 74.3426 1.62588 71.6009 1.62588C70.6519 1.56334 69.9137 1.62588 69.3654 1.75096ZM143.813 18.449C143.581 18.2405 143.476 17.907 143.476 17.4484C143.476 15.6764 143.518 14.4048 143.603 13.6126C143.687 12.8204 143.835 12.3201 144.003 12.07C144.193 11.8407 144.467 11.7156 144.847 11.7156C145.395 11.7156 145.817 11.9032 146.133 12.2993C146.45 12.6745 146.661 13.154 146.766 13.7168C146.872 14.2797 146.935 14.8426 146.935 15.4054C146.935 17.636 146.26 18.7408 144.931 18.7408C144.425 18.7617 144.045 18.6575 143.813 18.449ZM126.393 7.7339C125.824 7.96321 125.296 8.21337 124.79 8.52607C124.284 8.83876 123.989 8.98469 123.904 8.98469C123.694 8.98469 123.588 8.77623 123.588 8.38014C123.588 8.0466 123.546 7.81729 123.44 7.69221C123.335 7.56713 123.124 7.50459 122.787 7.50459C122.217 7.50459 121.479 7.58797 120.593 7.79644C119.686 7.98406 118.801 8.23422 117.915 8.54691C117.008 8.85961 116.27 9.23485 115.679 9.67262C115.089 10.0896 114.793 10.5482 114.793 11.0068C114.793 11.4863 114.899 11.8407 115.131 12.0283C115.363 12.2159 115.658 12.3618 116.038 12.4244C116.417 12.5077 116.649 12.5911 116.713 12.6537C116.924 12.8621 117.029 14.1546 117.029 16.5311V18.1363C117.029 20.7004 116.902 22.2639 116.628 22.8268C116.481 23.1186 116.228 23.3896 115.848 23.5981C115.447 23.8274 115.215 23.9733 115.11 24.0776C115.004 24.1609 114.962 24.3902 114.962 24.7655C114.962 25.245 115.257 25.7244 115.869 26.183C116.481 26.6417 117.324 26.9961 118.358 27.2671C119.412 27.5381 120.551 27.684 121.774 27.684C122.66 27.684 123.504 27.5589 124.305 27.3088C125.085 27.0586 125.486 26.5791 125.486 25.8495C125.486 25.5368 125.423 25.3283 125.296 25.1824C125.17 25.0573 124.959 24.8906 124.643 24.7029C124.326 24.4945 124.094 24.286 123.947 24.0359C123.799 23.7857 123.715 23.4105 123.715 22.9101C123.715 22.2848 123.862 21.9929 124.179 21.9929C124.242 21.9929 124.453 22.0763 124.853 22.2222C125.254 22.3681 125.634 22.4932 125.992 22.5766C126.351 22.66 126.73 22.7225 127.131 22.7225C128.122 22.7225 129.05 22.4932 129.915 22.0346C130.759 21.576 131.497 20.9714 132.108 20.1793C132.72 19.4079 133.205 18.5324 133.521 17.5734C133.859 16.6145 134.028 15.6347 134.028 14.6549C134.028 13.4875 133.796 12.341 133.353 11.2361C132.889 10.1104 132.235 9.214 131.37 8.50522C130.506 7.79644 129.472 7.44205 128.291 7.44205C127.553 7.40036 126.941 7.50459 126.393 7.7339ZM123.82 18.449C123.588 18.2405 123.483 17.907 123.483 17.4484C123.483 15.6764 123.525 14.4048 123.609 13.6126C123.694 12.8204 123.82 12.3201 124.01 12.07C124.2 11.8407 124.474 11.7156 124.853 11.7156C125.402 11.7156 125.824 11.9032 126.14 12.2993C126.456 12.6745 126.667 13.154 126.773 13.7168C126.878 14.2797 126.941 14.8426 126.941 15.4054C126.941 17.636 126.267 18.7408 124.938 18.7408C124.432 18.7617 124.052 18.6575 123.82 18.449ZM106.379 7.7339C105.83 7.96321 105.282 8.21337 104.797 8.52607C104.291 8.83876 103.995 8.98469 103.911 8.98469C103.7 8.98469 103.595 8.77623 103.595 8.38014C103.595 8.0466 103.552 7.81729 103.447 7.69221C103.342 7.56713 103.131 7.50459 102.793 7.50459C102.224 7.50459 101.486 7.58797 100.6 7.79644C99.693 7.98406 98.8072 8.23422 97.9214 8.54691C97.0145 8.85961 96.2764 9.23485 95.6858 9.67262C95.0953 10.0896 94.779 10.5482 94.779 11.0068C94.779 11.4863 94.8844 11.8407 95.1164 12.0283C95.3484 12.2159 95.6437 12.3618 96.0233 12.4244C96.4029 12.5077 96.6138 12.5911 96.6982 12.6537C96.9091 12.8621 97.0145 14.1546 97.0145 16.5311V18.1363C97.0145 20.7004 96.888 22.2639 96.6138 22.8268C96.4873 23.1186 96.2131 23.3896 95.8335 23.5981C95.4538 23.8274 95.2008 23.9733 95.0953 24.0776C94.9899 24.1609 94.9266 24.3902 94.9266 24.7655C94.9266 25.245 95.2219 25.7244 95.8546 26.183C96.4662 26.6417 97.3098 26.9961 98.3432 27.2671C99.3977 27.5381 100.537 27.684 101.76 27.684C102.646 27.684 103.489 27.5589 104.291 27.3088C105.071 27.0586 105.493 26.5791 105.493 25.8495C105.493 25.5368 105.429 25.3283 105.303 25.1824C105.176 25.0573 104.965 24.8906 104.649 24.7029C104.333 24.4945 104.101 24.286 103.953 24.0359C103.784 23.7857 103.721 23.4105 103.721 22.9101C103.721 22.2848 103.869 21.9929 104.185 21.9929C104.227 21.9929 104.459 22.0763 104.86 22.2222C105.24 22.3681 105.64 22.4932 105.999 22.5766C106.357 22.66 106.737 22.7225 107.138 22.7225C108.129 22.7225 109.057 22.4932 109.922 22.0346C110.786 21.576 111.503 20.9714 112.115 20.1793C112.727 19.4079 113.191 18.5324 113.528 17.5734C113.866 16.6145 114.013 15.6347 114.013 14.6549C114.013 13.4875 113.781 12.341 113.338 11.2361C112.874 10.1104 112.22 9.214 111.356 8.50522C110.491 7.79644 109.458 7.44205 108.277 7.44205C107.56 7.40036 106.927 7.50459 106.379 7.7339ZM103.827 18.449C103.595 18.2405 103.489 17.907 103.489 17.4484C103.489 15.6764 103.531 14.4048 103.616 13.6126C103.7 12.8204 103.827 12.3201 104.016 12.07C104.206 11.8407 104.48 11.7156 104.86 11.7156C105.408 11.7156 105.83 11.9032 106.147 12.2993C106.463 12.6745 106.674 13.154 106.779 13.7168C106.885 14.2797 106.948 14.8426 106.948 15.4054C106.948 17.636 106.273 18.7408 104.944 18.7408C104.417 18.7617 104.038 18.6575 103.827 18.449ZM29.1887 8.42183C27.9444 9.08892 26.9532 10.0062 26.2361 11.1944C25.4979 12.3827 25.1394 13.696 25.1394 15.1553C25.1394 16.4477 25.4347 17.6777 26.0463 18.8242C26.6579 19.9916 27.5437 20.9089 28.7247 21.6177C29.9058 22.3264 31.3188 22.6808 32.9428 22.6808C33.8285 22.6808 34.7987 22.5141 35.8532 22.1597C36.8866 21.8261 37.7724 21.3467 38.4895 20.763C39.2065 20.1584 39.5651 19.5122 39.5651 18.8242C39.5651 18.5115 39.4385 18.1988 39.2276 17.8653C38.9956 17.5318 38.7425 17.365 38.4684 17.365C38.3207 17.365 38.0466 17.4901 37.6037 17.7611C37.1608 18.0321 36.7179 18.2405 36.275 18.4073C35.8321 18.5741 35.2838 18.6783 34.6721 18.6783C34.2293 18.6783 33.7442 18.5532 33.238 18.3031C32.7319 18.0529 32.3101 17.7194 31.9726 17.3024C31.6352 16.8855 31.4664 16.4477 31.4664 15.9891C31.4664 15.8015 31.5297 15.6973 31.6352 15.6556C31.7617 15.6139 31.9515 15.593 32.2468 15.593H38.4684C39.0167 15.593 39.4596 15.4471 39.776 15.1553C40.0923 14.8634 40.2399 14.2797 40.2399 13.4041C40.2399 12.8204 40.0923 12.1742 39.797 11.4863C39.5018 10.7983 39.08 10.1312 38.5105 9.5267C37.9411 8.9013 37.224 8.40099 36.3172 8.0049C35.4314 7.60882 34.398 7.40036 33.238 7.40036C31.7617 7.40036 30.433 7.7339 29.1887 8.42183ZM31.2766 11.9866C31.2766 11.5071 31.4454 11.0693 31.8039 10.6733C32.1413 10.2772 32.5631 10.0687 33.006 10.0687C33.5333 10.0687 33.9551 10.2355 34.2503 10.5899C34.5456 10.9443 34.6932 11.382 34.6932 11.924C34.6932 12.2784 34.6089 12.5077 34.4191 12.6328C34.2293 12.7371 33.9551 12.7996 33.6176 12.7996H33.006C32.9217 12.7996 32.8162 12.7996 32.6475 12.8204C32.4788 12.8204 32.3733 12.8204 32.289 12.8204C31.6141 12.8204 31.2766 12.5494 31.2766 11.9866Z" fill="#009540"/>
</g>
<defs>
<clipPath id="clip0_219_327">
<rect width="154" height="33" fill="white"/>
</clipPath>
</defs>
</svg>
