<svg width="92" height="92" viewBox="0 0 92 92" fill="none" xmlns="http://www.w3.org/2000/svg">
<g clip-path="url(#clip0_166_41)">
<path d="M41.0481 44.2529C29.9786 44.7349 25.0455 47.6264 23.4813 48.7108C23.2406 48.9517 23 49.3132 23 49.6746C23.2406 57.265 29.2567 62.8071 37.9198 65.2168C39.8449 62.8071 41.1684 60.1565 41.8904 57.1445C42.9733 52.9276 42.492 46.6626 41.0481 44.2529ZM32.1444 53.8915C30.8209 53.8915 29.738 52.8071 29.738 51.4818C29.738 50.1565 30.8209 49.0722 32.1444 49.0722C33.4679 49.0722 34.5508 50.1565 34.5508 51.4818C34.5508 52.8071 33.4679 53.8915 32.1444 53.8915Z" fill="#1F3773"/>
<path d="M67.7594 47.747C66.7969 42.2048 63.1872 38.5904 52.238 35.9398C46.583 34.6145 43.214 28.1085 42.2514 21.9639C42.1311 20.8795 40.6872 20.5181 40.0856 21.3615C39.0027 22.8073 38.6418 24.8555 38.8824 28.2289C39.1231 32.9277 37.4386 34.3735 33.2273 34.9759C32.2648 35.0964 31.7835 36.4217 32.6257 37.0241C35.6338 39.7952 39.9653 41 44.6578 41.1205H45.6204C45.9814 41.1205 46.3423 41.1205 46.7033 41.1205H53.0803C53.9225 41.1205 54.5241 41.8434 54.5241 42.5663C54.5241 43.4097 53.8022 44.0121 53.0803 44.0121H44.4172C45.861 48.4699 46.1017 53.0482 44.8985 57.6265C44.1765 60.5181 42.9733 63.1687 41.2888 65.5783C41.8904 65.5783 42.4921 65.6988 43.0937 65.6988H48.2675C48.5081 66.5422 48.8691 67.5061 49.7113 68.3494C51.8771 70.7591 54.8851 70.7591 55.8477 70.6386C56.0883 70.6386 56.2086 70.5181 56.3289 70.2771C56.5696 69.5542 57.1712 67.3856 55.607 64.9759C63.5482 63.4097 69.3236 56.7832 67.7594 47.747Z" fill="#1F3773"/>
</g>
<circle opacity="0.2" cx="46" cy="46" r="45.5" stroke="#1F3773"/>
<defs>
<clipPath id="clip0_166_41">
<rect width="45" height="50" fill="white" transform="translate(23 21)"/>
</clipPath>
</defs>
</svg>
