<svg width="92" height="92" viewBox="0 0 92 92" fill="none" xmlns="http://www.w3.org/2000/svg">
<circle opacity="0.2" cx="46" cy="46" r="45.5" stroke="#1F3773"/>
<g clip-path="url(#clip0_214_67)">
<path fill-rule="evenodd" clip-rule="evenodd" d="M39.2802 25.8657C39.2802 26.0212 38.9612 26.0212 38.9612 26.0212H37.6853C37.0474 26.0212 36.0905 25.8657 35.4526 26.954C34.9741 27.7314 34.9741 28.6643 35.6121 29.2862L35.931 29.5971C36.25 29.7526 36.569 29.9081 36.8879 30.0636C37.3664 30.0636 37.2069 30.0636 37.2069 31.6183C37.2069 32.3957 37.3664 34.7279 37.2069 35.3498C37.2069 35.5053 37.2069 35.5053 37.0474 35.6607L36.8879 35.8162C36.7284 36.4381 36.25 37.06 35.931 37.6819C35.7716 38.1484 34.0172 40.4805 33.5388 41.1024L29.7112 46.2332L28.7543 47.7879C28.2759 48.5653 27.9569 49.4982 27.6379 50.4311C27.319 51.3639 27.1595 52.2968 27 53.5406V54.318C27 56.1837 27.1595 57.4275 27.7974 59.2932L27.9569 59.7597C28.1164 60.2261 28.2759 60.6925 28.4353 61.159L28.7543 61.7809C28.9138 62.0918 29.0733 62.5583 29.3922 63.0247L29.5517 63.3356C29.7112 63.4911 29.7112 63.6466 29.8707 63.9576C30.0302 64.113 30.1897 64.2685 30.3491 64.5795L31.306 65.8233C31.306 65.8233 31.306 65.8233 31.4655 65.9788C31.4655 65.9788 31.4655 66.1342 31.625 66.1342C31.7845 66.2897 31.7845 66.2897 31.7845 66.2897L33.2198 67.5335C33.5388 67.8445 34.0172 68.1554 34.6552 68.1554H52.3578C53.3147 68.1554 54.1121 67.2226 54.75 66.6007C54.9095 66.4452 54.9095 66.4452 54.9095 66.4452L55.069 66.2897C55.2285 66.1342 55.5474 65.8233 55.7069 65.5123L55.8664 65.2014L56.0259 65.0459L56.8233 63.8021C57.1422 63.3357 57.4612 63.0247 57.6207 62.5583C57.9397 61.9364 58.2586 61.3144 58.5776 60.5371C58.7371 60.2261 58.7371 60.0706 58.8966 59.7597C59.2155 58.8268 59.5345 57.7385 59.694 56.6501C59.8535 55.5618 59.8535 55.0954 59.8535 54.1625C59.8535 53.5406 59.694 52.2968 59.5345 51.6749C59.5345 51.5194 59.5345 51.2084 59.375 50.8975C59.056 50.1201 58.8966 49.6537 58.5776 48.8763L57.9397 47.6325C58.4181 47.477 59.056 47.3215 59.5345 47.0106C60.3319 46.6996 60.8103 46.2332 61.4483 45.7667L62.2457 44.8339C62.2457 44.8339 62.2457 44.8339 62.4052 44.6784C63.681 43.2791 64.1595 40.7915 63.8405 39.0812C63.681 37.8374 63.0431 36.1272 62.2457 35.1943C62.2457 35.1943 62.2457 35.1943 62.0862 35.0388L60.6509 33.6395C59.056 32.5512 57.3017 31.9293 55.3879 31.9293C54.431 31.9293 52.6767 32.3957 51.8793 32.8622L50.9224 33.4841C50.6034 33.795 49.6466 34.7279 49.4871 34.7279V33.1731V33.0176V29.9081C49.806 29.9081 50.125 29.7526 50.444 29.5971C51.7198 28.9752 52.0388 27.265 50.9224 26.3321C50.125 25.7102 49.1681 25.8657 48.3707 25.8657H47.4138C47.4138 25.8657 47.2543 24 47.4138 23.8445L39.2802 24V25.8657ZM35.2931 50.742C35.2931 49.8091 35.7716 49.9646 32.4224 49.9646C32.4224 49.8091 32.5819 49.6537 32.5819 49.4982V49.3427C33.3793 47.7879 34.4957 46.3887 35.4526 44.9894L37.2069 42.8127L38.3233 41.4134C38.4828 41.2579 38.4828 41.1024 38.6422 40.947L39.5991 39.5477C40.2371 38.6148 40.7155 37.5265 41.0345 36.4381C41.194 36.2826 41.3534 35.6607 41.3534 35.1943C41.3534 34.8834 41.3534 34.5724 41.3534 34.4169C41.3534 34.2614 41.3534 34.106 41.5129 34.106H45.5C45.5 35.3498 45.6595 36.2826 45.9784 37.371L46.1379 37.8374C46.6164 39.0812 47.4138 40.1696 48.2112 41.1024L48.6897 41.8798C49.1681 42.5017 49.6466 43.1236 50.125 43.7455L51.8793 46.0777L53.3147 48.0989C53.7931 48.7208 54.1121 49.3427 54.431 49.9646H39.2802V61.9364C39.1207 61.9364 38.8017 61.6254 38.8017 61.6254C38.6422 61.4699 38.4828 61.3144 38.3233 61.159L37.3664 59.9152C37.0474 59.4487 36.8879 58.8268 36.569 58.3604L36.4095 57.7385C36.0905 56.9611 35.7716 55.8728 35.6121 54.9399L35.4526 54.007V53.8516C35.4526 53.6961 35.4526 53.5406 35.4526 53.3851C35.4526 52.9187 35.2931 52.4523 35.2931 51.9858V51.2084C35.2931 51.2084 35.2931 50.8975 35.2931 50.742ZM55.5474 44.0565L55.3879 43.901L53.1552 41.1024C52.9957 40.947 52.8362 40.7915 52.6767 40.4805L51.8793 39.3922C51.7198 39.2367 51.7198 39.2367 51.7198 39.0812C51.7198 38.9258 52.0388 38.1484 52.1983 38.1484C52.5172 37.6819 52.9957 37.06 53.4741 36.9046L54.431 36.4381C55.3879 36.1272 56.8233 36.2826 57.6207 36.7491C57.9397 36.9046 57.9397 36.9046 58.2586 37.06C58.7371 37.371 58.8966 37.5265 59.2155 37.9929L59.5345 38.4593C60.0129 39.2367 60.0129 40.4805 59.8535 41.2579C59.8535 41.4134 59.694 41.5689 59.694 41.5689L59.2155 42.5017L58.4181 43.2791C57.9397 43.5901 57.4612 43.901 56.9828 43.901L56.0259 44.0565H55.5474Z" fill="#1F3773"/>
</g>
<defs>
<clipPath id="clip0_214_67">
<rect width="37" height="44" fill="white" transform="translate(27 24)"/>
</clipPath>
</defs>
</svg>
