<?xml version="1.0" encoding="utf-8"?>

<svg viewBox="0 0 163 50" xmlns="http://www.w3.org/2000/svg" xmlns:xlink="http://www.w3.org/1999/xlink"><style>:root>svg{display:none}:root>svg:target{display:block}</style>

<svg id="balance" viewBox="0 0 45 46" fill="none" xmlns="http://www.w3.org/2000/svg">
<path d="M41.2024 13.1888C46.6151 23.5046 42.7393 36.3149 32.5821 41.7761C22.3581 47.2374 9.66164 43.3269 4.24893 33.0786C-1.16378 22.7629 2.71199 9.95255 12.8692 4.49129C23.0264 -1.03738 35.7228 2.87315 41.2024 13.1888Z" fill="currentColor"/>
<path d="M33.1165 42.7876C22.3579 48.586 8.92635 44.4732 3.17953 33.5507C-2.5673 22.6956 1.50893 9.14358 12.3344 3.34522C23.0929 -2.45315 36.5245 1.65964 42.2713 12.5821C48.0181 23.5047 43.8751 36.9892 33.1165 42.7876ZM13.4035 5.50275C3.78093 10.6943 0.172463 22.763 5.25105 32.4045C10.3965 42.1134 22.3579 45.7542 31.9137 40.6301C41.5363 35.4385 45.1447 23.3698 40.0661 13.7283C34.9875 4.01944 23.0261 0.378607 13.4035 5.50275Z" fill="currentColor" opacity="0.5"/>
<path d="M13.5373 26.741C11.8667 26.6736 10.1961 25.0554 10.7975 22.8979C11.5994 23.1676 12.3344 23.5721 12.869 24.2464C13.4036 24.988 13.5373 25.7971 13.5373 26.741ZM10.7975 19.2571C12.6017 19.7964 13.8046 21.482 13.5373 23.1002C12.5349 22.9653 11.733 22.5608 11.1984 21.7517C10.6639 21.0101 10.4634 19.7964 10.7975 19.2571ZM14.4728 25.7971C14.1387 24.2464 15.4752 22.3585 17.2126 21.954C17.413 22.8979 17.2794 23.7744 16.7448 24.516C16.1434 25.3251 15.4083 25.6622 14.4728 25.7971ZM14.4728 18.5154C14.3392 16.4927 15.3415 15.3465 17.2126 14.6723C17.413 15.4814 17.3462 16.2905 16.8784 17.0321C16.3439 17.9086 15.4752 18.3806 14.4728 18.5154ZM12.869 11.5709C14.3391 12.9193 14.8069 14.4026 13.8714 16.1556C12.3344 15.414 11.5326 13.2564 12.869 11.5709ZM14.4728 22.1562C14.3392 20.201 15.3415 18.9199 17.2126 18.3131C17.7472 20.1336 16.3439 22.0214 14.4728 22.1562ZM13.5373 19.4593C11.733 19.3919 10.1961 17.6389 10.7975 15.6162C11.5994 15.8859 12.3344 16.2905 12.869 16.9647C13.4036 17.6389 13.5373 18.5154 13.5373 19.4593ZM25.766 8.19971C26.8352 8.33455 27.8375 8.60425 28.5726 9.41332C29.174 10.0875 29.3745 10.8292 29.3076 11.7057C28.9735 11.7057 28.7062 11.7731 28.3721 11.7057C27.3697 11.5708 26.7015 10.9641 26.2337 10.155C25.9664 9.61559 25.766 9.00878 25.6992 8.33455C25.766 8.33455 25.766 8.33455 25.766 8.19971C25.766 8.26713 25.766 8.26713 25.766 8.19971ZM34.1189 22.0214C34.2526 22.4934 34.3194 22.8979 34.453 23.3699C26.8352 25.5274 19.2173 27.7523 11.5326 29.9099C11.3989 29.4379 11.3321 29.0334 11.1984 28.5614C18.8163 26.3365 26.4342 24.1789 34.1189 22.0214ZM29.2408 20.8752C28.9067 21.2797 28.5726 21.5494 28.1048 21.6169C27.3697 21.7517 26.7015 21.5494 26.1669 21.0101C25.5655 20.3358 25.0977 19.5268 24.6968 18.7177C24.2959 18.0435 24.0286 17.3692 23.8281 16.6276C23.494 15.2117 23.8949 13.9981 25.0309 13.0542C26.2337 12.1102 27.9043 12.1777 29.0403 13.1216C29.1072 13.189 29.174 13.189 29.2408 13.2564L29.3076 13.189C31.1119 11.5709 33.7848 12.3125 34.5199 14.6049C34.7872 15.4814 34.7203 16.3579 34.453 17.167C34.1189 18.2457 33.5175 19.1896 32.9161 20.1336C32.7824 20.4032 32.582 20.6055 32.4483 20.8078C31.6465 21.8865 30.1763 22.0214 29.2408 20.8752C29.3076 20.9426 29.3076 20.8752 29.2408 20.8752ZM16.5443 37.9332C17.0121 37.0567 17.4799 36.2476 18.0144 35.3711C19.2841 33.1462 20.5537 30.9212 21.8234 28.6963C22.1575 28.1569 22.4248 27.6175 22.7589 27.1455C22.7589 27.0781 22.8257 27.0107 22.8926 26.9433C22.9594 27.0781 23.0262 27.213 23.093 27.2804C24.6968 30.1121 26.3674 32.9439 27.9712 35.7757C28.3721 36.4499 28.773 37.1915 29.174 37.8658H16.5443V37.9332ZM19.0168 36.4499H26.5679C25.2982 34.2249 24.0286 32.0674 22.7589 29.8425C21.5561 32.0674 20.2864 34.2924 19.0168 36.4499Z" fill="#1F3773"/>
</svg>

<svg id="berries" viewBox="0 0 46 45" fill="none" xmlns="http://www.w3.org/2000/svg">
<path d="M44.5737 24.1735C43.6186 35.8487 33.3178 44.605 21.5163 43.6547C9.71471 42.7044 0.982909 32.3868 1.93795 20.7117C2.89299 9.03656 13.1938 0.280205 24.9953 1.23051C36.7287 2.18081 45.5287 12.4305 44.5737 24.1735Z" fill="currentColor"/>
<path d="M44.5737 24.1735C43.6186 35.8487 33.3178 44.605 21.5163 43.6547C9.71471 42.7044 0.982909 32.3868 1.93795 20.7117C2.89299 9.03656 13.1938 0.280205 24.9953 1.23051C36.7287 2.18081 45.5287 12.4305 44.5737 24.1735Z" stroke="currentColor" stroke-width="0.567" stroke-miterlimit="22.926"/>
<path d="M21.3797 44.8767C8.96422 43.8585 -0.313307 32.9979 0.70995 20.644C1.73321 8.29008 12.6479 -0.941426 25.0635 0.0767546C37.479 1.09494 46.7565 11.9555 45.7333 24.3095C44.7782 36.5955 33.7953 45.8949 21.3797 44.8767ZM24.8588 2.45251C13.8076 1.57009 4.05259 9.78341 3.16577 20.7798C2.27895 31.7761 10.5332 41.4828 21.5844 42.3652C32.6356 43.2476 42.3906 35.0343 43.2774 24.0379C44.2325 13.0416 35.9782 3.33493 24.8588 2.45251Z" fill="currentColor" opacity="0.5"/>
<path d="M25.4046 27.1603C25.1317 26.8887 24.7906 26.753 24.3813 26.753C23.5627 26.753 22.9488 27.4318 22.9488 28.1784C22.9488 28.5857 23.0852 28.9251 23.3581 29.1966C23.6309 29.4681 23.972 29.6039 24.3813 29.6039C25.1999 29.6039 25.8139 28.9251 25.8139 28.1784C25.8139 27.7712 25.6775 27.4318 25.4046 27.1603ZM39.4573 23.4948C39.1162 25.7348 35.9783 26.4815 34.6139 26.753C33.4542 26.9566 32.3627 27.0245 31.5441 26.9566C31.4077 25.9384 30.9984 24.9203 30.5209 24.1057C32.3627 23.1554 34.5457 23.8342 36.0465 24.2415C36.2511 24.3094 36.3876 24.3094 36.524 24.3772H36.5922C36.7286 24.3772 36.8651 24.3094 36.9333 24.1057C37.0015 23.9021 36.8651 23.7663 36.7286 23.6984C36.5922 23.6306 36.3875 23.6306 36.2511 23.5627C34.7503 23.0875 32.2263 22.4087 30.1116 23.4948C30.1116 23.4948 30.1116 23.4948 30.1116 23.4269C29.7023 22.8839 29.2248 22.4087 28.7472 21.9336C29.8387 20.6439 31.5441 20.3045 33.2496 20.4403C33.5224 20.4403 33.8635 20.5081 34.1364 20.576C34.955 20.7118 35.7054 20.9154 36.3876 21.2548C38.3659 22.0015 39.4573 23.0875 39.4573 23.4948ZM33.7953 19.8294C32.1581 19.6257 30.5891 19.7615 29.2248 20.6439C31.5441 17.5215 33.7271 13.9918 34.341 12.7021C34.4093 12.5663 34.341 12.2948 34.2046 12.2269C34.0682 12.1591 33.7953 12.2269 33.7271 12.3627C33.0449 13.7203 30.7255 17.3857 28.4061 20.5081C28.5426 19.2863 28.4744 17.9966 28.0651 16.7748C28.0651 15.553 29.3612 13.7882 31.2713 12.2948C33.0449 10.9372 34.8868 10.1227 35.91 10.3942C36.1147 10.4621 36.2511 10.7336 36.3193 11.0051C36.9333 13.2451 34.4093 18.8791 33.7953 19.8294ZM30.9302 27.5675C30.9302 27.3639 30.862 27.0924 30.862 26.8887C30.7255 26.0742 30.3845 25.2597 29.9752 24.513C29.8387 24.3094 29.7023 24.1057 29.5658 23.9021C28.6108 22.5445 27.1782 21.5263 25.541 21.1191C25.3364 21.0512 25.0635 20.9833 24.8589 20.9833C24.4496 20.9154 24.0403 20.8475 23.5627 20.8475C21.5844 20.8475 19.7426 21.5942 18.3782 23.0197C17.0139 24.3772 16.2635 26.2778 16.2635 28.1784C16.2635 30.1469 17.0139 31.9796 18.4465 33.3372C19.8108 34.6948 21.6526 35.4415 23.6309 35.4415C25.6092 35.4415 27.4511 34.6948 28.8155 33.2693C30.1798 31.9118 30.9302 30.0112 30.9302 28.1106C30.9984 27.9748 30.9984 27.7712 30.9302 27.5675ZM26.8372 30.7578C26.7007 30.8936 26.4279 31.0293 26.155 31.0293C25.6775 31.0293 25.1317 30.7578 24.3813 30.1469C23.2899 30.9615 22.3348 31.233 21.8573 30.7578C21.5162 30.4184 21.448 29.536 22.4713 28.2463C21.448 27.1603 21.3798 26.2778 21.7891 25.8027C22.1984 25.3954 23.2216 25.3954 24.3813 26.4815C25.541 25.3954 26.3596 25.3954 26.7689 25.7348C27.1782 26.1421 27.1782 27.0924 26.3596 28.1784C27.2465 29.2645 27.2465 30.2827 26.8372 30.7578ZM27.724 17.7251C27.6558 17.4536 27.5875 17.1142 27.4511 16.8427C27.3829 16.5712 27.2465 16.2997 27.11 16.096C26.2232 14.1954 24.7224 12.9057 22.8124 12.3627C20.9705 11.8875 18.924 12.1591 17.355 13.2451C15.9224 14.2633 14.7627 16.7069 14.6945 19.0148C14.6945 20.4403 15.0356 22.4087 16.8092 23.9021C17.1503 23.4269 17.4914 22.9518 17.9007 22.5445C19.4015 21.0512 21.448 20.1687 23.5627 20.1687C24.1085 20.1687 24.6542 20.2366 25.2 20.3724C25.4046 20.4403 25.6775 20.5081 25.8821 20.576C26.4961 20.7797 27.0418 20.9833 27.5876 21.3227C27.9286 20.1687 27.9968 18.8791 27.724 17.7251ZM21.7209 14.0597C20.8341 14.1954 19.9472 14.5348 19.1968 15.0778C18.31 15.6888 17.5596 16.8427 17.0821 18.2003C17.0139 18.336 16.8775 18.4039 16.741 18.4039C16.6728 18.4039 16.6728 18.4039 16.6046 18.4039C16.3999 18.336 16.3317 18.1324 16.3999 17.9966C16.9457 16.5033 17.8325 15.2136 18.7875 14.6027C19.6061 14.0597 20.5612 13.6524 21.5844 13.5166C21.7891 13.5166 21.9255 13.5845 21.9937 13.7882C22.062 13.856 21.9255 14.0597 21.7209 14.0597ZM11.8976 15.2136C11.8294 14.4669 14.6263 13.9918 14.6263 13.9918C14.6263 13.9918 13.2619 12.0912 13.6713 11.5482C14.0806 11.073 14.8309 11.8197 16.1271 12.1591C16.8092 11.073 16.6728 9.24028 17.8325 9.37603C18.5147 9.44391 17.8325 11.0051 17.8325 12.1591C17.5596 12.2948 17.2185 12.4985 16.9457 12.6342C15.9224 13.313 15.1038 14.5348 14.5581 15.9603C13.9441 15.9603 11.9658 15.8245 11.8976 15.2136ZM15.5813 28.2463C15.5813 29.6718 15.9906 31.0293 16.6728 32.2512C15.4449 32.5906 14.3534 32.319 13.5348 31.9796C11.7612 31.233 10.2604 29.4681 9.98753 27.9069C9.71466 26.21 10.1922 24.3094 11.2837 22.816C12.034 21.8657 13.0573 21.1191 14.1488 20.7797C14.4899 22.273 15.2402 23.5627 16.3999 24.513C15.9224 25.599 15.5813 26.8887 15.5813 28.2463ZM9.30536 27.9748C9.23714 27.7033 9.23714 27.3639 9.23714 27.0924C8.35032 26.6851 7.39528 25.6669 7.12241 26.2778C6.64489 27.296 8.07744 27.7033 8.6914 28.6536C8.00923 29.6039 7.19063 30.079 7.39528 30.5542C7.59993 31.0972 9.57822 30.4863 9.57822 30.4863C9.57822 30.4863 8.96427 33.0657 9.57822 33.2015C10.0557 33.3372 10.8061 31.776 11.079 31.0972C10.1922 30.2148 9.51001 29.0609 9.30536 27.9748Z" fill="#1F3773"/>
</svg>

<svg id="grow" viewBox="0 0 46 47" fill="none" xmlns="http://www.w3.org/2000/svg">
<path d="M42.0169 13.3908C47.5511 23.938 43.5884 37.0359 33.2032 42.6197C22.7498 48.2035 9.76836 44.2052 4.23418 33.727C-1.30001 23.1797 2.66274 10.0819 13.0479 4.49808C23.5013 -1.15467 36.4827 2.84362 42.0169 13.3908Z" fill="currentColor"/>
<path d="M33.2716 43.7227C22.2715 49.6512 8.53858 45.3772 2.66278 34.2785C-3.21302 23.1798 0.954694 9.32365 12.0231 3.39515C23.0231 -2.53334 36.7561 1.67175 42.6319 12.8394C48.5077 23.9381 44.2716 37.7942 33.2716 43.7227ZM13.1846 5.60111C3.34601 10.8402 -0.41177 23.1798 4.84912 33.1066C10.0417 43.0334 22.2715 46.8248 32.1101 41.5168C41.9486 36.2087 45.6381 23.8691 40.4455 14.0113C35.1846 4.08451 22.9548 0.293033 13.1846 5.60111Z" fill="currentColor" opacity="0.5"/>
<path d="M32.8618 36.8291H22.6133V36.2087H32.8618V36.8291ZM32.8618 10.7713H22.6133V10.1509H32.8618V10.7713ZM24.663 31.4521L27.7375 36.5534L30.8121 31.4521H24.663ZM24.663 15.459L27.7375 10.3577L30.8121 15.459H24.663ZM28.0791 32.2793H27.4642V14.6317H28.0791V32.2793ZM19.1971 10.1509H15.166C14.0729 10.1509 13.253 10.9781 13.253 12.0122V34.9678C13.253 36.0019 14.1412 36.8291 15.166 36.8291H19.1971C20.2903 36.8291 21.1102 36.0019 21.1102 34.9678V12.0122C21.1785 10.9781 20.2903 10.1509 19.1971 10.1509ZM21.1785 33.5891H17.1474V33.0376H21.1785V33.5891ZM21.1785 31.3832H18.8555V30.8317H21.1785V31.3832ZM21.1785 29.2462H18.8555V28.6947H21.1785V29.2462ZM21.1785 27.0402H17.1474V26.4887H21.1785V27.0402ZM21.1785 24.8342H18.8555V24.2828H21.1785V24.8342ZM21.1785 22.6972H18.8555V22.1457H21.1785V22.6972ZM21.1785 20.4913H17.1474V19.9398H21.1785V20.4913ZM21.1785 18.2853H18.8555V17.7338H21.1785V18.2853ZM21.1785 16.1483H18.8555V15.5968H21.1785V16.1483ZM21.1785 13.9424H17.1474V13.3909H21.1785V13.9424Z" fill="#1F3773"/>
</svg>

<svg id="hair" viewBox="0 0 46 45" fill="none" xmlns="http://www.w3.org/2000/svg">
<path d="M43.9081 23.7949C42.9727 35.287 32.8836 43.9061 21.3247 42.9707C9.83253 42.0353 1.21343 31.9463 2.14883 20.3873C3.08424 8.89516 13.1733 0.276049 24.7322 1.21146C36.2244 2.14686 44.8435 12.2359 43.9081 23.7949Z" fill="currentColor"/>
<path d="M43.9081 23.7949C42.9727 35.287 32.8836 43.9061 21.3247 42.9707C9.83253 42.0353 1.21343 31.9463 2.14883 20.3873C3.08424 8.89516 13.1733 0.276049 24.7322 1.21146C36.2244 2.14686 44.8435 12.2359 43.9081 23.7949Z" stroke="#1A1A18" stroke-width="0.567" stroke-miterlimit="22.926"/>
<path d="M21.1911 44.1733C9.03076 43.1711 -0.0560654 32.4807 0.946157 20.3204C1.94838 8.16015 12.6388 -0.926671 24.7991 0.0755516C36.9594 1.07777 46.0462 11.7681 45.0439 23.9284C44.1085 36.0219 33.4182 45.1756 21.1911 44.1733ZM24.5986 2.41407C13.7746 1.54548 4.22009 9.63007 3.35149 20.4541C2.4829 31.2781 10.5675 40.8326 21.3915 41.7012C32.2155 42.5698 41.77 34.4852 42.6386 23.6612C43.574 12.8372 35.4894 3.28266 24.5986 2.41407Z" fill="currentColor" opacity="0.5"/>
<path d="M38.3624 29.0732C37.1597 28.6055 35.9571 28.2046 34.6876 27.8037C33.4181 27.4696 32.1486 27.1356 30.8792 26.8683C29.7433 26.6011 28.6075 26.4674 27.4716 26.267C28.6075 16.9129 30.8123 14.2403 30.4783 14.1067C30.4115 14.1067 30.2778 14.2403 30.211 14.3739C30.1442 14.5076 27.1375 18.7169 25.6008 26.0665C24.9326 25.9997 24.2645 25.9329 23.5295 25.9329C24.9326 12.1691 28.1397 8.16016 27.6052 7.95972C27.5384 7.95972 27.338 8.16016 27.2044 8.36061C27.0707 8.56105 22.7946 14.8416 20.7233 25.8661C19.6543 25.8661 18.652 25.8661 17.583 25.9329C18.3848 19.1178 19.9883 17.1133 19.7211 17.0465C19.6543 17.0465 19.5875 17.1133 19.5206 17.247C19.4538 17.3138 17.2489 20.5209 16.1131 26.0665C15.8458 26.0665 15.6454 26.1334 15.3781 26.1334C12.7723 26.4006 10.2334 26.8683 7.76123 27.6701C10.3002 27.2692 12.906 27.0688 15.4449 26.9351C15.5786 26.9351 15.779 26.9351 15.9126 26.9351C15.7122 27.8705 15.5786 28.8728 15.5118 30.0086C15.5118 30.3427 15.4449 30.8772 15.4449 31.5454C15.4449 31.6122 15.5786 31.8794 16.2467 31.8794C16.848 31.8794 17.1821 31.679 17.1821 31.4117C17.1821 30.944 17.1821 30.4095 17.1821 30.1422C17.2489 28.9396 17.3158 27.9374 17.4494 26.9351C18.4516 26.9351 19.4538 26.9351 20.5229 26.9351C20.1888 28.6723 19.9883 30.5431 19.7879 32.5476C19.7211 33.2157 19.7211 34.1511 19.7211 35.4206C19.7211 35.6211 19.9883 36.0888 21.2578 36.0888C22.4605 36.0888 22.995 35.6879 22.995 35.287C23.0618 34.3516 22.995 33.3494 22.995 32.8148C23.0618 30.7436 23.1955 28.8059 23.3959 27.0688C24.064 27.0688 24.6654 27.1356 25.3335 27.2024C25.1331 28.2046 24.9995 29.2068 24.8658 30.2759C24.799 30.7436 24.799 31.3449 24.799 32.1467C24.799 32.2803 24.9995 32.6144 25.8012 32.6144C26.603 32.6144 26.9371 32.3471 26.9371 32.0799C27.0039 31.4785 26.9371 30.8104 27.0039 30.4763C27.0707 29.3405 27.2043 28.3382 27.2712 27.336C28.407 27.4696 29.5429 27.5365 30.6787 27.7369C33.2845 28.071 35.7566 28.6055 38.3624 29.0732ZM31.2132 21.1891L30.946 19.7859L30.6787 21.1891L29.2756 21.4563L30.6787 21.7236L30.946 23.1267L31.2132 21.7236L32.6163 21.4563L31.2132 21.1891ZM21.2578 11.4341L20.6565 8.42742L20.0552 11.4341L17.0485 11.9686L20.0552 12.5699L20.6565 15.5766L21.2578 12.5699L24.2645 11.9686L21.2578 11.4341ZM14.5763 17.9819L14.3091 16.7125L14.0418 17.9819L12.7723 18.2492L14.0418 18.5165L14.3091 19.7859L14.5763 18.5165L15.8458 18.2492L14.5763 17.9819Z" fill="#1F3773"/>
</svg>

<svg id="provitamin" viewBox="0 0 45 46" fill="none" xmlns="http://www.w3.org/2000/svg">
<path d="M40.9148 13.1216C46.3275 23.4373 42.4517 36.2477 32.2945 41.7089C22.0705 47.1702 9.37404 43.2596 3.96133 33.0114C-1.45138 22.6957 2.42439 9.88532 12.5816 4.42406C22.8056 -1.03719 35.5021 2.87334 40.9148 13.1216Z" fill="currentColor"/>
<path d="M32.8289 42.7876C22.0703 48.586 8.63875 44.4732 2.89193 33.5507C-2.8549 22.6956 1.22134 9.14358 12.0468 3.34522C22.8053 -2.45315 36.2369 1.65964 41.9837 12.5821C47.7305 23.4372 43.5875 36.9892 32.8289 42.7876ZM13.1159 5.50275C3.56016 10.6943 -0.115135 22.763 5.03028 32.4045C10.1757 42.1134 22.1371 45.7542 31.6929 40.6301C41.3155 35.4385 44.924 23.3698 39.8454 13.7283C34.6999 4.01945 22.7385 0.311184 13.1159 5.50275Z" fill="currentColor" opacity="0.5"/>
<path d="M22.4045 7.45801C13.8511 7.45801 6.96826 14.47 6.96826 23.0327C6.96826 31.5954 13.9179 38.6074 22.4045 38.6074C30.9579 38.6074 37.8408 31.5954 37.8408 23.0327C37.8408 14.47 30.9579 7.45801 22.4045 7.45801ZM26.9485 14.3351C27.4163 13.7958 28.0177 13.3238 29.0869 13.3238C30.156 13.3238 30.8243 13.7958 31.2252 14.3351C31.8934 15.2116 31.9603 16.4927 31.9603 18.3805C31.9603 20.2684 31.8934 21.6168 31.2252 22.4259C30.7574 22.9653 30.156 23.4372 29.0869 23.4372C28.0177 23.4372 27.3495 22.9653 26.9485 22.4259C26.2803 21.5494 26.2135 20.2684 26.2135 18.3805C26.2135 16.4927 26.2134 15.2116 26.9485 14.3351ZM14.252 32.7416H13.0492L11.7796 27.0106H13.0492L13.6506 31.056L14.252 27.0106H15.5217L14.252 32.7416ZM14.8534 19.7964V23.3698H12.9156V13.4586H15.6553C17.7937 13.4586 18.3951 14.6723 18.3951 16.6275C18.3951 18.5828 17.7937 19.7964 15.6553 19.7964H14.8534ZM17.0586 32.7416H15.9894V28.6288H17.0586V32.7416ZM17.0586 28.0894H15.9226V27.0106H17.0586V28.0894ZM19.5979 29.3704H19.0633V31.2583C19.0633 31.5954 19.197 31.7302 19.5979 31.7302V32.6742C19.1302 32.6742 18.796 32.6067 18.5287 32.4045C18.1946 32.2022 18.061 31.8651 18.061 31.2583V29.303H17.5932V28.4939H17.9942V27.3478H19.0633V28.4939H19.5979V29.3704ZM22.8054 32.7416H21.8031V32.4045C21.7363 32.5393 21.6694 32.6067 21.5358 32.6742C21.4022 32.7416 21.2685 32.809 21.068 32.809C20.6671 32.809 20.3998 32.6742 20.1993 32.4045C19.9989 32.2022 19.932 31.8651 19.932 31.4606C19.932 31.056 20.0657 30.7189 20.333 30.5166C20.5334 30.3144 20.8007 30.1795 21.4022 30.1795H21.7363V29.7076C21.7363 29.4379 21.6026 29.303 21.4022 29.303C21.2685 29.303 21.2017 29.3704 21.2017 29.4379C21.1349 29.5053 21.1349 29.6401 21.1349 29.7076H20.0657C20.0657 29.3704 20.1993 29.0333 20.4666 28.7636C20.6671 28.5614 21.068 28.3591 21.469 28.3591C21.8031 28.3591 22.204 28.4265 22.4713 28.6962C22.7386 28.9659 22.8723 29.303 22.8723 29.775V32.7416H22.8054ZM22.204 19.5267H21.5358V23.3698H19.5979V13.4586H22.4045C24.5429 13.4586 25.1443 14.6048 25.1443 16.4927C25.1443 17.5714 25.0106 18.5154 24.0083 19.1222L25.4116 23.3698H23.4069L22.204 19.5267ZM27.6167 32.7416H26.4807V29.775L25.8793 31.7302H25.2779L24.6765 29.775V32.7416H23.6073V27.0106H24.6097L25.612 29.8424L26.6144 27.0106H27.6167V32.7416ZM29.4878 32.7416H28.4186V28.6288H29.4878V32.7416ZM29.5546 28.0894H28.4186V27.0106H29.5546V28.0894ZM33.0295 32.7416H31.9603V29.7076C31.9603 29.4379 31.8266 29.303 31.6262 29.303C31.4257 29.303 31.292 29.4379 31.292 29.7076V32.7416H30.2229V28.4265H31.2252V28.7636C31.292 28.6288 31.4257 28.5614 31.5593 28.4939C31.693 28.4265 31.8266 28.3591 31.9603 28.3591C32.3612 28.3591 32.5617 28.4939 32.7622 28.6962C32.8958 28.8985 33.0295 29.1682 33.0295 29.7076V32.7416ZM29.0869 21.6842C29.421 21.6842 29.6215 21.5494 29.7551 21.2797C30.0224 20.8077 30.0224 19.5941 30.0224 18.3805C30.0224 17.1669 30.0224 15.9533 29.7551 15.4813C29.6215 15.2791 29.421 15.0768 29.0869 15.0768C28.7527 15.0768 28.5523 15.2116 28.4186 15.4813C28.2182 15.9533 28.1513 17.1669 28.1513 18.3805C28.1513 19.5941 28.1513 20.8077 28.4186 21.2797C28.4854 21.5494 28.6859 21.6842 29.0869 21.6842ZM21.1349 31.056C21.068 31.1234 21.0012 31.3257 21.0012 31.3931C21.0012 31.7302 21.1349 31.8651 21.3353 31.8651C21.5358 31.8651 21.6694 31.7302 21.6694 31.3931V30.9212H21.469C21.4022 30.9212 21.2685 30.9212 21.1349 31.056ZM22.4045 15.2116H21.6026V17.7063H22.4045C23.1396 17.7063 23.2064 17.0321 23.2064 16.4253C23.1396 15.8859 23.1396 15.2116 22.4045 15.2116ZM15.5885 15.2116H14.8534V17.976H15.5885C16.3904 17.976 16.4572 17.2343 16.4572 16.6275C16.4572 16.0207 16.4572 15.2116 15.5885 15.2116Z" fill="#1F3773"/>
</svg>

<svg id="shnyaga" viewBox="0 0 45 45" fill="none" xmlns="http://www.w3.org/2000/svg">
<path d="M40.9035 12.2922C46.3155 22.5149 42.4403 35.2097 32.2844 40.6217C22.0617 46.0337 9.36691 42.1584 3.95491 32.0026C-1.45709 21.7799 2.41817 9.0851 12.574 3.67309C22.7967 -1.73891 35.4915 2.06954 40.9035 12.2922Z" fill="currentColor"/>
<path d="M32.8188 41.6907C22.0616 47.4367 8.6318 43.361 2.88573 32.537C-2.86035 21.7798 1.21536 8.35006 12.0394 2.60399C22.7966 -3.14209 36.2263 0.933617 41.9724 11.7576C47.7185 22.5148 43.6428 35.9446 32.8188 41.6907ZM13.1752 4.74206C3.55388 9.81999 -0.120938 21.8467 5.0238 31.4012C10.1685 41.0225 22.1284 44.6305 31.6829 39.5526C41.3043 34.4079 44.9123 22.448 39.8343 12.8935C34.7564 3.27214 22.7297 -0.402679 13.1752 4.74206Z" fill="currentColor" opacity="0.5"/>
<path d="M16.5159 11.3568C17.1173 11.6241 17.8522 11.3568 18.1195 10.7555C18.3867 10.1542 18.1195 9.4192 17.5181 9.15194C16.9168 8.88468 16.1818 9.15194 15.9146 9.75327C15.6473 10.3546 15.9146 11.0896 16.5159 11.3568ZM21.9947 18.9069C21.8611 19.241 21.9947 19.6419 22.3288 19.8423C22.6629 19.9759 23.0638 19.8423 23.2642 19.5082C23.3979 19.1742 23.2642 18.7733 22.9301 18.5728C22.5293 18.4392 22.1284 18.5728 21.9947 18.9069ZM35.7586 27.7933C35.4245 27.6596 35.0236 27.7933 34.8232 28.1273C34.6896 28.4614 34.8232 28.8623 35.1573 29.0628C35.4913 29.2632 35.8922 29.0628 36.0927 28.7287C36.2931 28.3946 36.0927 27.9269 35.7586 27.7933ZM10.6362 14.5639C10.9703 14.6976 11.3712 14.5639 11.5716 14.2299C11.7053 13.8958 11.5716 13.4949 11.2376 13.2945C10.9035 13.1608 10.5026 13.2945 10.3021 13.6285C10.1017 14.0294 10.2353 14.4303 10.6362 14.5639ZM14.8456 19.4414C14.6451 19.8423 14.8456 20.3768 15.2464 20.5773C15.6473 20.7777 16.1819 20.5773 16.3823 20.1764C16.5827 19.7755 16.3823 19.241 15.9814 19.0405C15.5137 18.8401 15.046 19.0405 14.8456 19.4414ZM26.939 9.61964C27.3399 9.82009 27.8744 9.61964 28.0749 9.21875C28.2753 8.81786 28.0749 8.28334 27.674 8.0829C27.2731 7.88246 26.7386 8.0829 26.5381 8.48379C26.2709 8.95149 26.4713 9.48601 26.939 9.61964ZM33.5537 16.5684C34.2219 16.8356 35.0236 16.5684 35.2909 15.9002C35.5582 15.2321 35.2909 14.4303 34.6227 14.1631C33.9546 13.8958 33.1528 14.1631 32.8856 14.8312C32.6183 15.4325 32.8856 16.2343 33.5537 16.5684ZM12.1061 24.9202C12.5738 23.8512 12.1061 22.6485 11.0371 22.1808C9.96807 21.7131 8.7654 22.1808 8.2977 23.2499C7.82999 24.3189 8.2977 25.5216 9.29992 25.9893C10.369 26.457 11.6384 25.9893 12.1061 24.9202ZM15.5137 31.6685C14.8456 31.3345 14.0438 31.6685 13.7097 32.3367C13.3756 33.0048 13.7097 33.8066 14.3779 34.1407C15.046 34.4748 15.8478 34.1407 16.1818 33.4725C16.4491 32.8044 16.1818 32.0026 15.5137 31.6685ZM27.0727 31.6017C26.0704 31.134 24.8678 31.6017 24.4001 32.6039C23.9324 33.6062 24.4001 34.8088 25.4023 35.2765C26.4045 35.7442 27.6072 35.2765 28.0749 34.2743C28.5426 33.2721 28.0749 32.0694 27.0727 31.6017ZM27.7408 25.2543C27.2731 26.2565 27.7408 27.4592 28.743 27.9269C29.7453 28.3946 30.9479 27.9269 31.4156 26.9247C31.8833 25.9225 31.4156 24.7198 30.4134 24.2521C29.4112 23.8512 28.2085 24.2521 27.7408 25.2543ZM34.8232 21.8468C33.6205 21.4459 32.2842 22.114 31.8165 23.3167C31.4824 24.3189 31.9502 25.1875 32.2842 26.1229C32.5515 26.7911 32.2842 27.8601 31.6829 28.3278C31.4156 28.5282 31.0816 28.7287 30.8143 28.9291C30.4134 28.9959 29.9457 29.0628 29.5448 29.0628C28.743 29.1296 27.7408 28.5951 27.4736 27.8601C27.2731 27.3924 27.1395 26.8579 26.8722 26.3902C26.6718 25.722 26.1373 25.1207 25.4691 24.8534C24.1328 24.2521 22.5293 24.8534 21.9279 26.1897C21.4602 27.2588 21.9279 28.4614 22.1284 29.5305C22.262 30.3322 21.8611 31.4681 21.0593 31.869C20.0571 32.3367 18.9213 32.8044 18.4536 33.8734C17.8522 35.2097 18.4536 36.8133 19.7899 37.4146C21.1261 38.0159 22.7297 37.4146 23.331 36.0783C23.7987 35.0093 23.3979 33.9402 23.0638 32.8712C22.7965 32.0694 23.1974 30.8668 23.9324 30.4659C24.2664 30.2654 25.9368 29.7309 26.3377 29.6641C27.1395 29.5305 28.1417 29.9982 28.4758 30.6663C28.8767 31.6017 29.2107 32.938 30.1461 33.4725C31.3488 34.1407 32.8187 33.7398 33.4869 32.5371C33.6205 32.3367 33.6873 32.1362 33.7542 31.869C34.0882 30.8668 33.6205 29.8645 33.2864 28.9291C33.086 28.1942 33.3533 27.1919 34.0214 26.7911C34.89 26.3233 35.8254 25.7888 36.1595 24.8534C36.694 23.6508 36.0259 22.3145 34.8232 21.8468ZM20.8589 30.3991C21.2598 29.4636 20.9257 28.5282 20.6584 27.5928C20.458 26.8579 20.7921 25.8556 21.4602 25.4548C22.3288 24.9871 23.5315 24.5862 23.9324 23.6508C24.4669 22.4481 23.9324 21.1118 22.7297 20.5773C21.527 20.0428 20.1907 20.5773 19.6562 21.7799C19.2553 22.7153 19.6562 23.7844 19.7899 24.7198C19.9235 25.4548 19.5226 26.457 18.8544 26.7911C18.2531 27.0583 17.6518 27.3256 17.1173 27.7933C16.7164 28.0605 16.3155 28.3278 15.9814 28.5951C15.3801 28.9959 13.3756 28.9959 13.242 28.0605C13.1752 27.526 13.7765 26.9247 14.311 26.7911C14.6451 26.7242 15.046 26.7242 15.3801 26.6574C15.8478 26.7242 16.3823 26.5906 16.85 26.3234C17.919 25.6552 18.2531 24.1853 17.585 23.1162C17.0504 22.2476 15.9146 21.9804 15.046 21.6463C14.3779 21.3791 13.7097 20.5105 13.8433 19.7755C13.977 18.8401 14.1774 17.7711 13.6429 16.9025C13.5761 16.8356 13.5761 16.7688 13.5093 16.702C13.4424 16.5016 13.3756 16.3679 13.3756 16.1675C13.242 15.633 13.4424 14.898 13.977 14.6308C14.5783 14.2967 15.5137 13.9626 15.8478 13.2945C16.2487 12.4259 15.8478 11.4236 14.9792 11.0228C14.1106 10.6219 13.1084 11.0228 12.7075 11.8913C12.3734 12.5595 12.7075 13.3613 12.8411 14.0962C12.9747 14.6308 12.6407 15.3657 12.173 15.633C11.9725 15.6998 11.7721 15.8334 11.5716 15.9002C11.2376 15.9002 10.8367 16.0339 10.5026 16.2343C9.43355 16.9025 9.09948 18.3724 9.76763 19.4414C10.3021 20.31 11.3044 20.5105 12.2398 20.7777C12.9747 20.9782 13.6429 21.8468 13.5761 22.5817C13.5093 23.4503 13.242 24.4525 13.5761 25.3211C13.5761 25.5216 13.5093 25.722 13.5093 25.9225C13.4424 26.457 12.9079 27.1251 12.3066 27.1251C11.7721 27.1919 11.1707 27.1919 10.6362 27.4592C9.83444 27.7933 9.23311 28.5951 9.23311 29.5305C9.23311 30.7999 10.2353 31.8022 11.438 31.8022C12.4402 31.8022 13.1084 31.134 13.8433 30.5327C14.3778 30.065 15.4469 29.9982 15.9814 30.3991C16.4491 30.7331 16.9168 31.134 17.3845 31.4681C17.4513 31.5349 17.5181 31.5349 17.585 31.6017C17.6518 31.6685 17.7186 31.6685 17.7854 31.7354C18.9213 32.1362 20.3244 31.6017 20.8589 30.3991ZM35.2241 17.437C34.5559 17.437 34.0214 17.9715 33.4869 18.3056C33.086 18.5728 32.4179 18.6396 32.017 18.3056C31.5493 17.9047 31.0147 17.437 30.4134 17.437C29.5448 17.437 28.8767 18.1051 28.8767 18.9069C28.8767 19.7755 29.5448 20.4436 30.3466 20.4436C31.0147 20.4436 31.4825 19.9759 31.9502 19.5751C32.351 19.241 33.0192 19.1742 33.4201 19.5082C33.9546 19.9091 34.4891 20.5105 35.1573 20.5105C36.0259 20.5105 36.694 19.8423 36.694 19.0405C36.7608 18.1719 36.0259 17.5038 35.2241 17.437ZM26.605 18.9737C26.0036 18.7065 25.4023 17.8379 25.5359 17.1697C25.6696 16.3011 25.9368 15.2989 25.4023 14.4971C24.801 13.4949 23.4647 13.094 22.4624 13.6953C21.4602 14.2967 21.0593 15.633 21.6607 16.6352C22.1284 17.437 23.0638 17.7042 23.9324 17.9715C24.6005 18.1719 25.135 18.9737 25.135 19.7087C25.0682 20.5773 24.6673 21.7799 25.2019 22.5817C25.8032 23.5839 27.1395 23.9848 28.1417 23.3835C29.1439 22.7822 29.5448 21.4459 28.9435 20.4436C28.409 19.5751 27.4067 19.3078 26.605 18.9737ZM16.1818 15.8334C15.5805 17.1029 16.1818 18.6396 17.4513 19.1742C18.7208 19.7755 20.2576 19.1742 20.7921 17.9047C21.2598 16.9025 20.8589 15.8334 20.5248 14.8312C20.3244 14.0294 20.7253 13.094 21.3934 12.5595C21.9947 12.025 23.3979 11.7577 23.7319 11.6909C24.5337 11.5573 25.6696 12.025 26.0036 12.8268C26.4713 13.829 26.8054 15.2989 27.8076 15.8334C29.0771 16.5684 30.7475 16.1007 31.4824 14.8312C32.2174 13.5617 31.7497 11.8913 30.4802 11.1564C29.478 10.555 28.2085 10.8891 27.1395 11.0228C26.2709 11.0896 25.2019 10.555 24.9346 9.75327C24.6005 8.68423 24.1996 7.54838 23.1974 6.94705C21.9279 6.21208 20.3244 6.67979 19.5226 7.94927C19.1217 8.61742 19.0549 9.35238 19.2553 10.0205C19.3221 10.555 19.4558 11.0896 19.5894 11.6241C19.723 12.4259 19.3221 13.4949 18.5872 13.829C17.7186 14.3635 16.6496 14.8312 16.1818 15.8334Z" fill="#1F3773"/>
</svg>

<svg id="ssat" viewBox="0 0 46 45" fill="none" xmlns="http://www.w3.org/2000/svg">
<path d="M41.4741 12.4879C46.9997 22.8733 43.0431 35.7703 32.6741 41.2684C22.2368 46.7666 9.27558 42.8297 3.75 32.5121C-1.84381 22.1266 2.11278 9.29757 12.55 3.73152C22.9872 -1.76666 35.9485 2.17031 41.4741 12.4879Z" fill="currentColor"/>
<path d="M33.2199 42.3545C22.237 48.1921 8.52531 44.0515 2.65864 33.0551C-3.20803 22.1266 0.953212 8.48302 12.0044 2.64545C22.9873 -3.19212 36.699 0.948484 42.5657 11.9448C48.4323 22.8733 44.2029 36.5169 33.2199 42.3545ZM13.1641 4.81757C3.34081 10.0442 -0.41113 22.1945 4.84159 31.9691C10.0261 41.6757 22.237 45.409 32.0602 40.1824C41.8835 34.9557 45.5672 22.8054 40.3827 13.0988C35.13 3.32424 22.9191 -0.341212 13.1641 4.81757Z" fill="currentColor" opacity="0.5"/>
<path d="M17.1207 14.7278C17.53 14.4563 17.9393 13.9811 17.8711 13.2345C17.8029 12.6914 17.5982 12.352 17.3254 12.0805C19.099 12.2163 19.9176 10.0442 18.5533 8.82235C17.53 7.80417 15.8928 7.87205 14.7331 8.75447C13.3006 9.84053 12.823 11.4696 12.6866 13.0987C12.6184 14.6599 13.437 17.986 16.2339 18.1896C16.9161 18.2575 17.53 18.1217 18.0076 17.7823C18.2804 17.6466 18.5533 17.4429 18.6897 17.1714C19.099 16.6284 19.099 15.9496 18.8262 15.4745C18.5533 14.9314 17.8029 14.5242 17.1207 14.7278ZM15.8928 8.82235C15.8246 8.89023 15.6882 8.82235 15.7564 8.75447C15.961 8.55083 16.3703 8.41508 16.7796 8.41508C17.1889 8.41508 17.53 8.55083 17.8029 8.75447C17.8711 8.82235 17.8029 8.89023 17.6665 8.82235C17.3936 8.68659 17.1207 8.61871 16.7796 8.61871C16.4386 8.61871 16.0975 8.68659 15.8928 8.82235ZM32.5378 13.1666C32.4014 11.4696 31.9238 9.84053 30.4913 8.82235C29.2634 7.93993 27.6262 7.87205 26.6711 8.89023C25.3068 10.112 26.1254 12.2842 27.899 12.1484C27.6262 12.352 27.4215 12.6914 27.3533 13.3023C27.2851 14.049 27.6944 14.5242 28.1037 14.7957C27.3533 14.592 26.6711 14.9993 26.33 15.6102C26.1254 16.0854 26.1254 16.7642 26.4665 17.3072C26.6711 17.5787 26.8758 17.7823 27.1486 17.9181C27.6262 18.1896 28.2401 18.3932 28.9223 18.3254C31.7874 18.0539 32.606 14.7278 32.5378 13.1666ZM29.3316 8.82235C29.0587 8.68659 28.7859 8.61871 28.4448 8.61871C28.1037 8.61871 27.7626 8.68659 27.558 8.82235C27.4897 8.89023 27.3533 8.82235 27.4215 8.75447C27.6262 8.55083 28.0355 8.41508 28.4448 8.41508C28.8541 8.41508 29.1952 8.55083 29.468 8.75447C29.5362 8.75447 29.3998 8.82235 29.3316 8.82235ZM19.7812 17.5787C19.9176 16.5605 19.7812 15.4066 18.9626 14.7278C18.6897 14.5242 18.4169 14.3884 18.0758 14.2526C18.2122 13.9133 18.2804 13.5739 18.2804 13.2345C18.2804 13.0308 18.2122 12.8951 18.2122 12.6914C18.5533 12.8272 18.8262 12.963 19.099 13.0987C20.2587 13.7775 20.8727 14.9314 20.9409 16.1532C21.0091 17.5108 20.5998 18.8005 20.1223 20.0223C19.6448 21.1763 19.099 22.466 19.1672 23.8235C19.1672 24.0951 19.2355 24.3666 19.3037 24.5702C19.0308 24.7738 18.8944 25.0454 18.7579 25.3169C17.7347 23.8235 18.4851 21.6514 19.0308 20.0902C19.4401 19.2757 19.713 18.4611 19.7812 17.5787ZM26.8076 22.8732C26.8758 23.7557 26.8076 24.6381 26.33 25.3169C26.1936 25.0454 26.0572 24.7738 25.7843 24.5702C25.8525 24.4345 25.8525 24.2987 25.9207 24.1629C26.1936 22.9411 25.6479 21.5835 25.2386 20.4975C24.761 19.2078 24.2153 17.986 24.2153 16.6284C24.2153 15.3387 24.6246 14.1169 25.7161 13.3023C26.1254 13.0308 26.5347 12.8272 27.0122 12.6236C26.944 12.7593 26.944 12.963 26.944 13.1666C26.944 13.5739 27.0122 13.9133 27.1486 14.1848C26.944 14.2526 26.8076 14.3205 26.6029 14.4563C25.6479 14.9993 25.375 16.1532 25.4432 17.1036C25.4432 19.1399 26.6029 20.9048 26.8076 22.8732ZM22.5781 24.0272C19.8494 24.0272 19.0308 25.3848 19.0308 26.3351C19.0308 27.8284 20.1223 28.8466 21.1455 29.5254C22.1688 30.1363 22.1006 30.6114 22.1688 31.0187C22.1688 31.2902 22.9192 31.2902 22.9874 31.0187C23.0556 30.6114 22.9874 30.1363 24.0107 29.5254C25.0339 28.8466 26.1254 27.8284 26.1254 26.3351C26.1254 25.3848 25.3068 24.0272 22.5781 24.0272ZM23.6014 24.8417C23.3285 24.7738 22.9874 24.706 22.5781 24.706C22.237 24.706 21.8277 24.7738 21.5548 24.8417C21.4866 24.8417 21.3502 24.7738 21.4184 24.7738C21.6913 24.5702 22.1006 24.5023 22.5099 24.5023C22.9874 24.5023 23.3967 24.6381 23.6014 24.7738C23.806 24.7738 23.7378 24.8417 23.6014 24.8417ZM22.5781 32.0369C21.4184 33.9375 21.0091 34.5484 21.0091 35.3629C21.0091 36.2453 21.6913 36.9241 22.5781 36.9241C23.4649 36.9241 24.1471 36.2453 24.1471 35.3629C24.2153 34.4805 23.7378 33.9375 22.5781 32.0369Z" fill="#1F3773"/>
</svg>

<svg id="stomach" viewBox="0 0 45 46" fill="none" xmlns="http://www.w3.org/2000/svg">
<path d="M40.627 13.1216C46.0397 23.4373 42.1639 36.2476 32.0068 41.7089C21.7828 47.1701 9.08627 43.2596 3.67356 33.0113C-1.80597 22.6956 2.0698 9.88529 12.2938 4.42403C22.5178 -1.10464 35.2143 2.80588 40.627 13.1216Z" fill="currentColor"/>
<path d="M32.5413 42.7876C21.7827 48.586 8.35116 44.4058 2.60433 33.5507C-3.1425 22.6956 0.933739 9.14358 11.7592 3.34522C22.5178 -2.45315 35.9493 1.65964 41.6961 12.5822C47.4429 23.4372 43.2999 36.9892 32.5413 42.7876ZM12.8952 5.50275C3.27256 10.6269 -0.402731 22.6956 4.74268 32.4045C9.82127 42.1134 21.7827 45.8216 31.4053 40.6301C41.0279 35.4385 44.6364 23.3698 39.5578 13.7283C34.4123 4.01944 22.4509 0.311186 12.8952 5.50275Z" fill="currentColor" opacity="0.5"/>
<path d="M35.1475 20.201C34.6797 18.6503 32.3409 12.8519 28.3315 14.5375C27.4628 14.8746 27.2623 15.3465 26.6609 15.3465C26.5273 15.3465 25.9259 15.3465 24.9903 14.1329C23.3866 12.1102 23.3197 10.3572 22.9856 10.0875C22.7183 9.88528 22.3842 9.88528 22.0501 10.0201C21.5823 10.155 21.1146 10.5595 20.8473 10.964C20.7804 11.0989 20.7136 11.2337 20.6468 11.3686C20.6468 11.436 20.6468 11.436 20.6468 11.5034C20.6468 11.5709 20.6468 11.5709 20.6468 11.6383C20.58 12.1777 21.8496 15.0768 23.3197 16.5601C23.988 17.3018 24.3221 17.4366 24.5894 18.0434C24.8567 18.5828 24.9235 19.0548 24.9903 19.729C24.9903 20.1336 24.9903 20.5381 24.9903 20.9426C24.7899 23.7744 23.4534 25.7971 23.4534 25.7971C22.9856 26.4713 22.5847 27.0781 21.8496 27.4152C20.7804 27.9546 19.6444 27.7523 19.3771 27.6849C18.3748 27.4827 18.1075 27.0781 17.172 27.1455C16.771 27.1455 16.5037 27.2804 16.1696 27.1455C15.635 26.9433 15.4346 26.5387 15.1004 26.269C14.0981 25.3925 12.2938 25.9319 12.0934 25.9993C10.6233 26.4713 9.95502 27.7523 9.68773 28.1569C9.55408 28.494 9.42043 28.8311 9.21996 29.5053C8.95267 30.3818 8.81902 30.9886 8.7522 31.4606C8.7522 31.7303 8.7522 31.9326 8.7522 32.1348C8.88584 32.6742 11.091 33.9552 11.6924 33.5507C12.2938 33.1462 12.2938 31.4606 13.0957 30.9886C13.2294 30.9212 13.5635 30.7864 13.8976 30.8538C14.2986 30.9212 14.4322 31.2583 14.7663 31.7303C14.7663 31.7303 14.8331 31.7977 15.7687 33.0788C16.7042 34.3598 18.0407 34.9666 18.6421 35.1689C19.3103 35.4385 19.7781 35.5734 20.3795 35.7082C21.1814 35.9105 22.852 36.2476 24.9235 36.0454C25.7254 35.9779 27.2623 35.7757 28.9997 34.9666C29.4007 34.7643 31.2049 33.8878 32.8755 31.8651C34.0783 30.4493 34.6797 29.0334 34.947 28.2243C35.0807 27.8198 35.5484 26.4713 35.6821 24.5835C35.8157 22.4934 35.348 20.8078 35.1475 20.201Z" fill="#1F3773"/>
</svg>

<svg id="vegetables" viewBox="0 0 45 45" fill="none" xmlns="http://www.w3.org/2000/svg">
<path d="M40.6217 12.2922C46.0337 22.5149 42.1585 35.2097 32.0026 40.6217C21.7799 46.0337 9.08512 42.1584 3.67312 32.0026C-1.8057 21.7799 2.06956 9.0851 12.2922 3.67309C22.5149 -1.73891 35.2097 2.06954 40.6217 12.2922Z" fill="currentColor"/>
<path d="M32.537 41.6907C21.7798 47.4367 8.35006 43.361 2.60399 32.537C-3.14209 21.7798 0.933617 8.35006 11.7576 2.60399C22.5148 -3.14209 35.9446 0.933617 41.6907 11.7576C47.4367 22.5148 43.2942 35.9446 32.537 41.6907ZM12.8935 4.74206C3.27214 9.81999 -0.402679 21.8467 4.74206 31.4012C9.81999 41.0225 21.7798 44.6973 31.4012 39.5526C41.0225 34.4079 44.6305 22.448 39.5526 12.8935C34.4078 3.27214 22.448 -0.402679 12.8935 4.74206Z" fill="currentColor" opacity="0.5"/>
<path d="M13.3613 32.6038C12.4927 32.8043 11.8914 32.9379 11.2232 33.0716C11.0896 33.0716 10.8892 32.8043 10.6887 32.6707C10.8223 32.537 10.956 32.2698 11.0896 32.2698C11.6909 32.203 12.2255 32.203 12.8268 32.2698C12.9604 32.2698 13.094 32.4034 13.3613 32.6038ZM13.2277 29.3967C13.0272 29.4636 12.8268 29.5972 12.6932 29.5972C12.025 29.5304 11.3569 29.4636 10.7555 29.3967C10.7555 29.3967 10.6887 28.9958 10.7555 28.929C10.8223 28.7954 11.0896 28.7954 11.2232 28.7954C11.8246 28.929 12.4259 29.0627 13.0272 29.1963C13.1609 29.2631 13.1609 29.3299 13.2277 29.3967ZM12.8936 30.4658V31.4012C11.8914 31.4012 10.8223 31.4012 9.75331 31.4012C9.61968 31.4012 9.48605 31.0671 9.35242 30.9335C9.55286 30.7998 9.75331 30.5326 9.88694 30.5326C10.8892 30.399 11.8246 30.4658 12.8936 30.4658ZM28.7955 20.7776C29.1296 20.9781 29.3301 21.0449 29.5973 21.2453C28.8623 21.9803 27.6597 21.9803 26.9247 21.2453C27.192 21.1117 27.4592 20.9781 27.7265 20.7776C27.5929 19.4413 27.4592 18.0382 27.3924 16.7019C27.3924 16.3678 27.5929 15.9001 27.8601 15.6997C28.0606 15.5661 28.5951 15.5661 28.7955 15.7665C28.996 15.967 29.1296 16.3678 29.1296 16.7019C29.0628 18.0382 28.9292 19.3745 28.7955 20.7776ZM23.5172 26.9246C23.0495 26.8578 22.6486 26.8578 22.3145 26.7241C22.1809 26.6573 21.9804 26.5237 21.9136 26.3901C21.3791 24.252 21.4459 21.4458 23.584 19.7754C24.1185 19.3745 24.3858 19.3745 25.0539 19.7754C23.1163 21.8467 23.3835 24.3856 23.5172 26.9246ZM32.604 28.2609C33.3389 25.2542 33.6062 22.3812 31.5349 19.7754C32.0695 19.3077 32.5372 19.4413 32.9381 19.8422C34.0739 20.7776 34.6752 21.9803 34.8757 23.3834C35.0093 24.987 34.8757 26.5237 33.8735 27.86C33.5394 28.3945 33.1385 28.595 32.604 28.2609ZM26.9247 19.7086C26.7911 19.9758 26.7911 20.2431 26.5906 20.4436C25.9225 21.1117 25.9893 21.6462 26.7243 22.2476C26.8579 22.3812 27.0583 22.6484 27.0583 22.8489C27.0583 24.3856 27.0583 25.9224 27.0583 27.5259C26.3234 27.3923 25.5884 27.3255 24.7866 27.1918C24.653 27.1918 24.4526 26.9914 24.4526 26.8578C24.1853 24.5861 24.0517 22.3812 25.7221 20.5104C25.9893 20.1763 26.3902 19.909 26.6575 19.6418C26.7243 19.575 26.7911 19.6418 26.9247 19.7086ZM27.9269 22.7153C28.5951 22.5816 29.1964 22.5148 29.7309 22.2476C30.5995 21.8467 30.7332 21.1117 29.9982 20.4436C29.7978 20.2431 29.7978 19.909 29.7978 19.6418C30.8 20.1095 31.4681 20.8444 31.8022 21.7798C32.5372 23.7175 32.4704 25.7219 31.869 27.6596C31.7354 28.0604 31.6018 28.1941 31.1341 28.1273C30.3323 27.9268 29.5305 27.86 28.7287 27.7932C28.261 27.7264 27.9938 27.5259 27.9938 27.0582C27.9269 25.5215 27.9269 24.1184 27.9269 22.7153ZM16.1675 26.3901C16.1007 26.3901 15.9003 26.4569 15.633 26.5905C15.2989 25.7219 15.0317 24.8533 14.6976 23.9847C14.6308 23.7843 14.4303 23.5838 14.2967 23.517C12.6263 22.9825 12.2255 22.448 12.6263 20.7776C11.4237 19.7086 11.29 19.2409 12.025 17.8378C11.5573 17.3033 10.956 16.9024 10.6219 16.3678C9.82012 15.0315 10.4883 13.2944 11.9582 12.6262C12.1586 12.5594 12.4259 12.4258 12.4259 12.2253C12.76 11.0895 13.4281 10.6218 14.6308 10.7554C15.0317 9.88681 15.633 9.28547 16.6352 9.4191C17.6375 9.55273 18.1052 10.2209 18.2388 11.2231H19.3746C18.5729 11.624 18.2388 12.6262 17.2366 12.7598C16.8357 12.8267 16.368 13.1607 16.1675 13.4948C15.7666 14.2298 15.0985 14.6975 14.4972 15.232C12.8936 16.5683 12.8936 18.9068 14.4303 20.3767C14.6976 20.644 14.8312 20.8444 14.6976 21.2453C14.4303 22.1139 14.7644 22.8489 15.2321 23.517C15.3658 23.7175 15.4326 23.9847 15.4994 24.252C15.7666 24.8533 15.9671 25.5883 16.1675 26.3901ZM22.7822 16.301C22.5818 16.1006 22.4481 15.9001 22.1809 15.6329C21.5127 16.5683 20.9114 17.4369 20.31 18.3055C19.7755 17.2364 19.1742 16.1674 18.5729 14.9647C18.3056 15.0984 18.1052 15.232 17.8379 15.3656C18.3056 16.2342 18.7733 17.1028 19.241 18.0382C18.2388 17.9714 17.3702 17.8378 16.368 17.771C16.4348 18.1718 16.4348 18.3723 16.5016 18.6395C17.6375 18.7064 18.9069 18.5727 19.7087 19.4413C20.2432 20.0427 20.4437 21.0449 20.7778 21.9135C19.7087 21.6462 18.7733 21.4458 17.7711 21.2453C17.7711 21.6462 17.7711 21.8467 17.7043 22.0471C18.5729 22.3144 19.4415 22.5148 20.2432 22.7821C20.6441 22.9157 20.7778 23.183 20.7778 23.6507C20.7109 24.5861 20.7778 25.5215 20.7778 26.5905C19.7087 26.3901 18.5729 26.3233 17.437 25.9892C16.4348 25.7219 16.1675 24.7865 16.5684 23.4502C15.2989 22.3144 15.2321 21.8467 16.0339 20.3767C15.8335 20.2431 15.6998 20.1763 15.4994 20.0427C14.6308 19.4413 14.1631 18.6395 14.2299 17.5705C14.2967 16.5015 14.898 15.8333 15.8335 15.3656C16.1007 15.232 16.368 14.9647 16.5016 14.6975C16.8357 13.8957 17.3702 13.4948 18.2388 13.428C18.4392 13.428 18.7065 13.2944 18.7733 13.1607C19.241 12.4258 19.8423 12.0249 20.7109 12.1585C21.5795 12.2921 22.0472 12.8935 22.1809 13.7621C22.1809 13.8289 22.2477 13.8957 22.3145 14.0293C23.3167 13.8289 24.1853 13.9625 24.7198 14.9647C25.1207 15.8333 24.7866 16.5683 24.1853 17.1696C24.4526 17.6373 24.7198 18.105 25.0539 18.7064C23.1831 18.7064 22.4481 20.0427 21.5795 21.2453C20.5105 19.6418 21.045 18.3055 22.7822 16.301ZM17.9715 26.9246C19.4415 27.125 21.1118 27.3923 22.7822 27.6596C26.3234 28.1941 29.8646 28.7286 33.4058 29.3299C34.3412 29.4636 34.9425 30.1317 34.9425 30.9335C34.9425 31.7353 34.3412 32.4034 33.4058 32.537C28.3946 33.3388 23.3167 34.1406 18.3056 34.8756C16.1007 35.2096 14.0295 33.4724 13.829 31.1339C13.5618 28.929 15.4326 26.9246 17.9715 26.9246ZM17.3702 33.0716H18.1052V28.7954H17.3702V33.0716ZM21.6463 28.7954H20.9114V33.0716H21.6463V28.7954ZM25.1875 28.7954H24.3858V33.0716H25.1875V28.7954ZM28.6619 32.203V29.5972C28.3946 29.5972 28.1274 29.5972 27.9269 29.664V32.203H28.6619ZM32.2031 30.0649H31.4013V31.7353H32.1363V30.0649H32.2031Z" fill="#1F3773"/>
</svg>

<svg id="weight" viewBox="0 0 46 45" fill="none" xmlns="http://www.w3.org/2000/svg">
<path d="M41.6717 12.4879C47.1973 22.8733 43.2407 35.7703 32.8717 41.2685C22.4345 46.7666 9.47323 42.8297 3.94764 32.5121C-1.57795 22.1267 2.37865 9.22971 12.7476 3.73153C23.1849 -1.83452 36.1461 2.10245 41.6717 12.4879Z" fill="currentColor"/>
<path d="M33.4175 42.3545C22.4345 48.1921 8.72291 44.0515 2.85623 33.0551C-3.01044 22.1266 1.21902 8.48302 12.202 2.64545C23.1849 -3.19212 36.8966 0.948483 42.7632 11.9448C48.6299 22.8733 44.4687 36.5169 33.4175 42.3545ZM13.3617 4.81757C3.53841 10.0442 -0.145321 22.1945 5.03918 31.9012C10.2919 41.6757 22.5028 45.3412 32.2578 40.1824C42.0811 34.9557 45.7648 22.8054 40.5803 13.0988C35.3958 3.32424 23.1849 -0.409091 13.3617 4.81757Z" fill="currentColor" opacity="0.5"/>
<path d="M22.7758 17.7145C23.0487 17.7145 23.2533 17.6466 23.3897 17.5109C23.458 17.443 23.5944 17.3751 23.6626 17.2394C24.3448 16.4927 26.1184 14.5921 25.8456 14.3885C25.6409 14.1169 22.9804 15.3388 22.3665 15.6781C22.2983 15.6781 22.2983 15.746 22.23 15.746C21.889 15.9497 21.6843 16.2891 21.6843 16.6963C21.6843 17.2394 22.1618 17.7145 22.7758 17.7145ZM31.8487 14.66H29.2564C28.4378 11.8769 25.8456 9.84058 22.844 9.84058C19.7742 9.84058 17.2502 11.8769 16.4316 14.66H13.8393C12.475 14.66 11.3153 15.8139 11.3153 17.1715L12.6114 32.5799C12.6114 33.9375 13.7711 35.0915 15.1355 35.0915H30.5525C31.9169 35.0915 33.0766 33.9375 33.0766 32.5799L34.3727 17.1715C34.3727 15.8139 33.213 14.66 31.8487 14.66ZM22.844 11.6733C25.5045 11.6733 27.6874 13.8454 27.6874 16.4927C27.6874 19.14 25.5045 21.3121 22.844 21.3121C20.1835 21.3121 18.0006 19.14 18.0006 16.4927C17.9324 13.8454 20.1153 11.6733 22.844 11.6733Z" fill="#1F3773"/>
</svg>

<svg id="zink" viewBox="0 0 46 45" fill="none" xmlns="http://www.w3.org/2000/svg">
<path d="M41.6717 12.4879C47.1973 22.8733 43.2407 35.7703 32.8717 41.2685C22.4345 46.7666 9.47323 42.8297 3.94764 32.5121C-1.57795 22.1267 2.37865 9.22971 12.7476 3.73153C23.1849 -1.83452 36.1461 2.10245 41.6717 12.4879Z" fill="currentColor"/>
<path d="M33.4175 42.3545C22.4345 48.1921 8.72291 44.0515 2.85623 33.0551C-3.01044 22.1266 1.21902 8.48302 12.202 2.64545C23.1849 -3.19212 36.8966 0.948483 42.7632 11.9448C48.6299 22.8733 44.4687 36.5169 33.4175 42.3545ZM13.3617 4.81757C3.53841 10.0442 -0.145321 22.1945 5.03918 31.9012C10.2919 41.6757 22.5028 45.3412 32.2578 40.1824C42.0811 34.9557 45.7648 22.8054 40.5803 13.0988C35.3958 3.32424 23.1849 -0.409091 13.3617 4.81757Z" fill="currentColor" opacity="0.5"/>
<path d="M22.7758 17.7145C23.0487 17.7145 23.2533 17.6466 23.3897 17.5109C23.458 17.443 23.5944 17.3751 23.6626 17.2394C24.3448 16.4927 26.1184 14.5921 25.8456 14.3885C25.6409 14.1169 22.9804 15.3388 22.3665 15.6781C22.2983 15.6781 22.2983 15.746 22.23 15.746C21.889 15.9497 21.6843 16.2891 21.6843 16.6963C21.6843 17.2394 22.1618 17.7145 22.7758 17.7145ZM31.8487 14.66H29.2564C28.4378 11.8769 25.8456 9.84058 22.844 9.84058C19.7742 9.84058 17.2502 11.8769 16.4316 14.66H13.8393C12.475 14.66 11.3153 15.8139 11.3153 17.1715L12.6114 32.5799C12.6114 33.9375 13.7711 35.0915 15.1355 35.0915H30.5525C31.9169 35.0915 33.0766 33.9375 33.0766 32.5799L34.3727 17.1715C34.3727 15.8139 33.213 14.66 31.8487 14.66ZM22.844 11.6733C25.5045 11.6733 27.6874 13.8454 27.6874 16.4927C27.6874 19.14 25.5045 21.3121 22.844 21.3121C20.1835 21.3121 18.0006 19.14 18.0006 16.4927C17.9324 13.8454 20.1153 11.6733 22.844 11.6733Z" fill="#1F3773"/>
</svg>

</svg>