<svg width="111" height="110" viewBox="0 0 111 110" fill="none" xmlns="http://www.w3.org/2000/svg">
<g clip-path="url(#clip0_55_127)">
<path d="M75.8755 14.2051H78.6537V12.123H75.8755V14.2051ZM82.0871 14.2051H109.895V12.123H82.0871V14.2051Z" fill="#1F3773"/>
<path d="M53.0736 17.4205V23.614C53.2832 23.6403 53.4405 23.6403 53.5453 23.6403C54.3054 23.6403 54.882 23.3768 55.3013 22.876C55.7207 22.3753 55.9304 21.5846 55.9304 20.5041C55.9304 19.4499 55.7207 18.6592 55.3013 18.1585C54.882 17.6577 54.2792 17.4205 53.4667 17.4205H53.0736ZM64.6842 17.3678V23.6403H65.2084C66.0733 23.6403 66.7285 23.5613 67.1479 23.3768C67.5672 23.1923 67.9079 22.876 68.17 22.4016C68.4059 21.9273 68.537 21.3211 68.537 20.5568C68.537 19.4762 68.3011 18.6592 67.8555 18.1321C67.41 17.605 66.6761 17.3414 65.6802 17.3414L64.6842 17.3678ZM64.6842 24.3783V28.3843C64.6842 29.1486 64.7366 29.6493 64.8153 29.8602C64.8939 30.071 65.0511 30.2291 65.2608 30.3346C65.4705 30.4663 65.8636 30.519 66.4402 30.519V30.9144H59.9666V30.519C60.5432 30.519 60.9363 30.4663 61.146 30.3346C61.3557 30.2028 61.5129 30.0446 61.5915 29.8602C61.6702 29.6757 61.7226 29.1749 61.7226 28.4106V19.1072C61.7226 18.3429 61.6702 17.8422 61.5915 17.6314C61.5129 17.4205 61.3557 17.2624 61.146 17.157C60.9363 17.0252 60.5432 16.9725 59.9666 16.9725V16.5771H65.8374C67.3576 16.5771 68.4846 16.7089 69.1922 16.9461C69.8998 17.1833 70.4764 17.6314 70.922 18.2639C71.3676 18.8964 71.6034 19.6607 71.6034 20.5304C71.6034 21.5846 71.2627 22.4544 70.6075 23.1396C70.1881 23.5876 69.5853 23.9039 68.7991 24.1147L71.8393 28.9641C72.2325 29.5966 72.5208 29.9919 72.678 30.1501C72.9401 30.3609 73.2284 30.4927 73.5691 30.519V30.9144H69.5853L65.4967 24.3783H64.6842ZM80.4097 30.519V30.9144H73.7788V30.519H74.1982C74.5651 30.519 74.8534 30.44 75.0893 30.3082C75.2465 30.2028 75.3776 30.0446 75.4562 29.8075C75.5348 29.6493 75.561 29.2013 75.561 28.4633V19.0282C75.561 18.2902 75.5348 17.8422 75.4562 17.6577C75.3776 17.4732 75.2465 17.3151 75.0368 17.1833C74.8272 17.0515 74.5389 16.9725 74.1982 16.9725H73.7788V16.5771H80.4097V16.9725H79.9904C79.6234 16.9725 79.3351 17.0515 79.0993 17.1833C78.942 17.2887 78.811 17.4469 78.7061 17.6841C78.6275 17.8422 78.6013 18.2902 78.6013 19.0282V28.4633C78.6013 29.2013 78.6275 29.6493 78.7061 29.8338C78.7847 30.0183 78.9158 30.1764 79.1255 30.3082C79.3351 30.44 79.6234 30.519 79.9642 30.519H80.4097ZM89.9499 26.0387L93.3833 16.5771H98.5465V16.9725H98.1271C97.7602 16.9725 97.4457 17.0515 97.236 17.1833C97.0788 17.2887 96.9477 17.4469 96.8691 17.6841C96.7905 17.8422 96.7642 18.2902 96.7642 19.0018V28.437C96.7642 29.1749 96.7905 29.623 96.8691 29.8075C96.9477 29.9919 97.0788 30.1501 97.2884 30.2818C97.4981 30.4136 97.7864 30.4927 98.1271 30.4927H98.5465V30.888H91.9418V30.4927H92.3611C92.728 30.4927 93.0425 30.4136 93.2522 30.2818C93.4095 30.1764 93.5405 30.0183 93.6191 29.7811C93.6978 29.623 93.724 29.1749 93.724 28.437V17.8422L88.8753 30.9144H88.6394L83.7121 17.9476V28.0417C83.7121 28.7532 83.7383 29.1749 83.7645 29.3331C83.8431 29.6757 84.0266 29.9656 84.2887 30.2028C84.5508 30.4136 84.9963 30.5454 85.5729 30.5454V30.9407H81.2484V30.5454H81.3795C81.6678 30.5454 81.9299 30.4927 82.1657 30.3873C82.4016 30.2818 82.5851 30.1237 82.7161 29.9392C82.8472 29.7547 82.9258 29.4912 83.0044 29.1749C83.0044 29.0959 83.0306 28.7269 83.0306 28.0944V19.0282C83.0306 18.2902 83.0044 17.8422 82.9258 17.6577C82.8472 17.4732 82.7161 17.3151 82.5065 17.1833C82.2968 17.0515 82.0085 16.9725 81.6678 16.9725H81.2746V16.5771H86.4378L89.9499 26.0387ZM104.103 17.4205V23.245H104.365C105.177 23.245 105.754 22.9551 106.121 22.4016C106.488 21.8218 106.724 20.9785 106.802 19.8715H107.169V27.3828H106.802C106.724 26.5658 106.566 25.9069 106.331 25.3798C106.095 24.8527 105.806 24.5101 105.492 24.3256C105.177 24.1411 104.706 24.062 104.103 24.062V28.0944C104.103 28.885 104.129 29.3594 104.181 29.5439C104.234 29.7284 104.339 29.8602 104.522 29.9656C104.679 30.071 104.942 30.1237 105.308 30.1237H106.069C107.248 30.1237 108.191 29.8075 108.899 29.2013C109.607 28.5688 110.131 27.6463 110.445 26.3813H110.786L110.21 30.9407H99.2803V30.5454H99.6997C100.067 30.5454 100.355 30.4663 100.591 30.3346C100.748 30.2291 100.879 30.071 100.958 29.8338C101.036 29.6757 101.063 29.2276 101.063 28.4897V19.0282C101.063 18.3693 101.036 17.974 101.01 17.8422C100.958 17.605 100.827 17.3942 100.669 17.2624C100.434 17.0779 100.119 16.9725 99.6997 16.9725H99.2803V16.5771H109.869V20.8203H109.502C109.318 19.7925 109.056 19.0545 108.742 18.5801C108.427 18.1321 107.956 17.7895 107.353 17.5786C107.012 17.4469 106.357 17.3942 105.387 17.3942L104.103 17.4205ZM53.0736 24.431V28.4106C53.0736 29.1749 53.126 29.6757 53.2046 29.8865C53.2832 30.0974 53.4405 30.2555 53.6502 30.3609C53.8598 30.4927 54.253 30.5454 54.8296 30.5454V30.9407H48.4083V30.5454C48.9849 30.5454 49.3781 30.4927 49.5877 30.3609C49.7974 30.2291 49.9547 30.071 50.0333 29.8865C50.1119 29.702 50.1643 29.2013 50.1643 28.437V19.1072C50.1643 18.3429 50.1119 17.8422 50.0333 17.6314C49.9547 17.4205 49.7974 17.2624 49.5877 17.157C49.3781 17.0252 48.9849 16.9725 48.4083 16.9725V16.5771H53.9385C55.7469 16.5771 57.0574 16.9461 57.8436 17.6841C58.6299 18.422 59.023 19.3444 59.023 20.425C59.023 21.3474 58.7609 22.1381 58.263 22.8233C57.765 23.4822 57.0574 23.9302 56.14 24.1674C55.5372 24.3519 54.5151 24.431 53.0736 24.431Z" fill="#1C1C1A"/>
<path d="M34.2816 10.911L34.2029 10.463L33.9933 10.2522C33.9933 10.2522 33.5477 10.463 33.2856 10.4894C33.0235 10.5157 32.4207 10.4366 32.3421 10.4366C32.2897 10.4103 32.1062 9.56693 32.3421 9.35609C32.578 9.14525 32.8401 8.51272 33.0759 8.35459C33.3118 8.1701 33.1546 7.69571 33.2594 7.4058C33.3642 7.1159 34.1767 6.14075 34.1243 5.82449C34.0719 5.50823 34.0719 5.03384 34.1767 4.79664C34.3078 4.55944 34.9368 3.71608 35.094 3.50524C35.2513 3.29439 35.4348 3.13626 35.3823 2.31925C35.3299 1.50224 35.3823 0.606165 35.3823 0.421679C35.3823 0.237193 35.8017 0.105417 35.8803 0.0263512C35.9589 -0.0527144 36.3259 0.0263512 36.3259 0.0263512L36.6142 -3.9991e-06H36.9811C36.9811 -3.9991e-06 37.4267 0.263548 37.5053 0.500745C37.6101 0.737941 37.9771 1.13327 37.9771 1.13327L38.2391 1.02785C38.2391 1.02785 38.5012 0.658876 38.5537 0.553455C38.6061 0.448034 38.9992 0.210837 38.9992 0.210837C38.9992 0.210837 39.3661 0.158127 39.471 0.342613C39.602 0.500745 40.0214 0.896072 40.0214 0.896072C40.0214 0.896072 40.1524 1.63402 40.231 2.13477C40.2835 2.63551 40.3621 3.13626 40.4407 3.3471C40.4931 3.55795 41.1484 4.69122 41.1484 4.69122L41.4891 5.50823L41.6201 5.90356L41.9608 6.29889L42.1181 6.50973L42.2491 6.69421L42.4326 6.85234V6.98412L42.354 7.24767C42.354 7.24767 42.5637 7.30038 42.5637 7.4058C42.5637 7.53758 42.7733 7.69571 42.852 7.93291C42.9306 8.19646 42.983 8.19646 43.0092 8.35459C43.0354 8.51272 43.3499 8.6445 43.3499 8.6445C43.3499 8.6445 43.6907 8.88169 43.7169 9.01347C43.7693 9.14525 43.5334 8.98711 43.5334 8.98711L43.5072 9.14525L43.5334 9.27702L43.6644 9.46151L43.7169 9.6987C43.7169 9.6987 43.7693 9.83048 43.7169 9.9359C43.6644 10.0413 43.612 10.094 43.612 10.1731C43.612 10.2522 43.612 10.4894 43.612 10.5157C43.612 10.5684 43.612 10.7529 43.6382 10.832C43.6382 10.911 43.6382 10.9901 43.6382 11.1219C43.6382 11.2537 43.6907 11.2537 43.6907 11.4118C43.6907 11.5963 43.7431 11.6226 43.7431 11.7017C43.7431 11.7808 43.7955 11.7544 43.7431 11.8598C43.6907 11.9916 43.5596 12.1761 43.5596 12.1761C43.5596 12.1761 43.481 12.3869 43.481 12.4924C43.481 12.5714 43.481 12.7823 43.481 12.835C43.481 12.8877 43.481 13.0722 43.481 13.0722C43.481 13.0722 43.612 13.2039 43.6382 13.3094C43.6644 13.3884 43.7169 13.4411 43.7169 13.4411C43.7169 13.4411 43.8479 13.4148 43.9003 13.4411C43.9527 13.4675 44.1886 13.652 44.1886 13.652L44.2673 13.8101C44.2673 13.8101 44.241 13.8628 44.1362 13.9419C44.0576 13.9946 44.0576 13.9946 44.0576 13.9946L43.979 14.1264C43.979 14.1264 44.11 14.2845 44.11 14.3372C44.11 14.3899 44.1362 14.469 44.11 14.5217C44.0838 14.5744 43.7431 14.7325 43.7431 14.7325L43.6907 14.7853C43.6907 14.7853 43.6907 14.8643 43.6644 14.8643C43.6382 14.8907 43.5858 14.8643 43.5858 14.8643C43.5858 14.8643 43.5596 14.917 43.5596 14.9434C43.5596 14.9697 43.7693 15.0752 43.7955 15.0752C43.8217 15.0752 43.979 15.1542 43.979 15.1806C43.979 15.2069 44.1362 15.3124 44.1362 15.3124L44.1886 15.3914C44.1886 15.3914 43.9527 15.4441 43.9265 15.4441C43.9003 15.4441 43.8217 15.4968 43.7955 15.5232C43.7693 15.5496 43.6644 15.655 43.6644 15.655C43.6644 15.655 43.5596 15.8131 43.5334 15.8658C43.5072 15.8922 43.481 15.9976 43.481 16.0239C43.481 16.0503 43.481 16.103 43.5072 16.1821C43.5334 16.2611 43.5858 16.2875 43.5858 16.3929C43.5858 16.4983 43.5858 16.5247 43.5858 16.5774C43.5858 16.6301 43.7431 16.7619 43.7431 16.7619L43.8479 16.8937C43.8479 16.8937 43.9003 16.9464 43.7955 16.9464C43.7169 16.9464 43.5858 16.9464 43.5858 16.9464C43.5858 16.9464 43.4548 16.8937 43.4024 16.9464C43.3499 16.9991 43.2713 17.0254 43.2189 17.1045C43.1665 17.1836 43.1403 17.3944 43.1403 17.3944C43.1403 17.3944 43.114 17.5262 43.114 17.6053C43.114 17.658 43.1403 17.7107 43.1927 17.8688C43.2451 18.0269 43.3237 18.1851 43.3237 18.2641C43.3237 18.3432 43.3237 18.4223 43.3237 18.475C43.3237 18.5277 43.4024 18.7122 43.4024 18.7122H43.5334L43.5596 18.9757L43.4024 19.1075L43.1927 19.2129L43.4024 19.3447L43.6907 19.6873C43.6907 19.6873 43.7431 19.8191 43.6907 19.8718C43.6382 19.9245 43.4548 20.0299 43.4548 20.0299C43.4548 20.0299 43.4024 20.1354 43.4024 20.3198C43.4024 20.5043 43.4024 20.6098 43.4024 20.7152C43.4024 20.8469 43.4024 20.8469 43.4024 20.9524C43.4024 21.0841 43.4548 21.0841 43.4024 21.2159C43.3499 21.3477 43.3499 21.3477 43.2713 21.4531C43.1927 21.5585 43.1403 21.5849 43.0616 21.664C42.983 21.7167 43.0616 21.6376 42.983 21.7167C42.9044 21.7957 43.0092 21.9539 43.0092 21.9539L43.1403 22.0329C43.1403 22.0329 43.1927 22.112 43.1403 22.1647C43.0878 22.2174 43.0092 22.2965 42.9306 22.3755C42.852 22.4546 42.7995 22.4283 42.7995 22.56C42.7733 22.6918 42.7733 22.7445 42.7733 22.8236C42.7733 22.9027 42.8257 22.8763 42.7733 23.0081C42.7209 23.1399 42.7209 23.2453 42.6423 23.377C42.5637 23.5088 42.4326 23.5879 42.354 23.667C42.2754 23.746 42.2229 23.7197 42.1443 23.9569C42.0657 24.1941 41.9346 24.8266 41.8822 25.0111C41.8298 25.1956 41.8298 25.8808 41.8298 26.0653C41.8298 26.2498 41.8298 27.2513 41.8036 27.3303C41.7774 27.4094 41.5415 34.3144 41.6463 34.8943C41.7774 35.4741 42.2491 36.3438 42.2491 36.3438L42.7209 36.7128C42.7209 36.7128 43.6644 37.3453 43.7169 37.7406C43.7431 38.136 43.3237 38.1887 43.3237 38.1887H42.4064C42.4064 38.1887 41.8822 37.9778 41.5939 37.9778C41.3318 37.9778 41.0173 38.0042 40.9387 37.9778C40.8601 37.9515 40.7552 37.8197 40.598 37.7143C40.4407 37.5825 40.3359 37.3717 40.3359 37.3717C40.3359 37.3717 40.1786 37.2135 40.1 37.2135C40.0214 37.2135 39.9165 37.2135 39.7331 37.2135C39.5496 37.2135 39.4448 36.7655 39.4448 36.6864C39.4448 36.6073 39.3923 35.9748 39.3923 35.9748L39.1565 35.6059L38.9992 35.4214L38.9206 35.026V34.8152L38.7109 34.5253L38.5537 34.2881L38.7633 34.0509V33.8664L38.5274 33.4974L38.3178 33.2339L38.1867 32.9967V32.6541L38.0033 32.2587V31.8634L37.846 31.5208C37.846 31.5208 37.6625 31.31 37.6101 31.2309C37.5577 31.1518 37.4005 30.8883 37.4005 30.8883C37.4005 30.8883 37.4005 30.7038 37.4005 30.6247C37.4005 30.5457 37.4004 30.4139 37.3218 30.2821C37.2432 30.1503 37.0335 29.8868 37.0335 29.8868C37.0335 29.8868 36.9811 29.6496 36.8763 29.5178C36.7976 29.386 37.0597 29.1488 36.8763 29.0698C36.6928 28.9907 36.6928 28.8853 36.6404 28.8062C36.588 28.7271 36.4569 28.4636 36.4569 28.4636C36.4569 28.4636 36.3783 28.2264 36.3259 28.121C36.2997 28.0419 35.9065 27.6729 35.9065 27.6729L35.6969 27.8838C35.6969 27.8838 35.461 28.121 35.1727 28.1473C34.8844 28.1737 34.465 28.1737 34.2554 28.1737C34.0457 28.1737 33.7836 28.1473 33.6263 28.1473C33.4691 28.1473 33.207 27.9628 33.0497 28.2264C32.8925 28.49 32.6042 28.8326 32.5255 28.8326C32.4469 28.8326 32.0538 28.8326 32.0538 28.8326L31.7655 28.7799L31.4772 28.7535C31.4772 28.7535 31.5558 28.9907 31.4772 29.1225C31.3986 29.2543 31.451 29.3333 31.3199 29.4914C31.1889 29.6496 30.9268 29.6232 30.9006 29.7023C30.8744 29.7814 30.7695 29.9922 30.9006 30.124C31.0316 30.2558 31.0316 30.2821 31.0316 30.4929C31.0316 30.7038 31.084 31.0991 31.084 31.0991C31.084 31.0991 30.8744 31.2309 30.8482 31.2572C30.8219 31.2836 30.6647 31.2309 30.6647 31.4154C30.6647 31.5999 30.6123 31.8634 30.6647 31.9425C30.7171 32.0215 30.8744 32.1533 30.6385 32.2324C30.4026 32.3115 30.2453 32.3905 30.2453 32.6277C30.2453 32.8649 30.2453 33.2602 30.2453 33.2602C30.2453 33.2602 30.1667 33.4184 30.0881 33.5238C30.0357 33.6556 29.8784 33.7346 29.8522 33.9455C29.826 34.1563 29.7736 34.2881 29.695 34.4726C29.6425 34.6834 29.5377 34.6307 29.4591 34.8152C29.3804 34.9997 29.2756 35.1051 29.0659 35.3159C28.8563 35.5268 28.8825 35.5268 28.4893 35.7903C28.0962 36.0539 27.8603 36.2911 27.4672 36.6601C27.074 37.029 26.3926 37.5298 26.2091 37.7143C26.0257 37.8988 25.7898 38.6367 25.7898 38.8739C25.7898 39.1111 25.1346 40.0335 25.4491 40.587C25.7898 41.1141 25.7898 41.7203 26.0257 42.1683C26.2616 42.6163 26.6285 42.959 26.7071 42.959C26.7857 42.959 27.2575 42.9326 27.3361 43.1434C27.3885 43.3543 27.7817 43.6705 27.7817 43.6705C27.7817 43.6705 28.3583 44.3558 28.1224 44.4085C27.8865 44.4612 27.6244 44.3821 27.5196 44.4085C27.4148 44.4348 27.4934 44.593 27.2575 44.593C27.0216 44.6193 26.5761 44.5666 26.3664 44.593C26.1567 44.6193 26.7857 44.593 26.6809 44.593C26.5761 44.593 26.445 44.593 26.314 44.593C26.1829 44.593 25.9733 44.6193 25.8946 44.593C25.816 44.5666 25.5539 44.4612 25.5015 44.4612C25.4491 44.4612 25.2656 44.3294 25.2394 44.1976C25.2132 44.0659 25.1608 43.8287 25.0821 43.776C25.0035 43.7233 24.9249 43.4861 24.7938 43.407C24.6628 43.3279 24.3221 42.6163 24.3221 42.6163L24.1648 42.4318C24.1648 42.4318 23.6931 41.6148 23.6668 41.5358C23.6406 41.4831 23.6144 41.0087 23.5358 40.9032C23.4572 40.7715 23.3523 40.4552 23.2213 40.218C23.0902 40.0072 22.933 39.6909 22.8806 39.5855C22.8282 39.4801 22.6447 39.0584 22.6447 38.953C22.6447 38.8212 22.6185 38.5313 22.7233 38.3995C22.8282 38.2677 23.2737 37.6352 23.3523 37.5561C23.4048 37.4771 24.2172 36.8182 24.2172 36.8182V36.3174C24.2172 36.3174 24.4269 36.0012 24.4531 35.8431C24.5055 35.6849 24.5055 35.4741 24.5055 35.2105C24.5055 34.947 24.5842 34.6044 24.5842 34.6044C24.5842 34.6044 24.6366 34.3935 24.6104 34.4989C24.5842 34.6044 24.2172 34.8152 24.06 35.0524C23.9027 35.2896 23.8503 35.4477 23.7717 35.5795C23.6931 35.7113 23.6406 35.8694 23.6144 35.9748C23.562 36.1066 23.4834 36.1066 23.4048 36.3702C23.3261 36.6337 23.1689 36.7391 23.064 37.0817C22.9592 37.4507 22.933 37.6088 22.8019 37.7406C22.6709 37.8724 22.3302 37.8724 22.2778 38.0305C22.2253 38.1887 22.1205 38.3204 22.0157 38.4786C21.9108 38.6367 21.8846 38.7158 21.806 38.8475C21.7536 38.9793 21.7536 38.9793 21.5963 39.2956C21.4653 39.5855 21.2818 39.8227 21.1508 40.0335C21.0197 40.2444 20.9935 40.218 20.9673 40.4816C20.9411 40.7715 20.8887 40.7715 20.8625 40.9823C20.8363 41.1932 20.6266 42.0102 20.6266 42.0102C20.6266 42.0102 20.6004 42.1419 20.6266 42.2737C20.6528 42.4055 20.7314 42.59 20.7314 42.59C20.7314 42.59 20.81 42.6427 20.8625 42.669C20.8887 42.7218 20.9673 42.959 20.9673 43.0644C20.9673 43.1698 20.9935 43.3543 20.9935 43.4597C20.9935 43.5915 20.9935 43.6442 20.9935 43.7233C20.9935 43.8023 20.9673 43.9868 20.9149 44.0132C20.8625 44.0395 20.81 44.1449 20.6266 44.1713C20.4431 44.1976 20.3645 44.224 20.2334 44.224C20.1024 44.224 19.8927 44.1713 19.8403 44.1449C19.7879 44.0922 19.7617 44.0659 19.552 44.0659C19.3423 44.0659 19.0802 44.0659 19.0802 44.0659L18.7919 44.0922L18.6347 44.0659C18.6347 44.0659 18.5823 44.1186 18.5561 43.9077C18.5299 43.6969 18.6609 43.4861 18.5561 43.3016C18.4512 43.1171 18.3988 42.8799 18.425 42.669C18.4774 42.4582 18.6609 42.1947 18.7133 42.0629C18.7657 41.9311 18.8968 41.6148 18.8968 41.4831C18.923 41.3513 19.0278 41.0087 19.0278 40.9296C19.054 40.8505 19.1065 40.5079 19.1065 40.4025C19.1065 40.2971 19.1851 40.0072 19.2113 39.8227C19.2375 39.6382 19.3685 39.4537 19.4472 39.2165C19.4996 38.9793 19.5258 38.7421 19.5258 38.5576C19.552 38.3731 19.6044 38.136 19.6568 38.0569C19.6831 37.9778 19.7879 37.8988 19.7879 37.846C19.8141 37.7933 19.8665 37.3453 19.8665 37.3453C19.8141 37.2135 19.7355 36.7391 19.7355 36.7391L19.6044 36.3174C19.6044 36.3174 19.4734 36.6337 19.4734 36.2647C19.4472 35.8958 19.6831 35.4214 19.6831 35.3423C19.6831 35.2632 19.7355 34.947 19.7355 34.8416C19.7355 34.7361 19.6831 34.578 19.6831 34.578C19.6831 34.578 19.6568 34.2617 19.6568 34.13C19.6568 33.9982 19.7355 33.7346 19.7355 33.6292C19.7355 33.5238 19.7879 33.2602 19.7879 33.1812C19.7879 33.1021 19.7617 32.9703 19.7355 32.8386C19.7093 32.7068 19.6306 32.3642 19.6568 32.127C19.6831 31.9161 19.8665 31.5472 19.8665 31.389C19.8665 31.2309 19.8665 30.9146 19.8927 30.7038C19.9189 30.4929 19.9451 30.3085 19.9451 30.1503C19.9451 30.0186 19.9451 29.5969 19.9451 29.5969L19.8141 29.6496L19.7879 29.3333L19.9189 29.0961C19.9189 29.0961 20.05 28.8326 19.9189 28.9116C19.7879 28.9907 19.6831 28.9907 19.6831 28.9907C19.6831 28.9907 19.6831 28.7008 19.6831 28.6481C19.6831 28.5954 19.7355 28.2264 19.7355 28.2264C19.7355 28.2264 19.7879 27.9628 19.7879 27.9365C19.8141 27.8838 19.9189 27.7257 19.8403 27.6466C19.7879 27.5675 19.6831 27.2776 19.6831 27.2776L19.8141 27.1985C19.8141 27.1985 19.9714 27.1458 20.0238 27.0668C20.0762 26.9877 20.1548 26.8032 20.1548 26.8032L20.0762 26.566L20.0238 26.2761C20.0238 26.2761 20.1024 26.1443 20.1024 26.0916C20.1024 26.0126 20.1024 25.8544 20.1024 25.8017C20.1024 25.749 19.9451 25.8281 19.9451 25.8281L20.181 25.6963L20.3645 25.3537L20.181 25.1956L19.9451 24.8529C19.9451 24.8529 19.8665 24.7212 20.1548 24.932C20.4431 25.1428 20.3645 25.2219 20.4431 25.1428C20.5217 25.0638 20.679 24.8529 20.6266 24.8002C20.5742 24.7475 20.4693 24.6421 20.4431 24.563C20.4169 24.5103 20.4169 24.5103 20.4169 24.5103C20.4169 24.5103 20.6266 24.6421 20.679 24.5103C20.7314 24.3785 20.7576 24.1413 20.7576 24.1413C20.7576 24.1413 20.81 24.0623 20.8363 23.8778C20.8625 23.6933 20.8887 23.4034 20.8625 23.2716C20.8363 23.1399 20.7838 22.5337 20.7838 22.5337C20.7838 22.5337 20.9673 22.56 21.0721 22.8236C21.177 23.0871 21.3342 23.1926 21.3342 23.1926L21.7012 22.9817C21.7012 22.9817 21.937 22.7972 21.937 22.7445C21.9633 22.6918 22.0943 22.5337 22.0943 22.5337L22.0419 22.2701C22.0419 22.2701 21.9895 22.112 22.0419 22.112C22.0943 22.112 22.4874 22.1384 22.5136 22.1384C22.5661 22.112 22.7757 22.0329 22.7757 22.0329L22.9068 21.743C22.9068 21.743 23.0902 21.5849 23.1427 21.5585C23.1951 21.5322 23.5882 21.2686 23.5882 21.2686C23.5882 21.2686 23.6406 21.0841 23.6668 21.0051C23.6931 20.926 23.9814 20.7942 24.0338 20.7679C24.0862 20.7415 24.6104 20.478 24.6628 20.4516C24.7152 20.4253 25.0035 20.2144 25.0035 20.2144C25.0035 20.2144 24.9511 20.1354 25.0821 20.0299C25.2132 19.9245 25.4753 19.8982 25.5277 19.8982C25.5801 19.8982 25.9733 19.9245 25.9208 19.8718C25.8684 19.8191 25.2918 19.6083 25.3442 19.6083C25.3967 19.6083 25.816 19.5819 25.8422 19.5819C25.8946 19.5819 26.3664 19.4501 26.3664 19.4501L26.2878 19.1602C26.2878 19.1602 26.2353 19.1866 26.3664 19.0284C26.4974 18.8703 26.7857 18.5804 26.8382 18.5804C26.8906 18.5804 27.2313 18.554 27.2313 18.554L27.5196 18.5804H27.9127L28.201 18.3959C28.201 18.3959 28.3583 18.1851 28.3583 18.106C28.3583 18.0269 28.5942 17.8161 28.5942 17.8161L28.9873 17.6316C28.9873 17.6316 29.0659 17.5789 29.0659 17.5262C29.0659 17.4735 28.9611 17.1309 28.9611 17.1309C28.9611 17.1309 28.8563 16.92 28.9873 16.9727C29.1184 17.0254 29.4853 17.1309 29.4853 17.1309C29.4853 17.1309 29.5377 16.8673 29.5377 16.7355C29.5377 16.6038 29.2756 16.3929 29.5639 16.4193C29.8522 16.4456 30.2191 16.4193 30.2191 16.4193C30.2191 16.4193 30.4026 16.1821 30.4026 16.1294C30.4026 16.0767 30.3764 15.5232 30.5599 15.5232C30.7433 15.5496 31.3986 15.5759 31.3986 15.5759L32.0014 15.4441L32.4731 15.286L32.578 15.0225C32.578 15.0225 32.6828 14.7853 32.7352 14.7589C32.7876 14.7062 33.2594 14.6271 33.1021 14.4163C32.9449 14.2054 32.709 14.3636 32.709 14.3636L32.7352 14.2054L32.9973 14.021L33.1808 13.9946C33.1808 13.9946 33.3118 13.8628 33.338 13.8101C33.3642 13.7574 33.5739 13.4939 33.5739 13.4939C33.5739 13.4939 33.8622 13.4675 33.8622 13.3357C33.8622 13.2039 33.7836 12.8613 33.7836 12.8613C33.7836 12.8613 34.2029 12.6241 34.2029 12.4924C34.2029 12.3606 34.0719 12.0443 34.0457 11.9653C34.0195 11.8862 33.9933 11.649 33.9933 11.649C33.9933 11.649 34.0195 11.5963 34.0195 11.4381C34.0195 11.28 34.1767 10.9901 34.1767 10.9901L34.2816 10.911Z" fill="#1F3773"/>
<path d="M93.0163 99.5172V47.7556C93.0163 45.9634 93.0163 45.9634 94.7985 45.9634H96.5808C99.3327 45.9634 101.927 47.7556 101.927 52.4205V94.9577C101.927 99.6226 99.3327 101.415 96.5808 101.415H94.7985C93.0163 101.388 93.0163 101.388 93.0163 99.5172ZM85.8874 37.5298C84.5508 37.5298 84.1052 37.9778 84.1052 39.3219V108.03C84.1052 109.374 84.5508 109.822 85.8874 109.822H96.5808C103.972 109.822 110.839 105.157 110.839 92.7966V54.5552C110.839 42.1947 103.972 37.5298 96.5808 37.5298H85.8874ZM60.3597 109.822H79.1779C80.5145 109.822 80.9601 109.374 80.9601 108.03V103.181C80.9601 101.836 80.5145 101.388 79.1779 101.388H69.3756C67.5148 101.388 67.5148 101.388 67.5148 99.5172V39.3219C67.5148 37.9778 67.0692 37.5298 65.7326 37.5298H60.3859C59.0492 37.5298 58.6037 37.9778 58.6037 39.3219V108.03C58.5775 109.374 59.023 109.822 60.3597 109.822ZM55.8779 108.03V39.3219C55.8779 37.9778 55.4324 37.5298 54.0957 37.5298H48.749C47.4124 37.5298 46.9668 37.9778 46.9668 39.3219V108.03C46.9668 109.374 47.4124 109.822 48.749 109.822H54.0957C55.4324 109.822 55.8779 109.374 55.8779 108.03ZM23.2475 72.5558L28.0962 107.819C28.3059 109.374 28.4893 109.875 29.9308 109.875H33.836C35.2775 109.875 35.4348 109.348 35.6707 107.819L45.6039 39.6118C45.8398 38.1623 45.5253 37.5561 44.2411 37.5561H39.471C38.1867 37.5561 37.8722 37.9778 37.6363 39.6118L32.3945 80.5415C32.3159 81.0686 31.7393 81.0686 31.6869 80.5415L26.7857 45.7526C26.5499 44.0922 26.2353 43.6969 25.0297 43.6969H20.679C19.4996 43.6969 19.1589 44.1186 18.923 45.7526L14.0219 80.5415C13.9432 81.0686 13.3666 81.0686 13.3142 80.5415L8.0724 39.6118C7.83651 37.9515 7.522 37.5561 6.23775 37.5561H1.44148C0.157226 37.5561 -0.157284 38.1887 0.0785987 39.6118L10.0119 107.819C10.2478 109.374 10.405 109.875 11.8465 109.875H14.9654C16.4069 109.875 16.538 109.348 16.8 107.819L22.4612 72.5558C22.5661 71.8179 23.1427 71.8179 23.2475 72.5558Z" fill="#1F3773"/>
</g>
<defs>
<clipPath id="clip0_55_127">
<rect width="110.839" height="109.875" fill="white"/>
</clipPath>
</defs>
</svg>
