<svg width="155" height="81" viewBox="0 0 155 81" fill="none" xmlns="http://www.w3.org/2000/svg">
<g clip-path="url(#clip0_55_134)">
<path d="M82.0623 4.75901H146.492V0H82.0623V4.75901ZM67.6305 4.75901H74.0312V0H67.6305V4.75901Z" fill="#1F3773"/>
<path d="M14.613 28.3732V37.5297C14.613 39.337 14.7338 40.4213 14.9149 40.9032C15.0961 41.3851 15.4584 41.7466 15.9414 41.9875C16.4245 42.2887 17.3303 42.4092 18.6587 42.4092V43.3128H3.8042V42.4092C5.13265 42.4092 6.0988 42.2887 6.58188 41.9875C7.06495 41.6863 7.42726 41.3249 7.60841 40.9032C7.78956 40.4213 7.91033 39.337 7.91033 37.5297V16.0841C7.91033 14.2768 7.78956 13.1925 7.60841 12.7106C7.42726 12.2287 7.06495 11.8672 6.58188 11.6263C6.0988 11.3251 5.19304 11.2046 3.8042 11.2046V10.301H16.6057C20.8326 10.301 23.8518 11.1443 25.6633 12.8311C27.4749 14.5178 28.441 16.6262 28.441 19.1563C28.441 21.325 27.8372 23.1322 26.6899 24.6382C25.4822 26.1443 23.8518 27.2286 21.7987 27.7708C20.3495 28.1924 17.9945 28.3732 14.613 28.3732ZM14.613 12.2287V26.4455C15.0961 26.5057 15.4584 26.5057 15.6999 26.5057C17.4511 26.5057 18.8399 25.9033 19.7457 24.7587C20.7118 23.5539 21.1949 21.7467 21.1949 19.2768C21.1949 16.807 20.7118 15.06 19.7457 13.9154C18.7795 12.7708 17.3907 12.2287 15.4584 12.2287H14.613ZM41.484 28.2527V37.4695C41.484 39.2767 41.6048 40.3611 41.7859 40.843C41.9671 41.3249 42.3294 41.6863 42.8125 41.9273C43.2955 42.2285 44.2013 42.349 45.5901 42.349V43.2526H30.5545V42.349C31.8829 42.349 32.8491 42.2285 33.3321 41.9273C33.8152 41.6261 34.1775 41.2647 34.3587 40.843C34.5398 40.3611 34.6606 39.2767 34.6606 37.4695V16.0841C34.6606 14.2768 34.5398 13.1925 34.3587 12.7106C34.1775 12.2287 33.8152 11.8672 33.3321 11.6263C32.8491 11.3251 31.9433 11.2046 30.5545 11.2046V10.301H44.2013C47.764 10.301 50.3605 10.6022 51.9909 11.1443C53.6213 11.6865 54.9497 12.7106 56.0366 14.2166C57.0632 15.7226 57.6066 17.4094 57.6066 19.4575C57.6066 21.8672 56.8216 23.9154 55.2516 25.4816C54.2855 26.5057 52.8363 27.2286 51.0851 27.7105L58.1501 38.855C59.0559 40.3008 59.7201 41.2044 60.1428 41.5659C60.7466 42.0478 61.4108 42.349 62.1958 42.4092V43.3128H52.8966L43.4163 28.2527H41.484ZM41.484 12.1082V26.5659H42.6917C44.6844 26.5659 46.194 26.3852 47.2205 25.9635C48.1867 25.5418 48.9717 24.819 49.5755 23.7346C50.119 22.6503 50.4209 21.2648 50.4209 19.5178C50.4209 16.9877 49.8774 15.1805 48.8509 13.9756C47.8244 12.7708 46.1336 12.1684 43.7786 12.1684L41.484 12.1082ZM77.9561 42.4092V43.3128H62.6185V42.4092H63.5847C64.4301 42.4092 65.0943 42.2285 65.6377 41.9273C66 41.6863 66.302 41.3249 66.4831 40.7827C66.6643 40.4213 66.7247 39.3972 66.7247 37.7105V16.0238C66.7247 14.3371 66.6643 13.313 66.4831 12.8913C66.302 12.4696 66 12.1082 65.517 11.807C65.0339 11.5058 64.3697 11.3251 63.5847 11.3251H62.6185V10.4214H77.9561V11.3251H76.99C76.1446 11.3251 75.4804 11.5058 74.9369 11.807C74.5746 12.0479 74.2727 12.4094 74.0312 12.9516C73.85 13.313 73.7896 14.3371 73.7896 16.0238V37.7105C73.7896 39.3972 73.85 40.4213 74.0312 40.843C74.2123 41.2647 74.5142 41.6261 74.9973 41.9273C75.4804 42.2285 76.1446 42.4092 76.9296 42.4092H77.9561ZM133.087 12.1684V25.6021H133.691C135.563 25.6021 136.891 24.9394 137.737 23.6141C138.582 22.2889 139.125 20.3612 139.367 17.831H140.212V35.0599H139.367C139.186 33.1924 138.824 31.6262 138.28 30.4213C137.737 29.2165 137.072 28.4334 136.348 28.0117C135.623 27.59 134.536 27.4093 133.147 27.4093V36.6864C133.147 38.4936 133.208 39.6382 133.329 39.9996C133.449 40.4213 133.691 40.7225 134.114 41.0237C134.476 41.2647 135.08 41.3851 135.925 41.3851H137.676C140.394 41.3851 142.628 40.6623 144.258 39.2767C145.889 37.8309 147.096 35.6623 147.821 32.7707H148.606L147.277 43.2526H121.916V42.349H122.882C123.727 42.349 124.392 42.1683 124.935 41.8671C125.297 41.6261 125.599 41.2647 125.781 40.7225C125.962 40.361 126.022 39.337 126.022 37.6502V15.9636C126.022 14.4576 125.962 13.554 125.901 13.1925C125.781 12.6503 125.479 12.1684 125.116 11.8672C124.573 11.3853 123.788 11.2046 122.882 11.2046H121.916V10.2407H146.492V19.9997H145.647C145.224 17.5901 144.62 15.9033 143.896 14.8793C143.111 13.8552 142.084 13.072 140.695 12.5901C139.91 12.2889 138.401 12.1684 136.167 12.1684H133.087ZM100.298 31.9876L108.269 10.2407H120.225V11.1443H119.259C118.414 11.1443 117.689 11.3251 117.206 11.6263C116.844 11.8672 116.542 12.2287 116.361 12.7708C116.179 13.1323 116.119 14.1564 116.119 15.7829V37.5297C116.119 39.2165 116.179 40.2406 116.361 40.6623C116.542 41.0839 116.844 41.4454 117.327 41.7466C117.81 42.0478 118.474 42.2285 119.319 42.2285H120.286V43.1321H104.948V42.2285H105.914C106.759 42.2285 107.484 42.0478 107.967 41.7466C108.329 41.5056 108.631 41.1442 108.813 40.602C108.994 40.2406 109.054 39.2165 109.054 37.5297V13.1323L97.8226 43.1924H97.2791L85.8665 13.3732V36.5659C85.8665 38.1924 85.9269 39.1562 85.9873 39.5779C86.1684 40.361 86.5911 41.0237 87.1949 41.5659C87.7988 42.0478 88.8253 42.349 90.1538 42.349V43.2526H80.13V42.349H80.4319C81.0961 42.349 81.7 42.2285 82.2434 41.9875C82.7869 41.7466 83.2096 41.3851 83.5115 40.9635C83.8134 40.5418 83.9946 39.9394 84.1757 39.2165C84.1757 39.0358 84.2361 38.1924 84.2361 36.7466V15.8431C84.2361 14.1564 84.1757 13.1323 83.9946 12.7106C83.8134 12.2889 83.5115 11.9275 83.0284 11.6263C82.5453 11.3251 81.8811 11.1443 81.0357 11.1443H80.13V10.2407H92.1465L100.298 31.9876ZM78.1977 42.349V43.2526H62.8601V42.349H63.8262C64.6716 42.349 65.3358 42.1683 65.8793 41.8671C66.2416 41.6261 66.5435 41.2647 66.7247 40.7225C66.9058 40.361 66.9662 39.337 66.9662 37.6502V15.9636C66.9662 14.2768 66.9058 13.2528 66.7247 12.8311C66.5435 12.4094 66.2416 12.0479 65.7585 11.7467C65.2754 11.4455 64.6112 11.2648 63.8262 11.2648H62.8601V10.2407H78.1977V11.1443H77.2315C76.3862 11.1443 75.7219 11.3251 75.1785 11.6263C74.8162 11.8672 74.5142 12.2287 74.2727 12.7708C74.0915 13.1323 74.0312 14.1564 74.0312 15.8431V37.5297C74.0312 39.2165 74.0915 40.2406 74.2727 40.6623C74.4538 41.0839 74.7558 41.4454 75.2388 41.7466C75.7219 42.0478 76.3862 42.2285 77.1712 42.2285H78.1977V42.349ZM41.7256 28.1924V37.4093C41.7256 39.2165 41.8463 40.3008 42.0275 40.7827C42.2086 41.2647 42.5709 41.6261 43.054 41.8671C43.5371 42.1683 44.4428 42.2887 45.8317 42.2887V43.1924H30.7356V42.2887C32.0641 42.2887 33.0302 42.1683 33.5133 41.8671C33.9964 41.5659 34.3587 41.2044 34.5398 40.7827C34.721 40.3008 34.8417 39.2165 34.8417 37.4093V16.0238C34.8417 14.2166 34.721 13.1323 34.5398 12.6503C34.3587 12.1684 33.9964 11.807 33.5133 11.566C33.0302 11.2648 32.1244 11.1443 30.7356 11.1443V10.2407H44.3825C47.9451 10.2407 50.5417 10.5419 52.172 11.0841C53.8024 11.6263 55.1309 12.6503 56.2178 14.1564C57.2443 15.6624 57.7878 17.3491 57.7878 19.3973C57.7878 21.8069 57.0028 23.8551 55.4328 25.4214C54.4666 26.4455 53.0174 27.1683 51.2663 27.7105L58.3312 38.855C59.237 40.3008 59.9012 41.2044 60.3239 41.5659C60.9278 42.0478 61.592 42.349 62.377 42.4092V43.3128H53.0778L43.6579 28.1924H41.7256ZM41.7256 12.0479V26.5057H42.9332C44.9259 26.5057 46.4355 26.325 47.4621 25.9033C48.4282 25.4816 49.2132 24.7587 49.8171 23.6744C50.3605 22.5901 50.6624 21.2045 50.6624 19.4575C50.6624 16.9274 50.119 15.1202 49.0924 13.9154C48.0659 12.7106 46.3751 12.1082 44.0202 12.1082L41.7256 12.0479ZM14.8545 28.3129V37.4695C14.8545 39.2767 14.9753 40.3611 15.1565 40.843C15.3376 41.3249 15.6999 41.6863 16.183 41.9273C16.6661 42.2285 17.5718 42.349 18.9003 42.349V43.2526H3.98535V42.349C5.31381 42.349 6.27996 42.2285 6.76303 41.9273C7.24611 41.6261 7.60841 41.2647 7.78956 40.843C7.97072 40.3611 8.09149 39.2767 8.09149 37.4695V16.0238C8.09149 14.2166 7.97072 13.1323 7.78956 12.6503C7.60841 12.1684 7.24611 11.807 6.76303 11.566C6.27996 11.2648 5.37419 11.1443 3.98535 11.1443V10.2407H16.7868C21.0137 10.2407 24.0329 11.0841 25.8445 12.7708C27.656 14.4576 28.6222 16.566 28.6222 19.0961C28.6222 21.2045 28.0183 23.072 26.871 24.578C25.6633 26.084 24.0329 27.1081 21.9799 27.7105C20.5307 28.1322 18.1757 28.3129 14.8545 28.3129ZM14.8545 12.1684V26.3852C15.3376 26.4455 15.6999 26.4455 15.9414 26.4455C17.6926 26.4455 19.0814 25.8431 19.9872 24.6985C20.9533 23.5539 21.4364 21.6864 21.4364 19.2166C21.4364 16.7467 20.9533 14.9997 19.9872 13.8552C19.021 12.7106 17.6322 12.1684 15.6999 12.1684H14.8545Z" fill="#26231E"/>
<path fill-rule="evenodd" clip-rule="evenodd" d="M12.3788 70.1199C15.7603 68.9151 17.9945 67.5898 19.0814 66.0235C19.2626 65.8428 19.323 65.6621 19.2626 65.4814C19.2022 65.3007 19.0211 65.3007 18.6588 65.4211C17.753 65.7223 16.4245 66.385 14.7338 67.2886C12.9826 68.1922 11.6542 68.8549 10.688 69.1561C5.97804 70.8428 3.26075 70.4211 2.41537 68.0717C1.81152 66.4452 2.71729 63.7946 5.07228 60.1802C6.64227 57.7706 8.4538 55.4212 10.4465 53.2525C12.4392 51.0839 14.4318 49.1562 16.4849 47.4694C19.5645 44.9996 22.3422 43.3128 24.818 42.4694C29.5279 40.7827 32.6075 42.108 34.1171 46.3851C35.2041 49.5176 35.4456 54.9393 34.8418 62.6501C34.2983 69.8187 33.3321 75.1801 32.0037 78.915C31.8829 79.2163 31.9433 79.4572 32.0037 79.7584C32.3056 80.7223 32.9698 80.9632 33.9964 80.662C34.2983 80.1801 34.6002 79.2765 34.9021 77.9512C35.0833 77.0476 35.2644 76.0837 35.4456 75.0596C37.1364 66.7464 39.4913 59.1561 42.3898 52.2887C44.9863 46.2646 47.1602 42.8911 48.9113 42.2887C49.9982 41.867 50.904 42.5899 51.5078 44.3971C52.8967 48.3128 53.0174 55.5417 51.8701 65.9633C51.5078 69.5175 51.2663 71.385 51.2059 71.6862C51.1455 71.9271 51.1455 72.1681 51.2059 72.4091C51.5682 73.4331 52.4136 73.7344 53.6817 73.2524C53.8628 73.1922 54.044 73.1319 54.1647 73.0115C54.4667 72.2886 54.5874 71.6862 54.6478 71.144C54.8893 70.0597 55.1913 68.7344 55.614 67.2284C56.9424 62.4693 58.8747 57.1079 61.3505 51.2646C64.7924 43.1923 67.5701 38.7948 69.7439 38.0116C70.0458 37.8912 70.2873 38.0719 70.4685 38.5538C70.6497 39.096 70.7704 39.9996 70.7704 41.3249C70.6497 43.9755 70.5289 46.0236 70.3477 47.4092C70.0458 51.4453 69.925 54.7585 69.925 57.3489C69.9854 60.8428 70.3477 63.4934 71.012 65.3609C72.0385 68.1922 73.7293 69.2163 76.205 68.3729C77.1108 68.0717 78.0165 67.3488 78.9827 66.3247C79.8885 65.3007 80.1904 64.397 79.9488 63.6139C81.0961 65.5416 82.7265 66.2645 84.9607 65.6019C87.0138 65.0597 89.0669 63.6139 91.0596 61.2645C91.5426 60.7224 91.9653 60.1802 92.388 59.638C92.4484 60.0597 92.5088 60.5416 92.6295 60.9031C93.0522 62.4693 94.0184 63.0718 95.4676 62.6501C97.883 61.9874 99.8757 58.4332 101.446 52.0477C101.566 52.8308 101.687 53.5537 101.868 54.2164C103.016 58.2525 104.948 59.879 107.846 59.0959C108.692 58.8549 109.477 58.4332 110.201 57.7706C111.168 56.867 112.073 55.4212 112.919 53.4935C114.006 56.3248 115.757 57.4694 118.051 56.8067C119.863 56.3248 121.916 54.6983 124.271 51.9875C126.324 49.5176 127.773 47.2887 128.498 45.2405C128.619 44.9393 128.619 44.6381 128.558 44.4574C128.498 44.2164 128.377 44.1562 128.196 44.1562C127.894 44.2164 127.652 44.5176 127.471 45.0598C126.747 46.867 125.66 48.6742 124.09 50.6019C122.278 52.8308 120.648 54.0959 119.078 54.5176C117.266 54.9995 115.998 54.0357 115.334 51.626C114.972 50.3007 114.791 48.4935 114.851 46.2044C114.911 43.9152 115.153 42.108 115.576 40.7225C120.406 39.2165 122.701 38.1321 122.52 37.4695C122.459 37.1683 122.097 37.108 121.554 37.2888C121.252 37.4092 120.708 37.5297 120.104 37.7104C119.44 37.9514 118.957 38.0719 118.655 38.1924C117.448 38.5538 116.481 38.7345 115.817 38.9152C116.481 36.3851 117.448 33.4334 118.716 30.1201C119.501 28.2527 120.104 26.8069 120.527 25.7828V25.5418C120.406 25.1201 119.863 25.0599 118.836 25.3611C117.689 25.6623 116.844 26.2647 116.361 27.1081C115.696 28.1322 115.032 30.1201 114.428 33.0719C113.583 36.8068 113.039 38.9755 112.919 39.5177C112.315 39.6984 111.409 39.8791 110.141 40.1201C108.873 40.361 108.028 40.5417 107.424 40.7225C106.941 40.843 106.759 41.0839 106.82 41.3249C107.182 42.5297 108.933 42.7104 112.194 41.8068C111.53 45.5417 111.53 48.7947 112.254 51.6863C112.134 51.9875 112.013 52.2887 111.832 52.5899C110.564 55.361 109.416 56.9272 108.39 57.1682C106.941 57.5899 105.733 56.0838 104.827 52.7706C103.801 49.1562 103.62 46.2646 104.223 44.1562C104.284 43.9152 104.465 43.6743 104.767 43.4935C105.069 43.3128 105.189 43.1923 105.189 43.1321C105.189 43.0116 105.069 42.8911 104.827 42.7104C103.74 41.7466 102.412 41.5056 100.721 41.9875C99.9964 42.1682 99.2718 42.5899 98.5472 43.1321C96.5545 44.4574 94.8638 47.1682 93.5353 51.2646C92.6899 53.7947 92.2069 55.9634 92.1465 57.8911C91.603 58.7947 90.9388 59.638 90.2142 60.4212C88.5234 62.3489 86.893 63.5537 85.2627 63.9754C83.5115 64.4573 82.4246 63.7344 81.8811 61.8067C81.6396 61.0236 81.5792 59.9995 81.5792 58.7344C83.0285 57.6501 84.4777 55.9634 85.9269 53.614C87.5573 50.9634 88.1611 48.9152 87.7384 47.4694C87.6177 46.9875 87.3157 46.6261 86.8327 46.2646C86.3496 45.9634 85.9269 45.8429 85.4438 45.9634C83.0888 46.6261 81.2169 48.7947 79.8281 52.4694C78.56 55.9634 78.1977 58.8549 78.9223 61.3248C79.1638 62.1079 79.4054 62.7103 79.7073 63.3127L79.4658 63.2525C79.2846 63.3127 78.8619 63.8549 78.0769 64.9392C77.3523 66.0235 76.6277 66.6862 76.0239 66.8669C74.8766 67.2886 74.0312 66.6862 73.4877 65.1802C72.7631 63.1922 72.4612 59.638 72.582 54.5778C72.8235 50.8429 73.0046 47.1682 73.1858 43.4333C73.3066 41.0839 73.1254 39.2165 72.6423 37.8309C72.0385 36.1442 71.0723 35.4815 69.7439 35.9635C69.3816 36.0839 68.8985 36.3249 68.4154 36.7466C66.6643 38.0719 64.1885 41.867 61.0485 48.0718C58.8143 52.5296 56.882 56.8067 55.1309 60.9633C55.4932 53.7345 55.0705 48.4935 53.9232 45.12C52.5344 41.2646 50.6021 39.8189 48.0659 40.7225C45.9525 41.4454 43.7786 44.4574 41.5444 49.6983C40.1556 53.4935 38.7667 57.2887 37.3175 61.0236C38.2837 54.0357 38.1025 48.614 36.7137 44.7586C35.0229 39.9996 31.0979 38.7345 24.818 40.9634C21.8591 41.9875 18.7191 43.7345 15.3376 46.1441C12.9826 47.8911 10.7484 49.8188 8.63495 51.867C6.1592 54.3971 4.16651 56.867 2.59652 59.3971C0.301916 63.0718 -0.483081 66.0235 0.301916 68.2525C1.02653 70.3609 2.77767 71.4452 5.49497 71.5054C7.72919 71.385 9.96341 71.0235 12.3788 70.1199ZM94.6826 55.4212C94.8034 55.12 94.9242 54.879 94.9845 54.5778C95.0449 54.3369 95.0449 54.2164 94.9845 54.0959L94.9242 54.0357C95.2865 52.5899 95.8299 51.0236 96.6149 49.2164C97.9434 46.2646 99.5738 44.5779 101.446 44.0357C101.687 43.9755 101.868 43.9152 102.11 43.9152C101.687 48.2526 100.721 52.1682 99.2114 55.6622C98.1849 58.2525 97.1584 59.6983 96.1318 59.9995C95.4676 60.1802 95.0449 59.7585 94.743 58.7947C94.5015 57.8911 94.4411 56.7465 94.6826 55.4212ZM82.8473 52.108C83.5719 49.5778 84.3569 48.2526 85.0211 48.0718C85.5646 47.8911 85.9269 48.1321 86.108 48.6742C86.41 49.8188 85.9873 51.3248 84.9004 53.1923C83.9342 54.879 82.9681 56.0838 81.8811 56.9874C81.8208 55.8429 82.1831 54.2164 82.8473 52.108Z" fill="url(#paint0_linear_55_134)"/>
<path fill-rule="evenodd" clip-rule="evenodd" d="M116.361 64.6987C110.201 66.1445 104.103 67.771 98.0641 69.6384C92.0257 71.5059 86.0477 73.5541 80.1904 75.8432L80.13 76.0239L80.3112 76.0842C86.2892 74.0962 92.388 72.4095 98.4265 70.8432C104.525 69.277 110.624 67.8312 116.783 66.6866C122.942 65.5421 129.162 64.7589 135.382 63.8553C141.601 63.012 147.821 62.4095 154.101 62.0481L154.222 61.9276C154.222 61.8674 154.282 61.5059 153.92 61.4457C147.64 60.4818 141.42 60.9035 135.08 61.3855C128.739 61.9276 122.52 63.3132 116.361 64.6987Z" fill="url(#paint1_linear_55_134)"/>
</g>
<defs>
<linearGradient id="paint0_linear_55_134" x1="0.23495" y1="52.9784" x2="194.315" y2="52.9784" gradientUnits="userSpaceOnUse">
<stop stop-color="#826534"/>
<stop offset="0.17" stop-color="#826534"/>
<stop offset="0.46" stop-color="#AB8E5C"/>
<stop offset="0.95" stop-color="#F2D782"/>
<stop offset="1" stop-color="#F2D782"/>
</linearGradient>
<linearGradient id="paint1_linear_55_134" x1="80.1234" y1="68.4747" x2="194.179" y2="68.4747" gradientUnits="userSpaceOnUse">
<stop stop-color="#826534"/>
<stop offset="0.17" stop-color="#826534"/>
<stop offset="0.46" stop-color="#AB8E5C"/>
<stop offset="0.95" stop-color="#F2D782"/>
<stop offset="1" stop-color="#F2D782"/>
</linearGradient>
<clipPath id="clip0_55_134">
<rect width="154.222" height="80.7827" fill="white"/>
</clipPath>
</defs>
</svg>
