<svg width="154" height="46" viewBox="0 0 154 46" fill="none" xmlns="http://www.w3.org/2000/svg">
<g clip-path="url(#clip0_55_140)">
<path d="M83.179 5.0745H151.819V0H83.179V5.0745ZM67.8032 5.0745H74.654V0H67.8032V5.0745Z" fill="#1A2F6F"/>
<path d="M11.5649 30.1176V39.8492C11.5649 41.7384 11.675 42.9466 11.8733 43.4299C12.0715 43.9132 12.446 44.3086 12.9747 44.6162C13.5034 44.9017 14.4726 45.0555 15.8824 45.0555V46.0001H0.0220283V45.0555C1.4759 45.0555 2.44514 44.9017 2.9518 44.5942C3.45845 44.2866 3.83293 43.8912 4.03118 43.4079C4.22944 42.9247 4.33958 41.7384 4.33958 39.8492V17.0908C4.33958 15.2016 4.22944 13.9934 4.03118 13.5101C3.83293 13.0269 3.45845 12.6314 2.92977 12.3239C2.40109 12.0383 1.43184 11.8845 0 11.8845V10.918H13.6135C18.1073 10.918 21.3234 11.8186 23.2619 13.598C25.2224 15.3993 26.1917 17.64 26.1917 20.3201C26.1917 22.6047 25.5529 24.5378 24.2972 26.1634C23.0416 27.789 21.3014 28.8874 19.0986 29.4805C17.6447 29.9199 15.1114 30.1176 11.5649 30.1176ZM11.5649 12.939V28.0966C12.0715 28.1405 12.446 28.1405 12.7103 28.1405C14.5828 28.1405 16.0366 27.5254 17.0499 26.2733C18.0632 25.0211 18.5699 23.088 18.5699 20.4738C18.5699 17.8597 18.0632 15.9705 17.0499 14.7623C16.0366 13.5541 14.5167 12.9609 12.5121 12.9609H11.5649V12.939Z" fill="#1D1D1B"/>
<path d="M40.1797 30.0078V39.8272C40.1797 41.7164 40.2898 42.9247 40.488 43.4079C40.6863 43.8912 41.0608 44.2866 41.5895 44.5942C42.1181 44.8798 43.0874 45.0335 44.5192 45.0335V45.9781H28.5267V45.0335C29.9805 45.0335 30.9498 44.8798 31.4564 44.5722C31.9631 44.2647 32.3376 43.8693 32.5358 43.386C32.7341 42.9027 32.8442 41.7164 32.8442 39.8272V17.0908C32.8442 15.2016 32.7341 13.9934 32.5358 13.5101C32.3376 13.0269 31.9631 12.6314 31.4344 12.3239C30.9057 12.0383 29.9365 11.8845 28.5046 11.8845V10.918H43.0213C46.7881 10.918 49.5637 11.2035 51.326 11.7967C53.0882 12.3898 54.4981 13.4662 55.6215 15.0479C56.7229 16.6295 57.2736 18.4748 57.2736 20.6056C57.2736 23.1978 56.4366 25.3287 54.7844 27.0202C53.7271 28.0966 52.2512 28.8874 50.3347 29.4146L57.8464 41.2771C58.8376 42.8148 59.5205 43.7594 59.9391 44.1548C60.5779 44.6821 61.3048 44.9896 62.1199 45.0335V45.9781H52.2732L42.2063 29.9858H40.1797V30.0078ZM40.1797 12.8291V28.1844H41.5013C43.6381 28.1844 45.2241 27.9648 46.3035 27.5254C47.3609 27.0861 48.198 26.2952 48.8148 25.1529C49.4315 24.0106 49.7179 22.5168 49.7179 20.6715C49.7179 17.9915 49.1672 16.0144 48.0438 14.7403C46.9203 13.4662 45.136 12.8291 42.6689 12.8291H40.1797Z" fill="#1D1D1B"/>
<path d="M79.0156 45.0555V46.0001H62.6706V45.0555H63.7059C64.6091 45.0555 65.336 44.8798 65.8867 44.5063C66.2832 44.2647 66.5916 43.8473 66.8119 43.2761C66.9881 42.8588 67.0542 41.7823 67.0542 40.0249V16.959C67.0542 15.1577 66.9661 14.0374 66.8119 13.598C66.6357 13.1587 66.3053 12.7632 65.7766 12.4118C65.2699 12.0823 64.565 11.9065 63.6839 11.9065H62.6486V10.9399H78.9936V11.9065H77.9582C77.0551 11.9065 76.3281 12.0823 75.7774 12.4557C75.3809 12.6973 75.0725 13.1147 74.8302 13.7079C74.654 14.1252 74.5659 15.2016 74.5659 16.959V40.0249C74.5659 41.8263 74.654 42.9466 74.8302 43.386C75.0065 43.8253 75.3589 44.2207 75.8656 44.5722C76.3722 44.9017 77.0771 45.0775 77.9582 45.0775L79.0156 45.0555Z" fill="#1D1D1B"/>
<path d="M102.586 34.0498L111.067 10.918H123.777V11.8845H122.764C121.839 11.8845 121.112 12.0603 120.561 12.4337C120.187 12.6754 119.878 13.0708 119.636 13.6419C119.46 14.0593 119.394 15.1357 119.394 16.8712V40.003C119.394 41.8043 119.482 42.9247 119.636 43.364C119.812 43.8034 120.143 44.1988 120.671 44.5503C121.2 44.8798 121.883 45.0555 122.764 45.0555H123.777V46.0001H107.454V45.0555H108.467C109.393 45.0555 110.12 44.8798 110.67 44.5063C111.045 44.2647 111.353 43.8473 111.596 43.2542C111.772 42.8368 111.86 41.7604 111.86 40.003V14.0154L99.8765 46.0001H99.3257L87.1661 14.2351V38.9266C87.1661 40.64 87.2102 41.7164 87.2763 42.1119C87.4745 42.9686 87.9151 43.6716 88.5759 44.2207C89.2368 44.7699 90.2941 45.0335 91.726 45.0335V45.9781H81.0422V45.0335H81.3727C82.0555 45.0555 82.7164 44.9237 83.3112 44.6601C83.9059 44.3965 84.3685 44.045 84.6769 43.5837C84.9853 43.1443 85.2276 42.5073 85.3818 41.6945C85.4038 41.4968 85.4259 40.6181 85.4259 39.0584V16.8712C85.4259 15.0918 85.3378 13.9934 85.1615 13.5541C84.9853 13.1147 84.6549 12.7193 84.1262 12.3898C83.5975 12.0603 82.9146 11.8845 82.0335 11.8845H81.0422V10.918H93.7966L102.586 34.0498Z" fill="#1D1D1B"/>
<path d="M137.501 12.939V27.2179H138.118C140.1 27.2179 141.532 26.5149 142.435 25.131C143.316 23.725 143.889 21.6821 144.131 18.9581H145.012V37.3229H144.131C143.955 35.3239 143.559 33.6763 142.964 32.4022C142.369 31.1281 141.686 30.2714 140.893 29.832C140.1 29.3927 138.977 29.173 137.479 29.173V39.0584C137.479 40.9915 137.545 42.1778 137.699 42.5951C137.853 43.0345 138.118 43.386 138.514 43.6496C138.911 43.9352 139.549 44.067 140.453 44.067H142.325C145.255 44.067 147.59 43.3201 149.352 41.7823C151.114 40.2666 152.37 37.96 153.141 34.8406H154L152.59 45.9781H125.583V45.0335H126.619C127.522 45.0335 128.249 44.8578 128.8 44.4843C129.196 44.2427 129.505 43.8253 129.725 43.2542C129.901 42.8368 129.967 41.7604 129.967 40.003V16.9371C129.967 15.3554 129.923 14.3669 129.857 14.0154C129.703 13.4223 129.416 12.939 128.998 12.6095C128.403 12.1262 127.61 11.8845 126.597 11.8845H125.583V10.918H151.731V21.3086H150.85C150.409 18.7823 149.771 16.959 148.978 15.8607C148.163 14.7623 147.039 13.9495 145.563 13.4223C144.704 13.1147 143.096 12.9609 140.717 12.9609L137.501 12.939Z" fill="#1D1D1B"/>
</g>
<defs>
<clipPath id="clip0_55_140">
<rect width="154" height="46" fill="white"/>
</clipPath>
</defs>
</svg>
