<svg width="131" height="127" viewBox="0 0 131 127" fill="none" xmlns="http://www.w3.org/2000/svg">
<path d="M127.862 62.222H2.7796C1.3898 62.222 0 61.1553 0 59.3775V41.5997C0 40.1775 1.04235 39.1108 2.7796 39.1108H127.862C129.252 39.1108 130.641 40.1775 130.641 41.9553V59.7331C130.294 61.1553 129.252 62.222 127.862 62.222ZM5.21176 56.8886H125.082V44.4442H5.21176V56.8886Z" fill="white"/>
<path d="M118.828 71.8221C118.48 71.8221 118.48 71.8221 118.133 71.8221C116.743 71.4665 115.701 70.0443 116.048 68.6221L118.133 59.0221C118.48 57.5998 119.87 56.5332 121.26 56.8887C122.65 57.2443 123.692 58.6665 123.345 60.0887L121.26 69.6887C120.913 70.7554 119.87 71.8221 118.828 71.8221Z" fill="white"/>
<path d="M107.015 126.222H20.1524C18.7625 126.222 17.7202 125.155 17.7202 124.088L8.68648 69.3329C8.33903 67.9107 9.38138 66.4884 10.7712 66.1329C12.161 65.7773 13.5508 66.844 13.8982 68.2662L22.2371 120.888H104.93L116.396 68.6218C116.744 67.1995 118.133 66.1329 119.523 66.4884C120.913 66.844 121.955 68.2662 121.608 69.6884L109.795 124.088C109.1 125.511 108.057 126.222 107.015 126.222Z" fill="white"/>
<path d="M11.1183 71.8221C9.72854 71.8221 8.68619 70.7554 8.68619 69.6887L6.94893 60.0887C6.60148 58.6665 7.64383 57.2443 9.03364 56.8887C10.4234 56.5332 11.8132 57.5998 12.1607 59.0221L13.5505 68.6221C13.8979 70.0443 12.8556 71.4665 11.4658 71.8221H11.1183Z" fill="white"/>
<path d="M108.057 44.4442C107.015 44.4442 105.972 43.7331 105.625 42.6664L97.2862 15.6442C96.5913 13.8664 94.854 12.4442 93.1168 12.4442H82.6932C81.3034 12.4442 79.9136 11.3775 79.9136 9.59973C79.9136 7.82195 80.956 7.11084 82.6932 7.11084H93.1168C97.2862 7.11084 101.108 9.95529 102.498 13.8664L110.837 40.8886C111.184 42.3109 110.489 43.7331 109.099 44.0886C108.752 44.4442 108.405 44.4442 108.057 44.4442Z" fill="white"/>
<path d="M82.6931 16H47.9481C46.5583 16 45.1685 14.9333 45.1685 13.1556V2.48889C45.1685 1.06667 46.2108 0 47.9481 0H82.6931C84.0829 0 85.4727 1.06667 85.4727 2.84445V13.5111C85.1253 14.9333 84.0829 16 82.6931 16ZM50.3802 10.6667H79.9135V5.33333H50.3802V10.6667Z" fill="white"/>
<path d="M22.2367 44.4442C21.8893 44.4442 21.5418 44.4442 21.5418 44.4442C20.152 44.0886 19.4571 42.6664 19.8045 41.2442L28.1434 14.222C29.5332 9.95529 33.3551 7.11084 37.5245 7.11084H47.948C49.3378 7.11084 50.7276 8.17751 50.7276 9.95529C50.7276 11.7331 49.6853 12.7997 47.948 12.7997H37.5245C35.4398 12.7997 33.7026 14.222 33.3551 15.9997L24.6689 42.6664C24.3214 43.7331 23.2791 44.4442 22.2367 44.4442Z" fill="white"/>
<path d="M54.8972 112C53.5074 112 52.1176 110.933 52.1176 109.155V73.5998C52.1176 72.1776 53.16 70.7554 54.8972 70.7554C56.6345 70.7554 57.6768 71.822 57.6768 73.5998V109.155C57.3294 110.933 56.287 112 54.8972 112Z" fill="white"/>
<path d="M34.0503 112C32.6605 112 31.2707 110.934 31.2707 109.156V73.6002C31.2707 72.178 32.313 71.1113 34.0503 71.1113C35.7875 71.1113 36.8299 72.178 36.8299 73.9558V109.511C36.4825 110.934 35.4401 112 34.0503 112Z" fill="white"/>
<path d="M93.117 112C91.7272 112 90.3374 110.933 90.3374 109.155V73.5998C90.3374 72.1776 91.3798 70.7554 93.117 70.7554C94.8543 70.7554 95.8966 71.822 95.8966 73.5998V109.155C95.5492 110.933 94.5068 112 93.117 112Z" fill="white"/>
<path d="M72.2695 112C70.8797 112 69.4899 110.933 69.4899 109.155V73.5998C69.4899 72.1776 70.5323 70.7554 72.2695 70.7554C74.0068 70.7554 75.0491 71.822 75.0491 73.5998V109.155C74.7017 110.933 73.6593 112 72.2695 112Z" fill="white"/>
</svg>
