<svg width="40" height="40" viewBox="0 0 40 40" fill="none" xmlns="http://www.w3.org/2000/svg">
<g clip-path="url(#clip0_55_117)">
<path d="M20.0066 40.0133C31.056 40.0133 40.0133 31.056 40.0133 20.0066C40.0133 8.95727 31.056 0 20.0066 0C8.95727 0 0 8.95727 0 20.0066C0 31.056 8.95727 40.0133 20.0066 40.0133Z" fill="#1F3773"/>
<path fill-rule="evenodd" clip-rule="evenodd" d="M18.3902 28.0889H20.0066C20.0066 28.0889 20.5234 28.0094 20.7751 27.7444C21.0268 27.4926 21.0268 27.0687 21.0268 27.0687C21.0268 27.0687 21.0268 24.856 22.047 24.5115C23.0672 24.167 24.3392 26.6447 25.7039 27.5721C26.7241 28.2479 27.4925 28.1684 27.4925 28.1684L31.1494 28.0889C31.1494 28.0889 33.1103 28.0094 32.1696 26.4724C32.0901 26.3002 31.6529 25.3595 29.4402 23.3191C27.1481 21.1859 27.4793 21.5304 30.2087 17.8736C31.9046 15.5814 32.5936 14.2167 32.3418 13.6205C32.1696 13.0243 30.8976 13.1965 30.8976 13.1965H26.7241C26.7241 13.1965 26.3796 13.117 26.2074 13.276C25.9556 13.4483 25.8629 13.7 25.8629 13.7C25.8629 13.7 25.1871 15.3959 24.3259 16.9328C22.4578 20.0862 21.7688 20.2585 21.4376 19.9935C20.7618 19.5695 20.9208 18.2048 20.9208 17.1846C20.9208 14.124 21.3448 12.9315 20.0729 12.587C19.6489 12.5075 19.3044 12.4148 18.112 12.4148C16.6678 12.4148 15.3826 12.4148 14.7069 12.7593C14.1901 13.011 13.8589 13.5277 14.1106 13.5277C14.3624 13.6072 14.9586 13.7 15.3031 14.124C15.7271 14.7202 15.7271 15.9921 15.7271 15.9921C15.7271 15.9921 15.9788 19.5695 15.1308 19.9935C14.5346 20.3379 13.7661 19.649 12.1497 16.8401C11.3018 15.3959 10.7055 13.7795 10.7055 13.7795C10.7055 13.7795 10.5333 13.435 10.361 13.3555C10.1226 13.1965 9.79132 13.1038 9.79132 13.1038H5.86949C5.86949 13.1038 5.27327 13.1038 5.10103 13.3555C4.92878 13.6072 5.10103 14.0312 5.10103 14.0312C5.10103 14.0312 8.16164 21.2654 11.6595 24.8428C14.8129 28.2611 18.3902 28.0889 18.3902 28.0889Z" fill="white"/>
</g>
<defs>
<clipPath id="clip0_55_117">
<rect width="40" height="40" fill="white"/>
</clipPath>
</defs>
</svg>
