<svg width="89" height="89" viewBox="0 0 89 89" fill="none" xmlns="http://www.w3.org/2000/svg">
<path d="M49.8083 17.832C49.9656 17.4648 50.0705 17.2026 50.2278 16.9404C50.2803 16.8879 50.4901 16.9404 50.595 16.9928C50.6474 17.0453 50.7523 17.2026 50.7523 17.2551C50.7523 17.36 50.6474 17.5173 50.5425 17.5697C50.3327 17.6746 50.1229 17.7271 49.8083 17.832ZM52.6404 17.36C52.588 17.4124 52.5355 17.5173 52.4831 17.5173C52.2733 17.6222 52.0635 17.6746 51.8537 17.7795C51.8537 17.6746 51.8013 17.5173 51.8013 17.5173C52.011 17.36 52.2733 17.2026 52.5355 17.0977C52.588 17.2026 52.6404 17.3075 52.6404 17.36ZM57.8851 17.36C58.0424 17.4648 58.1473 17.4649 58.1998 17.5173C58.2522 17.6222 58.1998 17.7795 58.1473 17.832C58.0949 17.8844 57.9375 17.832 57.8851 17.7795C57.8327 17.7271 57.8851 17.5697 57.8851 17.36ZM53.2173 17.0453C53.2698 17.0977 53.3747 17.0977 53.3747 17.1502C53.3747 17.2551 53.3222 17.3075 53.3222 17.4124C53.2698 17.36 53.2173 17.36 53.1649 17.3075C53.1649 17.2026 53.2173 17.1502 53.2173 17.0453ZM33.4448 38.129C33.4972 38.129 33.4972 38.129 33.5497 38.129V38.1814L33.4972 38.2339C33.4448 38.2339 33.4448 38.1814 33.4448 38.129ZM63.6543 53.2337C63.392 53.391 63.0774 53.6008 62.8676 53.1288C62.8151 53.0239 62.9725 52.6568 63.0774 52.6043C63.5494 52.3946 63.4969 52.919 63.6543 53.2337ZM17.9205 57.1672C17.7107 57.4295 17.6582 57.6392 17.5009 57.7441C17.396 57.7966 17.1338 57.6392 17.1338 57.5344C17.1338 57.377 17.1862 57.1148 17.2911 57.0099C17.396 56.9574 17.6058 57.1148 17.9205 57.1672ZM23.6897 66.0308C23.375 66.0308 23.1127 65.9783 22.7981 65.9259C22.7456 65.9259 22.6407 65.7161 22.6407 65.6636C22.6932 65.5587 22.7981 65.4014 22.903 65.4539C23.1652 65.5063 23.4274 65.6636 23.6897 65.7685C23.6897 65.8734 23.6897 65.9783 23.6897 66.0308ZM66.1193 52.0274C65.9095 51.8701 65.7522 51.7652 65.7522 51.7127C65.7522 51.5554 65.857 51.3981 65.9095 51.2407C66.0144 51.3456 66.1717 51.3981 66.2242 51.5029C66.2766 51.6078 66.1717 51.7652 66.1193 52.0274ZM65.2277 48.2512C65.0179 48.0939 64.8606 47.989 64.8606 47.8841C64.8606 47.7792 64.9654 47.6743 65.0179 47.517C65.1228 47.6219 65.2801 47.6743 65.3326 47.7792C65.385 47.8841 65.2801 48.0415 65.2277 48.2512ZM62.6578 53.9155C62.3955 53.9155 62.1858 53.968 61.9235 53.968C61.9235 53.9155 61.8711 53.8106 61.8711 53.7582C62.0809 53.7057 62.3431 53.6533 62.5529 53.6008C62.6053 53.7057 62.6578 53.8106 62.6578 53.9155ZM66.1717 48.3037C66.0668 48.1988 65.9619 48.1463 65.9619 48.0939C65.9619 47.989 66.0144 47.8841 66.0668 47.8841C66.1193 47.8841 66.2242 47.9366 66.2766 47.989C66.2766 48.0415 66.2242 48.1463 66.1717 48.3037ZM22.2736 65.9259C22.2211 65.821 22.1162 65.7685 22.1162 65.7161C22.1162 65.6636 22.1687 65.6112 22.2211 65.5587C22.2736 65.6112 22.3785 65.6636 22.3785 65.7161C22.4309 65.7685 22.326 65.821 22.2736 65.9259ZM63.969 50.4016C64.0214 50.454 64.1263 50.5065 64.1263 50.5065C64.1263 50.5589 64.0739 50.6114 64.0214 50.7162C63.969 50.6638 63.9165 50.6638 63.9165 50.6114C63.9165 50.5589 63.9165 50.454 63.969 50.4016ZM18.0778 56.3281C18.0778 56.3805 18.0254 56.3805 18.0254 56.433C17.9729 56.3805 17.9729 56.3281 17.9205 56.3281L17.9729 56.2756C18.0254 56.2232 18.0254 56.2756 18.0778 56.3281ZM26.2071 65.0867H26.1547L26.2071 65.0343C26.2071 65.0343 26.2071 65.0343 26.2071 65.0867ZM21.6967 64.9294C21.6442 64.9294 21.6442 64.8769 21.5918 64.8769C21.5918 64.8245 21.6442 64.772 21.6442 64.772C21.6967 64.772 21.7491 64.8245 21.7491 64.8245C21.7491 64.8769 21.6967 64.9294 21.6967 64.9294ZM22.7981 65.0343L22.8505 64.9818C22.8505 64.9818 22.903 64.9818 22.903 65.0343C22.903 65.0343 22.8505 65.0867 22.7981 65.0343C22.8505 65.0867 22.7981 65.0867 22.7981 65.0343ZM67.6402 48.3037C67.6402 48.2512 67.5878 48.1988 67.5878 48.1988C67.5878 48.1463 67.6403 48.1463 67.6927 48.0939C67.6927 48.1463 67.7451 48.1463 67.7451 48.1988C67.6927 48.2512 67.6402 48.2512 67.6402 48.3037ZM61.2417 54.3351C61.2417 54.3351 61.2417 54.3875 61.1893 54.3875L61.1368 54.3351C61.1368 54.3351 61.1893 54.2826 61.2417 54.3351C61.1893 54.2826 61.1893 54.2826 61.2417 54.3351ZM60.1928 7.44747C60.2452 7.44747 60.2977 7.49992 60.3501 7.39503C60.2977 7.39503 60.2452 7.39503 60.1928 7.44747ZM61.5564 8.86354C61.1893 8.75865 60.927 8.60131 60.6648 8.33907C60.5075 8.18173 60.4026 7.86705 60.1928 7.8146C59.983 7.76216 59.6683 8.07684 59.6159 8.23418C59.511 8.54886 59.6683 8.60131 59.9305 8.75865C60.6123 9.17822 61.3991 9.44046 62.0809 9.86003C62.3431 10.0698 62.5529 10.1747 62.9725 10.3845C63.2871 10.5418 64.8081 11.4334 65.0179 11.3286C65.385 11.0663 64.1263 10.2272 63.8641 10.0174C63.1298 9.54535 62.3955 9.07333 61.5564 8.86354ZM56.5215 6.39853C56.1019 6.24119 56.2068 6.87056 56.4166 7.0279C56.6788 7.23769 57.3082 7.49992 57.6753 7.55237C57.9375 7.55237 58.1998 7.60481 58.0424 7.23769C57.8851 6.923 56.8362 6.50343 56.5215 6.39853ZM54.6858 5.34959C54.7907 5.55938 54.7907 5.66428 55.053 5.55938C55.3152 5.45449 55.1579 5.34959 55.053 5.08736C54.9481 5.13981 54.8432 5.2447 54.6858 5.34959ZM55.0005 6.08385C55.0005 6.0314 55.053 5.97896 55.0005 6.0314C54.8956 6.0314 55.0005 6.0314 55.0005 6.08385ZM53.6893 4.66778C51.5915 4.03842 49.4936 3.51395 47.3433 3.25171C45.665 3.04193 43.9342 3.04193 42.2559 2.93703C40.7874 2.83214 39.3713 2.93703 37.9028 3.04193C36.8539 3.09437 36.0672 3.51395 35.0707 3.77618C34.6511 3.88108 33.2875 3.72374 33.4972 4.45799C33.5497 4.66778 33.9168 5.03491 34.0742 5.19225C34.3888 5.50693 34.7035 5.61183 35.1231 5.55938C37.0636 5.40204 39.0042 5.03491 40.9447 5.03491C42.9377 5.03491 44.9831 5.03491 46.9761 5.2447C48.0775 5.34959 49.1265 5.45449 50.1754 5.71672C50.6474 5.82162 51.1719 5.87406 51.6439 5.92651C52.011 5.97896 52.7977 6.18875 53.1649 5.97896C53.3747 5.87406 53.4271 5.71672 53.2698 5.50693C53.1124 5.29715 52.9551 5.45449 52.7453 5.45449C52.4306 5.45449 52.011 5.55938 51.8013 5.13981C51.4341 4.24821 53.5844 4.87757 54.004 4.87757C53.8467 4.77268 53.7418 4.72023 53.6893 4.66778ZM32.3434 4.19576C31.3469 4.40555 30.1406 4.56289 29.3015 4.87757C28.8819 5.03491 28.4623 5.13981 28.0428 5.2447C27.6232 5.34959 24.6861 5.97896 25.4204 6.81811C25.6826 7.08034 26.2596 7.0279 26.5742 6.923C26.784 6.87056 26.9414 6.71322 27.2036 6.71322C27.4658 6.76566 27.6756 7.0279 27.8854 7.0279C28.3574 7.0279 28.1477 6.71322 28.4099 6.50343C28.7246 6.24119 29.249 6.55587 29.6686 6.55587C30.2455 6.55587 30.8749 6.29364 31.4518 6.18875C31.9763 6.08385 32.6056 5.97896 33.1301 5.76917C33.9168 5.34959 33.0777 4.03842 32.3434 4.19576ZM36.4867 8.28663C36.6965 8.12928 36.3818 8.07684 36.3818 8.02439C36.3294 8.02439 36.2769 8.44397 36.4867 8.28663ZM38.165 8.23418C38.5846 8.28663 38.5322 7.49992 38.2175 7.49992C37.8503 7.44747 37.6406 8.12928 38.165 8.23418ZM41.0496 7.9195C41.5216 7.86705 41.0496 7.0279 40.4727 7.18524C40.2105 7.29013 40.0007 7.44747 40.2105 7.76216C40.4203 7.97194 40.7874 7.97194 41.0496 7.9195ZM43.6195 7.76216C43.8818 7.13279 42.623 7.18524 42.6755 7.70971C42.7804 8.23418 43.4622 8.12928 43.6195 7.76216ZM46.9761 7.65726C47.2908 7.55237 47.081 7.23769 47.0286 7.0279C47.0286 7.08034 46.6614 7.76216 46.9761 7.65726ZM23.7421 6.76566C22.5358 7.49992 21.1722 7.9195 19.9659 8.60131C18.7596 9.33557 17.5534 10.1223 16.3995 11.0139C15.9275 11.381 15.8751 11.853 15.5604 12.2726C15.1408 12.8495 14.7212 12.4299 14.1443 12.5873C13.6198 12.7446 13.0954 13.4789 12.7282 13.846C12.2038 14.3705 11.6793 14.9474 11.2073 15.5768C10.8401 16.1012 10.5255 16.7306 10.1059 17.2551C9.68631 17.7271 9.21428 18.1467 9.00449 18.776C8.8996 19.0907 8.95205 19.3529 8.8996 19.6152C8.84715 19.9823 8.63737 20.1396 8.42758 20.4019C7.95555 20.9264 7.74577 21.6082 7.37864 22.2375C7.2213 22.4998 7.01151 22.7096 6.85417 23.0242C6.74927 23.2865 6.69683 23.6011 6.53949 23.8634C6.2248 24.4927 5.80523 25.0172 5.59544 25.6466C5.3332 26.2759 5.07097 26.8004 4.49405 27.2724C4.23182 27.4822 3.81224 27.6396 3.91714 28.0591C3.96958 28.4263 4.5465 28.7934 4.86118 28.7934C5.54299 28.6885 5.59544 27.7969 5.75278 27.2724C5.91012 26.6431 6.2248 26.1711 6.53949 25.5941C6.80172 25.0697 6.85417 24.5452 7.16885 24.0207C8.48002 21.9228 10.1059 20.1396 11.7317 18.304C13.3576 16.4684 15.0883 14.6327 16.9764 13.1117C17.5534 12.6922 18.0778 12.2202 18.5498 11.6432C18.8645 11.2761 19.0743 11.2237 19.4414 11.0139C19.5988 10.909 19.9135 10.909 19.7037 10.6467C19.5463 10.4894 19.1792 10.5418 18.9694 10.3845C18.7072 10.1747 18.6023 10.0174 18.9694 9.80759C19.6512 9.49291 20.3855 10.2272 20.9624 9.96493C21.2771 9.80759 21.5918 9.49291 21.8016 9.28312C21.9589 9.07333 22.2211 8.49641 22.4309 8.39152C22.8505 8.18173 23.1652 8.8111 23.5848 8.8111C25.1582 8.65375 24.6337 6.18875 23.7421 6.76566ZM13.7247 20.9264C14.5114 20.5068 14.7212 19.5103 13.5149 19.7725C12.5709 19.9299 13.2527 21.1886 13.7247 20.9264ZM15.0359 19.0907C15.3506 18.9334 15.6653 18.9334 15.6653 18.5662C15.6653 18.304 15.403 17.9893 15.1408 18.0418C14.6688 18.1991 14.931 19.1432 15.0359 19.0907ZM14.8261 16.5733C14.931 16.4684 14.7212 16.3635 14.6688 16.3635C14.5114 16.3635 14.1443 16.8355 14.0919 16.9404C14.0394 17.0453 13.8821 17.2551 14.0919 17.3075C14.1443 17.36 14.7212 16.6781 14.8261 16.5733ZM17.4485 13.7936C17.0813 13.7936 15.1932 15.0523 15.6128 15.5243C16.0848 16.1012 17.4485 14.1607 17.4485 13.7936ZM16.6618 17.5697C16.924 17.36 18.4974 15.8914 18.3401 15.7341C18.7596 15.4194 21.5393 14.0033 21.0673 13.4264C20.7002 12.9544 19.7561 13.846 19.4414 14.0558C18.8121 14.4754 18.1827 14.8949 17.6058 15.367C17.1338 15.7865 16.6618 16.1537 16.2946 16.6781C16.1373 16.8879 15.9275 17.0977 16.0848 17.36C16.1373 17.5173 16.5044 17.6746 16.6618 17.5697ZM21.6442 13.2166C22.4309 13.2691 23.375 12.5873 24.0568 12.2726C24.3715 12.1153 24.9484 11.9579 25.1582 11.6432C25.368 11.3286 25.2631 11.0139 24.8435 11.0139C24.1092 11.0139 23.1652 11.7481 22.5358 12.0628C22.2211 12.2201 21.6967 12.3775 21.4869 12.5873C21.3295 12.7971 21.2771 13.2166 21.6442 13.2166ZM6.85417 37.0276C6.43459 37.08 6.64438 37.6045 6.74927 37.8667C6.85417 37.8143 7.27374 37.0276 6.85417 37.0276ZM12.466 60.3665C11.8366 61.363 13.8296 62.3595 13.987 63.1986C14.0394 63.5658 13.9345 63.828 14.0919 64.1951C14.1967 64.4574 14.3541 64.6671 14.5639 64.8769C15.0359 65.4538 15.2457 66.1881 15.7177 66.7126C15.9275 66.9224 16.2422 67.0273 16.3995 67.237C16.5569 67.4468 16.5569 67.814 16.7667 67.9713C16.9764 68.1287 17.2387 68.0238 17.396 68.286C17.6058 68.6007 17.2387 68.9154 17.3436 69.23C17.5009 69.5972 18.1303 69.4398 18.3925 69.4398C18.5498 69.4398 18.8645 69.3874 19.0219 69.4923C19.389 69.7021 19.1792 69.9118 19.2841 70.2265C19.4414 70.8559 20.333 71.5377 20.8051 72.0097C21.0673 72.272 22.1687 73.6356 22.4309 72.8489C22.5883 72.272 21.4344 71.3279 21.0673 70.9608C20.8575 70.751 20.6477 70.5412 20.4904 70.3314C20.333 70.0692 20.333 69.7545 20.1757 69.5447C19.9659 69.1776 19.5463 68.8105 19.2317 68.4958C18.9694 68.2335 18.7072 67.9713 18.3925 67.7091C18.1303 67.4468 17.8156 67.3419 17.5534 67.0797C17.1338 66.7126 17.396 66.2406 17.0289 65.821C16.6093 65.2965 16.1897 64.9818 15.8751 64.3525C15.7177 64.0902 15.6128 63.7231 15.4555 63.4084C15.1932 63.0413 14.8786 63.1462 14.6163 62.9364C14.3541 62.6742 14.5639 62.4119 14.6163 62.0972C14.6688 61.7826 14.5639 61.5203 14.4065 61.2581C13.9345 60.4714 13.3051 60.5238 12.466 60.3665ZM35.8574 84.8068C35.6476 84.7543 35.4378 85.3313 35.4378 85.3837C35.4902 85.6984 36.2245 85.8557 36.4867 85.9606C37.0636 86.1704 37.9552 86.6949 38.3748 85.9082C38.5322 85.5935 38.4797 84.7019 38.0077 84.6495C37.7455 84.597 37.2734 84.8068 36.9587 84.8592C36.6441 84.8592 36.2245 84.9117 35.8574 84.8068ZM34.9658 84.7543C34.6511 84.597 34.3364 84.9641 34.1266 85.1215C34.3364 85.3313 34.4937 85.5935 34.8609 85.4362C35.0707 85.3837 35.2804 84.9117 34.9658 84.7543ZM26.8365 75.5237C26.7316 75.3663 26.1547 74.5272 25.9449 74.9992C25.7875 75.3139 26.6267 75.681 26.8365 75.5237ZM39.4238 86.9047C40.0531 87.0096 40.4202 87.1145 41.0496 87.0096C41.6265 86.9571 41.679 87.2718 42.0986 87.6389C42.9377 88.3732 42.9377 86.9047 43.672 87.2718C44.144 87.534 44.0915 87.8487 44.5111 87.3767C44.7734 87.062 44.9831 86.9047 45.4027 87.1145C45.5076 87.1669 45.5601 87.2194 45.665 87.2718C45.7698 87.4291 45.8747 87.3767 45.9796 87.2194C46.2419 87.1669 46.4517 87.062 46.7139 87.062C47.081 87.062 47.8677 87.2718 48.0775 86.9047C48.2349 86.6949 47.9202 85.9606 47.8153 85.6984C47.6055 85.069 47.1335 85.1215 46.5565 85.1215C45.8223 85.1215 45.0356 85.1215 44.3013 85.1215C43.7244 85.1215 43.3573 85.2788 42.7804 85.3837C42.5706 85.4362 42.4132 85.4886 42.2034 85.3837C41.8363 85.2264 41.7314 85.1215 41.3119 85.069C40.8398 85.0166 39.9482 84.7019 39.4762 84.9117C39.1615 85.069 39.0566 85.6459 38.9517 86.0131C38.7944 86.4326 38.8993 86.7998 39.4238 86.9047ZM27.3085 73.9503C27.4134 73.688 26.9414 72.9538 26.5742 73.1636C26.1547 73.5307 27.1512 73.8978 27.3085 73.9503ZM51.6439 87.4291C51.7488 87.4291 51.8537 87.1145 51.9061 87.062C51.7488 87.062 51.4866 86.9047 51.3817 87.062C51.2768 87.2718 51.4341 87.4816 51.6439 87.4291ZM52.2208 84.7019C52.7977 84.597 53.3222 84.6495 53.8991 84.7019C54.3712 84.7543 54.8432 85.069 55.2103 84.7019C55.3676 84.5446 55.6299 83.9152 55.3152 83.7579C55.1579 83.653 54.0565 83.9676 54.0565 84.0725C53.532 84.0725 52.8502 83.9676 52.3257 84.0725C52.2208 84.125 51.9061 84.125 51.9061 84.3348C51.9586 84.4397 52.1684 84.7019 52.2208 84.7019ZM58.3571 84.7543C58.8292 84.7019 60.6123 84.6495 60.5599 84.0725C60.5599 83.9676 60.2452 83.7054 60.1928 83.6005C60.0879 83.4432 60.0354 83.2334 59.9305 83.0236C59.7732 82.604 59.7207 82.1844 59.1963 82.2893C58.8291 82.3418 58.5145 82.7614 58.3047 82.8663C57.99 83.0236 57.0984 82.9712 57.0984 83.4432C57.0984 83.9676 57.4655 83.7579 57.6753 83.7054C57.8327 83.653 57.8851 83.5481 58.0949 83.4956C58.4096 83.4432 58.7243 83.5481 59.0389 83.5481C59.0389 84.1774 58.6718 84.0201 58.3571 84.2823C58.3047 84.3872 57.99 84.8068 58.3571 84.7543ZM59.1963 80.6635C58.7243 80.4012 58.5145 80.611 58.9865 80.9782C59.0914 80.8733 59.1438 80.7684 59.1963 80.6635ZM61.3991 82.2369C61.8186 81.8698 61.0319 81.2928 60.7697 81.7124C60.5075 82.132 61.0844 82.5516 61.3991 82.2369ZM58.3047 78.7754C59.1963 79.2999 60.6123 78.0936 59.3536 77.4642C58.9865 77.2544 58.462 77.5691 58.1473 77.7264C57.8851 77.8313 57.6753 77.8313 57.7802 78.1985C57.7802 78.4083 58.0949 78.6705 58.3047 78.7754ZM67.9549 78.6705C68.1647 78.4607 68.427 78.4607 68.6367 78.3558C69.0039 78.146 68.8465 77.9362 68.9514 77.6216C69.0563 77.1495 69.2661 77.2544 69.6857 77.202C70.1577 77.1495 70.1053 76.9922 70.315 76.5726C70.4199 76.3104 70.5773 76.1006 70.8395 75.9957C71.1018 75.8384 71.6262 75.8908 71.836 75.6286C72.0982 75.3139 71.8885 74.8419 72.2031 74.5272C72.5178 74.2125 72.8849 74.1076 72.9898 73.6356C73.2521 72.4818 71.9933 73.7405 71.7311 74.0027C71.1017 74.6321 70.4199 75.1041 69.6857 75.6286C68.899 76.2055 68.0598 76.73 67.4829 77.5167C67.3256 77.7264 67.0633 77.9887 67.1682 78.2509C67.2731 78.3034 67.85 78.8278 67.9549 78.6705ZM71.0493 78.2509C70.892 78.3034 71.1542 78.3034 71.1542 78.3034C71.1017 78.3034 71.1017 78.2509 71.0493 78.2509ZM76.6611 72.0622C77.2905 71.9573 78.4968 71.7999 78.8115 71.1706C78.9688 70.8034 78.6541 70.5937 78.6541 70.279C78.6017 69.807 78.8115 69.9643 79.231 69.9118C79.8604 69.807 80.3324 69.0727 80.1226 68.4958C80.0702 68.286 79.8604 68.1286 79.8079 67.9189C79.7555 67.7615 79.7555 67.5517 79.7031 67.3944C79.4933 67.0273 79.0212 67.0273 78.6541 66.9748C78.9688 66.293 79.4933 65.6636 79.8604 64.9818C80.1751 64.4049 80.4898 63.356 81.1191 63.0937C81.1191 63.7231 80.4898 64.4049 80.1751 64.9294C80.0177 65.1392 79.1786 66.0832 79.3359 66.3455C79.5982 66.9224 80.4373 65.6112 80.5422 65.5063C80.9618 65.0867 81.3289 65.6112 81.8534 65.4014C82.273 65.2441 82.7974 64.772 82.5352 64.2476C82.273 63.7755 81.696 63.7756 81.8009 63.1462C81.9058 62.6217 82.273 62.1497 82.3254 61.6252C82.3779 60.9959 82.2205 60.314 82.273 59.6847C81.224 59.842 80.8044 61.6252 80.3324 62.4119C79.8604 63.2511 79.3359 64.0902 78.8639 64.9294C78.287 65.9259 77.6052 66.8699 76.9758 67.8664C76.6087 68.4433 75.6646 69.23 75.9793 69.9643C76.1367 70.3839 76.6611 70.6985 76.6611 71.1706C76.6087 71.2755 76.0842 72.1671 76.6611 72.0622ZM80.5422 66.5552C80.752 66.3455 80.4373 66.1881 80.2275 66.293C80.0177 66.3979 79.808 66.9748 79.7031 67.1322C79.9653 66.9748 80.28 66.765 80.5422 66.5552ZM80.8044 67.814C81.2765 67.9189 82.273 66.9224 81.5387 66.8175C81.0667 66.765 80.1226 67.7091 80.8044 67.814ZM84.0562 62.0448C83.9513 61.7826 83.8988 61.7826 83.689 61.8875C83.689 61.9399 84.1086 62.2546 84.0562 62.0448ZM83.0597 58.2686C83.1646 57.849 83.3743 57.4819 83.4792 57.0623C83.5841 56.6952 83.5317 56.5903 83.217 56.905C82.6925 57.4295 82.273 58.7931 82.2205 59.5273C82.6401 59.2127 82.9023 58.7406 83.0597 58.2686ZM84.2659 54.5973C84.3184 54.2302 84.5282 53.7057 84.3184 53.391C84.0562 53.6008 83.9513 54.44 84.1086 54.7547C84.1611 54.7022 84.2135 54.6498 84.2659 54.5973ZM87.3079 51.3981C87.3603 51.3456 87.1505 51.0834 87.0981 51.0309C87.0456 50.9785 86.6261 51.2932 86.5736 51.2932C86.8359 51.6078 87.0456 51.9225 87.3079 51.3981ZM80.9093 45.996C80.8044 45.9436 80.6995 45.8911 80.5947 45.8911C80.5422 46.468 80.752 46.7303 80.9093 45.996ZM80.3849 44.1079C80.4373 44.003 80.4373 44.0555 80.28 43.9506L80.2275 44.003C80.28 44.0555 80.3324 44.0555 80.3849 44.1079ZM80.8569 43.2163C81.3289 43.059 81.3814 42.4821 81.4863 42.0625C81.5387 41.8527 81.6436 41.7478 81.4863 41.5905C81.224 41.3282 81.0667 41.7478 80.9618 41.9052C80.8044 42.0625 80.1226 42.7443 80.1751 42.9541C80.2275 43.2163 80.5947 43.3212 80.8569 43.2163ZM87.5177 47.4645C88.2519 47.5694 87.9372 45.2618 86.9932 45.7862C86.4163 46.1009 86.9407 47.3596 87.5177 47.4645ZM85.5247 43.4786C85.4722 43.4261 85.5247 43.3737 85.4722 43.4261C85.4198 43.531 85.4722 43.4261 85.5247 43.4786ZM87.2554 43.0065C87.7799 42.9541 87.5701 42.5345 87.4652 42.2723C87.3603 41.9052 87.4128 41.4856 87.4652 41.1184C87.5701 40.6464 87.9372 39.4926 87.5177 39.073C87.203 38.7583 86.8358 38.9681 86.6785 39.2828C86.4687 39.7548 86.6785 40.3842 86.731 40.8562C86.7834 41.1709 86.6785 43.0065 87.2554 43.0065ZM85.1051 36.8178C85.1051 36.5556 84.7904 36.7653 84.738 36.8702C84.6331 37.08 84.8429 37.7618 84.8953 37.9192C84.9478 38.129 85.0527 38.4961 85.1051 38.7583C85.3673 38.5485 85.1575 38.3912 85.1575 38.129C85.1051 37.7094 85.1575 37.2374 85.1051 36.8178ZM79.4933 32.3074C79.5457 31.9402 79.7555 31.5731 79.6506 31.206C79.5457 30.7864 79.231 30.6815 79.1786 30.2095C79.1261 29.8423 79.1786 29.3703 78.9164 29.0556C78.8115 28.8983 78.5492 28.8983 78.4968 28.6885C78.3919 28.4787 78.3919 28.0591 78.3394 27.7969C78.0772 26.748 77.5003 25.8039 77.238 24.755C77.1332 24.3879 77.1856 23.6536 76.8709 23.4438C76.766 23.3389 75.822 23.1291 75.6122 23.1816C74.5108 23.2865 75.6122 24.7025 75.8744 25.1221C76.1367 25.5417 76.6087 25.9613 76.766 26.4333C76.8709 26.8529 76.6611 27.22 76.6611 27.6396C76.6611 28.2689 77.0283 28.2689 77.4478 28.6885C77.815 29.1081 77.9199 29.685 78.0772 30.2095C78.2345 30.7864 78.3394 31.4682 78.6017 31.9927C78.759 32.3074 79.3884 32.9367 79.4933 32.3074ZM85.7345 36.7653C86.4687 36.9227 86.731 34.9297 86.8359 34.4577H86.7834C86.9932 34.4052 87.0456 34.143 86.9407 33.9332C86.7834 33.6185 86.5736 33.6185 86.4687 33.2514C86.3638 32.8843 86.5212 32.3074 86.2065 31.9927C85.8918 31.7304 85.4722 31.8878 85.2624 32.15C84.8429 32.8318 85.5771 33.8283 85.682 34.5101C85.7869 34.9821 85.2624 36.6604 85.7345 36.7653ZM86.6261 33.4612C86.5736 33.4612 86.5212 33.4612 86.5212 33.5661C86.5736 33.5136 86.6261 33.4612 86.6261 33.4612ZM75.35 22.0277C74.9304 21.3984 74.5108 20.8215 74.1437 20.1921C73.7766 19.6676 73.4094 18.8285 72.7276 18.8809C72.2556 18.9334 72.1507 19.0907 72.3605 19.5103C72.4654 19.7201 72.7276 20.1921 72.9374 20.0872C73.4094 20.8739 73.9339 21.6082 74.5108 22.3424C74.7206 22.6047 74.8779 22.9718 75.2451 22.8144C75.5073 22.762 75.5073 22.3424 75.35 22.0277ZM70.9444 17.0453C71.1017 16.4684 69.7381 16.6257 70.4724 17.36C70.6297 17.5173 71.0493 17.832 71.2066 17.5173C71.3115 17.2551 70.892 17.2551 70.9444 17.0453ZM69.1612 13.9509C69.1612 13.8985 69.1088 13.846 69.1088 13.7936C68.8465 13.846 68.899 14.0558 69.1612 13.9509ZM69.5808 69.3349C69.5808 69.3874 69.6332 69.4398 69.6332 69.4923C69.843 69.3874 69.6857 69.3874 69.5808 69.3349ZM72.3605 26.2759C72.3605 25.8039 72.6752 25.699 73.0423 25.9613C73.4619 26.2235 73.8814 26.9578 74.1437 27.3249C73.9863 27.5347 74.6157 28.3738 74.773 28.741C74.9304 29.213 74.6157 29.7374 74.1437 29.3179C73.6717 28.8983 73.5143 28.164 73.0423 27.7445C72.5703 27.2724 72.3605 26.9578 72.3605 26.2759ZM28.9344 12.2201C28.1477 13.0593 26.9938 13.374 26.0498 13.9509C25.6302 14.2131 25.2106 14.5278 24.7386 14.7901C24.2666 15.0523 23.7945 15.3145 23.3225 15.6292C22.9554 15.8914 22.6932 16.3635 22.2211 16.5208C22.0114 16.6257 21.6967 16.6781 21.854 16.311C21.9065 16.1537 22.2736 15.9963 22.3785 15.8914C22.9554 15.4719 23.5323 15.1047 24.1092 14.7376C25.0533 14.1607 25.9973 13.5838 26.9414 13.0069C27.3609 12.7446 27.7805 12.3775 28.2001 12.1153C28.305 12.0104 28.5672 11.7481 28.777 11.853C28.8295 11.9579 29.0393 12.1153 28.9344 12.2201ZM64.1787 18.1467C63.969 16.8879 65.5424 18.3564 65.9619 18.6711C66.434 19.0383 66.906 19.4054 67.3256 19.825C67.6403 20.1396 67.85 20.2445 68.1647 20.6117C68.3221 20.8215 68.8465 21.241 68.7416 21.5557C68.6367 21.8704 68.1123 21.3459 67.9549 21.241C67.3256 20.7166 66.8535 20.0872 66.2242 19.5103C65.9095 19.248 65.5948 18.9858 65.2277 18.7236C65.1228 18.6187 64.1787 18.1991 64.1787 18.1467ZM75.822 12.8495C75.5597 12.2726 76.3989 12.9544 76.4513 13.0069C76.9234 13.374 77.2905 13.7936 77.7101 14.2656C78.4443 15.2096 78.6017 15.7865 78.3394 16.8879C77.2905 15.7341 76.4513 14.2131 75.822 12.8495ZM72.5178 9.96493C72.4654 10.3845 73.0947 10.8565 72.7276 11.1188C72.4129 11.3286 71.9409 11.0139 71.7311 10.7516C71.4164 10.3845 71.4164 10.0174 71.4689 9.5978C71.5213 9.12578 71.5213 8.86354 71.5213 8.39152C72.0982 8.75865 72.6227 9.28312 72.5178 9.96493ZM35.9098 76.9397C36.5392 77.0446 37.221 77.202 37.8503 77.3593C38.5322 77.5167 39.1615 77.4118 39.8433 77.5691C40.158 77.6216 40.5251 77.7264 40.8398 77.7264C40.9972 77.7264 41.5216 77.674 41.6265 77.7264C42.3083 78.1985 40.6825 77.9887 40.5251 77.9887C39.0566 77.8313 37.3259 77.5167 35.9098 76.9397ZM56.1019 77.7789C56.1544 78.4607 55.6823 78.2509 55.2103 78.3034C53.8467 78.4607 56.2592 77.8838 54.8956 78.4083C54.6334 78.5132 54.5809 78.7229 54.2138 78.6705C54.004 78.618 53.6893 78.5132 53.7942 78.1985C53.8991 77.9887 54.2138 77.9887 54.4236 77.9362C54.6334 77.8838 56.0495 77.3593 56.1019 77.7789ZM49.3362 78.1985C49.546 77.5167 49.7558 77.3593 50.4376 77.3593C50.8572 77.3593 51.7488 77.3069 51.4341 77.9887C51.2243 77.9362 50.4901 77.9887 50.2278 78.146C50.2278 78.0936 49.1789 78.7229 49.3362 78.1985ZM47.081 79.9292C46.9761 80.4537 46.1894 80.2439 45.7174 80.2439C45.3503 80.2439 44.3538 80.6635 44.0391 80.2964C43.3573 79.4048 47.1335 79.8243 47.081 79.9292ZM75.4024 16.6257C75.0353 16.2061 74.4584 15.6817 74.301 15.1572C74.6157 15.2096 74.8255 15.5243 75.0877 15.5243C75.4024 15.5243 75.5597 15.1047 75.7695 14.9474C75.8744 15.1572 76.1891 15.5243 76.1891 15.7341C76.1367 16.1537 75.9793 15.7865 75.7171 15.9963C75.5073 16.2061 75.8744 16.783 75.4024 16.6257ZM41.8888 78.5132C42.4657 78.618 42.2034 80.139 41.5741 80.0341C41.0496 79.9292 41.2594 78.4083 41.8888 78.5132ZM34.5462 0.786705C34.2315 1.10139 33.3924 0.944046 33.0252 0.996493C32.9203 0.996493 32.6056 1.04894 32.5008 0.944046C32.4483 0.839152 32.6056 0.472023 32.6581 0.419576C32.763 0.367129 33.1301 0.52447 33.2875 0.52447C33.4972 0.52447 33.6546 0.419576 33.8119 0.419576C33.9168 0.419576 34.9658 0.367129 34.5462 0.786705ZM79.2835 21.241C79.4408 20.5068 79.1786 19.8774 78.9164 19.1956C78.8115 19.0907 78.8115 19.0383 78.8639 19.0907C78.8639 19.1432 78.9164 19.1432 78.9164 19.1956C79.4408 19.9299 80.1751 20.7166 79.5982 21.5557C79.5457 21.5033 79.231 21.2935 79.2835 21.241ZM69.0563 79.8243C69.3186 79.8768 70.2626 80.2439 69.8955 80.611C69.6857 80.8208 68.7416 80.6635 68.4794 80.6635C68.5843 80.4537 68.7416 79.7194 69.0563 79.8243ZM35.9623 78.8278C35.8574 78.8803 35.9098 78.618 35.9623 78.618C36.0672 78.5656 36.1196 78.6705 36.2245 78.6705C36.3818 78.6705 36.8539 78.7754 36.9587 78.8803C37.0112 78.9852 37.1685 79.4048 36.8539 79.3523C36.8014 79.3523 36.6441 78.9327 36.5392 78.8803C36.2769 78.7754 36.1196 78.7229 35.9623 78.8278ZM14.1967 30.4717C13.8821 30.5242 13.8296 30.6815 13.6723 30.3668C13.6198 30.2619 13.5674 29.9997 13.6723 29.8948C14.0394 29.4752 14.3016 30.2095 14.1967 30.4717ZM75.6646 32.15C75.5073 32.2025 75.35 32.15 75.1926 32.15C75.35 31.8878 75.5597 31.4682 75.8744 31.6255C76.2416 31.7829 75.9269 32.0451 75.6646 32.15ZM82.745 22.762C83.1121 23.1816 82.745 23.3914 82.3254 23.3914C82.3779 23.1816 82.3779 22.29 82.745 22.762ZM52.9551 78.4083C52.7977 78.7229 52.6404 78.9852 52.5355 79.2999C52.4306 79.0376 52.2733 78.8278 52.4831 78.5656C52.5355 78.3558 52.7453 78.3034 52.9551 78.4083ZM28.8819 1.46852C29.4064 1.20628 29.4064 1.15383 29.9308 1.46852C29.5113 1.83564 29.3539 1.6783 28.8819 1.46852ZM52.3257 77.674C52.4306 77.5167 52.6928 76.9922 52.8502 77.4118C52.9026 77.5167 52.8502 77.674 52.7453 77.7264C52.6404 77.8838 52.5355 77.7789 52.3257 77.674ZM33.1826 77.2544C33.4448 77.2544 33.6021 77.3593 33.8119 77.4118C33.5497 77.4118 33.4448 77.3593 33.1826 77.2544ZM44.1964 0.576917C44.0391 0.314682 43.8293 0.104894 44.2489 0C44.3538 0.314682 44.4587 0.367129 44.1964 0.576917ZM70.892 11.6957C70.8395 11.6432 70.8395 11.5383 70.7871 11.4859C70.9444 11.4859 71.0493 11.5908 71.1018 11.7481C70.9969 11.7481 70.9444 11.7481 70.892 11.6957ZM77.3954 18.8285C77.5527 18.8809 77.6576 18.9334 77.6576 19.0907C77.5527 19.0907 77.4478 18.9858 77.3954 18.8285ZM7.01151 44.4751C7.16885 44.2653 7.32619 44.2653 7.48353 44.4751C7.27374 44.5275 7.2213 44.5799 7.01151 44.4751ZM43.1475 78.7229C43.095 78.7229 43.3048 78.618 43.4097 78.618C43.4622 78.7754 43.4097 78.8278 43.1475 78.7229ZM67.4829 71.7999C67.2731 71.695 67.2207 71.5902 67.4305 71.3804C67.4829 71.5377 67.5353 71.6426 67.4829 71.7999ZM88.619 58.4784C88.7239 58.6882 88.6715 58.7931 88.4617 58.5833C88.5142 58.5833 88.5666 58.5308 88.619 58.4784ZM41.1545 0.367129C41.1021 0.314682 41.0496 0.314682 40.9972 0.262235C41.1545 0 41.207 0.104894 41.1545 0.367129ZM49.546 79.5621C49.5985 79.5621 49.6509 79.6145 49.7034 79.6145C49.6509 79.667 49.6509 79.7194 49.5985 79.7719C49.7558 79.9292 49.3362 79.5096 49.546 79.5621ZM55.2628 76.7824C55.3676 76.2579 55.5774 76.6251 55.4725 76.8873C55.4201 76.8349 55.3152 76.8348 55.2628 76.7824ZM61.2942 76.9397C61.4515 76.8348 61.3991 76.8349 61.6088 77.0971C61.4515 77.0971 61.3466 77.0446 61.2942 76.9397ZM80.3849 22.5522C80.4373 22.3424 80.3849 22.3949 80.4898 22.3949C80.4898 22.6047 80.5422 22.5522 80.3849 22.5522ZM27.3609 71.7475C27.4134 71.7475 27.4658 71.695 27.5183 71.695C27.4658 71.7999 27.4658 71.7999 27.3609 71.8524C27.3609 71.7999 27.3609 71.7999 27.3609 71.7475ZM19.5463 18.5662C19.5988 18.5138 19.5988 18.4613 19.6512 18.4089C19.7037 18.4613 19.7561 18.4613 19.7561 18.5138C19.5988 18.6187 19.6512 18.6187 19.5463 18.5662ZM10.001 42.2723C10.0534 42.2198 10.0534 42.2198 10.1059 42.1674L10.1583 42.2198C10.1059 42.2723 9.94854 42.3247 10.001 42.2723ZM26.7316 2.30767C26.7316 2.25522 26.7316 2.25522 26.7316 2.20277C26.8889 2.25522 26.8889 2.20277 26.8889 2.30767C26.8365 2.30767 26.784 2.30767 26.7316 2.30767ZM23.7421 70.1741C23.6897 70.1216 23.6897 70.1216 23.7421 70.0692C23.7945 70.0692 23.7945 70.1216 23.7421 70.1741ZM9.47652 66.9748C9.47652 66.9224 9.37162 66.9224 9.47652 66.9224C9.58141 66.9224 9.47652 66.9224 9.47652 66.9748ZM78.759 18.776C78.8115 18.8285 78.8639 18.9334 78.8115 19.0383C78.6541 18.8809 78.7066 18.9334 78.759 18.776ZM40.8398 79.8243C40.7874 79.8243 40.7349 79.8243 40.6825 79.8768C40.6825 79.8243 40.6825 79.8243 40.6825 79.7719C40.8923 79.7194 40.8398 79.667 40.8398 79.8243ZM75.5597 30.4193C75.5073 30.4193 75.4548 30.4193 75.4548 30.4717C75.4548 30.4193 75.4548 30.4193 75.4548 30.4193C75.5073 30.3144 75.5073 30.3144 75.5597 30.4193ZM66.434 70.8034C66.434 70.8559 66.7486 70.8559 66.434 70.9608C66.434 70.9083 66.434 70.8559 66.434 70.8034ZM74.0912 79.8768C74.0388 79.8768 73.9863 79.9292 74.0388 79.8768C74.0388 79.7719 74.0388 79.8768 74.0912 79.8768ZM41.9412 0.367129C41.8888 0.367129 41.9412 0.52447 41.8888 0.367129C41.8888 0.262235 41.9412 0.367129 41.9412 0.367129ZM51.067 79.2474C51.1194 79.2474 51.1194 79.1425 51.1194 79.2474C51.1194 79.3523 51.1194 79.2474 51.067 79.2474ZM56.5215 2.72724C56.469 2.6748 56.469 2.6748 56.469 2.62235C56.469 2.72724 56.469 2.72724 56.5215 2.72724ZM12.938 15.1572C12.7807 15.1572 12.5709 15.1047 12.4135 15.1572C12.8331 14.8949 12.9905 14.9998 13.4625 15.2096C13.4625 15.2621 13.4625 15.2621 13.4625 15.3145C13.2527 15.2096 13.0954 15.2096 12.938 15.1572ZM17.8156 11.6957C17.7631 11.6432 17.7631 11.5908 17.8156 11.5383C17.8156 11.5908 17.868 11.6432 17.868 11.6957C17.868 11.6957 17.868 11.6957 17.8156 11.6957ZM11.0499 17.2026C11.1024 17.2026 11.1024 17.2551 11.1548 17.2551C11.0499 17.3075 11.1024 17.2551 11.0499 17.2026ZM15.5079 13.374C15.4555 13.3215 15.4555 13.2691 15.5604 13.2166C15.6653 13.374 15.5604 13.3215 15.5079 13.374ZM50.1229 4.87757C49.8083 5.50693 48.5495 4.66778 49.074 4.19576C49.3887 3.93352 50.3852 4.40555 50.1229 4.87757ZM46.8712 4.3531C46.8712 4.82512 45.4027 4.30065 45.3503 3.93352C45.2978 3.51395 46.8188 3.98597 46.8712 4.3531ZM38.1126 4.3531C38.1126 4.24821 38.1126 4.14331 38.1126 4.03842C38.4273 4.19576 38.6895 4.3531 39.0042 4.51044C38.7419 4.66778 38.4273 4.45799 38.1126 4.3531ZM41.4692 4.24821C41.1545 4.24821 41.2594 3.77618 41.4692 3.72374C41.7314 3.67129 41.7839 4.24821 41.4692 4.24821ZM35.1231 4.51044C35.1231 4.61534 35.0707 4.72023 35.0182 4.82512C34.8084 4.66778 34.8609 4.56289 34.8084 4.30065C34.9658 4.30065 35.0707 4.40555 35.1231 4.51044ZM35.9098 4.82512C35.7 4.56289 35.9098 4.45799 36.1196 4.66778C36.0672 4.72023 35.9623 4.77268 35.9098 4.82512ZM47.7104 4.51044C47.6579 4.45799 47.6055 4.40555 47.553 4.40555C47.7628 4.14331 47.8153 4.24821 47.7104 4.51044ZM76.7136 69.6496C76.8709 69.1251 77.7625 68.0762 78.0247 69.1776C78.0772 69.5447 77.815 69.9643 77.4478 70.1216C77.1331 70.279 77.0283 70.279 76.8709 70.0692C76.766 70.0167 76.6611 69.7545 76.7136 69.6496ZM69.371 9.91248C69.2661 10.6467 68.8465 11.1712 68.4269 11.7481C67.9025 12.4299 67.4305 13.1117 66.9584 13.7936C66.5389 14.3705 66.1193 15.1047 65.5948 15.5768C65.1752 16.0488 64.913 15.7865 64.3361 15.4719C62.8676 14.6327 61.2417 13.8985 59.8256 12.9544C58.4096 12.0628 56.8886 11.1712 55.3152 10.6467C54.6334 10.437 53.8991 10.2796 53.1649 10.1223C52.4306 9.96493 51.7488 9.65025 51.067 9.38801C50.3852 9.12578 49.5985 9.02088 48.8642 8.86354C48.5495 8.8111 48.2349 8.75865 47.8677 8.65375C47.6055 8.54886 47.3957 8.39152 47.081 8.49641C46.8188 8.60131 46.8712 8.91599 46.7139 9.07333C46.5566 9.28312 46.4517 9.23067 46.1894 9.23067C45.9796 9.23067 45.7698 9.28312 45.5601 9.23067C45.1929 9.12578 45.1929 8.75865 44.8782 8.54886C44.4062 8.23418 43.3048 8.39152 42.7804 8.39152C42.0461 8.44397 41.3118 8.44397 40.5776 8.44397C39.3189 8.44397 37.693 8.39152 36.5392 8.91599C36.0672 9.12578 36.4343 9.65025 35.9623 9.91248C35.7525 10.0174 35.3853 10.0174 35.1756 10.0698C34.756 10.1747 34.3364 10.3321 33.8644 10.437C33.5497 10.5418 33.2875 10.6467 32.9728 10.4894C32.6581 10.3321 32.5008 10.0698 32.0812 10.1223C31.4518 10.1747 31.0847 10.5418 30.6651 10.9614C30.298 11.381 30.4029 11.0139 29.826 10.8041C29.1966 10.5943 28.5148 10.9614 27.9903 11.1712C27.6756 11.2761 27.3609 11.2761 27.0463 11.381C26.7316 11.4859 26.4169 11.7481 26.1022 11.9055C25.4204 12.2202 24.7386 12.5873 24.0043 12.8495C23.3225 13.1117 22.6407 13.2691 22.326 13.9509C22.1687 14.318 22.1687 14.4229 21.8016 14.5803C21.5393 14.6852 21.2246 14.7376 20.9624 14.8949C20.7002 15.0523 20.5428 15.3145 20.333 15.5243C20.0184 15.839 19.6512 16.0488 19.3366 16.311C18.7596 16.783 18.1303 17.1502 17.5009 17.6222C17.1862 17.832 17.1338 18.0418 16.8715 18.304C16.6093 18.6187 16.2946 18.776 16.0324 19.0907C15.8226 19.3529 15.7177 19.6676 15.5604 19.9299C15.3506 20.2445 15.0359 20.297 14.7212 20.5068C14.4065 20.7166 14.2492 20.9264 14.0394 21.241C14.0394 21.2935 13.7772 21.6082 13.7772 21.7131C13.7772 21.8704 14.0394 22.0802 14.0394 22.29C14.0394 22.7095 13.6723 22.9193 13.4625 23.1816C12.9905 23.706 12.5184 24.3879 12.4135 25.1221C12.3087 25.699 12.3611 26.3284 11.8366 26.6955C11.4695 26.9578 11.4695 26.9053 11.2597 27.3249C11.1024 27.692 10.8926 28.0591 10.7877 28.4263C10.5255 29.1605 10.2632 29.8423 9.94854 30.5766C9.63386 31.3109 9.47652 32.0976 9.10939 32.7794C8.84715 33.2514 8.16534 33.5661 8.16534 34.143C8.16534 34.5626 8.48003 34.8773 8.37513 35.2968C8.21779 35.9786 7.79821 36.6604 7.53598 37.3423C7.43109 37.6045 7.32619 37.8143 7.37864 38.1814C7.48353 38.9681 7.32619 39.4926 7.16885 40.2793C7.06396 40.8562 6.90661 41.4856 6.85417 42.0625C6.85417 42.3247 6.95906 42.6394 6.95906 42.9016C6.95906 43.2688 6.69683 43.4261 6.53949 43.7408C6.38214 44.0555 6.11991 44.8946 6.27725 45.2618C6.48704 45.7338 7.43108 45.3142 7.32619 45.996C7.27374 46.2583 7.06396 46.3631 7.1164 46.6778C7.1164 46.8876 7.27374 47.0974 7.37864 47.3072C7.58843 47.989 6.85417 48.1988 6.85417 48.8806C6.90661 49.9295 8.32268 50.4016 8.42758 51.5029C8.48003 51.7652 8.32268 51.975 8.32268 52.2372C8.32268 52.4994 8.58492 52.9715 8.68981 53.2337C8.95205 53.9155 9.21428 54.5973 9.37162 55.3316C9.52896 56.0134 9.7912 56.5379 10.2108 57.1148C10.4206 57.377 10.5779 57.6917 10.7352 58.0064C10.8401 58.2686 11.1024 59.1078 11.3646 59.2127C11.994 59.4749 11.522 58.426 11.522 58.2686C11.3122 57.5344 11.2597 56.8001 10.9975 56.0658C10.8401 55.5938 10.2108 55.0169 10.3157 54.4924C10.4206 54.0204 11.0499 53.9155 10.6304 53.4435C10.473 53.2861 10.1583 53.2861 10.0534 53.0764C9.94854 52.919 9.94854 52.447 9.89609 52.2372C9.68631 51.5029 9.52896 50.7687 9.31918 50.0344C9.05694 49.0904 8.8996 48.1988 8.74226 47.2547C8.63737 46.4156 8.37513 45.4715 8.42758 44.6324C8.48003 44.003 8.74226 43.4786 8.74226 42.8492C8.74226 42.2198 8.74226 41.6429 8.79471 41.066C8.84715 40.4366 8.84715 39.5975 8.48002 39.073C7.95555 38.3912 8.37513 38.3388 8.84715 37.8143C9.58141 37.0276 9.47652 35.664 9.7912 34.615C10.001 33.9857 10.2108 33.3563 10.4206 32.7269C11.1548 30.4193 12.2562 28.2689 13.3051 26.1186C13.6723 25.3843 14.1967 24.8599 14.6163 24.1781C14.9835 23.6011 15.1932 22.9718 15.9275 22.762C15.6128 23.6011 14.9835 24.4403 14.459 25.1746C13.987 25.8564 13.1478 26.5382 12.9905 27.3773C12.938 27.7969 12.6758 28.1116 12.5184 28.5312C12.3611 28.9507 12.6233 29.2654 12.5184 29.6326C12.4135 29.9997 11.8366 30.4717 11.6793 30.8388C11.4171 31.3109 11.2597 31.7829 11.0499 32.2549C10.7352 33.2514 10.473 34.2479 10.3157 35.2444C10.2108 35.664 10.1583 36.0835 10.001 36.4507C9.7912 37.0276 9.73875 37.1325 9.89609 37.7094C10.001 38.0241 9.89609 37.9716 9.89609 38.2863C9.89609 38.601 10.001 38.6534 9.89609 38.9681C9.73875 39.2828 9.42407 39.545 9.7912 39.9122C9.94854 40.122 10.3681 40.2793 10.6304 40.2268C10.2632 40.122 9.58141 40.6464 9.42407 40.9611C9.10939 41.6429 9.42407 42.6394 9.47652 43.3737C9.52896 43.9506 9.31918 44.5799 9.37162 45.1569C9.42407 45.524 9.63386 45.7338 9.68631 46.0485C9.7912 46.468 9.63386 47.0974 9.68631 47.517C9.84365 48.933 10.1583 50.454 10.5255 51.8176C10.6304 52.2372 10.7352 52.6568 10.8926 53.0764C10.945 53.2861 11.0499 53.5484 11.2073 53.7582C11.2597 53.8631 11.6268 54.0729 11.6268 54.1253C11.6793 54.2302 11.522 54.5449 11.522 54.7022C11.5744 55.4365 12.1513 56.3281 12.466 57.0623C12.8856 58.0064 13.41 58.898 13.9345 59.842C14.4065 60.6812 14.931 61.4679 15.5079 62.2021C15.8226 62.6217 16.0324 62.6742 16.452 62.9364C16.7142 63.1462 16.6618 63.0937 16.6618 63.4609C16.6618 63.9329 16.7142 63.9329 17.0813 64.3C17.5009 64.772 17.7631 65.349 18.2352 65.821C19.5463 67.1846 20.8051 68.7056 22.3785 69.7545C23.3225 70.3839 24.2141 71.0657 25.1057 71.695C25.9973 72.3244 26.9938 72.8489 27.8854 73.4258C28.1477 73.5831 28.7246 73.7405 28.8819 74.0027C29.0917 74.3698 28.7246 74.5272 28.6721 74.8419C28.5672 75.4712 30.1931 75.9433 29.6686 74.7894C30.4029 74.6845 30.9273 75.1041 31.6092 75.3663C32.1861 75.6286 33.1301 75.7859 33.5497 76.3104C32.6581 76.4153 31.6092 75.209 30.7176 75.5761C30.4553 75.681 30.1406 76.153 30.3504 76.4153C30.5078 76.6251 31.1371 76.6775 31.3469 76.8873C32.1336 77.4642 33.1301 77.7789 34.0742 78.0411C34.4937 78.146 34.8609 78.0411 34.8084 78.5132C34.756 78.9327 34.3888 78.9852 34.8084 79.2999C35.1755 79.5621 35.8049 79.667 36.2245 79.8243C36.749 80.0341 37.221 80.3488 37.693 80.5586C38.165 80.7684 38.5846 80.6635 39.1091 80.7159C39.6335 80.7159 40.1056 80.8733 40.5776 81.0306C41.4692 81.2928 42.623 81.8698 43.5146 81.7124C43.8818 81.66 44.2489 81.5026 44.616 81.5026C45.1405 81.4502 45.665 81.5551 46.1894 81.5551C46.6614 81.5551 47.1859 81.4502 47.6579 81.4502C48.1824 81.4502 48.7069 81.6075 49.2313 81.6075C50.1229 81.6075 51.067 81.3453 51.9061 81.0306C52.2733 80.9257 52.6929 80.7684 53.06 80.7159C53.4796 80.6635 53.8991 80.8733 54.3187 80.7159C54.5809 80.611 54.7383 80.2964 55.1054 80.2964C55.3152 80.2964 55.4201 80.4012 55.6299 80.4537C56.0495 80.5061 56.0495 80.2964 56.3117 80.0341C56.6264 79.7719 57.1508 79.7194 57.3606 79.3523C57.518 78.9327 57.0984 78.5656 57.0984 78.1985C57.0984 77.7265 57.2557 77.7264 57.6229 77.5167C57.8851 77.3593 58.0949 77.2544 57.99 76.9922C57.8327 76.6251 57.2033 76.5726 57.2033 76.0481C57.2033 75.7335 57.518 75.2614 57.7802 75.1041C58.1473 74.8943 58.6194 74.9992 58.9865 74.8419C59.4061 74.6845 59.6159 74.3174 59.983 74.16C60.1403 74.1076 60.3501 74.1076 60.5075 74.0027C60.6648 73.8978 60.7172 73.6356 60.8746 73.5831C61.1368 73.4258 61.6088 73.4782 61.9235 73.3733C62.6578 73.0587 63.4969 71.7999 64.0739 73.1111C64.1787 73.3209 64.2312 73.9503 64.6508 73.7929C64.9654 73.6356 64.6508 73.1636 64.6508 72.9013C64.5983 72.6391 64.7032 72.0622 65.0703 72.0097C65.385 72.0097 65.9095 72.9013 65.8046 73.1636C65.6997 73.5307 65.0703 73.7929 64.7557 74.0027C64.3885 74.3174 64.0214 74.6321 63.6543 74.9468C63.2871 75.3139 62.92 75.6286 62.3955 75.681C62.1858 75.7335 61.8711 75.6286 61.6613 75.7335C61.4515 75.681 61.3466 75.7335 61.3466 75.9957C61.2942 76.153 61.2417 76.2579 61.1368 76.3628C60.6124 76.8349 59.2487 76.6775 59.8256 77.7789C59.983 78.0936 60.3501 78.5132 60.7172 78.4607C60.8746 78.4607 61.0844 78.1985 61.1893 78.0936C61.3466 77.9362 61.4515 77.7789 61.5564 77.6216C61.5564 77.5167 61.5564 77.4118 61.5039 77.3593C61.6088 77.0971 61.3991 77.2544 61.5564 77.0971C61.6613 76.9922 61.8711 76.9922 61.976 76.9922C62.3955 76.9922 62.6578 77.2544 63.0249 76.9922C63.3396 76.7824 63.2871 76.2579 63.6018 76.1006C63.7592 75.9957 63.969 76.1006 64.1263 76.1006C64.3885 76.1006 64.5459 75.9957 64.7557 75.8908C66.0668 75.2614 67.1158 74.2649 68.2696 73.4258C70.1577 72.0097 71.836 70.279 73.357 68.4958C74.1961 67.4993 74.773 66.5028 75.4024 65.349C75.7695 64.6671 76.3989 64.1951 76.6611 63.4609C76.8709 62.9888 76.8709 62.4119 77.1856 61.9923C77.6052 61.4679 78.0247 61.2056 78.2345 60.5238C78.3394 60.2616 78.7066 59.2127 77.9723 59.5798C77.7625 59.6847 77.5003 60.3665 77.3954 60.5763C77.0807 61.0483 76.8185 61.5203 76.4513 61.9923C75.7695 62.9888 75.0877 63.9853 74.4059 64.9294C73.6192 65.9783 72.7276 66.9224 71.836 67.8664C71.4689 68.286 71.0493 68.7056 70.6297 69.1251C70.3675 69.3874 69.9479 69.9643 69.5283 70.0167C69.3186 70.0167 69.1612 69.807 68.9514 69.807C68.7416 69.807 68.5843 70.0692 68.4794 70.2265C68.1123 70.6461 67.6927 70.9608 67.1682 71.2755C67.1682 70.5412 67.6402 70.5412 68.0074 70.0692C68.3221 69.5972 67.7976 69.2825 67.85 68.758C67.9025 68.3909 68.2172 68.2335 68.4794 68.0238C68.9514 67.7091 69.1612 67.2895 69.5283 66.8699C69.9479 66.3979 70.4724 66.0832 70.9444 65.6112C71.4689 65.1392 71.836 64.6671 72.2556 64.0902C72.4129 63.828 72.5703 63.6707 72.5703 63.356C72.5703 63.0413 72.5178 62.7791 72.6227 62.5168C72.8849 62.0448 73.4619 61.8875 73.9339 61.6777C75.0353 61.2056 75.4024 59.6847 75.822 58.6357C75.9269 58.3735 76.0318 58.0588 76.1891 57.7966C76.3465 57.5344 76.3465 57.377 76.4513 57.1148C76.5562 56.8525 76.766 56.6952 76.9234 56.4854C77.1331 56.2232 77.238 55.9085 77.3429 55.5938C78.1296 53.0764 78.8115 50.5589 79.0737 47.8841C79.808 41.0136 78.6017 33.9857 75.4024 27.692C74.9304 26.748 74.4059 25.9088 73.829 25.0172C73.6192 24.6501 73.5143 24.2305 73.2521 23.9158C73.0947 23.706 72.7801 23.6536 72.6227 23.3914C72.4654 23.234 72.4654 22.9718 72.3605 22.762C72.0982 22.1851 71.5738 21.6606 71.1542 21.1361C70.8395 20.7166 70.2626 19.9299 69.6857 20.1396C69.7906 19.248 68.6892 18.2516 67.9549 17.7795C67.2731 17.3075 65.1228 16.8355 65.2801 15.6817C65.385 15.1572 66.0668 14.5278 66.3815 14.1082C66.8011 13.5313 67.2207 13.0069 67.6402 12.4299C67.85 12.1677 68.1647 11.4859 68.6367 11.5908C69.0563 11.6957 69.4234 12.5348 69.7906 12.8495C70.0004 13.0069 70.3675 13.1117 70.5248 13.3215C70.6822 13.5313 70.7346 13.7936 70.8395 14.0033C71.1542 14.5803 71.6787 14.9998 72.0458 15.4719C72.4654 16.0488 72.6227 16.1012 73.2521 16.311C73.8814 16.4684 74.1961 17.0453 74.5632 17.5173C74.9304 18.0418 75.4024 18.4613 75.7695 18.9858C76.1891 19.5627 76.5038 20.1396 76.9758 20.7166C77.3429 21.1361 77.6576 21.6606 77.815 22.1851C77.9199 22.6047 77.9199 23.5487 78.3919 23.7585C78.5492 23.8109 78.7066 23.706 78.8639 23.7585C79.1261 23.8634 79.3359 24.5976 79.4408 24.8074C79.7555 25.4368 80.0702 26.1711 80.4898 26.6955C80.8569 27.1151 81.5911 27.1675 81.6436 27.7969C81.696 28.0591 81.4863 28.2689 81.6436 28.4787C81.8009 28.741 82.1681 28.741 82.3779 28.8458C82.3779 27.9018 81.9058 26.5382 81.5387 25.6466C81.3289 25.1746 80.8569 24.6501 80.8569 24.1256C80.8569 23.3914 81.3289 23.8109 81.5387 24.2305C82.3779 25.7515 83.0597 27.2724 83.6366 28.8983C83.7939 29.3179 83.9513 29.7374 84.1086 30.1046C84.2659 30.4717 84.6331 31.3633 85.1575 31.1011C85.5247 30.9437 85.3673 30.5766 85.3149 30.2619C85.2624 29.9472 85.3149 29.6326 85.1575 29.3703C85.0002 29.1081 84.7904 29.1081 84.6855 28.7934C84.5806 28.5836 84.5806 28.2689 84.5282 28.0591C84.4233 27.4822 84.3184 26.8004 84.1086 26.2759C83.8464 25.699 83.5317 25.2795 83.4268 24.6501C83.689 24.8074 84.1086 24.9123 84.2659 25.1746C84.4233 25.3843 84.3184 25.5417 84.3708 25.7515C84.4757 26.0137 84.6855 26.0662 84.7904 26.3284C85.0002 26.748 84.7904 27.3249 84.8429 27.7445C84.8953 28.4263 85.21 28.6885 85.7345 29.0556C86.2589 29.4752 85.8918 29.5277 85.8918 30.0521C85.9443 30.5242 86.5212 30.6815 86.6785 31.1535C87.3079 32.5696 87.5701 34.1954 87.8323 35.664C88.0421 37.0276 88.3044 38.4436 88.3568 39.8073C88.3568 40.4891 88.3568 41.1709 88.3568 41.8527C88.3568 42.587 88.147 43.3737 88.2519 44.1079C88.3044 44.6848 88.4617 45.2093 88.5142 45.8387C88.5142 46.4156 88.5666 46.9925 88.5142 47.5694C88.4617 48.1988 88.4093 48.8282 88.3568 49.4575C88.3568 49.6673 88.3568 49.9295 88.3044 50.1393C88.147 50.7687 87.6226 50.6638 87.8848 51.2932C88.3568 52.3421 87.6226 53.6533 87.4128 54.7022C86.9407 57.0099 86.154 59.2127 85.0527 61.2581C84.8953 61.5203 84.738 61.7826 84.6331 62.0972C84.4233 62.5168 84.3708 62.9364 84.2135 63.4084C84.0562 63.9329 83.689 64.3525 83.3743 64.772C82.9548 65.349 82.6925 65.8734 82.3779 66.5028C81.8009 67.7091 80.8044 68.6531 80.28 69.9118C80.0177 70.4888 79.6506 70.9083 79.231 71.3804C78.759 71.9048 78.3394 72.5342 77.815 73.0062C77.3954 73.3733 76.7136 73.4782 76.4513 73.9503C76.294 74.2649 76.294 74.5796 76.1367 74.8943C75.9793 75.209 75.7171 75.4712 75.4548 75.7335C74.8255 76.4153 74.1961 77.0971 73.4619 77.674C72.8849 78.146 72.3605 78.5656 71.7836 79.0376C71.6787 79.1425 71.5213 79.2474 71.4164 79.3523C71.0493 79.6145 70.2102 79.6145 70.2102 78.9852C70.2102 78.8278 70.5773 77.8313 70.7346 77.7264C70.892 77.6216 71.2066 77.7789 71.4164 77.7264C71.6787 77.7264 71.8885 77.6216 72.0458 77.4642C72.4654 77.0971 72.6227 76.5726 73.1996 76.3104C73.4619 76.2055 73.6717 76.2055 73.829 75.9433C73.9339 75.681 73.7766 75.3139 73.9863 75.1041C74.0912 74.9992 74.4059 75.0517 74.5632 74.9992C74.773 74.9468 74.8779 74.7894 75.0353 74.6321C75.2451 74.3698 75.7695 74.0027 75.822 73.6356C75.8744 73.3733 75.5597 72.7964 75.2451 72.6915C74.773 72.5342 74.301 73.3733 73.8814 73.5307C73.3045 73.8454 73.0947 73.8454 72.8849 74.4747C72.7801 74.7894 72.5703 74.9468 72.308 75.209C71.836 75.681 71.3115 76.1006 70.7871 76.5202C70.2626 76.9397 69.7381 77.3069 69.1612 77.674C68.6367 77.9887 68.3221 78.5656 67.6927 78.7754C67.1682 78.9327 66.2766 78.8278 65.857 79.0376C65.3326 79.2999 66.0144 79.7194 66.2766 80.0341C66.5389 80.4013 66.8535 80.7159 67.378 80.7159C67.5353 80.7159 67.9549 80.4537 68.0598 80.5061C68.2172 80.5586 68.2696 81.188 68.2696 81.3453C68.0598 82.3942 65.8046 82.8662 64.913 82.5516C64.1263 82.2369 64.8606 82.132 65.2277 81.9747C65.6997 81.7649 66.0668 81.188 65.857 80.6635C65.5424 79.8768 64.8081 80.139 64.2312 80.2439C63.6543 80.3488 62.8676 80.4012 62.3955 80.6635C61.8711 80.9782 61.976 81.5551 61.7662 82.0271C61.6613 82.2893 61.3991 82.2893 61.2942 82.5516C61.1893 82.8662 61.4515 82.8663 61.7137 82.9711C62.0284 83.076 62.2906 83.1285 62.6053 83.2334C62.92 83.3383 63.5494 83.076 63.7067 83.4432C64.1787 84.3872 61.1893 84.4921 60.7697 84.5446C60.1403 84.597 59.4061 84.6495 58.934 85.1215C58.4096 85.5935 58.3571 85.9082 57.6229 86.118C57.1508 86.2229 56.5739 86.4851 56.1019 86.5375C55.4725 86.6424 55.4201 86.1704 54.8956 86.0131C54.5285 85.8557 53.3747 85.8033 53.06 86.0655C52.5355 86.4327 53.1124 87.1669 52.6404 87.534C52.2733 87.7963 51.3292 87.7963 50.9097 87.8487C50.1754 87.9012 49.4411 87.8487 48.7069 87.8487C48.1824 87.8487 47.3957 88.0061 46.9237 87.7963C46.6614 87.6389 46.5566 87.4816 46.1894 87.3767C45.9272 87.3243 45.665 87.3242 45.4027 87.2718C45.1405 87.062 44.8258 88.111 44.6685 88.1634C44.4587 88.3207 43.7769 88.1634 43.5146 88.1634C43.095 88.1634 42.6755 88.1634 42.2559 88.111C41.679 88.0585 41.1545 88.0061 40.5776 87.9536C38.2175 87.6914 35.8574 87.2718 33.5497 86.7473C32.1336 86.4326 30.9273 85.6984 29.5637 85.2264C28.1476 84.7543 26.8365 84.4397 25.5253 83.7579C24.8959 83.3907 24.2141 83.0236 23.5848 82.604C23.0603 82.2893 22.4309 82.0271 22.0114 81.5551C21.8016 81.2928 21.7491 80.4537 21.5393 80.3488C21.1722 80.1915 21.0149 80.7159 20.5428 80.5586C20.0708 80.3488 19.5463 79.8243 19.3366 79.3523C19.0219 78.618 19.389 78.618 19.7561 78.146C19.9659 77.8838 19.861 77.5691 20.333 77.7264C20.5428 77.7789 20.8051 78.0411 21.0149 78.146C21.2771 78.3034 21.4869 78.4607 21.7491 78.618C21.9589 78.7754 22.4834 79.2474 22.7456 79.2474C23.6372 79.2999 22.2736 78.3558 22.1162 78.1985C21.5393 77.7789 20.9624 77.3593 20.4379 76.9397C19.861 76.4677 19.2841 76.2579 18.6547 75.9433C17.4485 75.3663 16.2422 74.1076 15.2981 73.216C14.3016 72.272 13.5674 71.1706 12.6233 70.1741C10.8401 68.2335 9.58141 65.9259 8.21779 63.6707C7.69332 62.8315 7.37864 61.9399 6.90661 61.1532C6.59193 60.6812 6.59193 60.314 6.43459 59.7896C6.3297 59.2127 6.01502 58.5833 5.80523 58.0588C5.59544 57.5344 5.28076 57.2197 4.96608 56.8001C4.5465 56.2756 4.65139 55.9609 4.59895 55.3316C4.5465 54.912 4.23182 54.5449 4.07448 54.1777C3.81224 53.6533 3.91714 53.0764 3.75979 52.4994C3.60245 51.975 3.34022 51.4505 3.18288 50.926C2.97309 50.3491 3.13043 49.8246 3.02554 49.2477C2.8682 47.9366 2.60596 46.6254 2.50107 45.3142C2.39617 44.003 2.44862 42.6919 2.50107 41.4331C2.50107 40.4366 2.65841 39.4401 2.81575 38.4436C2.8682 37.8143 2.97309 37.1849 3.07798 36.5556C3.34022 35.2444 3.49756 33.8808 3.86469 32.5696C4.02203 31.9402 4.17937 31.2584 4.28426 30.629C4.38916 30.157 4.70384 29.213 4.28426 28.7934C4.44161 28.6885 4.65139 28.8458 4.33671 28.8458C4.23182 28.8458 3.96958 29.0032 3.91714 29.0032C3.6549 29.1605 3.55001 29.3179 3.44511 29.6326C3.23532 30.2619 3.07798 30.9437 2.8682 31.5731C2.44862 32.7794 2.39617 34.0381 2.23883 35.3493C2.18638 35.9262 1.9766 36.5031 1.8717 37.08C1.76681 37.6569 2.08149 38.2339 2.08149 38.8108C2.08149 39.0206 2.08149 39.2828 1.9766 39.4401C1.8717 39.5975 1.60947 39.7548 1.60947 39.9646C1.60947 40.2268 1.81926 40.2268 1.92415 40.4366C2.08149 40.6989 2.08149 41.0136 2.08149 41.3282C2.08149 42.4296 1.18989 43.3212 1.39968 44.4751C1.50457 44.9995 1.9766 45.4191 1.92415 45.9436C1.92415 46.2058 1.76681 46.468 1.71436 46.7303C1.66191 47.0974 1.71436 47.4645 1.76681 47.7792C1.81926 48.4086 1.76681 49.0379 1.92415 49.6673C2.02904 50.3491 2.34373 50.9785 2.55351 51.6603C2.97309 52.9715 3.23532 54.3875 3.34022 55.7512C3.39267 56.2756 3.55001 56.6952 3.81224 57.1672C3.96958 57.4819 4.28426 57.6393 4.49405 57.9015C4.75629 58.3211 4.44161 58.426 4.49405 58.8455C4.49405 59.1078 4.80873 59.5273 4.91363 59.7371C5.28076 60.6287 5.70033 61.4154 6.11991 62.307C6.3297 62.7791 6.48704 63.3035 6.74927 63.7231C7.06396 64.2476 7.58843 64.1427 7.69332 64.6672C7.85066 65.7685 8.42758 66.4503 9.26673 67.2895C9.73875 67.7615 10.2108 68.1811 10.5255 68.7056C10.945 69.3349 11.522 69.807 11.994 70.3839C12.8331 71.4328 13.5674 72.4818 14.459 73.4782C15.4555 74.5796 16.5044 75.7335 17.6058 76.7824C17.7631 76.9397 18.3401 77.3069 17.9205 77.5691C17.5534 77.7789 17.1338 77.1495 16.9764 76.9397C16.6093 76.4153 16.0848 76.4677 15.5604 76.153C14.9835 75.7859 14.7212 75.1041 14.3016 74.5796C13.5149 73.5307 12.2038 72.9013 11.3646 71.9048C9.94854 70.1741 8.79471 68.3384 7.64087 66.4503C6.59193 64.7196 5.17586 63.1462 4.28426 61.3105C3.44511 59.5798 2.60596 57.7966 2.08149 56.0134C1.71436 54.7022 1.55702 53.2861 1.39968 51.9225C1.34723 51.2932 1.29479 50.6114 1.18989 49.982C1.13744 49.7198 1.085 49.4575 1.13744 49.1953C1.18989 48.933 1.39968 48.7233 1.34723 48.461C1.29479 48.0415 0.665421 47.3596 0.50808 46.9925C0.245845 46.3631 0.0885043 45.7338 0.0360573 45.1044C-0.0688367 43.9506 0.0885043 42.7968 0.0885043 41.5905C0.0885043 40.2793 0.193398 38.9681 0.298292 37.6569C0.403186 36.3982 0.770315 35.1919 0.665421 33.9332C0.612974 33.6185 0.560527 33.3563 0.717868 33.0941C0.822762 32.8843 1.085 32.8318 1.18989 32.5696C1.60947 31.8353 1.66191 30.9437 1.71436 30.2619C1.76681 29.685 1.76681 29.0032 1.9766 28.4787C2.08149 28.2165 2.29128 28.0067 2.39617 27.7445C2.55351 27.3773 2.55351 26.9578 2.60596 26.5906C2.65841 26.3284 2.71085 26.1186 2.81575 25.9088C2.97309 25.5941 3.28777 25.4368 3.44511 25.1746C3.70735 24.6501 3.86469 23.8634 4.02203 23.2865C4.12692 22.8669 4.44161 22.4473 4.5465 22.0277C4.65139 21.4508 4.33671 21.1886 4.91363 20.8739C5.3332 20.6117 5.54299 20.5592 5.85767 20.1396C6.06746 19.8774 6.27725 19.6152 6.43459 19.4054C6.85417 18.9334 7.2213 18.3564 7.64087 17.8844C7.85066 17.6746 8.1129 17.5173 8.27024 17.2551C8.53247 16.9404 8.48002 16.6257 8.68981 16.311C8.79471 16.1537 9.16184 15.9963 9.31918 15.9439C9.58141 15.7865 9.84365 15.5768 10.0534 15.367C10.5779 14.9474 10.9975 14.4229 11.4171 13.9509C12.2562 13.0593 13.0954 12.2202 13.987 11.381C15.3506 10.0698 17.0289 8.8111 18.7072 7.9195C19.9659 7.23769 21.1722 6.60832 22.326 5.76917C23.2701 5.03491 24.6337 4.72023 25.7351 4.30065C27.4658 3.67129 29.1966 3.09437 31.0322 2.6748C32.5532 2.36011 34.0217 2.25522 35.5951 2.09788C36.749 1.94054 37.9028 1.6783 39.1091 1.46852C39.8958 1.36362 41.6265 1.25873 41.9412 0.472023C42.623 1.31117 43.9866 1.41607 44.9307 1.36362C45.5601 1.31117 45.8747 1.15383 46.3468 0.839152C46.7139 0.576917 46.609 0.734258 47.0286 1.04894C47.4482 1.36362 47.9202 1.41607 48.4446 1.41607C49.0216 1.41607 49.4936 1.15383 50.0705 1.20628C50.595 1.25873 51.0145 1.52096 51.4866 1.6783C51.7488 1.7832 52.0635 1.73075 52.3257 1.83564C52.588 1.94054 52.6928 2.09788 52.9551 2.25522C53.4271 2.5699 54.1089 2.62235 54.6334 2.77969C55.3152 2.98948 55.997 3.25171 56.6788 3.4615C56.9411 3.5664 57.2033 3.61884 57.4655 3.67129C57.7802 3.67129 57.9375 3.51395 58.1998 3.51395C58.8291 3.40905 58.5145 3.88108 58.8816 3.98597C59.1963 4.03842 59.3012 3.4615 59.6159 3.61884C59.7732 3.67129 59.8781 3.98597 59.983 4.09087C60.1928 4.30065 60.5075 4.40555 60.8221 4.45799C61.3991 4.56289 61.9235 4.40555 62.3955 4.87757C63.0249 5.45449 63.4445 5.71672 64.2312 5.97896C64.913 6.18875 65.4899 6.60832 65.9619 7.13279C66.3291 7.60482 66.3815 8.18173 67.0109 8.39152C67.3256 8.49641 67.5878 8.44397 67.9025 8.60131C68.2696 8.8111 68.4794 9.07333 68.899 9.17822C69.5808 9.28312 69.4234 9.33557 69.371 9.91248Z" fill="#1F3773"/>
<path d="M39.4775 48.933C40.3175 48.933 40.9985 48.2521 40.9985 47.4121C40.9985 46.5721 40.3175 45.8911 39.4775 45.8911C38.6375 45.8911 37.9565 46.5721 37.9565 47.4121C37.9565 48.2521 38.6375 48.933 39.4775 48.933Z" fill="#1F3773"/>
<path d="M44.0932 57.0097C44.9332 57.0097 45.6142 56.3287 45.6142 55.4887C45.6142 54.6487 44.9332 53.9678 44.0932 53.9678C43.2532 53.9678 42.5723 54.6487 42.5723 55.4887C42.5723 56.3287 43.2532 57.0097 44.0932 57.0097Z" fill="#1F3773"/>
<path d="M32.3442 69.2824C33.1842 69.2824 33.8652 68.6014 33.8652 67.7614C33.8652 66.9214 33.1842 66.2405 32.3442 66.2405C31.5042 66.2405 30.8232 66.9214 30.8232 67.7614C30.8232 68.6014 31.5042 69.2824 32.3442 69.2824Z" fill="#1F3773"/>
<path d="M38.8486 64.5097C39.6886 64.5097 40.3696 63.8287 40.3696 62.9887C40.3696 62.1487 39.6886 61.4678 38.8486 61.4678C38.0086 61.4678 37.3276 62.1487 37.3276 62.9887C37.3276 63.8287 38.0086 64.5097 38.8486 64.5097Z" fill="#1F3773"/>
<path d="M52.1694 71.2754C53.0094 71.2754 53.6904 70.5945 53.6904 69.7545C53.6904 68.9145 53.0094 68.2335 52.1694 68.2335C51.3294 68.2335 50.6484 68.9145 50.6484 69.7545C50.6484 70.5945 51.3294 71.2754 52.1694 71.2754Z" fill="#1F3773"/>
<path d="M50.5439 60.7859C51.3839 60.7859 52.0649 60.105 52.0649 59.265C52.0649 58.425 51.3839 57.744 50.5439 57.744C49.7039 57.744 49.0229 58.425 49.0229 59.265C49.0229 60.105 49.7039 60.7859 50.5439 60.7859Z" fill="#1F3773"/>
<path d="M47.6064 65.2963C48.4464 65.2963 49.1274 64.6154 49.1274 63.7754C49.1274 62.9354 48.4464 62.2544 47.6064 62.2544C46.7664 62.2544 46.0854 62.9354 46.0854 63.7754C46.0854 64.6154 46.7664 65.2963 47.6064 65.2963Z" fill="#1F3773"/>
<path d="M57.5713 66.3978C58.4113 66.3978 59.0922 65.7168 59.0922 64.8768C59.0922 64.0368 58.4113 63.3558 57.5713 63.3558C56.7313 63.3558 56.0503 64.0368 56.0503 64.8768C56.0503 65.7168 56.7313 66.3978 57.5713 66.3978Z" fill="#1F3773"/>
<path d="M48.0781 49.6672C48.9181 49.6672 49.5991 48.9862 49.5991 48.1462C49.5991 47.3062 48.9181 46.6252 48.0781 46.6252C47.2381 46.6252 46.5571 47.3062 46.5571 48.1462C46.5571 48.9862 47.2381 49.6672 48.0781 49.6672Z" fill="#1F3773"/>
<path d="M38.8486 56.3279C39.6886 56.3279 40.3696 55.647 40.3696 54.807C40.3696 53.967 39.6886 53.286 38.8486 53.286C38.0086 53.286 37.3276 53.967 37.3276 54.807C37.3276 55.647 38.0086 56.3279 38.8486 56.3279Z" fill="#1F3773"/>
<path d="M62.5025 24.1255C64.6004 24.1255 66.7507 24.9122 68.3765 26.5381C71.6283 29.7898 71.6283 35.0345 68.3765 38.2338L57.5725 49.0379L56.9431 48.4085C57.1529 48.356 57.3627 48.2511 57.5725 48.2511C57.6249 48.2511 57.6774 48.2511 57.6774 48.2511C57.7298 48.2511 57.8347 48.0938 57.7823 48.0938C57.7298 47.9889 57.6774 47.884 57.6249 47.7791L57.5725 47.8316C57.3102 47.6218 56.9431 47.412 56.7333 47.1498C56.6284 46.94 56.4711 46.8351 56.3662 46.8351C56.2613 46.8351 56.1564 46.94 56.0515 47.0973C55.9991 47.2022 55.9991 47.3071 55.9466 47.4644L53.9012 45.419C54.2159 45.2092 54.5305 44.9994 55.0026 44.6847C54.6879 44.475 54.4256 44.1603 54.2159 44.1603H54.1634C53.9536 44.2127 53.7438 44.6323 53.5865 44.947C53.5865 44.9994 53.534 44.9994 53.534 45.0519L50.5446 42.0624V42.01H50.4921L46.0866 37.6044C46.2439 37.552 46.4537 37.4995 46.611 37.4995C46.611 37.3422 46.611 37.1848 46.611 37.0275C46.4013 37.0799 46.1915 37.0799 45.9817 37.1324L53.1145 29.9996C53.1669 30.1045 53.2718 30.2094 53.3243 30.2094C53.4291 30.1569 53.5865 29.9996 53.6389 29.8947C53.6389 29.8422 53.5865 29.7374 53.534 29.58L56.576 26.5381C58.2543 24.9647 60.3522 24.1255 62.5025 24.1255ZM62.5025 22.3948C59.8277 22.3948 57.3102 23.4437 55.4221 25.3318L52.3802 28.3737C52.3278 28.4262 52.2229 28.5311 52.1704 28.5835C52.118 28.636 52.0131 28.6884 51.9606 28.7933L44.7754 35.9261C44.3034 36.3981 44.146 37.0799 44.3558 37.6569C44.3558 38.0764 44.5656 38.5485 44.8803 38.8631L49.2858 43.2687C49.2858 43.2687 49.2858 43.2687 49.3383 43.3211C49.3383 43.3211 49.3383 43.3211 49.3907 43.3736L52.3802 46.3631C52.4327 46.4155 52.5376 46.4679 52.59 46.5204C52.6424 46.5728 52.6949 46.6777 52.7473 46.7302L54.7928 48.7756C54.9501 48.933 55.1599 49.0903 55.3697 49.1427C55.4746 49.3525 55.5795 49.5623 55.7368 49.7197L56.3662 50.349C56.6809 50.6637 57.1529 50.8735 57.6249 50.8735C58.0969 50.8735 58.5165 50.6637 58.8836 50.349L69.6877 39.5449C71.5758 37.6569 72.6247 35.1394 72.6247 32.4646C72.6247 29.7898 71.5758 27.2723 69.6877 25.3843C67.6947 23.4437 65.1773 22.3948 62.5025 22.3948Z" fill="#1F3773"/>
<path d="M56.2616 30.5765C56.314 30.5765 56.314 30.5765 56.2616 30.5765C56.2616 30.629 56.2616 30.629 56.2616 30.6814C56.2616 30.629 56.2091 30.629 56.2616 30.5765Z" fill="#1F3773"/>
<path d="M53.8481 37.0275C53.9005 37.0275 53.953 37.0275 54.0054 37.0275C53.953 37.1848 53.953 37.2897 53.9005 37.447C53.8481 37.447 53.7956 37.447 53.7432 37.447C53.7956 37.2897 53.8481 37.1848 53.8481 37.0275Z" fill="#1F3773"/>
<path d="M53.9524 41.8525C54.0048 42.0099 54.1097 42.2197 54.1622 42.377C54.0573 42.4295 53.8999 42.4819 53.795 42.5868C53.7426 42.377 53.6901 42.1672 53.6377 42.0099C53.795 41.9574 53.8475 41.905 53.9524 41.8525Z" fill="#1F3773"/>
<path d="M49.8093 34.3527C49.8617 34.3002 49.9142 34.3002 49.9666 34.2478C49.9666 34.3527 49.9666 34.4051 49.9666 34.51C49.9666 34.51 49.8617 34.5625 49.7568 34.5625C49.7568 34.4576 49.7568 34.4051 49.8093 34.3527Z" fill="#1F3773"/>
<path d="M47.712 36.975C47.6071 36.9226 47.6071 36.7128 47.5547 36.503C47.7645 36.4506 47.9743 36.3981 48.0267 36.4506C48.0792 36.5555 48.0792 36.7128 48.1316 36.8701C47.9743 36.9226 47.7645 37.0275 47.712 36.975Z" fill="#1F3773"/>
<path d="M48.8143 39.9645C48.7618 39.9645 48.7094 39.9645 48.6045 39.9645C48.6045 39.8071 48.6045 39.7022 48.6045 39.5449C48.7094 39.5449 48.7618 39.5449 48.8667 39.4924C48.8143 39.6498 48.8143 39.8071 48.8143 39.9645Z" fill="#1F3773"/>
<path d="M49.9143 36.3456C49.8094 36.2932 49.7045 36.1883 49.5996 36.1359C49.6521 36.0834 49.6521 36.031 49.7045 35.9785C49.8094 36.031 49.9667 36.0834 50.0716 36.1359C50.0192 36.1883 49.9667 36.2932 49.9143 36.3456Z" fill="#1F3773"/>
<path d="M51.017 42.4821C50.9646 42.4296 50.9646 42.4296 50.9121 42.3772C51.017 42.2723 51.1219 42.1674 51.2268 42.0625C51.2792 42.1149 51.2792 42.1149 51.3317 42.1674C51.2268 42.2723 51.1219 42.3772 51.017 42.4821Z" fill="#1F3773"/>
<path d="M51.3824 39.7024C51.3824 39.7548 51.225 39.7548 51.1726 39.8073C51.1726 39.7024 51.1201 39.5975 51.1201 39.545C51.1201 39.4926 51.2775 39.4401 51.3824 39.3877C51.3824 39.545 51.4348 39.6499 51.3824 39.7024Z" fill="#1F3773"/>
<path d="M51.1726 38.7582C50.9628 38.8106 50.5957 38.5484 50.5957 38.3911C50.6482 37.6044 51.2251 37.4995 51.802 37.2897C51.9069 37.9715 51.8544 38.5484 51.1726 38.7582Z" fill="#1F3773"/>
<path d="M52.2224 41.7477C52.2224 41.9575 52.17 42.1673 52.17 42.3771C52.0126 42.3771 51.8028 42.3771 51.6455 42.3246C51.8553 42.0624 52.0651 41.8526 52.2224 41.7477C52.2224 41.6953 52.2224 41.6953 52.2224 41.7477C52.2224 41.6953 52.2224 41.6953 52.2224 41.7477Z" fill="#1F3773"/>
<path d="M52.38 33.4611C52.3275 33.566 52.2226 33.6184 52.0653 33.7233C52.0653 33.5135 52.0129 33.3562 52.0653 33.3037C52.1177 33.2513 52.2751 33.1989 52.3275 33.1989C52.38 33.2513 52.4324 33.4086 52.38 33.4611Z" fill="#1F3773"/>
<path d="M52.6426 31.4681C52.695 31.4681 52.695 31.4156 52.7475 31.4156C52.7999 31.4156 52.7999 31.4681 52.7999 31.5205C52.7475 31.5205 52.7475 31.573 52.695 31.573C52.695 31.5205 52.6426 31.5205 52.6426 31.4681Z" fill="#1F3773"/>
<path d="M52.8005 35.3492C52.8005 35.2967 52.748 35.2443 52.748 35.1919C52.748 35.1919 52.8005 35.1394 52.8529 35.1394C52.8529 35.1919 52.9054 35.2443 52.9054 35.2967C52.8529 35.2443 52.8005 35.2967 52.8005 35.3492Z" fill="#1F3773"/>
<path d="M53.0107 41.9576V41.9052H53.0632L53.0107 41.9576Z" fill="#1F3773"/>
<path d="M54.112 43.5833C53.7973 43.4259 53.4827 43.2686 53.168 43.1112C53.2204 43.0063 53.2729 42.9539 53.3253 42.849C53.5875 42.849 53.9022 42.849 54.3218 42.849C54.2694 43.1112 54.2169 43.321 54.112 43.5833Z" fill="#1F3773"/>
<path d="M54.6868 43.6882C54.6343 43.7406 54.6344 43.7406 54.5819 43.7931C54.5819 43.7406 54.5295 43.6882 54.5819 43.6882C54.5819 43.6357 54.6343 43.6357 54.6868 43.6357V43.6882Z" fill="#1F3773"/>
<path d="M54.793 43.1638V43.1113H54.8454V43.1638C54.793 43.1638 54.793 43.1638 54.793 43.1638Z" fill="#1F3773"/>
<path d="M55.1059 45.6288C55.1059 45.6288 55.0534 45.6288 55.001 45.6813C55.001 45.6288 55.001 45.5764 55.0534 45.5764C55.0534 45.5764 55.1059 45.5764 55.1583 45.5239C55.1583 45.5764 55.1583 45.6288 55.1059 45.6288Z" fill="#1F3773"/>
<path d="M55.2644 34.9294C55.0546 34.877 54.8973 34.7721 54.6875 34.7196C54.7399 34.5623 54.8448 34.4049 54.8973 34.3C55.0546 34.4049 55.2644 34.5098 55.4218 34.6147C55.3693 34.7196 55.3169 34.8245 55.2644 34.9294Z" fill="#1F3773"/>
<path d="M55.788 46.4155C55.7356 46.4155 55.6831 46.4155 55.6831 46.4155C55.6831 46.3631 55.6831 46.3106 55.6831 46.2582C55.7356 46.2582 55.7356 46.2582 55.788 46.2582C55.8404 46.2582 55.788 46.3631 55.788 46.4155Z" fill="#1F3773"/>
<path d="M55.7898 41.0135C55.7373 40.9086 55.7373 40.8562 55.7373 40.8037C55.7373 40.7513 55.8422 40.6989 55.8946 40.6989C55.9471 40.6989 55.9471 40.8037 55.9471 40.8562C55.8946 40.9086 55.8422 40.9611 55.7898 41.0135Z" fill="#1F3773"/>
<path d="M56.0502 38.968C55.9978 38.6533 55.9978 38.2862 55.9453 37.9715C56.0502 37.919 56.1027 37.919 56.2075 37.8666C56.26 38.1288 56.3649 38.391 56.4173 38.6533C56.4173 38.7582 56.1551 38.8631 56.0502 38.968Z" fill="#1F3773"/>
<path d="M56.4714 37.8142H56.4189V37.7617H56.4714C56.4714 37.7617 56.5238 37.8142 56.4714 37.8142Z" fill="#1F3773"/>
<path d="M56.785 34.3526C56.7325 34.3526 56.6801 34.3526 56.5752 34.3526C56.6276 34.1953 56.6276 33.9855 56.6801 33.8281C56.7325 33.8281 56.785 33.8281 56.8374 33.8281C56.8374 34.0379 56.8374 34.1953 56.785 34.3526Z" fill="#1F3773"/>
<path d="M57.1523 37.8667V37.8142H57.2048V37.8667C57.2048 37.8667 57.2048 37.8667 57.1523 37.8667Z" fill="#1F3773"/>
<path d="M59.0939 29.3177C59.1463 29.3177 59.1988 29.4226 59.1988 29.4751C59.1988 29.5275 59.0939 29.58 59.0414 29.58C58.989 29.58 58.989 29.4751 58.9365 29.4226C58.989 29.4226 59.0414 29.3177 59.0939 29.3177Z" fill="#1F3773"/>
<path d="M57.9909 33.7233C57.9909 33.7233 58.0434 33.7233 58.0958 33.6709C58.0958 33.7233 58.0958 33.8282 58.0958 33.8807C58.0434 33.8807 57.9909 33.8807 57.9385 33.9331C57.9385 33.8282 57.9385 33.7758 57.9909 33.7233Z" fill="#1F3773"/>
<path d="M57.9909 41.0659V41.1184L57.9385 41.0659H57.9909Z" fill="#1F3773"/>
<path d="M58.0976 46.3631C57.9927 46.2582 57.8354 46.1533 57.7305 46.0485C57.7829 45.996 57.8354 45.9436 57.8878 45.8911C57.9927 45.996 58.0976 46.1009 58.2025 46.2058C58.15 46.2582 58.0976 46.3107 58.0976 46.3631Z" fill="#1F3773"/>
<path d="M58.5695 28.4261C58.517 28.4261 58.4646 28.3737 58.4121 28.2688C58.5695 28.1639 58.6743 28.1115 58.7268 28.1115C58.7268 28.1115 58.8317 28.2163 58.7792 28.2688C58.7268 28.3212 58.6743 28.4261 58.5695 28.4261Z" fill="#1F3773"/>
<path d="M59.197 47.1499C59.197 47.1499 59.1445 47.1499 59.197 47.1499C59.1445 47.1499 59.1445 47.1499 59.1445 47.0974H59.197C59.197 47.0974 59.197 47.1499 59.197 47.1499Z" fill="#1F3773"/>
<path d="M59.145 30.7863C59.0402 30.7338 58.9877 30.6289 58.8828 30.4716C59.0402 30.3667 59.1975 30.2618 59.2499 30.3142C59.3548 30.3667 59.3548 30.524 59.4597 30.6289C59.3548 30.6814 59.1975 30.7863 59.145 30.7863Z" fill="#1F3773"/>
<path d="M59.7742 30.2094C59.7218 30.2094 59.6169 30.2094 59.5645 30.2094C59.6169 29.9996 59.6169 29.8422 59.6693 29.6324C59.7742 29.6324 59.8791 29.6324 59.9316 29.6849C59.8791 29.8422 59.8267 30.052 59.7742 30.2094Z" fill="#1F3773"/>
<path d="M59.9851 28.3738C59.9851 28.3213 59.9326 28.3213 59.9326 28.2689C59.9326 28.2689 59.9326 28.2164 59.9851 28.2164C60.0375 28.2164 60.0375 28.2689 60.09 28.2689C60.0375 28.2689 60.0375 28.3213 59.9851 28.3738Z" fill="#1F3773"/>
<path d="M60.1416 42.2198V42.1673C60.1416 42.1673 60.194 42.1673 60.194 42.1149C60.194 42.1673 60.194 42.1673 60.2465 42.2198C60.1416 42.2198 60.1416 42.2198 60.1416 42.2198Z" fill="#1F3773"/>
<path d="M60.5095 42.01C60.457 42.01 60.457 41.9575 60.457 41.9051C60.5095 41.8526 60.5095 41.8002 60.5619 41.8002C60.6144 41.8002 60.6144 41.8526 60.6144 41.9051C60.5619 41.9575 60.5619 42.01 60.5095 42.01Z" fill="#1F3773"/>
<path d="M60.8749 39.1777C60.77 39.1777 60.6652 39.0728 60.5078 38.9679C60.7176 38.8106 60.8225 38.7057 60.8749 38.7057C60.9798 38.7057 61.0323 38.863 61.0847 38.9679C61.0323 39.0728 60.9274 39.1777 60.8749 39.1777Z" fill="#1F3773"/>
<path d="M61.2435 33.0415C61.191 33.0939 61.1386 33.0939 61.0861 33.1463C61.0861 33.0939 61.0337 32.989 61.0337 32.9366C61.0337 32.9366 61.1386 32.8841 61.2435 32.8317C61.2435 32.9366 61.2959 32.989 61.2435 33.0415Z" fill="#1F3773"/>
<path d="M61.2959 40.8562C61.2959 40.8037 61.2959 40.8037 61.2959 40.8562C61.2959 40.8037 61.2959 40.8037 61.2959 40.8037C61.3483 40.7513 61.3483 40.8037 61.2959 40.8562C61.3483 40.8037 61.3483 40.8562 61.2959 40.8562Z" fill="#1F3773"/>
<path d="M61.9247 30.1045C61.9247 30.1045 61.8722 30.1045 61.9247 30.1045C61.8722 30.052 61.9247 30.052 61.9247 30.052C61.9247 30.052 61.9247 30.052 61.9247 30.1045Z" fill="#1F3773"/>
<path d="M62.3446 28.6885C62.3971 28.6885 62.3971 28.7409 62.4495 28.7409C62.3971 28.7934 62.3971 28.8458 62.3446 28.8458C62.2922 28.8458 62.2922 28.7934 62.2397 28.7934C62.2922 28.7934 62.2922 28.7409 62.3446 28.6885Z" fill="#1F3773"/>
<path d="M62.3972 43.426C62.3972 43.3736 62.3447 43.3736 62.3447 43.3211C62.3972 43.3211 62.3972 43.2687 62.4496 43.2687C62.4496 43.3211 62.4496 43.3211 62.4496 43.3736L62.3972 43.426Z" fill="#1F3773"/>
<path d="M62.6589 28.4786L62.6064 28.4261L62.6589 28.3737C62.6589 28.3737 62.6589 28.3737 62.6589 28.4786C62.6589 28.4261 62.6589 28.4261 62.6589 28.4786Z" fill="#1F3773"/>
<path d="M63.1836 42.1149C63.0787 42.0625 63.0263 42.01 62.9214 41.9576C63.0263 41.8002 63.1312 41.6429 63.2361 41.4331C63.2885 41.4856 63.341 41.4856 63.4459 41.538C63.341 41.8002 63.2361 41.9576 63.1836 42.1149Z" fill="#1F3773"/>
<path d="M63.6032 42.6394C63.5508 42.6394 63.5508 42.482 63.5508 42.482C63.6032 42.4296 63.7081 42.3771 63.7081 42.4296C63.7606 42.4296 63.7606 42.5345 63.7606 42.6394C63.7081 42.6394 63.6032 42.6918 63.6032 42.6394Z" fill="#1F3773"/>
<path d="M63.7605 41.6428C63.708 41.5379 63.708 41.3806 63.708 41.2757C63.8129 41.2233 63.9702 41.1708 64.0227 41.2233C64.0751 41.2757 64.1276 41.4331 64.18 41.6428C63.9178 41.5904 63.7605 41.6953 63.7605 41.6428Z" fill="#1F3773"/>
<path d="M64.6005 37.0801C64.5481 37.0276 64.4956 36.9752 64.5481 36.9227C64.5481 36.8703 64.6005 36.8178 64.653 36.7654C64.7054 36.8178 64.7579 36.8703 64.7579 36.9227C64.7579 36.9227 64.653 36.9752 64.6005 37.0801Z" fill="#1F3773"/>
<path d="M65.0717 32.6743C65.0192 32.6219 65.0192 32.4646 64.9668 32.3597C65.0717 32.3072 65.1766 32.2023 65.2815 32.2548C65.3864 32.3072 65.4388 32.4121 65.5437 32.5695C65.2815 32.6219 65.1241 32.7268 65.0717 32.6743Z" fill="#1F3773"/>
<path d="M66.9597 31.1011C66.9597 31.1011 66.9597 31.0487 66.9072 31.0487C66.9072 31.0487 66.9597 31.0487 66.9597 30.9962C66.9597 30.9962 66.9597 31.0487 67.0121 31.0487C66.9597 31.1011 66.9597 31.1011 66.9597 31.1011Z" fill="#1F3773"/>
<path d="M67.432 35.0871C67.3796 35.0346 67.3796 34.9822 67.3271 34.9297C67.3796 34.9297 67.3796 34.8773 67.4845 34.8248C67.4845 34.8773 67.5369 34.9297 67.5369 34.9822C67.5369 35.0346 67.4845 35.0871 67.432 35.0871Z" fill="#1F3773"/>
<path d="M67.6942 30.8388C67.6942 30.8388 67.6418 30.7863 67.6942 30.7863L67.7467 30.7339C67.7467 30.7339 67.7467 30.7863 67.7991 30.7863C67.7467 30.8388 67.6942 30.8388 67.6942 30.8388Z" fill="#1F3773"/>
<path d="M67.9564 30.6289C67.7991 30.4191 67.5893 30.2093 67.4844 29.9995C67.4844 29.9471 67.6417 29.7373 67.7466 29.58C67.904 29.8422 68.0088 30.1569 68.1662 30.4191C68.0613 30.4716 68.0088 30.5764 67.9564 30.6289Z" fill="#1F3773"/>
<path d="M24.7933 24.1255C24.7933 24.3878 24.7933 24.65 24.7408 24.9647C25.1604 24.8073 25.5275 24.7549 25.6324 24.5975C25.6849 24.4927 25.6324 24.3353 25.5275 24.178C26.052 24.2304 26.524 24.3353 27.0485 24.4402C26.7862 24.5975 26.4716 24.7024 26.2093 24.8598C26.3667 25.0171 26.4716 25.1745 26.6289 25.3318C26.8911 25.0171 27.0485 24.8598 27.2058 24.65C27.1534 24.5975 27.1534 24.5451 27.1009 24.4927C28.4121 24.8598 29.6708 25.5416 30.6673 26.5905L41.4714 37.3946L39.2686 39.5974C39.1637 39.1778 39.1113 38.8631 39.0064 38.5485C38.9015 38.5485 38.8491 38.496 38.7442 38.496C38.5344 38.7058 38.3246 38.9156 38.0623 39.1778C38.4819 39.3876 38.7442 39.5449 39.1113 39.7547L32.5554 46.3106C32.503 46.3106 32.503 46.3106 32.4505 46.3106C32.3456 46.3106 32.2407 46.3106 32.1883 46.3106C32.1883 46.4155 32.1883 46.5728 32.2407 46.6777L29.8282 49.0903L23.5345 42.8491C23.4821 42.6918 23.4821 42.5869 23.3772 42.5344C23.3772 42.5344 23.2723 42.482 23.2198 42.482C23.1674 42.482 23.115 42.482 23.115 42.482L18.9192 38.2862C17.9227 37.2897 17.2409 36.0834 16.8738 34.8247C16.9262 34.8247 16.9787 34.8247 16.9787 34.8247C17.0311 34.8247 17.0311 34.8247 17.0311 34.8247C17.0835 34.7198 17.136 34.5625 17.0835 34.4576C17.0835 34.4051 16.8738 34.3527 16.664 34.3002C16.1919 32.4122 16.4542 30.3667 17.3982 28.5835C17.4507 28.5835 17.5031 28.5835 17.5556 28.5835C17.608 28.5835 17.608 28.5835 17.608 28.5835C17.6605 28.5311 17.6605 28.4262 17.608 28.3213C17.608 28.3213 17.5556 28.3213 17.5556 28.2688C17.8703 27.6919 18.2898 27.1675 18.7618 26.6954C18.8143 26.6954 18.8143 26.7479 18.8667 26.7479C19.129 26.643 19.3912 26.5381 19.8108 26.3807C19.7059 26.2759 19.601 26.171 19.4961 26.0661C19.7583 25.8563 20.073 25.6465 20.3353 25.4367C20.4402 25.4367 20.4926 25.4367 20.5975 25.4367V25.3843C20.9646 25.2794 21.2793 25.122 21.6464 25.122C22.066 25.122 22.2758 24.9647 22.066 24.65C22.066 24.65 22.066 24.65 22.0136 24.5975C22.9576 24.3353 23.8492 24.178 24.7933 24.1255ZM24.7933 22.3948C24.7408 22.3948 24.7408 22.3948 24.7933 22.3948C23.6919 22.3948 22.5905 22.6046 21.5415 22.9717C21.2269 23.0766 20.9646 23.2864 20.7548 23.4962C20.6499 23.5486 20.545 23.5486 20.4402 23.6011C20.3877 23.6011 20.2828 23.6535 20.2304 23.6535C20.1779 23.6535 20.1255 23.6535 20.1255 23.706C19.9157 23.7584 19.7059 23.8108 19.4961 23.9682C19.129 24.2304 18.7619 24.4402 18.4472 24.7024C18.2898 24.8073 18.1849 24.9647 18.08 25.1745C17.9227 25.2794 17.7654 25.3843 17.608 25.5416C17.0835 26.1185 16.5591 26.7479 16.1919 27.4297C16.1395 27.4821 16.1395 27.5346 16.1395 27.587C16.0871 27.6395 16.0346 27.7444 15.9822 27.7968C14.8808 29.8947 14.5661 32.3597 15.143 34.7198C15.143 34.8247 15.1955 34.9296 15.2479 34.9821C15.2479 35.0869 15.3003 35.1918 15.3003 35.2967C15.7724 36.8701 16.664 38.2862 17.8178 39.4925L22.0136 43.6883C22.066 43.7407 22.1185 43.7932 22.1709 43.8456C22.2234 43.898 22.2758 43.9505 22.3282 44.0029L28.5694 50.349C28.8841 50.6637 29.3561 50.8735 29.8282 50.8735C30.3002 50.8735 30.7198 50.6637 31.0869 50.349L33.4995 47.9365C33.5519 47.884 33.6044 47.8316 33.6568 47.7267C33.7092 47.6742 33.7617 47.6218 33.8666 47.5693L40.4225 40.9086L40.4749 40.8561L40.5274 40.8037L42.7301 38.6009C43.0448 38.2862 43.2546 37.8142 43.2546 37.3422C43.2546 36.8701 43.0448 36.4506 42.7301 36.0834L31.926 25.3318C30.7198 24.1255 29.1988 23.2339 27.5729 22.7619C27.5205 22.7619 27.5205 22.7619 27.4681 22.7619C26.8911 22.6046 26.2618 22.4997 25.6324 22.4472C25.58 22.4472 25.5275 22.4472 25.4751 22.4472C25.3702 22.4472 25.2653 22.4472 25.1604 22.4997C25.0555 22.3948 24.8981 22.3948 24.7933 22.3948Z" fill="#1F3773"/>
<path d="M39.3217 35.7163C39.3217 35.7688 39.3741 35.7688 39.3741 35.8212C39.3217 35.8212 39.3217 35.8212 39.2692 35.8212L39.2168 35.7688C39.2692 35.7163 39.3217 35.7163 39.3217 35.7163Z" fill="#1F3773"/>
<path d="M39.2151 36.2932C39.2675 36.2408 39.3724 36.2408 39.5298 36.1884C39.5298 36.3457 39.5822 36.4506 39.5298 36.503C39.5298 36.5555 39.32 36.5555 39.2675 36.5555C39.2151 36.503 39.1626 36.3457 39.2151 36.2932Z" fill="#1F3773"/>
<path d="M39.1636 37.8142H39.216V37.8667H39.1636V37.8142Z" fill="#1F3773"/>
<path d="M38.9019 35.5591H38.9543V35.6115H38.9019V35.5591Z" fill="#1F3773"/>
<path d="M17.4516 29.0555C17.4516 29.0555 17.3991 29.0555 17.3467 29.1079C17.3467 29.0555 17.3467 29.0555 17.3467 29.0031C17.3991 29.0031 17.3991 29.0031 17.4516 29.0031V29.0555Z" fill="#1F3773"/>
<path d="M17.7126 29.3702H17.6602V29.3178C17.6602 29.2653 17.7126 29.2653 17.7126 29.3702C17.7126 29.3178 17.7126 29.3178 17.7126 29.3702Z" fill="#1F3773"/>
<path d="M19.758 33.8806H19.7056V33.8281H19.758C19.758 33.8281 19.758 33.8281 19.758 33.8806Z" fill="#1F3773"/>
<path d="M19.7045 27.8492C19.7045 27.8492 19.6521 27.7968 19.5996 27.7968C19.6521 27.7443 19.6521 27.7443 19.7045 27.6919C19.7045 27.6919 19.757 27.7443 19.8094 27.7968C19.757 27.7968 19.757 27.8492 19.7045 27.8492Z" fill="#1F3773"/>
<path d="M20.334 26.7479C20.3864 26.7479 20.3864 26.7479 20.334 26.7479C20.3864 26.8004 20.3864 26.8004 20.3864 26.8004C20.3864 26.8004 20.334 26.8004 20.334 26.7479C20.334 26.8004 20.334 26.7479 20.334 26.7479Z" fill="#1F3773"/>
<path d="M20.1247 27.7443L20.0723 27.6919C20.0723 27.6919 20.0723 27.6919 20.1247 27.6394C20.1247 27.6919 20.1247 27.6919 20.1247 27.7443C20.1247 27.6919 20.1247 27.7443 20.1247 27.7443Z" fill="#1F3773"/>
<path d="M20.3865 31.4157C20.3865 31.4157 20.2817 31.4157 20.1768 31.4157C20.2817 31.2583 20.2817 31.2059 20.3341 31.1534L20.4914 31.2059C20.439 31.2583 20.439 31.3632 20.3865 31.4157Z" fill="#1F3773"/>
<path d="M21.4363 31.9926C21.3839 31.9926 21.3315 31.9402 21.2266 31.9402C21.279 31.8877 21.279 31.7828 21.3315 31.7828C21.3839 31.7828 21.4888 31.7828 21.4888 31.8353C21.5412 31.8877 21.4888 31.9402 21.4363 31.9926Z" fill="#1F3773"/>
<path d="M21.5404 30.7339C21.488 30.7339 21.488 30.7339 21.4355 30.6815V30.629C21.488 30.629 21.488 30.629 21.5404 30.629C21.5404 30.6815 21.5404 30.6815 21.5404 30.7339Z" fill="#1F3773"/>
<path d="M21.5933 26.3807C21.7506 26.3283 21.9079 26.2758 22.0653 26.2234C22.0653 26.2758 22.1177 26.3283 22.1177 26.3807C21.9604 26.4332 21.803 26.4332 21.6457 26.4856C21.6457 26.4856 21.6457 26.4332 21.5933 26.3807Z" fill="#1F3773"/>
<path d="M22.275 32.6745C22.1702 32.6745 22.0653 32.6221 21.8555 32.5696C21.9604 32.4647 22.0128 32.3074 22.0653 32.3074C22.1701 32.3074 22.275 32.3598 22.3799 32.4123C22.3799 32.5172 22.3275 32.6745 22.275 32.6745Z" fill="#1F3773"/>
<path d="M22.2749 32.1498C22.17 31.9925 22.1176 31.8876 22.0127 31.7303C22.1176 31.6778 22.17 31.6778 22.2749 31.6254C22.3274 31.7827 22.4323 31.94 22.4847 32.0449C22.3798 32.0449 22.3274 32.0974 22.2749 32.1498Z" fill="#1F3773"/>
<path d="M23.0614 24.9123C23.009 24.8599 23.009 24.8599 22.9565 24.8075C23.009 24.8075 23.009 24.755 23.0614 24.755C23.1139 24.755 23.1139 24.8075 23.1663 24.8075C23.1139 24.8599 23.0614 24.8599 23.0614 24.9123Z" fill="#1F3773"/>
<path d="M23.7439 29.58H23.7963V29.6324C23.7439 29.6324 23.7439 29.6324 23.6914 29.6324C23.6914 29.58 23.7439 29.58 23.7439 29.58Z" fill="#1F3773"/>
<path d="M23.7963 30.052C23.7963 30.052 23.7439 30.052 23.6914 30.052C23.6914 29.9996 23.6914 29.9471 23.6914 29.9471C23.6914 29.9471 23.7439 29.9471 23.7963 29.9471C23.7963 29.9471 23.7963 29.9996 23.7963 30.052Z" fill="#1F3773"/>
<path d="M24.0053 24.7025C23.9528 24.6501 23.9528 24.6501 23.9004 24.6501C23.9004 24.6501 23.9004 24.5977 23.9528 24.5977C24.0053 24.5977 24.0053 24.6501 24.0577 24.6501C24.0577 24.6501 24.0577 24.7025 24.0053 24.7025Z" fill="#1F3773"/>
<path d="M24.1633 31.0475C24.1122 30.9964 24.1122 30.9964 24.1633 31.0475C24.1633 30.9964 24.1633 30.9964 24.1633 31.0475C24.1633 30.9964 24.1633 31.0475 24.1633 31.0475Z" fill="#1F3773"/>
<path d="M25.0026 42.4819C25.0026 42.4819 24.9502 42.4295 24.9502 42.377C25.0026 42.377 25.0551 42.377 25.1075 42.3246C25.16 42.377 25.16 42.4295 25.16 42.4295C25.1075 42.4819 25.0551 42.4819 25.0026 42.4819Z" fill="#1F3773"/>
<path d="M25.2653 37.8667C25.2128 37.8667 25.1604 37.8667 25.1079 37.8142C25.1079 37.8142 25.1079 37.7618 25.1079 37.7094C25.1604 37.7094 25.2128 37.7094 25.2653 37.7094C25.3177 37.7618 25.2653 37.8142 25.2653 37.8667Z" fill="#1F3773"/>
<path d="M25.2649 35.0344C25.2649 35.0344 25.2648 34.9295 25.2124 34.8771C25.2648 34.8771 25.3697 34.8771 25.3697 34.8771C25.4222 34.9295 25.4222 34.982 25.4222 35.0344C25.3697 35.0344 25.3173 35.0869 25.2649 35.0344Z" fill="#1F3773"/>
<path d="M25.842 25.122C25.842 25.1745 25.842 25.1745 25.842 25.2269C25.842 25.2269 25.7896 25.2269 25.7896 25.1745C25.7896 25.122 25.7896 25.122 25.7896 25.0696C25.7896 25.122 25.842 25.122 25.842 25.122Z" fill="#1F3773"/>
<path d="M26.0507 31.6254C25.9983 31.6779 25.8409 31.6779 25.736 31.6779C25.736 31.573 25.6836 31.4681 25.6836 31.4156C25.736 31.3632 25.8934 31.3107 26.0507 31.2583C26.1032 31.4156 26.1032 31.573 26.0507 31.6254Z" fill="#1F3773"/>
<path d="M26.1555 25.5416C26.1555 25.5416 26.103 25.5416 26.1555 25.5416C26.103 25.4891 26.103 25.4891 26.103 25.4891C26.1555 25.4891 26.1555 25.4891 26.1555 25.5416C26.1555 25.4891 26.1555 25.5416 26.1555 25.5416Z" fill="#1F3773"/>
<path d="M27.4676 27.2723C27.4152 27.2723 27.3627 27.2723 27.3103 27.2723C27.2578 27.2199 27.3103 27.1674 27.2578 27.115C27.3627 27.115 27.4152 27.115 27.4676 27.1674C27.52 27.1674 27.4676 27.2723 27.4676 27.2723Z" fill="#1F3773"/>
<path d="M27.6248 25.4891C27.415 25.4891 27.2576 25.4366 27.0479 25.4366C27.0479 25.3317 27.1003 25.2268 27.1003 25.1219C27.3101 25.1744 27.4674 25.2268 27.6772 25.2793C27.6772 25.3317 27.6772 25.3842 27.6248 25.4891Z" fill="#1F3773"/>
<path d="M28.2538 46.7303C28.149 46.7303 27.9916 46.6778 27.8867 46.6778C27.8867 46.6254 27.8867 46.5205 27.9392 46.468C28.0441 46.5205 28.2014 46.5205 28.3063 46.5729C28.2538 46.6254 28.2538 46.6778 28.2538 46.7303Z" fill="#1F3773"/>
<path d="M28.4647 37.08C28.5171 37.0275 28.6745 37.1324 28.7794 37.1324C28.7794 37.2373 28.7794 37.3422 28.6745 37.3947C28.5696 37.4471 28.4647 37.3947 28.2549 37.4471C28.3598 37.2898 28.3598 37.1324 28.4647 37.08Z" fill="#1F3773"/>
<path d="M28.6735 39.0729V39.1253H28.6211V39.0729C28.6211 39.0729 28.6211 39.0729 28.6735 39.0729Z" fill="#1F3773"/>
<path d="M28.3589 39.7023H28.4113V39.7547H28.3589C28.3589 39.7023 28.3589 39.7023 28.3589 39.7023Z" fill="#1F3773"/>
<path d="M28.4113 40.2268C28.4113 40.1219 28.4113 40.0694 28.3589 39.9646C28.6211 39.9646 28.8834 39.9121 29.1456 39.9121C29.198 39.9121 29.2505 40.1219 29.3029 40.2792C29.0407 40.2268 28.726 40.2268 28.4113 40.2268Z" fill="#1F3773"/>
<path d="M28.9365 29.4751C28.9365 29.4227 28.9365 29.4227 28.9365 29.4751C28.989 29.4227 28.989 29.4227 29.0414 29.4751C29.0414 29.4751 29.0414 29.5276 28.989 29.5276C28.9365 29.4751 28.9365 29.4751 28.9365 29.4751Z" fill="#1F3773"/>
<path d="M29.4597 29.003H29.4072V28.9506C29.4072 28.9506 29.4597 28.9506 29.4597 29.003C29.4597 28.9506 29.4597 29.003 29.4597 29.003Z" fill="#1F3773"/>
<path d="M29.5122 28.7409C29.2499 28.6884 28.9877 28.636 28.7255 28.5311C28.673 28.5311 28.7255 28.2688 28.7255 28.1639C28.9877 28.2688 29.3024 28.4262 29.5646 28.5311C29.5646 28.5835 29.5122 28.636 29.5122 28.7409Z" fill="#1F3773"/>
<path d="M30.5616 34.4051C30.5092 34.3527 30.4043 34.3527 30.4043 34.3527C30.4043 34.3002 30.4043 34.2478 30.4043 34.1953C30.4567 34.1953 30.5616 34.1953 30.6141 34.2478C30.6141 34.2478 30.5616 34.3002 30.5616 34.4051Z" fill="#1F3773"/>
<path d="M33.1841 42.2198C33.1841 42.1673 33.1841 42.1673 33.1841 42.1149H33.2365C33.2365 42.1673 33.289 42.1673 33.289 42.2198C33.2365 42.2198 33.1841 42.2722 33.1841 42.2198Z" fill="#1F3773"/>
<path d="M35.6484 34.4576C35.6484 34.4052 35.7533 34.4052 35.8582 34.4052C35.8582 34.5625 35.8582 34.6149 35.8058 34.7198H35.6484C35.6484 34.6149 35.6484 34.51 35.6484 34.4576Z" fill="#1F3773"/>
<path d="M35.3347 31.8877C35.3347 31.9401 35.3347 31.9401 35.3347 31.8877C35.3347 31.9401 35.3347 31.9401 35.2822 31.9401V31.8877H35.3347Z" fill="#1F3773"/>
<path d="M35.0717 42.1674C35.0192 42.1674 34.9668 42.1674 34.9668 42.1149C34.9668 42.1149 34.9668 42.0625 34.9668 42.01C35.0192 42.01 35.0717 42.01 35.0717 42.0625C35.0717 42.1149 35.0717 42.1149 35.0717 42.1674Z" fill="#1F3773"/>
<path d="M35.0209 35.5065V35.5589C34.9685 35.5589 34.9685 35.5589 34.916 35.6114C34.916 35.5589 34.916 35.5589 34.916 35.5065C34.916 35.4541 34.9685 35.4541 35.0209 35.5065Z" fill="#1F3773"/>
<path d="M34.4424 34.2478C34.4424 34.1954 34.5473 34.2478 34.6522 34.2478C34.6522 34.3002 34.6522 34.4051 34.6522 34.4051C34.5997 34.4576 34.4948 34.4051 34.4948 34.4051C34.4424 34.3527 34.4424 34.3002 34.4424 34.2478Z" fill="#1F3773"/>
<path d="M34.8105 43.5833C34.758 43.5833 34.7056 43.5833 34.6531 43.6357C34.4433 43.5308 34.286 43.426 34.1287 43.2686C33.9189 43.0588 33.5517 42.849 33.6042 42.6393C33.6042 42.4295 33.9713 42.2721 34.286 42.0099C34.4958 42.6917 34.6531 43.1637 34.8105 43.5833Z" fill="#1F3773"/>
<path d="M33.8666 34.8771C33.7617 34.7722 33.6044 34.6673 33.4995 34.51C33.552 34.4576 33.6044 34.4051 33.6569 34.3527C33.8142 34.4576 33.9191 34.5624 34.0764 34.6673C34.024 34.7198 33.9715 34.8247 33.8666 34.8771Z" fill="#1F3773"/>
<path d="M33.4471 33.8282C33.552 33.7758 33.6569 33.7758 33.8667 33.7758C33.8143 33.9331 33.8667 34.0904 33.8143 34.0904C33.7094 34.1429 33.6045 34.0904 33.4471 34.0904C33.4471 34.038 33.3947 33.8807 33.4471 33.8282Z" fill="#1F3773"/>
<path d="M33.341 37.2373V37.2898H33.2886V37.2373C33.2886 37.2373 33.2886 37.2373 33.341 37.2373Z" fill="#1F3773"/>
<path d="M33.2374 36.9226C33.2374 36.9226 33.185 36.9751 33.1325 36.9751C33.1325 36.9226 33.0801 36.8702 33.0801 36.8702C33.0801 36.8702 33.1325 36.8177 33.185 36.8177C33.2374 36.8702 33.2374 36.9226 33.2374 36.9226Z" fill="#1F3773"/>
<path d="M32.9219 29.0555C32.9744 29.1604 33.0793 29.2653 33.1317 29.4227C32.9219 29.5276 32.7646 29.58 32.5548 29.6325C32.5024 29.5276 32.4499 29.4751 32.3975 29.3702C32.6072 29.2653 32.7646 29.1604 32.9219 29.0555Z" fill="#1F3773"/>
<path d="M32.7653 41.9576C32.7653 42.0101 32.7129 42.0101 32.7129 42.0101V41.9576C32.7129 41.9052 32.7129 41.9576 32.7653 41.9576Z" fill="#1F3773"/>
<path d="M32.0834 30.5242C32.1883 30.6291 32.3456 30.734 32.4505 30.7864C32.3981 30.8389 32.3981 30.8913 32.3456 30.8913C32.2408 30.7864 32.0834 30.6815 31.9785 30.6291C32.031 30.6291 32.031 30.5766 32.0834 30.5242Z" fill="#1F3773"/>
<path d="M32.3972 36.031C32.3972 36.0835 32.3972 36.0835 32.3972 36.031C32.3447 36.031 32.3447 36.031 32.3447 36.031H32.3972Z" fill="#1F3773"/>
<path d="M31.7683 33.3562C31.8207 33.4086 31.8732 33.4086 31.9256 33.4611C31.9256 33.4611 31.9256 33.5135 31.8732 33.566C31.8207 33.5135 31.7683 33.5135 31.7158 33.4611C31.7158 33.4611 31.7683 33.4086 31.7683 33.3562Z" fill="#1F3773"/>
<path d="M31.7683 38.9156L31.7158 38.9681V38.9156H31.7683Z" fill="#1F3773"/>
<path d="M31.2963 27.2723C31.4012 27.3248 31.5061 27.4297 31.611 27.4821C31.5585 27.5346 31.5585 27.587 31.5061 27.587C31.4012 27.4821 31.2963 27.4297 31.1914 27.3248C31.1914 27.3248 31.2439 27.3248 31.2963 27.2723Z" fill="#1F3773"/>
<path d="M31.1916 43.2688V43.3212L31.1392 43.2688H31.1916Z" fill="#1F3773"/>
<path d="M31.033 45.1043C30.9806 44.9994 30.9281 44.8945 30.8232 44.7896C30.8757 44.7896 30.9281 44.7372 30.9281 44.7372C30.9806 44.8421 31.033 44.947 31.1379 45.0519C31.1379 45.1043 31.0855 45.1043 31.033 45.1043Z" fill="#1F3773"/>
<path d="M31.1388 44.5275C30.9815 44.2653 30.8241 44.1079 30.7192 43.8981C30.7192 43.8981 30.7192 43.8982 30.7192 43.8457V43.8981C30.929 43.9506 31.0864 44.003 31.2962 44.0555C31.2962 44.2653 31.2437 44.3702 31.1388 44.5275Z" fill="#1F3773"/>
<path d="M31.8205 46.4154C31.6631 46.4154 31.5582 46.3629 31.4009 46.3629C31.4009 46.3105 31.4009 46.258 31.4009 46.2056C31.5582 46.2056 31.6631 46.2056 31.8205 46.2056C31.8205 46.258 31.8205 46.3105 31.8205 46.4154Z" fill="#1F3773"/>
<path d="M31.4533 42.7442C31.4533 42.6393 31.4009 42.5869 31.4009 42.482C31.6107 42.4295 31.768 42.4295 31.9778 42.3771C31.9778 42.482 32.0302 42.5869 32.0302 42.7442C31.8205 42.6918 31.6107 42.7442 31.4533 42.7442Z" fill="#1F3773"/>
<path d="M32.3973 42.3246C32.6071 42.4295 32.7644 42.5344 32.9742 42.6393C32.7644 42.9015 32.5546 43.1113 32.3448 43.3735C32.2924 43.3211 32.2399 43.2686 32.1875 43.2162C32.1875 42.9015 32.2924 42.6917 32.3973 42.3246Z" fill="#1F3773"/>
<path d="M35.7011 36.8177C35.4389 36.8177 35.2291 36.7128 35.0717 36.503L29.9319 30.7339C28.1487 28.7409 26.418 27.6919 24.8446 27.5871C23.5334 27.5346 22.7991 28.2164 22.7467 28.2164C22.3796 28.5311 21.8551 28.5311 21.488 28.164C21.1733 27.7968 21.1733 27.2724 21.488 26.9577C21.5404 26.9052 22.7467 25.7514 24.7921 25.8039C26.89 25.8563 28.9879 27.115 31.1382 29.5276L36.278 35.2968C36.5927 35.6639 36.5927 36.1884 36.2256 36.5555C36.1207 36.7653 35.9109 36.8177 35.7011 36.8177Z" fill="#1F3773"/>
<path d="M51.908 37.2898C51.6982 37.2898 51.4884 37.2374 51.3311 37.08C50.964 36.7653 50.964 36.1884 51.2787 35.8213L56.4185 30.0521C58.5688 27.6396 60.7191 26.3808 62.7646 26.3284C64.81 26.2759 66.0163 27.4298 66.0687 27.4822C66.4358 27.7969 66.4358 28.3738 66.0687 28.741C65.754 29.1081 65.1771 29.1081 64.8624 28.741C64.81 28.6885 64.0757 28.0067 62.7646 28.1116C61.2436 28.164 59.4604 29.2654 57.6772 31.2584L52.5374 37.0276C52.3801 37.1849 52.1178 37.2898 51.908 37.2898Z" fill="#1F3773"/>
</svg>
