<svg width="90" height="88" viewBox="0 0 90 88" fill="none" xmlns="http://www.w3.org/2000/svg">
<path d="M30.3871 48.8842C32.129 46.2316 33.2903 43.0105 34.4516 39.9789C34.8387 38.6526 35.2258 37.3263 35.6129 36.1895C36 35.0526 36.1935 33.9158 36.5806 32.7789C36.3871 32.9684 36.1935 32.9684 36 33.1579C35.8064 33.1579 35.8064 33.1579 35.6129 33.1579V32.9684C36 32.5895 35.6129 31.6421 36.3871 31.4526C36.5806 31.4526 36.7742 31.4526 36.9677 31.6421C37.3548 30.8842 37.7419 29.9368 38.129 29.3684C37.9355 28.9895 37.9355 28.6105 37.7419 28.2316C37.7419 28.2316 37.9355 28.2316 37.9355 28.0421C37.9355 28.2316 38.129 28.4211 38.129 28.6105C38.129 28.8 38.129 28.9895 38.129 29.1789C38.129 28.9895 38.3226 28.9895 38.3226 28.8C38.5161 28.6105 38.5161 28.4211 38.7097 28.2316C38.5161 28.2316 38.5161 28.2316 38.5161 28.2316C38.5161 28.0421 38.5161 27.8526 38.5161 27.4737C38.7097 27.4737 39.0968 27.6632 39.0968 27.6632C39.0968 27.6632 39.0968 27.8526 39.0968 28.0421C39.4839 27.2842 40.0645 26.7158 40.6452 26.1474C40.6452 26.1474 40.6452 25.9579 40.4516 25.9579C40.4516 26.1474 40.2581 26.1474 40.2581 26.3368C40.2581 26.3368 40.2581 26.1474 40.0645 26.1474C40.2581 26.1474 40.2581 25.9579 40.4516 25.9579L41.2258 25.5789C41.4194 25.3895 41.6129 25.3895 41.8064 25.2L41.4194 25.7684C41.4194 26.1474 41.4194 26.1474 41.2258 26.1474V26.3368C40.0645 28.0421 39.0968 29.9368 38.3226 31.8316C38.3226 31.8316 38.3226 31.8316 38.3226 32.0211C38.129 32.5895 37.7419 33.3474 37.5484 33.9158L37.7419 33.7263V33.9158L37.3548 34.1053V34.2947C36.7742 36.1895 36.1935 38.0842 35.6129 39.7895C35.0323 41.4947 34.2581 43.2 33.2903 44.9053C32.3226 46.2316 31.3548 47.7474 30.3871 48.8842ZM28.2581 53.0526C28.2581 53.2421 28.2581 53.2421 28.4516 53.4316V53.2421H28.6452C28.6452 53.4316 28.6452 53.4316 28.4516 53.4316C28.4516 53.4316 28.2581 53.4316 28.2581 53.2421C28.2581 53.4316 28.4516 53.6211 28.4516 53.6211V53.8105C28.8387 54.5684 29.4194 55.3263 30 55.8947C30 55.7053 30.1935 55.7053 30.1935 55.7053L30.3871 55.8947C30.3871 55.8947 30.3871 56.0842 30.1935 56.2737C30 56.0842 30 56.0842 30 56.0842L29.4194 56.4632C29.6129 56.4632 29.6129 56.6526 29.6129 56.6526C29.6129 57.0316 29.4194 57.2211 29.2258 57.6C29.0323 57.6 28.8387 57.4105 28.8387 57.4105C28.8387 57.2211 29.0323 57.0316 29.0323 56.8421L26.3226 58.5474C25.9355 58.7368 25.7419 59.4947 25.9355 59.8737C26.3226 60.6316 26.3226 61.5789 26.129 62.3368L26.3226 62.5263H26.129V62.7158C25.9355 63.4737 25.3548 64.0421 24.7742 64.4211C23.4194 64.9895 21.871 64.2316 21.0968 62.7158C20.9032 62.1474 20.9032 61.3895 21.0968 60.6316C21.0968 60.2526 21.0968 60.0632 20.9032 59.6842C20.7097 59.3053 20.5161 59.1158 20.129 59.1158C19.3548 58.9263 18.7742 58.5474 18.5806 57.9789C18.1935 57.2211 18 56.2737 18.1935 55.3263C18.3871 54.5684 18.7742 54 19.3548 53.6211L19.5484 53.4316C20.7097 52.8632 22.2581 53.2421 23.2258 54.7579L23.4194 54.9474C23.8065 55.3263 24.1935 55.5158 24.5806 55.3263L28.2581 53.0526ZM34.6452 57.6H34.8387H34.6452ZM64.8387 22.3579C64.6452 22.1684 64.4516 21.9789 64.2581 21.6C62.5161 19.3263 60.3871 17.8105 58.0645 16.8632C57.871 16.8632 57.6774 16.6737 57.2903 16.6737C57.2903 16.6737 57.2903 16.8632 57.2903 17.0526L57.0968 16.6737C56.5161 16.4842 56.129 16.4842 55.5484 16.2947C55.5484 16.2947 55.5484 16.2947 55.3548 16.2947C53.6129 16.1053 51.871 16.2947 50.129 16.8632L49.3548 17.2421C47.2258 18 45.6774 20.0842 45.4839 22.5474C45.4839 23.1158 45.2903 23.6842 45.2903 24.4421C45.2903 24.8211 45.2903 25.0105 45.2903 25.3895C45.2903 27.0947 45.6774 28.8 46.2581 30.5053C46.4516 30.3158 46.6452 30.1263 46.6452 30.1263C47.2258 30.5053 47.0323 31.0737 47.0323 31.6421C46.8387 31.6421 46.6452 31.4526 46.4516 31.4526C46.6452 32.2105 46.8387 32.9684 47.2258 33.5368C47.4194 34.1053 47.8064 34.6737 48 35.4316C48 35.6211 48.1935 35.6211 48.1935 35.8105L48 36C50.7097 41.4947 54.7742 46.6105 60 48.3158C53.6129 48.8842 48.7742 40.9263 45.871 35.2421C44.9032 33.3474 44.129 31.0737 43.5484 28.9895C43.3548 28.9895 43.3548 28.8 43.1613 28.8L43.3548 28.4211C43.1613 27.4737 42.9677 26.5263 42.7742 25.5789C42.5806 25.5789 42.5806 25.5789 42.3871 25.3895C42.3871 25.2 42.3871 25.0105 42.3871 24.6316C42.3871 24.6316 42.5806 24.6316 42.5806 24.8211C42.5806 24.2526 42.3871 23.4947 42.3871 22.9263C42.3871 22.9263 42.3871 23.1158 42.1935 23.1158C42 22.9263 41.8064 22.7368 41.8064 22.5474C41.8064 22.3579 42 22.1684 42 21.9789C42 21.9789 42.1935 21.9789 42.3871 21.9789C42.3871 21.7895 42.3871 21.6 42.3871 21.2211H42.1935V21.0316C41.0323 21.9789 39.6774 23.1158 38.7097 24.2526C39.2903 24.6316 38.9032 25.0105 39.0968 25.5789C38.7097 25.3895 38.3226 25.3895 38.129 25.0105C36.1936 27.4737 34.6452 30.5053 33.6774 34.4842C33.4839 34.8632 33.4839 35.2421 33.2903 35.6211C33.4839 35.6211 33.4839 35.6211 33.4839 35.8105C33.4839 36 33.4839 36.1895 33.4839 36.1895C33.2903 36.1895 33.2903 36.1895 33.0968 36.1895C31.7419 40.9263 30.3871 44.3368 29.0323 46.6105V46.8C28.6452 47.3684 28.4516 47.9368 28.0645 48.5053C27.4839 49.4526 27.2903 50.5895 27.2903 51.9158L24.3871 53.6211C23.0323 51.7263 20.9032 50.9684 19.1613 51.9158C18.1935 52.4842 17.4194 53.4316 17.0323 54.7579C16.8387 56.0842 17.0323 57.4105 17.6129 58.5474C18 59.3053 18.7742 59.8737 19.7419 60.2526C19.7419 60.4421 19.7419 60.6316 19.7419 60.6316C19.7419 60.8211 19.7419 60.8211 19.5484 60.8211C19.5484 61.5789 19.5484 62.3368 19.9355 62.9053C21.0968 65.1789 23.4194 66.1263 25.3548 65.1789C25.5484 65.1789 25.7419 64.9895 25.9355 64.8C26.7097 64.2316 27.0968 63.4737 27.4839 62.7158V62.5263V62.3368C27.6774 61.3895 27.6774 60.2526 27.2903 59.3053L31.1613 56.8421C31.7419 57.2211 32.5161 57.4105 33.0968 57.4105C33.0968 57.2211 33.2903 57.0316 33.2903 57.0316C33.2903 57.0316 33.4839 57.2211 33.6774 57.2211C33.871 57.2211 34.0645 57.2211 34.2581 57.2211L34.4516 57.0316C34.6452 56.8421 34.6452 56.8421 34.8387 56.6526C34.8387 56.6526 34.8387 56.6526 35.0323 56.6526V56.8421C35.2258 56.8421 35.4194 56.6526 35.6129 56.6526C35.8064 56.6526 36.1935 56.4632 36.3871 56.4632C36.1935 56.4632 36.1935 56.2737 36 56.2737C35.8064 56.0842 36 55.7053 35.8064 55.5158C36 55.5158 36.3871 55.5158 36.5806 55.5158C36.7742 55.3263 36.9677 55.1368 37.1613 55.1368C37.1613 55.1368 37.3548 55.5158 37.5484 55.5158C37.3548 55.7053 37.1613 55.7053 36.9677 55.8947V56.2737C37.1613 56.2737 37.3548 56.2737 37.5484 56.0842C37.5484 56.0842 37.5484 56.0842 37.7419 56.0842C38.3226 55.8947 38.9032 55.8947 39.2903 55.7053V55.5158H39.4839C39.4839 55.5158 39.4839 55.5158 39.4839 55.7053C40.0645 55.5158 40.6452 55.5158 41.0323 55.5158L40.6452 55.3263V55.1368C40.8387 55.1368 40.8387 55.3263 41.0323 55.3263L40.8387 55.5158H41.0323C42.3871 55.3263 43.7419 55.3263 45.0968 55.3263V55.1368L45.2903 54.9474V55.1368L45.0968 55.3263C46.2581 55.3263 47.4194 55.3263 48.5806 55.5158C50.129 55.7053 51.6774 55.7053 53.0323 55.5158C52.6452 55.1368 52.2581 54.9474 52.4516 54.3789C52.4516 54.1895 52.8387 54.1895 53.0323 54.1895C53.6129 54.5684 53.4194 54.9474 53.2258 55.5158C53.4194 55.5158 53.6129 55.5158 53.8064 55.5158V55.1368L54.1935 55.5158C56.3226 55.3263 58.0645 54.9474 59.8064 54.3789C59.6129 54.1895 59.6129 54 59.6129 53.8105C59.6129 53.6211 59.8064 53.4316 60 53.2421C60 53.4316 60.1935 53.6211 60.1935 54C60.1935 54.1895 60.1935 54.1895 60.1935 54.3789C60.3871 54.3789 60.7742 54.1895 60.9677 54.1895L60.7742 53.8105H60.9677V54.1895C61.1613 54.1895 61.3548 54 61.7419 54C61.9355 54 61.9355 53.8105 62.129 53.8105C62.5161 53.6211 62.9032 53.4316 63.2903 53.2421C63.4839 53.2421 63.4839 53.0526 63.6774 53.0526V52.6737L63.871 52.8632C65.4193 52.1053 66.9677 51.1579 67.9355 50.4C70.4516 48.6947 72.5806 46.2316 73.9355 43.2C81.2903 29.5579 64.8387 22.3579 64.8387 22.3579ZM66.5806 47.1789C66.3871 46.9895 66 46.8 65.8064 46.6105C65.2258 46.2316 64.8387 45.6632 64.4516 45.2842C63.871 44.7158 62.9032 44.1474 62.5161 43.2H62.7097C63.6774 43.2 64.6452 43.7684 65.8064 43.9579C67.5484 44.1474 68.5161 43.7684 69.871 42.6316C70.8387 41.6842 71.4193 41.1158 70.6452 39.4105C70.4516 39.2211 70.4516 39.0316 70.2581 38.8421C70.4516 38.8421 70.6452 38.8421 71.0323 38.8421C71.6129 38.8421 72.1935 39.2211 72.7742 39.2211C73.3548 39.2211 73.7419 39.0316 74.129 38.6526C74.129 38.6526 74.3226 38.4632 74.5161 38.2737C74.3226 39.6 73.9355 40.9263 73.3548 42.2526C71.8064 45.2842 69.2903 46.8 66.5806 47.1789ZM50.129 33.9158C50.5161 33.9158 50.9032 33.9158 51.4839 34.1053C51.871 34.1053 52.2581 34.2947 52.4516 34.2947C52.8387 34.8632 53.2258 35.6211 53.4194 36.3789C54 38.4632 54.3871 38.6526 55.9355 39.4105C56.7097 39.7895 57.0968 39.9789 57.6774 40.7368C58.2581 41.4947 58.2581 42.6316 59.0323 43.2C60 43.9579 60.7742 43.3895 61.7419 43.2C62.129 44.1474 62.9032 44.9053 63.4839 45.4737C63.6774 45.6632 63.871 45.8526 64.0645 46.0421L64.2581 46.2316C64.6452 46.4211 65.0323 46.6105 65.4193 46.9895C65.6129 47.1789 65.8064 47.1789 66 47.3684C65.0322 47.3684 64.0645 47.1789 63.0968 46.9895L61.5484 46.4211C59.4193 45.2842 54.1935 43.0105 50.129 33.9158ZM50.7097 18.9474C50.7097 19.3263 50.9032 19.5158 50.9032 19.7053C51.0968 20.2737 51.2903 20.8421 51.4839 21.4105C51.4839 21.6 51.6774 21.7895 51.6774 21.9789C51.0968 22.5474 50.9032 23.4947 50.5161 24.4421L50.7097 24.6316C50.7097 24.6316 50.7097 24.6316 50.5161 24.6316C50.5161 24.4421 50.5161 24.4421 50.5161 24.2526V24.0632C49.9355 26.3368 50.129 28.9895 50.7097 30.6947C50.9032 31.4526 51.2903 32.2105 51.6774 32.7789H51.4839C50.9032 32.5895 50.3226 32.5895 49.7419 32.4C49.7419 32.4 49.5484 32.4 49.5484 32.2105C49.5484 32.0211 49.3548 31.8316 49.3548 31.6421C49.1613 31.0737 48.9677 30.3158 48.5806 29.7474L48.3871 29.9368C48.3871 29.9368 48.3871 29.7474 48.1935 29.7474L48.3871 29.5579C48 28.2316 47.8064 26.9053 47.6129 25.5789C47.4194 25.5789 47.4194 25.5789 47.4194 25.3895C47.4194 25.3895 47.4194 25.0105 47.4194 24.8211C47.4194 24.8211 47.6129 24.8211 47.6129 25.0105C47.6129 24.4421 47.6129 23.8737 47.6129 23.3053H47.4194C47.4194 23.1158 47.4194 22.9263 47.4194 22.7368H47.6129C47.6129 22.5474 47.6129 22.3579 47.6129 22.1684C47.8064 20.6526 48.5806 19.3263 49.7419 18.5684L49.5484 18.3789C49.7419 18.1895 49.7419 18.1895 49.9355 18L50.129 18.1895L50.3226 19.1368C50.3226 18.9474 50.5161 18.9474 50.7097 18.9474ZM70.6452 28.6105C70.4516 28.8 70.2581 28.9895 70.0645 28.9895C69.6774 29.3684 69.2903 29.9368 69.0968 30.3158C68.7097 30.6947 68.3226 31.2632 67.9355 31.6421C67.5484 31.8316 67.3548 32.2105 66.9677 32.5895C66.7742 32.2105 66.3871 31.6421 66.1936 31.2632C65.6129 30.1263 65.4194 28.6105 64.6452 27.6632C63.6774 26.5263 62.7097 25.9579 61.9355 24.8211C61.7419 24.4421 61.5484 23.8737 61.5484 23.3053C61.5484 22.7368 61.7419 22.1684 61.7419 21.4105C62.129 21.7895 62.7097 22.3579 63.0968 22.9263C63.2903 23.1158 63.2903 23.3053 63.4839 23.4947C63.6774 23.8737 64.0645 24.0632 64.2581 24.2526C64.4516 24.2526 67.7419 25.7684 70.6452 28.6105ZM68.5161 35.8105C68.129 35.0526 67.7419 34.1053 67.3548 33.3474C67.5484 33.1579 67.7419 32.9684 67.7419 32.7789C68.3226 31.8316 68.9032 30.8842 69.871 30.3158C70.2581 29.9368 70.8387 29.5579 71.2258 29.1789C72.1935 30.3158 73.1613 31.6421 73.7419 33.3474C74.129 34.6737 74.3226 36 74.3226 37.3263C74.129 37.5158 74.129 37.5158 74.129 37.5158C73.9355 37.7053 73.7419 37.8947 73.5484 37.8947C72.9677 38.0842 72.3871 38.0842 71.8064 38.0842C71.2258 38.0842 70.6452 38.0842 70.0645 38.0842C69.871 38.0842 69.871 38.0842 69.6774 38.0842C69.4839 37.8947 69.2903 37.7053 69.2903 37.5158C68.9032 37.1368 68.7097 36.3789 68.5161 35.8105ZM64.6452 27.6632C65.4194 28.8 65.4193 30.1263 66 31.2632C66.1935 31.8316 66.3871 32.2105 66.5806 32.5895C66.1936 32.9684 65.8064 33.3474 65.4193 33.7263C65.2258 33.9158 65.0323 34.1053 64.8387 34.2947C64.0645 32.9684 63.4839 31.2632 62.7097 30.1263C62.9032 29.3684 62.9032 28.2316 62.7097 27.2842C62.5161 26.5263 62.129 25.7684 61.7419 25.0105C62.9032 26.1474 63.871 26.7158 64.6452 27.6632ZM54.5806 31.0737C54 29.3684 54.1935 28.4211 54.7742 27.4737C55.1613 27.8526 55.3548 28.4211 55.7419 28.8C56.129 29.3684 56.5161 29.7474 56.9032 30.1263C56.7097 30.8842 56.9032 31.8316 57.4839 32.7789C57.2903 33.5368 57.0968 34.1053 56.5161 34.4842C55.7419 33.5368 54.9677 32.4 54.5806 31.0737ZM60.9677 31.2632C59.8064 29.5579 58.0645 28.8 57.2903 29.5579C57.0968 29.3684 57.0968 29.1789 56.9032 29.1789C56.5161 28.6105 55.9355 28.4211 55.5484 27.8526C55.3548 27.6632 55.1613 27.4737 55.1613 27.2842C55.5484 26.9053 55.9355 26.5263 56.3226 26.1474C57.871 24.8211 58.2581 25.3895 59.8064 27.0947C60.5806 28.0421 61.7419 28.8 62.5161 29.7474C62.129 30.3158 61.5484 30.6947 60.9677 31.2632ZM57.871 33.7263C57.871 33.7263 57.871 33.9158 58.0645 33.9158C58.8387 34.8632 59.6129 35.6211 60.1935 35.8105C60.3871 36.3789 60.5806 36.9474 60.7742 37.3263C60.9677 38.0842 61.1613 38.8421 61.3548 39.7895V39.9789C60 39.4105 58.6452 37.7053 57.871 36.5684C57.4839 36 57.0968 35.6211 56.7097 35.0526C57.2903 34.6737 57.6774 34.2947 57.871 33.7263ZM62.3226 39.7895C62.3226 39.0316 62.129 38.2737 61.7419 37.7053C61.5484 37.1368 61.1613 36.5684 60.9677 36C61.1613 36 61.3548 36 61.5484 36C61.9355 36.3789 62.3226 36.7579 62.7097 37.1368C63.2903 37.7053 63.871 38.0842 64.4516 38.4632V38.2737C64.6452 38.4632 64.6452 38.4632 64.8387 38.4632C64.8387 38.4632 64.8387 38.4632 64.8387 38.6526C65.0323 38.6526 65.2258 38.8421 65.2258 38.8421C64.4516 39.7895 63.2903 40.5474 62.3226 40.3579H62.129C62.3226 40.1684 62.3226 39.9789 62.3226 39.7895ZM63.871 36.9474C63.2903 36.5684 62.5161 36 61.9355 35.6211C62.129 35.6211 62.5161 35.6211 62.7097 35.6211C63.6774 35.6211 64.4516 35.4316 65.2258 35.0526C65.6129 35.6211 66 36.3789 66 37.1368C66 37.5158 66 37.8947 65.8064 38.0842C65.0323 37.7053 64.4516 37.3263 63.871 36.9474ZM63.2903 35.2421C62.9032 35.2421 62.5161 35.0526 62.129 35.0526C62.3226 34.2947 61.9355 32.9684 61.3548 31.8316C61.7419 31.6421 62.3226 31.4526 62.5161 30.8842C62.7097 30.6947 62.9032 30.3158 62.9032 30.1263C63.6774 31.4526 64.2581 32.9684 64.8387 34.2947V34.4842C64.6452 35.0526 64.0645 35.2421 63.2903 35.2421ZM52.6452 21.7895C52.6452 21.7895 52.8387 21.7895 52.8387 21.6C52.8387 21.4105 52.8387 21.2211 52.8387 21.0316C52.6452 21.2211 52.2581 21.2211 52.0645 21.4105L51.871 21.6C51.871 21.4105 51.6774 21.2211 51.6774 21.2211C51.4839 20.6526 51.2903 20.2737 51.2903 19.7053C51.2903 19.3263 51.0968 18.9474 51.0968 18.5684H51.2903C51.2903 18.5684 51.4839 18.5684 51.4839 18.3789V18.5684C51.871 18.3789 52.2581 18.3789 52.6452 18.3789L52.8387 18.1895L53.0323 18.3789C55.9355 18 58.8387 19.1368 61.1613 21.2211C61.1613 21.6 61.1613 21.9789 60.9677 22.3579C60.9677 22.5474 60.9677 22.7368 60.9677 23.1158C60.5806 22.3579 60.1935 21.7895 59.0323 21.7895C57.4839 21.9789 57.0968 22.9263 55.5484 21.9789C54.5806 21.4105 53.8064 20.8421 52.8387 21.2211C53.0323 21.2211 53.0323 21.2211 53.0323 21.4105C53.0323 21.6 53.0323 21.6 53.0323 21.7895C54 21.6 54.5806 22.3579 55.7419 22.9263C57.0968 23.4947 57.6774 22.5474 58.8387 22.3579C60 22.1684 60.1935 22.7368 60.5806 23.6842C60.5806 24.2526 60.7742 24.8211 60.9677 25.5789C61.3548 26.9053 62.5161 28.2316 62.129 29.5579C62.129 29.7474 62.129 29.9368 61.9355 29.9368C60.9677 28.8 60 27.8526 59.0323 26.7158C57.6774 25.0105 57.0968 24.6316 55.5484 25.9579C55.1613 26.3368 54.7742 26.7158 54.3871 27.0947C54.1935 26.9053 54 26.5263 54 26.3368C53.4194 25.2 52.8387 24.2526 52.2581 23.3053C52.2581 23.3053 52.0645 23.3053 52.0645 23.1158V22.9263C51.871 22.7368 51.871 22.5474 51.6774 22.3579C52.2581 21.9789 52.4516 21.7895 52.6452 21.7895ZM50.9032 30.5053C50.5161 28.2316 50.5161 24.4421 51.871 22.5474C51.871 22.7368 52.0645 22.9263 52.0645 23.1158C52.2581 23.3053 52.2581 23.6842 52.4516 23.8737C52.4516 23.6842 52.4516 23.4947 52.4516 23.3053C52.6452 23.3053 52.6452 23.3053 52.8387 23.3053C52.8387 23.4947 52.8387 23.8737 52.6452 24.0632C53.0323 24.6316 53.4194 25.3895 53.8064 25.9579C54.1935 26.3368 54.3871 26.7158 54.7742 27.0947C54.1935 28.0421 54 28.9895 54.1935 30.3158C54.5806 31.8316 55.3548 33.3474 56.3226 34.6737C55.7419 34.8632 54.9677 34.6737 54.3871 34.4842C53.8064 34.1053 53.0323 33.7263 52.4516 33.5368C51.6774 32.5895 51.0968 31.8316 50.9032 30.5053ZM58.8387 42.0632C57.871 40.5474 57.6774 39.7895 56.129 39.0316C53.8064 38.0842 54.3871 37.3263 53.4194 35.0526C53.4194 34.8632 53.2258 34.6737 53.2258 34.4842C53.6129 34.6737 53.8064 34.8632 54.1935 35.0526C54.9677 35.6211 55.9355 35.8105 56.7097 35.2421C56.7097 35.2421 56.9032 35.2421 56.9032 35.0526C57.2903 35.6211 57.6774 36 58.0645 36.5684C59.0323 37.8947 60.3871 39.6 61.7419 40.1684C61.7419 40.5474 61.7419 40.7368 61.7419 41.1158C61.7419 41.4947 61.7419 42.0632 61.9355 42.4421C60.5806 43.0105 59.8064 43.3895 58.8387 42.0632ZM69.4839 42.2526C68.5161 43.2 67.5484 43.3895 66.5806 43.3895V43.5789L66.3871 43.3895C65.2258 43.3895 64.0645 42.8211 62.7097 42.6316C62.5161 42.6316 62.3226 42.6316 62.129 42.6316C62.129 42.4421 61.9355 42.0632 61.9355 41.8737C61.9355 41.4947 61.9355 41.1158 62.129 40.7368C62.5161 40.7368 62.7097 40.7368 63.0968 40.7368C64.0645 40.5474 65.0323 39.7895 65.8064 38.8421C66 38.8421 66.1935 39.0316 66.3871 39.0316C67.3548 39.2211 68.129 39.0316 69.0968 38.8421C69.2903 38.8421 69.6774 38.8421 69.871 38.8421C70.4516 39.9789 70.8387 40.9263 69.4839 42.2526ZM67.1613 38.4632C66.7742 38.4632 66.3871 38.2737 66.1936 38.2737C66.3871 37.8947 66.3871 37.5158 66.3871 37.1368C66.3871 36.3789 66 35.6211 65.6129 35.0526C66.1936 34.6737 66.7742 34.2947 67.3548 33.7263C67.7419 34.6737 68.129 35.6211 68.5161 36.5684C68.7097 37.3263 69.0968 37.8947 69.4839 38.4632C68.7097 38.4632 67.9355 38.6526 67.1613 38.4632ZM46.8387 25.5789C46.6452 25.7684 46.6452 25.9579 46.4516 26.1474C46.4516 26.1474 46.2581 25.9579 46.0645 25.7684C46.2581 25.5789 46.2581 25.3895 46.4516 25.2C46.4516 25.0105 46.2581 24.8211 46.0645 24.4421C46.4516 24.4421 46.8387 24.4421 47.2258 24.4421C47.4194 24.4421 47.4194 25.0105 47.6129 25.2C47.2258 25.3895 47.0323 25.5789 46.8387 25.5789ZM39.6774 31.8316C39.4839 31.0737 39.4839 30.5053 39.4839 29.9368H39.6774C39.871 30.1263 40.0645 30.3158 40.0645 30.5053C40.2581 30.6947 40.4516 31.0737 40.4516 31.2632C40.2581 31.4526 40.0645 31.6421 39.6774 31.8316ZM40.6452 22.7368C41.2258 22.9263 41.6129 23.3053 41.6129 23.8737C41.6129 24.0632 41.6129 24.2526 41.4194 24.2526C41.2258 24.2526 41.0323 24.2526 41.0323 24.0632C40.8387 23.6842 40.8387 23.1158 40.6452 22.7368ZM35.6129 34.2947C35.2258 34.4842 35.0323 34.6737 34.8387 34.8632C34.8387 34.8632 34.6452 34.8632 34.6452 34.6737C34.6452 34.2947 34.6452 33.7263 34.6452 33.1579C34.8387 33.7263 35.2258 33.9158 35.6129 34.2947ZM41.6129 26.3368C41.8064 26.5263 42.1935 26.7158 42.3871 27.0947V27.4737C42.1935 27.4737 42 27.4737 42 27.2842C41.8065 27.0947 41.6129 26.7158 41.6129 26.3368ZM41.8064 31.0737C41.6129 31.2632 41.6129 31.6421 41.4194 32.0211C41.2258 31.8316 41.0323 31.6421 41.0323 31.6421C41.2258 31.4526 41.6129 31.2632 41.8064 30.8842C41.8064 30.8842 41.8064 30.8842 41.8064 31.0737ZM50.3226 17.8105C50.5161 17.4316 50.5161 17.2421 50.7097 16.8632C50.7097 16.8632 50.9032 16.8632 51.0968 16.8632L51.2903 17.0526C51.2903 17.2421 51.0968 17.2421 51.0968 17.4316C50.9032 17.6211 50.7097 17.6211 50.3226 17.8105ZM44.7097 35.4316C44.5161 35.4316 44.129 35.4316 43.9355 35.2421V34.8632C44.129 34.8632 44.5161 35.0526 44.7097 35.0526C44.7097 35.2421 44.7097 35.2421 44.7097 35.4316ZM53.2258 17.2421C53.2258 17.4316 53.2258 17.4316 53.2258 17.2421C52.8387 17.4316 52.6452 17.6211 52.4516 17.6211V17.4316C52.6452 17.2421 52.8387 17.0526 53.2258 17.0526V17.2421ZM39.0968 26.1474C39.2903 25.9579 39.4839 25.7684 39.6774 25.5789L39.871 25.7684C39.6774 25.9579 39.4839 26.1474 39.2903 26.3368C39.2903 26.3368 39.0968 26.3368 39.0968 26.1474ZM38.3226 26.5263C38.3226 26.9053 38.3226 27.0947 38.129 27.4737H37.9355C37.9355 27.0947 37.9355 26.9053 37.9355 26.5263C38.129 26.5263 38.3226 26.5263 38.3226 26.5263ZM34.2581 44.1474C34.4516 44.1474 34.6452 44.1474 34.6452 44.3368C34.6452 44.5263 34.6452 44.7158 34.6452 44.7158H34.2581C34.4516 44.7158 34.4516 44.5263 34.2581 44.1474ZM42.3871 32.0211C42.1935 32.0211 42 32.0211 41.8064 32.0211C41.8064 31.8316 41.8064 31.8316 41.8064 31.6421C42 31.6421 42.1935 31.6421 42.3871 31.6421C42.3871 31.6421 42.3871 31.8316 42.3871 32.0211ZM48.5806 18.7579C48.3871 18.5684 48.3871 18.3789 48.1935 18.1895H48.3871C48.5806 18.3789 48.5806 18.5684 48.5806 18.7579C48.5806 18.7579 48.7742 18.9474 48.7742 19.1368C48.7742 19.3263 48.9677 19.7053 48.9677 19.8947C48.7742 19.8947 48.3871 19.8947 48.3871 19.8947C48.3871 19.7053 48.3871 19.3263 48.3871 19.1368C48.3871 18.9474 48.3871 18.9474 48.5806 18.7579ZM45.4839 45.8526C45.4839 45.6632 45.4839 45.4737 45.4839 45.4737C45.4839 45.4737 45.6774 45.4737 45.871 45.4737C45.871 45.6632 45.871 45.6632 45.871 45.8526C45.6774 45.8526 45.6774 45.8526 45.4839 45.8526ZM58.8387 32.2105C58.8387 32.0211 58.6452 32.0211 58.6452 31.8316L58.8387 31.6421C58.8387 31.8316 58.8387 32.0211 58.8387 32.2105C59.0323 32.2105 58.8387 32.2105 58.8387 32.2105ZM38.7097 41.3053C38.7097 41.1158 38.7097 40.9263 38.9032 40.9263C38.9032 40.9263 39.0968 40.9263 39.2903 40.9263C39.2903 41.1158 39.2903 41.1158 39.2903 41.3053C38.9032 41.3053 38.7097 41.3053 38.7097 41.3053ZM38.7097 40.1684C38.7097 40.3579 38.9032 40.5474 38.9032 40.5474C38.9032 40.5474 38.7097 40.5474 38.7097 40.7368C38.7097 40.5474 38.7097 40.3579 38.5161 40.1684C38.7097 40.1684 38.7097 40.1684 38.7097 40.1684ZM33.6774 37.3263C33.6774 37.1368 33.6774 36.9474 33.6774 36.9474H33.871C33.871 36.9474 33.871 37.1368 33.871 37.3263C34.0645 37.3263 33.871 37.3263 33.6774 37.3263ZM33.0968 49.0737C33.2903 49.0737 33.4839 48.8842 33.4839 48.8842V49.0737C33.2903 49.0737 33.0968 49.0737 33.0968 49.2632C33.0968 49.0737 33.0968 49.0737 33.0968 49.0737ZM42.1935 24.4421C42.1935 24.6316 42 24.8211 42 24.8211H41.8064C41.8064 24.6316 41.8065 24.4421 42 24.2526C42 24.2526 42.1935 24.2526 42.1935 24.4421ZM49.7419 33.1579C49.9355 33.1579 50.129 33.3474 50.129 33.3474C50.129 33.3474 50.129 33.5368 50.129 33.7263H49.9355C49.7419 33.5368 49.7419 33.3474 49.7419 33.1579ZM58.2581 30.5053C58.2581 30.6947 58.2581 30.6947 58.0645 30.8842H57.871C57.871 30.6947 57.871 30.6947 57.871 30.5053C57.871 30.3158 58.0645 30.5053 58.2581 30.5053ZM58.4516 17.2421C58.6452 17.2421 58.6452 17.4316 58.8387 17.4316C58.8387 17.4316 58.8387 17.6211 58.8387 17.8105H58.6452C58.4516 17.6211 58.4516 17.4316 58.4516 17.2421ZM36 29.5579C36.1935 29.5579 36.1935 29.5579 36.3871 29.7474C36.3871 29.7474 36.3871 29.9368 36.3871 30.1263H36.1936C36 29.9368 36 29.7474 36 29.5579ZM46.0645 27.6632C46.2581 27.6632 46.2581 27.6632 46.4516 27.8526V28.0421C46.2581 28.0421 46.0645 28.0421 46.0645 27.6632C46.0645 27.8526 46.0645 27.8526 46.0645 27.6632ZM39.871 25.0105C39.871 25.2 40.0645 25.2 40.0645 25.3895H39.871C39.871 25.3895 39.6774 25.2 39.871 25.0105ZM42.7742 27.4737C42.9677 27.4737 42.9677 27.6632 43.1613 27.6632V27.8526C42.9677 27.8526 42.9677 27.8526 42.7742 27.6632C42.5806 27.4737 42.5806 27.4737 42.7742 27.4737ZM60 34.4842C60 34.2947 60 34.2947 60.1935 34.1053H60.3871V34.2947C60.3871 34.4842 60.1935 34.4842 60 34.4842ZM43.1613 29.3684C43.1613 29.1789 43.1613 29.1789 42.9677 28.9895C42.9677 28.9895 42.9677 28.9895 43.1613 28.9895C43.1613 29.1789 43.3548 29.1789 43.1613 29.3684C43.3548 29.3684 43.1613 29.3684 43.1613 29.3684ZM45.6774 24.8211C45.6774 25.0105 45.871 25.0105 45.871 25.2C45.871 25.2 45.871 25.2 45.6774 25.2C45.6774 25.2 45.4839 25.0105 45.6774 24.8211C45.4839 24.8211 45.4839 24.8211 45.6774 24.8211ZM36.7742 40.1684C36.7742 39.9789 36.7742 39.9789 36.9677 39.7895H37.1613V39.9789C36.9677 40.1684 36.9677 40.1684 36.7742 40.1684ZM37.9355 40.5474V40.3579H38.129C38.129 40.5474 38.129 40.5474 37.9355 40.5474C38.129 40.7368 37.9355 40.7368 37.9355 40.5474ZM47.4194 38.4632C47.6129 38.6526 47.6129 38.6526 47.6129 38.6526C47.4194 38.6526 47.4194 38.6526 47.4194 38.4632C47.2258 38.6526 47.2258 38.4632 47.4194 38.4632ZM42.3871 25.7684C42.3871 25.7684 42.3871 25.9579 42.3871 25.7684C42.1935 25.9579 42.1935 25.9579 42.1935 25.9579C42.1935 25.7684 42.1935 25.7684 42.3871 25.7684C42.1935 25.7684 42.1935 25.7684 42.3871 25.7684ZM43.5484 50.4C43.5484 50.2105 43.5484 50.2105 43.5484 50.4C43.3548 50.2105 43.3548 50.2105 43.3548 50.2105H43.5484C43.7419 50.2105 43.5484 50.2105 43.5484 50.4ZM35.6129 30.8842C35.6129 30.8842 35.8064 30.8842 35.6129 30.8842C35.8064 31.0737 35.8064 31.0737 35.8064 31.0737H35.6129V30.8842ZM39.6774 38.0842C39.6774 37.8947 39.6774 37.8947 39.6774 38.0842C39.6774 37.8947 39.871 37.8947 39.6774 38.0842C39.871 37.8947 39.871 37.8947 39.6774 38.0842C39.871 38.0842 39.6774 38.0842 39.6774 38.0842ZM46.8387 41.8737C46.8387 41.8737 46.6452 41.8737 46.8387 41.8737C46.6452 41.6842 46.6452 41.6842 46.6452 41.6842H46.8387C46.8387 41.6842 46.8387 41.6842 46.8387 41.8737ZM36.7742 28.8C36.5806 28.6105 36.5806 28.6105 36.5806 28.6105V28.4211H36.7742C36.5806 28.6105 36.5806 28.6105 36.7742 28.8ZM53.8064 17.0526C53.8064 17.0526 54 17.0526 53.8064 17.0526C54 17.2421 54 17.2421 54 17.4316C54 17.4316 53.8064 17.4316 53.8064 17.2421C53.8064 17.0526 53.8064 17.0526 53.8064 17.0526ZM53.2258 24.6316C53.4194 24.8211 53.4194 24.8211 53.2258 25.0105C53.2258 25.0105 53.0323 25.0105 53.0323 24.8211C53.0323 24.6316 53.0323 24.6316 53.2258 24.6316ZM48.1935 33.3474C48.1935 33.1579 48.3871 33.1579 48.1935 33.3474C48.3871 33.3474 48.3871 33.3474 48.1935 33.3474C48.3871 33.3474 48.3871 33.3474 48.1935 33.3474ZM37.9355 39.0316C37.9355 39.0316 37.9355 39.2211 37.9355 39.0316C37.9355 39.2211 37.9355 39.2211 37.9355 39.0316C37.7419 39.2211 37.7419 39.0316 37.9355 39.0316ZM47.4194 23.8737C47.4194 23.8737 47.2258 23.8737 47.4194 23.8737C47.2258 23.8737 47.2258 23.8737 47.4194 23.8737C47.2258 23.8737 47.2258 23.8737 47.4194 23.8737ZM38.9032 31.6421C39.0968 31.6421 38.9032 31.6421 38.9032 31.6421V31.6421ZM40.6452 31.8316C40.6452 32.0211 40.6452 32.0211 40.6452 31.8316V31.8316ZM33.6774 37.8947C33.871 37.8947 33.871 37.8947 33.6774 37.8947C33.871 37.8947 33.871 37.8947 33.6774 37.8947C33.871 37.8947 33.871 37.8947 33.6774 37.8947C33.871 37.8947 33.6774 37.8947 33.6774 37.8947ZM40.2581 39.0316C40.4516 39.0316 40.4516 39.0316 40.2581 39.0316C40.4516 39.0316 40.4516 39.0316 40.2581 39.0316C40.4516 39.0316 40.4516 39.0316 40.2581 39.0316ZM41.4194 22.7368C41.4194 22.7368 41.6129 22.7368 41.4194 22.7368C41.6129 22.7368 41.6129 22.7368 41.4194 22.7368C41.6129 22.7368 41.6129 22.7368 41.4194 22.7368ZM42.3871 24.0632C42.3871 24.0632 42.3871 24.2526 42.3871 24.0632C42.3871 24.2526 42.3871 24.0632 42.3871 24.0632ZM43.1613 30.5053C42.9677 30.3158 42.7742 30.3158 42.5806 30.1263C42.5806 29.9368 42.7742 29.7474 42.7742 29.7474C43.1613 29.9368 43.1613 30.1263 43.1613 30.5053ZM44.3226 36.3789C44.3226 36.3789 44.5161 36.3789 44.3226 36.3789C44.5161 36.3789 44.5161 36.3789 44.3226 36.3789C44.5161 36.3789 44.3226 36.3789 44.3226 36.3789ZM44.7097 35.6211C44.7097 35.6211 44.7097 35.8105 44.7097 35.6211C44.7097 35.8105 44.7097 35.8105 44.7097 35.6211ZM36.9677 43.0105C36.9677 43.2 36.9677 43.2 36.9677 43.0105C36.9677 43.2 36.9677 43.2 36.9677 43.0105C36.9677 43.2 36.9677 43.2 36.9677 43.0105ZM34.0645 38.0842C34.2581 38.2737 34.2581 38.2737 34.0645 38.0842C34.0645 38.2737 34.0645 38.2737 34.0645 38.0842C34.0645 38.2737 34.0645 38.2737 34.0645 38.0842ZM47.0323 20.2737C47.0323 20.2737 46.8387 20.2737 47.0323 20.2737C46.8387 20.2737 46.8387 20.2737 47.0323 20.2737C46.8387 20.2737 46.8387 20.2737 47.0323 20.2737V20.4632C47.0323 20.4632 47.0323 20.4632 47.0323 20.2737C47.4194 20.4632 47.6129 20.4632 47.8064 20.6526C47.8064 20.8421 47.8064 21.0316 47.6129 21.0316C47.2258 21.0316 47.0323 21.0316 47.0323 20.4632H46.8387C47.0323 20.4632 47.0323 20.4632 47.0323 20.2737ZM49.5484 53.6211C49.7419 53.6211 49.7419 53.6211 49.9355 53.8105V54C49.5484 54.1895 49.5484 55.3263 48.7742 54.9474C48.5806 54.9474 48.1935 54.5684 48 54.1895C47.8064 53.8105 48 53.6211 48.3871 53.8105C48.7742 53.8105 49.1613 53.6211 49.5484 53.6211ZM38.5161 50.5895C39.0968 50.9684 39.4839 51.3474 39.0968 51.9158C39.0968 52.1053 38.5161 52.1053 38.5161 52.1053C37.9355 51.5368 38.129 50.9684 38.5161 50.5895ZM45.6774 53.2421C45.4839 54 45.4839 54.5684 45.2903 55.1368H45.0968C45.0968 54.9474 44.9032 54.7579 44.9032 54.5684C44.9032 54.1895 44.7097 53.8105 44.7097 53.6211C44.9032 53.2421 45.2903 53.2421 45.6774 53.2421ZM53.8064 54.1895C53.0323 53.0526 53.0323 52.4842 53.8064 52.4842C54 52.4842 54.1935 52.6737 54.1935 52.6737C54.1935 53.2421 54 53.6211 53.8064 54.1895ZM50.5161 52.6737C50.9032 52.4842 51.0968 52.4842 51.4839 52.4842L51.6774 52.6737C51.4839 53.0526 51.4839 53.4316 51.2903 54C50.9032 53.4316 50.7097 53.2421 50.5161 52.6737ZM33.4839 56.2737C33.6774 56.0842 33.6774 55.8947 33.871 55.7053C34.0645 55.5158 34.0645 55.5158 34.2581 55.5158C34.2581 55.7053 34.4516 55.8947 34.4516 56.0842C34.2581 56.4632 33.871 56.6526 33.4839 56.2737ZM57.6774 52.8632C57.2903 52.8632 57.0968 52.8632 56.7097 53.0526C56.7097 52.8632 56.7097 52.6737 56.7097 52.4842C57.0968 52.4842 57.2903 52.4842 57.6774 52.4842C57.6774 52.6737 57.6774 52.6737 57.6774 52.8632ZM54.9677 50.2105C55.1613 50.4 55.3548 50.7789 55.3548 50.9684C55.3548 51.1579 55.3548 51.3474 55.3548 51.3474C55.3548 51.3474 55.1613 51.3474 54.9677 51.3474C54.7742 51.1579 54.7742 50.7789 54.9677 50.2105C54.7742 50.2105 54.7742 50.2105 54.9677 50.2105ZM35.2258 54C35.0323 54.1895 34.8387 54.5684 34.6452 54.7579C34.4516 54.5684 34.2581 54.3789 34.2581 54.3789C34.4516 54.1895 34.6452 53.8105 34.8387 53.6211C35.0323 53.8105 35.0323 54 35.2258 54ZM64.4516 52.8632C64.2581 53.0526 63.871 53.2421 63.6774 52.6737C63.6774 52.4842 63.6774 52.1053 63.871 52.1053C64.2581 51.9158 64.2581 52.4842 64.4516 52.8632ZM18 56.8421C17.8065 57.0316 17.8065 57.4105 17.6129 57.4105L17.2258 57.2211C17.2258 57.0316 17.2258 56.8421 17.4194 56.6526C17.4194 56.6526 17.6129 56.6526 18 56.8421ZM43.3548 53.0526C43.5484 52.8632 43.7419 52.6737 43.9355 52.2947C44.129 52.4842 44.129 52.6737 44.3226 52.8632C43.9355 53.0526 43.7419 53.0526 43.3548 53.2421C43.3548 53.2421 43.3548 53.2421 43.3548 53.0526ZM23.8065 65.5579C23.4194 65.5579 23.2258 65.5579 22.8387 65.5579L22.6452 65.3684C22.6452 65.1789 22.8387 65.1789 22.8387 65.1789C23.0323 65.1789 23.4194 65.3684 23.6129 65.5579C23.8064 65.3684 23.8065 65.5579 23.8065 65.5579ZM55.9355 53.8105C56.129 53.8105 56.5161 53.8105 56.9032 53.8105C56.5161 54.5684 56.3226 54.5684 55.9355 54.1895C55.9355 54 55.9355 53.8105 55.9355 53.8105ZM35.8064 55.8947C35.6129 55.7053 35.4194 55.5158 35.2258 55.3263C35.2258 55.1368 35.4194 54.9474 35.4194 54.9474C35.6129 55.1368 35.8064 55.1368 35.8064 55.3263C36 55.3263 36 55.5158 35.8064 55.8947ZM40.4516 54.9474C40.6452 54.7579 40.8387 54.5684 40.8387 54.3789C40.8387 54.5684 41.0323 54.5684 41.0323 54.7579C40.8387 54.9474 40.6452 55.1368 40.4516 55.3263C40.4516 55.1368 40.4516 55.1368 40.4516 54.9474ZM41.8064 47.9368C42 48.1263 42.1935 48.1263 42.5806 48.3158C42.5806 48.3158 42.5806 48.5053 42.5806 48.6947C42.3871 48.5053 42 48.3158 41.8064 48.1263C41.8064 48.1263 41.8064 48.1263 41.8064 47.9368ZM56.9032 48.6947C57.0968 48.6947 57.2903 48.6947 57.4839 48.6947V49.0737C57.2903 49.0737 57.0968 49.0737 56.9032 48.8842C56.9032 49.0737 56.9032 48.8842 56.9032 48.6947ZM39.0968 46.6105C38.9032 46.6105 38.7097 46.8 38.5161 46.8C38.5161 46.6105 38.5161 46.4211 38.3226 46.4211C38.5161 46.4211 38.7097 46.2316 38.9032 46.2316C39.0968 46.4211 39.0968 46.4211 39.0968 46.6105ZM30.3871 55.5158C30.5806 55.3263 30.5806 55.1368 30.7742 54.7579L30.9677 54.9474C30.9677 55.1368 30.7742 55.3263 30.5806 55.7053C30.5806 55.7053 30.3871 55.7053 30.3871 55.5158ZM66.9677 51.7263C66.7742 51.5368 66.5806 51.5368 66.5806 51.3474C66.5806 51.1579 66.5806 50.9684 66.7742 50.9684C66.9677 50.9684 66.9677 51.1579 67.1613 51.1579C66.9677 51.3474 66.9677 51.3474 66.9677 51.7263ZM52.8387 52.4842C52.6452 52.2947 52.4516 52.2947 52.4516 52.1053C52.4516 51.9158 52.4516 51.9158 52.6452 51.7263C52.8387 51.7263 52.8387 51.9158 53.0323 51.9158C52.8387 52.2947 52.8387 52.2947 52.8387 52.4842ZM54.7742 44.3368C54.5806 44.1474 54.3871 44.1474 54.3871 43.9579C54.3871 43.7684 54.3871 43.5789 54.5806 43.5789C54.5806 43.5789 54.9677 43.5789 54.9677 43.7684C54.7742 43.9579 54.7742 43.9579 54.7742 44.3368ZM59.2258 50.5895C59.0323 50.4 58.8387 50.2105 58.6452 50.0211C58.6452 50.0211 58.6452 49.8316 58.8387 49.8316C59.0323 50.0211 59.2258 50.2105 59.4194 50.4C59.4194 50.5895 59.2258 50.5895 59.2258 50.5895ZM42.9677 52.1053C43.1613 52.1053 43.3548 52.2947 43.5484 52.2947C43.5484 52.4842 43.5484 52.4842 43.3548 52.6737C43.1613 52.4842 42.9677 52.4842 42.7742 52.2947C42.9677 52.2947 42.9677 52.1053 42.9677 52.1053ZM35.0323 52.8632C35.2258 52.6737 35.2258 52.4842 35.2258 52.4842C35.4194 52.4842 35.4194 52.6737 35.6129 52.6737C35.6129 52.8632 35.6129 53.0526 35.4194 53.0526C35.4194 53.0526 35.2258 52.8632 35.0323 52.8632ZM66 47.9368C65.8064 47.7474 65.6129 47.7474 65.6129 47.5579C65.6129 47.3684 65.6129 47.3684 65.8064 47.1789C66 47.1789 66 47.3684 66.1936 47.3684C66.1936 47.5579 66 47.7474 66 47.9368ZM63.2903 53.4316C63.0968 53.4316 62.7097 53.4316 62.5161 53.4316V53.2421C62.7097 53.2421 62.9032 53.0526 63.2903 53.0526C63.2903 53.2421 63.2903 53.4316 63.2903 53.4316ZM44.5161 38.2737C44.5161 38.4632 44.3226 38.6526 44.3226 38.6526C44.3226 38.6526 44.129 38.6526 43.9355 38.4632C43.9355 38.4632 43.9355 38.2737 44.129 38.2737C44.129 38.2737 44.3226 38.2737 44.5161 38.2737ZM49.5484 45.0947C49.3548 45.2842 49.3548 45.2842 49.3548 45.2842C49.1613 45.2842 49.1613 45.0947 48.9677 45.0947C48.9677 45.0947 48.9677 44.9053 49.1613 44.9053C49.3548 44.9053 49.5484 45.0947 49.5484 45.0947ZM49.1613 46.2316C49.1613 46.0421 49.1613 45.8526 48.9677 45.6632H49.1613C49.1613 45.8526 49.3548 46.0421 49.3548 46.2316H49.1613ZM52.4516 54.3789C52.4516 54.1895 52.4516 54 52.2581 53.8105H52.4516C52.4516 54 52.4516 54.1895 52.6452 54.3789C52.6452 54.3789 52.6452 54.3789 52.4516 54.3789ZM53.2258 50.5895C53.2258 50.7789 53.2258 50.7789 53.0323 50.9684C53.0323 50.9684 52.8387 50.9684 52.8387 50.7789C52.8387 50.5895 52.8387 50.5895 52.8387 50.4C52.8387 50.5895 53.0323 50.5895 53.2258 50.5895ZM36.1936 47.9368C36 47.7474 36 47.7474 36 47.5579C36 47.5579 36 47.3684 36.1936 47.3684C36.1936 47.3684 36.3871 47.3684 36.3871 47.5579C36.3871 47.7474 36.1936 47.7474 36.1936 47.9368ZM56.129 52.4842C55.9355 52.2947 55.9355 52.2947 55.9355 52.2947C55.9355 52.2947 55.9355 52.1053 56.129 52.1053C56.129 52.1053 56.3226 52.1053 56.3226 52.2947C56.3226 52.1053 56.3226 52.2947 56.129 52.4842ZM62.3226 47.7474C62.3226 47.5579 62.3226 47.3684 62.3226 47.3684H62.5161C62.5161 47.5579 62.5161 47.7474 62.5161 47.9368C62.3226 47.7474 62.3226 47.7474 62.3226 47.7474ZM64.6452 49.0737C64.4516 49.2632 64.2581 49.4526 64.2581 49.4526L64.0645 49.2632C64.0645 49.2632 64.0645 49.0737 64.2581 49.0737C64.2581 48.8842 64.4516 49.0737 64.6452 49.0737ZM38.129 54.3789L37.9355 54.1895C37.9355 54.1895 37.9355 54 38.129 54C38.129 54 38.129 54.1895 38.129 54.3789C38.129 54.1895 38.129 54.3789 38.129 54.3789ZM56.3226 52.6737C56.3226 52.8632 56.3226 52.8632 56.3226 53.0526C56.3226 53.0526 56.129 53.0526 56.129 52.8632C56.129 52.8632 56.129 52.8632 56.3226 52.6737C56.3226 52.8632 56.3226 52.8632 56.3226 52.6737ZM39.4839 44.9053C39.6774 45.0947 39.6774 45.0947 39.871 45.2842C39.871 45.2842 39.871 45.2842 39.6774 45.4737C39.6774 45.2842 39.4839 45.0947 39.4839 44.9053ZM66.9677 47.9368C66.7742 47.7474 66.7742 47.7474 66.7742 47.7474C66.7742 47.7474 66.7742 47.5579 66.9677 47.5579H67.1613C66.9677 47.7474 66.9677 47.7474 66.9677 47.9368ZM36.5806 51.1579C36.3871 51.1579 36.3871 51.1579 36.1936 51.1579V50.9684C36.3871 50.9684 36.3871 50.9684 36.5806 50.7789C36.5806 50.9684 36.5806 50.9684 36.5806 51.1579ZM48.3871 52.1053C48.5806 52.1053 48.7742 52.1053 48.7742 52.1053V52.2947C48.5806 52.2947 48.3871 52.2947 48.3871 52.2947C48.3871 52.2947 48.3871 52.2947 48.3871 52.1053ZM56.9032 51.3474C57.0968 51.1579 57.0968 51.1579 57.0968 51.1579C57.0968 51.1579 57.2903 51.1579 57.2903 51.3474V51.5368C57.0968 51.3474 56.9032 51.3474 56.9032 51.3474ZM41.4194 54C41.4194 54.1895 41.4194 54.1895 41.4194 54.3789C41.4194 54.3789 41.4194 54.3789 41.2258 54.3789C41.4194 54.1895 41.4194 54.1895 41.4194 54ZM56.5161 49.8316C56.7097 49.8316 56.7097 49.6421 56.9032 49.6421C56.9032 49.6421 56.9032 49.8316 57.0968 49.8316C56.9032 49.8316 56.7097 49.8316 56.5161 49.8316C56.7097 50.0211 56.7097 50.2105 56.9032 50.5895C56.7097 50.5895 56.5161 50.5895 56.5161 50.4C56.5161 50.2105 56.5161 50.0211 56.5161 49.8316ZM39.871 49.2632C39.871 49.0737 39.6774 49.0737 39.6774 48.8842C39.6774 48.8842 39.6774 48.8842 39.871 48.6947C39.871 48.8842 39.871 49.0737 39.871 49.2632C40.0645 49.2632 39.871 49.2632 39.871 49.2632ZM22.4516 65.3684L22.2581 65.1789V64.9895L22.4516 65.1789C22.6452 65.3684 22.4516 65.3684 22.4516 65.3684ZM30.9677 54.3789C30.9677 54.5684 30.9677 54.5684 30.7742 54.5684C30.7742 54.5684 30.5806 54.5684 30.5806 54.3789V54.1895C30.7742 54.1895 30.9677 54.3789 30.9677 54.3789ZM39.6774 52.1053C39.871 52.1053 39.871 52.2947 39.871 52.2947V52.4842C39.871 52.4842 39.6774 52.4842 39.6774 52.2947C39.4839 52.2947 39.4839 52.2947 39.6774 52.1053ZM35.2258 50.0211C35.2258 50.0211 35.0323 49.8316 35.2258 50.0211C35.0323 49.8316 35.2258 49.8316 35.2258 49.6421C35.2258 49.8316 35.2258 49.8316 35.2258 50.0211C35.4194 49.8316 35.2258 50.0211 35.2258 50.0211ZM51.0968 46.8C50.9032 46.9895 50.9032 46.9895 50.9032 46.9895H50.7097C50.7097 46.9895 50.7097 46.8 50.9032 46.8C50.9032 46.8 50.9032 46.8 51.0968 46.8ZM32.3226 56.4632C32.3226 56.2737 32.129 56.2737 32.3226 56.4632C32.129 56.2737 32.129 56.2737 32.129 56.0842C32.129 56.0842 32.3226 56.0842 32.3226 56.2737C32.3226 56.2737 32.3226 56.2737 32.3226 56.4632ZM50.129 46.0421C50.129 46.0421 49.9355 46.2316 50.129 46.0421C49.9355 46.2316 49.9355 46.2316 49.9355 46.0421C49.7419 46.0421 49.9355 46.0421 50.129 46.0421C49.9355 45.8526 49.9355 46.0421 50.129 46.0421ZM40.2581 44.1474C40.0645 43.9579 40.2581 43.9579 40.2581 43.9579C40.2581 43.9579 40.2581 43.9579 40.2581 44.1474ZM64.6452 50.0211C64.8387 50.0211 64.8387 50.2105 64.6452 50.0211C64.8387 50.2105 64.8387 50.2105 64.6452 50.4C64.6452 50.4 64.6452 50.2105 64.6452 50.0211C64.6452 50.2105 64.6452 50.2105 64.6452 50.0211ZM49.1613 55.8947C49.1613 55.7053 49.1613 55.7053 49.1613 55.8947C48.9677 55.7053 49.1613 55.5158 49.1613 55.5158C49.1613 55.5158 49.3548 55.5158 49.3548 55.7053C49.3548 55.7053 49.3548 55.7053 49.1613 55.8947ZM50.7097 51.1579C50.7097 50.9684 50.9032 50.9684 50.7097 51.1579C50.9032 51.1579 50.9032 51.1579 50.9032 51.1579C50.9032 51.1579 50.9032 51.1579 50.7097 51.1579ZM41.8064 41.3053C41.8064 41.3053 42 41.4947 41.8064 41.3053C42 41.4947 42 41.4947 42 41.6842C42 41.6842 41.8064 41.6842 41.8064 41.4947C41.8064 41.4947 41.8064 41.4947 41.8064 41.3053ZM27.2903 61.0105C27.0968 60.8211 27.0968 60.8211 27.2903 61.0105C27.0968 60.8211 27.2903 60.8211 27.2903 60.6316C27.2903 60.6316 27.2903 60.6316 27.2903 61.0105C27.2903 60.8211 27.2903 60.8211 27.2903 61.0105ZM30.1935 54.3789C30.1935 54.3789 30.1935 54.1895 30.1935 54.3789C30.1935 54.1895 30.1935 54.1895 30.1935 54C30.3871 54.1895 30.3871 54.1895 30.1935 54.3789C30.3871 54.3789 30.3871 54.3789 30.1935 54.3789ZM59.6129 52.8632C59.6129 52.8632 59.4194 52.8632 59.6129 52.8632C59.4194 52.8632 59.4194 52.6737 59.4194 52.6737C59.6129 52.6737 59.6129 52.6737 59.6129 52.8632C59.6129 52.6737 59.6129 52.6737 59.6129 52.8632ZM31.5484 50.7789C31.3548 50.7789 31.3548 50.7789 31.5484 50.7789C31.5484 50.5895 31.5484 50.5895 31.5484 50.5895C31.5484 50.7789 31.5484 50.7789 31.5484 50.7789ZM39.0968 55.3263C39.0968 55.1368 39.0968 55.1368 39.0968 55.3263C39.0968 55.1368 39.0968 55.1368 39.0968 55.1368C39.0968 55.1368 39.0968 55.1368 39.0968 55.3263C39.0968 55.1368 39.0968 55.1368 39.0968 55.3263ZM37.7419 48.3158C37.7419 48.5053 37.7419 48.5053 37.7419 48.3158C37.7419 48.5053 37.7419 48.5053 37.7419 48.3158C37.5484 48.5053 37.7419 48.3158 37.7419 48.3158ZM49.5484 47.5579C49.5484 47.3684 49.5484 47.3684 49.5484 47.5579C49.7419 47.3684 49.7419 47.3684 49.5484 47.5579C49.7419 47.3684 49.7419 47.5579 49.5484 47.5579C49.7419 47.5579 49.5484 47.5579 49.5484 47.5579ZM47.2258 53.8105C47.2258 53.8105 47.2258 53.6211 47.2258 53.8105V53.8105ZM18.1935 55.8947C18 55.8947 18 55.8947 18.1935 55.8947C18 55.8947 18 55.8947 18.1935 55.8947ZM26.3226 64.6105C26.3226 64.6105 26.5161 64.6105 26.3226 64.6105C26.5161 64.6105 26.3226 64.6105 26.3226 64.6105ZM59.4194 49.2632C59.4194 49.2632 59.4194 49.0737 59.4194 49.2632C59.4194 49.0737 59.4194 49.2632 59.4194 49.2632ZM46.2581 53.6211C46.2581 53.6211 46.2581 53.8105 46.2581 53.6211C46.2581 53.8105 46.2581 53.8105 46.2581 53.6211C46.2581 53.8105 46.2581 53.8105 46.2581 53.6211C46.2581 53.8105 46.2581 53.6211 46.2581 53.6211ZM44.7097 52.8632C44.7097 52.6737 44.7097 52.6737 44.7097 52.8632V52.8632ZM50.5161 51.1579C50.5161 51.1579 50.5161 50.9684 50.5161 51.1579V51.1579ZM53.2258 50.2105C53.2258 50.0211 53.2258 50.0211 53.2258 50.2105V50.2105ZM21.871 64.4211C21.871 64.4211 21.6774 64.4211 21.871 64.4211C21.6774 64.4211 21.871 64.4211 21.871 64.4211ZM59.0323 54.3789C59.0323 54.5684 58.8387 54.3789 59.0323 54.3789C58.8387 54.3789 58.8387 54.3789 59.0323 54.3789C58.8387 54.3789 59.0323 54.3789 59.0323 54.3789ZM23.0323 64.6105C23.0323 64.4211 23.0323 64.6105 23.0323 64.6105V64.6105ZM35.2258 46.0421C35.2258 46.0421 35.0323 46.0421 35.2258 46.0421C35.0323 46.0421 35.0323 46.0421 35.2258 46.0421ZM68.3226 47.9368C68.3226 47.7474 68.3226 47.7474 68.3226 47.9368C68.5161 47.7474 68.5161 47.9368 68.3226 47.9368C68.5161 47.9368 68.5161 47.9368 68.3226 47.9368ZM47.2258 48.1263C47.4194 48.1263 47.4194 48.1263 47.2258 48.1263C47.4194 48.1263 47.4194 48.1263 47.2258 48.1263C47.4194 48.1263 47.4194 48.1263 47.2258 48.1263C47.4194 48.1263 47.4194 48.1263 47.2258 48.1263ZM50.129 52.1053C50.129 52.1053 49.9355 52.1053 50.129 52.1053C49.9355 52.1053 50.129 52.1053 50.129 52.1053ZM41.8064 53.0526C42 53.2421 42 53.4316 42.1935 53.6211C42 53.8105 42 53.8105 41.8064 54C41.8064 53.6211 41.8064 53.4316 41.8064 53.0526ZM44.3226 52.2947C44.3226 52.2947 44.5161 52.2947 44.3226 52.2947C44.5161 52.2947 44.5161 52.2947 44.3226 52.2947ZM42.3871 47.3684C42.3871 47.1789 42.3871 47.1789 42.3871 47.3684C42.3871 47.1789 42.3871 47.1789 42.3871 47.3684ZM41.8064 47.7474C41.8064 47.7474 42 47.7474 41.8064 47.7474C42 47.7474 42 47.7474 41.8064 47.7474C42 47.7474 42 47.7474 41.8064 47.7474C42 47.7474 41.8064 47.7474 41.8064 47.7474ZM61.9355 54C61.9355 54 61.7419 54 61.9355 54C61.7419 54 61.9355 54 61.9355 54ZM51.871 44.3368C51.871 44.3368 51.871 44.1474 51.871 44.3368C51.871 44.1474 51.871 44.1474 51.871 44.3368C51.871 44.1474 51.871 44.1474 51.871 44.3368C51.871 44.1474 51.871 44.1474 51.871 44.3368ZM53.0323 49.8316C53.0323 49.6421 53.0323 49.8316 53.0323 49.8316V49.8316ZM53.6129 52.1053C53.6129 52.1053 53.4194 52.1053 53.6129 52.1053C53.4194 52.1053 53.4194 52.1053 53.6129 52.1053ZM55.7419 50.9684C55.7419 50.9684 55.7419 50.7789 55.7419 50.9684C55.9355 50.7789 55.9355 50.9684 55.7419 50.9684C55.9355 50.9684 55.9355 50.9684 55.7419 50.9684C55.9355 50.9684 55.7419 50.9684 55.7419 50.9684ZM32.7097 55.3263C32.7097 55.3263 32.7097 55.1368 32.7097 54.9474H32.9032C32.7097 55.1368 32.7097 55.1368 32.7097 55.3263ZM60.9677 7.38947C60.9677 7.38947 60.9677 7.57895 60.9677 7.38947V7.38947ZM62.3226 8.90526C61.9355 8.90526 61.7419 8.71579 61.3548 8.33684C61.1613 8.14737 61.1613 7.76842 60.7742 7.76842C60.5806 7.76842 60.1935 7.9579 60.1935 8.14737C60.1935 8.52632 60.1935 8.52632 60.5806 8.71579C61.3548 9.09474 62.129 9.28421 62.7097 9.85263C62.9032 10.0421 63.2903 10.2316 63.6774 10.4211C64.0645 10.6105 65.6129 11.5579 65.8064 11.3684C66.1936 11.1789 64.8387 10.2316 64.6452 10.0421C63.871 9.47368 63.0968 9.09474 62.3226 8.90526ZM57.0968 6.44211C56.7097 6.25263 56.7097 7.01053 56.9032 7.01053C57.0968 7.2 57.871 7.38947 58.0645 7.57895C58.2581 7.57895 58.6452 7.57895 58.4516 7.2C58.4516 6.82105 57.4839 6.44211 57.0968 6.44211ZM55.3548 5.30526C55.5484 5.49474 55.3548 5.68421 55.7419 5.49474C55.9355 5.30526 55.9355 5.30526 55.7419 5.11579C55.5484 5.11579 55.3548 5.30526 55.3548 5.30526ZM55.5484 6.06316C55.5484 6.06316 55.7419 5.87368 55.5484 6.06316V6.06316ZM54.1935 4.73684C52.0645 4.16842 49.9355 3.6 47.8064 3.41053C46.0645 3.22105 44.3226 3.22105 42.5806 3.03158C41.0323 2.84211 39.6774 3.03158 38.129 3.03158C37.1613 3.03158 36.1936 3.41053 35.2258 3.78947C34.8387 3.97895 33.4839 3.78947 33.6774 4.54737C33.6774 4.73684 34.0645 5.11579 34.2581 5.30526C34.6452 5.68421 34.8387 5.68421 35.2258 5.68421C37.1613 5.49474 39.0968 5.11579 41.2258 5.11579C43.1613 5.11579 45.2903 5.11579 47.2258 5.30526C48.3871 5.49474 49.3548 5.49474 50.5161 5.87368C51.0968 6.06316 51.4839 6.06316 52.0645 6.06316C52.4516 6.06316 53.2258 6.25263 53.6129 6.06316C53.8064 5.87368 53.8064 5.87368 53.6129 5.68421C53.4194 5.49474 53.2258 5.68421 53.0323 5.68421C52.6452 5.68421 52.2581 5.87368 52.0645 5.30526C51.871 4.35789 54.1936 4.92632 54.5806 4.92632C54.3871 4.73684 54.3871 4.73684 54.1935 4.73684ZM32.7097 4.16842C31.7419 4.35789 30.5806 4.54737 29.6129 4.92632C29.2258 5.11579 28.8387 5.11579 28.4516 5.30526C28.0645 5.49474 24.9677 6.06316 25.7419 6.82105C25.9355 7.01053 26.5161 7.01053 26.9032 7.01053C27.0968 7.01053 27.2903 6.82105 27.4839 6.82105C27.6774 6.82105 27.871 7.2 28.2581 7.2C28.6452 7.2 28.4516 6.82105 28.8387 6.63158C29.2258 6.25263 29.6129 6.63158 30.1935 6.63158C30.7742 6.63158 31.3548 6.44211 31.9355 6.25263C32.5161 6.06316 33.0968 6.06316 33.6774 5.87368C34.2581 5.30526 33.2903 3.97895 32.7097 4.16842ZM36.7742 8.33684C36.9677 8.14737 36.7742 8.14737 36.7742 7.9579C36.7742 7.9579 36.5806 8.33684 36.7742 8.33684ZM38.5161 8.14737C38.9032 8.14737 38.9032 7.38947 38.5161 7.38947C38.3226 7.38947 37.9355 8.14737 38.5161 8.14737ZM41.4194 7.9579C41.8064 7.9579 41.4194 7.01053 40.8387 7.2C40.6452 7.2 40.2581 7.38947 40.6452 7.76842C40.8387 7.9579 41.2258 7.9579 41.4194 7.9579ZM44.129 7.76842C44.3226 7.2 43.1613 7.2 43.1613 7.76842C43.1613 8.14737 43.9355 8.14737 44.129 7.76842ZM47.4194 7.57895C47.8064 7.57895 47.6129 7.2 47.4194 7.01053C47.6129 7.01053 47.0323 7.76842 47.4194 7.57895ZM24 6.82105C22.8387 7.57895 21.4839 7.9579 20.129 8.71579C18.7742 9.28421 17.6129 10.0421 16.4516 10.9895C16.0645 11.3684 16.0645 11.7474 15.6774 12.1263C15.2903 12.6947 14.7097 12.3158 14.3226 12.5053C13.7419 12.6947 13.1613 13.4526 12.7742 13.8316C12.1935 14.2105 11.8065 14.7789 11.2258 15.5368C10.8387 16.1053 10.6452 16.6737 10.0645 17.2421C9.67742 17.6211 9.29032 18 9.09677 18.7579C9.09677 19.1368 9.09677 19.3263 8.90322 19.5158C8.90322 19.8947 8.70968 20.0842 8.32258 20.2737C7.93548 20.8421 7.54839 21.4105 7.16129 22.1684C6.96774 22.3579 6.77419 22.7368 6.58065 22.9263C6.3871 23.1158 6.3871 23.4947 6.19355 23.6842C5.80645 24.2526 5.41935 24.8211 5.22581 25.3895C5.03226 25.9579 4.64516 26.5263 4.06452 26.9053C3.87097 27.0947 3.48387 27.2842 3.48387 27.6632C3.48387 28.0421 4.06452 28.4211 4.45161 28.4211C5.22581 28.4211 5.22581 27.4737 5.41935 26.9053C5.6129 26.3368 5.80645 25.7684 6.19355 25.2C6.3871 24.6316 6.58065 24.0632 6.77419 23.6842C8.12903 21.6 9.67742 19.8947 11.4194 18C13.1613 16.1053 14.7097 14.4 16.8387 12.8842C17.6129 12.5053 18.1935 11.9368 18.7742 11.5579C19.1613 11.1789 19.3548 11.1789 19.7419 10.9895C19.9355 10.9895 20.129 10.8 19.9355 10.6105C19.7419 10.4211 19.3548 10.6105 19.1613 10.2316C18.9677 10.0421 18.7742 9.85263 19.1613 9.66316C19.7419 9.28421 20.5161 10.0421 21.2903 9.85263C21.6774 9.66316 21.871 9.47369 22.2581 9.09474C22.4516 8.90526 22.6452 8.33684 22.8387 8.14737C23.2258 7.9579 23.6129 8.52632 24 8.52632C25.3548 8.71579 24.7742 6.25263 24 6.82105ZM13.7419 20.8421C14.5161 20.4632 14.7097 19.5158 13.5484 19.7053C12.5806 19.8947 13.3548 21.0316 13.7419 20.8421ZM15.0968 18.9474C15.4839 18.7579 15.6774 18.7579 15.6774 18.3789C15.6774 18.1895 15.4839 17.8105 15.0968 17.8105C14.7097 18 14.9032 19.1368 15.0968 18.9474ZM14.9032 16.4842L14.7097 16.2947C14.5161 16.2947 14.129 16.6737 14.129 16.8632C14.129 17.0526 13.9355 17.2421 14.129 17.2421C14.129 17.2421 14.7097 16.6737 14.9032 16.4842ZM17.6129 13.6421C17.2258 13.6421 15.2903 14.9684 15.6774 15.3474C16.2581 15.9158 17.6129 14.2105 17.6129 13.6421ZM16.6452 17.4316C16.8387 17.2421 18.5806 15.7263 18.3871 15.5368C18.7742 15.1579 21.6774 13.8316 21.0968 13.2632C20.7097 12.8842 19.7419 13.6421 19.5484 13.8316C18.9677 14.2105 18.1935 14.5895 17.6129 15.1579C17.2258 15.7263 16.6452 16.1053 16.2581 16.6737C16.2581 16.8632 16.0645 17.0526 16.0645 17.2421C16.2581 17.4316 16.6452 17.6211 16.6452 17.4316ZM21.871 13.2632C22.6452 13.2632 23.6129 12.6947 24.3871 12.3158C24.5806 12.1263 25.1613 11.9368 25.3548 11.5579C25.5484 11.1789 25.5484 10.9895 24.9677 10.9895C24.1935 10.9895 23.2258 11.7474 22.6452 11.9368C22.2581 12.1263 21.871 12.3158 21.6774 12.5053C21.4839 12.6947 21.4839 13.0737 21.871 13.2632ZM6.77419 36.7579C6.3871 36.7579 6.58065 37.3263 6.77419 37.5158C6.77419 37.5158 7.16129 36.7579 6.77419 36.7579ZM12.5806 59.8737C12 60.8211 13.9355 61.7684 14.129 62.7158C14.129 63.0947 14.129 63.2842 14.3226 63.6632C14.5161 63.8526 14.7097 64.0421 14.7097 64.4211C15.0968 64.9895 15.4839 65.7474 15.871 66.3158C16.0645 66.5053 16.4516 66.6947 16.6452 66.8842C16.8387 67.0737 16.8387 67.4526 17.0323 67.6421C17.2258 67.8316 17.6129 67.6421 17.6129 68.021C17.8065 68.021 17.4194 68.4 17.4194 68.7789C17.6129 69.1579 18.1935 68.9684 18.5806 68.9684C18.7742 68.9684 18.9677 68.9684 19.1613 68.9684C19.5484 69.1579 19.3548 69.3474 19.3548 69.7263C19.5484 70.2947 20.5161 71.0526 20.9032 71.4316C21.0968 71.6211 22.2581 73.1368 22.6452 72.1895C22.8387 71.621 21.6774 70.6737 21.2903 70.2947C21.0968 70.1053 20.9032 69.9158 20.7097 69.7263C20.5161 69.5368 20.5161 69.1579 20.3226 68.9684C20.129 68.5895 19.7419 68.2105 19.3548 68.021C19.1613 67.8316 18.7742 67.4526 18.5806 67.2632C18.3871 67.0737 18 66.8842 17.8064 66.6947C17.4194 66.3158 17.6129 65.9368 17.2258 65.3684C16.8387 64.8 16.4516 64.4211 16.0645 63.8526C15.871 63.6632 15.871 63.2842 15.6774 62.9053C15.4839 62.5263 15.0968 62.7158 14.9032 62.3368C14.7097 62.1474 14.9032 61.7684 14.9032 61.5789C14.9032 61.2 14.9032 61.0105 14.7097 60.8211C13.9355 60.0632 13.3548 60.0632 12.5806 59.8737ZM36.1936 84.1263C36 84.1263 35.8064 84.6947 35.8064 84.6947C35.8064 85.0737 36.5806 85.0737 36.7742 85.2632C37.3548 85.4526 38.3226 86.0211 38.7097 85.2632C38.9032 84.8842 38.9032 84.1263 38.3226 83.9368C38.129 83.9368 37.5484 84.1263 37.3548 84.1263C36.9677 84.3158 36.5806 84.3158 36.1936 84.1263ZM35.2258 84.1263C34.8387 83.9368 34.6452 84.3158 34.4516 84.5053C34.6452 84.6947 34.8387 84.8842 35.2258 84.8842C35.4194 84.6947 35.6129 84.3158 35.2258 84.1263ZM27.0968 75.0316C26.9032 74.8421 26.3226 74.0842 26.129 74.4632C25.9355 74.8421 26.9032 75.0316 27.0968 75.0316ZM39.871 86.2105C40.4516 86.4 40.8387 86.4 41.4194 86.4C42 86.4 42 86.5895 42.3871 86.9684C43.1613 87.7263 43.3548 86.2105 43.9355 86.5895C44.3226 86.779 44.3226 87.1579 44.7097 86.5895C44.9032 86.2105 45.0968 86.2105 45.6774 86.4L45.871 86.5895C46.0645 86.779 46.0645 86.779 46.2581 86.5895C46.4516 86.5895 46.6452 86.4 47.0323 86.4C47.4194 86.4 48.1935 86.5895 48.3871 86.2105C48.5806 86.0211 48.1935 85.2632 48.1935 85.0737C48 84.5053 47.6129 84.5053 46.8387 84.5053C46.0645 84.5053 45.2903 84.5053 44.5161 84.5053C43.9355 84.5053 43.5484 84.6947 42.9677 84.6947C42.7742 84.6947 42.5806 84.6947 42.3871 84.6947C42 84.5053 42 84.5053 41.4194 84.3158C40.8387 84.3158 40.0645 83.9368 39.4839 84.1263C39.0968 84.3158 39.0968 84.8842 38.9032 85.2632C39.2903 85.8316 39.2903 86.2105 39.871 86.2105ZM27.4839 73.5158C27.6774 73.3263 27.0968 72.5684 26.7097 72.7579C26.3226 72.9474 27.2903 73.3263 27.4839 73.5158ZM52.2581 86.7789L52.4516 86.4C52.2581 86.4 52.0645 86.2105 51.871 86.4C51.871 86.5895 52.0645 86.7789 52.2581 86.7789ZM52.8387 84.1263C53.4194 83.9368 54 84.1263 54.5806 84.1263C54.9677 84.1263 55.5484 84.5053 55.9355 84.1263C56.129 83.9368 56.3226 83.3684 55.9355 83.1789C55.7419 83.1789 54.5806 83.3684 54.5806 83.5579C54 83.5579 53.4194 83.3684 52.8387 83.5579C52.6452 83.5579 52.4516 83.5579 52.4516 83.7474L52.8387 84.1263ZM59.0323 84.1263C59.4194 84.1263 61.3548 83.9368 61.3548 83.5579C61.3548 83.3684 60.9677 83.1789 60.9677 83.1789C60.7742 82.9895 60.7742 82.8 60.7742 82.6105C60.5806 82.2316 60.5806 81.8526 60 81.8526C59.6129 81.8526 59.2258 82.4211 59.0323 82.4211C58.6452 82.6105 57.871 82.6105 57.871 82.9895C57.871 83.5579 58.2581 83.3684 58.4516 83.1789C58.6452 83.1789 58.6452 82.9895 58.8387 82.9895C59.2258 82.9895 59.4194 82.9895 59.8064 82.9895C59.8064 83.5579 59.4194 83.5579 59.0323 83.7474C58.8387 83.7474 58.6452 84.1263 59.0323 84.1263ZM59.8064 80.1474C59.2258 79.9579 59.2258 80.1474 59.6129 80.5263C59.8064 80.3368 59.8064 80.1474 59.8064 80.1474ZM62.129 81.6632C62.5161 81.2842 61.7419 80.7158 61.5484 81.0947C61.1613 81.4737 61.7419 82.0421 62.129 81.6632ZM59.0323 78.2526C60 78.8211 61.3548 77.4947 60 76.9263C59.6129 76.7368 59.0323 77.1158 58.8387 77.1158C58.6452 77.3053 58.4516 77.1158 58.4516 77.4947C58.4516 77.8737 58.8387 78.0632 59.0323 78.2526ZM68.7097 78.0632C68.9032 77.8737 69.2903 77.8737 69.4839 77.6842C69.871 77.4947 69.6774 77.3053 69.871 76.9263C70.0645 76.3579 70.2581 76.5474 70.6452 76.5474C71.0323 76.5474 71.0323 76.3579 71.2258 75.9789C71.4193 75.7895 71.4193 75.6 71.8064 75.4105C72 75.2211 72.5806 75.4105 72.7742 75.0316C72.9677 74.6526 72.7742 74.2737 73.1613 73.8947C73.5484 73.5158 73.9355 73.5158 73.9355 72.9474C74.3226 71.8105 72.9677 73.1368 72.5806 73.3263C72 73.8947 71.2258 74.4632 70.4516 74.8421C69.6774 75.4105 68.7097 75.979 68.129 76.7368C67.9355 76.9263 67.7419 77.1158 67.7419 77.4947C67.9355 77.6842 68.5161 78.2526 68.7097 78.0632ZM71.8064 77.6842C71.8064 77.6842 72 77.6842 71.8064 77.6842C72 77.6842 71.8064 77.6842 71.8064 77.6842ZM77.6129 71.6211C78.1935 71.4316 79.5484 71.4316 79.7419 70.6737C79.9355 70.2947 79.5484 70.1053 79.5484 69.7263C79.5484 69.1579 79.7419 69.3474 80.129 69.3474C80.7097 69.1579 81.2903 68.5895 81.0968 67.8316C81.0968 67.6421 80.9032 67.4526 80.7097 67.2632C80.7097 67.0737 80.7097 66.8842 80.5161 66.6947C80.3226 66.3158 79.7419 66.3158 79.3548 66.3158C79.7419 65.5579 80.129 64.9895 80.5161 64.4211C80.9032 63.8526 81.0968 62.9053 81.871 62.5263C81.871 63.0947 81.2903 63.8526 80.9032 64.2316C80.7097 64.4211 79.9355 65.3684 80.129 65.5579C80.3226 66.1263 81.2903 64.8 81.2903 64.8C81.6774 64.4211 82.0645 64.8 82.6452 64.6105C83.0323 64.4211 83.6129 64.0421 83.4193 63.4737C83.2258 62.9053 82.6452 63.0947 82.6452 62.3368C82.6452 61.7684 83.2258 61.3895 83.2258 60.8211C83.2258 60.2526 83.2258 59.4947 83.2258 58.9263C82.2581 59.1158 81.6774 60.8211 81.2903 61.5789C80.7097 62.3368 80.3226 63.2842 79.7419 64.0421C79.1613 64.9895 78.3871 65.9368 77.8064 66.8842C77.4194 67.4526 76.4516 68.2105 76.8387 68.9684C77.0323 69.3474 77.4193 69.7263 77.4193 70.1053C77.4193 70.8632 77.0322 71.6211 77.6129 71.6211ZM81.4839 66.1263C81.6774 65.9368 81.2903 65.7474 81.0968 65.9368C80.9032 65.9368 80.7097 66.5053 80.5161 66.6947C80.9032 66.5053 81.2903 66.3158 81.4839 66.1263ZM81.6774 67.2632C82.2581 67.2632 83.2258 66.3158 82.4516 66.3158C82.0645 66.3158 81.0968 67.2632 81.6774 67.2632ZM84.9677 61.5789C84.9677 61.3895 84.7742 61.3895 84.5806 61.3895C84.5806 61.5789 85.1613 61.7684 84.9677 61.5789ZM84 57.7895C84.1936 57.4105 84.3871 57.0316 84.3871 56.6526C84.3871 56.2737 84.3871 56.0842 84.1935 56.4632C83.6129 57.0316 83.2258 58.3579 83.2258 59.1158C83.6129 58.7368 83.8064 58.3579 84 57.7895ZM85.1613 54.1895C85.1613 53.8105 85.3548 53.2421 85.1613 53.0526C84.9677 53.2421 84.9677 54 85.1613 54.1895C85.1613 54.3789 85.1613 54.1895 85.1613 54.1895ZM88.4516 50.9684L88.2581 50.5895L87.6774 50.7789C87.871 51.3474 88.0645 51.5368 88.4516 50.9684ZM81.871 45.6632C81.871 45.6632 81.6774 45.6632 81.4839 45.4737C81.4839 46.2316 81.6774 46.4211 81.871 45.6632ZM81.2903 43.7684C81.2903 43.7684 81.0968 43.7684 81.2903 43.7684V43.7684ZM81.871 43.0105C82.4516 42.8211 82.4516 42.2526 82.4516 41.8737C82.4516 41.6842 82.6452 41.4947 82.4516 41.3053C82.2581 41.1158 82.0645 41.4947 81.871 41.6842C81.6774 41.8737 81.0968 42.4421 81.0968 42.6316C81.0968 43.0105 81.4839 43.0105 81.871 43.0105ZM88.4516 47.1789C89.2258 47.3684 88.8387 44.9053 87.871 45.4737C87.4839 45.8526 88.0645 46.9895 88.4516 47.1789ZM86.5161 43.2C86.5161 43.2 86.5161 43.0105 86.5161 43.2C86.3226 43.2 86.5161 43.2 86.5161 43.2ZM88.2581 42.6316C88.8387 42.6316 88.6452 42.0632 88.4516 41.8737C88.2581 41.4947 88.4516 41.1158 88.4516 40.7368C88.4516 40.1684 88.8387 39.0316 88.4516 38.6526C88.0645 38.2737 87.6774 38.4632 87.6774 38.8421C87.4839 39.2211 87.6774 39.9789 87.6774 40.3579C87.871 40.9263 87.6774 42.8211 88.2581 42.6316ZM86.129 36.5684C86.129 36.3789 85.7419 36.5684 85.7419 36.5684C85.7419 36.7579 85.9355 37.5158 85.9355 37.7053C85.9355 37.8947 86.129 38.2737 86.129 38.4632C86.3226 38.2737 86.129 38.0842 86.129 37.8947C86.129 37.5158 86.129 36.9474 86.129 36.5684ZM80.3226 32.0211C80.3226 31.6421 80.5161 31.2632 80.5161 30.8842C80.3226 30.5053 80.129 30.3158 79.9355 29.9368C79.9355 29.5579 79.9355 28.9895 79.7419 28.8C79.5484 28.6105 79.3548 28.6105 79.3548 28.4211C79.1613 28.2316 79.3548 27.8526 79.1613 27.4737C78.9677 26.5263 78.3871 25.3895 78 24.4421C78 24.0632 78 23.3053 77.6129 23.1158C77.4193 22.9263 76.4516 22.7368 76.2581 22.9263C75.0968 23.1158 76.2581 24.4421 76.4516 24.8211C76.6452 25.2 77.2258 25.5789 77.4193 26.1474C77.6129 26.5263 77.4193 26.9053 77.4193 27.2842C77.4193 27.8526 77.8064 27.8526 78.1936 28.4211C78.5806 28.8 78.7742 29.3684 78.7742 29.9368C78.9677 30.5053 78.9677 31.2632 79.3548 31.6421C79.7419 32.021 80.3226 32.7789 80.3226 32.0211ZM86.7097 36.5684C87.4839 36.7579 87.6774 34.6737 87.871 34.2947C88.0645 34.2947 88.0645 33.9158 88.0645 33.7263C87.871 33.3474 87.6774 33.3474 87.6774 33.1579C87.4839 32.7789 87.6774 32.2105 87.4839 31.8316C87.0968 31.6421 86.7097 31.6421 86.5161 32.0211C86.129 32.7789 86.9032 33.7263 86.9032 34.2947C86.7097 34.8632 86.3226 36.3789 86.7097 36.5684ZM87.6774 33.1579C87.6774 33.1579 87.4839 33.1579 87.6774 33.1579C87.6774 33.3474 87.6774 33.3474 87.6774 33.1579ZM76.2581 21.9789C75.871 21.4105 75.4839 20.8421 75.0968 20.2737C74.7097 19.7053 74.3226 18.9474 73.5484 18.9474C73.1613 18.9474 72.9677 19.1368 73.1613 19.5158C73.1613 19.7053 73.5484 20.2737 73.7419 20.0842C74.3226 20.8421 74.7097 21.6 75.2903 22.3579C75.4839 22.5474 75.6774 22.9263 76.0645 22.9263C76.4516 22.5474 76.4516 22.1684 76.2581 21.9789ZM71.8064 16.8632C72 16.2947 70.6452 16.4842 71.4194 17.2421C71.6129 17.4316 72 17.8105 72.1935 17.4316C72.1935 17.2421 71.8064 17.2421 71.8064 16.8632ZM69.871 13.8316C69.6774 13.8316 69.6774 14.0211 69.871 13.8316V13.8316ZM70.4516 68.7789C70.4516 68.9684 70.4516 68.9684 70.4516 68.7789C70.6452 68.9684 70.4516 68.7789 70.4516 68.7789ZM73.1613 26.1474C73.1613 25.7684 73.5484 25.5789 73.9355 25.7684C74.3226 25.9579 74.7097 26.7158 75.0968 27.0947C74.9032 27.2842 75.6774 28.2316 75.6774 28.4211C75.871 28.8 75.4839 29.3684 75.0968 28.9895C74.7097 28.6105 74.5161 27.8526 73.9355 27.4737C73.3548 27.0947 73.1613 26.7158 73.1613 26.1474ZM29.2258 12.1263C28.4516 12.8842 27.2903 13.2632 26.3226 13.8316C25.9355 14.0211 25.5484 14.4 24.9677 14.5895C24.5806 14.7789 24 15.1579 23.6129 15.3474C23.2258 15.5368 23.0323 16.1053 22.4516 16.2947C22.2581 16.4842 21.871 16.4842 22.0645 16.1053C22.0645 15.9158 22.4516 15.7263 22.6452 15.7263C23.2258 15.3474 23.8065 14.9684 24.3871 14.5895C25.3548 14.0211 26.3226 13.4526 27.2903 12.8842C27.6774 12.6947 28.0645 12.3158 28.4516 11.9368C28.6452 11.9368 28.8387 11.5579 29.0323 11.7474C29.0323 11.9368 29.2258 12.1263 29.2258 12.1263ZM64.8387 18C64.6452 16.6737 66.1936 18.1895 66.5806 18.5684C66.9677 18.9474 67.5484 19.3263 67.9355 19.7053C68.3226 20.0842 68.5161 20.0842 68.7097 20.4632C68.9032 20.6526 69.4839 21.0316 69.2903 21.4105C69.0968 21.7895 68.7097 21.2211 68.5161 21.0316C67.9355 20.4632 67.3548 19.8947 66.7742 19.3263C66.3871 19.1368 66.1936 18.7579 65.8064 18.5684C65.8064 18.5684 64.8387 18.1895 64.8387 18ZM76.6452 12.6947C76.4516 12.1263 77.2258 12.8842 77.2258 12.8842C77.6129 13.2632 78.1935 13.6421 78.3871 14.2105C79.3548 15.1579 79.5484 15.7263 79.3548 16.8632C78.1935 15.7263 77.4193 14.2105 76.6452 12.6947ZM73.3548 9.85263C73.3548 10.2316 73.9355 10.8 73.5484 10.9895C73.1613 11.1789 72.7742 10.8 72.5806 10.6105C72.1935 10.2316 72.1936 9.85263 72.3871 9.47368C72.3871 9.09474 72.3871 8.71579 72.3871 8.33684C72.9677 8.71579 73.3548 9.28421 73.3548 9.85263ZM36.1936 76.3579C36.7742 76.5474 37.5484 76.5474 38.129 76.7368C38.7097 76.9263 39.4839 76.7368 40.0645 76.9263C40.4516 76.9263 40.8387 77.1158 41.0323 77.1158C41.2258 77.1158 41.6129 77.1158 41.8064 77.1158C42.5806 77.4947 40.8387 77.3053 40.6452 77.3053C39.4839 77.3053 37.7419 76.9263 36.1936 76.3579ZM56.7097 77.1158C56.7097 77.8737 56.3226 77.6842 55.7419 77.6842C54.3871 77.8737 56.7097 77.3053 55.3548 77.6842C55.1613 77.6842 54.9677 78.0632 54.7742 77.8737C54.5806 77.8737 54.1935 77.6842 54.3871 77.4947C54.3871 77.3053 54.7742 77.3053 54.9677 77.3053C55.1613 77.3053 56.7097 76.7368 56.7097 77.1158ZM49.9355 77.6842C50.129 77.1158 50.3226 76.9263 51.0968 76.9263C51.4839 76.9263 52.4516 76.9263 52.0645 77.4947C51.871 77.4947 51.0968 77.4947 50.9032 77.6842C50.7097 77.4947 49.7419 78.0632 49.9355 77.6842ZM47.6129 79.3895C47.4194 79.9579 46.6452 79.7684 46.2581 79.7684C45.871 79.7684 44.9032 80.1474 44.5161 79.7684C43.7419 78.8211 47.6129 79.2 47.6129 79.3895ZM76.2581 16.4842C75.871 16.1053 75.2903 15.5368 75.0968 14.9684C75.4839 14.9684 75.6774 15.3474 75.871 15.3474C76.2581 15.3474 76.2581 14.9684 76.6452 14.7789C76.8387 14.9684 77.0323 15.3474 77.0323 15.5368C77.0323 15.9158 76.8387 15.5368 76.6452 15.7263C76.4516 16.1053 76.8387 16.6737 76.2581 16.4842ZM42.3871 77.8737C42.9677 78.0632 42.7742 79.5789 42 79.3895C41.4194 79.3895 41.6129 77.8737 42.3871 77.8737ZM34.8387 0.757895C34.4516 1.13684 33.6774 0.947369 33.2903 0.947369C33.0968 0.947369 32.9032 0.947369 32.7097 0.947369C32.7097 0.947369 32.7097 0.378947 32.9032 0.378947C32.9032 0.378947 33.2903 0.568421 33.4839 0.568421C33.6774 0.568421 33.871 0.568421 34.0645 0.378947C34.2581 0.378947 35.2258 0.378947 34.8387 0.757895ZM80.129 21.0316C80.3226 20.2737 79.9355 19.7053 79.7419 18.9474C79.5484 18.9474 79.5484 18.7579 79.7419 18.7579C79.7419 18.7579 79.7419 18.7579 79.7419 18.9474C80.3226 19.7053 81.0968 20.4632 80.5161 21.2211C80.5161 21.4105 80.129 21.2211 80.129 21.0316ZM69.871 79.2C70.0645 79.2 71.0323 79.5789 70.6452 79.9579C70.4516 80.1474 69.4839 79.9579 69.0968 79.9579C69.2903 79.7684 69.4839 79.2 69.871 79.2ZM36.3871 78.2526V78.0632H36.5806C36.7742 78.0632 37.1613 78.2526 37.3548 78.2526C37.3548 78.2526 37.5484 78.8211 37.1613 78.6316C37.1613 78.6316 36.9677 78.2526 36.7742 78.2526C36.5806 78.2526 36.5806 78.2526 36.3871 78.2526ZM14.3226 30.3158C13.9355 30.3158 13.9355 30.5053 13.7419 30.1263C13.7419 29.9368 13.5484 29.7474 13.7419 29.7474C14.129 29.3684 14.3226 29.9368 14.3226 30.3158ZM76.4516 31.8316C76.2581 31.8316 76.0645 31.8316 76.0645 31.8316C76.2581 31.6421 76.4516 31.0737 76.6452 31.2632C77.2258 31.6421 76.8387 31.8316 76.4516 31.8316ZM83.8064 22.5474C84.1935 22.9263 83.8064 23.1158 83.4193 23.1158C83.4193 23.1158 83.4193 22.1684 83.8064 22.5474ZM53.6129 77.8737C53.4194 78.2526 53.2258 78.4421 53.2258 78.8211C53.0323 78.6316 53.0323 78.4421 53.2258 78.0632C53.0323 77.8737 53.4194 77.6842 53.6129 77.8737ZM29.0323 1.51579C29.6129 1.32632 29.6129 1.13684 30 1.51579C29.8064 1.89474 29.6129 1.70526 29.0323 1.51579ZM52.8387 77.1158C53.0323 76.9263 53.2258 76.3579 53.4194 76.9263C53.4194 76.9263 53.4194 77.1158 53.2258 77.3053C53.2258 77.3053 53.0323 77.3053 52.8387 77.1158ZM33.4839 76.7368C33.6774 76.7368 33.871 76.7368 34.0645 76.9263C33.871 76.9263 33.6774 76.7368 33.4839 76.7368ZM44.7097 0.568421C44.5161 0.378947 44.3226 0 44.7097 0C44.9032 0.378947 44.9032 0.378947 44.7097 0.568421ZM71.6129 11.7474C71.6129 11.7474 71.6129 11.5579 71.4194 11.5579C71.6129 11.5579 71.6129 11.7474 71.8064 11.7474C71.8064 11.7474 71.8064 11.7474 71.6129 11.7474ZM78.3871 18.7579C78.5806 18.7579 78.5806 18.9474 78.5806 18.9474C78.3871 18.9474 78.3871 18.9474 78.3871 18.7579ZM6.96774 44.1474C7.16129 43.9579 7.35484 43.9579 7.35484 44.1474C7.16129 44.1474 7.16129 44.3368 6.96774 44.1474ZM43.5484 78.2526C43.5484 78.2526 43.7419 78.0632 43.7419 78.2526C43.9355 78.2526 43.7419 78.2526 43.5484 78.2526ZM68.3226 71.2421C68.129 71.2421 68.129 71.0526 68.3226 70.8632C68.3226 71.0526 68.3226 71.0526 68.3226 71.2421ZM89.6129 58.1684C89.8064 58.3579 89.8064 58.3579 89.6129 58.1684V58.1684ZM41.6129 0.378947C41.6129 0.378947 41.4194 0.378947 41.6129 0.378947C41.6129 -2.82338e-08 41.6129 0.189474 41.6129 0.378947ZM50.129 79.0105C50.3226 79.2 50.3226 79.2 50.129 79.2C50.3226 79.3895 49.9355 79.0105 50.129 79.0105ZM55.9355 76.1684C56.129 75.6 56.3226 75.979 56.129 76.1684C55.9355 76.3579 55.9355 76.3579 55.9355 76.1684ZM61.9355 76.3579C62.129 76.1684 61.9355 76.1684 62.3226 76.5474C62.129 76.5474 62.129 76.5474 61.9355 76.3579ZM81.2903 22.3579C81.2903 22.1684 81.2903 22.1684 81.2903 22.3579C81.4839 22.3579 81.4839 22.3579 81.2903 22.3579ZM27.6774 71.2421C27.4839 71.2421 27.4839 71.2421 27.6774 71.2421V71.2421ZM19.7419 18.3789C19.9355 18.1895 19.9355 18.3789 19.9355 18.3789C19.7419 18.5684 19.7419 18.5684 19.7419 18.3789ZM10.0645 42.0632C10.0645 41.8737 10.0645 41.8737 10.0645 42.0632C10.0645 41.8737 10.0645 41.8737 10.0645 42.0632C10.0645 42.0632 9.87097 42.0632 10.0645 42.0632ZM26.9032 2.27368C27.0968 2.27368 27.0968 2.27368 26.9032 2.27368C27.0968 2.27368 26.9032 2.27368 26.9032 2.27368ZM24 69.7263C23.8064 69.5368 23.8064 69.5368 24 69.7263C24 69.5368 24 69.5368 24 69.7263ZM79.7419 18.7579V18.9474C79.5484 18.7579 79.5484 18.7579 79.7419 18.7579ZM41.2258 79.2C41.0323 79.2 41.0323 79.2 41.2258 79.2V79.2ZM76.4516 30.1263C76.4516 30.1263 76.2581 30.3158 76.4516 30.1263C76.2581 30.1263 76.2581 30.1263 76.4516 30.1263ZM67.1613 70.2947C67.1613 70.4842 67.5484 70.2947 67.1613 70.2947C67.1613 70.4842 67.1613 70.2947 67.1613 70.2947ZM74.9032 79.3895C74.9032 79.2 74.9032 79.3895 74.9032 79.3895V79.3895ZM42.3871 0.378947C42.3871 0.378947 42.3871 0.568421 42.3871 0.378947C42.1935 0.378947 42.3871 0.378947 42.3871 0.378947ZM51.6774 78.6316C51.6774 78.8211 51.6774 78.6316 51.6774 78.6316V78.6316ZM57.0968 2.84211C57.0968 2.65263 57.0968 2.65263 57.0968 2.84211C57.0968 2.65263 57.0968 2.65263 57.0968 2.84211ZM12.9677 15.1579C12.7742 15.1579 12.5806 15.1579 12.3871 15.1579C12.7742 14.9684 12.9677 14.9684 13.3548 15.1579C13.3548 15.1579 13.1613 15.1579 12.9677 15.1579ZM18 11.7474C17.8065 11.5579 17.8065 11.5579 18 11.7474C18 11.5579 18 11.5579 18 11.7474ZM11.0323 17.0526C11.0323 17.0526 11.2258 17.2421 11.0323 17.0526C11.0323 17.2421 11.0323 17.2421 11.0323 17.0526ZM15.6774 13.2632C15.4839 13.2632 15.4839 13.2632 15.6774 13.2632V13.2632ZM50.7097 4.92632C50.3226 5.49474 49.1613 4.73684 49.7419 4.16842C49.9355 3.97895 50.9032 4.35789 50.7097 4.92632ZM47.4194 4.35789C47.4194 4.73684 45.871 4.35789 45.871 3.97895C45.6774 3.6 47.4194 3.97895 47.4194 4.35789ZM38.5161 4.35789C38.5161 4.16842 38.5161 4.16842 38.5161 3.97895C38.7097 4.16842 39.0968 4.35789 39.2903 4.54737C39.0968 4.73684 38.7097 4.54737 38.5161 4.35789ZM41.8064 4.16842C41.4194 4.16842 41.6129 3.6 41.8064 3.6C42.1935 3.78947 42.1935 4.16842 41.8064 4.16842ZM35.4194 4.54737C35.4194 4.73684 35.4194 4.73684 35.4194 4.92632C35.2258 4.73684 35.2258 4.73684 35.2258 4.35789C35.2258 4.35789 35.4194 4.35789 35.4194 4.54737ZM36.1936 4.92632C36 4.73684 36.1935 4.54737 36.3871 4.73684C36.3871 4.73684 36.3871 4.73684 36.1936 4.92632ZM48.1935 4.54737C48.1935 4.16842 48.3871 4.35789 48.1935 4.54737V4.54737ZM77.6129 69.1579C77.8064 68.5895 78.7742 67.6421 78.9677 68.7789C78.9677 69.1579 78.7742 69.5368 78.3871 69.7263C78 69.9158 78 69.9158 77.8064 69.7263C77.6129 69.5368 77.6129 69.1579 77.6129 69.1579ZM70.0645 9.85263C70.0645 10.6105 69.4839 11.1789 69.0968 11.5579C68.5161 12.1263 68.129 12.8842 67.5484 13.6421C67.1613 14.2105 66.7742 14.9684 66.1936 15.3474C65.8064 15.9158 65.6129 15.7263 65.0322 15.3474C63.4839 14.5895 61.9355 13.8316 60.3871 12.8842C59.0323 11.9368 57.4839 11.1789 55.7419 10.6105C54.9677 10.4211 54.3871 10.2316 53.6129 10.0421C52.8387 9.85263 52.2581 9.66316 51.4839 9.28421C50.7097 9.09474 49.9355 8.90526 49.3548 8.71579C48.9677 8.71579 48.7742 8.52632 48.3871 8.52632C48.1935 8.52632 47.8064 8.33684 47.6129 8.33684C47.4194 8.52632 47.4194 8.71579 47.2258 8.90526C47.0323 9.09474 47.0323 9.09474 46.6452 9.09474C46.4516 9.09474 46.2581 9.09474 46.0645 9.09474C45.6774 8.90526 45.6774 8.71579 45.4839 8.33684C45.0968 7.9579 43.9355 8.14737 43.3548 8.14737C42.5806 8.14737 41.8065 8.14737 41.0323 8.14737C39.871 8.14737 38.129 8.14737 36.9677 8.71579C36.3871 8.90526 36.7742 9.47369 36.3871 9.66316C36.1935 10.0421 35.8064 10.0421 35.6129 10.0421C35.2258 10.2316 34.6452 10.2316 34.2581 10.4211C33.871 10.4211 33.6774 10.6105 33.2903 10.4211C32.9032 10.4211 32.9032 10.0421 32.5161 10.0421C31.9355 10.0421 31.5484 10.4211 31.1613 10.8C30.7742 11.1789 30.9677 10.8 30.3871 10.6105C29.8064 10.4211 29.0323 10.8 28.4516 10.9895C28.0645 11.1789 27.871 10.9895 27.4839 11.1789C27.0968 11.3684 26.7097 11.7474 26.3226 11.9368C25.5484 12.3158 24.9677 12.5053 24.1935 12.8842C23.4194 13.0737 22.8387 13.2632 22.4516 14.0211C22.2581 14.4 22.2581 14.4 21.871 14.5895C21.4839 14.7789 21.2903 14.7789 20.9032 14.9684C20.7097 15.1579 20.5161 15.3474 20.3226 15.5368C19.9355 15.9158 19.5484 16.1053 19.3548 16.2947C18.9677 16.6737 18.3871 17.0526 17.6129 17.6211C17.2258 17.8105 17.2258 18 17.0323 18.3789C16.8387 18.7579 16.4516 18.7579 16.2581 19.1368C16.0645 19.3263 15.871 19.7053 15.6774 19.8947C15.4839 20.2737 15.0968 20.2737 14.9032 20.4632C14.5161 20.6526 14.3226 20.8421 14.129 21.2211L13.9355 21.6C13.9355 21.7895 14.129 21.9789 14.129 22.1684C14.129 22.5474 13.7419 22.7368 13.5484 23.1158C12.9677 23.6842 12.5806 24.2526 12.3871 25.0105C12.1935 25.5789 12.3871 26.1474 11.8065 26.5263C11.4194 26.7158 11.4194 26.7158 11.2258 27.0947C11.0323 27.4737 10.8387 27.8526 10.6452 28.2316C10.4516 28.9895 10.0645 29.7474 9.87097 30.3158C9.48387 31.0737 9.29032 31.8316 9.09677 32.5895C8.90322 33.1579 8.12903 33.3474 8.12903 33.9158C8.12903 34.2947 8.51613 34.6737 8.32258 35.0526C8.12903 35.8105 7.74194 36.5684 7.54839 37.1368C7.35484 37.3263 7.35484 37.7053 7.35484 37.8947C7.35484 38.6526 7.35484 39.2211 7.16129 39.9789C7.16129 40.5474 6.96774 41.1158 6.77419 41.6842C6.77419 41.8737 6.77419 42.2526 6.77419 42.4421C6.77419 42.8211 6.58065 43.0105 6.3871 43.2C6.19355 43.5789 6 44.3368 6.19355 44.7158C6.3871 45.2842 7.35484 44.7158 7.16129 45.4737C7.16129 45.6632 6.96774 45.8526 6.96774 46.2316C6.96774 46.4211 7.16129 46.6105 7.16129 46.8C7.35484 47.5579 6.58065 47.7474 6.58065 48.3158C6.58065 49.4526 8.12903 49.8316 8.12903 50.9684C8.12903 51.1579 7.93548 51.5368 7.93548 51.7263C7.93548 52.1053 8.12903 52.4842 8.32258 52.6737C8.51613 53.4316 8.90322 54 9.09677 54.7579C9.29032 55.5158 9.48387 55.8947 10.0645 56.4632C10.2581 56.6526 10.4516 57.0316 10.6452 57.4105C10.8387 57.6 11.0323 58.5474 11.2258 58.5474C12 59.1158 11.6129 57.979 11.6129 57.7895C11.4194 57.0316 11.4194 56.2737 11.0323 55.5158C10.8387 54.9474 10.2581 54.3789 10.4516 54C10.6452 53.4316 11.2258 53.4316 10.8387 53.0526C10.6452 52.8632 10.4516 52.8632 10.2581 52.6737C10.0645 52.4842 10.0645 52.1053 10.0645 51.9158C9.67742 51.1579 9.67742 50.4 9.48387 49.6421C9.29032 48.6947 9.09677 47.7474 8.90322 46.8C8.70968 46.0421 8.51613 45.0947 8.51613 44.1474C8.51613 43.5789 8.90322 43.0105 8.90322 42.4421C8.90322 41.8737 8.90322 41.3053 8.90322 40.7368C8.90322 40.1684 8.90323 39.2211 8.51613 38.8421C7.93548 38.0842 8.32258 38.0842 8.90322 37.5158C9.67742 36.7579 9.48387 35.4316 9.87097 34.2947C10.0645 33.7263 10.2581 32.9684 10.4516 32.4C11.2258 30.1263 12.1935 28.0421 13.3548 25.9579C13.7419 25.2 14.3226 24.6316 14.7097 24.0632C15.0968 23.4947 15.2903 22.9263 16.0645 22.7368C15.6774 23.4947 15.0968 24.4421 14.5161 25.2C13.9355 25.9579 13.1613 26.5263 12.9677 27.4737C12.9677 27.8526 12.5806 28.2316 12.5806 28.6105C12.3871 28.9895 12.5806 29.3684 12.5806 29.7474C12.3871 30.1263 12 30.5053 11.8065 30.8842C11.6129 31.2632 11.4194 31.8316 11.2258 32.2105C10.8387 33.1579 10.6452 34.1053 10.4516 35.2421C10.4516 35.6211 10.2581 36 10.0645 36.3789C9.87097 36.9474 9.87097 37.1368 10.0645 37.7053C10.2581 38.0842 10.0645 37.8947 10.0645 38.2737C10.0645 38.6526 10.2581 38.6526 10.0645 38.8421C9.87097 39.2211 9.67742 39.4105 9.87097 39.7895C10.0645 39.9789 10.4516 40.1684 10.6452 40.1684C10.4516 39.7895 9.67742 40.3579 9.48387 40.7368C9.09677 41.4947 9.48387 42.4421 9.48387 43.2C9.48387 43.7684 9.29032 44.3368 9.29032 44.9053C9.29032 45.2842 9.48387 45.4737 9.67742 45.8526C9.87097 46.2316 9.67742 46.8 9.67742 47.3684C9.87097 48.6947 10.2581 50.2105 10.6452 51.7263C10.8387 52.1053 10.8387 52.4842 11.0323 53.0526C11.0323 53.2421 11.2258 53.4316 11.4194 53.8105L11.8065 54.1895C11.8065 54.3789 11.6129 54.5684 11.6129 54.7579C11.6129 55.5158 12.1935 56.4632 12.5806 57.0316C12.9677 57.9789 13.5484 58.9263 14.129 59.6842C14.5161 60.4421 15.0968 61.2 15.6774 61.9579C16.0645 62.3368 16.2581 62.3368 16.6452 62.7158C16.8387 62.9053 16.8387 62.9053 16.8387 63.2842C16.8387 63.8526 16.8387 63.6632 17.2258 64.0421C17.6129 64.6105 18 64.9895 18.3871 65.5579C19.7419 66.8842 20.9032 68.4 22.6452 69.5368C23.6129 70.1053 24.5806 70.8632 25.3548 71.4316C26.3226 72 27.2903 72.5684 28.2581 73.1368C28.4516 73.3263 29.0323 73.5158 29.2258 73.7053C29.4194 74.0842 29.0323 74.2737 29.0323 74.4632C29.0323 75.0316 30.5806 75.6 30 74.4632C30.7742 74.2737 31.3548 74.8421 31.9355 75.0316C32.5161 75.2211 33.4839 75.4105 33.871 75.9789C32.9032 76.1684 31.9355 74.8421 30.9677 75.2211C30.7742 75.4105 30.3871 75.7895 30.5806 76.1684C30.7742 76.3579 31.3548 76.3579 31.5484 76.5474C32.3226 77.1158 33.2903 77.4947 34.2581 77.6842C34.6452 77.8737 35.0323 77.6842 35.0323 78.0632C35.0323 78.4421 34.6452 78.4421 35.0323 78.8211C35.4194 79.0105 36 79.2 36.5806 79.3895C37.1613 79.5789 37.5484 79.9579 38.129 80.1474C38.7097 80.1474 39.0968 80.1474 39.6774 80.1474C40.2581 80.1474 40.6452 80.3368 41.2258 80.5263C42.1935 80.7158 43.3548 81.2842 44.129 81.2842C44.5161 81.2842 44.9032 81.0947 45.2903 81.0947C45.871 81.0947 46.2581 81.0947 46.8387 81.0947C47.4194 81.0947 47.8064 80.9053 48.3871 80.9053C48.9677 80.9053 49.3548 81.0947 49.9355 81.0947C50.9032 81.0947 51.871 80.9053 52.6452 80.5263C53.0323 80.3368 53.4194 80.3368 53.8064 80.1474C54.1935 80.1474 54.7742 80.3368 55.1613 80.1474C55.3548 79.9579 55.5484 79.7684 55.9355 79.7684C56.129 79.7684 56.3226 79.9579 56.5161 79.9579C56.9032 79.9579 56.9032 79.7684 57.2903 79.5789C57.6774 79.3895 58.2581 79.2 58.2581 78.8211C58.4516 78.4421 58.0645 78.0632 58.0645 77.6842C58.0645 77.3053 58.2581 77.3053 58.6452 76.9263C58.8387 76.7368 59.0323 76.7368 59.0323 76.3579C58.8387 75.979 58.2581 75.979 58.2581 75.4105C58.2581 75.0316 58.6452 74.6526 58.8387 74.4632C59.2258 74.2737 59.6129 74.2737 60 74.2737C60.3871 74.0842 60.5806 73.7053 60.9677 73.5158C61.1613 73.5158 61.3548 73.5158 61.5484 73.3263C61.7419 73.1368 61.7419 72.9474 61.9355 72.9474C62.129 72.7579 62.7097 72.9474 62.9032 72.7579C63.6774 72.3789 64.4516 71.2421 65.0322 72.5684C65.0322 72.7579 65.2258 73.3263 65.6129 73.1368C66 72.9474 65.6129 72.5684 65.6129 72.1895C65.6129 72 65.6129 71.2421 66 71.2421C66.3871 71.2421 66.7742 72.1895 66.7742 72.379C66.5806 72.7579 66 72.9474 65.8064 73.3263C65.4193 73.7053 65.0323 73.8947 64.6452 74.2737C64.2581 74.6526 63.871 75.0316 63.2903 75.0316C63.0968 75.0316 62.7097 75.0316 62.5161 75.0316C62.3226 75.0316 62.129 75.0316 62.129 75.2211C62.129 75.4105 61.9355 75.4105 61.9355 75.6C61.3548 76.1684 60 75.979 60.5806 77.1158C60.7742 77.4947 61.1613 77.8737 61.5484 77.8737C61.7419 77.8737 61.9355 77.6842 61.9355 77.4947C62.129 77.3053 62.129 77.1158 62.3226 77.1158V76.9263C62.5161 76.7368 62.129 76.9263 62.3226 76.7368C62.5161 76.5474 62.7097 76.7368 62.7097 76.7368C63.0968 76.7368 63.2903 76.9263 63.6774 76.7368C64.0645 76.5474 63.871 75.979 64.2581 75.7895C64.4516 75.6 64.6452 75.7895 64.8387 75.7895C65.0323 75.7895 65.2258 75.7895 65.4193 75.6C66.7742 75.0316 67.7419 74.0842 68.9032 73.1368C70.8387 71.8105 72.5806 69.9158 74.129 68.2105C74.9032 67.2632 75.6774 66.3158 76.2581 65.1789C76.6452 64.4211 77.2258 64.0421 77.6129 63.2842C77.8064 62.9053 77.8064 62.3368 78.1936 61.7684C78.5806 61.2 78.9677 61.0105 79.3548 60.2526C79.3548 60.0632 79.7419 58.9263 79.1613 59.3053C78.9677 59.4947 78.7742 60.0632 78.5806 60.2526C78.1935 60.8211 78 61.2 77.6129 61.5789C76.8387 62.5263 76.2581 63.4737 75.4839 64.4211C74.7097 65.5579 73.7419 66.3158 72.9677 67.2632C72.5806 67.6421 72.1935 68.0211 71.8064 68.5895C71.6129 68.779 71.0323 69.3474 70.6452 69.5368C70.4516 69.5368 70.2581 69.3474 70.0645 69.3474C69.871 69.3474 69.6774 69.7263 69.6774 69.7263C69.2903 70.1053 68.9032 70.4842 68.3226 70.8632C68.3226 70.1053 68.9032 70.1053 69.0968 69.7263C69.4839 69.3474 68.9032 68.9684 68.9032 68.4C68.9032 68.021 69.2903 67.8316 69.4839 67.6421C69.871 67.2632 70.2581 66.8842 70.4516 66.5053C70.8387 65.9368 71.4194 65.7474 72 65.3684C72.5806 64.9895 72.9677 64.4211 73.3548 63.8526C73.5484 63.6632 73.7419 63.4737 73.7419 63.0947C73.7419 62.7158 73.7419 62.5263 73.7419 62.3368C73.9355 61.7684 74.5161 61.7684 75.0968 61.5789C76.2581 61.2 76.6452 59.4947 77.0323 58.5474C77.2258 58.3579 77.2258 57.979 77.4193 57.7895C77.6129 57.6 77.6129 57.4105 77.6129 57.0316C77.8064 56.8421 78 56.6526 78.1936 56.4632C78.3871 56.2737 78.5806 55.8947 78.5806 55.5158C79.3548 53.0526 80.129 50.5895 80.3226 47.9368C81.0968 41.1158 79.7419 34.1053 76.6452 27.8526C76.2581 26.9053 75.6774 26.1474 75.0968 25.2C74.9032 24.8211 74.7097 24.4421 74.5161 24.0632C74.3226 23.8737 74.129 23.8737 73.9355 23.4947C73.5484 23.1158 73.5484 22.9263 73.5484 22.7368C73.1613 22.1684 72.7742 21.6 72.3871 21.0316C72 20.6526 71.4193 19.8947 70.8387 20.0842C70.8387 19.1368 69.871 18.1895 69.0968 17.8105C68.3226 17.4316 66.1935 16.8632 66.3871 15.7263C66.3871 15.1579 67.1613 14.5895 67.5484 14.2105C67.9355 13.6421 68.3226 13.0737 68.9032 12.5053C69.0968 12.3158 69.4839 11.5579 69.871 11.7474C70.2581 11.9368 70.6452 12.6947 71.0323 12.8842C71.2258 13.0737 71.6129 13.0737 71.8064 13.2632C72 13.4526 72 13.6421 72.1935 14.0211C72.5806 14.5895 72.9677 14.9684 73.3548 15.5368C73.7419 16.1053 73.9355 16.1053 74.5161 16.2947C75.0968 16.4842 75.4839 17.0526 75.871 17.4316C76.2581 18 76.6452 18.3789 77.0323 18.9474C77.4193 19.5158 77.8064 20.0842 78.1936 20.6526C78.5806 21.0316 78.9677 21.6 78.9677 22.1684C79.1613 22.5474 79.1613 23.4947 79.5484 23.6842C79.7419 23.6842 79.9355 23.6842 79.9355 23.6842C80.129 23.8737 80.3226 24.4421 80.5161 24.8211C80.9032 25.3895 81.0968 26.1474 81.6774 26.7158C82.0645 27.0947 82.8387 27.2842 82.8387 27.8526C82.8387 28.0421 82.6452 28.2316 82.8387 28.6105C83.0323 28.8 83.4194 28.8 83.6129 28.9895C83.6129 28.0421 83.2258 26.7158 82.8387 25.7684C82.6452 25.3895 82.2581 24.8211 82.0645 24.2526C82.0645 23.4947 82.4516 23.8737 82.8387 24.2526C83.6129 25.7684 84.3871 27.2842 84.9677 28.8C85.1613 29.1789 85.3548 29.5579 85.5484 29.9368C85.7419 30.3158 86.129 31.2632 86.7097 30.8842C87.0968 30.6947 86.9032 30.3158 86.9032 30.1263C86.9032 29.7474 86.9032 29.5579 86.7097 29.1789C86.5161 28.9895 86.3226 28.9895 86.129 28.6105C86.129 28.4211 85.9355 28.0421 85.9355 27.8526C85.7419 27.2842 85.7419 26.7158 85.5484 26.1474C85.3548 25.5789 84.9677 25.2 84.9677 24.6316C85.1613 24.8211 85.7419 24.8211 85.7419 25.2C85.9355 25.3895 85.7419 25.5789 85.9355 25.7684C85.9355 25.9579 86.3226 26.1474 86.3226 26.3368C86.5161 26.7158 86.3226 27.2842 86.3226 27.8526C86.3226 28.6105 86.7097 28.8 87.2903 29.1789C87.871 29.5579 87.4839 29.5579 87.4839 30.1263C87.4839 30.5053 88.0645 30.6947 88.2581 31.2632C88.8387 32.5895 89.2258 34.2947 89.4194 35.8105C89.6129 37.1368 90 38.4632 90 39.9789C90 40.7368 90 41.3053 90 42.0632C90 42.8211 89.8064 43.5789 89.8064 44.3368C89.8064 44.9053 90 45.4737 90 46.0421C90 46.6105 90 47.1789 90 47.7474C90 48.3158 90 49.0737 89.8064 49.6421C89.8064 49.8316 89.8064 50.021 89.8064 50.4C89.6129 50.9684 89.0323 50.9684 89.4194 51.5368C90 52.4842 89.2258 53.8105 89.0323 54.9474C88.4516 57.2211 87.871 59.3053 86.7097 61.3895C86.5161 61.5789 86.3226 61.9579 86.3226 62.1474C86.129 62.5263 86.129 62.9053 85.9355 63.4737C85.7419 64.0421 85.3548 64.4211 84.9677 64.8C84.5806 65.3684 84.1936 65.9368 84 66.5053C83.4194 67.6421 82.4516 68.5895 81.871 69.9158C81.6774 70.4842 81.2903 70.8632 80.7097 71.4316C80.129 72 79.7419 72.5684 79.3548 72.9474C78.9677 73.3263 78.1935 73.3263 78 73.8947C77.8064 74.2737 77.8064 74.4632 77.6129 74.8421C77.4193 75.2211 77.2258 75.4105 76.8387 75.6C76.2581 76.3579 75.4839 76.9263 74.9032 77.4947C74.3226 77.8737 73.7419 78.4421 73.1613 78.8211C72.9677 79.0105 72.9677 79.0105 72.7742 79.2C72.3871 79.3895 71.6129 79.3895 71.6129 78.8211C71.6129 78.6316 72 77.6842 72.1935 77.6842C72.3871 77.4947 72.7742 77.6842 72.9677 77.6842C73.1613 77.6842 73.3548 77.6842 73.5484 77.4947C73.9355 77.1158 74.129 76.5474 74.7097 76.3579C74.9032 76.1684 75.0968 76.1684 75.2903 75.9789C75.4839 75.7895 75.2903 75.4105 75.4839 75.2211C75.6774 75.0316 75.871 75.2211 76.0645 75.0316C76.2581 75.0316 76.4516 74.8421 76.4516 74.6526C76.6452 74.4632 77.2258 74.0842 77.2258 73.7053C77.2258 73.5158 77.0322 72.9474 76.6452 72.7579C76.2581 72.5684 75.6774 73.3263 75.2903 73.5158C74.7097 73.8947 74.5161 73.8947 74.3226 74.4632C74.129 74.8421 73.9355 75.0316 73.7419 75.2211C73.1613 75.6 72.7742 76.1684 72.1935 76.5474C71.6129 76.9263 71.0323 77.3053 70.4516 77.6842C69.871 78.0632 69.6774 78.6316 68.9032 78.8211C68.3226 79.0105 67.5484 78.8211 66.9677 79.0105C66.3871 79.2 67.1613 79.7684 67.3548 79.9579C67.5484 80.3368 67.9355 80.7158 68.5161 80.7158C68.7097 80.7158 69.0968 80.5263 69.2903 80.5263C69.4839 80.5263 69.4839 81.2842 69.4839 81.2842C69.2903 82.4211 66.9677 82.8 66.1936 82.4211C65.4194 82.0421 66.1936 82.0421 66.5806 81.8526C66.9677 81.6632 67.3548 81.0947 67.1613 80.5263C66.7742 79.7684 66.1935 79.9579 65.4193 80.1474C64.8387 80.3368 64.0645 80.3368 63.4839 80.5263C62.9032 80.9053 63.0968 81.4737 62.9032 81.8526C62.7097 82.0421 62.5161 82.0421 62.3226 82.4211C62.129 82.8 62.5161 82.8 62.7097 82.8C63.0968 82.9895 63.2903 82.9895 63.6774 82.9895C64.0645 82.9895 64.6452 82.8 64.8387 83.1789C65.4193 84.1263 62.3226 84.3158 61.9355 84.3158C61.3548 84.3158 60.5806 84.5053 60 84.8842C59.4194 85.4526 59.4194 85.6421 58.6452 85.8316C58.0645 86.021 57.6774 86.2105 57.0968 86.2105C56.5161 86.2105 56.3226 85.8316 55.9355 85.6421C55.5484 85.4526 54.3871 85.4526 54 85.6421C53.4194 86.0211 54 86.7789 53.6129 87.1579C53.2258 87.3474 52.2581 87.3474 51.871 87.5368C51.0968 87.5368 50.3226 87.5368 49.5484 87.5368C48.9677 87.5368 48.1936 87.7263 47.8064 87.5368C47.4194 87.3474 47.4194 87.1579 47.0323 87.1579C46.8387 87.1579 46.4516 87.1579 46.2581 86.9684C46.0645 86.7789 45.6774 87.7263 45.4839 87.9158C45.2903 88.1053 44.5161 87.9158 44.3226 87.9158C43.9355 87.9158 43.5484 87.9158 43.1613 87.9158C42.5806 87.9158 42 87.7263 41.4194 87.7263C39.0968 87.5368 36.5806 86.9684 34.2581 86.5895C32.9032 86.2105 31.5484 85.4526 30.1935 85.0737C28.8387 84.6947 27.4839 84.3158 26.129 83.5579C25.5484 83.1789 24.7742 82.8 24.1935 82.4211C23.6129 82.0421 23.0323 81.8526 22.6452 81.2842C22.4516 81.0947 22.4516 80.1474 22.0645 80.1474C21.6774 79.9579 21.4839 80.5263 21.0968 80.3368C20.5161 80.1474 20.129 79.5789 19.9355 79.2C19.5484 78.4421 19.9355 78.4421 20.3226 78.0632C20.5161 77.8737 20.5161 77.4947 20.9032 77.6842C21.0968 77.6842 21.2903 78.0632 21.6774 78.0632C21.871 78.2526 22.2581 78.4421 22.4516 78.6316C22.6452 78.8211 23.2258 79.2 23.4194 79.2C24.3871 79.2 23.0323 78.2526 22.8387 78.2526C22.2581 77.8737 21.6774 77.4947 21.0968 76.9263C20.5161 76.5474 19.9355 76.1684 19.3548 75.9789C18.1935 75.4105 16.8387 74.2737 15.871 73.3263C14.9032 72.379 14.129 71.2421 13.1613 70.2947C11.4194 68.4 10.0645 66.1263 8.70968 63.8526C8.12903 63.0947 7.93548 62.1474 7.35484 61.3895C6.96774 60.821 6.96774 60.6316 6.96774 60.0632C6.77419 59.4947 6.58065 58.9263 6.3871 58.3579C6.19355 57.7895 5.80645 57.6 5.6129 57.0316C5.22581 56.4632 5.22581 56.0842 5.22581 55.5158C5.22581 55.1368 4.83871 54.7579 4.64516 54.3789C4.45161 53.8105 4.45161 53.2421 4.25806 52.6737C3.87097 51.7263 3.67742 51.3474 3.48387 50.7789C3.29032 50.2105 3.48387 49.6421 3.29032 49.0737C3.09677 47.7474 2.90323 46.4211 2.70968 45.0947C2.70968 43.7684 2.70968 42.4421 2.70968 41.3053C2.70968 40.3579 2.90323 39.4105 3.09677 38.2737C3.09677 37.7053 3.29032 36.9474 3.29032 36.3789C3.48387 35.0526 3.67742 33.7263 4.06452 32.4C4.25806 31.8316 4.45161 31.0737 4.45161 30.5053C4.45161 30.1263 4.83871 29.1789 4.45161 28.6105C4.25806 28.4211 4.45161 28.4211 4.06452 28.4211C3.87097 28.4211 3.67742 28.6105 3.67742 28.6105C3.48387 28.8 3.29032 28.9895 3.29032 29.1789C3.09677 29.7474 2.90323 30.5053 2.70968 31.0737C2.32258 32.2105 2.32258 33.5368 2.12903 34.8632C2.12903 35.4316 1.93548 36 1.74194 36.5684C1.74194 37.3263 1.93548 37.8947 1.93548 38.4632C1.93548 38.6526 1.93548 38.8421 1.74194 39.0316C1.74194 39.2211 1.35484 39.4105 1.35484 39.6C1.35484 39.7895 1.54839 39.7895 1.74194 39.9789C1.93548 40.3579 1.93548 40.7368 1.93548 41.1158C1.93548 42.2526 0.967742 43.0105 1.16129 44.1474C1.16129 44.7158 1.74194 45.0947 1.74194 45.6632C1.74194 45.8526 1.54839 46.2316 1.54839 46.4211C1.54839 46.8 1.54839 47.1789 1.54839 47.5579C1.54839 48.1263 1.54839 48.8842 1.74194 49.4526C1.93548 50.2105 2.12903 50.7789 2.32258 51.3474C2.70968 52.6737 3.09677 54 3.09677 55.3263C3.09677 55.8947 3.29032 56.2737 3.48387 56.6526C3.87097 57.0316 4.25806 57.2211 4.45161 57.4105C4.83871 57.7895 4.45161 57.9789 4.45161 58.3579C4.45161 58.5474 4.83871 59.1158 4.83871 59.3053C5.22581 60.2526 5.6129 61.0105 6 61.7684C6.19355 62.1474 6.3871 62.7158 6.58065 63.0947C6.96774 63.6632 7.35484 63.4737 7.54839 64.0421C7.74194 65.1789 8.32258 65.7474 9.09677 66.6947C9.48387 67.0737 10.0645 67.6421 10.4516 68.2105C10.8387 68.7789 11.4194 69.3474 12 69.9158C12.7742 70.8632 13.5484 72 14.5161 72.9474C15.4839 74.0842 16.6452 75.2211 17.6129 76.1684C17.8065 76.3579 18.3871 76.7368 18 76.9263C17.6129 77.1158 17.2258 76.5474 17.0323 76.3579C16.6452 75.7895 16.0645 75.9789 15.6774 75.6C15.0968 75.221 14.9032 74.4632 14.3226 74.0842C13.5484 72.9474 12.1935 72.379 11.4194 71.4316C10.0645 69.7263 8.90323 67.8316 7.74194 66.1263C6.58065 64.4211 5.22581 62.9053 4.25806 61.0105C3.48387 59.1158 2.51613 57.4105 1.93548 55.5158C1.54839 54.1895 1.35484 52.8632 1.35484 51.5368C1.35484 50.9684 1.16129 50.2105 1.16129 49.6421C1.16129 49.4526 1.16129 49.0737 1.16129 48.8842C1.16129 48.6947 1.35484 48.3158 1.35484 48.1263C1.35484 47.7474 0.774194 46.9895 0.580645 46.6105C0.193548 46.0421 0 45.2842 0 44.7158C0 43.5789 0 42.4421 0 41.3053C0 39.9789 0.193548 38.6526 0.193548 37.3263C0.193548 36 0.774194 34.8632 0.580645 33.5368C0.580645 33.1579 0.387097 32.9684 0.580645 32.7789C0.774194 32.5895 0.967742 32.4 0.967742 32.2105C1.35484 31.6421 1.35484 30.6947 1.35484 30.1263C1.35484 29.5579 1.35484 28.9895 1.54839 28.4211C1.74194 28.2316 1.93548 28.0421 1.93548 27.6632C2.12903 27.2842 2.12903 26.9053 2.12903 26.5263C2.12903 26.3368 2.12903 25.9579 2.32258 25.7684C2.51613 25.3895 2.70968 25.3895 2.90323 25.0105C3.29032 24.4421 3.29032 23.6842 3.48387 23.1158C3.67742 22.7368 3.87097 22.3579 4.06452 21.7895C4.25806 21.2211 3.87097 21.0316 4.45161 20.6526C4.83871 20.4632 5.03226 20.2737 5.41935 19.8947C5.80645 19.7053 6.19355 19.5158 6.3871 19.3263C6.77419 18.7579 7.16129 18.3789 7.54839 17.8105C7.74194 17.6211 7.93548 17.4316 8.12903 17.2421C8.32258 16.8632 8.32258 16.6737 8.51613 16.2947C8.70968 16.1053 9.09677 15.9158 9.09677 15.9158C9.48387 15.7263 9.87097 15.5368 10.0645 15.3474C10.6452 14.7789 11.0323 14.4 11.4194 13.8316C12.1935 12.8842 13.1613 12.1263 13.9355 11.3684C15.4839 10.0421 17.2258 8.71579 18.7742 7.9579C20.129 7.2 21.2903 6.63158 22.4516 5.87368C23.4194 5.11579 24.7742 4.73684 25.9355 4.35789C27.6774 3.78947 29.4194 3.22105 31.3548 2.84211C32.9032 2.46316 34.4516 2.46316 36 2.27368C37.1613 2.08421 38.3226 1.89474 39.4839 1.70526C40.2581 1.51579 42 1.51579 42.3871 0.757895C43.1613 1.51579 44.5161 1.70526 45.4839 1.70526C46.0645 1.70526 46.4516 1.51579 47.0323 1.13684C47.4194 0.947368 47.2258 0.947368 47.8064 1.32632C48.1936 1.70526 48.7742 1.70526 49.1613 1.70526C49.7419 1.70526 50.129 1.51579 50.7097 1.51579C51.2903 1.51579 51.6774 1.89474 52.2581 2.08421C52.4516 2.08421 52.8387 2.08421 53.0323 2.27368C53.2258 2.27368 53.4194 2.46316 53.6129 2.65263C54.1936 3.03158 54.7742 3.03158 55.3548 3.22105C56.129 3.41053 56.7097 3.6 57.4839 3.97895C57.6774 3.97895 58.0645 4.16842 58.2581 4.16842C58.6452 4.16842 58.6452 3.97895 59.0323 3.97895C59.6129 3.97895 59.4194 4.35789 59.8064 4.35789C60.1935 4.35789 60.1935 3.78947 60.5806 3.97895C60.7742 3.97895 60.7742 4.35789 60.9677 4.35789C60.9677 4.16842 61.3548 4.35789 61.5484 4.35789C62.129 4.35789 62.7097 4.35789 63.0968 4.73684C63.6774 5.30526 64.0645 5.49474 65.0322 5.87368C65.6129 6.06316 66.3871 6.44211 66.7742 7.01053C67.1613 7.38947 67.1613 8.14737 67.7419 8.14737C68.129 8.14737 68.3226 8.14737 68.7097 8.33684C69.0968 8.52632 69.2903 8.71579 69.6774 8.90526C70.2581 9.28421 70.2581 9.28421 70.0645 9.85263Z" fill="#1F3773"/>
</svg>
