<svg width="89" height="86" viewBox="0 0 89 86" fill="none" xmlns="http://www.w3.org/2000/svg">
<path fill-rule="evenodd" clip-rule="evenodd" d="M17.1068 58.3753C17.1068 58.5661 17.2975 58.7568 17.2975 58.9476C17.6791 59.1384 17.8698 59.1384 18.4421 59.1384C19.0144 59.1384 19.5868 58.3753 19.0145 57.803C18.8237 57.6122 18.6329 57.4214 18.2514 57.6122C17.8698 57.6122 17.679 57.6122 17.4882 57.803C17.1067 57.803 17.1068 57.9938 17.1068 58.3753ZM42.0976 67.1507C42.2883 66.7691 41.9067 66.1968 41.3344 66.1968C40.9529 66.1968 40.7622 66.1968 40.5714 66.3876C40.1899 66.5784 39.999 67.3415 40.3806 67.723C40.5714 67.9138 40.7622 67.9138 41.1437 67.9138C41.5252 67.9138 41.7161 67.9138 41.9068 67.723C41.9068 67.5322 41.9068 67.3415 42.0976 67.1507ZM42.0976 65.0522C42.0976 65.8153 43.2421 66.1968 43.6237 65.4338C43.8145 65.243 43.8145 64.6707 43.8145 64.2891C43.6238 63.9076 43.0514 63.3353 42.4791 64.0984C42.0976 64.4799 42.0976 64.8615 42.0976 65.0522ZM46.1037 67.1507C46.2944 66.7691 46.1038 66.3876 45.7222 66.1968C45.5315 66.1968 45.5314 66.1968 45.3407 66.0061C44.9591 66.0061 44.3867 66.0061 44.196 66.5784C44.0052 66.9599 44.3868 67.5322 44.9591 67.5322C45.1499 67.5322 45.5315 67.5322 45.7222 67.5322C45.7222 67.5322 45.9129 67.3415 46.1037 67.1507ZM42.0976 69.2492C42.0976 69.4399 42.2883 69.6307 42.2883 69.8215C42.6698 70.203 43.2421 70.203 43.6237 69.8215C43.8145 69.6307 43.8145 69.4399 43.8145 69.0584C43.8145 68.6768 43.8145 68.4861 43.6237 68.2953C43.2421 67.9138 42.8607 67.9138 42.4791 68.2953C42.0976 68.4861 42.0976 68.8676 42.0976 69.2492ZM20.9222 60.6645C20.9222 60.4738 20.9222 60.0922 20.9222 59.9014L20.7313 59.7107C20.7313 59.7107 20.5406 59.5199 20.3498 59.5199C19.7775 59.3291 19.396 59.7107 19.2052 60.0922C19.2052 60.283 19.2052 60.6645 19.2052 60.8553C19.396 61.2368 19.9682 61.4276 20.3498 61.2368C20.7313 61.0461 20.9222 60.8553 20.9222 60.6645ZM62.8915 43.8768C62.8915 44.0676 63.0821 44.2584 63.2729 44.4491C63.4637 44.6399 63.6545 44.6399 64.036 44.6399C64.6084 44.4491 64.6083 43.8768 64.6083 43.3045C64.6083 42.3507 62.7007 42.1599 62.8915 43.8768ZM21.1129 58.3753C21.1129 58.5661 21.3036 58.7568 21.3036 58.9476C21.4944 59.1384 21.6852 59.1384 21.6852 59.1384C22.0667 59.1384 22.4483 59.1384 22.8299 58.7568C22.8299 58.7568 22.8299 58.7568 22.8299 58.5661C23.0206 58.3753 23.0206 57.9938 22.8299 57.803C22.8299 57.6122 22.6391 57.6122 22.4483 57.4214C22.2575 57.2307 22.2576 57.2307 21.876 57.2307C21.6853 57.2307 21.3036 57.2307 21.3036 57.2307C21.3036 57.803 21.1129 57.9938 21.1129 58.3753ZM62.8915 39.2983V39.8707C62.8915 40.8245 64.6083 41.0153 64.6083 39.8707C64.6083 39.4891 64.6084 39.2983 64.4176 38.9168C63.6545 38.1537 62.8915 38.9168 62.8915 39.2983ZM20.1591 57.4214C20.5406 57.4214 20.9222 57.0399 20.9222 56.6584C20.9222 56.2768 20.9221 55.8953 20.7313 55.7045C20.159 55.1322 19.3959 55.5138 19.3959 56.2768V56.6584C19.3959 56.8491 19.5868 57.4214 20.1591 57.4214ZM65.9437 42.5414C66.516 42.5414 66.8976 42.1599 66.8976 41.7783C66.8976 41.3968 66.516 41.0153 66.1345 41.0153C65.7529 41.0153 65.3714 41.0153 64.9899 41.3968C64.7991 41.5876 64.7992 41.7784 64.7992 42.1599C64.7992 42.3507 64.9898 42.5414 65.1806 42.7322C65.3714 42.5414 65.5622 42.5414 65.9437 42.5414ZM60.7929 41.5876C60.7929 41.7783 60.793 41.9691 60.9838 41.9691C61.1745 42.3507 61.556 42.3507 62.1283 42.3507C62.7007 42.3507 62.8915 41.9691 62.8915 41.3968C62.8915 41.0153 62.5099 40.6337 62.1283 40.6337C61.7468 40.6337 61.3653 40.6337 60.9838 40.8245C60.793 41.206 60.7929 41.3968 60.7929 41.5876ZM56.2145 21.7476C56.0238 21.7476 55.8329 21.7476 55.6421 21.9383C54.8791 22.5106 54.8791 23.4645 55.4514 24.0368C56.4053 24.7999 57.7406 24.0368 57.5498 22.7014C57.5498 22.1291 57.1683 21.7476 56.596 21.7476C56.596 21.7476 56.4053 21.5568 56.2145 21.7476ZM56.2145 23.0829C56.2145 22.7014 56.7868 22.7014 56.7868 23.0829C56.7868 23.4645 56.2145 23.4645 56.2145 23.0829ZM57.1684 60.8553C57.1684 60.4738 56.7868 59.5199 55.833 60.0922C55.0699 60.4738 54.116 60.0922 53.7344 60.0922C52.5898 60.0922 52.5899 61.4276 53.5437 61.6184C53.7345 61.6184 53.7345 61.6184 53.9253 61.6184C54.1161 61.6184 54.1161 61.6184 54.3068 61.6184C54.6884 61.6184 54.6883 61.6184 55.0699 61.6184C55.4514 61.6184 56.0237 61.4276 56.4053 61.4276C56.7868 61.4276 56.9776 61.4276 57.1684 60.8553ZM40.1899 56.4676C40.1899 56.2768 40.1899 56.0861 39.9991 55.8953C39.9991 55.7045 39.9991 55.8953 39.9991 55.7045L39.8083 55.5138C39.8083 55.5138 39.8083 55.5138 39.6176 55.5138C39.236 55.323 38.8545 55.5137 38.6637 55.7045L37.7099 56.6584L36.3745 57.6122C35.6114 58.1845 35.0391 58.3753 34.2761 58.7568L33.7036 58.9476C33.5129 58.9476 33.513 59.1384 33.3222 59.1384L31.6052 59.7107C31.4145 59.7107 31.2237 60.0922 31.2237 60.283C31.2237 60.6645 31.4145 61.0461 31.6052 61.2368C31.796 61.2368 31.796 61.2368 31.9868 61.2368C32.1776 61.2368 32.7498 61.0461 33.1314 60.8553L33.5129 60.6645C33.8945 60.4738 34.276 60.283 34.6575 60.283L35.0391 60.0922C35.6114 59.7107 36.3744 59.5199 36.9468 58.9476C36.9468 58.9476 36.9468 58.9476 37.1376 58.9476C37.3284 58.7568 37.7098 58.5661 37.9006 58.3753C37.9006 58.3753 37.9007 58.3753 38.0914 58.1845C38.0914 58.1845 38.0914 58.1845 38.2822 58.1845L39.236 57.4214C39.4268 57.4214 40.1899 56.8491 40.1899 56.4676ZM50.3006 25.9445C50.3006 26.7076 51.4452 28.4245 51.8268 28.9968L52.5899 29.9506C52.7806 30.1414 52.7806 30.1414 52.7806 30.1414L53.353 30.5229C53.5438 30.5229 53.5437 30.7137 53.7344 30.7137C53.9252 30.7137 53.9252 30.9045 54.116 30.9045C54.4975 31.0953 54.8792 31.286 55.2607 31.286C55.4515 31.286 55.4514 31.286 55.6421 31.286C56.0237 31.286 56.7868 31.286 57.1684 31.286C58.1222 31.0953 59.0761 30.7137 60.0299 30.3322C60.793 29.9506 60.4114 28.806 59.6484 28.806C59.2668 28.806 59.2668 28.806 58.8852 29.1876L58.1222 29.5691C57.5499 29.7599 57.1683 29.9506 56.596 29.9506C55.6421 29.9506 55.0699 29.7599 54.3068 29.1876C54.1161 28.9968 53.7345 28.6153 53.5437 28.4245C53.353 28.0429 53.1622 27.8522 52.9714 27.6614C52.7807 27.4706 52.3991 26.7076 52.2083 26.5168C52.0175 26.1353 51.8268 25.5629 51.4453 25.3722C51.2545 25.3722 50.8729 25.3722 50.6822 25.3722L50.4915 25.5629C50.3007 25.5629 50.3006 25.7537 50.3006 25.9445ZM45.5314 54.7507C45.7221 54.9414 45.9129 55.323 46.1037 55.5138C46.2944 55.8953 46.8667 56.4676 47.0575 56.6584L47.2484 56.8491C47.6299 57.2307 48.0115 57.803 48.5838 58.1845C48.7745 58.3753 49.7283 59.3291 49.9191 59.5199L50.3006 59.9014L50.4915 60.0922C51.2545 60.6645 52.2083 60.0922 51.8268 59.1384C51.8268 58.9476 51.2545 58.5661 51.0637 58.3753L50.6822 58.1845C50.6822 58.1845 50.6822 58.1845 50.4915 57.9938C50.1099 57.803 49.5375 57.0399 49.3468 56.8491L49.156 56.6584L48.9652 56.4676C48.3929 55.8953 48.5837 56.0861 48.2022 55.5138L47.4391 54.3691C47.2483 53.9876 46.2944 52.843 46.1037 52.4614L45.9129 52.0799C45.9129 51.8891 45.7222 51.8891 45.7222 51.8891C45.5315 51.6984 45.5314 51.5076 45.3407 51.3168L44.9591 50.7445C44.9591 50.5537 44.7684 50.5537 44.7684 50.363C44.3868 49.7907 43.6237 48.0737 43.433 47.5014L43.0514 46.3568C43.0514 46.166 42.8607 45.9753 42.8607 45.5937L42.4791 44.0676C42.4791 43.8768 42.4791 43.8768 42.4791 43.686C42.4791 43.1137 42.2883 42.5414 42.2883 41.9691C42.2883 41.5876 42.2883 41.3968 42.0976 41.206C41.5252 40.6337 40.5714 41.0153 40.7621 42.1599L40.953 42.923C40.953 43.3045 41.1437 44.0676 41.3344 44.4491L41.5253 45.2122C41.716 45.5937 41.9068 46.3568 41.9068 46.7384C41.9068 46.7384 42.0976 46.9291 42.0976 47.1199C42.2883 47.883 42.6699 48.8368 43.0514 49.4091L43.433 50.1722C43.6237 50.5537 44.0053 51.5076 44.3868 51.8891L45.1498 53.0337C45.3406 53.2245 45.3406 53.4153 45.5314 53.6061C45.5314 53.7968 45.7222 53.7968 45.7222 53.9876C45.3407 54.5599 45.5314 54.7507 45.5314 54.7507ZM36.3745 48.6461C36.3745 48.2645 36.1837 47.883 35.8022 47.6922C35.4206 47.5014 35.0391 47.6922 34.8483 47.883C34.8483 47.883 34.8483 47.883 34.6575 47.883L34.2761 48.0737C34.2761 48.0737 34.276 48.0737 34.0852 48.0737L33.7036 48.2645C33.1313 48.6461 32.5591 49.0276 32.1775 49.5999L31.796 49.9814C31.6052 50.1722 31.2237 50.5537 31.0329 50.7445C31.0329 50.7445 31.0329 50.7445 31.0329 50.9353L30.8421 51.1261L30.6514 51.3168C30.6514 51.3168 30.6514 51.5076 30.4607 51.5076L29.316 52.843C28.9344 53.2245 28.5529 53.7968 28.3621 54.3691L27.7898 55.5138C27.7898 55.5138 27.7899 55.7045 27.5991 55.7045C27.4083 56.0861 27.2175 56.4676 27.0267 56.8491C27.0267 57.0399 27.0268 57.0399 26.836 57.0399C26.836 57.2307 26.836 57.2307 26.836 57.2307C26.836 57.4215 26.6453 57.803 26.6453 57.9938C26.4545 58.9476 26.4544 59.3291 26.4544 60.4738C26.6452 61.6184 27.0268 62.5722 27.7898 63.3353C27.9806 63.5261 28.1714 63.7168 28.3621 63.7168C28.7437 63.9076 29.316 64.2891 29.8883 64.2891C30.079 64.2891 30.4606 64.2892 30.8421 64.4799C31.4144 64.4799 32.1775 64.4799 32.7498 64.2891L33.3222 64.0984C33.513 64.0984 33.5129 64.0984 33.7036 64.0984C33.8944 64.0984 34.276 63.9076 34.4668 63.9076C34.6575 63.9076 35.2299 63.5261 35.4206 63.5261C35.8022 63.3353 35.9929 63.3353 36.3745 63.1445L37.3283 62.5722C37.5191 62.3815 37.9006 62.1907 38.2822 61.9999C38.6637 61.8091 39.4268 61.2368 39.6176 61.0461L39.8083 60.8553C39.8083 60.8553 39.9991 60.8553 39.9991 60.6645C39.9991 60.6645 40.1899 60.6645 40.1899 60.4738L40.5714 60.0922C40.7622 59.9014 40.7622 59.9015 40.953 59.7107C40.953 59.7107 41.1437 59.7107 41.1437 59.5199L41.3344 59.3291C41.9067 58.5661 40.9529 57.6122 40.1899 58.1845C39.9991 58.1845 39.0453 59.3291 38.6637 59.5199C38.473 59.7107 38.0914 59.9014 37.9006 60.0922L37.519 60.283C36.9467 60.6645 36.5653 60.8553 36.1837 61.0461C35.993 61.2368 35.4206 61.4276 35.0391 61.6184C34.8483 61.8091 34.4668 61.8091 34.2761 61.9999C34.0853 61.9999 33.8944 62.1907 33.7036 62.1907C33.5129 62.1907 33.5129 62.1907 33.5129 62.1907C33.3222 62.1907 33.3222 62.1907 33.3222 62.1907C33.1314 62.1907 33.1314 62.1907 32.9406 62.1907C32.3683 62.3815 31.4145 62.3815 30.6514 62.3815C30.0791 62.3815 29.5068 62.1907 29.1253 61.8091C28.1714 61.0461 27.7898 59.9015 27.9806 58.7568C28.1713 57.803 28.1714 57.9938 28.1714 57.2307C28.1714 57.0399 28.1714 57.0399 28.1714 57.0399C28.1714 56.8491 28.3621 56.6584 28.3621 56.4676C28.3621 56.2768 28.553 56.0861 28.553 55.8953L28.9344 54.9414C29.6975 53.7968 29.8883 53.2245 30.8421 52.2707L31.6052 51.3168C31.6052 51.3168 31.6052 51.1261 31.796 51.1261C32.1775 50.5537 32.9407 49.9814 33.3222 49.5999L34.0852 49.0276C34.276 48.8368 34.276 48.8368 34.4668 48.6461C35.8022 49.2184 36.1837 49.2184 36.3745 48.6461ZM13.6729 33.1937C13.6729 33.5753 13.6729 34.1476 13.6729 34.5291L14.0544 36.0553C14.2452 36.8183 14.8175 37.963 15.3898 38.5353C15.5806 38.9168 15.9621 39.2983 16.3437 39.4891C16.5344 39.6799 16.5344 40.0614 16.3437 40.443C16.1529 41.0153 16.1529 42.1599 16.1529 42.7322C16.1529 43.3045 16.1529 43.8768 16.3437 44.4491C16.3437 44.8307 16.5344 45.2122 16.5344 45.403C16.7252 45.9753 17.1067 46.7384 17.2975 47.1199L17.4882 47.3107C17.679 47.6922 17.8698 47.883 18.2514 48.2645C18.4421 48.4553 18.8237 48.8368 19.0145 49.0276C19.396 49.4091 19.5868 49.4091 19.9683 49.7907L20.5406 50.1722C20.9222 50.363 21.3037 50.5537 21.6852 50.5537H21.876C22.6391 50.7445 24.5467 51.1261 25.119 51.1261C26.4544 51.1261 27.7899 51.1261 29.1253 51.1261C29.5068 51.1261 29.8883 50.7445 29.8883 50.363C29.8883 50.1722 29.8883 49.9814 29.6975 49.7907C29.5068 49.5999 29.5067 49.5999 29.316 49.5999C28.9344 49.5999 28.3621 49.5999 27.9806 49.5999C27.0267 49.5999 26.0729 49.5999 24.9283 49.4091C24.5468 49.4091 24.356 49.4091 23.9745 49.2184C23.4021 49.0276 23.0206 49.0276 22.2575 48.8368C21.4944 48.646 20.3498 48.0737 19.7775 47.5014C19.0144 46.9291 18.4421 46.166 18.2514 45.403C18.2514 45.2122 18.2514 45.2122 18.0606 45.0214C17.8699 44.6399 17.6791 43.686 17.6791 43.3045C17.6791 42.5414 17.6791 41.7783 17.6791 41.0153C17.6791 40.6337 17.8699 39.4891 18.0606 39.1076L18.6329 36.8183C18.6329 36.6276 18.8237 36.4368 18.8237 36.4368C18.8237 36.246 19.0144 35.8645 19.2052 35.6737C19.396 35.2922 19.5868 35.1014 19.5868 34.7199C19.5868 34.3383 19.2052 33.9568 18.8237 33.9568C18.6329 33.9568 18.2514 33.9568 18.2514 34.1476C18.0606 34.3383 18.0606 34.5291 17.8698 34.7199L17.1068 36.8183C17.1068 37.0091 17.1067 37.1999 16.916 37.1999C16.7252 37.1999 16.1529 36.0553 15.9621 35.8645C15.9621 35.8645 15.9622 35.6737 15.7714 35.6737C15.1991 34.5291 15.0083 33.3845 15.1991 32.0491C15.1991 31.6676 15.3898 31.286 15.3898 30.7137C15.3898 30.3322 15.7714 29.9506 15.7714 29.5691C15.7714 29.3783 16.3436 28.2337 16.5344 28.0429C16.7252 28.2337 16.916 28.806 17.1068 29.1876C17.1068 29.1876 17.1068 29.1876 17.1068 29.3783L17.8698 31.286C18.0606 31.4768 18.2514 32.0491 18.2514 32.2399C18.4421 32.4306 18.8237 32.6214 19.2052 32.4306C19.5868 32.2399 19.7775 31.8583 20.1591 31.4768C20.5406 31.0953 20.7314 30.9045 21.1129 30.5229L22.639 28.9968C22.639 28.9968 22.8298 28.806 23.0206 28.806C23.2114 29.1876 23.2113 30.3322 23.2113 30.7137C23.2113 31.0953 23.2113 31.6676 23.2113 32.0491C23.2113 32.2399 23.2114 32.4306 23.0206 32.6214C22.8298 33.3845 22.639 34.3383 22.2575 34.9106C22.2575 35.1014 22.2575 35.1014 22.0668 35.1014C22.0668 35.1014 22.0668 35.2922 21.876 35.2922L21.4945 35.6737C21.4945 35.6737 21.4944 35.8645 21.3036 35.8645L21.1129 36.0553C21.1129 36.0553 21.113 36.246 20.9222 36.246L20.7313 36.4368C20.5406 36.6276 20.3498 36.8183 20.3498 37.1999C20.3498 37.5814 20.7314 37.963 21.1129 37.963C21.3037 37.963 21.4944 37.963 21.6852 37.7722C21.876 37.5814 21.876 37.5814 22.0668 37.3907L22.2575 37.1999C22.4482 37.0091 22.6391 36.8183 22.8299 36.6276L23.2113 36.246C23.7836 35.483 24.1652 34.7199 24.356 33.766C24.356 33.5753 24.5467 33.3845 24.5467 33.1937C24.5467 33.003 24.5467 33.003 24.5467 32.8122C24.5467 32.6214 24.5467 32.6214 24.5467 32.4306C24.5467 32.2399 24.5467 32.2399 24.5467 32.0491C24.5467 31.8583 24.5467 31.8583 24.5467 31.6676C24.5467 30.9045 24.5467 29.7599 24.5467 28.9968C24.5467 28.806 24.5467 28.6153 24.5467 28.4245C24.5467 28.2337 24.5468 28.0429 24.356 27.8522C24.356 27.4706 24.1652 27.2799 24.1652 27.0891C24.1652 26.8983 23.9745 26.5168 23.7837 26.326C23.4022 25.9445 22.8299 26.1353 22.4483 26.5168L20.1591 30.3322C19.9683 30.5229 19.7775 30.7137 19.5868 30.9045C19.396 30.9045 19.2052 30.3322 19.2052 30.1414C19.0144 29.5691 18.6329 28.9968 18.4421 28.4245V28.2337C18.2513 27.8522 18.0606 27.4706 17.8698 27.0891C17.679 26.8983 17.679 26.5168 17.4882 26.5168C17.2975 26.326 16.916 26.326 16.7252 26.5168C16.5345 26.5168 16.3437 26.8983 16.1529 27.0891L15.9621 27.4706C15.9621 27.4706 15.9622 27.4706 15.7714 27.6614C15.3898 28.2337 14.8175 28.9968 14.6267 29.7599C14.6267 29.9506 14.436 30.3322 14.2453 30.5229C14.2453 30.9045 14.0544 31.0953 14.0544 31.4768C13.8636 32.0491 13.6729 32.4306 13.6729 33.1937ZM36.5652 41.206C36.5652 41.5876 36.5652 42.1599 36.5652 42.5414C36.5652 42.7322 36.5652 42.923 36.5652 43.1137L36.756 44.2584C36.756 44.6399 37.1375 46.166 37.3283 46.7384C37.3283 47.1199 37.5191 47.5014 37.7099 47.883L38.6637 50.5537C38.8545 51.1261 39.0452 51.6984 39.4267 52.0799L39.9991 53.2245C40.3807 53.7968 40.7622 54.7507 41.1437 55.1322L41.3344 55.5138C41.5252 55.8953 41.716 56.2768 42.0976 56.4676C42.2883 56.8491 43.2422 57.9938 43.433 58.3753C43.8145 58.7568 44.0053 59.1384 44.3868 59.5199C44.7683 59.9014 45.1498 60.283 45.5314 60.8553L47.2484 62.3815C47.2484 62.3815 47.2483 62.3815 47.4391 62.3815L47.8206 62.763L48.0114 62.9538C48.3929 63.1445 48.5837 63.5261 48.9652 63.7168C49.156 63.9076 49.156 63.9076 49.3468 63.9076C49.5375 63.9076 49.5376 64.0984 49.7283 64.0984L52.0176 65.243L53.5437 65.8153C53.9253 65.8153 54.3068 66.0061 54.6883 66.0061C55.2606 66.0061 56.0237 66.0061 56.596 66.0061C56.7868 66.0061 56.7868 66.0061 56.9776 66.0061C57.3591 66.0061 57.9314 65.8153 58.313 65.6245C58.6945 65.4338 58.8853 65.243 59.2668 65.0522L59.4575 64.8615C59.8391 64.4799 60.0298 64.2891 60.4114 63.9076L60.6022 63.5261L60.7929 63.1445C60.9837 62.9538 60.9837 62.763 61.1745 62.5722L61.3652 61.9999C61.3652 61.8091 61.5561 61.6184 61.5561 61.4276C61.5561 61.4276 61.5561 61.4276 61.5561 61.2368C61.7468 60.6645 61.7469 60.283 61.9376 59.7107C61.9376 59.5199 61.9376 59.5199 61.9376 59.3291C61.9376 58.9476 62.1283 58.3753 62.1283 57.9938V56.2768C62.1283 56.0861 61.9376 54.5599 61.9376 54.1784C61.9376 53.9876 61.9376 53.9876 61.9376 53.7968C61.9376 53.6061 61.9376 53.2245 61.7468 53.0337L61.5561 51.8891C61.3653 51.5076 61.3653 51.1261 61.1745 50.7445C60.9837 50.363 60.9837 49.7907 60.7929 49.4091C60.7929 49.2184 60.793 49.2184 60.6022 49.0276L60.2207 48.0737C60.0299 47.883 59.8391 47.3107 59.6484 46.9291L58.8852 45.5937C58.6945 45.403 58.6945 45.2122 58.5037 45.0214L57.9314 44.0676C57.9314 44.0676 57.9314 44.0676 57.9314 43.8768C57.7406 43.3045 56.7868 41.9691 56.4053 41.3968L54.8791 39.2983C54.8791 39.1076 54.6883 39.1076 54.6883 39.1076L53.7344 38.1537C53.5437 37.963 52.3991 36.6276 52.2083 36.4368L50.3006 34.9106C49.7283 34.5291 49.1561 34.1476 48.5838 33.766C48.5838 33.766 48.5837 33.766 48.3929 33.766C48.2022 33.5753 48.0114 33.5753 47.8206 33.3845C47.6299 33.1937 47.4391 33.1937 47.2484 33.003C47.0576 32.8122 46.8668 32.8122 46.6761 32.8122C46.4853 32.6214 46.1037 32.6214 45.9129 32.4306L44.9591 32.2399C44.5776 32.2399 44.0053 32.0491 43.8145 32.0491C43.2422 32.0491 42.0975 31.8583 41.716 32.0491C41.5252 32.0491 41.5252 32.0491 41.3344 32.0491C41.1437 32.0491 41.1438 32.0491 40.953 32.2399C40.5714 32.2399 40.3806 32.4306 40.1899 32.6214L39.4267 33.003C39.236 33.003 39.2361 33.1937 39.0453 33.1937L38.6637 33.5753L37.9006 34.3383C37.5191 34.9106 37.3283 35.1014 36.9468 35.6737C36.756 36.246 36.3745 36.8183 36.3745 37.3907C36.3745 37.5814 36.3745 37.5814 36.3745 37.7722C36.3745 37.963 36.3745 37.963 36.3745 38.1537C36.5652 38.9168 36.5652 40.443 36.5652 41.206ZM38.0914 40.443C38.0914 40.2522 38.0914 39.8707 38.0914 39.6799C38.0914 38.9168 38.2821 38.3445 38.4729 37.7722C38.6637 37.3906 38.6637 37.0091 38.8544 36.6276C38.8544 36.4368 39.0453 36.246 39.0453 36.0553C39.2361 35.8645 39.236 35.6737 39.236 35.6737C39.236 35.483 39.4268 35.2922 39.6176 35.2922C39.8083 35.1014 39.9991 34.9106 40.1899 34.7199C40.1899 34.7199 40.3806 34.7199 40.3806 34.5291C40.7621 34.1476 41.3345 33.9568 41.9068 33.766C42.0976 33.766 42.0975 33.766 42.2883 33.766C42.479 33.766 42.4791 33.766 42.6698 33.766C42.8606 33.766 43.0514 33.766 43.433 33.766C43.8145 33.766 44.3868 33.766 44.7684 33.9568C44.9591 33.9568 44.959 33.9568 45.1498 33.9568L46.4852 34.3383C46.8668 34.5291 47.2484 34.7199 47.6299 34.9106L47.8206 35.1014C48.0114 35.1014 48.0114 35.2922 48.0114 35.2922C48.2021 35.483 49.3468 36.0553 49.5376 36.246L50.1099 36.6276C50.4914 37.0091 50.8729 37.1999 51.2545 37.5814L51.4453 37.7722C51.6361 37.963 51.8268 37.963 51.8268 38.1537L54.116 40.6337C54.4975 41.0153 55.0699 41.7783 55.4514 42.3507L56.7868 44.4491C56.9776 44.6399 57.1683 45.0214 57.3591 45.2122C57.5499 45.5937 57.9315 46.166 58.1222 46.5476C58.313 47.1199 59.2668 49.0276 59.4575 49.4091C59.4575 49.7907 59.6483 49.9814 59.8391 50.363C59.8391 50.363 59.8391 50.363 59.8391 50.5537C59.8391 50.5537 59.8391 50.5537 59.8391 50.7445L60.0299 51.1261V51.3168C60.0299 51.3168 60.0299 51.3168 60.0299 51.5076L60.2207 52.0799C60.2207 52.2707 60.2206 52.2707 60.4114 52.4614C60.4114 52.6522 60.4114 52.6522 60.4114 52.843C60.4114 53.0337 60.6022 53.2245 60.6022 53.6061L60.7929 54.3691C60.7929 54.9414 60.9838 55.323 60.9838 55.8953C60.9838 56.0861 60.9838 56.0861 60.9838 56.2768C60.9838 56.6584 60.9837 57.0399 61.1745 57.4214C61.1745 57.9938 61.1745 60.0922 60.9838 60.6645C60.793 61.0461 60.793 61.6184 60.6022 61.9999C60.4114 62.5722 60.2206 63.1445 59.8391 63.7168L59.4575 64.2891C58.8852 64.8615 58.3129 65.4338 57.5498 65.6245C56.9775 65.8153 55.6422 66.0061 54.8791 65.8153C54.4976 65.8153 54.116 65.6245 53.7344 65.6245C53.5437 65.6245 53.3529 65.4338 53.1622 65.4338C52.9714 65.4338 52.9714 65.4338 52.9714 65.4338L52.2083 65.243C52.0175 65.243 51.8268 65.0522 51.8268 65.0522C51.0637 64.6707 50.4914 64.2891 49.7283 63.9076C49.5376 63.9076 49.5375 63.7168 49.3468 63.7168L48.7745 63.3353C48.7745 63.3353 48.5838 63.3353 48.5838 63.1445C48.2022 62.763 47.8206 62.5722 47.4391 62.1907L46.8668 61.6184C46.676 61.4276 46.4853 61.2368 46.2945 61.0461C46.1037 60.8553 46.1037 60.8553 45.9129 60.6645L45.7222 60.283L44.196 58.5661C43.8144 58.1845 43.6237 57.803 43.433 57.4214C43.2422 57.2307 43.0514 56.8491 42.8607 56.6584C42.4791 56.0861 42.0976 55.7045 41.9068 55.1322L41.3344 54.1784C41.1437 53.7968 40.9529 53.4153 40.7621 53.2245C40.5714 52.843 39.8083 51.3168 39.8083 51.1261C39.8083 50.9353 39.6176 50.7445 39.6176 50.7445L39.0453 49.2184C39.0453 49.2184 39.0453 49.2184 39.0453 49.0276L38.8544 48.4553C38.8544 48.2645 38.8544 48.2645 38.8544 48.2645V48.0737C38.8544 47.6922 38.4729 46.5476 38.4729 46.3568C38.4729 45.9753 38.2822 45.5937 38.2822 45.2122L38.0914 44.0676C38.0914 43.8768 38.0914 43.686 38.0914 43.4953C38.0914 43.3045 38.0914 43.1137 38.0914 42.923V40.443ZM28.3621 31.6676C28.3621 32.4306 28.9345 32.4306 29.6975 32.8122L30.4607 33.1937C30.6514 33.3845 31.0329 33.3845 31.2237 33.5753C31.4144 33.5753 32.1776 33.9568 32.3684 33.9568C32.3684 34.1476 32.1776 34.3383 31.9868 34.5291C31.9868 34.5291 31.9867 34.7199 31.796 34.7199C31.796 34.9106 31.6052 34.9106 31.6052 35.1014C31.4145 35.2922 31.2237 35.483 31.0329 35.6737C31.0329 35.6737 31.0329 35.8645 30.8421 35.8645L27.5991 40.0614C26.836 41.0153 26.4544 41.3968 25.5006 42.1599C25.3098 42.3507 25.1191 42.3507 24.9283 42.5414C24.9283 42.5414 24.7376 42.5414 24.7376 42.7322C24.5468 42.923 24.1652 42.923 23.9745 43.1137C23.7837 43.1137 23.2114 43.3045 23.0206 43.3045C22.2575 43.3045 21.8759 43.3045 21.3036 42.923C20.9221 42.7322 20.7314 42.3507 20.5406 41.9691C20.3499 41.7783 20.1591 41.3968 19.9683 41.206C19.7776 41.0153 19.5867 41.0153 19.3959 41.0153C19.0144 41.206 18.8237 41.3968 18.8237 41.7783C18.8237 42.1599 18.8237 42.1599 19.0145 42.5414L19.2052 42.923C19.2052 43.1137 19.396 43.3045 19.5868 43.4953C19.5868 43.4953 19.5868 43.4953 19.5868 43.686C19.7775 43.8768 20.159 44.2584 20.3498 44.4491L20.5406 44.6399C20.7314 44.8307 20.7314 44.8307 21.1129 45.0214C21.3037 45.0214 21.3037 45.2122 21.4945 45.2122C21.876 45.2122 22.2575 45.403 22.639 45.403H23.2113C23.4021 45.403 23.7837 45.403 23.9745 45.2122C24.356 45.2122 24.7375 45.0214 24.9283 45.0214C24.9283 45.0214 24.9283 45.0214 25.119 45.0214C25.3098 45.0214 25.5006 44.8307 25.5006 44.8307L25.8821 44.6399C26.2637 44.4491 26.6452 44.2584 26.836 43.8768C27.2175 43.4953 27.7899 42.923 28.1714 42.7322C28.1714 42.7322 28.1714 42.7322 28.1714 42.5414C28.1714 42.3507 28.3622 42.3507 28.553 42.1599L30.0791 40.2522L30.2698 40.0614C30.6514 39.6799 30.8421 39.2983 31.2237 38.9168L32.1775 37.5814C32.1775 37.5814 32.1776 37.5814 32.3684 37.3907L34.4668 34.7199C34.4668 34.7199 34.4667 34.7199 34.6575 34.5291C34.8483 34.1476 35.993 32.8122 36.1837 32.4306C36.3745 32.0491 36.756 31.6676 36.756 31.286C36.756 30.9045 36.5653 30.7137 36.1837 30.5229C35.993 30.5229 35.993 30.5229 35.8022 30.5229C35.2299 30.5229 35.039 31.0953 34.6575 31.4768L34.4668 31.6676L34.2761 31.8583C34.0853 32.0491 33.513 33.003 33.3222 33.003L32.7498 32.8122H32.5591C32.3683 32.8122 31.9867 32.6214 31.796 32.4306H31.6052C31.4145 32.4306 30.4607 32.0491 30.4607 31.8583C30.4607 31.8583 30.4606 31.6676 30.6514 31.6676L31.2237 30.9045C31.6052 30.3322 32.1775 29.7599 32.7498 29.1876L33.3222 28.4245L33.5129 28.2337L34.4668 27.2799L35.6113 26.1353C35.8021 25.9445 36.3744 25.5629 36.5652 25.1814C36.5652 25.1814 36.756 25.1814 36.756 24.9906L37.1376 24.6091C37.5191 24.2276 39.4268 22.8922 39.9991 22.7014C40.3807 22.5106 40.5714 22.5106 41.1437 22.3199C41.3345 22.3199 41.3345 22.3199 41.5253 22.3199C41.716 22.3199 41.7161 22.3199 41.9068 22.3199C42.2884 22.3199 44.5776 22.1291 44.7684 22.1291C44.5776 22.3199 44.196 22.5106 44.0052 22.7014C43.8145 22.8922 43.8145 22.8922 43.6237 23.0829C42.8606 23.6552 42.0976 24.0368 41.5253 24.7999L40.953 25.3722C40.7622 25.5629 40.3806 25.9445 40.1899 26.1353L39.9991 26.326L39.236 27.0891C39.236 27.0891 39.2361 27.0891 39.0453 27.0891C38.2822 28.0429 39.4268 28.806 40.1899 28.2337L40.3806 28.0429C40.7621 27.8522 40.9529 27.4706 41.3344 27.2799C41.5252 27.0891 41.9068 26.7076 42.0976 26.5168C42.2883 26.5168 42.2883 26.326 42.2883 26.326C42.479 26.326 42.4791 26.1353 42.4791 26.1353C42.6699 25.9445 42.8606 25.9445 43.0514 25.7537C43.4329 25.3722 44.0053 24.9906 44.3868 24.6091L46.1037 23.4645L47.6299 22.5106C48.0115 22.3199 48.2022 22.1291 48.5838 21.9383C48.7745 21.9383 48.9653 21.7476 49.156 21.5568C49.156 21.5568 49.156 21.5568 49.3468 21.5568H49.5376L50.8729 20.9845H51.0637L54.3068 20.0306C55.4515 19.6491 57.3591 19.4583 58.5037 19.2675C59.4575 19.2675 60.4114 19.0768 61.3652 19.0768C62.8914 19.0768 62.7007 18.886 62.5099 19.4583C62.5099 19.8399 62.3191 20.0306 62.3191 20.4122C62.1283 20.9845 62.1284 21.7476 61.9376 22.3199C61.9376 22.7014 61.7468 23.0829 62.1283 23.4645C62.5099 23.846 62.8914 23.6552 63.2729 23.6552C63.4637 23.6552 63.6546 23.6552 63.8453 23.4645C64.0361 23.4645 64.2268 23.4645 64.4176 23.2737C64.6084 23.2737 64.9898 23.0829 65.1806 23.2737C65.1806 23.4645 64.9899 23.6552 64.9899 23.846C64.9899 24.2276 64.4175 25.5629 64.2268 25.9445L63.6545 27.4706C63.6545 27.6614 63.4638 27.8522 63.4638 28.0429C63.4638 28.0429 63.4637 28.2337 63.2729 28.2337L63.0822 28.4245L62.7006 29.1876C62.7006 29.1876 62.7007 29.3783 62.5099 29.3783L60.7929 32.4306C60.2206 33.3845 59.4576 34.5291 58.8852 35.2922L58.6945 35.6737C58.6945 35.6737 58.6945 35.6737 58.6945 35.8645L57.1684 37.5814C56.7868 37.963 56.7868 38.3445 56.9776 38.726C57.1683 39.1076 57.5499 39.1076 57.9314 39.1076C58.3129 39.1076 58.5038 38.726 58.6945 38.5353C58.8853 38.1537 59.2668 37.963 59.4575 37.5814C59.4575 37.3906 59.6483 37.3907 59.8391 37.1999L60.7929 36.0553L60.9838 35.8645L62.1283 34.1476C62.3191 33.9568 62.3191 33.766 62.5099 33.5753L63.2729 32.2399C63.4637 32.0491 63.6546 31.4768 63.8453 31.0953L64.2268 30.3322C64.2268 30.1414 64.4176 29.9506 64.4176 29.7599L64.6083 29.3783C64.6083 29.3783 64.6083 29.3783 64.6083 29.1876C64.7991 28.9968 64.7992 28.806 64.7992 28.6153C64.9899 28.2337 65.1807 27.8522 65.3715 27.2799C65.3715 27.2799 65.3715 27.2799 65.3715 27.0891L65.753 25.9445C65.9438 25.5629 65.9437 25.3722 66.1345 24.9906C66.1345 24.9906 66.1345 24.7999 66.3253 24.7999C66.5161 24.4183 66.7068 23.6552 66.8976 23.2737C66.8976 23.0829 67.0883 22.8922 67.0883 22.7014L67.2791 22.1291C67.2791 21.9383 67.4699 21.5568 67.4699 21.366C67.4699 20.9845 67.2791 20.7937 67.0883 20.6029C66.8975 20.4122 66.3252 20.6029 66.1345 20.6029C65.9437 20.6029 65.7529 20.6029 65.5622 20.6029C65.3714 20.6029 65.1807 20.6029 64.9899 20.6029C64.7991 20.6029 64.2269 20.7937 63.8453 20.7937C63.8453 20.4122 64.036 19.8399 64.036 19.4583L64.4176 17.7414C64.4176 17.3599 64.6083 16.9783 64.2268 16.5968C64.036 16.406 63.8453 16.406 63.6545 16.406C63.2729 16.406 61.7468 16.406 61.5561 16.406C61.3653 16.406 60.9837 16.406 60.7929 16.406C60.4114 16.406 59.8391 16.406 59.4575 16.406C59.2668 16.406 57.7407 16.5968 57.3591 16.5968C56.9776 16.5968 56.596 16.7875 56.0237 16.7875C55.8329 16.7875 55.6422 16.7875 55.4514 16.9783L54.8791 17.1691C54.6884 17.1691 54.4976 17.3599 54.3068 17.3599C54.1161 17.3599 54.1161 17.3599 53.9253 17.3599L52.3992 17.7414C52.2084 17.7414 52.0175 17.9322 51.8268 17.9322L50.1099 18.5045C49.7284 18.6952 49.3467 18.886 48.9652 18.886L48.2022 19.2675C48.0114 19.2675 48.0114 19.2675 47.8206 19.2675C47.0576 19.2675 45.9129 19.4583 44.9591 19.4583C44.3868 19.4583 44.0053 19.4583 43.433 19.4583C43.0514 19.4583 42.4791 19.4583 42.0976 19.4583C41.716 19.4583 41.1437 19.4583 40.7621 19.6491C40.5714 19.6491 40.3806 19.6491 40.1899 19.8399C39.8083 19.8399 39.6175 20.0306 39.4267 20.2214C39.236 20.2214 39.236 20.2214 39.236 20.4122L37.9006 21.1752C37.5191 21.366 37.1376 21.7476 36.756 21.9383C36.756 21.9383 36.5652 21.9383 36.5652 22.1291L36.1837 22.5106C35.8022 22.7014 35.4207 23.0829 35.2299 23.2737C34.8484 23.4645 34.4668 23.846 34.2761 24.2276C34.0853 24.4183 32.7499 25.7537 32.3684 26.1353C32.1776 26.326 31.796 26.7076 31.6052 26.8983L30.4607 28.0429L30.2698 28.2337L30.0791 28.4245L28.3621 30.5229C28.5529 31.286 28.3621 31.4768 28.3621 31.6676Z" fill="#1F3773"/>
<path d="M70.7133 14.88C70.7133 14.6892 70.5226 14.6892 70.7133 14.88C70.7133 14.6892 70.7133 14.6892 70.7133 14.88ZM68.8056 14.1169C68.9964 14.3077 69.378 14.6893 69.5688 14.6893C69.7595 14.6893 70.141 14.6892 70.3318 14.88C70.5225 15.0708 70.3318 15.4523 70.1411 15.6431C69.9503 15.8339 69.7595 15.6431 69.5688 15.6431C68.9965 15.2616 68.4241 14.4985 67.6611 14.1169C67.2795 13.9262 67.0887 13.7354 66.8979 13.5446C66.7072 13.3539 65.181 12.4 65.181 12.0185C65.181 11.6369 66.5164 12.4 66.8979 12.5908C67.661 12.9723 68.4241 13.5446 68.8056 14.1169ZM73.1933 17.7416C73.5749 18.1231 72.8118 18.1231 72.621 18.1231C72.2395 17.9323 71.858 17.5508 71.6672 17.1693C71.4764 16.9785 71.4764 16.7877 71.8579 16.7877C72.0487 16.7877 73.0025 17.5508 73.1933 17.7416ZM74.9103 18.8862C74.7195 18.8862 74.5287 18.8862 74.5287 18.6954C74.5287 18.3139 74.7195 18.5046 74.9103 18.5046C74.9103 18.6954 74.9103 18.6954 74.9103 18.8862ZM73.9564 18.8862C74.1472 18.8862 74.1472 18.8862 73.9564 18.8862C74.1472 19.0769 74.1472 18.8862 73.9564 18.8862ZM75.8641 19.6493C77.1995 21.1754 78.5349 22.8923 79.6795 24.8C80.6334 26.3262 81.2057 27.6616 81.9688 29.1877C82.7319 30.5231 83.1133 31.8585 83.6856 33.1939C84.0672 34.1477 84.0672 35.1016 84.2579 36.0554C84.2579 36.437 85.021 37.5816 84.2579 37.7724C84.0672 37.7724 83.4948 37.5816 83.3041 37.5816C82.9225 37.3908 82.7318 37.2001 82.5411 36.8185C81.9688 34.9108 81.3965 33.1939 80.6334 31.2862C79.8703 29.5693 79.1072 27.6616 77.9626 25.9447C77.3902 24.9908 76.818 24.037 76.2457 23.2739C75.8642 22.8923 75.6733 22.5108 75.4826 22.1293C75.2918 21.7477 74.7195 21.1754 74.7195 20.7939C74.7195 20.6031 74.9102 20.4123 75.101 20.6031C75.2918 20.6031 75.2918 20.7939 75.2918 20.9846C75.4826 21.3662 75.4826 21.7477 75.8641 21.7477C76.818 21.7477 75.2918 20.0308 75.2918 19.6493C75.6734 19.4585 75.6734 19.4585 75.8641 19.6493ZM85.021 38.5354C85.2118 39.4893 85.5933 40.6339 85.5933 41.5877C85.5933 41.9693 85.7842 42.3508 85.7842 42.9231C85.7842 43.3047 86.5472 46.1662 85.4026 45.9754C85.0211 45.7847 84.8303 45.4031 84.8303 45.0216C84.8303 44.8308 84.8303 44.6401 84.8303 44.4493C84.6396 44.2585 84.4487 44.2585 84.2579 43.877C84.0672 43.4954 84.4488 43.4954 84.4488 43.1139C84.6395 42.7324 84.0672 42.3508 83.8765 41.9693C83.6857 41.397 83.6857 40.8247 83.4949 40.2524C83.3041 39.6801 83.1133 39.1077 83.1133 38.5354C83.3041 37.3908 84.8303 37.7724 85.021 38.5354ZM79.4887 36.437C79.4887 36.2462 79.6795 36.437 79.6795 36.437C79.8703 36.437 79.4887 36.6277 79.4887 36.437ZM78.9164 34.9108C78.7256 34.5293 79.4887 34.3385 79.4887 34.5293C79.6795 34.72 79.2979 35.2924 78.9164 34.9108ZM77.9626 32.0493C77.7718 31.6677 78.7256 31.6677 78.9164 32.24C78.9164 32.4308 78.9164 32.8124 78.5348 32.6216C78.3441 32.8124 78.1533 32.4308 77.9626 32.0493ZM77.1995 29.76C77.5811 29.3785 78.1533 30.3323 77.581 30.5231C77.0087 30.7139 76.818 30.1416 77.1995 29.76ZM75.8641 26.7077C75.8641 26.3262 76.2457 26.517 76.4364 26.3262C76.4364 26.517 75.8641 27.0893 75.8641 26.7077ZM86.1656 47.1201C85.9748 48.4554 86.1657 49.7908 85.9749 51.317C85.7841 52.6524 85.5933 54.1785 85.2118 55.5139C85.021 56.0862 84.6395 56.277 84.4488 56.8493C84.0672 57.4216 84.6396 57.6124 84.8303 58.1847C84.8303 58.757 84.4487 59.5201 84.2579 59.9016C84.0672 60.6647 83.6856 61.237 83.3041 62.0001C82.9225 62.5724 82.541 63.1447 82.3502 63.717C82.1595 64.2893 81.9687 64.8616 81.3964 65.2432C81.2056 65.4339 80.8241 65.4339 80.6334 65.6247C80.2518 65.8155 80.2519 66.0062 80.0611 66.3878C79.6796 66.9601 79.2979 67.5324 78.9164 68.1047C78.7256 68.2955 78.7257 68.677 78.3441 68.8678C78.1533 69.0586 77.9626 69.2493 77.7718 69.4401C77.3903 70.0124 77.0087 70.5847 76.6271 70.9663C76.0548 71.5386 75.8641 71.9201 75.6733 72.4924C75.6733 72.8739 75.6734 73.2555 75.2918 73.2555C74.9103 73.4463 74.338 73.0647 74.338 72.6832C74.1472 72.1109 74.9103 71.5386 75.2918 71.3478C75.8642 70.9663 76.0549 70.3939 76.4364 70.0124C76.818 69.6309 77.1995 69.2493 77.581 68.8678C78.9164 66.7693 79.8702 64.6709 80.8241 62.3816C81.7779 60.0924 82.7318 57.9939 83.3041 55.5139C83.4948 54.7508 83.6857 54.1785 83.8765 53.6062C84.0672 53.2247 84.0672 53.0339 84.0672 52.4616C84.0672 52.2708 84.0672 52.0801 84.2579 52.0801C84.4487 52.0801 84.6396 52.4616 84.8303 52.6524C85.2119 52.8432 85.2118 52.8432 85.4026 52.4616C85.4026 51.6985 84.4488 51.317 84.4488 50.7447C84.4488 50.3631 84.6395 49.9816 84.6395 49.6001C84.8303 49.4093 85.2118 48.837 85.2118 48.6462C85.2118 48.2647 84.4488 48.0739 84.4488 47.6924C83.8765 46.7385 86.1656 46.1662 86.1656 47.1201ZM77.581 61.8093C77.581 60.8555 78.3441 60.2832 78.7257 61.6186C78.9165 62.5724 77.3902 62.3816 77.581 61.8093ZM78.5348 59.9016C78.5348 59.5201 78.3441 59.3293 78.7257 59.1385C78.9165 58.9478 79.298 59.1385 79.298 59.3293C79.6795 59.9016 78.5348 60.0924 78.5348 59.9016ZM81.0149 59.1385C81.0149 58.9478 81.2057 59.1385 81.2057 59.1385C81.2057 59.3293 81.0149 59.7108 81.0149 59.9016C81.0149 60.0924 80.8241 60.2832 80.6334 60.0924C80.6334 60.0924 80.8242 59.3293 81.0149 59.1385ZM82.3502 55.7047C82.541 56.0862 82.1595 58.1847 81.5872 57.9939C80.8241 57.8032 81.9687 55.7047 82.3502 55.7047ZM79.298 57.9939C79.4887 57.6124 80.061 55.7047 80.2518 55.7047C80.4426 55.1324 80.4426 52.0801 81.2057 52.2708C81.778 52.4616 81.3964 53.6062 81.3964 53.9878C81.2056 54.7508 81.2057 55.5139 81.0149 56.0862C80.8242 56.6585 80.6333 57.2308 80.4425 57.8032C80.2518 57.9939 80.2518 58.3755 79.8702 58.3755C79.6795 58.3755 79.298 57.9939 79.298 57.9939ZM81.2057 51.6985C80.8241 51.1262 81.0149 49.9816 81.0149 49.2185C81.0149 48.837 81.0149 48.2647 81.2057 48.0739C81.3964 47.6924 81.778 47.6924 81.9688 48.0739C82.1596 48.6462 81.9688 49.7908 81.9688 50.5539C81.9688 50.9355 81.9688 51.5078 81.9688 51.6985C81.778 51.6985 81.3964 51.8893 81.2057 51.6985ZM65.9441 74.5909C66.1349 74.9724 65.5625 74.9724 65.181 74.9724C65.181 74.7816 65.7533 74.2093 65.9441 74.5909ZM42.6702 78.9786C42.0979 79.9324 40.3809 78.597 39.4271 78.7878C39.0455 78.7878 38.8548 78.9786 38.4732 79.1693C38.2825 79.1693 37.901 79.1693 37.7102 78.9786C36.9472 78.7878 36.184 78.9786 35.6117 78.7878C35.2302 78.7878 35.2302 78.4063 34.8487 78.4063C34.6579 78.4063 34.2763 78.597 34.0856 78.4063C33.8948 78.2155 33.8948 78.0247 33.5133 78.0247C33.1317 78.0247 32.9409 78.4063 32.7502 78.4063C32.3686 78.4063 32.1779 77.834 32.1779 77.4524C32.1779 77.2617 31.9871 77.0709 31.7963 76.8801C31.4148 76.6893 31.4148 76.8801 31.0333 76.8801C30.461 77.0709 29.5071 76.4986 28.744 76.3078C28.3625 76.117 26.6456 75.7355 27.4086 75.1632C27.7902 74.7816 29.1256 75.354 29.6979 75.5447C29.8887 75.5447 30.2702 75.7355 30.461 75.7355C30.8426 75.7355 31.0333 75.7355 31.4149 75.7355C31.7964 75.7355 32.3686 75.9263 32.7502 76.117C33.1317 76.3078 33.5133 76.3078 33.8948 76.4986C34.2764 76.6893 34.4671 76.8801 34.8487 77.0709C35.2302 77.2617 35.6118 76.8801 36.1841 77.0709C36.7564 77.2617 37.3286 77.4524 37.901 77.4524C38.2825 77.4524 38.664 77.4524 38.8548 77.4524C39.2363 77.4524 39.2364 77.834 39.6179 78.0247C39.9995 78.2155 40.1902 77.834 40.3809 77.6432C40.5717 77.4524 40.9533 77.4524 41.1441 77.4524C42.0979 77.6432 42.2887 78.2155 42.6702 78.9786ZM11.3841 67.9139C11.5748 68.1047 11.1933 68.4863 11.0025 68.4863C10.621 68.4863 10.2394 67.9139 10.0487 67.7232C9.66711 67.3416 8.90399 66.7693 9.28553 66.0062C9.4763 65.6247 10.2394 65.4339 10.6209 65.8155C10.8117 66.0062 10.8117 66.5786 10.8117 66.7693C11.0024 67.3416 11.1933 67.7232 11.3841 67.9139ZM11.7655 68.8678C11.9563 69.0586 11.7655 69.4401 11.7655 69.8216C11.5747 69.6309 11.1932 69.6309 11.1932 69.2493C11.1932 68.8678 11.5747 68.677 11.7655 68.8678ZM23.4025 72.3016C23.5933 72.3016 24.5471 72.4924 24.1655 72.8739C23.9748 73.0647 23.4025 72.4924 23.4025 72.3016ZM8.14096 65.6247C7.75942 65.0524 7.5686 64.8616 7.37783 64.2893C7.18706 63.717 6.80553 63.9078 6.42399 63.717C5.47014 63.3355 6.8055 62.5724 6.04242 62.1909C5.66088 61.8093 5.47021 62.0001 5.66098 61.4278C5.85175 61.0462 5.85168 60.8555 5.47014 60.4739L5.27942 60.2832C5.08865 60.2832 5.08865 60.0924 5.27942 60.0924C5.27942 59.9016 5.27935 59.5201 5.08858 59.3293C4.89781 58.9478 4.51636 58.3755 4.70713 57.9939C4.8979 57.8032 5.66093 57.8032 5.8517 57.8032C6.42401 57.8032 6.61478 58.1847 6.80555 58.757C7.18709 59.3293 7.37786 60.0924 7.7594 60.8555C7.95017 61.4278 7.95019 61.8093 8.14096 62.3816C8.14096 62.5724 8.14091 62.7632 8.33168 62.9539C8.52245 63.1447 8.7132 63.3355 8.90397 63.717C9.09474 64.0986 9.85781 64.8616 9.85781 65.2432C9.85781 65.6247 9.28558 66.0062 9.09481 66.197C8.71327 66.0062 8.33173 66.197 8.14096 65.6247ZM24.5471 71.157C24.7379 70.9663 25.6917 71.157 25.5009 71.5386C25.5009 72.1109 24.7379 71.3478 24.5471 71.157ZM2.6086 54.9416L2.79944 54.5601C2.79944 54.7508 3.18093 54.9416 2.99016 54.9416C2.99016 55.3232 2.79937 55.1324 2.6086 54.9416ZM4.89785 53.4155C4.70708 52.8432 4.51627 52.4616 4.13473 51.8893C3.94396 51.5078 3.37167 51.1262 3.56244 50.7447C3.56244 50.5539 4.1348 49.9816 4.32557 50.3631C4.51634 50.5539 4.70706 51.5078 4.51629 51.6985C4.70706 52.0801 5.08865 52.6524 5.27942 53.2247C5.27942 53.4155 5.47019 53.6062 5.27942 53.797C5.27942 53.4155 4.89785 53.4155 4.89785 53.4155ZM2.22703 47.8831C2.03626 47.5016 1.46405 45.7847 1.84559 45.5939L2.41787 45.7847C2.60864 45.7847 2.79939 45.7847 2.99016 45.7847C3.3717 45.7847 3.75324 45.5939 3.94401 46.1662C4.13478 46.5478 3.75328 46.9293 3.75328 47.3108C3.75328 47.6924 4.13482 48.4555 3.75328 48.6462C3.18097 48.837 3.37172 48.4554 3.37172 48.2647C3.37172 48.0739 3.37172 48.0739 3.37172 47.8831C3.37172 47.5016 2.99016 47.3108 2.99016 47.1201C2.41785 47.3108 2.6086 47.6924 2.6086 48.0739C2.6086 47.8831 2.4178 48.2647 2.22703 47.8831ZM5.66098 45.4031C6.04252 45.7847 6.04245 45.9754 5.47014 45.7847C5.47014 45.5939 5.47021 45.5939 5.66098 45.4031ZM3.37172 44.0678C3.56249 43.4954 4.3255 44.0678 4.13473 44.4493C3.75319 44.8308 3.18095 44.6401 3.37172 44.0678ZM7.7594 45.4031C6.99632 44.8308 7.3779 43.1139 8.52252 43.877C8.90406 44.0678 8.71324 44.6401 8.71324 45.0216C8.71324 45.2124 8.90406 45.4031 8.52252 45.5939C8.14098 45.7847 7.95017 45.5939 7.7594 45.4031ZM3.75328 36.8185C3.75328 36.6277 3.75328 36.2462 3.75328 36.0554C3.75328 35.6739 3.94403 35.6739 4.32557 35.4831C4.70711 35.1016 4.51634 35.1016 4.32557 34.72C4.1348 34.3385 4.32559 34.1477 4.70713 33.957C4.8979 33.7662 5.08858 33.5754 5.08858 33.1939C5.08858 32.8124 4.89781 32.4308 5.08858 32.24C5.27935 31.8585 5.66093 31.8585 5.8517 31.477C6.04247 31.0954 6.04245 30.7139 6.42399 30.3323C7.37783 29.5693 6.8056 31.2862 6.61483 31.6677C6.23329 32.4308 6.23319 33.1939 6.04242 34.1477C5.85165 35.1016 5.66095 36.0554 5.27942 36.8185C5.08865 37.0093 5.08867 37.3908 4.70713 37.3908C4.51636 37.3908 3.75328 37.0093 3.75328 36.8185ZM2.99016 33.957C2.99016 33.957 2.99016 33.7662 2.99016 33.957C2.99016 33.7662 2.99016 33.957 2.99016 33.957ZM6.23326 26.3262C6.04249 25.7539 5.66095 24.6093 6.23326 24.037C6.42403 23.6554 6.80557 23.8462 7.18711 23.8462C7.56865 23.6554 7.37783 23.6554 7.37783 23.0831C7.18706 22.5108 7.5686 21.7477 8.33168 21.7477C8.52245 21.7477 8.7132 21.7477 8.90397 21.7477C9.09474 21.7477 9.2856 21.557 9.47637 21.557C9.85791 21.557 10.0486 21.9385 10.2394 22.32C10.8117 21.7477 11.0025 20.9846 11.5748 20.4123C11.9563 19.84 12.7194 19.2677 12.7194 18.5046C12.147 18.6954 11.7656 19.6493 11.5748 20.0308C11.384 20.2216 11.0025 21.3662 10.6209 21.3662C10.0486 21.3662 10.8117 20.0308 10.8117 20.0308C11.0024 19.4585 10.4302 19.2677 10.4302 18.8862C10.4302 18.5046 10.6209 17.7416 11.1932 17.7416C11.7655 17.7416 11.9563 18.3139 12.5286 17.9323C12.9102 17.5508 13.2917 17.1693 13.6732 16.7877C14.2455 16.5969 14.8179 16.4062 15.3902 16.0246C15.5809 16.9785 14.2455 18.1231 13.6732 18.8862C13.1009 19.6493 12.5287 20.4123 11.9563 21.1754C11.384 22.1293 10.621 23.0831 10.0487 24.037C9.66711 24.6093 9.2856 25.7539 8.52252 25.7539C8.14098 25.7539 7.56865 25.3723 7.18711 25.5631C6.99634 26.1354 6.42403 26.8985 6.23326 26.3262ZM9.66709 20.6031C9.66709 20.4123 10.0487 20.6031 10.0487 20.7939C10.0487 20.9846 9.66714 21.3662 9.47637 21.557C9.47637 21.3662 9.47632 20.9846 9.66709 20.6031ZM8.33168 20.9846C8.14091 20.6031 8.52243 19.2677 8.90397 20.0308C9.09474 20.2216 8.71322 21.557 8.33168 20.9846ZM12.1471 15.6431C12.3378 15.6431 12.5286 15.6431 12.5286 15.8339C12.5286 16.0246 11.9563 15.6431 12.1471 15.6431ZM15.9625 15.0708C16.344 14.88 16.5348 14.4985 16.9163 14.1169C17.2978 13.9262 17.2979 13.9262 17.1071 14.3077C16.9164 15.0708 15.7718 15.8339 15.1995 16.2154C15.3902 15.8339 15.5809 15.4523 15.9625 15.0708ZM18.824 12.4C19.2055 12.2092 19.5872 11.8277 19.9687 11.8277C19.7779 12.2092 19.2055 12.5908 18.824 12.5908C18.6332 12.5908 18.824 12.5908 18.824 12.4ZM20.3501 8.39386H20.7317V8.96617C20.3502 8.96617 19.9686 8.96617 20.3501 8.39386ZM27.7902 12.0185L27.9809 12.2092C27.5994 12.4 27.2179 12.4 27.7902 12.0185ZM29.6979 11.6369C29.8887 11.8277 29.8887 11.8277 29.6979 11.6369C29.8887 11.8277 29.6979 11.6369 29.6979 11.6369ZM30.2702 10.8739C30.2702 10.3016 30.6518 10.1108 31.0333 9.72924C31.2241 9.53847 31.2241 9.53848 31.4149 9.53848C31.7964 9.72924 31.4149 9.92001 31.4149 10.1108C31.2241 10.3016 31.0332 11.2554 30.8425 11.2554C30.6517 11.4462 30.2702 11.0646 30.2702 10.8739ZM23.7841 6.67693C23.4025 6.10462 25.5009 5.34155 25.5009 6.48616C25.5009 7.05847 24.1656 7.05847 23.7841 6.67693ZM28.1718 6.8677C28.1718 6.8677 28.3625 6.8677 28.1718 6.8677V6.8677ZM27.9809 5.15078C27.7901 4.57847 28.3625 4.76924 28.5533 4.57847C28.9349 4.57847 29.3164 4.3877 29.5072 4.19693C29.8887 4.00616 30.8426 3.05231 31.4149 3.24308C31.7964 3.43385 31.7964 3.81539 31.6056 4.00616C31.224 4.3877 30.6518 4.3877 30.0795 4.57847C29.6979 4.76924 28.1717 5.72308 27.9809 5.15078ZM34.2764 4.57847C34.4672 4.57847 34.4672 4.76924 34.2764 4.96001C34.0856 5.15078 33.5133 5.15078 33.3226 5.15078C33.1318 5.15078 32.7502 5.15078 32.5594 5.34155C32.5594 4.96001 32.9409 5.15078 33.1317 5.15078C33.5133 4.96001 33.8949 4.57847 34.2764 4.57847ZM40.5718 7.63078C40.9533 7.44001 41.1441 7.05847 41.5256 7.05847C41.9072 7.05847 42.0979 7.24924 42.6702 7.05847C43.0517 7.05847 43.4333 6.67693 43.8149 6.8677C44.0056 6.8677 44.1964 7.05847 44.3872 7.05847C44.5779 7.05847 44.9594 6.8677 45.1502 6.8677C46.104 6.67693 47.2487 6.8677 48.3933 6.67693C48.7748 6.67693 49.3471 6.29539 49.7287 6.48616C49.9195 6.48616 50.4918 7.24924 50.4918 7.44001C50.8733 8.39386 49.1564 8.01232 48.5841 8.01232C48.0118 8.01232 47.6302 7.63078 47.0579 7.82155C46.6763 7.82155 46.4856 8.20309 46.104 8.39386C45.5317 8.58463 45.341 8.39386 44.7687 8.20309C44.1964 8.01232 43.624 8.20309 43.2425 8.20309C42.6702 8.20309 42.0979 8.39386 41.3348 8.39386C40.9532 8.39386 40.1902 8.01232 40.5718 7.63078ZM34.0856 3.81539C33.704 3.24308 35.4209 2.09846 35.6117 1.90769C35.6117 1.71693 35.8025 1.52616 35.9933 1.52616C36.3748 1.52616 36.3748 1.71693 36.7564 1.71693C37.1379 1.71693 37.5194 1.33539 37.901 1.33539C38.2825 1.52616 38.2826 1.90769 38.0918 2.28923C37.7103 2.86154 36.3748 2.67077 35.8025 2.86154C35.6118 3.24308 34.4671 4.3877 34.0856 3.81539ZM36.7564 1.71693C36.7564 1.90769 36.7564 1.90769 36.7564 1.71693C36.7564 1.90769 36.7564 1.71693 36.7564 1.71693ZM51.4457 7.24924C52.2087 7.44001 52.781 7.44001 53.5441 7.63078C54.1164 7.82155 55.0703 7.63078 55.261 8.39386C55.4518 8.7754 55.261 8.96617 54.8795 8.96617C54.6887 8.96617 54.1164 8.96617 54.1164 8.7754C53.1625 8.58463 52.3995 8.58463 51.4457 8.20309C51.0641 8.20309 50.6825 8.20309 50.6825 7.82155C50.8733 7.44001 51.2549 7.24924 51.4457 7.24924ZM57.741 9.15694C58.1226 8.7754 58.6948 10.1108 57.5502 9.72924C57.3594 9.72924 56.7872 9.34771 57.1687 9.15694C57.3595 8.96617 57.5503 9.34771 57.741 9.15694ZM61.1749 9.53848C61.3656 9.53848 61.3656 9.53848 61.1749 9.53848C61.3656 9.72924 61.3656 9.72924 61.1749 9.53848ZM11.5748 31.477C11.5748 31.477 11.384 31.477 11.5748 31.477C11.384 31.2862 11.5748 31.477 11.5748 31.477ZM48.9656 11.6369C49.3471 11.4462 49.3471 11.0646 48.9656 10.8739C48.584 10.6831 47.821 10.4923 47.2487 10.4923C47.0579 10.6831 46.1041 10.4923 45.7226 10.4923C45.341 10.4923 44.9594 11.0646 45.5317 11.2554C46.104 11.4462 46.8671 11.2554 47.4394 11.6369C48.0117 11.8277 48.3933 11.8277 48.9656 11.6369ZM79.1072 44.8308C78.7257 45.7847 78.9165 46.9293 78.7257 48.0739C78.7257 48.6462 78.5348 49.0278 78.5348 49.6001C78.5348 50.1724 78.5349 50.7447 78.3441 51.1262C78.3441 51.5078 77.9626 52.0801 77.9626 52.4616C77.9626 52.6524 77.9626 53.0339 78.3441 52.6524C78.5349 52.4616 78.5348 52.0801 78.5348 52.0801C78.7256 51.5078 78.7256 50.7447 78.9164 49.9816C79.1072 48.837 79.1072 47.8831 79.298 46.7385C79.298 46.1662 79.4888 45.7847 79.6795 45.2124C79.6795 45.0216 79.8703 44.6401 79.6795 44.6401C79.298 44.6401 79.1072 44.6401 79.1072 44.8308ZM59.4579 15.6431C60.6025 15.2616 58.6949 14.4985 58.3133 14.3077C57.741 14.1169 57.3595 13.7354 56.7872 13.5446C56.4056 13.3539 56.2149 13.1631 55.8333 13.1631C55.6426 13.1631 55.0702 12.7816 54.6886 12.9723C54.4979 13.1631 55.0703 13.5446 55.261 13.5446C56.0241 13.9262 56.7871 14.1169 57.5502 14.3077C57.9317 14.4985 58.3133 14.6892 58.6949 14.88C58.6949 15.0708 59.4579 15.6431 59.4579 15.6431ZM59.4579 3.05231C60.0302 3.05231 59.0764 2.48 59.0764 2.48C58.5041 2.28923 57.9318 2.09846 57.3595 1.90769C56.4056 1.71693 55.8333 1.71693 54.8795 2.48C56.4056 2.86154 57.9317 3.05231 59.4579 3.05231ZM63.4641 4.96001C63.0826 5.15078 62.5102 4.76924 62.3194 5.15078C62.3194 5.53231 62.701 5.72308 63.0826 5.91385C63.4641 6.10462 63.8456 5.91385 64.2271 5.72308C64.6087 5.53232 64.7995 5.34155 65.3718 5.15078C64.6087 4.76924 64.0364 4.57847 63.4641 4.96001ZM18.4424 64.8616C18.0609 64.2893 17.6794 63.717 17.2979 63.3355C16.9163 62.7632 16.7256 62.1909 16.344 61.6186C16.1533 61.4278 15.9625 61.0462 15.7717 60.8555C15.7717 60.6647 15.5809 60.2832 15.3902 60.0924C14.6271 59.7108 15.5809 61.0462 15.5809 61.237C16.344 62.3816 17.2978 63.717 18.4424 64.8616ZM9.47637 47.1201C8.90406 47.3108 9.28553 47.6924 9.28553 48.0739C9.66707 49.4093 9.28553 46.9293 9.28553 48.4555C9.28553 48.6462 9.09476 48.837 9.28553 49.2185C9.4763 49.4093 9.66704 49.6001 9.85781 49.4093C10.0486 49.2185 9.85781 49.0278 9.85781 48.837C10.0486 48.4555 9.85791 46.9293 9.47637 47.1201ZM11.7655 53.2247C12.3378 52.8431 12.3378 52.4616 12.1471 51.8893C11.9563 51.5078 11.7655 50.7447 11.1932 51.317C11.384 51.5078 11.5748 52.0801 11.5748 52.4616C11.5748 52.4616 11.384 53.6062 11.7655 53.2247ZM11.1932 56.0862C10.8117 56.4678 11.3841 57.0401 11.3841 57.4216C11.5748 57.8032 11.5748 58.757 11.9563 58.9478C13.101 59.1385 11.384 55.8955 11.1932 56.0862ZM56.4056 4.96001C56.9779 5.15078 57.5503 5.34155 58.1226 5.34155C57.9318 5.15078 57.5502 4.96001 57.5502 4.76924C57.3594 4.57847 57.741 4.19693 57.741 4.00616C57.5503 4.00616 56.978 3.81539 56.7872 4.00616C56.4056 4.19693 56.7872 4.19693 56.7872 4.57847C56.5964 4.76924 56.0241 4.57847 56.4056 4.96001ZM14.6271 60.0924C14.2455 59.7108 13.1009 60.4739 13.4825 61.0462C13.6733 61.4278 15.0086 60.6647 14.6271 60.0924ZM87.1195 35.1016C86.9287 35.4831 87.501 36.2462 87.501 36.6277L87.6919 37.0093C87.8826 37.0093 88.0733 36.8185 88.0733 36.6277C88.0733 36.6277 87.8826 36.2462 87.6919 36.0554C87.6919 35.8647 87.6918 35.6739 87.501 35.4831C87.6918 35.4831 87.3102 34.5293 87.1195 35.1016ZM50.6825 3.43385C51.2548 3.05231 52.0179 3.05231 52.5902 2.86154C52.781 2.86154 52.781 2.86154 52.781 2.86154C52.781 2.86154 52.781 2.86154 52.5902 2.86154C51.8272 2.67077 50.6825 2.28923 50.301 3.24308C50.301 3.24308 50.4918 3.43385 50.6825 3.43385ZM2.41787 36.2462C2.2271 36.0554 1.46396 35.2924 1.27319 35.8647C1.27319 36.0554 1.65482 36.8185 1.84559 37.2001C2.03636 37.0093 2.60864 36.6277 2.41787 36.2462ZM16.7256 65.4339H16.9163C16.9163 65.2432 16.7256 65.2432 16.7256 65.2432C16.7256 65.0524 16.3441 64.6709 16.1533 64.6709C15.9625 64.6709 15.581 64.6709 15.7717 65.0524C15.7717 65.0524 16.1533 65.0524 16.344 65.2432C16.7256 65.2432 16.7256 65.2432 16.7256 65.4339ZM68.8056 65.2432C68.8056 65.6247 68.8057 65.6247 69.1872 65.6247C69.378 65.6247 69.5688 65.6247 69.5688 65.4339C69.7595 65.0524 68.9964 65.0524 68.8056 65.2432ZM42.2886 11.0646C42.2886 11.2554 42.4795 11.2554 42.4795 11.4462C42.6702 11.2554 43.0517 10.8739 42.6702 10.6831C42.4794 10.3016 42.2886 10.6831 42.2886 11.0646ZM47.821 0.953847C47.2487 0.763078 47.2487 1.14462 47.4394 1.52616C47.6302 1.52616 48.3933 1.14462 47.821 0.953847ZM10.2394 50.1724C10.0486 50.3631 9.85786 50.7447 9.66709 50.9355C9.85786 50.9355 10.2394 50.9355 10.4302 50.7447C10.4302 50.5539 10.4301 50.1724 10.2394 50.1724ZM88.8364 40.4431C88.8364 39.8708 88.8364 39.8708 88.4549 39.4893C88.0733 40.0616 88.4549 40.0616 88.8364 40.4431ZM11.0025 50.3631C11.0025 50.1724 11.5748 49.7908 11.0025 49.7908L10.8117 49.9816C10.8117 50.1724 10.8117 50.1724 11.0025 50.3631ZM19.2056 67.3416C19.0148 67.1509 19.0148 66.9601 18.824 66.7693C19.0148 66.9601 19.0148 67.1509 19.2056 67.3416ZM83.3041 26.3262C83.4948 26.3262 83.8765 26.517 83.8765 26.1354C83.4949 26.1354 83.3041 25.9446 83.3041 26.3262ZM62.5103 7.05847H62.701C62.701 6.8677 62.5103 6.8677 62.5103 7.05847C62.5103 6.8677 62.5103 7.05847 62.5103 7.05847ZM53.5441 4.00616C53.5441 3.81539 53.3533 3.81539 53.1625 3.81539C53.3533 4.00616 53.3533 4.19693 53.5441 4.00616ZM59.2672 77.4524C59.4579 77.2617 59.2672 77.0709 59.0764 77.0709C59.0764 77.2617 59.0764 77.2617 59.2672 77.4524ZM13.864 58.9478V58.757C13.6733 58.757 13.6733 58.9478 13.864 58.9478ZM10.2394 34.5293C10.4301 34.72 10.6209 34.72 10.6209 34.3385C10.4302 34.3385 10.2394 34.3385 10.2394 34.5293ZM13.4825 10.1108C13.2917 10.1108 13.2917 10.3016 13.4825 10.1108C13.4825 10.3016 13.4825 10.3016 13.4825 10.1108ZM84.8303 28.997C85.0211 28.8062 85.0211 28.8062 84.8303 28.997V28.997ZM10.6209 53.6062C10.4302 53.6062 10.4302 53.6062 10.6209 53.6062C10.4302 53.6062 10.4302 53.6062 10.4302 53.6062C10.0487 53.6062 10.6209 53.797 10.6209 53.6062ZM10.6209 47.5016C11.1932 47.1201 10.6209 47.1201 10.6209 47.5016C10.6209 47.3108 10.6209 47.3108 10.6209 47.5016ZM8.14096 42.1601C8.14096 41.9693 8.14089 41.9693 7.95012 41.9693C7.95012 41.9693 7.95019 42.1601 8.14096 42.1601ZM48.9656 2.86154C49.1563 2.86154 49.1563 2.86154 48.9656 2.86154V2.86154ZM26.4548 70.3939C26.4548 70.2032 26.4548 70.2032 26.4548 70.3939C26.4548 70.2032 26.4548 70.2032 26.4548 70.3939ZM77.1995 55.7047C77.3903 55.7047 77.3903 55.5139 77.1995 55.7047C77.1995 55.5139 77.1995 55.5139 77.1995 55.5139C77.1995 55.7047 77.1995 55.7047 77.1995 55.7047ZM60.0303 73.8278C60.0303 73.637 60.0303 73.637 60.0303 73.8278C59.8395 73.8278 59.8395 74.0186 60.0303 73.8278ZM88.8364 42.7324C89.0272 42.7324 89.0272 42.7324 88.8364 42.7324C88.8364 42.5416 89.0272 42.5416 88.8364 42.7324C88.8364 42.5416 88.8364 42.5416 88.8364 42.7324ZM52.9718 2.86154H52.781C52.9717 3.05231 52.9718 3.05231 52.9718 2.86154ZM13.864 61.4278C13.864 61.6185 13.864 61.6185 13.864 61.4278C13.864 61.6185 13.864 61.6185 13.864 61.4278C13.864 61.4278 14.0548 61.4278 13.864 61.4278ZM11.5748 34.9108C11.384 35.1016 11.384 34.72 11.5748 34.9108C11.384 35.1016 11.384 35.1016 11.5748 34.9108ZM84.4488 28.2339C84.4488 28.2339 84.258 28.4247 84.4488 28.2339C84.6395 28.2339 84.4488 28.2339 84.4488 28.2339ZM10.2394 52.2708C10.2394 52.0801 10.2394 52.0801 10.2394 52.2708C10.0486 52.0801 10.2394 52.0801 10.2394 52.2708ZM82.9226 60.2832C82.9226 60.4739 83.1133 60.6647 83.1133 60.6647C83.1133 60.2832 82.9226 60.0924 82.7318 59.7109C82.7318 59.9016 82.9226 60.0924 82.9226 60.2832ZM84.0672 54.5601C84.258 54.5601 84.258 54.5601 84.0672 54.5601C84.258 54.3693 84.0672 54.3693 84.0672 54.5601C84.0672 54.3693 84.0672 54.3693 84.0672 54.5601ZM81.9688 62.7632C81.9688 62.7632 81.778 62.7632 81.9688 62.7632C81.778 62.7632 81.9688 62.7632 81.9688 62.7632ZM83.4949 57.2308C83.6857 57.2308 83.6857 57.2308 83.4949 57.2308C83.4949 57.0401 83.4949 57.2308 83.4949 57.2308ZM77.0087 22.7016C76.6272 23.2739 77.7718 24.037 77.9626 23.2739C78.1533 23.0831 77.3902 22.32 77.0087 22.7016ZM78.9164 25.5631C78.5349 25.7539 79.4887 26.8985 79.8702 26.7077C80.2518 26.517 79.1072 25.3723 78.9164 25.5631ZM82.3502 33.3847C82.541 33.3847 82.541 33.1939 82.7318 33.1939C82.541 33.0031 82.1596 32.8124 81.9688 32.6216C81.9688 33.0031 82.1595 33.1939 82.3502 33.3847ZM81.2057 30.3323C81.3964 30.7139 81.778 30.3323 81.5872 30.1416C81.5872 29.76 81.0149 29.9508 81.2057 30.3323ZM83.4949 36.0554L83.3041 36.2462C83.4948 36.437 83.6857 36.2462 83.8765 36.2462C83.6857 36.0554 83.6857 36.0554 83.4949 36.0554ZM82.9226 35.4831C83.3042 35.6739 83.3042 35.2924 82.9226 35.2924V35.4831ZM78.3441 24.8C78.3441 24.8 78.5349 24.8 78.3441 24.8C78.7257 24.6093 78.5349 24.6093 78.3441 24.8ZM8.33168 25.3723C8.71322 24.9908 9.28558 23.8462 8.14096 24.037C7.75942 24.037 7.56867 24.6093 7.56867 24.9908C7.56867 25.3723 7.56863 25.3723 7.7594 25.5631C7.95017 25.3723 8.33168 25.3723 8.33168 25.3723ZM64.7995 7.63078C64.2272 8.01232 63.8457 8.58463 63.4641 9.15694C63.0826 9.92001 62.701 10.4923 62.3194 11.2554C61.9379 11.8277 61.5564 12.5908 61.1749 13.1631C60.9841 13.7354 61.3656 13.9262 61.7471 14.3077C63.0825 15.2616 64.418 16.4062 65.7534 17.36C67.0888 18.3139 68.6149 19.2677 69.7595 20.4123C70.3318 20.9846 70.7134 21.557 71.0949 22.1293C71.4764 22.7016 72.0487 23.2739 72.621 23.6554C73.1933 24.2277 73.5749 24.8 73.9564 25.3723C74.1472 25.5631 74.338 25.9447 74.5287 26.1354C74.7195 26.3262 74.9103 26.517 74.9103 26.7077C74.9103 26.8985 74.5287 27.0893 74.5287 27.28C74.5287 27.4708 74.5287 27.6616 74.5287 27.8523C74.5287 28.0431 74.7195 28.2339 74.7195 28.4247C74.9102 28.6154 75.2918 28.6154 75.6733 28.8062C76.2456 28.997 76.4364 30.1416 76.6271 30.7139C76.8179 31.477 77.1995 32.0493 77.581 32.6216C78.1533 33.7662 78.7257 35.2924 78.7257 36.437C78.7257 37.0093 78.1534 36.8185 78.1534 37.3908C78.1534 37.5816 78.3441 37.9631 78.3441 38.1539C78.3441 38.5354 78.5348 39.1077 78.5348 39.4893C78.5348 39.8708 78.5349 40.0616 78.9164 40.2524C79.1072 40.4431 79.4888 40.4431 79.6795 40.8247C79.8703 41.397 79.6795 41.9693 79.4887 42.3508C79.2979 42.9231 79.4888 42.5416 80.0611 42.9231C80.4426 43.3047 80.4425 44.0678 80.4425 44.6401C80.4425 45.0216 80.6334 45.2124 80.6334 45.5939C80.6334 45.9754 80.6333 46.357 80.4425 46.7385C80.4425 47.5016 80.4425 48.2647 80.4425 49.0278C80.4425 49.7908 80.6334 50.3631 80.0611 50.9355C79.8703 51.317 79.6795 51.317 79.6795 51.6985C79.6795 52.0801 79.8703 52.2708 79.6795 52.6524C79.6795 53.0339 79.4887 53.2247 79.298 53.4155C79.1072 53.797 79.1072 54.1785 78.9164 54.5601C78.7256 55.3232 78.7256 55.8955 78.5348 56.6585C78.5348 57.0401 78.3442 57.2309 78.1534 57.4216C77.9626 57.8032 77.9626 58.1847 77.7718 58.5662C77.5811 58.9478 77.3903 59.1385 77.1995 59.3293C77.0088 59.7109 77.0087 59.9016 77.0087 60.2832C77.0087 60.6647 76.8179 60.8555 76.6271 61.237C76.6271 61.237 76.4365 61.6186 76.2457 61.6186C76.0549 61.6186 75.8641 61.6186 75.6733 61.6186C75.2918 61.8093 75.2918 62.1909 75.101 62.5724C74.7195 63.1447 74.3379 63.9078 73.7656 64.2893C73.1933 64.6709 72.8118 64.8616 72.621 65.4339C72.621 65.8155 72.621 65.8155 72.2395 66.197C72.0487 66.5786 71.6672 66.7693 71.4765 67.1509C70.9042 67.7232 70.3317 68.2955 69.9502 68.677C69.3779 69.2493 68.8057 69.8216 68.2334 70.3939C67.8518 70.7755 67.8518 71.5386 67.4702 71.7293C67.0887 71.9201 66.7072 71.7293 66.3257 71.9201C65.7533 72.3016 65.3718 73.0647 64.7995 73.4463C64.6088 73.637 64.4179 73.8278 64.0364 73.8278C63.2733 74.0186 62.8917 74.4001 62.3194 74.7816C61.7471 75.1632 61.3656 75.5447 60.7933 75.7355C60.6025 75.9263 60.2211 75.9263 60.0303 75.9263C59.6487 76.117 59.6487 76.3078 59.4579 76.6893C59.2671 76.8801 58.5041 77.4524 58.3133 77.4524C57.741 77.4524 57.7411 76.4986 57.1687 76.8801C56.978 77.0709 56.9779 77.2616 56.5963 77.2616C56.4056 77.2616 56.2149 77.2616 55.8333 77.2616C55.0703 77.2616 55.261 78.0247 54.6886 78.4063C53.7348 78.7878 52.781 77.6432 51.6364 78.0247C51.4456 78.0247 51.2549 78.4063 51.0641 78.4063C50.8733 78.597 50.3009 78.4063 49.9194 78.4063C49.1563 78.4063 48.3933 78.4063 47.821 78.597C47.0579 78.7878 46.4856 78.597 45.9133 78.597C45.5318 78.597 45.341 78.4063 44.9594 78.4063C44.7687 78.4063 43.8148 78.597 43.624 78.4063C43.0517 78.0247 44.1964 77.834 44.3872 77.834C45.1502 77.6432 45.9133 77.4524 46.4856 77.4524C47.0579 77.4524 47.821 77.6432 48.2026 77.4524C48.5841 77.0709 48.3933 76.4986 48.9656 76.6893C49.1563 76.6893 49.3472 77.0709 49.538 77.0709C49.7287 77.0709 50.1102 76.8801 50.301 76.8801C51.064 76.6893 51.8272 76.6893 52.5902 76.4986C53.5441 76.3078 54.498 76.117 55.261 75.9263C56.0241 75.7355 56.978 75.5447 57.741 75.1632C58.3133 74.9724 58.6949 74.4001 59.2672 74.2093C59.8395 74.0186 60.4118 73.8278 60.7933 73.4463C61.3656 73.0647 62.1287 72.8739 62.701 72.8739C63.4641 73.0647 63.4641 72.6832 63.6548 72.1109C64.0364 71.157 65.3717 70.5847 66.1348 70.0124C66.7071 69.6309 67.0888 69.0586 67.6611 68.677C69.378 67.1509 70.9042 65.2432 72.4303 63.5262C73.0026 62.9539 73.1933 62.1909 73.5749 61.6186C73.9564 61.0462 74.338 60.6647 74.338 59.9016C73.7657 60.4739 73.1933 61.4278 72.8118 62.1909C72.4302 62.9539 72.0488 63.9078 71.4765 64.4801C71.0949 64.6709 70.9041 65.0524 70.7133 65.4339C70.3318 65.6247 69.9503 65.6247 69.7595 65.8155C69.5687 66.0062 69.1871 66.7693 68.9964 66.9601C68.6148 67.3416 68.4241 67.7232 68.0425 68.1047C67.2794 68.8678 66.5165 69.4401 65.7534 70.0124C65.3718 70.2032 64.9903 70.3939 64.7995 70.7755C64.418 71.157 64.2271 71.3478 63.6548 71.3478C63.2733 71.3478 63.4641 71.5386 63.0826 71.5386C62.8918 71.7293 62.701 71.5386 62.5103 71.7293C62.3195 71.9201 62.1287 72.3016 61.7471 72.1109C61.5564 72.1109 61.1749 71.7293 61.1749 71.5386C61.3656 71.9201 61.1749 72.6832 60.9841 72.8739C60.4118 73.4463 59.4579 73.4463 58.8856 73.8278C58.3133 74.0186 57.9318 74.4001 57.3595 74.5909C56.9779 74.7816 56.7872 74.5909 56.4056 74.5909C56.0241 74.5909 55.4517 74.9724 55.0702 75.1632C53.7348 75.5447 52.2086 75.9263 50.8733 76.117C50.4917 76.117 50.1103 76.3078 49.538 76.3078C49.3472 76.3078 48.9656 76.3078 48.7748 76.3078C48.5841 76.3078 48.3933 76.117 48.2026 76.117C48.0118 76.117 47.821 76.3078 47.821 76.4986C47.0579 76.6893 46.1041 76.6893 45.341 76.6893C44.3872 76.6893 43.2425 76.6893 42.2886 76.4986C41.3348 76.4986 40.381 76.3078 39.6179 76.117C39.0456 75.9263 39.0455 75.7355 38.4732 75.5447C38.2825 75.354 38.2825 75.354 37.901 75.5447C37.5194 75.7355 37.5194 75.7355 36.9471 75.5447C36.3748 75.354 35.8026 75.354 35.2303 75.1632C33.5133 74.5909 31.6056 74.0186 30.0795 73.0647C29.1256 72.4924 28.1718 71.9201 27.2179 71.3478C26.2641 70.7755 25.5009 70.2032 24.5471 69.6309C24.3563 69.4401 23.9748 69.0586 23.5932 69.0586C23.2117 69.0586 23.2118 69.4401 22.8302 69.6309C22.2579 70.0124 21.3041 68.677 22.4487 68.677C22.2579 67.9139 21.6856 67.7232 21.1133 67.1509C20.541 66.7693 20.1594 66.0062 19.3963 65.8155C19.5871 66.5786 21.1133 67.1509 21.1133 68.1047C21.1133 68.4863 20.9225 68.8678 20.541 68.677C20.3502 68.677 19.9686 68.1047 19.7779 67.9139C19.0148 67.5324 18.2517 66.7693 17.6794 66.0062C17.4887 65.6247 17.2978 65.2432 16.9163 65.6247C16.5348 65.8155 16.7256 66.197 16.1533 66.0062C15.7718 65.8155 15.3902 65.2432 15.0086 64.8616C14.6271 64.4801 14.2455 64.0985 13.6732 63.9078C13.2917 63.5262 13.2917 63.1447 12.9102 62.7632C12.7194 62.3816 12.3379 62.0001 11.9563 61.6186C11.384 60.8555 10.4301 60.0924 10.2394 59.3293C10.0486 58.9478 10.0487 58.5662 10.0487 58.1847C9.85788 57.8032 9.66714 57.2308 9.47637 56.8493C9.2856 56.4678 9.09474 55.8955 8.90397 55.5139C8.7132 54.9416 8.33173 54.5601 8.14096 54.1785C7.75942 53.4155 7.56867 52.4616 7.56867 51.5078C7.56867 51.1262 7.5686 50.7447 7.37783 50.3631C7.18706 49.9816 6.80555 49.6001 6.80555 49.2185C6.80555 48.837 6.99632 48.6462 6.80555 48.2647C6.80555 48.0739 6.61476 48.0739 6.42399 47.8831C6.23322 47.5016 6.42399 47.5016 6.42399 47.1201C6.42399 46.7385 6.42406 46.1662 6.61483 45.9754C6.99636 45.5939 7.37786 45.9754 7.7594 45.7847C8.14093 45.5939 8.14096 45.4031 8.14096 45.0216C8.14096 44.8308 8.14098 44.4493 8.52252 44.4493C8.90406 44.4493 9.28555 45.0216 9.66709 44.8308C9.85786 44.6401 10.2394 44.2585 10.2394 43.877C10.2394 43.4954 10.0487 43.1139 10.0487 42.7324C10.0487 42.3508 10.2394 41.9693 10.2394 41.5877C10.2394 41.397 10.0486 41.2062 10.2394 41.0154C10.2394 40.8247 10.4302 40.6339 10.4302 40.4431C10.4302 40.0616 10.2394 39.6801 10.2394 39.4893C10.2394 38.7262 11.0025 37.3908 9.66709 37.3908C9.47632 37.3908 8.90397 37.5816 8.90397 37.2001C8.90397 36.8185 9.47632 37.0093 9.66709 36.8185C9.85786 36.8185 10.4301 36.437 10.2394 36.0554C10.0486 35.6739 9.09474 35.6739 8.90397 35.8647C8.7132 36.0554 8.71329 36.8185 8.52252 37.2001C8.33175 37.5816 8.33173 38.1539 8.14096 38.5354C7.95019 39.1077 7.75935 39.4893 7.95012 40.0616C7.95012 40.2524 8.14096 40.4431 8.14096 40.8247C8.33173 41.0154 8.33166 41.2062 7.95012 41.2062C7.75935 41.2062 7.7594 41.397 7.7594 41.5877C7.56863 42.1601 8.33166 43.3047 6.99627 43.3047C6.61473 43.3047 6.04242 43.1139 6.04242 42.7324C6.04242 42.5416 6.04249 42.3508 6.23326 42.1601C6.23326 41.9693 6.42399 41.7785 6.42399 41.5877H6.61483C6.8056 41.397 6.80555 41.5877 6.80555 41.397C6.80555 41.2062 6.8056 41.0154 6.61483 41.0154C6.42406 40.6339 6.04249 40.4431 6.23326 40.0616C6.23326 39.6801 6.80555 39.4893 6.80555 39.1077C6.80555 38.917 6.61483 38.7262 6.61483 38.7262C6.42406 38.5354 6.42399 38.3447 6.42399 38.1539C6.42399 36.6277 6.99634 35.4831 7.18711 33.957C7.75942 31.6677 8.52252 29.5693 9.47637 27.4708C10.0487 26.3262 10.621 25.3723 11.3841 24.4185C11.7656 23.8462 11.9563 23.0831 12.5286 22.5108C12.9102 22.1293 13.2917 21.9385 13.6732 21.3662C14.0547 20.7939 14.0547 20.2216 14.6271 19.84C14.8178 19.6493 15.5809 18.8862 15.5809 19.6493C15.5809 19.84 15.0086 20.4123 15.0086 20.6031C14.6271 20.9846 14.4363 21.557 14.0548 21.9385C13.4825 22.8923 12.9102 24.037 12.3379 24.9908C11.7656 26.1354 11.1932 27.28 10.8117 28.4247C10.6209 28.997 10.4301 29.3785 10.2394 29.9508C10.0486 30.3323 9.66704 30.9047 9.85781 31.2862C9.85781 31.477 10.2394 31.477 10.2394 31.6677C10.2394 31.8585 10.0487 32.0493 10.0487 32.24C9.85788 32.8124 9.66709 33.1939 9.66709 33.7662C10.2394 33.3847 10.0487 33.0031 10.4302 32.6216C10.8118 32.24 11.1932 32.4308 11.5748 32.24C11.9563 32.0493 11.9563 31.6677 11.9563 31.477C11.9563 30.9047 12.3379 30.5231 12.5286 30.1416C12.7194 29.5693 12.9101 28.997 13.1009 28.4247C13.2917 27.8523 13.6733 27.28 13.864 26.7077C14.0548 26.517 14.0548 26.3262 14.4363 26.1354C14.6271 25.9447 15.0087 25.9447 15.1995 25.7539C15.581 25.3723 15.3902 24.8 15.3902 24.2277C15.3902 23.0831 16.5348 22.1293 17.2979 21.3662C17.4886 21.1754 17.6794 20.9846 17.8702 20.6031C18.0609 20.4123 18.2517 20.2216 18.4424 20.0308C18.6332 19.84 18.6332 19.6493 18.824 19.2677C19.0148 18.8862 19.2055 18.6954 19.3963 18.5046C21.304 16.7877 23.2117 15.2616 25.5009 13.9262C31.4148 10.4923 38.0917 8.7754 45.1502 8.96617C46.104 8.96617 47.2487 9.15694 48.2026 9.34771C48.5841 9.34771 48.9657 9.34771 49.538 9.34771C49.7287 9.34771 49.9194 9.72924 50.301 9.72924C50.4917 9.72924 50.6825 9.72924 50.8733 9.72924C51.4456 9.72924 52.2086 9.92001 52.781 10.1108C53.3533 10.3016 54.1164 10.4923 54.3072 11.0646C55.0703 10.6831 56.4057 11.2554 57.1687 11.6369C57.9318 12.0185 59.2672 13.7354 60.221 13.1631C60.6025 12.7816 60.9841 12.0185 61.1749 11.6369C61.5564 11.0646 61.9379 10.4923 62.1287 9.92001C62.3195 9.72925 62.701 8.96617 62.5103 8.7754C62.3195 8.39386 61.3657 8.39386 60.9841 8.20309C60.7934 8.01232 60.6025 7.82155 60.221 7.63078C60.0302 7.63078 59.6487 7.63078 59.4579 7.63078C58.8856 7.63078 58.3133 7.24924 57.5502 7.24924C56.7871 7.05847 56.7872 7.05847 56.4056 6.48616C56.0241 5.91385 55.4517 5.91385 54.6886 5.72308C54.1163 5.53232 53.5441 5.34155 52.9718 5.15078C52.2087 4.96001 51.6363 4.96001 50.8733 4.76924C50.3009 4.57847 49.7287 4.57847 49.1564 4.57847C48.7749 4.57847 47.821 4.96001 47.4394 4.76924C47.2487 4.57847 47.4395 4.3877 47.2487 4.3877C47.0579 4.19693 46.2948 4.3877 46.104 4.19693C45.3409 4.19693 44.5779 4.19693 44.0056 4.00616C43.4333 3.81539 43.0518 3.24308 42.4795 3.43385C42.2887 3.43385 42.098 3.81539 41.9072 3.81539C41.7164 3.81539 41.5256 3.43385 41.3348 3.24308C42.0979 2.86154 43.624 2.67077 44.5779 2.67077C45.1502 2.67077 45.7225 2.86154 46.2949 2.67077C46.8672 2.48 46.2948 2.09846 45.9133 2.09846C44.1964 1.90769 42.4795 1.90769 40.9533 2.09846C40.5718 2.09846 40.1902 2.09846 39.6179 2.09846C39.2364 2.09846 38.2825 2.09846 38.2825 1.52616C38.2825 1.14462 38.6641 1.14462 39.0456 1.14462C39.4272 1.14462 39.618 0.953847 39.9995 0.953847C40.1903 0.953847 40.381 1.14462 40.7625 1.14462C40.9533 1.14462 41.3349 0.953847 41.5256 0.953847C42.0979 0.763078 42.6702 0.572308 43.2425 0.572308C43.8148 0.572308 44.3871 0.763078 44.9594 0.572308C44.7687 0.381539 44.3871 0 44.1963 0C44.0056 0 43.8148 0.19077 43.624 0.19077C43.4333 0.19077 43.2426 0 42.861 0C42.4795 0 41.9072 0.381539 41.5256 0.572308C40.9533 0.763078 40.5718 0.572308 39.9995 0.381539C39.4272 -1.42134e-07 39.618 0.381539 39.0456 0.572308C38.6641 0.763078 38.2825 0.190769 37.7102 0.381539C36.1841 0.381539 34.6579 0.763078 33.1317 1.14462C31.7963 1.52616 30.461 1.90769 29.1256 2.28923C28.5533 2.48 27.981 2.86154 27.2179 3.05231C26.6456 3.43385 25.8825 3.81539 25.3102 4.00616C24.7379 4.19693 24.1656 4.19693 23.5932 4.3877C23.0209 4.57847 22.6394 4.76924 22.0671 5.15078C21.4948 5.53231 20.9225 5.72309 20.541 6.10462C20.3502 6.29539 20.1595 6.29539 19.9687 6.48616C19.3964 6.8677 19.7779 7.24924 19.2056 7.24924C18.0609 7.24924 17.1071 8.39386 16.344 8.96617C14.4363 10.3016 12.9102 11.8277 11.3841 13.7354C11.1933 13.9262 11.0024 14.3077 10.8117 14.4985C10.4301 14.88 10.2394 15.0708 9.85781 15.4523C9.47628 15.8339 9.28551 16.4062 8.90397 16.7877C8.52243 17.36 8.14093 17.9323 7.7594 18.3139C6.80555 19.2677 6.42406 20.6031 5.66098 21.557C5.27944 21.9385 5.08867 22.5108 4.70713 23.0831C4.51636 23.6554 4.13478 24.4185 3.94401 24.9908C3.75324 25.5631 3.94405 26.1354 3.75328 26.517C3.56251 26.7077 3.18093 26.8985 2.99016 27.28C2.79939 27.4708 2.6086 27.8523 2.6086 28.2339C2.22706 28.997 1.84552 29.9508 1.65475 30.7139C1.46398 31.477 1.27323 32.0493 1.08246 32.8124C1.08246 33.0031 1.08251 33.1939 0.89174 33.1939C0.89174 33.5754 1.08244 34.3385 1.65475 34.1477C1.84552 34.1477 2.6086 33.3847 2.6086 33.1939C2.6086 33.0031 2.4178 32.8124 2.22703 32.6216C2.03626 32.4308 2.03626 32.24 2.22703 31.8585C2.4178 31.2862 2.79944 30.9047 2.79944 30.3323C2.79944 29.9508 2.79939 29.9508 2.99016 29.5693C3.18093 29.3785 3.56244 29.3785 3.56244 28.997C3.56244 28.8062 3.37172 28.6154 3.37172 28.4247C3.37172 28.2339 3.37167 28.0431 3.56244 27.8523C3.75321 27.4708 3.75319 26.8985 4.13473 26.7077C4.3255 26.517 5.08865 26.7077 5.27942 26.8985C5.66095 27.28 5.08858 28.0431 5.08858 28.4247C5.08858 28.997 5.08867 29.1877 4.70713 29.76C4.51636 29.9508 4.32557 30.1416 4.32557 30.5231C4.1348 31.0954 3.94405 31.8585 3.75328 32.4308C3.56251 33.0031 3.56249 33.7662 3.37172 34.3385C3.37172 34.9108 2.99016 35.4831 2.99016 36.0554C2.99016 36.6277 3.56244 37.3908 3.56244 37.7724C3.56244 38.3447 2.99018 37.9631 2.41787 37.7724C2.03633 37.5816 1.46403 37.5816 1.46403 37.0093C1.46403 36.8185 1.46396 36.437 1.27319 36.2462C1.08242 36.2462 0.510178 36.2462 0.510178 36.437C-0.44367 37.0093 0.128592 39.2985 0.700901 39.8708C1.27321 40.4431 1.08246 39.6801 1.08246 39.2985C1.08246 38.7262 1.464 38.1539 2.03631 38.1539C2.79939 38.1539 2.99016 38.917 2.99016 39.4893C3.18093 40.0616 3.37172 40.8247 3.37172 41.397C3.37172 41.9693 2.79941 42.1601 2.41787 42.5416C2.2271 42.7324 2.4178 42.9231 2.22703 43.1139C2.03626 43.3047 1.84552 43.1139 1.65475 42.9231C1.46398 42.7324 1.27323 42.5416 1.08246 42.1601C0.891694 41.9693 0.891717 41.2062 0.510178 41.2062C-0.44367 41.2062 0.510131 43.877 0.700901 44.2585C0.89167 44.8308 1.08251 45.5939 0.89174 46.1662C0.700971 46.7385 0.319408 46.9293 0.510178 47.6924C0.510178 48.2647 0.700901 48.837 0.700901 49.2185C0.89167 49.7908 1.27321 49.6001 1.65475 49.9816C1.84552 50.1724 2.41787 51.317 2.41787 51.6985C2.2271 52.2708 1.46396 52.0801 1.27319 52.6524C1.08242 53.0339 1.65475 53.9878 1.65475 54.3693C1.84552 55.1324 2.22706 55.7047 2.6086 56.277C2.79937 56.6585 2.99018 57.6124 3.37172 57.8032C3.56249 57.9939 3.75324 57.9939 3.94401 58.1847C4.13478 58.3755 4.1348 58.5662 4.32557 58.757C4.51634 58.9478 3.75328 59.5201 3.75328 59.7109C3.75328 59.9016 4.13473 60.4739 4.13473 60.6647C4.3255 61.0462 4.51636 61.4278 4.70713 61.8093C4.8979 62.3816 5.27937 62.7632 5.47014 63.1447C6.61476 65.0524 7.95021 67.1509 9.47637 68.8678C10.2394 70.0124 11.5748 70.7755 12.5286 71.9201C13.4825 73.0647 14.2455 74.0186 15.5809 74.9724C16.1532 75.354 16.7256 75.7355 17.2979 76.3078C17.8702 76.6893 18.2517 77.0709 18.824 77.2616C19.2055 77.4524 19.9686 77.0709 20.1594 77.2616C20.541 77.4524 19.9686 77.834 20.3501 78.2155C20.7317 78.597 21.3041 78.7878 21.8764 78.7878C22.6395 78.7878 22.4487 78.4063 22.8302 78.0247C23.021 77.6432 23.2117 77.6432 23.021 77.2616C22.8302 77.0709 22.6394 76.8801 22.4487 76.8801C22.2579 76.6893 21.8763 76.4986 21.6855 76.4986C21.4948 76.3078 20.9225 76.117 20.7317 75.9263C20.3502 75.1632 21.6856 75.9263 21.8764 76.117C22.4487 76.4986 23.021 76.8801 23.7841 77.0709C24.3564 77.4524 24.9287 77.834 25.3102 78.2155C26.2641 78.9786 27.981 79.5509 29.1256 80.1232C30.461 80.6955 31.6056 80.8863 32.941 81.2678C35.421 82.0309 37.901 82.2217 40.5718 82.6032C41.5256 82.794 42.4795 82.6032 43.4333 82.794C44.0056 82.794 44.3872 82.794 44.7687 82.6032C45.341 82.4124 46.1041 82.4124 46.6764 82.4124C47.2487 82.4124 47.6302 82.6032 48.2026 82.6032C48.7749 82.794 49.1564 82.6032 49.7287 82.4124C50.1102 82.2217 50.4918 82.4124 51.0641 82.4124C51.6364 82.4124 52.0179 82.0309 52.5902 82.0309C53.1625 81.8401 53.7349 82.0309 54.3072 81.8401C54.8795 81.8401 55.261 81.4586 55.8333 81.2678C57.1687 80.8863 58.3133 80.5047 59.6487 80.1232C60.7933 79.7416 61.9379 79.1693 63.0826 78.597C64.0364 78.2155 64.7995 77.6432 65.5625 77.0709C66.1348 76.6893 66.7071 76.4986 67.0887 76.117C68.2333 75.354 69.3779 74.5909 70.3318 73.8278C70.9041 73.4463 71.2856 73.0647 71.8579 72.6832C72.2394 72.4924 73.0026 71.7293 73.5749 71.9201C73.9564 72.1109 73.7656 71.9201 73.7656 72.1109C73.7656 72.3016 73.7656 72.4924 73.7656 72.4924C73.7656 72.8739 73.5749 72.8739 73.3842 73.2555C73.0026 73.637 72.4302 74.0186 71.8579 74.5909C70.9041 75.354 69.7595 75.9263 68.8056 76.6893C68.2333 77.0709 67.8518 77.4524 67.4702 77.6432C66.8979 78.0247 66.3256 78.0247 65.9441 78.2155C65.7533 78.2155 65.5626 78.4063 65.3718 78.597C65.181 78.7878 65.181 78.9786 64.9902 79.1693C64.7995 79.3601 64.6087 79.1693 64.418 78.9786C64.2272 78.9786 63.8456 79.1693 63.6548 79.1693C62.701 79.5509 62.3195 80.6955 61.1749 81.077C60.6026 81.2678 60.0303 80.8863 59.6487 81.2678C59.458 81.4586 59.2672 81.6493 59.0764 81.8401C58.6949 82.0309 58.5041 82.0309 58.1226 82.2217C57.5503 82.4124 56.9779 82.794 56.4056 82.794C55.8333 82.9847 55.0703 82.9847 54.3072 82.9847C52.9718 83.1755 51.6364 83.557 50.301 83.9386C49.9194 84.1293 49.3471 84.1293 48.7748 84.1293C48.3933 84.1293 48.2025 83.9386 47.821 83.7478C47.4395 83.7478 47.4394 83.9386 47.0579 84.1293C46.8671 84.1293 46.2948 84.1293 46.104 84.1293C45.1502 84.1293 44.1963 84.1293 43.2425 84.1293C42.6702 84.1293 42.2887 84.1293 41.7163 84.1293C41.144 84.1293 40.9533 83.557 40.5718 83.7478C39.4272 84.1293 38.664 83.7478 37.5194 83.3663C36.9471 83.1755 36.3748 82.9847 35.8025 82.794C35.0395 82.6032 34.4671 82.4124 33.704 82.2217C32.3686 81.8401 31.224 81.6493 29.8886 81.2678C28.5532 80.8863 27.0272 80.314 25.6918 79.7417C25.501 79.7417 24.9286 79.3601 24.9286 79.7417C24.9286 80.1232 25.6917 80.314 25.8825 80.314C26.4548 80.5047 26.6456 80.8863 27.2179 81.2678C27.7902 81.6493 28.5533 81.6493 29.1256 81.6493C30.461 82.0309 31.4148 82.794 32.7502 83.1755C34.8486 83.7478 36.9472 83.9386 39.0456 84.3201C40.9533 84.5109 43.0518 85.274 44.9594 85.274C46.8671 85.274 48.7748 85.274 50.6825 85.0832C52.0179 84.8924 53.3533 84.5109 54.6886 83.9386C55.261 83.7478 55.8333 83.557 56.5963 83.3663C56.7871 83.3663 57.1687 83.1755 57.3595 83.1755C57.5502 82.9847 57.741 82.794 57.9318 82.6032C58.3133 82.4124 59.0764 82.794 59.6487 82.794C60.221 82.794 60.9841 82.6032 61.5564 82.4124C62.701 82.0309 63.6548 81.4586 64.6087 80.8863C65.7533 80.314 66.8979 79.7416 68.0425 79.1693C69.1871 78.597 70.141 77.6432 71.2856 77.2616C71.6672 77.2616 71.858 77.0709 72.0487 76.8801C72.2395 76.6893 72.2395 76.4986 72.2395 76.3078C72.621 75.7355 73.3841 75.354 73.9564 74.9724C74.5287 74.5909 75.101 74.4001 75.4826 74.0186C75.6733 73.8278 75.6734 73.637 75.8641 73.2555C76.0549 73.0647 76.4364 72.8739 76.818 72.6832C77.0088 72.4924 77.1995 72.4924 77.3903 72.3016C77.581 72.1109 77.5811 71.7293 77.7718 71.5386C78.1534 71.157 78.7257 70.5847 79.298 70.2032C79.6795 70.0124 79.8703 69.4401 80.2518 69.2493C80.6333 68.8678 81.0149 69.0586 81.2057 68.4863C81.2057 67.9139 81.2057 67.7232 81.5872 67.3416C81.778 67.1509 81.9688 66.7693 81.9688 66.5786C82.1596 66.0062 82.541 65.4339 82.7318 64.8616C82.9226 64.6709 82.9226 64.2893 82.9226 64.0986C83.1134 63.717 83.4949 63.717 83.6856 63.3355C83.8764 63.1447 83.6856 62.7632 83.6856 62.5724C83.6856 62.1909 83.8765 62.0001 83.8765 61.6186C84.0672 61.0462 84.2579 60.4739 84.6395 59.7109C85.021 58.5662 85.4026 57.4216 85.9749 56.4678C86.5472 54.7508 87.1195 52.6524 87.1195 50.9355C87.3102 49.6001 87.3103 48.2647 87.501 46.7385C87.6918 45.5939 87.501 44.2585 87.501 43.1139C87.3103 41.2062 87.1196 39.4893 86.738 37.7724C86.3565 36.2462 85.7841 34.9108 85.4026 33.3847C85.0211 32.24 84.8303 31.0954 84.6395 29.9508C84.4487 29.1877 83.8765 27.6616 84.4488 27.0893C83.4949 26.8985 82.7318 25.5631 82.3502 24.8C82.1595 24.2277 82.1595 23.8462 82.1595 23.2739C82.1595 22.8923 82.1595 22.8923 81.7779 22.7016C81.3964 22.5108 81.0149 22.1293 80.8241 21.557C80.6333 20.9846 80.6333 20.6031 80.4425 20.0308C80.2518 19.6493 79.6795 19.2677 79.4887 18.8862C79.2979 18.6954 79.1072 18.3139 79.1072 18.1231C78.9165 17.9323 78.7256 17.9323 78.5348 17.7416C77.9625 17.36 77.7718 16.7877 77.3903 16.4062C77.0087 15.8339 76.4364 15.4523 75.8641 14.88C75.6734 14.6892 75.4826 14.4985 75.2918 14.3077C75.1011 14.1169 75.2918 13.7354 75.101 13.5446C74.9102 12.9723 74.7195 13.3539 74.338 13.1631C74.1472 12.9723 74.7195 12.5908 74.338 12.4C74.1472 12.2092 73.9564 12.4 73.7656 12.2092C73.5748 12.0185 73.1933 11.8277 73.1933 11.6369C72.8118 11.0646 72.8118 10.6831 72.2395 10.4923C71.4764 10.1108 71.0949 9.92001 70.5226 9.34771C70.1411 8.7754 69.378 8.39386 68.8056 8.20309C68.2333 8.01232 67.661 8.20309 67.2795 7.82155C67.0887 7.63078 67.0888 7.24924 66.7072 7.05847C66.3257 6.8677 66.1349 6.67693 65.7534 6.48616C65.1811 7.24924 65.1811 7.24924 64.7995 7.63078Z" fill="#1F3773"/>
</svg>
