<svg width="88" height="90" viewBox="0 0 88 90" fill="none" xmlns="http://www.w3.org/2000/svg">
<path d="M82.2288 52.4702C82.2288 52.4702 82.2288 52.2828 82.2288 52.4702V52.4702ZM81.844 50.5963C81.6517 50.9711 81.6517 51.1585 81.6517 51.5332C81.6517 51.7206 81.844 52.0954 81.844 52.2828C81.844 52.4702 81.267 52.6576 81.0746 52.4702C80.8822 52.2828 80.8822 52.2828 80.8822 51.908C80.8822 51.1585 81.2669 50.4089 81.2669 49.4719C81.2669 49.0971 81.2669 48.9097 81.4593 48.5349C81.4593 48.1602 81.6517 46.4736 81.844 46.4736C82.2288 46.2862 82.2288 47.7854 82.2288 48.1602C82.2288 48.9097 82.2288 49.8467 81.844 50.5963ZM80.8822 56.0307C80.8822 56.4055 80.3051 56.0307 80.3051 55.6559C80.3051 55.2811 80.4975 54.7189 80.6898 54.3441C80.8822 54.1568 80.8822 53.9694 81.0746 54.1567C81.267 54.5315 80.8822 55.6559 80.8822 56.0307ZM80.6898 58.092C80.6898 57.9046 80.4975 57.9046 80.6898 57.7172C80.8822 57.5298 80.8822 57.7172 81.0746 57.9046C80.8822 57.9046 80.8822 57.9046 80.6898 58.092ZM80.3051 57.3424C80.3051 57.5298 80.3051 57.3424 80.3051 57.3424V57.3424ZM80.6898 59.2164C79.9204 61.2777 79.1509 63.1516 78.189 65.0256C77.4195 66.5247 76.2652 67.8365 75.4958 69.3356C74.7263 70.6474 73.7644 71.5844 72.8025 72.7087C72.2254 73.4583 71.2636 73.8331 70.4941 74.5827C70.1094 74.7701 69.5321 76.0818 68.955 75.5196C68.7626 75.3322 68.7627 74.7701 68.7627 74.5827C68.7627 74.2079 68.7627 73.8331 69.1475 73.4583C70.4941 71.9591 71.8407 70.6474 72.9949 69.1482C74.1492 67.6491 75.3034 65.9626 76.2653 64.276C76.8424 63.339 77.4195 62.4021 77.8043 61.4651C77.9966 61.0903 78.189 60.5281 78.3813 60.1534C78.5737 59.7786 78.7661 59.029 79.1509 58.8416C79.3433 58.6542 79.5355 58.8416 79.5355 59.029C79.5355 59.2164 79.3432 59.4038 79.3432 59.5912C79.1508 59.7786 78.7661 60.1534 78.9584 60.5281C79.5356 61.2777 80.305 59.2164 80.4974 59.029C80.6898 59.029 80.6898 59.2164 80.6898 59.2164ZM68.5704 76.644C67.8009 77.3936 67.0314 78.1431 66.2619 78.7053C65.8771 78.8927 65.4924 79.2675 65.3 79.4549C64.9153 79.6423 62.7992 81.7036 62.4144 80.5793C62.4144 80.2045 62.7991 79.8297 62.9915 79.6423C63.1839 79.4549 63.3762 79.4549 63.5686 79.2675C63.761 79.0801 63.5687 78.7053 63.761 78.5179C63.9534 78.1431 64.1457 78.5179 64.5305 78.3305C64.9152 78.1431 64.9153 77.581 65.3 77.2062C65.6848 76.8314 66.2619 76.4566 66.6466 76.0818C67.0314 75.707 67.416 75.3322 67.9932 74.9574C68.5703 74.5827 69.1475 76.0818 68.5704 76.644ZM67.6085 70.8348C67.8009 70.8348 67.8008 71.0222 67.8008 71.0222C67.6085 71.2096 67.4161 71.0222 67.6085 70.8348ZM68.5704 69.523C68.7627 69.1482 69.3398 69.7104 69.1475 69.8978C69.1475 70.2726 68.378 70.0852 68.5704 69.523ZM70.4941 67.4617C70.8788 67.0869 71.2635 68.0239 70.6864 68.3987C70.4941 68.5861 70.1093 68.5861 70.1093 68.2113C70.1093 68.0239 70.3017 67.6491 70.4941 67.4617ZM72.2254 65.5878C72.8025 65.7752 72.033 66.7121 71.6483 66.3373C71.2635 65.9626 71.8406 65.4004 72.2254 65.5878ZM74.3416 62.7769C74.5339 62.5895 74.7263 62.9643 74.9187 63.1516C74.7263 63.1516 73.9568 63.1516 74.3416 62.7769ZM61.4525 81.891C60.1059 82.4532 58.9516 83.2028 57.7974 83.7649C56.4508 84.3271 55.1042 84.8893 53.7576 85.2641C53.1805 85.4515 52.7958 85.2641 52.2187 85.2641C51.4492 85.2641 51.6415 85.8263 51.0644 86.2011C50.6796 86.5758 49.7177 86.5758 49.1406 86.5758C48.3711 86.7632 47.6016 86.7632 46.8321 86.7632C46.0626 86.7632 45.4856 86.5759 44.7161 86.7632C44.139 86.7632 43.5618 86.9506 42.7923 86.7632C42.6 86.5759 42.2152 86.5759 42.0228 86.3885C41.6381 86.2011 41.4457 86.2011 41.0609 86.3885C40.2914 86.3885 39.7144 86.2011 38.9449 86.2011C38.5601 86.2011 38.3678 86.2011 37.983 86.2011C37.5983 86.2011 37.4059 86.0137 37.0211 86.0137C36.2517 85.8263 35.6746 86.0137 34.9051 85.8263C34.1356 85.6389 33.5585 85.6389 32.9814 85.8263C32.5966 85.8263 32.2119 86.2011 32.0195 85.8263C31.8271 85.6389 31.8271 84.8893 32.0195 84.7019C32.5966 84.1397 33.366 84.7019 33.7508 84.8893C34.3279 85.0767 34.905 85.0767 35.6745 85.2641C36.2516 85.2641 36.8288 85.6389 37.4059 85.6389C39.9068 85.8263 42.4076 85.4515 44.7161 85.2641C47.2169 85.0767 49.7177 84.7019 52.0262 83.9523C52.7957 83.7649 53.3729 83.5776 54.1424 83.5776C54.7195 83.5776 54.7195 83.3902 55.1043 83.2028C55.2966 83.2028 55.4889 82.828 55.4889 83.2028C55.4889 83.3902 55.2966 83.7649 55.2966 83.9523C55.2966 84.3271 55.489 84.5145 55.6814 84.3271C56.2585 83.9523 56.0661 83.0154 56.6432 82.6406C56.8356 82.4532 57.4127 82.4532 57.7974 82.2658C57.9898 82.2658 58.7593 82.4532 58.9517 82.2658C59.3365 82.0784 58.9516 81.5162 59.3364 81.1414C60.683 79.8297 62.4144 81.5162 61.4525 81.891ZM43.9465 81.891C44.716 81.5162 45.6779 81.891 44.7161 82.6406C43.9466 83.3902 43.3694 82.0784 43.9465 81.891ZM46.0627 81.891C46.2551 81.7036 46.6398 81.5162 46.8321 81.7036C47.0245 81.891 47.2169 82.2658 47.0246 82.4532C46.6398 82.6406 46.0627 81.891 46.0627 81.891ZM47.9864 83.3902C48.1788 83.3902 48.1788 83.5776 47.9864 83.5776C47.9864 83.7649 47.2169 83.7649 47.2169 83.7649C47.0245 83.7649 46.8321 83.7649 46.8321 83.5776C47.0245 83.5776 47.9864 83.5775 47.9864 83.3902ZM51.8339 83.0154C51.6415 83.3902 49.5254 84.1397 49.3331 83.3902C49.3331 82.6406 51.6415 82.6406 51.8339 83.0154ZM48.3712 81.5162C48.756 81.5162 50.872 80.954 50.872 81.3288C51.4492 81.1414 54.1423 79.8297 54.3347 80.3919C54.5271 80.954 53.1805 81.1414 52.7958 81.3288C52.0263 81.5162 51.4491 81.891 50.6796 82.0784C50.1025 82.2658 49.5253 82.4532 48.7559 82.4532C48.5635 82.4532 48.1788 82.4532 47.9864 82.2658C48.1788 81.891 48.1788 81.5162 48.3712 81.5162ZM54.9118 80.0171C55.2966 79.2675 56.4509 79.0801 57.028 78.7053C57.4127 78.5179 57.7974 78.1431 58.1822 78.1431C58.5669 78.1431 58.7593 78.3305 58.567 78.7053C58.1822 79.2675 57.0279 79.6423 56.4508 80.0171C56.066 80.2045 55.6813 80.5793 55.2966 80.5793C54.9118 80.3919 54.7194 80.2045 54.9118 80.0171ZM26.633 78.1431C26.4406 78.5179 26.0559 77.9557 25.8635 77.7683C26.0559 77.7683 27.0177 77.7683 26.633 78.1431ZM10.8585 60.3407C9.70422 60.3407 10.0889 58.092 9.51183 57.5298C9.31945 57.3424 8.93466 57.155 8.74229 56.9677C8.54991 56.7803 8.54989 56.4055 8.35752 56.2181C8.16514 55.4685 7.78047 54.9063 7.58809 54.1567C7.58809 53.782 7.58809 53.5946 7.58809 53.2198C7.58809 53.0324 7.20333 52.845 7.20333 52.4702C7.20333 52.2828 7.39565 52.0954 7.39565 51.7206C7.20328 51.3458 6.8186 51.5332 6.62623 51.1585C6.43386 50.7837 6.81863 50.4089 7.011 50.2215C7.20337 50.0341 7.39565 49.8467 7.39565 49.6593C7.39565 49.2845 7.20337 49.2845 7.011 49.0971C6.62625 48.5349 6.62616 47.4106 6.43379 46.8484C6.43379 46.4736 5.85674 44.7871 6.62623 45.1619C7.20335 45.3493 7.20328 46.8484 7.39565 47.4106C7.39565 47.598 7.39572 47.9728 7.58809 48.1602C7.78047 48.3475 7.97286 48.5349 7.97286 48.9097C8.16524 49.2845 8.16514 49.8467 8.35752 50.2215C8.35752 50.5963 8.54996 50.9711 8.54996 51.3458C8.54996 51.7206 8.54996 52.0954 8.54996 52.2828C8.54996 52.845 9.12701 52.845 9.31938 53.4072C9.51175 53.9694 9.51185 54.5315 9.8966 55.0937C10.089 55.4685 10.2813 55.6559 10.4737 56.0307C10.6661 56.4055 10.2813 56.5929 10.4737 56.9677C10.4737 57.3424 10.8584 57.3424 11.0508 57.5298C11.4355 57.7172 11.4355 57.9046 11.6279 58.092C11.6279 59.029 11.2432 59.5912 10.8585 60.3407ZM4.51006 27.7343C4.51006 27.9216 3.93301 27.7343 3.74063 27.7343C3.54826 27.5469 3.74059 26.7973 3.93296 26.6099C4.12533 26.0477 4.31778 25.1107 5.08727 25.1107C5.47201 25.1107 6.04906 25.6729 5.85669 26.0477C5.66432 26.2351 5.27964 26.6099 5.08727 26.7973C4.8949 26.9847 4.70243 27.3595 4.51006 27.7343ZM3.93296 28.4838C3.93296 28.8586 3.35591 28.8586 3.16354 28.8586C3.16354 28.4838 2.97112 28.2964 3.35586 28.109C3.54824 28.109 4.12533 28.109 3.93296 28.4838ZM6.81856 40.2896C6.81856 40.477 7.20335 41.414 6.62623 41.2266C6.43386 41.2266 6.62618 40.2896 6.81856 40.2896ZM4.89483 23.6116C5.0872 23.0494 5.27962 22.6746 5.66436 22.2998C6.04911 21.9251 5.85674 21.5503 5.66436 21.1755C5.47199 20.0511 6.81856 20.9881 6.81856 20.0511C6.81856 19.4889 6.62621 19.4889 7.20333 19.3015C7.58807 19.3015 7.78049 19.1141 7.97286 18.7394C7.97286 18.552 7.97286 18.552 7.97286 18.3646C7.97286 18.1772 7.97282 18.1772 8.16519 18.1772C8.35756 17.9898 8.54991 17.9898 8.74229 17.615C8.93466 17.2402 9.12703 16.678 9.70415 16.678C9.89652 16.678 10.2813 17.4276 10.4737 17.615C10.8584 18.1772 10.4736 18.552 10.2812 18.9268C9.8965 19.4889 9.31948 20.0511 8.93473 20.8007C8.54998 21.3629 8.35754 21.5503 7.78042 21.9251C7.58805 22.1124 7.39565 22.1124 7.39565 22.4872C7.39565 22.862 7.3957 23.0494 7.20333 23.4242C7.01095 23.799 6.62621 24.736 6.24146 24.9233C5.85671 25.1107 5.47201 24.9233 5.08727 24.736C4.8949 24.3612 4.70245 24.1738 4.89483 23.6116ZM8.35752 40.6644C8.54989 40.6644 8.93471 41.6014 8.54996 41.6014C7.97284 41.9762 8.35752 40.8518 8.35752 40.6644ZM11.6279 13.6797H12.0127C12.0127 13.8671 11.8203 14.0545 11.6279 14.0545C11.4355 14.0545 11.4355 13.8671 11.6279 13.6797ZM14.1287 14.6167C14.5135 14.2419 14.8982 13.6797 15.0906 13.3049C15.2829 12.9302 15.283 12.368 15.8601 12.1806C16.0525 12.1806 16.822 12.1806 16.6297 12.5554C16.6297 12.7428 15.6678 13.4923 15.6678 13.3049C15.283 13.6797 15.0907 14.4293 14.7059 14.6167C14.5135 14.6167 14.3212 14.9915 14.3212 14.8041C14.3212 14.9915 14.1287 14.8041 14.1287 14.6167ZM17.7838 9.74447C18.1686 9.36968 19.1305 8.05793 19.7076 8.43271L19.8999 8.99489C19.8999 9.18229 20.0923 9.36968 20.2847 9.55707C20.477 9.93186 20.8619 10.1193 20.4771 10.494C20.2847 10.6814 19.7076 10.6814 19.5152 10.8688C19.1305 11.0562 18.7457 11.8058 18.3609 11.431C17.9762 11.0562 18.361 10.8688 18.5534 10.8688C18.7458 10.6814 18.7457 10.8688 18.938 10.6814C19.1304 10.494 19.3229 10.1193 19.5152 9.93186C18.9381 9.55707 18.9381 9.93186 18.5534 10.1193C17.9763 10.1193 17.3991 10.1193 17.7838 9.74447ZM21.6313 11.431C21.6313 11.9932 21.2465 11.9932 21.2465 11.431C21.2465 11.431 21.4389 11.431 21.6313 11.431ZM21.6313 8.8075C22.2084 8.62011 22.2084 9.74447 21.6313 9.55707C21.2466 9.55707 21.0542 8.8075 21.6313 8.8075ZM22.5932 13.3049C22.5932 12.368 24.5169 11.8058 24.3246 13.3049C24.3246 13.6797 23.7475 14.0545 23.3627 14.0545C23.1703 14.2419 22.9779 14.4293 22.7855 14.0545C22.5931 13.8671 22.5932 13.4923 22.5932 13.3049ZM28.3644 5.62181C28.5567 5.62181 28.7492 5.24702 29.1339 5.24702C29.5186 5.05963 29.5186 5.24702 29.9033 5.43441C30.2881 5.62181 30.2881 5.43441 30.6729 5.05963C31.0576 4.68484 31.0576 4.87223 31.6347 4.87223C32.0195 4.87223 32.2118 4.87223 32.4041 4.87223C32.7889 4.68484 32.9813 4.31005 33.366 4.31005C33.7508 4.31005 33.9432 4.68484 34.5203 4.68484C34.9051 4.68484 35.2898 4.31005 35.6745 4.49745C36.8288 4.87223 34.905 5.24702 34.7126 5.24702C33.9432 5.43441 32.9813 5.62181 32.2118 5.9966C31.25 6.37138 30.2881 6.74617 29.3262 6.74617C29.1339 6.74617 28.7491 6.74617 28.5567 6.55878C28.1719 6.37138 28.172 5.62181 28.3644 5.62181ZM30.4804 3.37308C30.4804 3.37308 30.4804 3.18569 30.4804 3.37308V3.37308ZM38.9449 2.43612C39.3296 2.06133 40.2915 1.12436 40.8686 1.31176C41.2534 1.31176 41.2533 1.68654 41.4457 2.06133C41.8304 2.43612 41.8304 2.06133 42.0228 1.87394C42.4075 1.49915 43.3695 1.49915 43.7542 2.06133C43.9466 2.24872 43.9465 2.43612 43.9465 2.62351C43.9465 2.8109 44.1389 2.8109 44.3313 2.9983C44.5237 3.37309 44.139 3.74787 44.139 4.12266C44.9085 4.31005 45.678 4.31005 46.4475 4.31005C47.217 4.31005 48.1787 4.68484 48.7559 4.31005C48.1787 3.93527 47.4093 4.12266 46.6398 4.12266C46.4474 4.12266 45.1008 4.31005 44.9084 3.93527C44.5236 3.37309 46.0627 3.37308 46.255 3.37308C46.8321 3.18569 46.6398 2.62351 47.0246 2.43612C47.4093 2.24872 48.1788 2.06133 48.3712 2.62351C48.5636 3.18569 48.1787 3.56048 48.7559 3.93527C49.333 4.12266 49.9102 4.12266 50.2949 4.31005C50.8721 4.68484 51.2568 5.05963 51.8339 5.43441C51.0644 6.18399 49.3331 5.43441 48.3712 5.43441C47.4093 5.43441 46.4475 5.24702 45.4856 5.24702C44.3314 5.05963 43.177 5.05963 42.0228 5.05963C41.2533 5.05963 40.0992 5.24702 39.7144 4.68484C39.522 4.31005 39.5219 3.74787 39.1372 3.37308C39.5219 2.9983 38.5601 2.8109 38.9449 2.43612ZM45.6779 2.43612C46.0627 2.43612 45.8703 2.62351 45.6779 2.8109C45.4856 2.9983 44.9084 2.8109 44.7161 2.8109C44.9084 2.62351 45.2932 2.62351 45.6779 2.43612ZM44.7161 1.49915C44.9084 1.12436 46.255 0.749574 45.8703 1.49915C45.8703 1.87394 44.5237 2.06133 44.7161 1.49915ZM51.4491 2.24872C51.6415 2.43612 51.6415 2.43612 51.4491 2.62351C51.2568 2.62351 51.2568 2.06133 51.4491 2.24872ZM53.95 5.24702C54.3347 5.43441 54.7195 5.43441 55.1043 5.62181C55.489 5.8092 55.489 5.8092 55.1043 5.9966C54.3348 6.18399 52.9881 5.62181 52.411 5.24702C52.9881 5.05963 53.3728 5.05963 53.95 5.24702ZM57.6051 6.37138C57.9898 6.55878 58.567 6.74617 58.567 6.93356C58.1822 6.93356 57.4126 6.74617 57.4126 6.37138H57.6051ZM62.0296 5.62181L62.222 5.9966L61.6449 6.18399C61.6449 5.9966 61.4525 5.62181 62.0296 5.62181ZM62.7992 13.8671C62.7992 14.0545 62.7992 14.0545 62.7992 14.2419C62.0297 13.8671 62.0297 13.6797 62.7992 13.8671ZM63.9534 15.3663C64.1457 15.3663 63.9534 15.3663 63.9534 15.3663C63.9534 15.5537 63.9534 15.5537 63.9534 15.3663C63.9534 15.5537 63.9534 15.5537 63.9534 15.3663ZM64.9152 15.5537C65.3 15.1789 65.8771 15.5537 66.2619 15.7411C66.4542 15.7411 66.6466 15.7411 66.6466 15.9285C66.6466 16.3032 66.2618 16.1158 66.0694 16.1158C65.8771 16.1158 64.9153 16.3032 64.7229 16.1158C64.5305 16.1158 64.7229 15.7411 64.9152 15.5537ZM65.3 7.87053C65.6848 7.30835 67.4161 8.8075 66.2619 9.18229C65.8771 9.55707 65.1076 8.24532 65.3 7.87053ZM67.4161 11.6184C67.4161 11.8058 67.6084 11.8058 67.4161 11.6184C67.4161 11.8058 67.4161 11.8058 67.4161 11.6184ZM68.955 10.494C69.3398 10.1193 69.5322 10.494 69.7246 10.6814C69.9169 11.0562 70.3017 11.2436 70.6864 11.431C71.0712 11.6184 72.2255 11.9932 72.4178 12.5554C72.4178 12.9302 72.033 13.1176 71.8406 13.1176C71.2635 13.1176 70.8788 12.5554 70.4941 12.1806C70.1094 11.9932 68.5703 11.0562 68.955 10.494ZM72.6102 15.7411C72.8025 15.9285 72.4178 16.1159 72.4178 15.9285C72.2255 15.9285 71.8407 15.3663 71.6483 15.1789C71.4559 14.9915 71.2636 14.8041 71.0712 14.6167C71.4559 14.4293 71.4559 14.8041 71.6483 14.9915C72.033 15.3663 72.4178 15.5537 72.6102 15.7411ZM72.9949 22.862C73.3797 23.0494 73.7644 23.0494 73.9568 23.4242C74.1492 23.799 74.1491 23.9864 74.5339 24.3612C74.7263 24.5486 75.3034 24.9233 75.3034 25.2981C75.3034 25.4855 75.3034 25.6729 75.3034 25.8603C75.4958 26.0477 75.6881 26.2351 75.8805 26.4225C76.65 27.1721 77.0348 28.2964 77.8043 29.046C77.9966 29.2334 78.5737 29.7956 78.7661 30.1704C78.7661 30.3578 78.3814 31.1073 78.189 31.2947C77.4195 32.0443 77.0348 30.3578 76.8424 29.983C76.65 29.4208 76.65 28.8586 76.2653 28.4838C76.0729 28.109 75.4958 28.109 75.3034 27.9216C74.7263 27.5469 74.9187 27.1721 74.9187 26.7973C74.7263 26.2351 74.3415 25.8603 73.9568 25.4855C73.572 25.1107 72.9949 24.5486 72.8025 23.9864C72.6101 23.4242 72.6102 22.6746 72.9949 22.862ZM73.1873 15.3663C73.572 14.6167 75.3033 15.5537 75.6881 15.7411C75.8805 15.5537 76.0729 15.7411 76.2653 15.9285C76.4577 16.3032 76.2652 16.3032 76.4576 16.678C76.65 17.0528 77.2271 17.2402 77.4195 17.615C77.4195 17.9898 77.0347 18.3646 76.6499 18.1772C75.8805 18.1772 75.4958 17.0528 74.9187 16.4906C74.5339 16.3032 72.9949 15.7411 73.1873 15.3663ZM76.4576 16.4906C76.2652 16.4906 76.2652 16.678 76.4576 16.4906C76.2652 16.4906 76.2652 16.4906 76.4576 16.4906ZM79.1509 32.0443C79.3433 32.7939 79.7279 33.3561 79.9203 34.1056C80.1127 34.6678 80.6899 35.4174 80.1128 35.9796C79.728 36.3544 79.5356 36.3544 79.3432 35.9796C79.1508 35.7922 78.9585 35.23 79.1509 35.23C78.7661 34.4804 78.5738 33.5435 78.189 32.7939C78.189 32.4191 77.9967 32.2317 78.189 31.8569C78.5738 31.4821 78.9585 31.6695 79.1509 32.0443ZM80.6898 38.4157C81.267 38.6031 80.3051 39.5401 80.1128 38.6031C80.1128 38.4157 80.1127 37.8535 80.4974 37.8535C80.6898 38.0409 80.3051 38.2283 80.6898 38.4157ZM82.0365 41.6014C82.0365 41.6014 82.2289 41.7888 82.0365 41.6014C82.0365 41.7888 81.8441 41.7888 82.0365 41.6014ZM37.0211 9.55707C37.0211 9.55707 36.8288 9.55707 37.0211 9.55707C37.0211 9.36968 37.0211 9.55707 37.0211 9.55707ZM73.7644 32.0443C74.1491 32.2317 74.3415 32.0443 74.5339 31.6695C74.5339 31.1073 74.1491 30.3578 74.1491 29.983C73.7644 29.983 73.5721 29.046 73.3797 28.6712C72.9949 28.2964 72.4178 28.2964 72.6102 28.8586C72.6102 29.4208 73.1873 29.983 73.1873 30.7326C73.1873 31.2947 73.3796 31.6695 73.7644 32.0443ZM59.9136 74.7701C58.7593 74.9574 57.7974 75.707 56.8355 76.0818C56.4508 76.2692 55.8737 76.4566 55.2966 76.644C54.7195 76.8314 54.3347 77.0188 53.7576 77.3936C53.3729 77.581 52.7957 77.581 52.411 77.7683C52.2186 77.9557 52.0262 78.1431 52.411 78.1431C52.6034 78.1431 52.9881 77.9557 52.9881 77.9557C53.5652 77.7683 54.3347 77.3936 54.9118 77.2062C55.8737 76.8314 57.028 76.2692 57.9899 75.8944C58.567 75.707 58.9517 75.5196 59.5288 75.3322C59.7212 75.3322 60.1059 75.1448 60.1059 74.9574C60.1059 74.9574 60.106 74.5827 59.9136 74.7701ZM75.6881 43.1005C76.6499 44.0375 76.2653 41.7888 76.2653 41.414C76.2653 40.8518 76.2652 40.2896 76.0729 39.7274C76.0729 39.3527 76.0729 39.1653 75.8805 38.6031C75.8805 38.4157 75.8805 37.6661 75.4958 37.6661C75.111 37.4787 75.3034 38.2283 75.3034 38.4157C75.3034 39.1653 75.6881 39.9148 75.6881 40.8518C75.6881 41.2266 75.6881 41.6014 75.6881 41.9762C75.8805 42.1636 75.6881 43.1005 75.6881 43.1005ZM86.8458 36.9165C87.2306 37.4787 87.0381 36.3544 87.0381 36.3544C87.0381 35.7922 86.8457 35.23 86.6534 34.6678C86.2686 33.5435 85.8839 32.9813 84.9221 32.6065C85.4992 34.1056 86.0763 35.6048 86.8458 36.9165ZM87.2305 41.2266C86.8457 41.0392 86.8458 40.2896 86.461 40.477C86.0763 40.6644 86.0762 41.2266 86.2686 41.414C86.461 41.7888 86.6534 42.1636 87.0381 42.351C87.4229 42.5383 87.6153 42.7257 88 42.9131C88 42.1636 88 41.6014 87.2305 41.2266ZM11.0508 32.2317C11.2432 31.6695 11.628 31.1073 11.8203 30.5452C12.0127 29.983 12.5898 29.4208 12.7822 28.8586C12.9746 28.4838 12.9745 28.2964 13.1668 27.9216C13.1668 27.7343 13.5516 27.3595 13.5516 27.3595C13.5516 26.6099 12.7821 27.9216 12.5897 28.109C12.0126 29.046 11.2432 30.7325 11.0508 32.2317ZM22.2084 15.5537C21.6313 15.1789 21.6313 15.5537 21.2465 15.9285C20.2847 16.8654 22.2084 15.3663 21.0542 16.1158C20.8618 16.3032 20.6695 16.1158 20.4771 16.4906C20.2847 16.678 20.2847 17.0528 20.6694 17.0528C20.8618 17.0528 21.0542 16.8654 21.2465 16.678C21.2465 16.678 22.4008 15.9285 22.2084 15.5537ZM17.7838 20.8007C18.361 20.9881 18.7457 20.9881 19.1305 20.4259C19.3228 20.0511 19.9 19.4889 19.1305 19.3015C18.9381 19.4889 18.5533 20.0511 18.3609 20.2385C18.3609 20.0511 17.3991 20.6133 17.7838 20.8007ZM15.0906 21.5503C14.5135 21.3629 14.3211 22.1124 14.1287 22.4872C13.9363 22.862 12.9745 23.2368 13.1668 23.799C13.3592 24.736 15.2829 21.5503 15.0906 21.5503ZM83.5754 35.0426C83.7678 35.6048 83.7678 36.3544 84.1525 36.7291C84.3449 36.5418 84.1525 36.167 84.3449 35.9796C84.5372 35.7922 84.922 35.7922 85.3067 35.7922C85.1144 35.6048 85.1145 35.0426 84.9221 35.0426C84.5373 34.8552 84.7297 35.23 84.5373 35.23C83.9602 35.23 83.7678 34.6678 83.5754 35.0426ZM13.1668 26.4225C13.3592 25.8603 12.0127 25.2981 11.8203 25.8603C11.628 26.4225 12.9745 26.9847 13.1668 26.4225ZM72.6102 76.644C72.2254 76.644 71.8407 77.3936 71.456 77.7683C71.456 77.7683 71.0712 78.1431 71.2635 78.1431C71.2635 78.3305 71.6482 78.3305 71.8406 78.3305C71.8406 78.3305 72.0331 77.9557 72.0331 77.7683C72.2254 77.581 72.2255 77.581 72.4178 77.3936C72.6102 77.3936 73.1873 76.644 72.6102 76.644ZM82.0365 29.4208C82.806 29.6082 82.9983 30.3578 83.5754 30.9199C83.5754 31.1073 83.5754 31.1073 83.5754 31.1073C83.5754 31.1073 83.5754 31.1073 83.5754 30.9199C83.3831 30.1704 82.9984 29.046 82.0365 29.046V29.4208ZM27.9796 4.12266C28.172 3.93527 28.3644 2.8109 27.7873 2.9983C27.4025 2.9983 27.0178 3.93527 26.8254 4.12266C27.2101 4.12266 27.9796 4.31005 27.9796 4.12266ZM9.51183 31.1073C9.31945 31.1073 9.7042 31.2947 9.51183 31.1073C9.7042 31.2947 9.70422 31.1073 9.8966 30.9199C9.8966 30.7326 10.0889 30.3578 10.0889 30.1704C10.0889 29.983 9.70415 29.7956 9.70415 29.983C9.70415 29.983 9.8966 30.3578 9.8966 30.5452C9.70422 30.9199 9.7042 30.9199 9.51183 31.1073ZM36.444 76.0818C36.2517 76.2692 36.0592 76.2692 36.2516 76.644C36.2516 76.8314 36.444 77.0188 36.6364 76.8314C37.0211 76.644 36.6364 76.0818 36.444 76.0818ZM71.0712 26.0477C70.8788 26.0477 70.8788 26.2351 70.8788 26.4225C71.2635 26.4225 71.6483 26.6099 71.6483 26.2351C71.6483 25.6729 71.2636 25.8603 71.0712 26.0477ZM82.8059 25.6729C82.6135 25.1107 82.2289 25.2981 82.0365 25.6729C82.2289 25.8603 82.9983 26.2351 82.8059 25.6729ZM19.7076 17.8024C19.3228 17.8024 19.1305 17.615 18.7457 17.615C18.9381 17.8024 18.9381 18.1772 19.3228 18.1772C19.5152 17.9898 19.7076 17.9898 19.7076 17.8024ZM68.7627 80.954C69.3398 80.7666 69.3398 80.7666 69.3398 80.2045C68.7627 80.2045 68.7627 80.3919 68.7627 80.954ZM19.8999 18.552C20.0923 18.552 20.6695 18.7394 20.4771 18.1772C20.4771 18.1772 20.2847 17.9898 20.0923 17.9898C20.0923 18.3646 20.0923 18.3646 19.8999 18.552ZM9.12706 34.1056C9.31943 33.9182 9.31938 33.7309 9.31938 33.5435C9.31938 33.7309 9.12706 33.9182 9.12706 34.1056ZM78.3813 69.1482C78.5737 69.3356 78.5737 69.7104 78.9584 69.523C78.7661 69.1482 78.7661 68.9608 78.3813 69.1482ZM84.9221 41.414C84.9221 41.414 84.922 41.6014 85.1144 41.6014C85.1144 41.6014 85.1145 41.414 84.9221 41.414ZM82.9984 32.2317C82.9984 32.0443 82.9984 32.0443 82.9984 31.8569C82.806 32.0443 82.806 32.0443 82.9984 32.2317ZM20.6694 73.8331C20.8618 73.8331 21.0541 73.6457 20.8618 73.4583C20.6694 73.4583 20.6694 73.4583 20.6694 73.8331ZM13.7441 25.2981C13.7441 25.2981 13.9364 25.2981 13.9364 25.1107C13.9364 25.1107 13.7441 25.1107 13.7441 25.2981ZM33.7508 9.93186C33.7508 10.1193 33.7509 10.3066 33.9432 10.3066C33.9432 10.1193 33.7508 9.93186 33.7508 9.93186ZM57.028 0.562181C56.8356 0.374787 56.8356 0.374787 57.028 0.562181C56.8356 0.562181 57.028 0.562181 57.028 0.562181ZM76.8424 71.5844V71.7718C77.0348 71.9592 77.0348 71.7718 76.8424 71.5844ZM16.822 19.8637C16.822 19.6763 16.822 19.6763 16.822 19.8637C16.822 19.6763 16.822 19.6763 16.6297 19.6763C16.6297 19.4889 16.822 19.8637 16.822 19.8637ZM22.4008 16.8654C22.7856 17.0528 22.5932 16.678 22.4008 16.678C22.4008 16.678 22.4008 16.678 22.4008 16.8654ZM25.8635 11.9932C26.0559 11.9932 26.0559 11.9932 25.8635 11.6184C25.8635 11.6184 25.8635 11.8058 25.8635 11.9932ZM81.6517 27.7343C81.8441 27.7343 81.844 27.9216 81.844 27.7343C81.6517 27.5469 81.6517 27.5469 81.6517 27.7343ZM10.2812 41.9762C10.2812 41.7888 10.2812 41.7888 10.2812 41.9762C10.0889 41.9762 10.2812 41.9762 10.2812 41.9762ZM49.3331 78.5179C49.1407 78.5179 49.1407 78.3305 49.3331 78.5179V78.5179ZM24.1321 72.7087C24.3245 72.7087 24.3245 72.7087 24.1321 72.7087C24.3245 72.5213 24.3245 72.5213 24.1321 72.7087C24.3245 72.5213 24.1321 72.7087 24.1321 72.7087ZM66.839 82.0784C66.839 82.0784 67.0313 82.0784 66.839 82.0784V82.0784ZM9.31938 45.724C9.31938 45.9114 9.51175 45.9114 9.31938 45.724C9.51175 45.724 9.51175 45.724 9.31938 45.724ZM3.74063 59.029C3.74063 58.8416 3.74063 59.029 3.74063 59.029V59.029ZM83.7678 31.1073C83.7678 31.1073 83.7678 30.9199 83.5754 30.9199C83.5754 31.1073 83.5754 31.1073 83.7678 31.1073ZM11.6279 26.6099C11.4355 26.6099 11.4355 26.6099 11.6279 26.6099C11.4355 26.6099 11.4355 26.7973 11.6279 26.6099ZM72.4178 27.1721C72.2255 27.1721 72.2255 27.1721 72.4178 27.1721C72.2255 27.1721 72.2255 27.1721 72.4178 27.1721ZM33.9432 11.2436C33.7509 11.2436 33.9432 11.0562 33.9432 11.2436C33.7509 11.2436 33.7509 11.2436 33.9432 11.2436ZM31.0576 0C30.8653 0 30.8653 0 31.0576 0C31.0576 0 30.8653 0 31.0576 0ZM77.2272 71.0222C77.2272 71.2096 77.2272 71.0222 77.2272 71.0222V71.0222ZM17.9762 18.7394C17.9762 18.7394 18.1685 18.7394 17.9762 18.7394C17.9762 18.552 17.9762 18.7394 17.9762 18.7394ZM83.7678 58.092C83.9601 58.092 83.7678 58.092 83.7678 58.092V58.092ZM48.1788 85.8263C48.1788 86.0137 47.9864 86.2011 47.794 86.2011C48.1787 86.0137 48.1788 85.8263 48.3712 85.2641C48.1788 85.4515 48.1788 85.6389 48.1788 85.8263ZM53.7576 83.7649C53.7576 83.9523 53.95 83.9523 53.7576 83.7649C53.95 83.9523 53.95 83.7649 53.7576 83.7649C53.95 83.7649 53.7576 83.7649 53.7576 83.7649ZM51.0644 84.7019C51.0644 84.8893 51.2567 84.8893 51.0644 84.7019C51.2567 84.5145 51.2567 84.7019 51.0644 84.7019ZM78.3813 62.0273C77.6119 61.8399 77.6119 63.339 78.3813 63.1516C78.7661 63.1516 78.9585 62.0273 78.3813 62.0273ZM76.8424 64.8382C76.4576 64.4634 76.0729 65.9626 76.2653 66.3373C76.65 66.5247 77.2271 65.0256 76.8424 64.8382ZM71.8406 71.7718L72.0331 71.9591C72.0331 71.5844 72.033 71.397 72.2254 71.0222C71.8406 71.2096 71.8406 71.5844 71.8406 71.7718ZM73.7644 69.1482C73.572 69.3356 73.9567 69.523 74.1491 69.3356C74.3415 69.3356 73.9567 68.9608 73.7644 69.1482ZM69.9169 74.2079C69.9169 74.2079 69.7246 74.2079 69.5322 74.2079C69.5322 74.3953 69.7245 74.5827 69.9169 74.7701C69.9169 74.3953 69.9169 74.2079 69.9169 74.2079ZM70.1093 73.2709C70.1093 73.6457 70.494 73.4583 70.3017 73.2709H70.1093ZM77.2272 64.0886V64.276C77.6119 64.276 77.4195 64.0886 77.2272 64.0886ZM40.8686 3.74787C41.4457 3.93527 42.7923 3.74787 42.0228 2.9983C41.8304 2.8109 41.2534 2.8109 40.8686 2.8109C40.4839 2.9983 40.4838 2.9983 40.4838 3.37308C40.6762 3.56048 40.8686 3.74787 40.8686 3.74787ZM85.4992 43.6627C84.9221 43.2879 84.1525 43.2879 83.383 43.2879C82.6135 43.2879 81.6517 43.2879 80.8822 43.2879C80.1127 43.2879 79.3432 43.2879 78.5737 43.2879C77.9966 43.4753 77.9966 43.6627 77.9966 44.4123C77.8042 46.0988 77.4195 47.7854 77.4195 49.4719C77.2271 51.1585 77.2271 52.845 76.6499 54.3441C76.4576 55.0937 76.0729 55.6559 75.8805 56.4055C75.6881 57.1551 75.4958 57.7172 75.3034 58.4668C75.1111 59.2164 74.7263 59.7786 74.5339 60.5281C74.3415 60.9029 74.1491 61.0903 74.1491 61.4651C74.1491 61.6525 74.1491 62.0273 73.7644 62.2147C73.572 62.4021 73.3797 62.2147 72.9949 62.2147C72.8026 62.2147 72.8025 62.4021 72.6102 62.5895C72.4178 62.7769 72.2254 62.9643 72.2254 63.1516C72.033 63.5264 72.4178 63.7138 72.4178 64.0886C72.4178 64.6508 71.6483 65.4004 71.2635 65.7752C70.8788 66.3373 70.3016 66.8995 69.9169 67.4617C69.1474 68.3987 68.1856 69.8978 67.2237 70.46C66.839 70.6474 66.6465 70.0852 66.0694 70.2726C65.8771 70.46 65.6847 70.6474 65.4923 70.8348C65.1076 71.2096 64.7229 71.397 64.3381 71.5844C64.1458 71.7718 63.761 71.9592 63.761 72.3339C63.761 72.7087 63.761 72.8961 63.5686 73.2709C63.1839 73.8331 62.6068 73.8331 62.0296 73.8331C61.4525 73.8331 61.8372 74.0205 61.6449 74.5827C61.4525 75.1448 60.683 75.5196 60.2982 75.8944C60.1059 76.0818 59.9136 76.2692 59.5288 76.4566C59.3364 76.644 58.7593 76.644 58.567 76.8314C57.9898 77.2062 57.2203 77.581 56.6432 77.9557C56.0661 78.3305 55.489 78.7053 54.7195 78.7053C54.3347 78.7053 54.3347 78.5179 53.95 78.7053C53.7576 78.8927 53.3729 79.0801 53.1805 79.2675C52.7958 79.4549 52.6034 79.2675 52.2187 79.4549C51.8339 79.4549 51.4491 79.6423 51.0644 79.8297C50.2949 80.0171 49.7178 80.3919 48.9483 80.5793C48.5636 80.7666 48.3712 80.5793 47.9864 80.7666C47.6017 80.7666 47.2169 80.954 46.8321 80.954C46.4474 80.954 46.255 80.7666 45.8703 80.954C45.4855 80.954 45.2931 81.1414 44.9084 81.3288C44.5236 81.5162 44.3313 81.5162 43.9465 81.5162C43.9465 81.5162 43.5618 81.5162 43.3694 81.5162C43.1771 81.3288 43.177 81.1414 42.9847 80.954C42.5999 80.7666 42.2152 80.954 41.8305 80.954C41.061 80.954 40.2915 80.954 39.7144 80.7666C39.1373 80.5793 38.7525 80.2045 38.1753 80.3919C37.7906 80.5793 37.7907 80.5793 37.4059 80.5793C37.0212 80.5793 36.6364 80.3919 36.2516 80.3919C35.4821 80.2045 34.7127 80.0171 33.9432 79.8297C33.1737 79.6423 32.4042 79.2675 31.6347 79.2675C31.0576 79.2675 30.4804 79.6423 29.9033 79.2675C29.5186 79.0801 29.5186 78.5179 29.1339 78.3305C28.5568 78.1431 27.5948 77.9557 27.0177 77.7683C26.633 77.7683 26.4407 77.581 26.2483 77.3936C25.6712 76.8314 25.094 76.644 24.5169 76.2692C23.9398 76.0818 23.3626 75.8944 22.7855 75.5196C22.5931 75.3322 22.4008 75.1448 22.2084 74.9574C21.8237 74.7701 21.6313 74.7701 21.2465 74.7701C20.8618 74.7701 20.0923 74.3953 19.8999 74.0205C19.7075 73.6457 20.477 73.0835 19.8999 72.7087C19.7075 72.5213 19.5152 72.7087 19.1305 72.5213C18.9381 72.3339 18.9381 72.1465 18.7457 71.9591C18.361 71.397 17.7839 71.9592 17.2067 71.397C16.4373 70.8348 16.8219 69.3356 16.0524 68.5861C15.8601 68.3987 15.6678 68.3987 15.283 68.2113C15.0906 68.0239 14.8983 67.6491 14.7059 67.2743C14.3212 66.7121 13.9364 66.1499 13.3593 65.5878C12.7822 65.0256 12.5898 64.4634 12.3974 63.9012C12.205 63.5264 12.205 63.339 12.0127 62.9643C11.8203 62.7769 11.4356 62.0273 11.4356 61.8399C11.6279 61.2777 12.205 62.2147 12.205 62.2147C12.5897 62.7769 13.3593 63.339 13.7441 63.9012C14.1288 64.276 14.1288 65.213 14.7059 65.4004C15.0907 65.5878 15.6678 65.213 15.6678 65.7752C15.6678 65.9626 15.4754 66.1499 15.6678 66.5247C15.6678 66.7121 16.0525 66.8995 16.2449 67.0869C16.822 67.6491 17.2067 68.2113 17.7838 68.7735C18.361 69.523 18.9381 70.0852 19.7076 70.8348C20.2847 71.397 20.8618 72.1465 21.6313 72.5213C22.2084 72.8961 22.7856 72.8961 23.3627 73.2709C23.9398 73.6457 24.3245 74.0205 24.9017 74.2079C25.4788 74.5827 26.0559 74.9575 26.2483 75.5196C26.4407 76.2692 26.8253 76.0818 27.5948 75.8944C28.7491 75.707 29.711 76.644 30.6729 77.0188C31.25 77.2062 32.0195 77.3936 32.5966 77.581C34.9051 78.3305 37.2136 78.7053 39.7144 79.0801C40.4839 79.2675 41.2533 79.0801 42.0228 79.0801C42.7923 79.0801 43.3694 79.2675 43.9465 78.8927C42.9847 78.7053 42.0228 78.7053 41.0609 78.7053C40.2914 78.7053 39.1373 78.8927 38.3678 78.5179C37.983 78.3305 37.5982 78.3305 37.2135 78.1431C36.8287 77.9557 36.6364 77.581 36.2516 77.581C35.8669 77.3936 35.0974 77.581 34.7126 77.581C34.1355 77.581 33.7508 77.3936 33.1737 77.2062C32.2118 76.8314 31.25 76.4566 30.2881 76.0818C29.9033 75.8944 29.5186 75.707 29.1339 75.707C28.5568 75.5196 28.3643 75.5196 27.9796 74.9574C27.7872 74.7701 27.7872 74.7701 27.5948 74.5827C27.4024 74.3953 27.4025 74.2079 27.0177 74.2079C26.633 74.2079 26.2483 74.2079 26.2483 73.8331C26.2483 73.6457 26.2483 73.0835 26.4406 72.8961C26.2483 73.2709 25.4787 73.4583 25.094 73.4583C24.3245 73.2709 23.7474 72.5213 23.1703 71.9591C22.7855 71.5844 22.016 71.397 21.6313 71.0222C21.4389 70.8348 21.2466 70.46 21.0542 70.2726C20.8618 69.8978 20.2846 69.7104 19.8999 69.3356C18.7457 68.3987 17.7838 67.2743 16.822 66.1499C16.6296 65.7752 16.2448 65.4004 16.0524 65.213C15.8601 65.0256 15.6678 64.8382 15.6678 64.6508C15.6678 64.4634 15.6678 64.0886 15.6678 64.0886C15.6678 64.0886 15.2829 63.9012 15.0906 63.9012C14.5135 63.339 14.1288 62.4021 13.7441 61.8399C13.1669 60.9029 12.7822 59.966 12.3974 59.029C12.0127 58.092 11.6279 57.3424 11.4356 56.4055C11.2432 55.8433 11.4356 55.6559 11.4356 55.2811C11.4356 54.9063 11.4355 55.0937 11.0508 54.9063C10.666 54.7189 10.666 54.5315 10.666 54.1567C10.4736 53.5946 10.2813 53.0324 10.0889 52.4702C9.70417 50.5963 9.12701 48.7223 9.31938 46.8484C9.31938 45.724 9.31938 44.5997 9.31938 43.4753C9.31938 42.351 9.51183 41.414 9.51183 40.2896C9.51183 39.9148 9.70415 39.3527 9.70415 39.1653C9.51178 38.7905 9.1271 38.9779 8.93473 38.7905C8.35761 38.4157 8.93471 36.9165 9.51183 38.0409C10.0889 37.4787 10.0889 36.9165 10.0889 36.167C10.2813 35.6048 10.6661 34.6678 10.4737 34.1056C9.89657 34.6678 10.2813 36.3544 9.51183 36.7291C9.31945 36.9165 8.74233 36.9165 8.54996 36.5418C8.54996 36.3544 8.74229 35.7922 8.74229 35.4174C8.74229 34.4804 9.12701 33.5435 9.31938 32.6065C9.51175 32.2317 9.8965 32.0443 9.31938 31.6695C8.93464 31.4821 8.74229 31.6695 8.74229 31.2947C8.74229 30.9199 8.93468 30.3578 9.12706 29.7956C9.31943 29.2334 9.31938 28.6712 9.31938 28.109C9.51175 27.5469 9.70417 27.3595 10.0889 26.9847C10.2813 26.6099 10.4736 26.0477 10.666 25.6729C10.8584 24.736 11.2432 23.6116 11.8203 22.862C12.0127 22.6746 12.3974 22.4872 12.5897 22.1124C12.9745 21.7377 13.1669 21.1755 13.5516 20.8007C13.9364 20.4259 14.1287 20.0511 14.5135 19.6763C14.8982 19.3015 14.8983 18.7394 15.283 18.3646C15.8601 17.615 16.6296 17.0528 17.3991 16.4906C17.7838 16.3032 17.9762 16.1158 18.3609 15.7411C18.5533 15.3663 18.7457 14.9915 19.1305 14.8041C19.3228 14.6167 19.7075 14.6167 19.8999 14.4293C20.0923 14.2419 20.0923 14.0545 20.0923 13.8671C20.2847 13.4923 20.477 13.6797 20.8618 13.4923C21.2465 13.3049 21.6313 12.9302 22.0161 13.1176C22.4008 13.1176 22.5931 13.6797 22.7855 14.0545C23.1702 14.4293 23.3626 14.2419 23.7474 14.0545C23.9397 13.8671 24.1322 13.8671 24.3246 14.0545C24.5169 14.4293 24.1321 14.9915 24.7092 15.1789C24.9016 15.3663 25.4788 15.3663 25.8635 15.1789C26.2483 14.9915 26.4407 14.6167 26.8254 14.4293C27.2101 14.2419 27.5948 14.2419 27.9796 14.0545C28.172 14.0545 28.172 13.8671 28.3644 13.6797C28.5567 13.6797 28.7491 13.6797 28.9415 13.6797C29.3262 13.4923 29.5186 13.1176 29.711 12.9302C30.4805 12.5554 32.0194 12.5554 31.25 11.431C31.0576 11.2436 30.6729 10.8688 31.0576 10.6814C31.4424 10.494 31.6347 11.0562 31.8271 11.2436C32.0194 11.431 32.5965 11.6184 32.7889 11.431C32.9813 11.2436 32.5966 10.3066 32.2118 10.1193C31.8271 9.93186 31.2499 10.3066 30.8652 10.494C30.4804 10.6814 29.9033 10.6814 29.5185 10.8688C28.9414 11.0562 28.5568 11.0562 28.172 11.431C27.9797 11.6184 27.9796 11.8058 27.7873 11.9932C27.7873 12.1806 27.5949 12.1806 27.4025 11.9932C27.2101 11.9932 27.2101 11.9932 27.0177 11.9932C26.2482 12.1806 25.6711 13.3049 25.094 12.1806C24.9016 11.8058 24.7092 11.431 25.094 11.0562C25.2864 10.8688 25.4787 10.8688 25.6711 10.8688C25.8635 10.8688 26.0559 10.8688 26.2483 10.8688L26.4406 11.0562C26.633 11.0562 26.4406 11.2436 26.633 11.0562C26.8253 11.0562 26.8253 10.8688 27.0177 10.6814C27.2101 10.3066 27.2101 9.93186 27.5948 9.93186C27.9796 9.74447 28.3643 10.1193 28.5567 9.93186C28.7491 9.93186 28.7491 9.74447 28.9415 9.55707C29.1338 9.36968 29.3262 9.18229 29.5185 9.18229C30.8652 8.43271 32.2118 8.24532 33.5585 7.87053C35.8669 7.12096 38.1754 6.93356 40.6763 6.74617C42.0229 6.55878 43.1771 6.74617 44.5237 6.93356C45.2932 7.12096 46.0626 6.74617 46.8321 6.93356C47.4092 7.12096 47.7941 7.30835 48.3712 7.30835C48.9483 7.30835 49.5254 7.12096 50.1025 7.30835C50.2949 7.30835 51.4491 7.68314 50.6796 8.05793C50.4872 8.24532 49.7178 8.05793 49.5254 8.05793C48.9483 8.05793 48.3711 8.05793 47.794 8.05793C46.6398 8.05793 45.2932 8.05793 44.139 8.05793C42.7924 8.05793 41.4458 8.24532 40.2915 8.43271C39.7144 8.43271 39.1372 8.62011 38.5601 8.62011C38.1754 8.62011 37.4058 8.62011 37.2135 8.99489C37.0211 9.18229 37.2135 9.36968 37.0211 9.55707C36.8288 9.74447 36.6364 9.74447 36.444 9.74447C35.8669 9.74447 35.2898 9.93186 34.7126 10.1193C35.2898 10.494 35.6745 10.1193 36.2516 10.1193C36.8287 10.1193 36.8287 10.6814 37.2135 11.0562C37.5982 11.2436 37.7906 11.0562 38.1753 11.0562C38.7525 10.8688 39.1373 10.8688 39.7144 10.8688C40.2915 10.8688 40.8687 10.494 41.6381 10.494C42.2153 10.3066 42.9848 10.3066 43.5619 10.3066C43.9466 10.3066 44.1389 10.3066 44.3313 10.494C44.5237 10.6814 44.7161 10.8688 45.1008 10.8688C45.678 10.8688 46.0627 10.494 46.6398 10.3066C47.6017 9.74447 49.1407 10.3066 50.2949 10.494C50.6797 10.494 50.8721 10.6814 51.2568 10.6814C51.4492 10.6814 51.6415 10.8688 52.0262 10.8688C52.2186 10.8688 52.6034 10.8688 52.7958 10.8688C53.1805 10.8688 53.3729 10.8688 53.7576 11.0562C56.2585 11.8058 58.7593 12.7428 61.0678 14.0545C67.0313 17.4276 72.2254 22.2998 75.4958 28.4838C76.0729 29.4208 76.4576 30.3578 76.8424 31.2947C77.0348 31.6695 77.2271 32.0443 77.4195 32.4191C77.4195 32.6065 77.4195 32.9813 77.4195 33.1687C77.4195 33.3561 77.6119 33.5435 77.8043 33.7309C78.189 34.293 78.189 35.0426 78.3813 35.6048C78.5737 36.167 78.7661 36.9165 78.3813 37.2913C79.1508 37.6661 79.3432 39.1653 79.3432 40.1022C79.3432 40.8518 78.3813 42.9131 79.5355 43.4753C80.1127 43.6627 80.8821 43.4753 81.4593 43.4753C82.2288 43.4753 82.806 43.4753 83.5754 43.4753C83.9602 43.4753 84.7297 43.6627 84.9221 43.1005C85.1145 42.7257 84.5373 41.9762 84.5373 41.414C84.5373 41.2266 84.7297 40.8518 84.5373 40.477C84.5373 40.2896 84.3449 40.1022 84.1525 39.9148C83.9602 39.3527 83.7678 38.6031 83.5754 38.0409C83.3831 37.2913 83.3831 37.2913 83.5754 36.5418C83.7678 35.9796 83.5754 35.4174 83.383 34.8552C83.1906 34.293 83.1907 33.7309 82.8059 32.9813C82.6135 32.2317 82.2289 31.6695 82.0365 31.1073C81.8441 30.5452 81.6517 29.983 81.2669 29.6082C81.0746 29.2334 80.3051 28.6712 80.3051 28.2964C80.3051 28.109 80.4974 28.109 80.4974 27.9216C80.4974 27.7343 80.1127 26.9847 79.9203 26.7973C79.5356 26.2351 79.1508 25.4855 78.9584 24.9233C78.7661 24.3612 79.1509 23.799 78.7661 23.4242C78.5737 23.2368 78.3814 23.2368 78.189 23.0494C77.9967 22.862 78.189 22.4872 78.3813 22.2998C79.1508 22.862 79.9203 23.9864 80.4974 24.736C80.6898 25.1107 80.8822 25.8603 81.2669 26.2351C81.8441 26.6099 81.8441 26.0477 81.6517 25.6729C80.8822 24.1738 80.1128 22.6746 79.1509 21.3629C78.9585 20.9881 78.5737 20.6133 78.3813 20.2385C78.189 19.8637 77.6119 19.1141 78.189 18.7394C78.5738 18.552 78.7661 18.9268 78.9584 19.1141C79.1508 19.3015 79.5355 19.4889 79.5355 19.8637C79.7279 20.0511 79.5356 20.2385 79.728 20.6133C79.9204 20.8007 80.1127 20.9881 80.3051 21.1755C80.6898 21.5503 81.2669 22.1124 81.4593 22.4872C81.844 23.0494 81.844 23.4242 82.4211 23.9864C82.4211 23.6116 82.6135 23.2368 82.4211 23.0494C82.4211 22.862 82.0365 22.862 82.0365 22.6746C81.8441 22.4872 82.0364 22.2998 81.844 21.9251C81.6517 21.5503 81.0746 21.3629 80.6898 20.9881C80.1127 20.6133 80.1128 20.2385 80.1128 19.4889C80.1128 18.7394 79.728 19.1141 79.3432 18.7394C78.9585 18.3646 79.1508 17.8024 78.9584 17.4276C78.189 16.1158 77.0348 14.9915 75.8805 13.8671C74.9187 12.9302 73.9567 11.9932 72.8025 11.0562C72.2254 10.6814 71.6483 10.3066 71.0712 9.93186C70.4941 9.55707 69.7246 9.18229 69.1475 8.8075C68.7627 8.43271 68.378 8.05793 67.8008 7.68314C67.4161 7.30835 66.8389 6.93356 66.4542 6.74617C65.8771 6.37138 65.3 6.18399 64.9152 5.8092C64.7229 5.62181 64.5305 5.62181 64.3381 5.43441C63.761 5.24702 63.5686 5.62181 63.1838 5.05963C62.6067 4.12266 61.0678 3.93527 60.1059 3.56048C57.9898 2.62351 55.6813 2.06133 53.3729 1.68654C52.9881 1.68654 52.7957 1.68654 52.411 1.49915C51.8339 1.49915 51.6415 1.12436 51.0644 1.12436C50.4872 0.936968 49.9101 0.936968 49.5254 0.936968C48.7559 0.936968 48.1788 0.936968 47.6017 0.749574C46.2551 0.562181 44.9085 0.749574 43.5619 0.562181C42.9848 0.374787 42.4076 0.562181 41.8305 0.562181C41.061 0.562181 40.2915 0.562181 39.7144 0.749574C39.1373 0.936968 38.7525 1.31176 38.1753 1.31176C37.7906 1.31176 37.5982 1.12436 37.2135 0.936968C36.8287 0.936968 36.444 0.936968 36.0593 0.936968C35.0974 1.12436 34.1355 1.12436 33.366 1.49915C32.5965 1.68654 32.0194 1.87394 31.25 2.06133C31.0576 2.06133 30.8652 2.06133 30.8652 2.24872C30.4804 2.43612 29.9033 2.9983 30.4804 3.37308C30.6728 3.37308 31.6347 3.74787 31.8271 3.74787C32.0194 3.74787 32.0194 3.37308 32.2118 3.18569C32.4042 2.9983 32.5965 2.8109 32.7889 2.8109C33.366 2.62351 33.9431 2.8109 34.3279 2.62351C34.5203 2.43612 34.7127 2.24872 35.0974 2.43612C35.2898 2.43612 35.6746 2.8109 35.867 2.8109C36.0593 2.8109 36.0592 2.43612 36.2516 2.43612C36.444 2.24872 36.6364 2.24872 36.8288 2.24872C37.2136 2.24872 37.7906 2.06133 38.1753 2.24872C38.3677 2.43612 38.7525 2.9983 38.5601 3.18569C38.3677 3.56048 37.4059 3.56048 37.0211 3.74787C36.444 4.12266 36.2516 4.12266 35.6745 3.93527C35.2898 3.93527 35.0974 3.93527 34.7126 3.93527C34.1355 4.12266 33.366 4.31005 32.7889 4.49745C32.2118 4.68484 31.4423 4.87223 30.8652 5.05963C30.2881 5.24702 29.711 5.24702 29.1339 5.62181C28.7492 5.9966 28.3644 6.74617 27.7873 6.93356C27.2101 7.12096 27.4025 6.37138 27.2102 5.9966C27.0178 5.62181 27.0178 5.05963 27.2102 4.68484C27.2102 4.49745 27.7873 4.31005 27.7873 4.31005C27.7873 4.12266 27.4025 3.74787 27.2102 3.74787C26.2483 3.37308 24.5169 4.87223 24.3246 5.8092C24.1322 6.55878 24.7093 5.9966 24.9017 5.8092C25.2864 5.62181 26.0559 5.62181 26.4406 5.9966C26.8254 6.74617 26.2483 7.12096 25.8635 7.49574C25.4788 7.87053 24.9017 8.43271 24.3246 8.8075C23.7475 8.99489 23.3626 8.62011 22.7855 8.62011C22.5931 8.62011 22.4008 8.8075 22.0161 8.62011C21.6313 8.62011 21.8237 8.24532 22.0161 8.05793C22.0161 7.68314 22.2085 7.49574 22.4008 7.12096C22.5932 6.74617 22.9779 6.37138 22.9779 6.18399C22.4008 5.24702 20.6694 7.49574 20.2847 7.87053C19.8999 8.24532 19.3228 8.8075 18.7457 8.99489C17.9762 9.18229 17.7839 8.99489 17.2067 9.55707C16.822 9.93186 16.2448 10.1193 16.0524 10.494C15.6677 10.8688 15.8601 11.2436 15.8601 11.8058C15.8601 12.1806 15.0907 13.1176 14.7059 13.3049C14.1288 13.4923 13.744 12.5554 13.1668 12.7428C12.7821 12.9302 12.2051 13.6797 11.8203 14.0545C11.4356 14.6167 10.8584 15.1789 10.4737 15.7411C10.0889 16.1158 9.51183 16.678 9.51183 17.2402C9.51183 17.615 9.51183 17.8024 9.51183 17.9898C9.31945 18.1772 9.31943 18.3646 9.12706 18.7394C9.12706 19.1141 8.16524 18.7394 7.97286 18.7394C7.78049 18.7394 7.3957 19.4889 7.20333 19.6763C7.01095 20.0511 6.62616 20.4259 6.43379 20.6133C6.04904 20.9881 5.85674 21.5503 5.66436 22.1124C4.51013 24.1738 3.54819 26.2351 2.58633 28.4838C2.00921 29.7956 1.81688 31.1073 1.43213 32.6065C1.04739 33.9182 0.470316 35.23 0.277943 36.7291C0.0855696 37.4787 0.0854991 38.2283 0.0854991 38.9779C0.0854991 39.5401 -0.106874 40.2896 0.0854991 40.8518C0.0854991 41.2266 0.855038 41.6014 0.855038 41.9762C0.855038 42.351 0.277872 42.1636 0.0854991 42.7257C-0.106874 43.2879 0.0855696 43.8501 0.277943 44.4123C0.662689 44.9745 0.855015 44.7871 1.43213 44.7871C1.81688 44.7871 2.0093 44.9745 2.20167 44.5997C2.20167 44.4123 2.20167 44.0375 2.20167 43.8501C2.20167 43.4753 2.20167 43.2879 2.20167 42.9131C2.20167 42.7257 2.20167 41.9762 2.20167 41.7888C2.58642 41.0392 2.58633 42.7257 2.58633 42.9131C2.58633 43.6627 2.58633 44.2249 2.58633 44.9745C2.58633 45.724 2.394 46.2862 2.394 47.0358C2.20163 48.3475 2.39395 50.0341 2.58633 51.3458C2.7787 52.6576 3.16344 53.9694 3.54819 55.2811C4.12531 57.9046 5.27959 60.1534 6.24146 62.5895C6.62621 63.5264 7.20335 64.276 7.58809 65.0256C7.78047 65.5878 7.97277 65.7752 8.35752 66.1499C8.74226 66.5247 9.12708 67.0869 9.51183 67.6491C9.89657 68.0239 9.89655 68.5861 10.0889 69.1482C10.2813 69.7104 10.666 69.8978 11.0508 70.2726C11.4355 70.6474 11.4355 71.0222 11.6279 71.397C12.0126 71.9592 12.3974 72.1465 12.7822 72.5213C13.1669 72.8961 13.3593 73.4583 13.7441 73.8331C14.1288 74.3953 14.7058 74.5827 15.0906 74.9574C16.0524 75.8944 17.0143 76.8314 17.9762 77.581C18.938 78.3305 20.0923 79.0801 21.2465 79.8297C22.016 80.3919 22.9779 80.7666 23.9398 81.3288C24.5169 81.7036 25.094 81.891 25.6711 82.2658C26.8253 82.828 28.172 83.3902 29.3262 83.9523C29.9033 84.1397 30.4805 84.5145 31.25 84.7019C31.6347 84.8893 32.5965 85.2641 32.7889 85.8263C32.7889 86.2011 32.9813 85.8263 32.5966 86.2011L32.2118 86.3885C31.8271 86.5759 31.827 86.5759 31.4423 86.3885C30.8652 86.2011 30.0957 86.0137 29.5185 85.8263C28.3643 85.4515 27.2101 84.7019 26.0559 84.1397C25.4787 83.9523 24.9016 83.7649 24.5169 83.3902C23.9398 83.2028 23.7474 82.6406 23.1703 82.2658C22.9779 82.0784 22.7855 82.0784 22.5932 82.0784C22.4008 82.0784 22.2084 82.2658 22.0161 82.0784C21.8237 81.891 21.8236 81.7036 21.8236 81.5162C21.6313 81.3288 21.4389 81.1414 21.2465 80.954C20.2847 80.3919 19.1304 80.5793 18.3609 79.6423C17.9762 79.2675 17.9762 78.7053 17.3991 78.3305C17.2067 78.1431 16.822 78.1431 16.6297 77.9557C16.2449 77.7683 16.0525 77.581 15.8601 77.3936C15.283 77.0188 14.8983 76.644 14.3212 76.2692C13.744 75.707 13.5516 75.1448 12.9745 74.5827C12.205 73.4583 11.0508 72.5213 10.0889 71.5844C9.70417 71.2096 9.31943 70.8348 9.12706 70.46C8.93468 70.0852 9.1271 69.7104 8.93473 69.523C8.74236 69.1482 8.54994 69.1482 8.16519 68.9609C7.97282 68.7735 7.78047 68.3987 7.58809 68.0239C7.01098 67.2743 6.62621 66.5247 6.24146 65.5878C6.04909 65.213 5.66429 64.8382 5.47192 64.276C5.27955 63.7138 5.66434 63.339 5.27959 62.9643C4.5101 62.2147 4.31778 61.2777 4.1254 60.1534C3.93303 59.5912 3.93301 58.8416 3.74063 58.2794C3.35589 57.5298 3.35591 56.9677 3.16354 56.2181C2.77879 54.9063 2.39398 53.782 2.00923 52.4702C1.62448 50.9711 1.43218 49.4719 1.23981 48.1602C1.23981 47.9728 1.23978 47.2232 0.855038 47.4106C0.470292 47.598 0.662665 48.3475 0.855038 48.5349C1.04741 49.0971 0.662595 49.4719 0.662595 50.0341C0.662595 50.7837 1.04743 51.3458 1.23981 51.908C1.62455 53.2198 1.43216 54.5315 1.8169 55.8433C2.39402 57.9046 3.16354 59.966 4.1254 61.8399C4.8949 63.7138 5.47192 65.7752 6.43379 67.4617C7.39565 69.1482 8.35759 70.8348 9.51183 72.1465C10.4737 73.2709 11.4356 74.2079 12.3974 74.9574C12.9745 75.3322 13.3593 75.707 13.9364 76.2692C14.1288 76.4566 14.3211 76.644 14.5135 76.8314C14.7059 77.0188 15.0906 76.8314 15.283 77.0188C15.6678 77.2062 15.8601 78.1431 16.0524 78.5179C16.4372 79.0801 16.822 79.6423 17.3991 80.0171C18.3609 80.7666 19.3228 81.3288 20.2847 81.891C21.4389 82.6406 22.5932 83.3902 23.555 83.9523C24.7093 84.5145 25.8635 84.8893 26.8254 85.8263C27.0178 86.0137 27.2101 86.2011 27.5948 86.2011C27.7872 86.2011 27.9796 86.0137 28.3644 86.2011C28.9415 86.3885 29.7109 86.7632 30.4804 87.138C31.0575 87.3254 31.4424 87.8876 32.0195 87.8876C32.2119 87.8876 32.5965 87.8876 32.7889 87.8876C33.1737 87.8876 33.5585 88.2624 33.9432 88.4498C34.1356 88.6372 34.3279 88.6372 34.7126 88.6372C35.0974 88.6372 35.2898 88.4498 35.6745 88.6372C36.2516 88.6372 37.0211 89.012 37.5982 89.1994C37.983 89.3868 38.5601 89.3868 38.9449 89.5742C39.522 89.7615 39.5219 90.1363 40.0991 89.9489C40.4838 89.7615 40.6763 89.5742 41.2534 89.5742C41.6381 89.5742 41.8305 89.5742 42.2152 89.5742C42.7924 89.5742 43.5619 89.5741 44.139 89.3867C44.5237 89.3867 44.7161 89.1994 45.1008 89.1994C45.4856 89.1994 45.678 89.3867 46.0627 89.3867C46.2551 89.3867 46.6398 89.1994 46.8321 89.012C47.2169 88.8246 47.4092 88.8246 47.794 88.6372C48.3711 88.4498 49.1406 88.4498 49.7177 88.2624C50.872 88.075 52.0262 87.8876 53.3729 87.7002C55.2966 87.3254 57.2204 86.7632 58.9517 86.0137C60.2983 85.4515 61.4526 84.7019 62.7992 84.3271C63.9534 83.9523 65.1076 83.0154 66.0694 82.4532C67.6084 81.5162 69.1475 80.3919 70.4941 79.0801C71.6483 77.9557 72.6102 76.8314 73.572 75.707C74.3415 74.7701 75.3034 74.0205 76.0729 73.2709C76.65 72.7087 77.8042 71.397 78.5737 71.5844C78.1889 70.6474 78.9584 69.3356 79.5355 68.5861C79.9203 68.0239 80.3051 67.8365 80.8822 67.6491C81.2669 67.4617 81.0746 67.4617 81.0746 66.8995C81.0746 66.3373 81.267 65.9625 81.6517 65.5878C82.0365 65.213 82.4212 64.8382 82.8059 64.4634C82.9983 64.0886 83.1907 63.5264 83.1907 62.9643C83.1907 62.7769 83.3831 62.4021 83.5754 62.2147C83.5754 62.0273 83.5754 61.8399 83.5754 61.4651C83.5754 60.9029 83.9602 60.3407 84.1525 59.7786C84.3449 59.029 84.5373 58.4668 84.7296 57.7172C84.7296 57.5298 84.922 57.155 85.1144 56.9677C85.3068 56.7803 85.4991 56.5929 85.6915 56.4055C86.0762 56.0307 85.4991 56.0307 85.6915 55.6559C85.8839 55.4685 86.2687 55.6559 86.461 55.2811C86.461 55.0937 86.2686 54.9063 86.2686 54.7189C86.2686 54.3441 86.2687 54.1567 86.461 53.782C86.6534 53.2198 87.0381 52.845 87.0381 52.2828C86.8458 51.5332 87.0381 50.9711 87.2305 50.2215C87.4228 49.4719 87.4228 48.9097 87.2305 48.1602C87.0381 47.598 86.6534 47.2232 86.8458 46.661C87.0382 46.2862 87.2305 46.0988 87.2305 45.724C87.2305 45.3493 87.2305 44.9745 87.2305 44.5997C86.0762 44.0375 86.0763 44.0375 85.4992 43.6627ZM45.1008 54.3441C43.7542 54.7189 43.3694 55.6559 44.9084 56.0307C44.716 56.0307 44.7161 56.5929 44.7161 56.5929C42.4076 55.8433 42.4076 57.3424 44.139 58.092C43.9466 58.092 43.7542 58.6542 43.5619 58.6542C41.8305 57.3424 41.061 58.2794 42.4076 60.3407C42.5999 60.5281 42.0228 60.7155 42.0228 60.9029C41.8304 60.7155 41.8305 60.7155 41.6381 60.5281L41.4457 60.3407L40.6763 61.2777C40.4839 61.0903 40.0991 60.7155 39.9067 60.5281L40.8686 59.966C39.7144 59.029 39.3296 60.3407 40.0991 62.2147C40.4838 62.2147 40.8686 62.0273 41.2534 62.0273C41.2534 62.2147 41.2534 62.4021 41.2534 62.4021C40.6763 62.5895 40.2915 62.5895 39.7144 62.7769C39.522 62.9643 39.522 62.9643 38.7526 63.1516C38.7526 60.1533 37.0212 59.029 37.4059 63.9012H36.6364C36.444 62.0273 35.0975 61.0903 34.9051 63.339C35.0975 63.339 35.2898 63.1516 35.4822 63.339C35.6746 63.5264 35.6746 63.9012 35.867 64.276L34.9051 63.7138C34.9051 63.7138 34.9051 63.9012 34.9051 64.0886C33.9432 63.9012 33.9432 63.7138 33.7508 63.5264L33.366 63.339V63.1516C33.366 63.1516 33.1737 63.1516 33.1737 62.9643C32.2118 63.7138 32.2118 64.276 28.5567 62.0273C24.5169 59.5912 22.7855 54.7189 23.1703 50.2215C22.9779 50.2215 22.9779 50.0341 22.7855 50.0341C22.9779 49.8467 22.9779 49.6593 23.1703 49.4719C23.555 47.598 24.3245 45.724 25.4788 44.4123C31.6347 37.1039 42.7923 40.8518 44.7161 49.2845C45.6779 52.2828 45.1008 51.908 45.1008 54.3441ZM29.3262 29.2334C29.3262 30.5452 31.4423 31.1073 31.4423 29.983C31.4423 28.6712 29.3262 28.109 29.3262 29.2334ZM28.5567 53.4072C28.5567 54.5315 29.3262 55.2811 31.4423 54.1567C31.2499 53.2198 31.0576 53.2198 30.6729 52.4702C29.3262 52.2828 28.5567 52.0954 28.5567 53.4072ZM55.8737 38.9779C55.8737 41.0392 58.3745 40.1022 58.7593 39.9148C58.7593 36.3544 55.8737 38.6031 55.8737 38.9779ZM15.283 44.7871V45.724C17.7839 45.724 20.0923 45.5366 20.0923 43.2879C18.1686 43.4753 17.0144 44.4123 15.283 44.7871ZM48.5635 45.5366C48.5635 47.2232 49.5253 48.5349 51.6414 48.5349C51.2567 47.2232 50.1025 44.4123 48.7559 44.0375C48.7559 45.1619 48.5635 44.7871 48.5635 45.5366ZM39.9067 46.8484C39.9067 44.0375 38.1753 42.351 35.2897 42.351C35.4821 44.2249 36.2516 43.8501 37.2135 44.7871C38.5601 46.0988 37.7906 46.661 39.9067 46.8484ZM61.0678 64.276C60.683 63.9012 58.5669 62.5895 56.2584 61.2777L56.0661 61.6525C55.8738 61.6525 55.4889 61.4651 55.4889 61.4651C55.4889 61.2777 55.4889 61.0903 55.4889 60.9029C54.3347 60.3407 53.1805 59.7786 52.2187 59.2164V59.4038C52.411 59.4038 52.411 59.4038 52.411 59.4038C52.411 59.5912 52.2187 59.5912 52.2187 59.7786L52.411 59.966C52.411 59.966 52.411 59.7786 52.2187 59.7786C52.2187 59.5912 52.2187 59.5912 52.2187 59.4038C52.2187 59.4038 52.2186 59.4038 52.0262 59.4038C51.6415 59.2164 51.2568 59.2164 50.872 59.029C50.872 59.029 51.0644 58.8416 51.0644 58.6542C49.9101 58.092 49.1406 57.7172 48.7559 57.7172C48.7559 57.9046 48.9483 58.092 48.9483 58.2794L49.3331 58.6542L49.1406 58.8416C50.1025 60.3407 52.2186 61.6525 53.7576 62.4021C54.1424 62.5895 54.5271 62.7769 55.1043 62.9643C55.489 63.1516 55.8738 63.1516 56.0661 63.339C58.1822 64.0886 60.2983 64.6508 61.0678 64.276ZM24.7092 51.7206C24.7092 53.2198 25.094 53.2198 25.094 55.0937C25.8635 55.4685 27.2101 56.2181 27.5948 56.7803C28.5567 57.9046 28.3644 58.4668 30.6729 58.4668C33.1737 58.4668 34.1356 56.4055 34.1356 53.9694C32.2118 53.0324 33.3661 53.2198 32.0195 52.2828C31.25 53.782 31.8271 53.782 32.7889 55.0937C30.0957 59.029 29.3262 55.4685 27.9796 54.7189C26.633 53.782 27.5949 55.2811 26.8254 53.0324C26.4407 51.908 26.8254 53.0324 26.4406 52.0954L28.7491 50.0341C29.711 50.5963 30.2881 51.1585 31.25 51.5332C30.8652 50.4089 30.8653 50.7837 30.0958 49.8467C27.9797 47.7854 28.172 48.9097 26.4406 50.2215C25.4788 50.7837 25.6711 50.5963 24.7092 51.7206ZM25.094 30.9199C25.4787 31.1073 25.8636 31.1073 26.2483 31.2947C27.7873 31.8569 26.8254 32.2317 28.172 32.6065V30.9199C27.0178 30.1704 27.9796 30.3578 26.4406 30.1704V30.3578C26.2483 30.3578 26.2482 30.3578 26.0559 30.3578C26.0559 30.1704 26.0559 29.7956 26.0559 29.6082C26.2482 29.6082 26.4406 29.6082 26.633 29.6082V29.983C27.2101 29.2334 27.7872 29.4208 28.3644 28.8586L28.5567 28.6712C28.7491 28.2964 29.1339 27.9216 29.3262 27.1721C30.8652 27.9216 32.4042 27.5469 33.9432 27.1721C33.5585 29.046 33.1737 27.3595 33.1737 30.9199C32.5966 30.9199 32.2118 30.9199 31.6347 30.9199L31.8271 31.1073C31.6347 31.1073 31.6347 31.2947 31.4423 31.2947C31.4423 31.2947 31.4423 31.1073 31.25 31.1073C29.9033 31.2947 28.9415 31.6695 28.7491 33.1687C31.6347 32.9813 27.5949 32.4191 33.9432 32.4191C35.2898 29.983 33.9432 30.5452 35.0974 28.6712C35.0974 28.4838 35.6745 27.7343 35.6745 27.5469C35.6745 23.9864 31.0576 26.2351 31.0576 26.2351C29.711 26.2351 30.6728 25.4855 27.9796 25.4855C27.5948 26.0477 27.5949 26.2351 27.4025 26.9847C27.0177 28.2964 27.7872 27.5469 26.633 28.2964C25.4787 29.2334 25.094 28.2964 25.094 30.9199ZM10.8585 46.2862C10.8585 47.7854 12.0127 48.7223 13.3593 49.2845C15.4754 50.2215 17.9762 51.1585 19.3228 49.2845C17.5914 46.8484 15.4754 49.4719 13.7441 46.2862C14.3212 45.3493 14.8983 43.8501 15.6678 43.1005C16.822 41.9762 17.3991 42.5383 18.5534 40.8518C17.9763 39.9148 17.2067 39.7274 16.2449 39.9148C16.4373 40.1022 16.6297 40.2896 16.6297 40.477C16.6297 40.6644 16.4373 40.8518 16.2449 41.0392C16.2449 41.0392 15.8601 40.8518 15.8601 40.6644C15.8601 40.477 16.0525 40.2896 16.2449 40.1022C15.4754 40.477 14.5135 41.0392 13.5516 41.9762V42.1636H13.3593L13.1668 42.351C12.3974 43.1005 12.2051 43.1005 11.8203 44.0375C11.4356 44.2249 10.8585 45.724 10.8585 46.2862ZM51.0644 38.7905C51.0644 40.477 52.411 39.7274 53.95 41.414C54.9118 42.351 54.1423 41.9762 55.2966 42.1636C55.2966 40.477 54.5271 39.7274 53.1805 39.3527C53.5653 38.0409 53.95 38.4157 54.1424 36.9165C55.6814 36.7291 54.9119 36.5418 57.6051 36.5418C58.9517 36.5418 58.5669 38.0409 61.0678 38.2283C60.2983 39.3527 60.2982 38.6031 60.2982 40.477L60.683 40.8518L60.4907 41.0392L60.2982 40.8518C58.7593 40.8518 58.1822 41.2266 56.0661 41.2266V41.9762C58.9517 42.5383 62.0296 43.2879 62.0296 39.1653C66.2618 38.0409 60.4907 36.3544 60.4907 36.3544C59.7212 35.9796 59.5288 34.4804 56.8355 34.4804C52.7957 34.4804 52.6034 36.5418 52.2187 37.1039C52.0263 37.6661 51.0644 38.4157 51.0644 38.7905ZM62.4144 66.7121C59.1441 67.0869 54.9119 67.2743 51.8339 65.9625C51.8339 66.1499 52.0262 66.3373 52.0262 66.3373C51.6415 66.8995 51.0644 67.6491 52.2187 68.2113C52.411 67.8365 52.7957 67.6491 52.9881 67.2743C53.1805 67.0869 52.9881 66.7121 52.9881 66.3373C52.6033 66.3373 52.411 66.3373 52.0262 66.3373C51.4491 66.5247 51.0644 67.4617 50.4873 66.5247C50.2949 66.1499 50.2949 65.7752 50.1025 65.4004C50.2949 65.4004 50.6797 65.4004 50.872 65.4004C50.6797 65.4004 50.6796 65.213 50.4873 65.213C50.2949 65.0256 49.9101 64.8382 49.7177 64.6508L49.5254 65.5878L48.7559 65.213V64.6508C48.5635 64.6508 48.5636 64.6508 48.3712 64.8382C48.3712 65.0256 48.5635 65.213 48.5635 65.213L49.3331 64.4634C48.9483 64.276 48.756 63.9012 48.3712 63.7138V64.0886C48.1788 64.0886 48.1788 64.0886 47.9864 64.0886C47.9864 63.9012 47.794 63.5264 47.794 63.339C47.0245 62.5895 46.255 62.0273 45.2932 62.0273C44.716 62.0273 44.5237 62.2147 44.3313 62.4021H44.5237C44.3314 62.5895 44.3313 62.5895 44.139 62.7769C44.139 63.1516 44.716 63.9012 45.2932 64.6508C45.4855 64.4634 45.4856 64.276 45.6779 64.4634C46.0627 64.6508 46.6398 64.8382 47.0246 65.213C47.0246 65.213 47.0245 65.4004 46.8321 65.4004C46.4474 65.4004 46.255 65.4004 45.8703 65.4004C47.0245 66.5247 48.5636 67.6491 48.9483 67.8365C49.1407 68.0239 49.333 68.0239 49.5254 68.2113L49.7177 68.0239L49.9102 68.3987C52.2186 69.1482 55.8737 69.3356 59.144 69.3356V69.1482C59.3364 68.9608 59.3364 68.9608 59.5288 68.7735C59.9136 68.7735 60.4907 68.9609 60.8755 68.9609V69.1482H61.2601C61.0677 68.7735 60.8755 68.3987 60.8755 68.0239C60.8755 67.0869 61.8373 67.0869 62.4144 66.7121ZM61.4525 59.2164C61.8373 60.5281 62.4144 61.2777 62.9915 62.5895C63.1839 63.339 63.3762 64.0886 63.5686 64.8382C63.761 64.6508 63.9534 64.4634 63.9534 64.276C64.1457 63.9012 64.1457 63.5264 64.1457 63.1516C64.5304 63.339 64.9152 63.5264 65.4923 63.7138C64.9152 64.4634 64.5305 64.8382 63.9534 65.5878C63.9534 65.4004 63.761 65.213 63.5686 64.8382H63.3763C63.5686 65.4004 63.5687 65.9625 63.761 66.5247H62.9915C63.9534 67.8365 63.761 68.3987 62.0296 68.7735H62.9915C64.5305 68.7735 65.4923 68.2113 66.4542 67.8365C66.2618 65.7752 64.7229 58.2794 62.9915 58.2794C62.7991 58.4668 61.8373 59.029 61.4525 59.2164ZM64.7229 52.6576C64.3382 52.2828 64.1458 51.908 63.761 51.3458C63.761 51.1585 63.9534 50.9711 63.9534 50.7837C64.1457 50.9711 64.5305 50.9711 64.7229 51.1585C64.9153 51.5332 64.9152 52.0954 65.1076 52.6576C64.9152 52.4702 64.9153 52.6576 64.7229 52.6576ZM65.4923 66.8995C65.1076 67.0869 64.7229 67.2743 63.9534 67.4617C64.1457 66.8995 64.1458 66.3373 64.3381 66.1499C64.7229 66.1499 65.1076 66.3373 65.4923 66.3373C65.4923 66.7121 65.4923 66.7121 65.4923 66.8995ZM43.1771 61.0903C42.9847 60.7155 42.7924 60.1533 42.6 59.7786C42.7924 59.7786 43.3694 59.7786 43.3694 59.7786C43.5618 60.1533 43.5618 60.5281 43.7542 61.0903C43.3695 60.9029 43.1771 60.9029 43.1771 61.0903ZM35.4822 65.0256C36.0593 63.9012 36.0592 63.9012 37.2135 65.0256C36.6364 65.0256 36.0593 65.0256 35.4822 65.0256ZM67.4161 50.9711C67.8008 50.9711 67.9932 51.1585 68.3779 51.1585C68.3779 51.3458 68.1856 51.5332 68.1856 51.7206C67.8009 51.5332 67.6085 51.5332 67.2237 51.3458C67.4161 51.1585 67.4161 50.9711 67.4161 50.9711ZM63.3763 62.5895C63.5686 62.7769 63.5686 62.9643 63.9534 63.339C63.761 63.339 63.3763 63.5264 63.3763 63.339C63.1839 63.1516 63.1838 62.7769 63.1838 62.5895H63.3763ZM37.983 44.5997C38.1754 44.7871 38.1754 44.9745 38.3678 45.3493C38.3678 45.3493 38.1754 45.5366 37.983 45.5366C37.7906 45.3493 37.7906 44.9745 37.5982 44.7871C37.7906 44.7871 37.7906 44.7871 37.983 44.5997ZM62.7992 55.2811C62.9916 55.0937 63.1839 54.9063 63.3763 54.7189C63.5686 54.7189 63.5686 54.9063 63.5686 54.9063C63.3762 55.0937 63.1838 55.4685 63.1838 55.6559C62.9915 55.4685 62.9916 55.4685 62.7992 55.2811ZM21.6313 55.0937C21.8237 54.9063 22.2085 54.7189 22.4008 54.7189L22.5932 54.9063C22.4008 55.0937 22.016 55.2811 21.8236 55.4685C21.8236 55.2811 21.6313 55.0937 21.6313 55.0937ZM24.1321 58.6542C23.9398 58.6542 23.7475 58.6542 23.3627 58.6542C23.3627 58.4668 23.3627 58.2794 23.3627 58.2794C23.5551 58.2794 23.7474 58.2794 23.9398 58.2794C24.1322 58.2794 24.1321 58.4668 24.1321 58.6542ZM46.0627 35.9796C46.2551 35.7922 46.4474 35.7922 46.6398 35.6048C46.6398 35.6048 47.0245 35.7922 46.8321 35.7922C46.8321 35.9796 46.6398 36.167 46.4475 36.167C46.4475 36.3544 46.2551 36.167 46.0627 35.9796ZM20.6694 54.3441C20.8618 54.5315 20.8618 54.7189 20.8618 54.9063L20.6694 55.0937C20.4771 54.9063 20.4771 54.9063 20.4771 54.7189C20.4771 54.5315 20.6694 54.5315 20.6694 54.3441ZM64.9152 54.3441C64.9152 54.5315 64.9152 54.7189 64.9152 54.9063H64.7229C64.7229 54.7189 64.7229 54.5315 64.7229 54.3441C64.7229 54.3441 64.7229 54.3441 64.9152 54.3441ZM23.3627 57.9046C23.1703 57.7172 22.9779 57.7172 22.9779 57.5298C22.9779 57.3424 22.9779 57.3424 23.1703 57.155C23.1703 57.155 23.3627 57.155 23.555 57.155C23.555 57.5298 23.5551 57.5298 23.3627 57.9046ZM53.7576 61.4651C53.5653 61.2777 53.5652 61.0903 53.3729 60.7155C53.5652 60.7155 53.7576 60.7155 53.7576 60.5281C53.95 60.9029 53.7576 61.2777 53.7576 61.4651C53.95 61.4651 54.1423 61.4651 54.527 61.4651C54.527 61.6525 54.527 61.6525 54.527 61.8399C54.1423 61.8399 53.7576 62.0273 53.7576 61.4651ZM33.9432 21.5503C34.1356 21.7377 34.1356 21.9251 34.1356 21.9251L33.9432 22.1124C33.7509 22.1124 33.7508 21.9251 33.7508 21.9251C33.7508 21.9251 33.7509 21.7377 33.9432 21.5503ZM27.5948 28.4838C27.5948 28.6712 27.7873 28.6712 27.7873 28.8586L27.5948 29.046C27.5948 28.8586 27.4025 28.8586 27.4025 28.6712C27.4025 28.8586 27.5948 28.6712 27.5948 28.4838ZM47.2169 53.782C47.0245 53.782 47.0245 53.782 46.8321 53.782C46.8321 53.5946 46.8322 53.5946 47.0246 53.4072C47.0246 53.4072 47.2169 53.4072 47.2169 53.5946C47.2169 53.5946 47.2169 53.5946 47.2169 53.782ZM33.5585 30.3578C33.5585 30.5452 33.7508 30.5452 33.7508 30.7326L33.5585 30.9199C33.5585 30.9199 33.3661 30.7326 33.5585 30.7326C33.3661 30.5452 33.3661 30.3578 33.5585 30.3578ZM14.7059 42.1636C14.5135 42.351 14.5135 42.351 14.3212 42.351L14.1287 42.1636L14.3212 41.9762C14.5135 41.9762 14.5135 41.9762 14.7059 42.1636ZM63.9534 34.293C64.1457 34.293 64.1457 34.293 64.1457 34.4804C64.1457 34.4804 64.1457 34.6678 64.1457 34.8552C63.9533 34.8552 63.9534 34.8552 63.761 34.6678C63.9534 34.6678 63.9534 34.4804 63.9534 34.293ZM38.3678 62.4021C38.1754 62.4021 38.1753 62.2147 38.1753 62.2147C38.1753 62.0273 38.3678 62.0273 38.3678 61.8399L38.5601 62.0273C38.5601 62.2147 38.5602 62.4021 38.3678 62.4021ZM59.3364 30.5452C59.144 30.7325 59.144 30.7326 59.144 30.7326L58.9517 30.5452L59.144 30.3578C58.9517 30.3578 59.144 30.5452 59.3364 30.5452ZM55.4889 67.6491C55.4889 67.8365 55.489 67.8365 55.2966 68.0239H55.1043V67.8365C55.1043 67.6491 55.2965 67.6491 55.4889 67.6491ZM35.2897 26.9847C35.0974 26.9847 35.0974 26.9847 35.0974 26.9847V26.7973H35.2897V26.9847ZM47.2169 56.5929H47.0246C47.0246 56.5929 47.0245 56.5929 47.2169 56.5929C47.0245 56.4055 47.2169 56.4055 47.2169 56.4055C47.4093 56.5929 47.4093 56.5929 47.2169 56.5929ZM46.8321 56.9677C46.6398 56.9677 46.6398 56.9677 46.8321 56.9677C46.6398 56.7803 46.8321 56.7803 46.8321 56.5929C46.8321 56.7803 46.8321 56.7803 46.8321 56.9677ZM46.4475 52.2828C46.2551 52.2828 46.2551 52.2828 46.4475 52.2828C46.2551 52.0954 46.4475 52.0954 46.4475 51.908C46.4475 52.0954 46.4475 52.0954 46.4475 52.2828ZM65.6848 34.1056V33.9182H65.8771V34.1056C65.8771 34.1056 65.8772 34.1056 65.6848 34.1056ZM33.1737 65.7752C32.9813 65.7752 32.9813 65.5878 33.1737 65.7752C32.9813 65.5878 33.1737 65.5878 33.1737 65.5878C33.1737 65.4004 33.1737 65.5878 33.1737 65.7752C33.1737 65.5878 33.1737 65.7752 33.1737 65.7752ZM30.8652 64.8382C30.8652 64.8382 30.6728 64.8382 30.8652 64.8382C30.8652 64.8382 30.8652 64.6508 30.8652 64.8382C30.8652 64.6508 30.8652 64.6508 30.8652 64.8382ZM35.0974 26.2351C35.0974 26.2351 35.0974 26.4225 35.0974 26.2351C35.0974 26.4225 34.905 26.4225 35.0974 26.2351C34.905 26.2351 35.0974 26.2351 35.0974 26.2351ZM31.4423 22.4872C31.4423 22.6746 31.4423 22.6746 31.4423 22.4872C31.4423 22.6746 31.4423 22.6746 31.4423 22.4872C31.4423 22.6746 31.4423 22.6746 31.4423 22.4872ZM37.7907 21.9251H37.983C37.983 21.9251 37.9831 21.9251 37.7907 22.1124C37.7907 22.1124 37.7907 22.1124 37.7907 21.9251C37.5983 21.9251 37.5983 21.9251 37.7907 21.9251C37.5983 21.9251 37.5983 21.9251 37.7907 21.9251ZM62.6067 55.6559C62.6067 55.6559 62.4144 55.8433 62.6067 55.6559C62.4144 55.6559 62.4144 55.6559 62.4144 55.6559C62.4144 55.6559 62.4144 55.6559 62.6067 55.6559C62.4144 55.6559 62.4144 55.6559 62.6067 55.6559ZM56.8355 57.155C56.8355 57.155 56.8355 56.9677 56.8355 57.155C56.8355 56.9677 56.8355 56.9677 56.8355 57.155C56.8355 56.9677 56.8355 57.155 56.8355 57.155ZM34.1356 23.0494H34.3279H34.1356ZM42.7923 24.3612C42.9847 24.3612 42.9847 24.3612 42.7923 24.3612C42.9847 24.3612 42.9847 24.3612 42.7923 24.3612C42.9847 24.3612 42.7923 24.3612 42.7923 24.3612ZM20.8618 29.983C20.8618 30.1704 20.8618 30.1704 20.8618 29.983C20.8618 30.1704 20.8618 30.1704 20.8618 30.1704C20.8618 30.1704 20.8618 30.1704 20.8618 29.983C20.8618 29.983 20.8618 29.7956 20.8618 29.983C21.0541 29.7956 20.8618 29.983 20.8618 29.983ZM69.9169 50.9711C69.9169 50.9711 69.9169 50.7837 69.9169 50.9711C69.9169 50.7837 70.1093 50.7837 69.9169 50.9711C70.1093 50.9711 70.1093 50.9711 69.9169 50.9711ZM63.761 33.1687C63.761 33.1687 63.9534 33.1687 63.761 33.1687C63.9534 33.1687 63.9534 33.1687 63.761 33.1687C63.9534 33.1687 63.761 33.1687 63.761 33.1687ZM47.6017 51.908C47.6017 52.0954 47.6017 52.0954 47.6017 51.908C47.6017 52.0954 47.6017 52.0954 47.6017 51.908C47.6017 52.0954 47.6017 52.0954 47.6017 51.908C47.6017 51.7206 47.4093 51.5332 47.4093 51.5332H47.6017C47.794 51.7206 47.794 51.7206 47.6017 51.908ZM44.139 58.2794C43.9466 58.2794 43.9466 58.2794 44.139 58.2794C43.9466 58.2794 43.9466 58.2794 44.139 58.2794C43.9466 58.2794 44.139 58.2794 44.139 58.2794ZM20.8618 42.5383C21.2465 42.9131 22.0161 44.0375 22.0161 44.0375C22.0161 45.5366 17.9763 49.4719 21.439 56.9677C21.439 56.9677 21.4389 56.9677 21.6313 56.9677C21.8237 57.5298 22.2085 58.092 22.4008 58.6542C25.6712 64.4634 33.366 67.0869 39.522 64.8382C40.8686 64.276 42.0229 63.7138 43.1771 62.7769C43.1771 62.5895 43.3695 62.5895 43.5619 62.4021C44.5237 61.6525 45.4855 60.5281 46.255 59.4038C47.0245 58.092 47.2169 57.3424 47.794 56.2181C47.794 56.2181 47.794 56.2181 47.794 56.0307C47.794 55.8433 47.9864 55.6559 48.1788 55.2811C48.5635 55.2811 48.9483 55.4685 49.3331 55.8433C49.3331 55.6559 49.3331 55.4685 49.3331 55.2811C49.3331 55.0937 49.5253 54.7189 49.7177 54.7189C49.9101 54.7189 50.1026 54.9063 50.2949 55.0937C50.4873 55.2811 50.4873 55.4685 50.4873 55.6559C50.872 56.0307 50.872 56.4055 50.872 56.7803C52.7958 57.5298 55.4889 58.4668 58.7593 58.2794C58.3745 58.092 57.6051 57.7172 57.2203 57.7172C57.6051 57.155 58.567 57.155 58.567 56.0307C58.567 55.8433 58.567 55.6559 58.567 55.4685C58.1822 55.4685 57.7974 55.4685 57.7974 55.4685C57.7974 55.0937 57.6051 54.5315 57.6051 54.3441L57.4126 54.1567H57.6051C57.4127 53.5946 57.2203 53.2198 57.2203 53.0324L57.4126 53.4072C57.2203 53.4072 57.2204 53.4072 57.028 53.4072V52.845C56.6432 52.845 56.2585 53.782 56.0661 55.4685C54.7195 55.0937 55.2966 55.0937 54.3347 54.5315H54.1424C54.1424 54.5315 54.1423 54.7189 53.95 54.7189C53.7576 54.7189 53.7576 54.7189 53.5652 54.7189C52.9881 54.9063 52.6034 54.9063 52.411 54.7189L52.2187 55.2811C52.0263 55.0937 51.6415 55.0937 51.4491 54.9063C51.4491 55.0937 51.2568 55.2811 51.2568 55.4685L51.0644 55.2811C51.2567 55.0937 51.2568 55.0937 51.4491 54.9063L51.8339 54.5315C51.6415 54.3441 51.4491 54.3441 51.0644 54.1567C50.6796 53.9694 50.2949 53.782 50.1025 53.5946C49.9101 53.5946 49.5254 53.5946 49.1406 53.4072L49.3331 53.2198C48.9483 53.0324 48.5635 52.845 48.1788 52.6576C48.1788 46.0988 45.1008 43.6627 45.1008 42.351C45.1008 41.6014 46.4474 39.5401 46.8321 38.7905C50.872 32.6065 60.106 32.2317 65.6848 36.167C68.5704 38.2283 71.0712 44.7871 69.5322 47.598C68.378 46.8484 67.416 46.4736 67.0313 47.4106C66.6465 47.9728 68.7627 49.2845 68.7627 49.2845C68.7627 49.4719 68.378 50.0341 68.1856 50.2215C68.1856 50.2215 66.0695 48.5349 65.4923 49.2845C65.1076 49.6593 66.0695 50.5963 67.2237 51.5332C67.2237 51.7206 66.8389 52.0954 66.4542 52.6576C65.6847 52.2828 64.3381 50.2215 63.5686 50.7837L63.3763 50.9711C62.9915 51.7206 64.1457 53.2198 64.9152 53.9694C64.9152 53.5946 65.1076 53.4072 65.3 53.2198V53.0324C65.4924 53.0324 65.6847 53.0324 65.8771 53.0324V52.6576L66.0694 52.845C66.6465 52.4702 66.839 52.845 66.839 53.4072C67.0313 53.2198 67.2237 53.0324 67.4161 53.0324C67.4161 53.2198 67.4161 53.2198 67.6085 53.4072C67.4161 53.4072 67.0313 53.5946 66.839 53.5946L65.6848 53.782L65.3 54.1567V53.782H64.9152C64.7229 53.9694 64.3381 54.3441 63.5686 54.5315C63.1839 53.0324 62.0296 51.908 61.6449 51.908C61.6449 51.908 61.6449 52.0954 61.4525 52.2828C61.4525 52.4702 61.4525 53.0324 61.6449 53.4072C61.8372 53.4072 62.4144 53.5946 62.4144 53.782C62.4144 53.9694 62.222 54.3441 62.0296 54.9063C62.0296 54.9063 62.0296 55.0937 62.222 55.0937C61.8372 55.2811 61.2602 55.4685 60.8755 55.4685C60.6831 52.6576 58.9517 51.7206 58.9517 53.782C59.1441 53.782 59.144 53.5946 59.3364 53.2198C59.3364 53.0324 59.7212 53.0324 59.9136 53.0324C60.106 53.0324 60.2982 53.4072 60.2982 53.4072C59.7211 54.5315 60.6831 55.4685 60.8755 56.4055C60.8755 56.4055 60.8755 56.4055 60.8755 56.5929C60.8755 56.5929 60.8755 56.5929 60.8755 56.7803V56.9677C60.2983 56.9677 59.9135 56.9677 59.3364 56.9677C59.3364 57.7172 59.3364 58.092 59.144 58.2794C59.7212 58.2794 60.1059 58.092 60.683 58.092C60.8754 57.9046 61.0678 57.7172 61.4525 57.5298C61.4525 57.7172 61.6449 57.7172 61.8373 57.9046C62.6068 57.7172 63.1839 57.5298 63.9534 57.155C63.761 56.7803 63.761 56.4055 63.9534 56.0307L63.5686 56.4055C63.3762 56.2181 63.3762 56.2181 63.1838 56.0307C63.3762 55.6559 63.761 55.2811 63.9534 54.9063L64.3381 55.2811C64.5305 55.2811 65.1076 55.6559 65.1076 55.6559C65.1076 55.8433 65.1076 56.0307 65.1076 56.4055C65.8771 56.0307 66.6466 55.4685 67.4161 54.7189L67.2237 54.1567C67.4161 54.1567 67.6085 54.1567 67.8008 54.1567V54.5315C67.9932 54.3441 68.1856 54.1567 68.3779 53.9694H68.1856C68.1856 53.782 67.9932 53.5946 67.9932 53.5946C68.3779 53.4072 68.7627 53.0324 69.1475 52.845C69.3398 52.4702 69.7245 52.0954 69.9169 51.7206L68.3779 52.4702C68.3779 52.2828 68.1856 52.2828 68.1856 52.0954C68.5704 51.7206 68.7627 51.3458 69.3398 50.7837L69.9169 51.5332C70.1093 50.9711 70.4941 50.5963 70.6864 50.0341C76.8424 35.4174 61.8373 24.3612 49.5254 32.2317C48.5635 32.7939 48.1788 33.3561 47.4093 33.9182C47.4093 28.8586 45.4855 24.1738 40.4838 22.2998C39.3296 21.7377 37.9831 21.3629 36.8288 21.1755C36.6364 21.1755 36.444 21.3629 36.2516 21.3629C36.0592 21.3629 35.6746 21.3629 35.4822 21.3629C35.2898 21.3629 35.0975 21.1755 34.9051 21.1755C34.9051 21.1755 34.905 20.9881 35.0974 20.9881C32.7889 20.8007 30.4805 21.1755 28.3644 21.9251C28.7491 22.2998 29.9033 21.7377 29.9033 22.4872C29.7109 23.0494 29.7109 23.6116 29.5185 23.9864H29.711H29.9033L30.2881 23.6116L30.4804 23.9864C31.4423 23.799 32.4041 23.6116 33.366 23.6116V22.6746C33.5584 22.6746 33.7509 22.6746 33.9432 22.4872L34.3279 23.6116C37.5982 23.6116 40.4838 24.9233 42.4076 26.7973L42.6 26.6099C42.7924 26.6099 42.7923 26.7973 42.9847 26.7973L42.7923 26.9847C44.7161 29.046 45.678 32.0443 45.1008 35.4174V35.6048C44.9085 37.1039 44.3314 38.7905 43.5619 40.477C42.4076 39.7274 41.2534 38.9779 39.7144 38.4157C35.4822 37.1039 32.5966 37.1039 28.7491 38.7905C26.0559 39.9148 25.6712 40.6644 24.3246 41.6014C22.2085 39.7274 20.4771 35.9796 21.439 32.0443H21.0542C21.0542 31.4821 21.0541 31.1073 20.8618 30.5452C21.2465 30.3578 21.6313 30.3578 21.8236 30.5452C22.4007 29.046 23.555 27.5469 25.4788 26.2351C26.633 25.2981 27.9796 24.736 29.3262 24.1738C29.1339 23.9864 29.1338 23.799 28.9415 23.4242C28.7491 23.0494 28.5568 22.862 28.172 22.1124C27.9797 23.0494 27.9796 23.4242 27.7873 24.3612C27.0178 23.799 26.4407 23.4242 25.8635 22.862C23.7474 24.1738 21.8237 25.8603 20.4771 28.2964C20.2847 28.8586 19.8999 29.4208 19.7076 29.7956C20.0923 30.3578 20.4771 30.9199 20.6694 31.4821C20.6694 31.6695 20.2847 31.8569 20.0923 32.2317C19.9 32.0443 19.5152 31.6695 19.3228 31.4821C19.1304 32.0443 19.1305 32.6065 19.1305 33.3561H19.8999C20.0923 33.7308 20.0923 34.1056 20.0923 34.4804C19.9 34.8552 19.7075 35.0426 19.3228 35.6048C19.8999 35.4174 20.2847 35.4174 20.6694 35.4174L20.0923 34.6678C19.5152 34.6678 19.1304 34.6678 18.938 34.293C18.938 34.8552 18.938 35.6048 18.938 36.167C19.1304 36.167 19.1304 36.3544 19.3228 36.3544L18.938 36.5418C18.938 38.9779 19.5152 40.8518 20.8618 42.5383Z" fill="#1F3773"/>
</svg>
